<?xml version="1.0" encoding="utf-8"?>
<!-- Generator: Adobe Illustrator 22.1.0, SVG Export Plug-In . SVG Version: 6.00 Build 0)  -->
<svg version="1.1" id="Layer_1" xmlns="http://www.w3.org/2000/svg" xmlns:xlink="http://www.w3.org/1999/xlink" x="0px" y="0px"
	 viewBox="0 0 100 100" style="enable-background:new 0 0 100 100;" xml:space="preserve">
<style type="text/css">
	.st0{fill:#BE1E2D;}
	.st1{fill:#00B0BB;}
	.st2{fill:#63C4AF;}
	.st3{fill:#EAEAEA;}
	.st4{fill:#413E34;}
	.st5{fill:none;}
	.st6{clip-path:url(#SVGID_2_);}
	.st7{clip-path:url(#SVGID_4_);}
	.st8{fill:#1E0D12;}
	.st9{fill:#E62F34;}
	.st10{fill:#25793D;}
	.st11{clip-path:url(#SVGID_6_);}
	.st12{clip-path:url(#SVGID_8_);}
	.st13{fill:#FFFFFF;}
	.st14{clip-path:url(#SVGID_10_);}
	.st15{clip-path:url(#SVGID_12_);}
	.st16{fill:#96BF4D;}
	.st17{clip-path:url(#SVGID_14_);}
	.st18{fill-rule:evenodd;clip-rule:evenodd;fill:#FFFFFF;}
	.st19{fill:#C92927;}
	.st20{fill:#253748;}
	.st21{clip-path:url(#SVGID_16_);}
	.st22{fill:#97CB59;}
	.st23{fill:#DA2128;}
	.st24{fill:#00A14B;}
	.st25{fill:#96171A;}
	.st26{fill:#D1E39B;}
	.st27{fill:#4FBBBB;}
	.st28{fill:#37343F;}
	.st29{fill:#077A64;}
	.st30{fill:#F4EED4;}
	.st31{fill:#012E47;}
	.st32{fill:#BE1C42;}
	.st33{fill:#008E9F;}
	.st34{fill:#CD4134;}
	.st35{clip-path:url(#SVGID_18_);}
	.st36{clip-path:url(#SVGID_20_);}
	.st37{fill:#EE2424;}
	.st38{fill:#67BC45;}
	.st39{clip-path:url(#SVGID_22_);}
	.st40{clip-path:url(#SVGID_24_);}
	.st41{fill:#004A54;}
	.st42{fill:#D93128;}
	.st43{fill:#401B23;}
	.st44{fill:#EE2D40;}
	.st45{fill:#F1EBC9;}
	.st46{fill-rule:evenodd;clip-rule:evenodd;fill:#C92927;}
	.st47{fill-rule:evenodd;clip-rule:evenodd;fill:#96BF4D;}
	.st48{fill:#BD3026;}
	.st49{opacity:0.4;fill:#CD4134;}
	.st50{fill:#E6B448;}
	.st51{fill:#E21F26;}
	.st52{fill:#A82123;}
	.st53{fill:#383A3A;}
	.st54{fill:#F17B22;}
	.st55{fill:#F1F0DC;}
	.st56{fill:#56AE78;}
	.st57{fill:#EE262E;}
	.st58{fill:#C47229;}
	.st59{fill:#FEC010;}
	.st60{fill:#C0343E;}
	.st61{fill:url(#SVGID_25_);}
	.st62{fill:#659DAA;}
	.st63{fill:#C9A784;}
	.st64{fill:#DDCFB5;}
	.st65{fill:#D2A886;}
	.st66{fill:#9B3227;}
	.st67{opacity:0.39;fill:#FFFFFF;}
	.st68{fill:#E5E5E5;}
	.st69{fill:#202945;}
	.st70{fill:none;stroke:#ACA300;stroke-miterlimit:10;}
	.st71{fill:none;stroke:#ACA300;stroke-miterlimit:10;stroke-dasharray:2.0083,2.0083;}
	.st72{fill:#ACA300;}
</style>
<g id="reindeer_2_">
	<rect x="47.5" y="75.3" class="st0" width="2" height="2"/>
	<rect x="61.2" y="75.3" class="st0" width="2" height="2"/>
	<polygon class="st0" points="43.6,24.5 43.6,28.4 45.6,28.4 45.6,30.3 43.6,30.3 43.6,32.3 41.6,32.3 41.6,24.5 	"/>
	<rect x="45.6" y="20.6" class="st0" width="2" height="7.8"/>
	<rect x="71" y="75.3" class="st0" width="2" height="2"/>
	<rect x="24" y="28.4" class="st0" width="2" height="3.9"/>
	<rect x="22.1" y="24.5" class="st0" width="2" height="3.9"/>
	<rect x="18.2" y="22.5" class="st0" width="2" height="5.9"/>
	<rect x="20.1" y="28.4" class="st0" width="2" height="3.9"/>
	<path class="st0" d="M26,34.2h-2v2h2v2h3.9v2v2h-2v2v2h5.9v2v2h2v2v2l0,0v2h2v2v2h2v7.8h0v3.9h-2v3.9h-2v2h2v-2h2v-3.9h2v-3.9h2
		v-7.8h-2v-2v-2h2l0,0v0.7v1.3l0,0v2h2v2h2v7.8h2v5.9h2v-5.9l0,0v-7.8h2v-2h3.9v-2h2v-1.3v-0.7l0,0h2v2v2h-3.9v2l0,0v2h2v2h2v2h2
		v7.8h2v-7.8h0v-2h-2v-2h0v-2h-2v-2h2v2h2v2h2v2H71v2h2v7.8h2v-7.8h0v-2h-2v-2h-2v-2h0v-2h-2v-2v-2v-2l0,0v-2h2v-2v-2h-2v-2h-2v-2
		H55.3v2h-9.8v-2h-3.9v2h-2v-2h2v-2h-2v-2v-2v-0.9v-1.1l0,0v-0.4v-1.6h2v-2h-2v-2v-3.9h-2v3.9h-2v-2h-2v2h2v2h2v2h-2v1.6v0.4h-7.8
		v-2v-2h2v-2h-2v2h-2V34.2z M37.7,46h2v2h-2V46z M33.8,40.1h2v2h-2V40.1z"/>
	<rect x="29.9" y="34.2" class="st0" width="2" height="2"/>
	<rect x="39.7" y="22.5" class="st0" width="2" height="2"/>
	<rect x="43.6" y="18.6" class="st0" width="2" height="2"/>
	<rect x="20.1" y="20.6" class="st0" width="2" height="2"/>
	<rect x="22.1" y="32.3" class="st0" width="2" height="2"/>
	<rect x="71" y="51.9" class="st0" width="2" height="2"/>
</g>
<g>
	<defs>
		<rect id="SVGID_1_" x="840" y="0" width="100" height="100"/>
	</defs>
	<clipPath id="SVGID_2_">
		<use xlink:href="#SVGID_1_"  style="overflow:visible;"/>
	</clipPath>
	<g class="st6">
		<g>
			<defs>
				
					<rect id="SVGID_3_" x="372.5" y="-6.7" transform="matrix(0.6711 -0.7413 0.7413 0.6711 132.7255 687.6108)" width="937.7" height="401.9"/>
			</defs>
			<clipPath id="SVGID_4_">
				<use xlink:href="#SVGID_3_"  style="overflow:visible;"/>
			</clipPath>
			<g class="st7">
				
					<rect x="91.4" y="40.5" transform="matrix(0.6711 -0.7413 0.7413 0.6711 -128.8784 415.5565)" class="st5" width="625.1" height="625.1"/>
				
					<rect x="91.4" y="40.5" transform="matrix(0.6711 -0.7413 0.7413 0.6711 -128.8784 415.5565)" class="st8" width="625.1" height="625.1"/>
			</g>
		</g>
	</g>
</g>
<g>
	<defs>
		<rect id="SVGID_5_" x="0" y="140" width="100" height="100"/>
	</defs>
	<clipPath id="SVGID_6_">
		<use xlink:href="#SVGID_5_"  style="overflow:visible;"/>
	</clipPath>
	<g class="st11">
		<g>
			<defs>
				<rect id="SVGID_7_" x="-71.3" y="-558.9" width="595" height="1388.2"/>
			</defs>
			<clipPath id="SVGID_8_">
				<use xlink:href="#SVGID_7_"  style="overflow:visible;"/>
			</clipPath>
			<g class="st12">
				<rect x="-361.1" y="-327.6" class="st5" width="466" height="466"/>
				<rect x="-361.1" y="-327.6" class="st13" width="466" height="466"/>
				<g>
					<polygon class="st8" points="0.4,25.9 0.4,17.9 -7.6,25.9 -15.6,34 -15.6,42 -7.6,34 					"/>
					<polygon class="st8" points="0.4,58.1 0.4,50 -7.6,58.1 -15.6,66.1 -15.6,74.1 -7.6,66.1 					"/>
					<polygon class="st8" points="0.4,9.9 0.4,1.8 -7.6,9.9 -15.6,17.9 -15.6,25.9 -7.6,17.9 					"/>
					<polygon class="st8" points="0.4,-6.2 0.4,-14.2 -7.6,-6.2 -15.6,1.8 -15.6,9.9 -7.6,1.8 					"/>
					<polygon class="st8" points="0.4,42 0.4,34 -7.6,42 -15.6,50 -15.6,58.1 -7.6,50 					"/>
					<polygon class="st8" points="0.4,74.1 0.4,66.1 -7.6,74.1 -15.6,82.2 -15.6,90.2 -7.6,82.2 					"/>
					<polygon class="st8" points="0.4,106.3 0.4,98.2 -7.6,106.3 -15.6,114.3 -15.6,122.3 -7.6,114.3 					"/>
					<polygon class="st8" points="0.4,90.2 0.4,82.2 -7.6,90.2 -15.6,98.2 -15.6,106.3 -7.6,98.2 					"/>
				</g>
				<g>
					<polygon class="st8" points="96.9,34 88.8,34 104.9,17.9 104.9,25.9 					"/>
					<polygon class="st8" points="-15.6,34 -23.7,34 -15.6,25.9 -7.6,17.9 0.4,17.9 -7.6,25.9 					"/>
					<polygon class="st8" points="16.5,34 8.5,34 16.5,25.9 24.6,17.9 32.6,17.9 24.6,25.9 					"/>
					<polygon class="st8" points="0.4,34 -7.6,34 0.4,25.9 8.5,17.9 16.5,17.9 8.5,25.9 					"/>
					<polygon class="st8" points="32.6,34 24.6,34 32.6,25.9 40.6,17.9 48.7,17.9 40.6,25.9 					"/>
					<polygon class="st8" points="64.7,34 56.7,34 64.7,25.9 72.8,17.9 80.8,17.9 72.8,25.9 					"/>
					<polygon class="st8" points="48.7,34 40.6,34 48.7,25.9 56.7,17.9 64.7,17.9 56.7,25.9 					"/>
					<polygon class="st8" points="80.8,34 72.8,34 80.8,25.9 88.8,17.9 96.9,17.9 88.8,25.9 					"/>
				</g>
			</g>
		</g>
	</g>
</g>
<g>
	<defs>
		<rect id="SVGID_9_" x="140" y="140" width="100" height="100"/>
	</defs>
	<clipPath id="SVGID_10_">
		<use xlink:href="#SVGID_9_"  style="overflow:visible;"/>
	</clipPath>
	<g class="st14">
		<g>
			<defs>
				
					<rect id="SVGID_11_" x="-186" y="42.9" transform="matrix(0.6991 -0.715 0.715 0.6991 -88.531 166.3521)" width="678.8" height="290.9"/>
			</defs>
			<clipPath id="SVGID_12_">
				<use xlink:href="#SVGID_11_"  style="overflow:visible;"/>
			</clipPath>
			<g class="st15">
				
					<rect x="102.6" y="100.9" transform="matrix(0.6991 -0.715 0.715 0.6991 -89.4519 221.8114)" class="st5" width="232.6" height="232.6"/>
				
					<rect x="102.6" y="100.9" transform="matrix(0.6991 -0.715 0.715 0.6991 -89.4519 221.8114)" class="st10" width="232.6" height="232.6"/>
			</g>
			<g class="st15">
				
					<rect x="98.9" y="-228" transform="matrix(0.6991 -0.715 0.715 0.6991 144.5745 120.2323)" class="st5" width="232.6" height="232.6"/>
				
					<rect x="98.9" y="-228" transform="matrix(0.6991 -0.715 0.715 0.6991 144.5745 120.2323)" class="st10" width="232.6" height="232.6"/>
			</g>
			<g class="st15">
				
					<rect x="-63.7" y="-61.7" transform="matrix(0.6991 -0.715 0.715 0.6991 -23.2282 54.0087)" class="st5" width="232.6" height="232.6"/>
				
					<rect x="-63.7" y="-61.7" transform="matrix(0.6991 -0.715 0.715 0.6991 -23.2282 54.0087)" class="st10" width="232.6" height="232.6"/>
				<polygon class="st8" points="135.6,124.2 135.5,122.4 135.4,107.8 135.3,104.6 135.3,104.6 135.1,85 135.1,85 135.1,83.7 
					135.1,81.1 127.3,81.2 127.3,81.2 123.3,81.2 123.3,81.2 119.4,81.3 119.4,81.3 116.8,81.3 109.8,81.4 107.7,81.4 107.7,81.4 
					103.8,81.4 103.8,81.4 99.8,81.5 99.8,81.5 88.1,81.6 88.1,81.6 84.2,81.7 84.2,81.7 80.3,81.7 80.3,85.6 80.3,85.6 80.4,89.5 
					80.4,89.5 80.4,91.9 80.5,100 80.5,101.3 80.5,101.3 80.5,105.2 80.5,105.2 80.6,109.1 80.6,109.1 80.7,120.9 80.7,120.9 
					80.8,124.8 80.8,124.8 80.8,128.7 80.8,128.7 80.8,132.6 80.8,132.6 80.9,136.5 84.8,136.5 84.8,136.5 88.7,136.4 88.7,136.4 
					92.6,136.4 92.6,136.4 95.6,136.3 108.3,136.2 108.3,136.2 112.2,136.2 112.2,136.2 124.2,136 127.9,136 127.9,136 131.8,135.9 
					131.8,135.9 135.7,135.9 135.6,124.2 				"/>
				<polygon class="st8" points="5.9,82.5 2,82.6 -29,114.3 -29,118.2 				"/>
				<polygon class="st8" points="13.7,82.4 9.8,82.5 -28.9,122.1 -28.9,123.5 -28.9,126 				"/>
				<polygon class="st8" points="21.5,82.4 17.6,82.4 -28.8,129.9 -28.8,133.8 				"/>
				<polygon class="st8" points="-9.2,137.5 21.8,105.9 25.7,101.9 25.6,98 21.8,101.9 -13.1,137.6 				"/>
				<polygon class="st8" points="25.6,94.1 25.5,90.1 21.7,94.1 -20.9,137.7 -17,137.6 21.7,98 				"/>
				<polygon class="st8" points="21.6,90.2 25.5,86.2 25.5,82.3 21.6,86.3 -28.7,137.7 -24.8,137.7 				"/>
				<polygon class="st8" points="29.4,82.3 25.5,82.3 25.5,86.2 				"/>
				<polygon class="st8" points="25.6,94.1 29.5,90.1 37.2,82.2 33.3,82.2 29.4,86.2 25.5,90.1 				"/>
				<polygon class="st8" points="25.7,101.9 29.6,97.9 45,82.1 41.1,82.1 29.5,94 25.6,98 				"/>
				<polygon class="st8" points="25.8,109.7 29.6,105.8 52.9,82 49,82.1 29.6,101.8 25.7,105.8 				"/>
				<polygon class="st8" points="25.9,117.6 29.7,113.6 60.7,81.9 56.8,82 29.7,109.7 25.8,113.6 				"/>
				<polygon class="st8" points="25.9,125.4 29.8,121.4 68.5,81.8 64.6,81.9 29.8,117.5 25.9,121.5 				"/>
				<polygon class="st8" points="26,133.2 29.9,129.3 76.4,81.7 72.4,81.8 29.9,125.3 26,129.3 				"/>
				<polygon class="st8" points="41.7,137 43.9,136.9 45.7,136.9 80.5,101.3 80.5,100 80.4,97.4 				"/>
				<polygon class="st8" points="80.5,101.3 80.5,100 80.5,101.3 				"/>
				<polygon class="st8" points="37.8,137 80.4,93.4 80.4,91.9 80.4,89.5 33.9,137 				"/>
				<polygon class="st8" points="80.4,89.5 80.4,89.5 80.4,91.9 				"/>
				<polygon class="st8" points="30,137.1 80.3,85.6 80.3,81.7 29.9,133.2 26.1,137.1 				"/>
				<polygon class="st8" points="80.3,85.6 80.3,81.7 80.3,85.6 				"/>
				<polygon class="st9" points="21.8,105.9 21.9,109.8 25.7,105.8 29.6,101.8 29.6,97.9 25.7,101.9 				"/>
				<polygon class="st9" points="21.7,98 21.8,101.9 25.6,98 29.5,94 29.5,90.1 25.6,94.1 				"/>
				<polygon class="st9" points="21.5,74.5 21.5,78.4 25.4,74.5 29.2,70.5 29.2,66.6 25.3,70.6 				"/>
				<polygon class="st9" points="21.3,58.9 21.3,62.8 25.2,58.8 29.1,54.9 29,51 25.2,54.9 				"/>
				<polygon class="st9" points="25.5,82.3 29.3,78.4 29.3,74.4 25.4,78.4 21.5,82.4 21.6,86.3 				"/>
				<polygon class="st9" points="21.6,90.2 21.7,94.1 25.5,90.1 29.4,86.2 29.4,82.3 25.5,86.2 				"/>
				<polygon class="st9" points="21.4,66.7 21.4,70.6 25.3,66.7 29.2,62.7 29.1,58.8 25.2,62.7 				"/>
				<polygon class="st9" points="21.2,51 21.2,55 25.1,51 29,47 28.9,43.1 25.1,47.1 				"/>
				<polygon class="st9" points="21,31.5 24.8,27.5 28.7,23.5 28.7,19.6 24.8,23.6 20.9,27.6 				"/>
				<polygon class="st9" points="28.5,7.9 28.5,4 24.6,7.9 20.8,11.9 20.8,15.8 24.7,11.8 				"/>
				<polygon class="st9" points="21,35.4 21.1,39.3 24.9,35.3 28.8,31.4 28.8,27.5 24.9,31.4 				"/>
				<polygon class="st9" points="21.1,43.2 21.2,47.1 25,43.2 28.9,39.2 28.9,35.3 25,39.3 				"/>
				<polygon class="st9" points="28.6,15.7 28.6,11.8 24.7,15.8 20.8,19.7 20.9,23.6 24.8,19.7 				"/>
				<polygon class="st9" points="28.5,0.1 28.4,-3.9 24.5,0.1 20.7,4.1 20.7,8 24.6,4 				"/>
				<polygon class="st9" points="28.4,-7.8 28.3,-11.7 24.5,-7.7 20.6,-3.8 20.6,0.1 24.5,-3.8 				"/>
				<polygon class="st9" points="103.1,22.7 99.2,22.8 95.3,26.7 91.4,30.7 95.4,30.6 99.2,26.7 				"/>
				<polygon class="st9" points="110.9,22.6 107,22.7 103.2,26.6 99.3,30.6 103.2,30.5 107.1,26.6 				"/>
				<polygon class="st9" points="95.3,22.8 91.4,22.8 87.5,26.8 83.6,30.8 87.5,30.7 91.4,26.8 				"/>
				<polygon class="st9" points="64,27.1 60.1,31 64,31 67.9,27 71.8,23.1 67.9,23.1 				"/>
				<polygon class="st9" points="56.1,23.2 52.2,23.3 48.3,27.2 44.5,31.2 48.4,31.2 52.3,27.2 				"/>
				<polygon class="st9" points="71.8,27 68,30.9 71.9,30.9 75.7,26.9 79.6,23 75.7,23 				"/>
				<polygon class="st9" points="87.4,22.9 83.5,22.9 79.7,26.9 75.8,30.9 79.7,30.8 83.6,26.8 				"/>
				<polygon class="st9" points="64,23.2 60,23.2 56.2,27.2 52.3,31.1 56.2,31.1 60.1,27.1 				"/>
				<polygon class="st9" points="48.3,23.3 44.4,23.4 40.5,27.3 36.6,31.3 40.6,31.2 44.4,27.3 				"/>
				<polygon class="st9" points="13.1,31.6 17.1,31.5 20.9,27.6 24.8,23.6 20.9,23.6 17,27.6 				"/>
				<polygon class="st9" points="-2.5,31.7 1.4,31.7 5.3,27.7 9.1,23.8 5.2,23.8 1.4,27.8 				"/>
				<polygon class="st9" points="21,31.5 24.9,31.4 28.8,27.5 32.6,23.5 28.7,23.5 24.8,27.5 				"/>
				<polygon class="st9" points="36.6,27.4 40.5,23.4 36.5,23.5 32.7,27.4 28.8,31.4 32.7,31.3 				"/>
				<polygon class="st9" points="5.3,31.6 9.2,31.6 13.1,27.6 17,23.7 13.1,23.7 9.2,27.7 				"/>
				<polygon class="st9" points="-10.3,31.8 -6.4,31.8 -2.6,27.8 1.3,23.9 -2.6,23.9 -6.5,27.9 				"/>
				<polygon class="st8" points="134.7,45.9 99.8,81.5 103.8,81.4 134.7,49.8 				"/>
				<polygon class="st8" points="99.8,81.5 103.8,81.4 103.8,81.4 99.8,81.5 				"/>
				<polygon class="st8" points="95.9,81.5 134.6,41.9 134.6,38 92,81.6 				"/>
				<polygon class="st8" points="134.5,31.6 134.5,30.2 84.2,81.7 88.1,81.6 134.6,34.1 				"/>
				<polygon class="st8" points="84.2,81.7 88.1,81.6 88.1,81.6 84.2,81.7 				"/>
				<polygon class="st8" points="83.6,26.8 79.7,30.8 79.7,34.7 83.6,30.8 87.5,26.8 				"/>
				<polygon class="st8" points="91.4,26.8 87.5,30.7 79.8,38.6 79.8,42.6 91.4,30.7 95.3,26.7 				"/>
				<polygon class="st8" points="99.2,26.7 95.4,30.6 79.9,46.5 79.9,50.4 99.3,30.6 103.2,26.6 				"/>
				<polygon class="st8" points="107.1,26.6 103.2,30.5 80,54.3 80,58.2 107.1,30.5 111,26.5 				"/>
				<polygon class="st8" points="114.9,26.5 111,30.5 80.1,62.1 80.1,66 114.9,30.4 118.8,26.5 				"/>
				<polygon class="st8" points="122.7,26.4 118.9,30.4 80.1,70 80.2,73.9 122.8,30.3 126.6,26.4 				"/>
				<polygon class="st8" points="134.5,26.3 130.6,26.3 126.7,30.3 80.2,77.8 80.3,81.7 130.6,30.2 				"/>
				<polygon class="st8" points="134.1,-8.5 134.1,-9 103.1,22.7 99.2,26.7 103.2,26.6 107,22.7 134.1,-5 				"/>
				<polygon class="st8" points="134,-13.2 134,-16.8 95.3,22.8 91.4,26.8 95.3,26.7 99.2,22.8 134,-12.9 				"/>
				<polygon class="st8" points="87.5,26.8 91.4,22.8 133.9,-20.7 133.9,-24.6 87.4,22.9 83.6,26.8 				"/>
				<polygon class="st8" points="79.4,-0.5 79.4,3.4 110.4,-28.3 106.5,-28.2 				"/>
				<polygon class="st8" points="79.4,7.3 79.5,11.2 118.2,-28.4 115.6,-28.3 114.3,-28.3 				"/>
				<polygon class="st8" points="79.5,15.1 79.6,19.1 126,-28.4 122.1,-28.4 				"/>
				<polygon class="st8" points="79.6,23 79.7,26.9 83.5,22.9 133.9,-28.5 129.9,-28.5 				"/>
			</g>
			<g class="st15">
				
					<rect x="-226.3" y="104.6" transform="matrix(0.6991 -0.715 0.715 0.6991 -191.031 -12.2149)" class="st5" width="232.6" height="232.6"/>
				
					<rect x="-226.3" y="104.6" transform="matrix(0.6991 -0.715 0.715 0.6991 -191.031 -12.2149)" class="st10" width="232.6" height="232.6"/>
			</g>
		</g>
	</g>
</g>
</svg>
