<?xml version="1.0" encoding="utf-8"?>
<!-- Generator: Adobe Illustrator 22.1.0, SVG Export Plug-In . SVG Version: 6.00 Build 0)  -->
<svg version="1.1" id="Layer_1" xmlns="http://www.w3.org/2000/svg" xmlns:xlink="http://www.w3.org/1999/xlink" x="0px" y="0px"
	 viewBox="0 0 100 100" style="enable-background:new 0 0 100 100;" xml:space="preserve">
<style type="text/css">
	.st0{fill:#BE1E2D;}
	.st1{fill:#00B0BB;}
	.st2{fill:#63C4AF;}
	.st3{fill:#EAEAEA;}
	.st4{fill:#413E34;}
	.st5{fill:none;}
	.st6{clip-path:url(#SVGID_2_);}
	.st7{clip-path:url(#SVGID_4_);}
	.st8{fill:#1E0D12;}
	.st9{fill:#E62F34;}
	.st10{fill:#25793D;}
	.st11{clip-path:url(#SVGID_6_);}
	.st12{clip-path:url(#SVGID_8_);}
	.st13{fill:#FFFFFF;}
	.st14{clip-path:url(#SVGID_10_);}
	.st15{clip-path:url(#SVGID_12_);}
	.st16{fill:#96BF4D;}
	.st17{clip-path:url(#SVGID_14_);}
	.st18{fill-rule:evenodd;clip-rule:evenodd;fill:#FFFFFF;}
	.st19{fill:#C92927;}
	.st20{fill:#253748;}
	.st21{clip-path:url(#SVGID_16_);}
	.st22{fill:#97CB59;}
	.st23{fill:#DA2128;}
	.st24{fill:#00A14B;}
	.st25{fill:#96171A;}
	.st26{fill:#D1E39B;}
	.st27{fill:#4FBBBB;}
	.st28{fill:#37343F;}
	.st29{fill:#077A64;}
	.st30{fill:#F4EED4;}
	.st31{fill:#012E47;}
	.st32{fill:#BE1C42;}
	.st33{fill:#008E9F;}
	.st34{fill:#CD4134;}
	.st35{clip-path:url(#SVGID_18_);}
	.st36{clip-path:url(#SVGID_20_);}
	.st37{fill:#EE2424;}
	.st38{fill:#67BC45;}
	.st39{clip-path:url(#SVGID_22_);}
	.st40{clip-path:url(#SVGID_24_);}
	.st41{fill:#004A54;}
	.st42{fill:#D93128;}
	.st43{fill:#401B23;}
	.st44{fill:#EE2D40;}
	.st45{fill:#F1EBC9;}
	.st46{fill-rule:evenodd;clip-rule:evenodd;fill:#C92927;}
	.st47{fill-rule:evenodd;clip-rule:evenodd;fill:#96BF4D;}
	.st48{fill:#BD3026;}
	.st49{opacity:0.4;fill:#CD4134;}
	.st50{fill:#E6B448;}
	.st51{fill:#E21F26;}
	.st52{fill:#A82123;}
	.st53{fill:#383A3A;}
	.st54{fill:#F17B22;}
	.st55{fill:#F1F0DC;}
	.st56{fill:#56AE78;}
	.st57{fill:#EE262E;}
	.st58{fill:#C47229;}
	.st59{fill:#FEC010;}
	.st60{fill:#C0343E;}
	.st61{fill:url(#SVGID_25_);}
	.st62{fill:#659DAA;}
	.st63{fill:#C9A784;}
	.st64{fill:#DDCFB5;}
	.st65{fill:#D2A886;}
	.st66{fill:#9B3227;}
	.st67{opacity:0.39;fill:#FFFFFF;}
	.st68{fill:#E5E5E5;}
	.st69{fill:#202945;}
	.st70{fill:none;stroke:#ACA300;stroke-miterlimit:10;}
	.st71{fill:none;stroke:#ACA300;stroke-miterlimit:10;stroke-dasharray:2.0083,2.0083;}
	.st72{fill:#ACA300;}
</style>
<rect x="0" y="0" class="st2" width="100" height="100"/>
<g>
	<defs>
		<rect id="SVGID_1_" x="700" y="0" width="100" height="100"/>
	</defs>
	<clipPath id="SVGID_2_">
		<use xlink:href="#SVGID_1_"  style="overflow:visible;"/>
	</clipPath>
	<g class="st6">
		<g>
			<defs>
				
					<rect id="SVGID_3_" x="232.5" y="-6.7" transform="matrix(0.6711 -0.7413 0.7413 0.6711 86.6857 583.825)" width="937.7" height="401.9"/>
			</defs>
			<clipPath id="SVGID_4_">
				<use xlink:href="#SVGID_3_"  style="overflow:visible;"/>
			</clipPath>
			<g class="st7">
				
					<rect x="-48.6" y="40.5" transform="matrix(0.6711 -0.7413 0.7413 0.6711 -174.9182 311.7708)" class="st5" width="625.1" height="625.1"/>
				
					<rect x="-48.6" y="40.5" transform="matrix(0.6711 -0.7413 0.7413 0.6711 -174.9182 311.7708)" class="st8" width="625.1" height="625.1"/>
				<polygon class="st10" points="141.4,114.1 141,106.2 99.7,68.8 95.9,72.9 				"/>
				<polygon class="st10" points="141.8,122 92.2,77.1 88.4,81.2 142.2,129.9 				"/>
				<polygon class="st10" points="126.8,138.6 77.2,93.6 73.4,97.7 118.9,139 				"/>
				<polygon class="st10" points="142.6,137.8 142.6,137.8 84.7,85.3 80.9,89.5 134.7,138.2 				"/>
			</g>
		</g>
	</g>
</g>
<g>
	<defs>
		<rect id="SVGID_5_" x="-140" y="140" width="100" height="100"/>
	</defs>
	<clipPath id="SVGID_6_">
		<use xlink:href="#SVGID_5_"  style="overflow:visible;"/>
	</clipPath>
	<g class="st11">
		<g>
			<defs>
				<rect id="SVGID_7_" x="-211.3" y="-558.9" width="595" height="1388.2"/>
			</defs>
			<clipPath id="SVGID_8_">
				<use xlink:href="#SVGID_7_"  style="overflow:visible;"/>
			</clipPath>
			<g class="st12">
				<rect x="-35.1" y="-327.6" class="st5" width="466" height="466"/>
				<rect x="-35.1" y="-327.6" class="st13" width="466" height="466"/>
				<g>
					<polygon class="st8" points="5.1,34 -3,34 5.1,25.9 13.1,17.9 21.1,17.9 13.1,25.9 					"/>
					<polygon class="st8" points="37.2,34 29.2,34 37.2,25.9 45.2,17.9 53.3,17.9 45.2,25.9 					"/>
					<polygon class="st8" points="-11,34 -19,34 -11,25.9 -3,17.9 5.1,17.9 -3,25.9 					"/>
					<polygon class="st8" points="21.1,34 13.1,34 21.1,25.9 29.2,17.9 37.2,17.9 29.2,25.9 					"/>
					<polygon class="st8" points="53.3,34 45.2,34 53.3,25.9 61.3,17.9 69.3,17.9 61.3,25.9 					"/>
					<polygon class="st8" points="101.5,34 93.4,34 101.5,25.9 109.5,17.9 117.5,17.9 109.5,25.9 					"/>
					<polygon class="st8" points="85.4,34 77.4,34 85.4,25.9 93.4,17.9 101.5,17.9 93.4,25.9 					"/>
					<polygon class="st8" points="69.3,34 61.3,34 69.3,25.9 77.4,17.9 85.4,17.9 77.4,25.9 					"/>
				</g>
				<g>
					<polygon class="st10" points="93.4,-6.2 173.8,-86.5 181.8,-86.5 93.4,1.8 					"/>
					<polygon class="st10" points="93.4,9.9 189.8,-86.5 197.9,-86.5 93.4,17.9 					"/>
					<polygon class="st10" points="93.4,25.9 101.5,25.9 205.9,-78.5 205.9,-86.5 					"/>
				</g>
				<g>
					<polygon class="st10" points="93.4,34 93.4,25.9 101.5,25.9 					"/>
					<polygon class="st10" points="93.4,42 109.5,25.9 117.5,25.9 93.4,50 					"/>
					<polygon class="st10" points="93.4,58.1 125.6,25.9 133.6,25.9 93.4,66.1 					"/>
					<polygon class="st10" points="93.4,74.1 141.6,25.9 149.7,25.9 93.4,82.2 					"/>
					<polygon class="st10" points="93.4,90.2 157.7,25.9 165.7,25.9 93.4,98.2 					"/>
					<polygon class="st10" points="93.4,106.3 173.8,25.9 181.8,25.9 93.4,114.3 					"/>
					<polygon class="st10" points="93.4,122.3 189.8,25.9 197.9,25.9 93.4,130.4 					"/>
					<polygon class="st10" points="93.4,138.4 101.5,138.4 205.9,34 205.9,25.9 					"/>
				</g>
				<g>
					<polygon class="st9" points="-35.1,-6.2 45.2,-86.5 53.3,-86.5 -35.1,1.8 					"/>
					<polygon class="st9" points="-35.1,9.9 61.3,-86.5 69.3,-86.5 -35.1,17.9 					"/>
					<polygon class="st9" points="61.3,25.9 69.3,25.9 77.4,17.9 77.4,9.9 					"/>
					<polygon class="st9" points="45.2,25.9 53.3,25.9 77.4,1.8 77.4,-6.2 					"/>
					<polygon class="st9" points="29.2,25.9 37.2,25.9 77.4,-14.2 77.4,-22.3 					"/>
					<polygon class="st9" points="13.1,25.9 21.1,25.9 77.4,-30.3 77.4,-38.3 					"/>
					<polygon class="st9" points="-3,25.9 5.1,25.9 77.4,-46.4 77.4,-54.4 					"/>
					<polygon class="st9" points="-19,25.9 -11,25.9 77.4,-62.4 77.4,-70.5 					"/>
					<polygon class="st9" points="-35.1,25.9 -27.1,25.9 77.4,-78.5 77.4,-86.5 					"/>
				</g>
				<g>
					<polygon class="st9" points="-35.1,58.1 -3,25.9 5.1,25.9 -35.1,66.1 					"/>
					<polygon class="st9" points="-35.1,74.1 13.1,25.9 21.1,25.9 -35.1,82.2 					"/>
					<polygon class="st9" points="-35.1,90.2 29.2,25.9 37.2,25.9 -35.1,98.2 					"/>
					<polygon class="st9" points="-35.1,106.3 45.2,25.9 53.3,25.9 -35.1,114.3 					"/>
					<polygon class="st9" points="-35.1,122.3 61.3,25.9 69.3,25.9 -35.1,130.4 					"/>
					<polygon class="st9" points="29.2,138.4 37.2,138.4 77.4,98.2 77.4,90.2 					"/>
					<polygon class="st9" points="13.1,138.4 21.1,138.4 77.4,82.2 77.4,74.1 					"/>
					<polygon class="st9" points="-3,138.4 5.1,138.4 77.4,66.1 77.4,58.1 					"/>
					<polygon class="st9" points="-19,138.4 -11,138.4 77.4,50 77.4,42 					"/>
					<polygon class="st9" points="-35.1,138.4 -27.1,138.4 77.4,34 77.4,25.9 					"/>
				</g>
			</g>
		</g>
	</g>
</g>
<g>
	<defs>
		<rect id="SVGID_9_" x="0" y="140" width="100" height="100"/>
	</defs>
	<clipPath id="SVGID_10_">
		<use xlink:href="#SVGID_9_"  style="overflow:visible;"/>
	</clipPath>
	<g class="st14">
		<g>
			<defs>
				
					<rect id="SVGID_11_" x="-326" y="42.9" transform="matrix(0.6991 -0.715 0.715 0.6991 -130.6518 66.2539)" width="678.8" height="290.9"/>
			</defs>
			<clipPath id="SVGID_12_">
				<use xlink:href="#SVGID_11_"  style="overflow:visible;"/>
			</clipPath>
			<g class="st15">
				
					<rect x="125.1" y="-65.4" transform="matrix(0.6991 -0.715 0.715 0.6991 36.2301 187.9369)" class="st5" width="232.6" height="232.6"/>
				
					<rect x="125.1" y="-65.4" transform="matrix(0.6991 -0.715 0.715 0.6991 36.2301 187.9369)" class="st10" width="232.6" height="232.6"/>
			</g>
			<g class="st15">
				
					<rect x="-37.4" y="100.9" transform="matrix(0.6991 -0.715 0.715 0.6991 -131.5726 121.7132)" class="st5" width="232.6" height="232.6"/>
				
					<rect x="-37.4" y="100.9" transform="matrix(0.6991 -0.715 0.715 0.6991 -131.5726 121.7132)" class="st10" width="232.6" height="232.6"/>
				<polygon class="st8" points="50.1,100.1 50.1,96.1 46.2,100.1 11.4,135.7 15.3,135.7 46.2,104 				"/>
				<polygon class="st8" points="46.2,96.2 50,92.2 50,88.3 46.1,92.3 3.5,135.8 5.5,135.8 7.4,135.8 				"/>
				<polygon class="st8" points="46.1,88.3 49.9,84.4 49.9,80.5 46,84.4 -4.3,135.9 -0.4,135.9 				"/>
				<polygon class="st8" points="49.9,80.5 49.9,84.4 53.8,80.4 				"/>
				<polygon class="st8" points="61.6,80.3 57.7,80.4 53.9,84.3 50,88.3 50,92.2 53.9,88.3 				"/>
				<polygon class="st8" points="69.5,80.3 65.6,80.3 53.9,92.2 50.1,96.1 50.1,100.1 54,96.1 				"/>
				<polygon class="st8" points="77.3,80.2 73.4,80.2 54,100 50.2,104 50.2,107.9 54.1,103.9 				"/>
				<polygon class="st8" points="85.1,80.1 81.2,80.1 54.1,107.8 50.2,111.8 50.3,115.7 54.2,111.8 				"/>
				<polygon class="st8" points="93,80 89,80 54.2,115.7 50.3,119.6 50.4,123.5 54.2,119.6 				"/>
				<polygon class="st8" points="100.8,79.9 96.9,79.9 54.3,123.5 50.4,127.5 50.5,131.4 54.3,127.4 				"/>
				<polygon class="st8" points="70.1,135.1 104.9,99.4 104.9,95.5 66.2,135.1 				"/>
				<polygon class="st8" points="104.8,87.7 58.3,135.2 62.3,135.2 104.8,91.6 				"/>
				<polygon class="st8" points="104.7,79.9 54.4,131.3 50.5,135.3 54.4,135.2 104.7,83.8 				"/>
				<polygon class="st9" points="54,96.1 50.1,100.1 46.2,104 46.3,107.9 50.2,104 54,100 				"/>
				<polygon class="st9" points="53.9,88.3 50,92.2 46.2,96.2 46.2,100.1 50.1,96.1 53.9,92.2 				"/>
				<polygon class="st9" points="50,88.3 53.9,84.3 53.8,80.4 49.9,84.4 46.1,88.3 46.1,92.3 				"/>
			</g>
			<g class="st15">
				
					<rect x="-41.1" y="-228" transform="matrix(0.6991 -0.715 0.715 0.6991 102.4537 20.1341)" class="st5" width="232.6" height="232.6"/>
				
					<rect x="-41.1" y="-228" transform="matrix(0.6991 -0.715 0.715 0.6991 102.4537 20.1341)" class="st10" width="232.6" height="232.6"/>
				<polygon class="st9" points="49.3,25.7 53.2,21.7 53.1,17.8 49.2,21.7 47.3,23.7 				"/>
				<polygon class="st9" points="53,6 52.9,2.1 49.1,6.1 45.2,10 45.2,14 49.1,10 				"/>
				<polygon class="st9" points="51.3,27.6 53.2,29.5 53.2,25.6 				"/>
				<polygon class="st9" points="53.1,13.9 53,10 49.1,13.9 45.3,17.9 45.3,21.8 49.2,17.8 				"/>
				<polygon class="st9" points="52.9,-1.8 52.8,-5.7 49,-1.7 45.1,2.2 45.1,6.1 49,2.2 				"/>
				<polygon class="st9" points="88.4,25.2 84.6,29.2 88.5,29.1 92.3,25.2 96.2,21.2 92.3,21.3 				"/>
				<polygon class="st9" points="80.6,21.4 76.6,21.4 72.8,25.4 68.9,29.4 72.8,29.3 76.7,25.4 				"/>
				<polygon class="st9" points="96.3,25.1 92.4,29.1 96.3,29.1 100.2,25.1 104,21.1 100.1,21.2 				"/>
				<polygon class="st9" points="88.4,21.3 84.5,21.4 80.6,25.3 76.7,29.3 80.6,29.2 84.5,25.3 				"/>
				<polygon class="st9" points="72.7,21.5 68.8,21.5 64.9,25.5 61.1,29.4 65,29.4 68.9,25.4 				"/>
				<polygon class="st9" points="49.2,21.7 45.3,21.8 47.3,23.7 				"/>
				<polygon class="st9" points="51.3,27.6 53.2,25.6 57.1,21.7 53.2,21.7 49.3,25.7 				"/>
				<polygon class="st9" points="61,25.5 64.9,21.6 61,21.6 57.1,25.6 53.2,29.5 57.2,29.5 				"/>
			</g>
			<g class="st15">
				
					<rect x="-203.7" y="-61.7" transform="matrix(0.6991 -0.715 0.715 0.6991 -65.349 -46.0895)" class="st5" width="232.6" height="232.6"/>
				
					<rect x="-203.7" y="-61.7" transform="matrix(0.6991 -0.715 0.715 0.6991 -65.349 -46.0895)" class="st10" width="232.6" height="232.6"/>
				<polygon class="st8" points="6.8,81 2.9,81 -4.8,88.9 -4.8,92.8 				"/>
				<polygon class="st8" points="14.7,80.9 10.7,80.9 -4.7,96.7 -4.7,100.7 				"/>
				<polygon class="st8" points="22.5,80.8 18.6,80.8 -4.7,104.6 -4.6,108.5 				"/>
				<polygon class="st8" points="30.3,80.7 26.4,80.7 -4.6,112.4 -4.5,116.3 				"/>
				<polygon class="st8" points="38.2,80.6 34.2,80.6 -4.5,120.2 -4.5,122.2 -4.4,124.2 				"/>
				<polygon class="st8" points="46,80.5 42.1,80.6 -4.4,128.1 -4.3,132 				"/>
				<polygon class="st9" points="45.9,72.7 45.9,76.6 49.8,72.6 53.7,68.7 53.6,64.8 49.8,68.7 				"/>
				<polygon class="st9" points="45.7,57 45.8,60.9 49.6,57 53.5,53 53.5,49.1 49.6,53.1 				"/>
				<polygon class="st9" points="49.9,80.5 53.8,76.5 53.7,72.6 49.9,76.6 46,80.5 46,84.4 				"/>
				<polygon class="st9" points="45.8,64.9 45.8,68.8 49.7,64.8 53.6,60.9 53.5,56.9 49.7,60.9 				"/>
				<polygon class="st9" points="45.6,49.2 45.7,53.1 49.5,49.2 53.4,45.2 53.4,41.3 49.5,45.2 				"/>
				<polygon class="st9" points="47.3,23.7 45.4,25.7 45.4,29.6 49.3,25.7 				"/>
				<polygon class="st9" points="49.3,29.6 45.5,33.5 45.5,37.5 49.4,33.5 53.2,29.5 51.3,27.6 				"/>
				<polygon class="st9" points="45.6,45.3 49.5,41.3 53.3,37.4 53.3,33.4 49.4,37.4 45.5,41.4 				"/>
				<polygon class="st9" points="45.3,21.8 41.5,25.8 37.6,29.7 41.5,29.7 45.4,25.7 47.3,23.7 				"/>
				<polygon class="st9" points="21.9,29.9 25.8,29.8 29.7,25.9 33.6,21.9 29.7,22 25.8,25.9 				"/>
				<polygon class="st9" points="49.3,25.7 45.4,29.6 49.3,29.6 51.3,27.6 				"/>
				<polygon class="st9" points="33.6,25.8 29.7,29.8 33.7,29.8 37.5,25.8 41.4,21.8 37.5,21.9 				"/>
				<polygon class="st9" points="14.1,30 18,29.9 21.9,26 25.7,22 21.8,22.1 18,26 				"/>
				<polygon class="st9" points="2.3,22.3 -1.7,22.3 -5.5,26.3 -5.5,30.2 				"/>
				<polygon class="st9" points="6.2,26.1 10.1,22.2 6.2,22.2 2.3,26.2 -1.6,30.1 2.3,30.1 				"/>
				<polygon class="st9" points="6.3,30.1 10.2,30 14,26.1 17.9,22.1 14,22.1 10.1,26.1 				"/>
			</g>
		</g>
	</g>
</g>
<g>
	<polygon class="st41" points="80.1,72.7 62.1,55.6 74,55.6 58.6,40.9 69.2,40.8 51.3,23.9 33.6,41.1 44.3,41 29,55.9 41,55.8 
		23.2,73 	"/>
</g>
</svg>
