<svg enable-background="new 0 0 100 100" viewBox="0 0 100 100" xmlns="http://www.w3.org/2000/svg" xmlns:xlink="http://www.w3.org/1999/xlink"><clipPath id="a"><path d="m560 0h100v100h-100z"/></clipPath><clipPath id="b"><path d="m92.5-6.7h937.7v401.9h-937.7z" transform="matrix(.6711 -.7413 .7413 .6711 40.646 480.0393)"/></clipPath><clipPath id="c"><path d="m-280 140h100v100h-100z"/></clipPath><clipPath id="d"><path d="m-351.3-558.9h595v1388.2h-595z"/></clipPath><clipPath id="e"><path d="m-140 140h100v100h-100z"/></clipPath><clipPath id="f"><path d="m-466 42.9h678.8v290.9h-678.8z" transform="matrix(.6991 -.715 .715 .6991 -172.7726 -33.8444)"/></clipPath><clipPath id="g"><path d="m140 140h100v100h-100z"/></clipPath><path d="m0 0h100v100h-100z" fill="#eaeaea"/><g clip-path="url(#a)"><g clip-path="url(#b)"><path d="m-188.6 40.5h625.1v625.1h-625.1z" fill="none" transform="matrix(.6711 -.7413 .7413 .6711 -220.958 207.985)"/><path d="m-188.6 40.5h625.1v625.1h-625.1z" fill="#1e0d12" transform="matrix(.6711 -.7413 .7413 .6711 -220.958 207.985)"/><g fill="#e62f34"><path d="m.9 23.3-3.8 4.1 7.9-.4z"/><path d="m12.9 26.6 7.9-.4-12.4-11.2-3.8 4.1z"/><path d="m28.7 25.8 7.8-.4-20.7-18.7-3.7 4.2z"/><path d="m44.4 25.1 7.9-.4-29-26.3-3.7 4.2z"/><path d="m60.2 24.3 7.9-.4-37.3-33.7-3.7 4.1z"/><path d="m76 23.5 7.8-.4-45.5-41.2-3.7 4.1z"/><path d="m91.7 22.7 7.9-.4-53.8-48.7-3.7 4.1z"/><path d="m106.3-1.7-45.5-41.2-3.7 4.1 49.6 44.9z"/><path d="m53.3-34.7-3.7 4.2 57.9 52.4-.4-7.9z"/></g><g fill="#25793d"><path d="m.6 98.4-.3-7.9-33.1-30-3.8 4.1z"/><path d="m1.4 114.1-.4-7.9-41.3-37.4-3.8 4.1z"/><path d="m1.8 122-49.6-44.9-3.8 4.1 53.8 48.7z"/><path d="m2.6 137.8-57.9-52.5-3.8 4.2 53.8 48.7z"/></g></g></g><g clip-path="url(#c)"><g clip-path="url(#d)"><path d="m-175.1-327.6h466v466h-466z" fill="none"/><path d="m-175.1-327.6h466v466h-466z" fill="#fff"/><g fill="#1e0d12"><path d="m-6.4 34h-8l8-8.1 8-8h8.1l-8.1 8z"/><path d="m9.7 34h-8.1l8.1-8.1 8-8h8l-8 8z"/><path d="m57.9 34h-8.1l8.1-8.1 8-8h8l-8 8z"/><path d="m90 34h-8l8-8.1 8-8h8.1l-8.1 8z"/><path d="m41.8 34h-8l8-8.1 8-8h8.1l-8.1 8z"/><path d="m25.7 34h-8l8-8.1 8.1-8h8l-8 8z"/><path d="m73.9 34h-8l8-8.1 8.1-8h8l-8 8z"/><path d="m106.1 34h-8.1l8.1-8.1 8-8h8l-8 8z"/></g><g fill="#25793d"><path d="m-46.6-6.2 80.4-80.3h8l-88.4 88.3z"/><path d="m-46.6 9.9 96.4-96.4h8.1l-104.5 104.4z"/><path d="m49.8 25.9h8.1l8-8v-8z"/><path d="m33.8 25.9h8l24.1-24.1v-8z"/><path d="m17.7 25.9h8l40.2-40.1v-8.1z"/><path d="m1.6 25.9h8.1l56.2-56.2v-8z"/><path d="m-14.4 25.9h8l72.3-72.3v-8z"/><path d="m-30.5 25.9h8l88.4-88.3v-8.1z"/><path d="m-46.6 25.9h8.1l104.4-104.4v-8z"/><path d="m-46.6 74.1 48.2-48.2h8.1l-56.3 56.3z"/><path d="m-46.6 90.2 64.3-64.3h8l-72.3 72.3z"/><path d="m-46.6 106.3 80.4-80.4h8l-88.4 88.4z"/><path d="m-46.6 122.3 96.4-96.4h8.1l-104.5 104.5z"/><path d="m17.7 138.4h8l40.2-40.2v-8z"/><path d="m1.6 138.4h8.1l56.2-56.2v-8.1z"/><path d="m-14.4 138.4h8l72.3-72.3v-8z"/><path d="m-30.5 138.4h8l88.4-88.4v-8z"/><path d="m-46.6 138.4h8.1l104.4-104.4v-8.1z"/></g></g></g><g clip-path="url(#e)"><g clip-path="url(#f)"><path d="m-14.9-65.4h232.6v232.6h-232.6z" fill="none" transform="matrix(.6991 -.715 .715 .6991 -5.8907 87.8386)"/><path d="m-14.9-65.4h232.6v232.6h-232.6z" fill="#25793d" transform="matrix(.6991 -.715 .715 .6991 -5.8907 87.8386)"/><path d="m23.4 79.2h-3.9l.1 4z" fill="#1e0d12"/><path d="m31.3 79.1-4 .1-7.7 7.9v3.9z" fill="#1e0d12"/><path d="m19.7 98.8 19.4-19.8-3.9.1-15.5 15.8v2.6z" fill="#1e0d12"/><path d="m46.9 78.9-3.9.1-23.2 23.7v4z" fill="#1e0d12"/><path d="m54.8 78.9h-4l-30.9 31.7v3.9z" fill="#1e0d12"/><path d="m62.6 78.8h-3.9l-38.7 39.6v1.4 2.5z" fill="#1e0d12"/><path d="m70.4 78.7h-3.9l-46.5 47.5.1 3.9z" fill="#1e0d12"/><path d="m39.7 133.8 31-31.6 3.8-4v-3.9l-3.9 4-34.8 35.6z" fill="#1e0d12"/><path d="m74.5 90.4-.1-3.9-3.9 3.9-42.5 43.6 3.9-.1 38.7-39.6z" fill="#1e0d12"/><path d="m70.5 86.5 3.9-4-.1-3.9-3.8 4-50.4 51.5 3.9-.1z" fill="#1e0d12"/><path d="m78.2 78.6h-3.9l.1 3.9z" fill="#1e0d12"/><path d="m74.5 90.4 3.8-4 7.8-7.9h-3.9l-3.9 4-3.9 4z" fill="#1e0d12"/><path d="m74.5 98.2 3.9-4 15.5-15.8-3.9.1-11.6 11.8-3.9 4z" fill="#1e0d12"/><path d="m74.6 106 3.9-3.9 23.2-23.8-3.9.1-19.3 19.8-3.9 3.9z" fill="#1e0d12"/><path d="m74.7 113.9 3.9-4 31-31.7-4 .1-27 27.7-3.9 4z" fill="#1e0d12"/><path d="m74.8 121.7 3.9-4 38.7-39.6-3.9.1-34.9 35.6-3.8 4z" fill="#1e0d12"/><path d="m74.9 129.5 3.9-3.9 46.4-47.5h-3.9l-42.6 43.6-3.8 3.9z" fill="#1e0d12"/><path d="m90.6 133.3 2.2-.1h1.7l34.9-35.6-.1-1.3v-2.6z" fill="#1e0d12"/><path d="m86.7 133.3 42.6-43.5v-1.6l-.1-2.4-46.4 47.6z" fill="#1e0d12"/><path d="m78.9 133.4 50.3-51.5-.1-3.9-50.3 51.5-3.9 3.9z" fill="#1e0d12"/><g fill="#e62f34"><path d="m70.7 102.2v3.9l3.9-4 3.9-3.9-.1-4-3.9 4z"/><path d="m70.6 94.3v4l3.9-4 3.9-4-.1-3.9-3.8 4z"/><path d="m70.3 70.8.1 4 3.8-4 3.9-4v-3.9l-3.9 4z"/><path d="m70.2 55.2v3.9l3.9-4 3.8-3.9v-3.9l-3.9 3.9z"/><path d="m74.3 78.6 3.9-3.9v-3.9l-3.9 3.9-3.9 4 .1 3.9z"/><path d="m70.5 86.5v3.9l3.9-3.9 3.9-4-.1-3.9-3.8 3.9z"/><path d="m70.2 63 .1 3.9 3.9-3.9 3.8-4v-3.9l-3.9 4z"/><path d="m70.1 47.4v3.9l3.9-4 3.8-3.9v-4l-3.9 4z"/><path d="m69.8 27.8 3.9-4 3.9-3.9-.1-4-3.8 4-3.9 4z"/><path d="m77.4 4.2v-3.9l-3.9 3.9-3.9 4 .1 3.9 3.8-3.9z"/><path d="m69.9 31.7v3.9l3.9-3.9 3.9-4-.1-3.9-3.8 3.9z"/><path d="m70 39.5v3.9l3.9-3.9 3.9-4-.1-3.9-3.9 4z"/><path d="m77.5 12v-3.9l-3.9 4-3.9 3.9.1 3.9 3.8-3.9z"/><path d="m77.3-3.6v-3.9l-3.9 3.9-3.9 4 .1 3.9 3.9-4z"/><path d="m105 19.6h-3.9l-3.9 4-3.9 3.9h3.9l3.9-4z"/><path d="m97.2 19.6-4 .1-3.8 3.9-3.9 4h3.9l3.9-4z"/><path d="m62 27.9 3.9-.1 3.9-3.9 3.9-4h-3.9l-3.9 4z"/><path d="m46.4 28h3.9l3.8-4 3.9-3.9h-3.9l-3.9 4z"/><path d="m69.8 27.8 4-.1 3.8-3.9 3.9-4-3.9.1-3.9 3.9z"/><path d="m85.5 23.7 3.8-4-3.9.1-3.9 3.9-3.8 4 3.9-.1z"/><path d="m54.2 28 3.9-.1 3.9-3.9 3.8-4h-3.9l-3.8 4z"/><path d="m38.5 28.1h3.9l3.9-4 3.9-3.9h-3.9l-3.9 4z"/><path d="m26.7 20.4-3.9.1-3.9 3.9v4z"/><path d="m30.6 24.3 3.9-4-3.9.1-3.9 3.9-3.8 4h3.9z"/><path d="m30.7 28.2h3.9l3.9-4 3.9-3.9h-4l-3.8 4z"/></g><path d="m19.6 87.1v-3.9z" fill="#1e0d12"/><path d="m19.5 81.2v-2z" fill="#1e0d12"/><path d="m19.8 102.7-.1-5.2v-2.6z" fill="#1e0d12"/><path d="m19.7 94.9-.1-3.9z" fill="#1e0d12"/><path d="m19.6 83.2-.1-4v2z" fill="#1e0d12"/><path d="m19.6 91v-3.9z" fill="#1e0d12"/><path d="m19.7 97.5v-2.6z" fill="#1e0d12"/><path d="m20 126.2v-3.9-1.9l-.1-5.9v-3.9l-.1-3.9v-4l-.1-7.8-.1-3.9v-3.9-3.9l-.1-2v-2l-3.9.1h-3.9l-3.9.1h-3.9l-4 .1h-3.9l-3.9.1h-3.9-3.9l-3.9.1h-3.9l-4 .1h-3.9l-3.9.1 55.4 54.2v-4z" fill="#1e0d12"/><path d="m19.6 83.2-.1-2z" fill="#1e0d12"/><path d="m3.2 20.7h-3.9l-3.9 4-3.9 4 4-.1 3.8-3.9z" fill="#e62f34"/><path d="m15 28.4h3.9v-4z" fill="#e62f34"/><path d="m11 20.6-3.9.1-3.9 3.9-3.8 4 3.9-.1 3.9-3.9z" fill="#e62f34"/><path d="m11.1 24.5-3.9 4 3.9-.1 3.9-3.9 3.9-4-4 .1z" fill="#e62f34"/><g fill="#1e0d12"><path d="m19.5 79.2v-3.9z"/><path d="m19.5 79.2v-3.9l-3.9 4z"/><path d="m15.6 79.3 3.9-.1z"/><path d="m11.7 79.3 7.7-7.9v-3.9l-11.6 11.9z"/><path d="m7.8 79.4 3.9-.1z"/><path d="m19.3 59.7v1.9z"/><path d="m3.9 79.4 15.4-15.8v-2-1.9l-19.4 19.8z"/><path d="m19.3 55.8-.1-4z"/><path d="m-4 79.5 23.3-23.7-.1-4-27.1 27.8z"/><path d="m-15.7 79.6h3.9l31-31.7-.1-3.9z"/><path d="m19.1 40.1-.1-3.9z"/><path d="m-19.6 79.7 38.7-39.6-.1-3.9-42.5 43.5z"/><path d="m-27.5 79.8 46.5-47.5-.1-3.9-50.3 51.4z"/><path d="m-.7 24.7-3.8 3.9-31 31.7v3.9l34.9-35.6 3.8-4z"/><path d="m7.2 24.6-3.9 3.9-38.7 39.6v3.9l42.6-43.5 3.9-4z"/><path d="m18.9 24.4-3.9.1-3.9 3.9-46.4 47.5v4l50.3-51.5z"/><path d="m18.9 22.5v-2z"/><path d="m15 24.5 3.9-.1v-1.9-2z"/><path d="m18.8 16.6v-3.9z"/><path d="m7.2 24.6 3.9-.1 3.8-3.9 3.9-4v-3.9l-7.8 7.9z"/><path d="m-.7 24.7 3.9-.1 3.9-3.9 11.6-11.9v-3.9l-15.5 15.8z"/><path d="m-8.5 24.7h3.9l3.9-4 19.3-19.8v-1.9-2l-23.2 23.8z"/><path d="m-16.3 24.8h3.9l3.9-4 27.1-27.7-.1-3.9-31 31.7z"/><path d="m-20.3 21-3.9 3.9h4l3.8-4 34.9-35.6-.1-3.9z"/><path d="m-28.1 25 3.9-4 42.6-43.5-.1-4-46.4 47.5-3.9 4z"/></g></g><g clip-path="url(#f)"><path d="m-177.4 100.9h232.6v232.6h-232.6z" fill="none" transform="matrix(.6991 -.715 .715 .6991 -173.6934 21.615)"/><path d="m-177.4 100.9h232.6v232.6h-232.6z" fill="#25793d" transform="matrix(.6991 -.715 .715 .6991 -173.6934 21.615)"/><path d="m-35.2 83.8h-.1l.1 3.9v3.9l.1 3.9v3.9l.1 4v3.9l.1 3.9v3.9 3.9l.1 3.9v3.9l.1 4v3.9l3.9-.1h4l3.9-.1h3.9l5.9-.1h1.9 3.9l3.9-.1h4l7.8-.1 3.9-.1h3.9 3.9l-55.4-54.2z" fill="#1e0d12"/></g><g clip-path="url(#f)"><path d="m-181.1-228h232.6v232.6h-232.6z" fill="none" transform="matrix(.6991 -.715 .715 .6991 60.333 -79.9641)"/><path d="m-181.1-228h232.6v232.6h-232.6z" fill="#25793d" transform="matrix(.6991 -.715 .715 .6991 60.333 -79.9641)"/><g fill="#1e0d12"><path d="m-36.1 5.5v3.9l38.7-39.6h-3.9z"/><path d="m-36 13.3v3.9l46.5-47.5-4 .1z"/><path d="m-36 21.1.1 3.9 3.9-3.9 50.3-51.5-3.9.1z"/></g></g></g><g clip-path="url(#g)"><path clip-rule="evenodd" d="m55.4 49.7h268.4v268.4h-268.4z" fill="#fff" fill-rule="evenodd"/><path d="m77.8 60.8 16.8 16.8 5.5 5.6 5.6-5.6 16.8-16.8 16.8 16.8 5.6 5.6 5.6-5.6 16.8-16.8 22.3 22.4 5.6-5.6 16.8-16.8 16.8 16.8 5.6 5.6 5.5-5.6 16.8-16.8 16.8 16.8 5.6 5.6 5.6-5.6 16.8-16.8 22.3 22.4v-11.2l-16.8-16.8-5.5-5.5-5.6 5.5-16.8 16.8-22.4-22.3-5.6 5.5-16.7 16.8-16.8-16.8-5.6-5.5-5.6 5.5-16.8 16.8-22.3-22.3-5.6 5.5-16.8 16.8-16.8-16.8-5.6-5.5-5.6 5.5-16.8 16.8-16.7-16.8-5.6-5.5-5.6 5.5-16.8 16.8v11.2z" fill="#c92927"/><path d="m77.8 105.6 16.8 16.8 5.5 5.5 5.6-5.5 16.8-16.8 16.8 16.8 5.6 5.5 5.6-5.5 16.8-16.8 22.3 22.3 5.6-5.5 16.8-16.8 16.8 16.8 5.6 5.5 5.5-5.5 16.8-16.8 16.8 16.8 5.6 5.5 5.6-5.5 16.8-16.8 22.3 22.3v-11.1l-16.8-16.8-5.5-5.6-5.6 5.6-16.8 16.8-22.4-22.4-5.6 5.6-16.7 16.8-16.8-16.8-5.6-5.6-5.6 5.6-16.8 16.8-22.3-22.4-5.6 5.6-16.8 16.8-16.8-16.8-5.6-5.6-5.6 5.6-16.8 16.8-16.7-16.8-5.6-5.6-5.6 5.6-16.8 16.8v11.1z" fill="#c92927"/><g fill="#96bf4d"><path d="m77.8 83.2 16.8 16.8 5.5 5.6 5.6-5.6 16.8-16.8 16.8 16.8 5.6 5.6 5.6-5.6 16.8-16.8 22.3 22.4 5.6-5.6 16.8-16.8 16.8 16.8 5.6 5.6 5.5-5.6 16.8-16.8 16.8 16.8 5.6 5.6 5.6-5.6 16.8-16.8 22.3 22.4v-11.2l-16.8-16.8-5.5-5.6-5.6 5.6-16.8 16.8-22.4-22.4-5.6 5.6-16.7 16.8-16.8-16.8-5.6-5.6-5.6 5.6-16.8 16.8-22.3-22.4-5.6 5.6-16.8 16.8-16.8-16.8-5.6-5.6-5.6 5.6-16.8 16.8-16.7-16.8-5.6-5.6-5.6 5.6-16.8 16.8v11.2z"/><path d="m100.1 60.8 5.6-5.6 5.6-5.5h-11.2-11.1l5.6 5.5z"/><path d="m66.6 49.7h-11.2v11.1z"/></g></g><g fill="#d93128"><path d="m48.4 30.8-18.2 2.5c-2.1.3-4.1-1.2-4.4-3.3s1.2-4.1 3.3-4.4l18.2-2.6c2.1-.3 4.1 1.2 4.4 3.3.3 2.2-1.2 4.2-3.3 4.5z"/><path d="m69.4 56c-.5-.1-.9-.1-1.4-.2-2.3-.3-4.6-.7-6.8-1-1.3-.2-2.5-.5-3.6-1.3-1-.8-2.2-1.9-3-3.5-1.8-3.5-2.8-11-4.1-18.3l-22.3 3c.3 0 3.2 18.3 3.3 19.4.3 2.8.1 5.6.4 8.3.3 3.2.2 6.7 2.6 9.2 1.9 2.1 4.7 3.1 7.5 2.7h.1c.3-.1.7-.1 1-.2 3.3-.9 6.9-1.1 10.3-1.4 2.8-.2 5.6-.3 8.4-.2 2.7 0 6 .8 8.6.1 4-1.2 6.6-5.3 6.1-9.4-.5-3.6-3.4-6.6-7.1-7.2zm-33.6 4.6v.4c0 .2-.2.4-.5.4-.6 0-1.2 0-1.9 0-.3 0-.5-.2-.5-.4 0-.1 0-.3-.1-.4 0-.2.2-.5.4-.5.7 0 1.3-.1 2 0 .4 0 .6.2.6.5zm4.6 1.1c-.1.1-.1.3-.2.4-.1.2-.4.3-.6.2-.6-.2-1.2-.4-1.8-.5-.3-.1-.4-.3-.4-.5 0-.1 0-.3.1-.4 0-.2.3-.4.6-.3.7.2 1.3.4 2 .6.2 0 .4.2.3.5zm4.1 2.4c-.1.1-.2.2-.3.3-.2.2-.4.2-.7 0-.5-.4-1-.7-1.6-1-.2-.1-.3-.4-.2-.6.1-.1.1-.3.2-.4.1-.2.4-.3.7-.1.6.3 1.2.7 1.7 1.1.3.2.3.5.2.7zm2.2 3.5c-.4-.5-.8-1-1.2-1.4-.2-.2-.2-.5 0-.7.1-.1.2-.2.3-.3.2-.2.5-.1.7.1.5.5.9 1 1.3 1.6.2.2.1.5-.1.7-.1.1-.2.2-.4.2-.2.1-.4 0-.6-.2zm3.1 4.1c-.1 0-.3.1-.4.1-.2.1-.5-.1-.6-.3-.2-.6-.4-1.2-.7-1.7-.1-.2 0-.5.2-.6.1-.1.3-.1.4-.2.2-.1.5 0 .6.3.3.6.6 1.2.8 1.9 0 .2-.1.5-.3.5zm14.6-6.9c0-.5.1-1 .2-1.5 0-.2.3-.3.5-.3.1 0 .3.1.4.1.2 0 .4.2.3.4-.1.5-.2.9-.2 1.4 0 .2-.2.3-.4.3-.1 0-.3 0-.4 0-.2 0-.4-.2-.4-.4zm.5 3.6c-.2-.5-.3-1-.4-1.5 0-.2.1-.4.4-.4h.4c.2 0 .4.1.5.3.1.5.2.9.3 1.4.1.2-.1.4-.3.4-.1 0-.3.1-.4.1-.2.1-.4-.1-.5-.3zm2.8 3.4c-.1.1-.2.1-.3.2-.2.1-.5 0-.6-.2-.3-.4-.6-.9-.9-1.4-.1-.2 0-.4.2-.5.1 0 .2-.1.4-.1.2-.1.5 0 .6.2.2.4.5.9.8 1.3 0 .1 0 .4-.2.5zm-.6-11.4c-.3.4-.5.8-.7 1.3-.1.2-.3.3-.5.2-.1 0-.3-.1-.4-.1-.2-.1-.3-.3-.2-.5.2-.5.5-.9.7-1.4.1-.2.4-.3.6-.2.1.1.2.1.4.2.1.1.2.3.1.5zm2.3-2.6c-.4.3-.8.7-1.1 1-.1.1-.4.2-.6.1-.1-.1-.2-.1-.3-.2-.2-.1-.2-.3-.1-.5.4-.4.8-.8 1.2-1.1.2-.1.5-.1.6 0s.2.2.3.2c.2.2.2.4 0 .5z"/></g></svg>