<?xml version="1.0" encoding="utf-8"?>
<!-- Generator: Adobe Illustrator 22.1.0, SVG Export Plug-In . SVG Version: 6.00 Build 0)  -->
<svg version="1.1" id="Layer_1" xmlns="http://www.w3.org/2000/svg" xmlns:xlink="http://www.w3.org/1999/xlink" x="0px" y="0px"
	 viewBox="0 0 100 100" style="enable-background:new 0 0 100 100;" xml:space="preserve">
<style type="text/css">
	.st0{fill:#BE1E2D;}
	.st1{fill:#00B0BB;}
	.st2{fill:#63C4AF;}
	.st3{fill:#EAEAEA;}
	.st4{fill:#413E34;}
	.st5{fill:none;}
	.st6{clip-path:url(#SVGID_2_);}
	.st7{clip-path:url(#SVGID_4_);}
	.st8{fill:#1E0D12;}
	.st9{fill:#E62F34;}
	.st10{fill:#25793D;}
	.st11{clip-path:url(#SVGID_6_);}
	.st12{clip-path:url(#SVGID_8_);}
	.st13{fill:#FFFFFF;}
	.st14{clip-path:url(#SVGID_10_);}
	.st15{clip-path:url(#SVGID_12_);}
	.st16{fill:#96BF4D;}
	.st17{clip-path:url(#SVGID_14_);}
	.st18{fill-rule:evenodd;clip-rule:evenodd;fill:#FFFFFF;}
	.st19{fill:#C92927;}
	.st20{fill:#253748;}
	.st21{clip-path:url(#SVGID_16_);}
	.st22{fill:#97CB59;}
	.st23{fill:#DA2128;}
	.st24{fill:#00A14B;}
	.st25{fill:#96171A;}
	.st26{fill:#D1E39B;}
	.st27{fill:#4FBBBB;}
	.st28{fill:#37343F;}
	.st29{fill:#077A64;}
	.st30{fill:#F4EED4;}
	.st31{fill:#012E47;}
	.st32{fill:#BE1C42;}
	.st33{fill:#008E9F;}
	.st34{fill:#CD4134;}
	.st35{clip-path:url(#SVGID_18_);}
	.st36{clip-path:url(#SVGID_20_);}
	.st37{fill:#EE2424;}
	.st38{fill:#67BC45;}
	.st39{clip-path:url(#SVGID_22_);}
	.st40{clip-path:url(#SVGID_24_);}
	.st41{fill:#004A54;}
	.st42{fill:#D93128;}
	.st43{fill:#401B23;}
	.st44{fill:#EE2D40;}
	.st45{fill:#F1EBC9;}
	.st46{fill-rule:evenodd;clip-rule:evenodd;fill:#C92927;}
	.st47{fill-rule:evenodd;clip-rule:evenodd;fill:#96BF4D;}
	.st48{fill:#BD3026;}
	.st49{opacity:0.4;fill:#CD4134;}
	.st50{fill:#E6B448;}
	.st51{fill:#E21F26;}
	.st52{fill:#A82123;}
	.st53{fill:#383A3A;}
	.st54{fill:#F17B22;}
	.st55{fill:#F1F0DC;}
	.st56{fill:#56AE78;}
	.st57{fill:#EE262E;}
	.st58{fill:#C47229;}
	.st59{fill:#FEC010;}
	.st60{fill:#C0343E;}
	.st61{fill:url(#SVGID_25_);}
	.st62{fill:#659DAA;}
	.st63{fill:#C9A784;}
	.st64{fill:#DDCFB5;}
	.st65{fill:#D2A886;}
	.st66{fill:#9B3227;}
	.st67{opacity:0.39;fill:#FFFFFF;}
	.st68{fill:#E5E5E5;}
	.st69{fill:#202945;}
	.st70{fill:none;stroke:#ACA300;stroke-miterlimit:10;}
	.st71{fill:none;stroke:#ACA300;stroke-miterlimit:10;stroke-dasharray:2.0083,2.0083;}
	.st72{fill:#ACA300;}
</style>
<rect x="0" y="0" class="st3" width="100" height="100"/>
<g>
	<defs>
		<rect id="SVGID_1_" x="560" y="0" width="100" height="100"/>
	</defs>
	<clipPath id="SVGID_2_">
		<use xlink:href="#SVGID_1_"  style="overflow:visible;"/>
	</clipPath>
	<g class="st6">
		<g>
			<defs>
				
					<rect id="SVGID_3_" x="92.5" y="-6.7" transform="matrix(0.6711 -0.7413 0.7413 0.6711 40.646 480.0393)" width="937.7" height="401.9"/>
			</defs>
			<clipPath id="SVGID_4_">
				<use xlink:href="#SVGID_3_"  style="overflow:visible;"/>
			</clipPath>
			<g class="st7">
				
					<rect x="-188.6" y="40.5" transform="matrix(0.6711 -0.7413 0.7413 0.6711 -220.958 207.985)" class="st5" width="625.1" height="625.1"/>
				
					<rect x="-188.6" y="40.5" transform="matrix(0.6711 -0.7413 0.7413 0.6711 -220.958 207.985)" class="st8" width="625.1" height="625.1"/>
				<polygon class="st9" points="0.9,23.3 -2.9,27.4 5,27 				"/>
				<polygon class="st9" points="12.9,26.6 20.8,26.2 8.4,15 4.6,19.1 				"/>
				<polygon class="st9" points="28.7,25.8 36.5,25.4 15.8,6.7 12.1,10.9 				"/>
				<polygon class="st9" points="44.4,25.1 52.3,24.7 23.3,-1.6 19.6,2.6 				"/>
				<polygon class="st9" points="60.2,24.3 68.1,23.9 30.8,-9.8 27.1,-5.7 				"/>
				<polygon class="st9" points="76,23.5 83.8,23.1 38.3,-18.1 34.6,-14 				"/>
				<polygon class="st9" points="91.7,22.7 99.6,22.3 45.8,-26.4 42.1,-22.3 				"/>
				<polygon class="st9" points="106.3,-1.7 60.8,-42.9 57.1,-38.8 106.7,6.1 				"/>
				<polygon class="st9" points="53.3,-34.7 49.6,-30.5 107.5,21.9 107.1,14 				"/>
				<polygon class="st10" points="0.6,98.4 0.3,90.5 -32.8,60.5 -36.6,64.6 				"/>
				<polygon class="st10" points="1.4,114.1 1,106.2 -40.3,68.8 -44.1,72.9 				"/>
				<polygon class="st10" points="1.8,122 -47.8,77.1 -51.6,81.2 2.2,129.9 				"/>
				<polygon class="st10" points="2.6,137.8 2.6,137.8 -55.3,85.3 -59.1,89.5 -5.3,138.2 				"/>
			</g>
		</g>
	</g>
</g>
<g>
	<defs>
		<rect id="SVGID_5_" x="-280" y="140" width="100" height="100"/>
	</defs>
	<clipPath id="SVGID_6_">
		<use xlink:href="#SVGID_5_"  style="overflow:visible;"/>
	</clipPath>
	<g class="st11">
		<g>
			<defs>
				<rect id="SVGID_7_" x="-351.3" y="-558.9" width="595" height="1388.2"/>
			</defs>
			<clipPath id="SVGID_8_">
				<use xlink:href="#SVGID_7_"  style="overflow:visible;"/>
			</clipPath>
			<g class="st12">
				<rect x="-175.1" y="-327.6" class="st5" width="466" height="466"/>
				<rect x="-175.1" y="-327.6" class="st13" width="466" height="466"/>
				<g>
					<polygon class="st8" points="-6.4,34 -14.4,34 -6.4,25.9 1.6,17.9 9.7,17.9 1.6,25.9 					"/>
					<polygon class="st8" points="9.7,34 1.6,34 9.7,25.9 17.7,17.9 25.7,17.9 17.7,25.9 					"/>
					<polygon class="st8" points="57.9,34 49.8,34 57.9,25.9 65.9,17.9 73.9,17.9 65.9,25.9 					"/>
					<polygon class="st8" points="90,34 82,34 90,25.9 98,17.9 106.1,17.9 98,25.9 					"/>
					<polygon class="st8" points="41.8,34 33.8,34 41.8,25.9 49.8,17.9 57.9,17.9 49.8,25.9 					"/>
					<polygon class="st8" points="25.7,34 17.7,34 25.7,25.9 33.8,17.9 41.8,17.9 33.8,25.9 					"/>
					<polygon class="st8" points="73.9,34 65.9,34 73.9,25.9 82,17.9 90,17.9 82,25.9 					"/>
					<polygon class="st8" points="106.1,34 98,34 106.1,25.9 114.1,17.9 122.1,17.9 114.1,25.9 					"/>
				</g>
				<g>
					<polygon class="st10" points="-46.6,-6.2 33.8,-86.5 41.8,-86.5 -46.6,1.8 					"/>
					<polygon class="st10" points="-46.6,9.9 49.8,-86.5 57.9,-86.5 -46.6,17.9 					"/>
					<polygon class="st10" points="49.8,25.9 57.9,25.9 65.9,17.9 65.9,9.9 					"/>
					<polygon class="st10" points="33.8,25.9 41.8,25.9 65.9,1.8 65.9,-6.2 					"/>
					<polygon class="st10" points="17.7,25.9 25.7,25.9 65.9,-14.2 65.9,-22.3 					"/>
					<polygon class="st10" points="1.6,25.9 9.7,25.9 65.9,-30.3 65.9,-38.3 					"/>
					<polygon class="st10" points="-14.4,25.9 -6.4,25.9 65.9,-46.4 65.9,-54.4 					"/>
					<polygon class="st10" points="-30.5,25.9 -22.5,25.9 65.9,-62.4 65.9,-70.5 					"/>
					<polygon class="st10" points="-46.6,25.9 -38.5,25.9 65.9,-78.5 65.9,-86.5 					"/>
				</g>
				<g>
					<polygon class="st10" points="-46.6,74.1 1.6,25.9 9.7,25.9 -46.6,82.2 					"/>
					<polygon class="st10" points="-46.6,90.2 17.7,25.9 25.7,25.9 -46.6,98.2 					"/>
					<polygon class="st10" points="-46.6,106.3 33.8,25.9 41.8,25.9 -46.6,114.3 					"/>
					<polygon class="st10" points="-46.6,122.3 49.8,25.9 57.9,25.9 -46.6,130.4 					"/>
					<polygon class="st10" points="17.7,138.4 25.7,138.4 65.9,98.2 65.9,90.2 					"/>
					<polygon class="st10" points="1.6,138.4 9.7,138.4 65.9,82.2 65.9,74.1 					"/>
					<polygon class="st10" points="-14.4,138.4 -6.4,138.4 65.9,66.1 65.9,58.1 					"/>
					<polygon class="st10" points="-30.5,138.4 -22.5,138.4 65.9,50 65.9,42 					"/>
					<polygon class="st10" points="-46.6,138.4 -38.5,138.4 65.9,34 65.9,25.9 					"/>
				</g>
			</g>
		</g>
	</g>
</g>
<g>
	<defs>
		<rect id="SVGID_9_" x="-140" y="140" width="100" height="100"/>
	</defs>
	<clipPath id="SVGID_10_">
		<use xlink:href="#SVGID_9_"  style="overflow:visible;"/>
	</clipPath>
	<g class="st14">
		<g>
			<defs>
				
					<rect id="SVGID_11_" x="-466" y="42.9" transform="matrix(0.6991 -0.715 0.715 0.6991 -172.7726 -33.8444)" width="678.8" height="290.9"/>
			</defs>
			<clipPath id="SVGID_12_">
				<use xlink:href="#SVGID_11_"  style="overflow:visible;"/>
			</clipPath>
			<g class="st15">
				
					<rect x="-14.9" y="-65.4" transform="matrix(0.6991 -0.715 0.715 0.6991 -5.8907 87.8386)" class="st5" width="232.6" height="232.6"/>
				
					<rect x="-14.9" y="-65.4" transform="matrix(0.6991 -0.715 0.715 0.6991 -5.8907 87.8386)" class="st10" width="232.6" height="232.6"/>
				<polygon class="st8" points="23.4,79.2 19.5,79.2 19.6,83.2 				"/>
				<polygon class="st8" points="31.3,79.1 27.3,79.2 19.6,87.1 19.6,91 				"/>
				<polygon class="st8" points="19.7,98.8 39.1,79 35.2,79.1 19.7,94.9 19.7,97.5 				"/>
				<polygon class="st8" points="46.9,78.9 43,79 19.8,102.7 19.8,106.7 				"/>
				<polygon class="st8" points="54.8,78.9 50.8,78.9 19.9,110.6 19.9,114.5 				"/>
				<polygon class="st8" points="62.6,78.8 58.7,78.8 20,118.4 20,119.8 20,122.3 				"/>
				<polygon class="st8" points="70.4,78.7 66.5,78.7 20,126.2 20.1,130.1 				"/>
				<polygon class="st8" points="39.7,133.8 70.7,102.2 74.5,98.2 74.5,94.3 70.6,98.3 35.8,133.9 				"/>
				<polygon class="st8" points="74.5,90.4 74.4,86.5 70.5,90.4 28,134 31.9,133.9 70.6,94.3 				"/>
				<polygon class="st8" points="70.5,86.5 74.4,82.5 74.3,78.6 70.5,82.6 20.1,134.1 24,134 				"/>
				<polygon class="st8" points="78.2,78.6 74.3,78.6 74.4,82.5 				"/>
				<polygon class="st8" points="74.5,90.4 78.3,86.4 86.1,78.5 82.2,78.5 78.3,82.5 74.4,86.5 				"/>
				<polygon class="st8" points="74.5,98.2 78.4,94.2 93.9,78.4 90,78.5 78.4,90.3 74.5,94.3 				"/>
				<polygon class="st8" points="74.6,106 78.5,102.1 101.7,78.3 97.8,78.4 78.5,98.2 74.6,102.1 				"/>
				<polygon class="st8" points="74.7,113.9 78.6,109.9 109.6,78.2 105.6,78.3 78.6,106 74.7,110 				"/>
				<polygon class="st8" points="74.8,121.7 78.7,117.7 117.4,78.1 113.5,78.2 78.6,113.8 74.8,117.8 				"/>
				<polygon class="st8" points="74.9,129.5 78.8,125.6 125.2,78.1 121.3,78.1 78.7,121.7 74.9,125.6 				"/>
				<polygon class="st8" points="90.6,133.3 92.8,133.2 94.5,133.2 129.4,97.6 129.3,96.3 129.3,93.7 				"/>
				<polygon class="st8" points="86.7,133.3 129.3,89.8 129.3,88.2 129.2,85.8 82.8,133.4 				"/>
				<polygon class="st8" points="78.9,133.4 129.2,81.9 129.1,78 78.8,129.5 74.9,133.4 				"/>
				<polygon class="st9" points="70.7,102.2 70.7,106.1 74.6,102.1 78.5,98.2 78.4,94.2 74.5,98.2 				"/>
				<polygon class="st9" points="70.6,94.3 70.6,98.3 74.5,94.3 78.4,90.3 78.3,86.4 74.5,90.4 				"/>
				<polygon class="st9" points="70.3,70.8 70.4,74.8 74.2,70.8 78.1,66.8 78.1,62.9 74.2,66.9 				"/>
				<polygon class="st9" points="70.2,55.2 70.2,59.1 74.1,55.1 77.9,51.2 77.9,47.3 74,51.2 				"/>
				<polygon class="st9" points="74.3,78.6 78.2,74.7 78.2,70.8 74.3,74.7 70.4,78.7 70.5,82.6 				"/>
				<polygon class="st9" points="70.5,86.5 70.5,90.4 74.4,86.5 78.3,82.5 78.2,78.6 74.4,82.5 				"/>
				<polygon class="st9" points="70.2,63 70.3,66.9 74.2,63 78,59 78,55.1 74.1,59.1 				"/>
				<polygon class="st9" points="70.1,47.4 70.1,51.3 74,47.3 77.8,43.4 77.8,39.4 73.9,43.4 				"/>
				<polygon class="st9" points="69.8,27.8 73.7,23.8 77.6,19.9 77.5,15.9 73.7,19.9 69.8,23.9 				"/>
				<polygon class="st9" points="77.4,4.2 77.4,0.3 73.5,4.2 69.6,8.2 69.7,12.1 73.5,8.2 				"/>
				<polygon class="st9" points="69.9,31.7 69.9,35.6 73.8,31.7 77.7,27.7 77.6,23.8 73.8,27.7 				"/>
				<polygon class="st9" points="70,39.5 70,43.4 73.9,39.5 77.8,35.5 77.7,31.6 73.8,35.6 				"/>
				<polygon class="st9" points="77.5,12 77.5,8.1 73.6,12.1 69.7,16 69.8,19.9 73.6,16 				"/>
				<polygon class="st9" points="77.3,-3.6 77.3,-7.5 73.4,-3.6 69.5,0.4 69.6,4.3 73.5,0.3 				"/>
				<polygon class="st9" points="105,19.6 101.1,19.6 97.2,23.6 93.3,27.5 97.2,27.5 101.1,23.5 				"/>
				<polygon class="st9" points="97.2,19.6 93.2,19.7 89.4,23.6 85.5,27.6 89.4,27.6 93.3,23.6 				"/>
				<polygon class="st9" points="62,27.9 65.9,27.8 69.8,23.9 73.7,19.9 69.8,19.9 65.9,23.9 				"/>
				<polygon class="st9" points="46.4,28 50.3,28 54.1,24 58,20.1 54.1,20.1 50.2,24.1 				"/>
				<polygon class="st9" points="69.8,27.8 73.8,27.7 77.6,23.8 81.5,19.8 77.6,19.9 73.7,23.8 				"/>
				<polygon class="st9" points="85.5,23.7 89.3,19.7 85.4,19.8 81.5,23.7 77.7,27.7 81.6,27.6 				"/>
				<polygon class="st9" points="54.2,28 58.1,27.9 62,24 65.8,20 61.9,20 58.1,24 				"/>
				<polygon class="st9" points="38.5,28.1 42.4,28.1 46.3,24.1 50.2,20.2 46.3,20.2 42.4,24.2 				"/>
				<polygon class="st9" points="26.7,20.4 22.8,20.5 18.9,24.4 18.9,28.4 				"/>
				<polygon class="st9" points="30.6,24.3 34.5,20.3 30.6,20.4 26.7,24.3 22.9,28.3 26.8,28.3 				"/>
				<polygon class="st9" points="30.7,28.2 34.6,28.2 38.5,24.2 42.4,20.3 38.4,20.3 34.6,24.3 				"/>
				<polygon class="st8" points="19.6,87.1 19.6,87.1 19.6,83.2 19.6,83.2 				"/>
				<polygon class="st8" points="19.5,81.2 19.5,79.2 19.5,79.2 				"/>
				<polygon class="st8" points="19.8,102.7 19.8,102.7 19.7,97.5 19.7,94.9 				"/>
				<polygon class="st8" points="19.7,94.9 19.7,94.9 19.6,91 19.6,91 				"/>
				<polygon class="st8" points="19.6,83.2 19.6,83.2 19.5,79.2 19.5,81.2 				"/>
				<polygon class="st8" points="19.6,91 19.6,91 19.6,87.1 19.6,87.1 				"/>
				<polygon class="st8" points="19.7,97.5 19.7,94.9 19.7,94.9 				"/>
				<polygon class="st8" points="20,126.2 20,122.3 20,122.3 20,120.4 19.9,114.5 19.9,110.6 19.8,106.7 19.8,102.7 19.8,102.7 
					19.7,94.9 19.6,91 19.6,87.1 19.6,83.2 19.6,83.2 19.5,81.2 19.5,79.2 15.6,79.3 15.6,79.3 11.7,79.3 11.7,79.3 7.8,79.4 
					7.8,79.4 3.9,79.4 -0.1,79.5 -4,79.5 -4,79.5 -7.9,79.6 -7.9,79.6 -11.8,79.6 -11.8,79.6 -15.7,79.6 -19.6,79.7 -23.5,79.7 
					-23.5,79.7 -27.5,79.8 -27.5,79.8 -31.4,79.8 -31.4,79.8 -35.3,79.9 20.1,134.1 20.1,130.1 				"/>
				<polygon class="st8" points="19.6,83.2 19.6,83.2 19.5,81.2 				"/>
				<polygon class="st9" points="3.2,20.7 -0.7,20.7 -4.6,24.7 -8.5,28.7 -4.5,28.6 -0.7,24.7 				"/>
				<polygon class="st9" points="15,28.4 18.9,28.4 18.9,24.4 				"/>
				<polygon class="st9" points="11,20.6 7.1,20.7 3.2,24.6 -0.6,28.6 3.3,28.5 7.2,24.6 				"/>
				<polygon class="st9" points="18.9,20.5 18.9,20.5 18.9,20.5 				"/>
				<polygon class="st9" points="11.1,24.5 7.2,28.5 11.1,28.4 15,24.5 18.9,20.5 18.9,20.5 14.9,20.6 				"/>
				<polygon class="st8" points="19.5,79.2 19.5,75.3 19.5,75.3 19.5,79.2 				"/>
				<polygon class="st8" points="19.5,79.2 19.5,75.3 15.6,79.3 				"/>
				<polygon class="st8" points="19.5,79.2 19.5,79.2 19.5,79.2 				"/>
				<polygon class="st8" points="15.6,79.3 15.6,79.3 19.5,79.2 19.5,79.2 				"/>
				<polygon class="st8" points="11.7,79.3 19.4,71.4 19.4,67.5 7.8,79.4 				"/>
				<polygon class="st8" points="7.8,79.4 11.7,79.3 11.7,79.3 7.8,79.4 				"/>
				<polygon class="st8" points="19.3,59.7 19.3,59.7 19.3,61.6 				"/>
				<polygon class="st8" points="3.9,79.4 19.3,63.6 19.3,61.6 19.3,59.7 -0.1,79.5 				"/>
				<polygon class="st8" points="19.3,55.8 19.2,51.8 19.3,55.8 				"/>
				<polygon class="st8" points="-4,79.5 19.3,55.8 19.2,51.8 -7.9,79.6 				"/>
				<polygon class="st8" points="-15.7,79.6 -11.8,79.6 19.2,47.9 19.1,44 				"/>
				<polygon class="st8" points="19.1,40.1 19,36.2 19,36.2 19.1,40.1 				"/>
				<polygon class="st8" points="-19.6,79.7 19.1,40.1 19,36.2 -23.5,79.7 				"/>
				<polygon class="st8" points="-27.5,79.8 19,32.3 18.9,28.4 -31.4,79.8 				"/>
				<polygon class="st8" points="-0.7,24.7 -4.5,28.6 -35.5,60.3 -35.5,64.2 -0.6,28.6 3.2,24.6 				"/>
				<polygon class="st8" points="7.2,24.6 3.3,28.5 -35.4,68.1 -35.4,72 7.2,28.5 11.1,24.5 				"/>
				<polygon class="st8" points="18.9,24.4 15,24.5 11.1,28.4 -35.3,75.9 -35.3,79.9 15,28.4 				"/>
				<polygon class="st8" points="18.9,22.5 18.9,20.5 18.9,20.5 				"/>
				<polygon class="st8" points="15,24.5 18.9,24.4 18.9,22.5 18.9,20.5 				"/>
				<polygon class="st8" points="18.8,16.6 18.8,12.7 18.8,16.6 				"/>
				<polygon class="st8" points="7.2,24.6 11.1,24.5 14.9,20.6 18.8,16.6 18.8,12.7 11,20.6 				"/>
				<polygon class="st8" points="-0.7,24.7 3.2,24.6 7.1,20.7 18.7,8.8 18.7,4.9 3.2,20.7 				"/>
				<polygon class="st8" points="-8.5,24.7 -4.6,24.7 -0.7,20.7 18.6,0.9 18.6,-1 18.6,-3 -4.6,20.8 				"/>
				<polygon class="st8" points="-16.3,24.8 -12.4,24.8 -8.5,20.8 18.6,-6.9 18.5,-10.8 -12.5,20.9 				"/>
				<polygon class="st8" points="-20.3,21 -24.2,24.9 -20.2,24.9 -16.4,20.9 18.5,-14.7 18.4,-18.6 				"/>
				<polygon class="st8" points="-28.1,25 -24.2,21 18.4,-22.5 18.3,-26.5 -28.1,21 -32,25 				"/>
			</g>
			<g class="st15">
				
					<rect x="-177.4" y="100.9" transform="matrix(0.6991 -0.715 0.715 0.6991 -173.6934 21.615)" class="st5" width="232.6" height="232.6"/>
				
					<rect x="-177.4" y="100.9" transform="matrix(0.6991 -0.715 0.715 0.6991 -173.6934 21.615)" class="st10" width="232.6" height="232.6"/>
				<polygon class="st8" points="-35.2,83.8 -35.3,83.8 -35.2,87.7 -35.2,87.7 -35.2,91.6 -35.2,91.6 -35.1,95.5 -35.1,99.4 
					-35,103.4 -35,103.4 -35,107.3 -35,107.3 -34.9,111.2 -34.9,111.2 -34.9,115.1 -34.9,119 -34.8,122.9 -34.8,122.9 -34.8,126.8 
					-34.8,126.8 -34.7,130.8 -34.7,130.8 -34.7,134.7 -30.8,134.6 -30.8,134.6 -26.8,134.6 -22.9,134.5 -19,134.5 -13.1,134.4 
					-11.2,134.4 -11.2,134.4 -7.3,134.4 -3.4,134.3 0.6,134.3 8.4,134.2 8.4,134.2 12.3,134.1 16.2,134.1 20.1,134.1 -35.3,79.9 
									"/>
			</g>
			<g class="st15">
				
					<rect x="-181.1" y="-228" transform="matrix(0.6991 -0.715 0.715 0.6991 60.333 -79.9641)" class="st5" width="232.6" height="232.6"/>
				
					<rect x="-181.1" y="-228" transform="matrix(0.6991 -0.715 0.715 0.6991 60.333 -79.9641)" class="st10" width="232.6" height="232.6"/>
				<polygon class="st8" points="-36.1,5.5 -36.1,9.4 2.6,-30.2 -1.3,-30.2 				"/>
				<polygon class="st8" points="-36,13.3 -36,17.2 10.5,-30.3 6.5,-30.2 				"/>
				<polygon class="st8" points="-36,21.1 -35.9,25 -32,21.1 18.3,-30.4 14.4,-30.3 				"/>
			</g>
		</g>
	</g>
</g>
<g>
	<defs>
		<rect id="SVGID_13_" x="140" y="140" width="100" height="100"/>
	</defs>
	<clipPath id="SVGID_14_">
		<use xlink:href="#SVGID_13_"  style="overflow:visible;"/>
	</clipPath>
	<g class="st17">
		<rect x="55.4" y="49.7" class="st18" width="268.4" height="268.4"/>
		<g>
			<polygon class="st19" points="77.8,60.8 94.6,77.6 100.1,83.2 105.7,77.6 122.5,60.8 139.3,77.6 144.9,83.2 150.5,77.6 
				167.3,60.8 189.6,83.2 195.2,77.6 212,60.8 228.8,77.6 234.4,83.2 239.9,77.6 239.9,77.6 256.7,60.8 273.5,77.6 273.5,77.6 
				279.1,83.2 279.1,83.2 279.1,83.2 284.7,77.6 284.7,77.6 301.5,60.8 323.8,83.2 323.8,72 307,55.2 301.5,49.7 295.9,55.2 
				279.1,72 256.7,49.7 251.1,55.2 234.4,72 217.6,55.2 212,49.7 206.4,55.2 189.6,72 167.3,49.7 161.7,55.2 144.9,72 128.1,55.2 
				122.5,49.7 116.9,55.2 100.1,72 83.4,55.2 77.8,49.7 72.2,55.2 55.4,72 55.4,83.2 55.4,83.2 			"/>
			<polygon class="st19" points="77.8,105.6 94.6,122.4 100.1,127.9 105.7,122.4 122.5,105.6 139.3,122.4 144.9,127.9 150.5,122.4 
				167.3,105.6 189.6,127.9 195.2,122.4 212,105.6 228.8,122.4 234.4,127.9 239.9,122.4 239.9,122.4 256.7,105.6 273.5,122.4 
				273.5,122.4 279.1,127.9 279.1,127.9 279.1,127.9 284.7,122.4 284.7,122.4 301.5,105.6 323.8,127.9 323.8,116.8 307,100 
				301.5,94.4 295.9,100 279.1,116.8 256.7,94.4 251.1,100 234.4,116.8 217.6,100 212,94.4 206.4,100 189.6,116.8 167.3,94.4 
				161.7,100 144.9,116.8 128.1,100 122.5,94.4 116.9,100 100.1,116.8 83.4,100 77.8,94.4 72.2,100 55.4,116.8 55.4,127.9 
				55.4,127.9 			"/>
		</g>
		<g>
			<polygon class="st16" points="77.8,83.2 94.6,100 100.1,105.6 105.7,100 122.5,83.2 139.3,100 144.9,105.6 150.5,100 167.3,83.2 
				189.6,105.6 195.2,100 212,83.2 228.8,100 234.4,105.6 239.9,100 239.9,100 256.7,83.2 273.5,100 273.5,100 279.1,105.6 
				279.1,105.6 279.1,105.6 284.7,100 284.7,100 301.5,83.2 323.8,105.6 323.8,94.4 307,77.6 301.5,72 295.9,77.6 279.1,94.4 
				256.7,72 251.1,77.6 234.4,94.4 217.6,77.6 212,72 206.4,77.6 189.6,94.4 167.3,72 161.7,77.6 144.9,94.4 128.1,77.6 122.5,72 
				116.9,77.6 100.1,94.4 83.4,77.6 77.8,72 72.2,77.6 55.4,94.4 55.4,105.6 55.4,105.6 			"/>
			<g>
				<polygon class="st16" points="100.1,60.8 105.7,55.2 111.3,49.7 100.1,49.7 100.1,49.7 100.1,49.7 89,49.7 94.6,55.2 				"/>
				<polygon class="st16" points="66.6,49.7 55.4,49.7 55.4,49.7 55.4,60.8 55.4,60.8 				"/>
			</g>
		</g>
	</g>
</g>
<g>
	<path class="st42" d="M48.4,30.8l-18.2,2.5c-2.1,0.3-4.1-1.2-4.4-3.3l0,0c-0.3-2.1,1.2-4.1,3.3-4.4L47.3,23
		c2.1-0.3,4.1,1.2,4.4,3.3l0,0C52,28.5,50.5,30.5,48.4,30.8z"/>
	<path class="st42" d="M69.4,56c-0.5-0.1-0.9-0.1-1.4-0.2c-2.3-0.3-4.6-0.7-6.8-1c-1.3-0.2-2.5-0.5-3.6-1.3c-1-0.8-2.2-1.9-3-3.5
		c-1.8-3.5-2.8-11-4.1-18.3l-22.3,3c0.3,0,3.2,18.3,3.3,19.4c0.3,2.8,0.1,5.6,0.4,8.3c0.3,3.2,0.2,6.7,2.6,9.2
		c1.9,2.1,4.7,3.1,7.5,2.7c0,0,0.1,0,0.1,0c0,0,0,0,0,0c0.3-0.1,0.7-0.1,1-0.2c3.3-0.9,6.9-1.1,10.3-1.4c2.8-0.2,5.6-0.3,8.4-0.2
		c2.7,0,6,0.8,8.6,0.1c4-1.2,6.6-5.3,6.1-9.4C76,59.6,73.1,56.6,69.4,56z M35.8,60.6c0,0.1,0,0.3,0,0.4c0,0.2-0.2,0.4-0.5,0.4
		c-0.6,0-1.2,0-1.9,0c-0.3,0-0.5-0.2-0.5-0.4c0-0.1,0-0.3-0.1-0.4c0-0.2,0.2-0.5,0.4-0.5c0.7,0,1.3-0.1,2,0
		C35.6,60.1,35.8,60.3,35.8,60.6z M40.4,61.7c-0.1,0.1-0.1,0.3-0.2,0.4c-0.1,0.2-0.4,0.3-0.6,0.2c-0.6-0.2-1.2-0.4-1.8-0.5
		c-0.3-0.1-0.4-0.3-0.4-0.5c0-0.1,0-0.3,0.1-0.4c0-0.2,0.3-0.4,0.6-0.3c0.7,0.2,1.3,0.4,2,0.6C40.3,61.2,40.5,61.4,40.4,61.7z
		 M44.5,64.1c-0.1,0.1-0.2,0.2-0.3,0.3c-0.2,0.2-0.4,0.2-0.7,0c-0.5-0.4-1-0.7-1.6-1c-0.2-0.1-0.3-0.4-0.2-0.6
		c0.1-0.1,0.1-0.3,0.2-0.4c0.1-0.2,0.4-0.3,0.7-0.1c0.6,0.3,1.2,0.7,1.7,1.1C44.6,63.6,44.6,63.9,44.5,64.1z M46.7,67.6
		c-0.4-0.5-0.8-1-1.2-1.4c-0.2-0.2-0.2-0.5,0-0.7c0.1-0.1,0.2-0.2,0.3-0.3c0.2-0.2,0.5-0.1,0.7,0.1c0.5,0.5,0.9,1,1.3,1.6
		c0.2,0.2,0.1,0.5-0.1,0.7c-0.1,0.1-0.2,0.2-0.4,0.2C47.1,67.9,46.9,67.8,46.7,67.6z M49.8,71.7c-0.1,0-0.3,0.1-0.4,0.1
		c-0.2,0.1-0.5-0.1-0.6-0.3c-0.2-0.6-0.4-1.2-0.7-1.7c-0.1-0.2,0-0.5,0.2-0.6c0.1-0.1,0.3-0.1,0.4-0.2c0.2-0.1,0.5,0,0.6,0.3
		c0.3,0.6,0.6,1.2,0.8,1.9C50.1,71.4,50,71.7,49.8,71.7z M64.4,64.8c0-0.5,0.1-1,0.2-1.5c0-0.2,0.3-0.3,0.5-0.3
		c0.1,0,0.3,0.1,0.4,0.1c0.2,0,0.4,0.2,0.3,0.4c-0.1,0.5-0.2,0.9-0.2,1.4c0,0.2-0.2,0.3-0.4,0.3c-0.1,0-0.3,0-0.4,0
		C64.6,65.2,64.4,65,64.4,64.8z M64.9,68.4c-0.2-0.5-0.3-1-0.4-1.5c0-0.2,0.1-0.4,0.4-0.4c0.1,0,0.3,0,0.4,0c0.2,0,0.4,0.1,0.5,0.3
		c0.1,0.5,0.2,0.9,0.3,1.4c0.1,0.2-0.1,0.4-0.3,0.4c-0.1,0-0.3,0.1-0.4,0.1C65.2,68.8,65,68.6,64.9,68.4z M67.7,71.8
		c-0.1,0.1-0.2,0.1-0.3,0.2c-0.2,0.1-0.5,0-0.6-0.2c-0.3-0.4-0.6-0.9-0.9-1.4c-0.1-0.2,0-0.4,0.2-0.5c0.1,0,0.2-0.1,0.4-0.1
		c0.2-0.1,0.5,0,0.6,0.2c0.2,0.4,0.5,0.9,0.8,1.3C67.9,71.4,67.9,71.7,67.7,71.8z M67.1,60.4c-0.3,0.4-0.5,0.8-0.7,1.3
		c-0.1,0.2-0.3,0.3-0.5,0.2c-0.1,0-0.3-0.1-0.4-0.1c-0.2-0.1-0.3-0.3-0.2-0.5c0.2-0.5,0.5-0.9,0.7-1.4c0.1-0.2,0.4-0.3,0.6-0.2
		c0.1,0.1,0.2,0.1,0.4,0.2C67.1,60,67.2,60.2,67.1,60.4z M69.4,57.8c-0.4,0.3-0.8,0.7-1.1,1c-0.1,0.1-0.4,0.2-0.6,0.1
		c-0.1-0.1-0.2-0.1-0.3-0.2c-0.2-0.1-0.2-0.3-0.1-0.5c0.4-0.4,0.8-0.8,1.2-1.1c0.2-0.1,0.5-0.1,0.6,0c0.1,0.1,0.2,0.2,0.3,0.2
		C69.6,57.5,69.6,57.7,69.4,57.8z"/>
</g>
</svg>
