<?xml version="1.0" encoding="utf-8"?>
<!-- Generator: Adobe Illustrator 22.1.0, SVG Export Plug-In . SVG Version: 6.00 Build 0)  -->
<svg version="1.1" id="Layer_1" xmlns="http://www.w3.org/2000/svg" xmlns:xlink="http://www.w3.org/1999/xlink" x="0px" y="0px"
	 viewBox="0 0 100 100" style="enable-background:new 0 0 100 100;" xml:space="preserve">
<style type="text/css">
	.st0{fill:#BE1E2D;}
	.st1{fill:#00B0BB;}
	.st2{fill:#63C4AF;}
	.st3{fill:#EAEAEA;}
	.st4{fill:#413E34;}
	.st5{fill:none;}
	.st6{clip-path:url(#SVGID_2_);}
	.st7{clip-path:url(#SVGID_4_);}
	.st8{fill:#1E0D12;}
	.st9{fill:#E62F34;}
	.st10{fill:#25793D;}
	.st11{clip-path:url(#SVGID_6_);}
	.st12{clip-path:url(#SVGID_8_);}
	.st13{fill:#FFFFFF;}
	.st14{clip-path:url(#SVGID_10_);}
	.st15{clip-path:url(#SVGID_12_);}
	.st16{fill:#96BF4D;}
	.st17{clip-path:url(#SVGID_14_);}
	.st18{fill-rule:evenodd;clip-rule:evenodd;fill:#FFFFFF;}
	.st19{fill:#C92927;}
	.st20{fill:#253748;}
	.st21{clip-path:url(#SVGID_16_);}
	.st22{fill:#97CB59;}
	.st23{fill:#DA2128;}
	.st24{fill:#00A14B;}
	.st25{fill:#96171A;}
	.st26{fill:#D1E39B;}
	.st27{fill:#4FBBBB;}
	.st28{fill:#37343F;}
	.st29{fill:#077A64;}
	.st30{fill:#F4EED4;}
	.st31{fill:#012E47;}
	.st32{fill:#BE1C42;}
	.st33{fill:#008E9F;}
	.st34{fill:#CD4134;}
	.st35{clip-path:url(#SVGID_18_);}
	.st36{clip-path:url(#SVGID_20_);}
	.st37{fill:#EE2424;}
	.st38{fill:#67BC45;}
	.st39{clip-path:url(#SVGID_22_);}
	.st40{clip-path:url(#SVGID_24_);}
	.st41{fill:#004A54;}
	.st42{fill:#D93128;}
	.st43{fill:#401B23;}
	.st44{fill:#EE2D40;}
	.st45{fill:#F1EBC9;}
	.st46{fill-rule:evenodd;clip-rule:evenodd;fill:#C92927;}
	.st47{fill-rule:evenodd;clip-rule:evenodd;fill:#96BF4D;}
	.st48{fill:#BD3026;}
	.st49{opacity:0.4;fill:#CD4134;}
	.st50{fill:#E6B448;}
	.st51{fill:#E21F26;}
	.st52{fill:#A82123;}
	.st53{fill:#383A3A;}
	.st54{fill:#F17B22;}
	.st55{fill:#F1F0DC;}
	.st56{fill:#56AE78;}
	.st57{fill:#EE262E;}
	.st58{fill:#C47229;}
	.st59{fill:#FEC010;}
	.st60{fill:#C0343E;}
	.st61{fill:url(#SVGID_25_);}
	.st62{fill:#659DAA;}
	.st63{fill:#C9A784;}
	.st64{fill:#DDCFB5;}
	.st65{fill:#D2A886;}
	.st66{fill:#9B3227;}
	.st67{opacity:0.39;fill:#FFFFFF;}
	.st68{fill:#E5E5E5;}
	.st69{fill:#202945;}
	.st70{fill:none;stroke:#ACA300;stroke-miterlimit:10;}
	.st71{fill:none;stroke:#ACA300;stroke-miterlimit:10;stroke-dasharray:2.0083,2.0083;}
	.st72{fill:#ACA300;}
</style>
<rect x="0" y="0" class="st4" width="100" height="100"/>
<g>
	<defs>
		<rect id="SVGID_1_" x="420" y="0" width="100" height="100"/>
	</defs>
	<clipPath id="SVGID_2_">
		<use xlink:href="#SVGID_1_"  style="overflow:visible;"/>
	</clipPath>
	<g class="st6">
		<g>
			<defs>
				
					<rect id="SVGID_3_" x="-47.5" y="-6.7" transform="matrix(0.6711 -0.7413 0.7413 0.6711 -5.3938 376.2536)" width="937.7" height="401.9"/>
			</defs>
			<clipPath id="SVGID_4_">
				<use xlink:href="#SVGID_3_"  style="overflow:visible;"/>
			</clipPath>
			<g class="st7">
				
					<rect x="90.9" y="-423" transform="matrix(0.6711 -0.7413 0.7413 0.6711 214.5345 262.8282)" class="st5" width="625.1" height="625.1"/>
				
					<rect x="90.9" y="-423" transform="matrix(0.6711 -0.7413 0.7413 0.6711 214.5345 262.8282)" class="st8" width="625.1" height="625.1"/>
				<polygon class="st9" points="56.6,-93.2 25.1,-91.6 9.3,-90.8 1.4,-90.4 -14.3,-89.6 -38,-88.5 -38,-88.4 77.9,16.4 77.9,16.4 
					77.5,8.5 77.5,8.5 77.1,0.7 77.1,0.7 76.7,-7.2 76.7,-7.2 76.3,-15.1 76.3,-15.1 75.9,-23 75.9,-23 75.5,-30.9 75.5,-30.9 
					75.1,-38.8 74.7,-46.6 74.7,-46.6 74.3,-54.5 74.3,-54.5 74,-62.4 74,-62.4 73.6,-70.3 73.6,-70.3 73.2,-78.2 73.2,-78.2 
					72.8,-86.1 72.8,-86.1 72.4,-93.9 64.5,-93.6 				"/>
				<polygon class="st9" points="77.9,16.4 77.9,16.4 77.9,16.4 				"/>
				<polygon class="st9" points="85.8,16 77.5,8.5 77.9,16.4 				"/>
				<polygon class="st9" points="77.9,16.4 77.5,8.5 77.5,8.5 				"/>
				<polygon class="st9" points="93.6,15.7 101.5,15.3 76.7,-7.2 77.1,0.7 				"/>
				<polygon class="st9" points="77.1,0.7 77.1,0.7 76.7,-7.2 76.7,-7.2 				"/>
				<polygon class="st9" points="109.4,14.9 117.3,14.5 75.9,-23 76.3,-15.1 				"/>
				<polygon class="st9" points="125.2,14.1 133.1,13.7 75.1,-38.8 75.5,-30.9 				"/>
				<polygon class="st9" points="140.9,13.3 148.8,12.9 74.3,-54.5 74.7,-46.6 				"/>
				<polygon class="st9" points="156.7,12.5 164.6,12.1 73.6,-70.3 74,-62.4 				"/>
				<polygon class="st9" points="172.5,11.7 180.4,11.3 72.8,-86.1 73.2,-78.2 				"/>
				<polygon class="st9" points="187.9,3.1 80.3,-94.3 72.4,-93.9 188.2,10.9 187.9,3.1 				"/>
			</g>
			<g class="st7">
				
					<rect x="-328.6" y="40.5" transform="matrix(0.6711 -0.7413 0.7413 0.6711 -266.9977 104.1993)" class="st5" width="625.1" height="625.1"/>
				
					<rect x="-328.6" y="40.5" transform="matrix(0.6711 -0.7413 0.7413 0.6711 -266.9977 104.1993)" class="st8" width="625.1" height="625.1"/>
				<polygon class="st9" points="77.9,16.4 77.9,16.4 77.9,16.4 				"/>
				<polygon class="st9" points="-36.8,-64.8 -35.2,-33.3 -34.1,-9.6 -32.5,21.9 -24.6,21.5 -24.6,21.5 -16.7,21.1 -16.7,21.1 
					-8.9,20.7 -8.9,20.7 -1,20.4 -1,20.4 22.7,19.2 22.7,19.2 30.6,18.8 30.6,18.8 38.4,18.4 38.4,18.4 46.3,18 46.3,18 54.2,17.6 
					54.2,17.6 55.8,17.5 77.9,16.4 -38,-88.5 				"/>
				<polygon class="st9" points="70,16.8 78.3,24.3 77.9,16.4 77.9,16.4 				"/>
				<polygon class="st9" points="79,40.1 78.7,32.2 62.1,17.2 55.8,17.5 54.2,17.6 				"/>
				<polygon class="st9" points="54.2,17.6 55.8,17.5 54.2,17.6 				"/>
				<polygon class="st9" points="79.8,55.9 79.4,48 46.3,18 38.4,18.4 				"/>
				<polygon class="st9" points="38.4,18.4 38.4,18.4 46.3,18 46.3,18 				"/>
				<polygon class="st9" points="80.6,71.6 80.2,63.7 30.6,18.8 22.7,19.2 				"/>
				<polygon class="st9" points="22.7,19.2 22.7,19.2 30.6,18.8 30.6,18.8 				"/>
				<polygon class="st9" points="6.9,20 81.4,87.4 81,79.5 14.8,19.6 				"/>
				<polygon class="st9" points="82.2,103.2 81.8,95.3 -1,20.4 -8.9,20.7 				"/>
				<polygon class="st9" points="83,118.9 82.6,111 -16.7,21.1 -24.6,21.5 				"/>
				<polygon class="st9" points="12.4,130.3 20.3,129.9 20.3,129.9 -29.4,85 -29,92.9 12.4,130.3 				"/>
				<polygon class="st9" points="36.1,129.2 36.1,129.2 -30.2,69.2 -29.8,77.1 28.2,129.5 				"/>
				<polygon class="st9" points="51.8,128.4 -30.9,53.5 -30.5,61.3 43.9,128.8 				"/>
				<polygon class="st9" points="67.6,127.6 -31.7,37.7 -31.3,45.6 59.7,128 				"/>
				<polygon class="st9" points="75.5,127.2 83.4,126.8 83.4,126.8 -32.5,21.9 -32.1,29.8 				"/>
			</g>
		</g>
	</g>
</g>
<g>
	<defs>
		<rect id="SVGID_5_" x="-420" y="140" width="100" height="100"/>
	</defs>
	<clipPath id="SVGID_6_">
		<use xlink:href="#SVGID_5_"  style="overflow:visible;"/>
	</clipPath>
	<g class="st11">
		<g>
			<defs>
				<rect id="SVGID_7_" x="-491.3" y="-558.9" width="595" height="1388.2"/>
			</defs>
			<clipPath id="SVGID_8_">
				<use xlink:href="#SVGID_7_"  style="overflow:visible;"/>
			</clipPath>
			<g class="st12">
				<rect x="-315.1" y="-327.6" class="st5" width="466" height="466"/>
				<rect x="-315.1" y="-327.6" class="st13" width="466" height="466"/>
				<g>
					<polygon class="st8" points="46.4,25.9 46.4,17.9 38.4,25.9 30.3,34 30.3,42 38.4,34 					"/>
					<polygon class="st8" points="46.4,58.1 46.4,50 38.4,58.1 30.3,66.1 30.3,74.1 38.4,66.1 					"/>
					<polygon class="st8" points="46.4,9.9 46.4,1.8 38.4,9.9 30.3,17.9 30.3,25.9 38.4,17.9 					"/>
					<polygon class="st8" points="46.4,-6.2 46.4,-14.2 38.4,-6.2 30.3,1.8 30.3,9.9 38.4,1.8 					"/>
					<polygon class="st8" points="46.4,42 46.4,34 38.4,42 30.3,50 30.3,58.1 38.4,50 					"/>
					<polygon class="st8" points="46.4,74.1 46.4,66.1 38.4,74.1 30.3,82.2 30.3,90.2 38.4,82.2 					"/>
					<polygon class="st8" points="46.4,106.3 46.4,98.2 38.4,106.3 30.3,114.3 30.3,122.3 38.4,114.3 					"/>
					<polygon class="st8" points="46.4,90.2 46.4,82.2 38.4,90.2 30.3,98.2 30.3,106.3 38.4,98.2 					"/>
				</g>
				<g>
					<polygon class="st8" points="-1.8,34 -9.8,34 -1.8,25.9 6.2,17.9 14.3,17.9 6.2,25.9 					"/>
					<polygon class="st8" points="30.3,34 22.3,34 30.3,25.9 38.4,17.9 46.4,17.9 38.4,25.9 					"/>
					<polygon class="st8" points="62.5,34 54.4,34 62.5,25.9 70.5,17.9 78.5,17.9 70.5,25.9 					"/>
					<polygon class="st8" points="14.3,34 6.2,34 14.3,25.9 22.3,17.9 30.3,17.9 22.3,25.9 					"/>
					<polygon class="st8" points="46.4,34 38.4,34 46.4,25.9 54.4,17.9 62.5,17.9 54.4,25.9 					"/>
					<polygon class="st8" points="78.5,34 70.5,34 78.5,25.9 86.6,17.9 94.6,17.9 86.6,25.9 					"/>
					<polygon class="st8" points="94.6,34 86.6,34 94.6,25.9 102.6,17.9 110.7,17.9 102.6,25.9 					"/>
				</g>
			</g>
		</g>
	</g>
</g>
<g>
	<defs>
		<rect id="SVGID_9_" x="-280" y="140" width="100" height="100"/>
	</defs>
	<clipPath id="SVGID_10_">
		<use xlink:href="#SVGID_9_"  style="overflow:visible;"/>
	</clipPath>
	<g class="st14">
		<g>
			<defs>
				
					<rect id="SVGID_11_" x="-606" y="42.9" transform="matrix(0.6991 -0.715 0.715 0.6991 -214.8933 -133.9426)" width="678.8" height="290.9"/>
			</defs>
			<clipPath id="SVGID_12_">
				<use xlink:href="#SVGID_11_"  style="overflow:visible;"/>
			</clipPath>
			<g class="st15">
				
					<rect x="-154.9" y="-65.4" transform="matrix(0.6991 -0.715 0.715 0.6991 -48.0114 -12.2596)" class="st5" width="232.6" height="232.6"/>
				
					<rect x="-154.9" y="-65.4" transform="matrix(0.6991 -0.715 0.715 0.6991 -48.0114 -12.2596)" class="st10" width="232.6" height="232.6"/>
				<polygon class="st5" points="43.7,57.8 43.7,57.8 43.7,53.9 43.7,53.9 				"/>
				<polygon class="st5" points="43.5,34.3 43.5,34.3 43.4,30.4 43.4,30.4 				"/>
				<polygon class="st5" points="43.7,52 43.7,53.9 43.5,38.3 43.5,38.3 				"/>
				<polygon class="st5" points="43.3,22.6 43.3,22.6 43.3,18.7 43.3,21.3 				"/>
				<polygon class="st5" points="43.4,27.9 43.4,30.4 43.4,26.5 43.4,23.9 				"/>
				<polygon class="st5" points="43.3,18.7 43.3,18.7 43.2,14.8 43.2,14.8 				"/>
				<polygon class="st5" points="43.2,10.8 43.2,10.8 43.1,-0.9 43.1,-0.9 				"/>
				<polygon class="st5" points="43.9,73.5 43.9,73.5 43.8,61.7 43.8,61.7 				"/>
				<polygon class="st8" points="44,80 44,79.4 44,77.4 44,77.4 				"/>
				<polygon class="st8" points="44.2,100.9 44.2,100.9 44.1,93.1 44.1,89.1 44,85.2 44,81.3 44,81.3 				"/>
				<polygon class="st8" points="44.4,120.5 44.4,118.7 44.3,104.1 44.2,100.9 44.2,100.9 44,81.3 44,81.3 44,80 44,77.4 36.1,77.5 
					36.1,77.5 32.2,77.5 32.2,77.5 28.3,77.6 28.3,77.6 25.7,77.6 18.7,77.7 16.5,77.7 16.5,77.7 12.6,77.8 12.6,77.8 8.7,77.8 
					8.7,77.8 -3,77.9 -3,77.9 -6.9,78 -6.9,78 -10.9,78 -10.8,81.9 -10.8,81.9 -10.8,85.8 -10.8,85.8 -10.7,88.2 -10.7,96.3 
					-10.6,97.6 -10.6,97.6 -10.6,101.5 -10.6,101.5 -10.6,105.4 -10.6,105.4 -10.4,117.2 -10.4,117.2 -10.4,121.1 -10.4,121.1 
					-10.3,125 -10.3,125 -10.3,128.9 -10.3,128.9 -10.2,132.8 -6.3,132.8 -6.3,132.8 -2.4,132.7 -2.4,132.7 1.5,132.7 1.5,132.7 
					4.5,132.7 17.2,132.5 17.2,132.5 21.1,132.5 21.1,132.5 33.1,132.3 36.7,132.3 36.7,132.3 40.6,132.3 40.7,132.3 44.6,132.2 
					44.4,120.5 				"/>
				<polygon class="st9" points="27.6,18.9 23.7,18.9 19.8,22.9 16,26.8 19.9,26.8 23.8,22.8 				"/>
				<polygon class="st9" points="12,19 8.1,19.1 4.2,23 0.3,27 4.2,26.9 8.1,23 				"/>
				<polygon class="st9" points="39.5,26.5 43.4,26.5 43.3,22.6 				"/>
				<polygon class="st9" points="35.5,18.8 31.5,18.8 27.7,22.8 23.8,26.7 27.7,26.7 31.6,22.7 				"/>
				<polygon class="st9" points="43.3,18.7 43.3,18.7 39.4,18.7 35.5,22.7 31.6,26.6 35.6,26.6 39.4,22.6 				"/>
				<polygon class="st9" points="19.8,18.9 15.9,19 12,22.9 8.1,26.9 12.1,26.9 15.9,22.9 				"/>
				<polygon class="st9" points="4.1,19.1 0.2,19.2 -3.6,23.1 -7.5,27.1 -3.6,27 0.3,23.1 				"/>
				<polygon class="st8" points="44,77.4 44,77.4 43.9,73.5 43.9,73.5 				"/>
				<polygon class="st8" points="44,77.4 43.9,73.5 40,77.4 				"/>
				<polygon class="st8" points="43.8,65.7 32.2,77.5 36.1,77.5 43.9,69.6 				"/>
				<polygon class="st8" points="32.2,77.5 36.1,77.5 36.1,77.5 32.2,77.5 				"/>
				<polygon class="st8" points="43.8,61.7 43.8,61.7 43.7,57.8 43.7,57.8 				"/>
				<polygon class="st8" points="43.7,57.8 24.4,77.6 25.7,77.6 28.3,77.6 43.8,61.7 				"/>
				<polygon class="st8" points="28.3,77.6 28.3,77.6 25.7,77.6 				"/>
				<polygon class="st8" points="43.7,53.9 43.7,53.9 43.7,52 				"/>
				<polygon class="st8" points="43.7,53.9 43.7,52 43.6,50 16.5,77.7 18.7,77.7 20.5,77.7 				"/>
				<polygon class="st8" points="16.5,77.7 18.7,77.7 16.5,77.7 				"/>
				<polygon class="st8" points="43.6,42.2 8.7,77.8 12.6,77.8 43.6,46.1 				"/>
				<polygon class="st8" points="8.7,77.8 12.6,77.8 12.6,77.8 8.7,77.8 				"/>
				<polygon class="st8" points="43.5,38.3 43.5,38.3 43.5,34.3 43.5,34.3 				"/>
				<polygon class="st8" points="4.8,77.8 43.5,38.3 43.5,34.3 0.9,77.9 				"/>
				<polygon class="st8" points="43.4,30.4 43.4,30.4 43.4,27.9 				"/>
				<polygon class="st8" points="43.4,27.9 43.4,26.5 -6.9,78 -3,77.9 43.4,30.4 				"/>
				<polygon class="st8" points="0.3,23.1 -3.6,27 -11.3,35 -11.3,38.9 0.3,27 4.2,23 				"/>
				<polygon class="st8" points="8.1,23 4.2,26.9 -11.3,42.8 -11.2,46.7 8.1,26.9 12,22.9 				"/>
				<polygon class="st8" points="15.9,22.9 12.1,26.9 -11.2,50.6 -11.1,54.5 16,26.8 19.8,22.9 				"/>
				<polygon class="st8" points="23.8,22.8 19.9,26.8 -11.1,58.4 -11,62.4 23.8,26.7 27.7,22.8 				"/>
				<polygon class="st8" points="31.6,22.7 27.7,26.7 -11,66.3 -10.9,70.2 31.6,26.6 35.5,22.7 				"/>
				<polygon class="st8" points="43.3,22.6 39.4,22.6 35.6,26.6 -10.9,74.1 -10.9,78 39.5,26.5 				"/>
				<polygon class="st8" points="43.3,21.3 43.3,18.7 43.3,18.7 				"/>
				<polygon class="st8" points="43.3,18.7 39.4,22.6 43.3,22.6 43.3,21.3 				"/>
				<polygon class="st8" points="43.2,14.8 43.2,14.8 43.2,10.8 43.2,10.8 				"/>
				<polygon class="st8" points="43.2,10.8 35.5,18.8 31.6,22.7 35.5,22.7 39.4,18.7 43.2,14.8 				"/>
				<polygon class="st8" points="43.1,3 27.6,18.9 23.8,22.8 27.7,22.8 31.5,18.8 43.2,6.9 				"/>
				<polygon class="st8" points="43,-4.8 19.8,18.9 15.9,22.9 19.8,22.9 23.7,18.9 43.1,-0.9 				"/>
				<polygon class="st8" points="42.9,-12.2 42.9,-12.6 12,19 8.1,23 12,22.9 15.9,19 43,-8.7 				"/>
				<polygon class="st8" points="42.9,-16.9 42.9,-20.5 4.1,19.1 0.3,23.1 4.2,23 8.1,19.1 42.9,-16.6 				"/>
				<polygon class="st8" points="-3.6,23.1 0.2,19.2 42.8,-24.4 42.8,-28.3 -3.7,19.2 -7.6,23.2 				"/>
				<polygon class="st8" points="-11.7,3.6 -11.6,7.5 27.1,-32 24.5,-32 23.1,-32 				"/>
				<polygon class="st8" points="-11.6,11.5 -11.6,15.4 34.9,-32.1 31,-32.1 				"/>
				<polygon class="st8" points="-11.5,19.3 -11.5,23.2 -7.6,19.2 42.7,-32.2 38.8,-32.2 				"/>
				<polygon class="st8" points="44,81.3 44,81.3 44,79.4 44,80 				"/>
				<polygon class="st8" points="44,81.3 44,81.3 44,80 				"/>
				<polygon class="st8" points="47.9,77.4 44,77.4 44,79.4 44,81.3 				"/>
				<polygon class="st8" points="55.7,77.3 51.8,77.3 44,85.2 44.1,89.1 				"/>
				<polygon class="st8" points="63.5,77.2 59.6,77.2 44.1,93.1 44.2,97 				"/>
				<polygon class="st8" points="71.4,77.1 67.4,77.1 44.2,100.9 44.3,104.8 				"/>
				<polygon class="st8" points="79.2,77 75.3,77.1 44.3,108.7 44.3,112.6 				"/>
				<polygon class="st8" points="87,76.9 83.1,77 44.4,116.6 44.4,118.5 44.4,120.5 				"/>
				<polygon class="st8" points="94.8,76.8 90.9,76.9 44.5,124.4 44.5,128.3 				"/>
				<polygon class="st9" points="94.8,69 94.8,72.9 98.7,69 102.5,65 102.5,61.1 98.6,65 				"/>
				<polygon class="st9" points="94.6,53.3 94.6,57.3 98.5,53.3 102.4,49.3 102.3,45.4 98.5,49.4 				"/>
				<polygon class="st9" points="98.8,76.8 102.6,72.8 102.6,68.9 98.7,72.9 94.8,76.8 94.9,80.7 				"/>
				<polygon class="st9" points="94.7,61.2 94.7,65.1 98.6,61.1 102.5,57.2 102.4,53.3 98.5,57.2 				"/>
				<polygon class="st9" points="94.5,45.5 94.5,49.4 98.4,45.5 102.3,41.5 102.2,37.6 98.4,41.6 				"/>
				<polygon class="st9" points="96.2,20 94.2,22 94.3,25.9 98.1,22 				"/>
				<polygon class="st9" points="98.2,25.9 94.3,29.9 94.4,33.8 98.2,29.8 102.1,25.8 100.1,23.9 				"/>
				<polygon class="st9" points="94.5,41.6 98.3,37.6 102.2,33.7 102.2,29.8 98.3,33.7 94.4,37.7 				"/>
				<polygon class="st9" points="94.2,18.1 90.3,22.1 86.4,26 90.4,26 94.2,22 96.2,20 				"/>
				<polygon class="st9" points="70.8,26.2 74.7,26.2 78.6,22.2 82.4,18.2 78.5,18.3 74.7,22.2 				"/>
				<polygon class="st9" points="98.1,22 94.3,25.9 98.2,25.9 100.1,23.9 				"/>
				<polygon class="st9" points="82.5,22.2 78.6,26.1 82.5,26.1 86.4,22.1 90.3,18.2 86.4,18.2 				"/>
				<polygon class="st9" points="63,26.3 66.9,26.2 70.7,22.3 74.6,18.3 70.7,18.4 66.8,22.3 				"/>
				<polygon class="st9" points="43.4,23.9 43.4,26.5 43.3,22.6 43.3,22.6 				"/>
				<polygon class="st9" points="43.3,22.6 43.3,22.6 43.4,23.9 				"/>
				<polygon class="st9" points="51.1,18.6 47.2,18.6 43.3,22.6 43.4,26.5 				"/>
				<polygon class="st9" points="55.1,22.5 59,18.5 55,18.5 51.2,22.5 47.3,26.5 51.2,26.4 				"/>
				<polygon class="st9" points="55.1,26.4 59,26.3 62.9,22.4 66.8,18.4 62.9,18.5 59,22.4 				"/>
			</g>
		</g>
	</g>
</g>
<g>
	<defs>
		<rect id="SVGID_13_" x="0" y="140" width="100" height="100"/>
	</defs>
	<clipPath id="SVGID_14_">
		<use xlink:href="#SVGID_13_"  style="overflow:visible;"/>
	</clipPath>
	<g class="st17">
		<rect x="-84.6" y="49.7" class="st18" width="268.4" height="268.4"/>
		<g>
			<polygon class="st19" points="-62.2,60.8 -45.4,77.6 -39.9,83.2 -34.3,77.6 -17.5,60.8 -0.7,77.6 4.9,83.2 10.5,77.6 27.3,60.8 
				49.6,83.2 55.2,77.6 72,60.8 88.8,77.6 94.4,83.2 99.9,77.6 99.9,77.6 116.7,60.8 133.5,77.6 133.5,77.6 139.1,83.2 139.1,83.2 
				139.1,83.2 144.7,77.6 144.7,77.6 161.5,60.8 183.8,83.2 183.8,72 167,55.2 161.5,49.7 155.9,55.2 139.1,72 116.7,49.7 
				111.1,55.2 94.4,72 77.6,55.2 72,49.7 66.4,55.2 49.6,72 27.3,49.7 21.7,55.2 4.9,72 -11.9,55.2 -17.5,49.7 -23.1,55.2 -39.9,72 
				-56.6,55.2 -62.2,49.7 -67.8,55.2 -84.6,72 -84.6,83.2 -84.6,83.2 			"/>
			<polygon class="st19" points="-62.2,105.6 -45.4,122.4 -39.9,127.9 -34.3,122.4 -17.5,105.6 -0.7,122.4 4.9,127.9 10.5,122.4 
				27.3,105.6 49.6,127.9 55.2,122.4 72,105.6 88.8,122.4 94.4,127.9 99.9,122.4 99.9,122.4 116.7,105.6 133.5,122.4 133.5,122.4 
				139.1,127.9 139.1,127.9 139.1,127.9 144.7,122.4 144.7,122.4 161.5,105.6 183.8,127.9 183.8,116.8 167,100 161.5,94.4 
				155.9,100 139.1,116.8 116.7,94.4 111.1,100 94.4,116.8 77.6,100 72,94.4 66.4,100 49.6,116.8 27.3,94.4 21.7,100 4.9,116.8 
				-11.9,100 -17.5,94.4 -23.1,100 -39.9,116.8 -56.6,100 -62.2,94.4 -67.8,100 -84.6,116.8 -84.6,127.9 -84.6,127.9 			"/>
		</g>
		<g>
			<polygon class="st16" points="-62.2,83.2 -45.4,100 -39.9,105.6 -34.3,100 -17.5,83.2 -0.7,100 4.9,105.6 10.5,100 27.3,83.2 
				49.6,105.6 55.2,100 72,83.2 88.8,100 94.4,105.6 99.9,100 99.9,100 116.7,83.2 133.5,100 133.5,100 139.1,105.6 139.1,105.6 
				139.1,105.6 144.7,100 144.7,100 161.5,83.2 183.8,105.6 183.8,94.4 167,77.6 161.5,72 155.9,77.6 139.1,94.4 116.7,72 
				111.1,77.6 94.4,94.4 77.6,77.6 72,72 66.4,77.6 49.6,94.4 27.3,72 21.7,77.6 4.9,94.4 -11.9,77.6 -17.5,72 -23.1,77.6 
				-39.9,94.4 -56.6,77.6 -62.2,72 -67.8,77.6 -84.6,94.4 -84.6,105.6 -84.6,105.6 			"/>
			<g>
				<polygon class="st16" points="94.4,60.8 99.9,55.2 99.9,55.2 105.5,49.7 94.4,49.7 94.4,49.7 94.4,49.7 83.2,49.7 88.8,55.2 
									"/>
				<polygon class="st16" points="4.9,60.8 10.5,55.2 16,49.7 4.9,49.7 4.9,49.7 4.9,49.7 -6.3,49.7 -0.7,55.2 				"/>
				<polygon class="st16" points="55.2,55.2 60.8,49.7 49.6,49.7 49.6,49.7 49.6,49.7 38.5,49.7 49.6,60.8 				"/>
			</g>
		</g>
	</g>
</g>
<g>
	<path class="st13" d="M43,37.7c1,1.1,2.2,2.2,3.6,3.3c3,2.3,6.9,4.3,11.1,4.9c0.3,0,0.6,0.1,0.9,0.1c1.4-0.5,3.9-2.1,3.6-5
		c-3.2-2.9-10.6-9.7-12-10.9c-2-0.4-4,0.4-5.1,1.5c-2.9-2.5-5.2-5.1-6.3-4.1c-1.1,1.1,3.8,5.6,4.6,6.3C42.6,35,42.6,36.7,43,37.7z
		 M47.4,32.7c0.2-0.6,0.9-1,1.6-0.8c0.6,0.2,1,0.9,0.7,1.6c-0.2,0.6-0.9,1-1.6,0.7C47.5,34.1,47.2,33.3,47.4,32.7z"/>
	<path class="st13" d="M65.5,36c-0.7-1.3-2.3-2.9-5.7-2.5c1.3-1.3,0.6-3.3,0.1-3.9c-0.5-0.6-2.8-2-5-1c0.5-1.6-0.4-3.4-2.4-4.4
		c-2.1-1-3.6,1.5-2.4,3.5c1.8,1.6,10.4,9.5,14.6,13.3C66.5,39,66.2,37.3,65.5,36z"/>
	<path class="st13" d="M72.8,38c1.1-0.6,2.4-0.2,3.2,0.5c-0.4-7.6-6.2-20.3-20.7-14.9c1.2,0.8,1.7,2,1.8,2.7
		c2.7-0.6,6.6,3.3,5.4,5.8c1.9-0.6,3.8,1.2,3.8,2.2C69.3,32.8,72.7,35.9,72.8,38z"/>
	<path class="st13" d="M73.6,43.7c1.3,0.5,2.6-0.2,3.1-1.5c0.5-1.3-0.2-2.6-1.5-3.1c-1.3-0.5-2.6,0.2-3.1,1.5
		C71.7,41.9,72.3,43.3,73.6,43.7z"/>
	<path class="st13" d="M60.3,49c-5.1-0.2-10-2-14-4.3v0c-4.5,1.9-8,8.9-8.8,10.8c-1.9,0-3.3-1.6-3.6-2.2c1.1-2.8,7.1-9.8,9.3-10.5
		c0,0,0,0,0,0c-0.6-0.4-1.1-0.8-1.6-1.3c-5.8,1-10.8,4.7-12.8,10.3c-3.1,8.6,2,18.3,11.3,21.6c9.3,3.4,19.4-0.9,22.5-9.5
		C64.4,58.8,63.4,53.3,60.3,49z"/>
</g>
</svg>
