<svg enable-background="new 0 0 100 100" viewBox="0 0 100 100" xmlns="http://www.w3.org/2000/svg" xmlns:xlink="http://www.w3.org/1999/xlink"><clipPath id="a"><path d="m280 0h100v100h-100z"/></clipPath><clipPath id="b"><path d="m-187.5-6.7h937.7v401.9h-937.7z" transform="matrix(.6711 -.7413 .7413 .6711 -51.4336 272.4679)"/></clipPath><clipPath id="c"><path d="m-560 140h100v100h-100z"/></clipPath><clipPath id="d"><path d="m-631.3-558.9h595v1388.2h-595z"/></clipPath><clipPath id="e"><path d="m-140 140h100v100h-100z"/></clipPath><path d="m0 0h100v100h-100z" fill="#00b0bb"/><path d="m0 0h100v100h-100z" fill="none"/><g clip-path="url(#a)"><g clip-path="url(#b)"><path d="m-49.1-423h625.1v625.1h-625.1z" fill="none" transform="matrix(.6711 -.7413 .7413 .6711 168.4947 159.0424)"/><path d="m-49.1-423h625.1v625.1h-625.1z" fill="#1e0d12" transform="matrix(.6711 -.7413 .7413 .6711 168.4947 159.0424)"/><g fill="#e62f34"><path d="m47.9 3.1.4 7.8 7.8-.3z"/><path d="m47.5-4.8 16.5 15 7.9-.4-24.8-22.5z"/><path d="m46.7-20.6 33.1 30 7.9-.4-41.4-37.5z"/><path d="m45.9-36.4 49.6 45 7.9-.4-57.9-52.4z"/><path d="m45.1-52.1 66.2 59.9 7.9-.4-74.5-67.4z"/><path d="m44.3-67.9 82.8 74.9 7.9-.4-91.1-82.4z"/><path d="m43.5-83.7 99.4 89.9 7.8-.3-107.5-97.4z"/><path d="m42.8-99.4 115.8 104.9-.4-7.9-107.6-97.4z"/></g><g fill="#25793d"><path d="m64 10.2-16.5-15 .4 7.9 8.2 7.5z"/><path d="m47.1-12.7 24.8 22.5 7.9-.4-33.1-30z"/><path d="m46.3-28.5 41.4 37.5 7.8-.4-49.6-45z"/><path d="m45.5-44.2 57.9 52.4 7.9-.4-66.2-59.9z"/><path d="m44.7-60 74.5 67.4 7.9-.4-82.8-74.9z"/><path d="m43.9-75.8 91.1 82.4 7.9-.4-99.4-89.9z"/><path d="m150.7 5.9 7.9-.4-115.8-104.9.4 7.9z"/><path d="m162.1 76.4-.3-7.9-66.3-59.9-7.8.4z"/><path d="m162.9 92.2-.4-7.9-82.7-74.9-7.9.4z"/><path d="m163.7 108-.4-7.9-99.3-89.9-7.9.4z"/><path d="m52.6 97.7 24.8 22.4 7.9-.3-33.1-30z"/><path d="m51.8 81.9 41.3 37.5 7.9-.4-49.6-45z"/><path d="m50.6 58.3.4 7.8 57.9 52.5 7.9-.4z"/><path d="m132.6 117.4-82.8-74.9.4 7.9 74.5 67.4z"/><path d="m148.3 116.6-99.3-89.9.4 7.9 91 82.4z"/><path d="m164.1 115.8-115.9-104.8.4 7.8 107.6 97.4z"/></g><path d="m47.9 3.1.1 3.8.2 4h.1z" fill="#e62f34"/><path d="m47.5-4.8.4 7.9z" fill="#25793d"/><path d="m52.2 89.8.4 7.9z" fill="#25793d"/><path d="m51.4 74 .4 7.9z" fill="#25793d"/><path d="m50.6 58.3.4 7.8z" fill="#25793d"/><path d="m49.8 42.5.4 7.9z" fill="#25793d"/><path d="m49 26.7.4 7.9z" fill="#25793d"/><path d="m48.2 11 .4 7.8z" fill="#25793d"/><path d="m.9 13.3 7.9-.4-74.5-67.4.4 7.9z" fill="#e62f34"/><path d="m16.7 12.5 7.9-.4-91-82.4.4 7.9z" fill="#e62f34"/><path d="m32.5 11.7 7.9-.4-107.6-97.4.4 7.9z" fill="#e62f34"/><path d="m47.9 3.1.1 3.8z" fill="#e62f34"/><path d="m47.9 3.1-107.6-97.4-7.9.4 115.8 104.8z" fill="#e62f34"/><path d="m47.9 3.1.3 7.8z" fill="#e62f34"/><path d="m47.9 3.1.3 7.8-.2-4z" fill="#e62f34"/></g><g clip-path="url(#b)"><path d="m-468.6 40.5h625.1v625.1h-625.1z" fill="none" transform="matrix(.6711 -.7413 .7413 .6711 -313.0375 .4136)"/><path d="m-468.6 40.5h625.1v625.1h-625.1z" fill="#1e0d12" transform="matrix(.6711 -.7413 .7413 .6711 -313.0375 .4136)"/></g></g><g clip-path="url(#c)"><g clip-path="url(#d)"><path d="m-455.1-327.6h466v466h-466z" fill="none"/><path d="m-455.1-327.6h466v466h-466z" fill="#fff"/><g fill="#1e0d12"><path d="m2.8 34h-8l16.1-16.1v8z"/><path d="m-13.3 34h-8l8-8.1 8.1-8h8l-8 8z"/></g></g></g><g clip-path="url(#e)"><path clip-rule="evenodd" d="m-224.6 49.7h268.4v268.4h-268.4z" fill="#fff" fill-rule="evenodd"/><path d="m-202.2 60.8 16.8 16.8 5.5 5.6 5.6-5.6 16.8-16.8 16.8 16.8 5.6 5.6 5.6-5.6 16.8-16.8 22.3 22.4 5.6-5.6 16.8-16.8 16.8 16.8 5.6 5.6 5.5-5.6 16.8-16.8 16.8 16.8 5.6 5.6 5.6-5.6 16.8-16.8 22.3 22.4v-11.2l-16.8-16.8-5.5-5.5-5.6 5.5-16.8 16.8-22.4-22.3-5.6 5.5-16.7 16.8-16.8-16.8-5.6-5.5-5.6 5.5-16.8 16.8-22.3-22.3-5.6 5.5-16.8 16.8-16.8-16.8-5.6-5.5-5.6 5.5-16.8 16.8-16.7-16.8-5.6-5.5-5.6 5.5-16.8 16.8v11.2z" fill="#c92927"/><path d="m-202.2 105.6 16.8 16.8 5.5 5.5 5.6-5.5 16.8-16.8 16.8 16.8 5.6 5.5 5.6-5.5 16.8-16.8 22.3 22.3 5.6-5.5 16.8-16.8 16.8 16.8 5.6 5.5 5.5-5.5 16.8-16.8 16.8 16.8 5.6 5.5 5.6-5.5 16.8-16.8 22.3 22.3v-11.1l-16.8-16.8-5.5-5.6-5.6 5.6-16.8 16.8-22.4-22.4-5.6 5.6-16.7 16.8-16.8-16.8-5.6-5.6-5.6 5.6-16.8 16.8-22.3-22.4-5.6 5.6-16.8 16.8-16.8-16.8-5.6-5.6-5.6 5.6-16.8 16.8-16.7-16.8-5.6-5.6-5.6 5.6-16.8 16.8v11.1z" fill="#c92927"/><g fill="#96bf4d"><path d="m-202.2 83.2 16.8 16.8 5.5 5.6 5.6-5.6 16.8-16.8 16.8 16.8 5.6 5.6 5.6-5.6 16.8-16.8 22.3 22.4 5.6-5.6 16.8-16.8 16.8 16.8 5.6 5.6 5.5-5.6 16.8-16.8 16.8 16.8 5.6 5.6 5.6-5.6 16.8-16.8 22.3 22.4v-11.2l-16.8-16.8-5.5-5.6-5.6 5.6-16.8 16.8-22.4-22.4-5.6 5.6-16.7 16.8-16.8-16.8-5.6-5.6-5.6 5.6-16.8 16.8-22.3-22.4-5.6 5.6-16.8 16.8-16.8-16.8-5.6-5.6-5.6 5.6-16.8 16.8-16.7-16.8-5.6-5.6-5.6 5.6-16.8 16.8v11.2z"/><path d="m-6.5 55.2 5.6 5.6 5.6-5.6 5.6-5.5h-22.4z"/><path d="m43.8 49.7h-11.1l11.1 11.1z"/></g></g><path d="m35 64.4s-2.3-19.2 2.5-28.5c4.5-8.8 18.3-9.8 23.7-1.8 7.2 10.8 6.1 28.2 6.1 28.2z" fill="#fff"/><path d="m44.5 23.3c-1.5.7.9 2 .9 2s-2.5.1-2.3 1.2c.3 1.1 1.6 1.1 1.6 1.1s-1.7 1.6-.8 2.4c.8.8 2.1-.1 2.1-.1s-1.1 1.9.6 2.2c1.7.2 2.1-1.8 2.1-1.8s.7 2.1 1.8 1.7.6-2.6.6-2.6 1.3 1.5 2.1.3c.8-1.3-1.5-1.9-1.5-1.9s2.3-.5 2-1.4-2.3-.4-2.3-.4 2.1-1 1.1-2c-1-.9-2.1.8-2.1.8s.3-2.2-1.1-2.6-1.5 2.1-1.5 2.1-1.4-2-3.3-1z" fill="#401b23"/><path d="m35 64.4c-1.8 1.7-1.6 6.5.1 7.6 1.6 1.1 32-.6 33.2-2.3 1.1-1.7.7-6.1-1-7.4s-31.3 1.1-32.3 2.1z" fill="#ee2d40"/><path d="m49.3 31.6c.1.2.3.3.5.4-.2-.1-.3-.3-.5-.4z" fill="none"/><path d="m46.1 25.6c.4 0 .7.3.9.7.1.2.2.5.4.6.3.2.6.1.9-.1.4-.3.8-.7 1.3-.7.4 0 .7.4.8.7.3.4.5 1 1 1.1h.4c-.2-.1-.3-.1-.3-.1s.6-.2 1.2-.4c.1 0 .1-.1.2-.1.1-.1.2-.1.3-.2.2-.2.4-.4.3-.7 0-.1-.1-.2-.1-.2-.1.1-.2.3-.4.4-.4.3-.9.5-1.3.2s-.5-.7-.8-1c-.4-.3-.9-.4-1.4-.3s-.9.6-1.4.6c-.4-.1-.5-.4-.7-.7-.6-1-1.7-.1-2.5-.3-.4-.1-.5-.4-.6-.8 0-.2 0-.5-.2-.6-.7.7 1.2 1.7 1.2 1.7s-1.2 0-1.8.4c.2.2.5.3.8.3.7-.2 1.2-.6 1.8-.5z" fill="none"/><path d="m45.5 26.7c.4.1.8.3 1.1.7s.5 1 1.2.7c.4-.2.8-.5 1.3-.4.4.1.8.5 1.1.8.4.5.9.8 1.5.5.4-.2.7-.5 1.2-.6-.1-.1-.2-.1-.3-.2-.3.2-.6.3-.9.3-.5 0-.7-.3-1-.7s-.5-1.2-1.2-1.1c-.6.1-.9.7-1.5.8-.5.1-.8-.1-1-.5-.1-.2-.2-.5-.4-.6-.2-.2-.5-.2-.8-.2-.6.1-1.1.5-1.7.3-.3-.1-.6-.3-.8-.5-.2.2-.2.4-.2.6.1.2.1.4.3.5.6-.4 1.4-.6 2.1-.4z" fill="none"/><path d="m45.9 24.3c.4-.1 1-.2 1.3.1s.4.8.7 1c.3.1.7-.2.9-.3s.4-.2.6-.2c.5-.1.9 0 1.3.3.3.2.4.4.6.7.4-.2 1.1-.7 1.2-1.2-.1 0-.3-.1-.4-.2-.3-.2-.5-.5-.7-.7-.7.1-1.3 1-1.3 1s.1-.5 0-1.1c-.1.1-.3.2-.4.3-.3.2-.7.2-1 0-.2-.2-.3-.4-.6-.5-.1-.1-.3-.1-.5-.1-.2.5-.2 1.1-.2 1.1s-.4-.6-1-1c-.3 0-.5 0-.7-.2-.4-.1-.9 0-1.4.2 0 0-.1 0-.1.1.1.3.1.6.2.9.5.1 1.2-.1 1.5-.2z" fill="none"/><path d="m51.7 26.2c.5.4.9.1 1.3-.3-.5-.2-1.2-.1-1.5 0 .1.1.1.2.2.3z" fill="none"/><path d="m52.4 24c-.1-.1-.2-.2-.3-.2.1.1.2.1.3.2z" fill="none"/><path d="m49 23.4c.4.1.7-.1 1-.3h.1c-.2-.4-.5-.8-1-.9-.6-.2-.9.1-1.1.5.1 0 .2.1.3.1.2.1.4.5.7.6z" fill="none"/><path d="m50.6 31.9c.4-.3.5-.8.5-1.3-.5.2-.9.6-1.4.3-.4-.2-.5-.6-.8-.9-.4-.4-.8-.4-1.3-.3-.4.1-.9.3-1.3.2-.5-.1-.7-.6-.9-.9-.3-.4-.6-.7-1.1-.8-.3.4-.6.9-.6 1.4.5-.1 1 .1 1.3.4.1.1.2.2.3.4.4-.1.7-.3.7-.3s-.3.4-.3.9c.1.2.3.3.5.4.6.3 1-.3 1.5-.6.4-.2.7-.2 1-.1.1-.2.1-.3.1-.3s.1.2.2.4c.6.3 1.1.9 1.7 1.1-.2 0-.1 0-.1 0z" fill="none"/><path d="m45.1 28.2c.3.4.4.9.9 1.1.4.2 1 0 1.4-.1s.9-.2 1.3.1c.3.2.5.6.8.9.5.5 1 .1 1.6-.2 0-.2-.1-.4-.1-.5-.1 0-.2 0-.3-.1-.4-.2-.7-.6-1-.9-.4-.4-.9-.6-1.4-.3-.3.2-.6.4-1 .3s-.6-.6-.8-.9c-.3-.4-.8-.6-1.3-.7s-1 0-1.5.2c.5.3 1 .3 1 .3s-.1.1-.2.2c.2.2.5.3.6.6z" fill="none"/><path d="m47.3 31.5c-.3.2-.7.5-1.1.3-.2-.1-.4-.2-.5-.4.1.3.3.6.9.7 1 .1 1.5-.5 1.8-1-.4-.1-.8.2-1.1.4z" fill="none"/><path d="m43.9 29.9c-.1 0-.1 0-.2 0 0 .1.1.1.1.2.3.3.7.4 1 .3-.2-.3-.5-.5-.9-.5z" fill="none"/><path d="m51.8 29.4c-.2.1-.4.2-.7.2.1.1.2.2.4.3.2 0 .3-.1.5 0 .2 0 .4.2.5.3.2-.1.4-.2.6-.5s.2-.6.1-.8c-.5-.2-1 .2-1.4.5z" fill="none"/><path d="m45.3 28.9c.2.4.4.8.9.9.4.1.9-.1 1.3-.2.5-.1 1-.1 1.3.3.3.3.5.7.8.9.5.3 1 0 1.4-.3 0-.2 0-.4 0-.5-.5.3-1 .7-1.6.2-.3-.3-.5-.7-.8-.9-.4-.3-.8-.2-1.3-.1-.4.1-1 .3-1.4.1s-.6-.8-.9-1.1c-.2-.2-.4-.4-.6-.4-.1.1-.2.2-.3.4.6 0 .9.3 1.2.7z" fill="#ee2d40"/><path d="m51.9 29.8c-.2 0-.3 0-.5 0 .3.2.7.4 1 .3-.1-.1-.2-.2-.5-.3z" fill="#ee2d40"/><path d="m45.2 27.1c.5.1 1 .3 1.3.7.2.3.4.8.8.9s.7-.2 1-.3c.5-.3 1-.1 1.4.3.3.3.6.7 1 .9.1 0 .2.1.3.1 0-.1 0-.1 0-.1s0 .1.1.1c.2 0 .5-.1.7-.2.4-.2.9-.7 1.4-.5-.1-.2-.3-.4-.5-.6-.4.1-.8.4-1.2.6-.6.3-1.1 0-1.5-.5-.3-.3-.6-.7-1.1-.8s-.8.2-1.3.4c-.7.3-.8-.2-1.2-.7-.3-.3-.7-.6-1.1-.7-.7-.2-1.4 0-2.1.3.1.1.2.2.3.3.7-.2 1.2-.3 1.7-.2z" fill="#ee2d40"/><path d="m50.4 32c.1 0 .2-.1.2-.1h-.1c-.6-.2-1.1-.8-1.7-1.1.1.3.3.6.5.9.2.1.3.3.5.4.2 0 .4 0 .6-.1z" fill="#ee2d40"/><path d="m43.6 29.5c0 .1 0 .3.1.4h.2c.4 0 .7.2 1 .5.1 0 .2 0 .4-.1-.1-.1-.2-.3-.3-.4-.4-.3-.9-.5-1.4-.4z" fill="#ee2d40"/><path d="m47.6 30.7c-.5.3-.9.8-1.5.6-.2-.1-.4-.2-.5-.4v.5c.2.2.3.3.5.4.4.2.8-.1 1.1-.3.4-.3.7-.5 1.1-.4.1-.2.2-.3.2-.5-.2-.1-.6-.1-.9.1z" fill="#ee2d40"/><path d="m52.8 27.3c.2-.1.4-.2.5-.3-.1.1-.2.1-.3.2s-.2.1-.2.1z" fill="#ee2d40"/><path d="m44.1 26.4c.6.1 1.1-.2 1.7-.3.3 0 .6 0 .8.2s.3.4.4.6c.2.4.5.6 1 .5.5-.2.9-.7 1.5-.8s.9.7 1.2 1.1c.2.4.5.7 1 .7.3 0 .6-.1.9-.3-.2-.1-.4-.2-.6-.3-.1 0-.3 0-.4 0-.6-.1-.8-.7-1-1.1-.2-.3-.5-.6-.8-.7-.5-.1-.9.4-1.3.7-.3.2-.6.3-.9.1-.2-.1-.3-.4-.4-.6-.2-.4-.4-.6-.9-.7-.6-.1-1.1.4-1.7.4-.3 0-.6-.1-.8-.3-.1.1-.2.1-.3.2 0 .3.3.5.6.6z" fill="#ee2d40"/><path d="m44.3 24.1c.1.4.2.7.6.8.9.3 2-.7 2.5.3.2.3.3.7.7.7.5.1.9-.5 1.4-.6s1 0 1.4.3c.3.3.5.7.8 1 .4.3.9.1 1.3-.2.1-.1.2-.3.4-.4-.1 0-.2 0-.4-.1-.4.4-.8.7-1.3.3-.1-.1-.2-.2-.3-.3-.2 0-.3 0-.3 0s.1 0 .2-.1c-.2-.2-.3-.5-.6-.7-.4-.3-.9-.4-1.3-.3-.2 0-.4.1-.6.2-.3.2-.6.4-.9.3-.4-.1-.4-.7-.7-1-.4-.3-.9-.2-1.3-.1s-1.1.3-1.3-.1c-.2-.2-.1-.6-.2-.9-.1.1-.2.1-.2.2.1.2.1.5.1.7z" fill="#ee2d40"/><path d="m52.2 24.4c.1.1.3.2.4.2 0-.2 0-.4-.2-.6-.1-.1-.2-.1-.3-.2-.2-.1-.4-.1-.6-.1.2.2.4.5.7.7z" fill="#ee2d40"/><path d="m46.6 23.3c-.2-.1-.5-.2-.7-.3.2.3.4.3.7.3z" fill="#ee2d40"/><path d="m48.8 23.8c.3.3.7.2 1 0 .1-.1.3-.2.4-.3 0-.2-.1-.3-.1-.5 0 0 0 0-.1 0-.3.2-.6.5-1 .3-.3-.1-.5-.5-.8-.7-.1-.1-.2-.1-.3-.1-.1.2-.1.3-.2.5.2 0 .3 0 .5.1.2.3.4.5.6.7z" fill="#ee2d40"/><g fill="none"><path d="m60.2 66.9c0-1.1 0-2.2-.2-3.3 0-.6 0-1.1-.1-1.6-.6 0-1.2 0-1.8.1.4 1.6.5 3.3.6 4.9.1 1.3.2 2.6.2 3.8v.5c.5 0 1-.1 1.4-.1 0-.3 0-.6 0-1 0-1.1 0-2.2-.1-3.3z"/><path d="m48.4 64.4c0-.6-.1-1.2-.1-1.7-.4 0-.9.1-1.3.1 0 .6 0 1.1.1 1.7.1 1.1.2 2.3.3 3.4.1 1.2.2 2.3.4 3.4 0 .3.1.5.1.8.4 0 .8 0 1.2-.1-.1-1.3-.2-2.6-.3-3.8-.2-1.3-.3-2.5-.4-3.8z"/><path d="m65.2 66.5c-.1-1.5-.2-3.1-.6-4.6-.5 0-1 0-1.6 0 .4 1.5.6 3.1.8 4.6.1 1.1.2 2.2.2 3.4v.8c.4-.1.8-.1 1.2-.2 0-.3 0-.5 0-.8.1-1 0-2.1 0-3.2z"/><path d="m50.2 67.9c-.1-1.8-.3-3.6-.2-5.4-.5 0-1 .1-1.5.1 0 .6.1 1.3.1 1.9.1 1.2.2 2.4.3 3.5.1 1.3.3 2.6.4 3.9.4 0 .9 0 1.3-.1 0-.2 0-.4-.1-.5-.1-1.1-.2-2.2-.3-3.4z"/><path d="m52.1 68c-.1-1.2-.2-2.3-.3-3.5-.1-.7-.1-1.4-.2-2.1-.5 0-.9.1-1.4.1 0 1.8.1 3.5.2 5.3.1 1.2.2 2.3.4 3.5 0 .2.1.4.1.6.5 0 1.1-.1 1.6-.1 0-.2 0-.3 0-.5-.1-1.1-.2-2.2-.4-3.3z"/><path d="m56.8 67.4c-.1-1.1-.2-2.3-.4-3.4-.1-.6-.2-1.2-.3-1.9-.4 0-.8 0-1.2.1.1.5.2 1 .2 1.5.2 1.2.3 2.4.4 3.6.1 1.3.2 2.5.3 3.8v.4c.4 0 .7-.1 1.1-.1 0-.2 0-.5 0-.7 0-1.1 0-2.2-.1-3.3z"/><path d="m62 66.5c-.1-1.5-.4-3.1-.7-4.6-.4 0-.8 0-1.2 0 .1.4.2.9.2 1.3.1 1.1.2 2.2.2 3.3 0 1.2.1 2.4.1 3.5v1c.5-.1 1.1-.1 1.6-.2 0-.4 0-.9 0-1.3 0-.9-.1-2-.2-3z"/><path d="m58.4 67.2c-.1-1.7-.2-3.4-.6-5.1-.5 0-1 0-1.5.1.1.6.2 1.2.3 1.8.2 1.1.3 2.2.4 3.4s.1 2.3.1 3.5v.7c.5 0 1-.1 1.5-.1 0-.2 0-.4 0-.6 0-1.4-.1-2.6-.2-3.7z"/><path d="m47.1 67.8c-.1-1.2-.2-2.4-.3-3.5 0-.5-.1-1-.1-1.5-.5 0-1 .1-1.4.1.1 1.7.2 3.4.4 5.2.1 1.2.3 2.4.5 3.5 0 .2.1.3.1.5.4 0 .9 0 1.3-.1 0-.2-.1-.5-.1-.7-.1-1.1-.3-2.3-.4-3.5z"/><path d="m55.3 67.7c-.1-1.2-.2-2.4-.3-3.6-.1-.6-.1-1.1-.2-1.7 0-.1 0-.2-.1-.3-.4 0-.8 0-1.2.1 0 .6.1 1.3.1 1.9.1 1.2.2 2.3.3 3.5s.2 2.3.3 3.5v.4c.4 0 .9-.1 1.3-.1 0-.1 0-.2 0-.4-.1-.9-.1-2.1-.2-3.3z"/><path d="m53.6 67.8c-.1-1.2-.2-2.3-.3-3.5 0-.6-.1-1.3-.1-1.9-.5 0-1 .1-1.5.1.1.7.1 1.3.2 2 .1 1.2.3 2.3.4 3.5s.2 2.3.4 3.5v.5c.4 0 .8-.1 1.2-.1 0-.1 0-.3 0-.4-.1-1.4-.2-2.6-.3-3.7z"/><path d="m63.5 66.5c-.2-1.6-.4-3.1-.8-4.6-.4 0-.8 0-1.2 0 .4 1.5.6 3 .7 4.6.1 1.1.2 2.2.2 3.3v1.1c.4-.1.9-.1 1.3-.2 0-.4 0-.8 0-1.1 0-1-.1-2-.2-3.1z"/><path d="m38.7 68.6c-.1-1.1-.1-2.2-.1-3.3 0-.5 0-1.1.1-1.7-.5.1-.9.1-1.3.2-.1 1.8-.1 3.5.2 5.3.2 1.1.4 2.1.7 3.2h1c0-.1-.1-.3-.1-.4-.3-1.1-.4-2.2-.5-3.3z"/><path d="m40 68.6c-.2-1.7-.3-3.4-.2-5.1-.3 0-.6.1-.9.1-.1.6-.1 1.2-.1 1.8 0 1.1 0 2.1.1 3.2s.3 2.1.5 3.2c0 .2.1.3.1.5h1.1c0-.1 0-.2-.1-.3-.2-1.1-.4-2.3-.5-3.4z"/><path d="m67.8 65.8c-.1-1-.2-2-.4-2.9 0-.2-.1-.4-.1-.6-.2-.1-.6-.2-1.2-.3.1.4.2.8.3 1.2.2 1.1.4 2.1.5 3.2s.1 2.2.1 3.3v.5c.4-.1.7-.2 1-.3 0-.4 0-.8 0-1.2-.1-1-.1-1.9-.2-2.9z"/><path d="m67.5 62.6c0 .1 0 .2.1.3.2 1 .3 1.9.5 2.9.1 1 .2 2 .2 3v.9c1-1.6.6-5.6-.8-7.1z"/><path d="m34.5 68.6c-.1-1 0-2 .2-3 .1-.4.1-.7.2-1.1-1.6 1.8-1.4 6.4.2 7.4 0-.1-.1-.2-.1-.4-.3-.9-.5-1.9-.5-2.9z"/><path d="m35.8 64.1c-.3.1-.5.1-.6.2-.1.5-.3 1-.4 1.6-.1 1-.2 1.9-.1 2.9s.3 1.9.5 2.8c.1.2.1.4.2.5.2 0 .6.1.9.1-.3-1.1-.5-2.2-.7-3.3-.1-1.5-.1-3.2.2-4.8z"/><path d="m37.1 63.9c-.4.1-.7.1-1 .2-.2 1.6-.3 3.2-.1 4.9.1 1.1.4 2.2.8 3.3h1.2c-.3-1.1-.6-2.2-.7-3.3-.3-1.7-.4-3.4-.2-5.1z"/><path d="m66.6 66.6c-.1-1.1-.2-2.1-.5-3.2-.1-.5-.2-1-.3-1.5-.3 0-.6 0-1-.1.1.3.2.6.2.9.2 1.1.3 2.2.4 3.3.1 1.2.1 2.3.1 3.5v.9c.4-.1.8-.1 1.1-.2 0-.2 0-.3 0-.5.1-1 .1-2 0-3.1z"/><path d="m43.9 68.6c-.1-1.2-.2-2.4-.3-3.7 0-.6-.1-1.2-.1-1.9-.4 0-.8.1-1.2.1.1 1.8.2 3.5.4 5.2.1 1.2.3 2.4.5 3.5v.2h1.2v-.1c-.2-.9-.3-2.1-.5-3.3z"/><path d="m42.6 68.6c-.2-1.8-.4-3.6-.4-5.4-.3 0-.6.1-.8.1v1.8c0 1.1.1 2.1.2 3.2s.3 2.1.5 3.2c.1.3.1.5.2.8h.8v-.1c-.2-1.2-.4-2.4-.5-3.6z"/><path d="m41.3 68.3c-.1-1.1-.2-2.3-.2-3.4 0-.5 0-1 0-1.5-.4 0-.7.1-1.1.1v1.9c0 1.1.1 2.2.2 3.3s.3 2.2.5 3.4c0 .1 0 .2.1.3h1.1c-.1-.2-.1-.5-.2-.7-.1-1.2-.3-2.3-.4-3.4z"/><path d="m45.5 68.2c-.2-1.7-.3-3.5-.3-5.2-.5 0-1 .1-1.4.1v1.9c.1 1.2.2 2.3.3 3.5s.3 2.4.6 3.7v.1c.4 0 .9 0 1.3-.1 0-.2-.1-.4-.1-.5-.1-1.2-.3-2.4-.4-3.5z"/></g><g fill="#401b23"><path d="m34.7 68.7c-.1-1 0-1.9.1-2.9.1-.5.2-1.1.4-1.6-.1 0-.2.1-.2.1s-.1.1-.1.1c-.1.4-.2.8-.2 1.1-.2 1-.2 2-.2 3 .1 1 .2 2 .5 3 0 .1.1.2.1.4.1 0 .2.1.4.1-.1-.2-.1-.4-.2-.5-.3-.9-.5-1.8-.6-2.8z"/><path d="m36.1 64c-.1 0-.2 0-.3.1-.3 1.6-.3 3.3-.1 4.8.1 1.1.4 2.2.7 3.3h.3c-.4-1.1-.6-2.2-.8-3.3-.1-1.6 0-3.2.2-4.9z"/><path d="m37.3 63.8c-.1 0-.2 0-.3 0-.2 1.7 0 3.5.2 5.2.2 1.1.4 2.2.7 3.3h.3c-.3-1-.6-2.1-.7-3.2-.3-1.7-.3-3.5-.2-5.3z"/><path d="m38.9 68.6c-.1-1.1-.1-2.1-.1-3.2 0-.6.1-1.2.1-1.8-.1 0-.2 0-.3 0 0 .6-.1 1.1-.1 1.7 0 1.1 0 2.2.1 3.3s.3 2.2.5 3.2c0 .1.1.3.1.4h.3c0-.2-.1-.3-.1-.5-.2-1-.4-2-.5-3.1z"/><path d="m40.3 68.6c-.1-1.1-.2-2.2-.2-3.3 0-.6 0-1.2 0-1.9-.1 0-.2 0-.2 0-.1 1.7.1 3.4.2 5.1.1 1.1.3 2.2.5 3.4 0 .1 0 .2.1.3h.3c0-.1 0-.2-.1-.3-.3-1.1-.5-2.2-.6-3.3z"/><path d="m41.5 68.3c-.1-1-.2-2.1-.2-3.2 0-.6 0-1.2 0-1.8-.1 0-.2 0-.2 0v1.5c0 1.2.1 2.3.2 3.4s.3 2.2.5 3.3c0 .2.1.5.2.7h.3c-.1-.3-.1-.5-.2-.8-.3-.9-.5-2-.6-3.1z"/><path d="m42.7 68.5c-.2-1.7-.3-3.5-.4-5.2-.1 0-.1 0-.2 0 0 1.8.2 3.6.4 5.4.1 1.2.3 2.3.5 3.5v.1h.2c0-.1 0-.2 0-.2-.2-1.3-.3-2.5-.5-3.6z"/><path d="m44.1 68.4c-.1-1.1-.2-2.3-.3-3.5 0-.6 0-1.3 0-1.9-.1 0-.1 0-.2 0 0 .6 0 1.3.1 1.9.1 1.2.2 2.5.3 3.7s.3 2.3.5 3.5v.1h.2v-.1c-.3-1.2-.4-2.5-.6-3.7z"/><path d="m45.7 68.1c-.2-1.7-.3-3.4-.4-5.2-.1 0-.1 0-.2 0 0 1.7.2 3.5.3 5.2.1 1.2.3 2.3.4 3.4 0 .2.1.4.1.5h.2c0-.2-.1-.3-.1-.5 0-1.1-.2-2.2-.3-3.4z"/><path d="m47.3 67.8c-.1-1.1-.2-2.3-.3-3.4 0-.5-.1-1.1-.1-1.7-.1 0-.1 0-.2 0 0 .5.1 1 .1 1.5.1 1.2.2 2.4.3 3.5.1 1.2.2 2.3.4 3.5 0 .2.1.5.1.7h.2c0-.3-.1-.5-.1-.8-.1-1-.3-2.1-.4-3.3z"/><path d="m48.6 64.6c0-.6-.1-1.3-.1-1.9-.1 0-.1 0-.2 0 0 .6.1 1.2.1 1.7.1 1.3.2 2.5.2 3.7.1 1.3.2 2.6.3 3.8h.3c-.2-1.3-.3-2.6-.4-3.9 0-1.1-.1-2.3-.2-3.4z"/><path d="m50.4 67.8c-.1-1.8-.2-3.5-.2-5.3-.1 0-.1 0-.2 0 0 1.8.1 3.6.2 5.4.1 1.2.2 2.3.4 3.5 0 .2 0 .4.1.5h.3c0-.2-.1-.4-.1-.6-.3-1.2-.4-2.3-.5-3.5z"/><path d="m52.4 67.9c-.1-1.2-.3-2.3-.4-3.5-.1-.7-.1-1.3-.2-2-.1 0-.1 0-.2 0 .1.7.1 1.4.2 2.1.1 1.2.2 2.3.3 3.5.1 1.1.2 2.3.3 3.4v.5h.3c0-.2 0-.3 0-.5-.1-1.2-.2-2.4-.3-3.5z"/><path d="m53.8 67.7c-.1-1.2-.2-2.3-.3-3.5 0-.6-.1-1.3-.1-1.9-.1 0-.1 0-.2 0 0 .6.1 1.3.1 1.9.1 1.2.2 2.3.3 3.5s.2 2.3.3 3.5v.4h.2c0-.1 0-.3 0-.4 0-1.1-.1-2.3-.3-3.5z"/><path d="m55.5 67.3c-.1-1.2-.2-2.4-.4-3.6-.1-.5-.1-1-.2-1.5-.1 0-.1 0-.2 0 0 .1 0 .2.1.3.1.6.2 1.1.2 1.7.1 1.2.2 2.4.3 3.6s.2 2.3.2 3.5v.4h.3c0-.1 0-.3 0-.4-.1-1.4-.2-2.7-.3-4z"/><path d="m57 67.3c-.1-1.1-.2-2.2-.4-3.4-.1-.6-.2-1.2-.3-1.8-.1 0-.1 0-.2 0 .1.6.2 1.2.3 1.9.2 1.1.3 2.3.4 3.4s.1 2.3.1 3.4v.7h.3c0-.2 0-.5 0-.7-.1-1.2-.1-2.4-.2-3.5z"/><path d="m58.7 67c-.1-1.6-.2-3.3-.6-4.9-.1 0-.2 0-.2 0 .4 1.7.5 3.4.6 5.1.1 1.2.1 2.4.2 3.5v.6h.3c0-.2 0-.3 0-.5-.2-1.3-.2-2.5-.3-3.8z"/><path d="m60.5 66.6c0-1.1-.1-2.2-.2-3.3-.1-.4-.1-.9-.2-1.3-.1 0-.1 0-.2 0 .1.5.2 1.1.2 1.6.1 1.1.1 2.2.2 3.3 0 1.1 0 2.2.1 3.3v1h.3c0-.3 0-.7 0-1-.1-1.3-.2-2.4-.2-3.6z"/><path d="m62.3 66.5c-.2-1.5-.4-3.1-.7-4.6-.1 0-.2 0-.2 0 .3 1.5.6 3 .7 4.6.1 1 .2 2.1.2 3.1v1.3h.3c0-.4 0-.7 0-1.1-.1-1.1-.2-2.2-.3-3.3z"/><path d="m63.7 66.5c-.2-1.5-.4-3.1-.8-4.6-.1 0-.1 0-.2 0 .3 1.5.6 3.1.8 4.6.1 1 .2 2 .2 3.1v1.1h.3c0-.3 0-.6 0-.8-.1-1.1-.1-2.2-.3-3.4z"/><path d="m65.4 66.1c-.1-1.1-.2-2.2-.4-3.3-.1-.3-.1-.6-.2-.9-.1 0-.1 0-.2 0 .4 1.5.5 3 .6 4.6.1 1.1.1 2.2.1 3.3v.8h.3c0-.3 0-.6 0-.9-.1-1.2-.1-2.4-.2-3.6z"/><path d="m66.8 66.5c-.1-1.1-.3-2.2-.5-3.2-.1-.4-.2-.8-.3-1.2-.1 0-.1 0-.2 0 .1.5.3 1 .3 1.5.2 1.1.4 2.1.5 3.2.1 1 .1 2.1.1 3.1v.5c.1 0 .2 0 .3-.1 0-.2 0-.3 0-.5 0-1.1-.1-2.2-.2-3.3z"/><path d="m68 65.8c-.1-1-.3-2-.5-2.9 0-.1 0-.2-.1-.3s-.2-.2-.3-.2c0 .2.1.4.1.6.2 1 .3 2 .4 2.9s.1 1.9.1 2.8v1.2c.1-.1.2-.1.3-.2 0-.3 0-.6 0-.9.2-1 .1-2 0-3z"/></g><path d="m41.2 36.3 3-3.3 1.6 3.1 2-3.3 1.9 2.8 1.6-2.9 2.6 2.4.8-2.9 2.7 2.6.3-3 2.2.9c-5.7-6.1-17.1-5.1-21.8 2l2.5-1.5z" fill="none"/><path d="m40.8 39.3 3.1-3.3 2 3.3 2.3-3 2.1 2.7 1.5-3.3 3 2.7 1.1-3 2.8 2.5.8-3.3 3 1.4c-.3-.5-.5-.9-.8-1.4l-2.8-1.4-.5 3.2-2.9-2.3-1.3 2.9-2.7-2.7-1.7 3.3-1.7-2.7-2.3 3-1.8-3.2-3 3.3-1.4-3.2-2.5 1.6c-.2.4-.4.8-.5 1.3l2.7-1.7z" fill="none"/><path d="m42.6 57.3 5.3-8.5 5.9 7.3 5.6-7.8 4.8 6.9 2.5-5.1c-.1-.6-.2-1.2-.3-1.9l-2.3 4.9-4.6-7.1-5.7 8.1-5.9-7.6-5.5 8.5-5.1-8.7-2.8 5v2.4l2.6-4.7z" fill="none"/><path d="m64.5 57.9-5.1-6.9-5.7 7.8-5.7-6.9-5.7 7.9-5.1-7.5-2.7 4.8c.1 4.2.5 7.2.5 7.2l32.2-2.1s.3-4-.3-9.4z" fill="none"/><path d="m42.7 50.8 5.2-8.1 6.1 8.3 5.6-8.3 4.6 7.3 1.7-4.2c-.6-2.7-1.5-5.5-2.7-8.1l-3.3-2-1.1 3.5-2.8-2.4-1.1 3.1-3-2.6-1.6 3.3-2.3-2.8-2.5 2.9-2-3.3-3 3.5-1.7-3.5-2.8 1.7c-.7 2.3-1.1 4.8-1.4 7.4l2.7-4z" fill="none"/><path d="m42.3 59.8 5.7-7.9 5.7 6.9 5.7-7.8 5.1 6.9 2.5-5c-.1-.9-.2-1.8-.3-2.8l-2.5 5.1-4.8-6.9-5.6 7.8-5.9-7.3-5.3 8.5-5.6-8.4-2.6 4.7c0 1.2 0 2.4.1 3.5l2.7-4.8z" fill="#401b23"/><path d="m42.4 54.9 5.5-8.5 5.9 7.6 5.7-8.1 4.6 7.2 2.3-4.9c-.1-.8-.3-1.7-.5-2.6l-1.7 4.2-4.6-7.3-5.6 8.5-6.1-8.3-5.2 8.1-5.2-8.2-2.7 4c-.2 1.6-.3 3.1-.3 4.7l2.8-5z" fill="#401b23"/><path d="m41 38 3-3.4 1.9 3.2 2.3-3 1.7 2.7 1.7-3.3 2.7 2.7 1.1-2.8 2.9 2.3.5-3.2 2.8 1.4c-.1-.2-.3-.4-.4-.6-.4-.5-.7-1-1.2-1.5l-2.2-.9-.3 3-2.7-2.6-.8 2.9-2.6-2.4-1.6 2.9-1.9-2.8-2 3.3-1.7-2.9-3 3.3-.5-3.2-2.5 1.5c-.3.4-.5.8-.7 1.2-.1.2-.2.4-.3.6l2.5-1.6z" fill="#ee2d40"/><path d="m40.6 40.9 3-3.5 2 3.3 2.5-2.9 2.2 2.7 1.6-3.3 3 2.6 1.1-3.1 2.8 2.4 1.1-3.5 3.3 2c-.3-.5-.5-1.1-.8-1.6l-3-1.4-.8 3.3-2.8-2.5-1.1 3-3-2.7-1.5 3.3-2.1-2.7-2.3 3-2-3.3-3.1 3.3-1.4-3.3-2.7 1.7c-.2.4-.3.9-.5 1.4l2.8-1.7z" fill="#ee2d40"/></svg>