<?xml version="1.0" encoding="utf-8"?>
<!-- Generator: Adobe Illustrator 22.1.0, SVG Export Plug-In . SVG Version: 6.00 Build 0)  -->
<svg version="1.1" id="Layer_1" xmlns="http://www.w3.org/2000/svg" xmlns:xlink="http://www.w3.org/1999/xlink" x="0px" y="0px"
	 viewBox="0 0 100 100" style="enable-background:new 0 0 100 100;" xml:space="preserve">
<style type="text/css">
	.st0{fill:#BE1E2D;}
	.st1{fill:#00B0BB;}
	.st2{fill:#63C4AF;}
	.st3{fill:#EAEAEA;}
	.st4{fill:#413E34;}
	.st5{fill:none;}
	.st6{clip-path:url(#SVGID_2_);}
	.st7{clip-path:url(#SVGID_4_);}
	.st8{fill:#1E0D12;}
	.st9{fill:#E62F34;}
	.st10{fill:#25793D;}
	.st11{clip-path:url(#SVGID_6_);}
	.st12{clip-path:url(#SVGID_8_);}
	.st13{fill:#FFFFFF;}
	.st14{clip-path:url(#SVGID_10_);}
	.st15{clip-path:url(#SVGID_12_);}
	.st16{fill:#96BF4D;}
	.st17{clip-path:url(#SVGID_14_);}
	.st18{fill-rule:evenodd;clip-rule:evenodd;fill:#FFFFFF;}
	.st19{fill:#C92927;}
	.st20{fill:#253748;}
	.st21{clip-path:url(#SVGID_16_);}
	.st22{fill:#97CB59;}
	.st23{fill:#DA2128;}
	.st24{fill:#00A14B;}
	.st25{fill:#96171A;}
	.st26{fill:#D1E39B;}
	.st27{fill:#4FBBBB;}
	.st28{fill:#37343F;}
	.st29{fill:#077A64;}
	.st30{fill:#F4EED4;}
	.st31{fill:#012E47;}
	.st32{fill:#BE1C42;}
	.st33{fill:#008E9F;}
	.st34{fill:#CD4134;}
	.st35{clip-path:url(#SVGID_18_);}
	.st36{clip-path:url(#SVGID_20_);}
	.st37{fill:#EE2424;}
	.st38{fill:#67BC45;}
	.st39{clip-path:url(#SVGID_22_);}
	.st40{clip-path:url(#SVGID_24_);}
	.st41{fill:#004A54;}
	.st42{fill:#D93128;}
	.st43{fill:#401B23;}
	.st44{fill:#EE2D40;}
	.st45{fill:#F1EBC9;}
	.st46{fill-rule:evenodd;clip-rule:evenodd;fill:#C92927;}
	.st47{fill-rule:evenodd;clip-rule:evenodd;fill:#96BF4D;}
	.st48{fill:#BD3026;}
	.st49{opacity:0.4;fill:#CD4134;}
	.st50{fill:#E6B448;}
	.st51{fill:#E21F26;}
	.st52{fill:#A82123;}
	.st53{fill:#383A3A;}
	.st54{fill:#F17B22;}
	.st55{fill:#F1F0DC;}
	.st56{fill:#56AE78;}
	.st57{fill:#EE262E;}
	.st58{fill:#C47229;}
	.st59{fill:#FEC010;}
	.st60{fill:#C0343E;}
	.st61{fill:url(#SVGID_25_);}
	.st62{fill:#659DAA;}
	.st63{fill:#C9A784;}
	.st64{fill:#DDCFB5;}
	.st65{fill:#D2A886;}
	.st66{fill:#9B3227;}
	.st67{opacity:0.39;fill:#FFFFFF;}
	.st68{fill:#E5E5E5;}
	.st69{fill:#202945;}
	.st70{fill:none;stroke:#ACA300;stroke-miterlimit:10;}
	.st71{fill:none;stroke:#ACA300;stroke-miterlimit:10;stroke-dasharray:2.0083,2.0083;}
	.st72{fill:#ACA300;}
</style>
<rect x="0" y="0" class="st1" width="100" height="100"/>
<rect x="0" y="0" class="st5" width="100" height="100"/>
<g>
	<defs>
		<rect id="SVGID_1_" x="280" y="0" width="100" height="100"/>
	</defs>
	<clipPath id="SVGID_2_">
		<use xlink:href="#SVGID_1_"  style="overflow:visible;"/>
	</clipPath>
	<g class="st6">
		<g>
			<defs>
				
					<rect id="SVGID_3_" x="-187.5" y="-6.7" transform="matrix(0.6711 -0.7413 0.7413 0.6711 -51.4336 272.4679)" width="937.7" height="401.9"/>
			</defs>
			<clipPath id="SVGID_4_">
				<use xlink:href="#SVGID_3_"  style="overflow:visible;"/>
			</clipPath>
			<g class="st7">
				
					<rect x="-49.1" y="-423" transform="matrix(0.6711 -0.7413 0.7413 0.6711 168.4947 159.0424)" class="st5" width="625.1" height="625.1"/>
				
					<rect x="-49.1" y="-423" transform="matrix(0.6711 -0.7413 0.7413 0.6711 168.4947 159.0424)" class="st8" width="625.1" height="625.1"/>
				<polygon class="st9" points="47.9,3.1 48.3,10.9 56.1,10.6 				"/>
				<polygon class="st9" points="47.5,-4.8 64,10.2 71.9,9.8 47.1,-12.7 				"/>
				<polygon class="st9" points="46.7,-20.6 79.8,9.4 87.7,9 46.3,-28.5 				"/>
				<polygon class="st9" points="45.9,-36.4 95.5,8.6 103.4,8.2 45.5,-44.2 				"/>
				<polygon class="st9" points="45.1,-52.1 111.3,7.8 119.2,7.4 44.7,-60 				"/>
				<polygon class="st9" points="44.3,-67.9 127.1,7 135,6.6 43.9,-75.8 				"/>
				<polygon class="st9" points="43.5,-83.7 142.9,6.2 150.7,5.9 43.2,-91.5 				"/>
				<polygon class="st9" points="42.8,-99.4 158.6,5.5 158.2,-2.4 50.6,-99.8 42.8,-99.4 42.8,-99.4 42.8,-99.4 				"/>
				<polygon class="st10" points="64,10.2 47.5,-4.8 47.9,3.1 56.1,10.6 				"/>
				<polygon class="st10" points="47.1,-12.7 71.9,9.8 79.8,9.4 46.7,-20.6 				"/>
				<polygon class="st10" points="46.3,-28.5 87.7,9 95.5,8.6 45.9,-36.4 				"/>
				<polygon class="st10" points="45.5,-44.2 103.4,8.2 111.3,7.8 45.1,-52.1 				"/>
				<polygon class="st10" points="44.7,-60 119.2,7.4 127.1,7 44.3,-67.9 				"/>
				<polygon class="st10" points="43.9,-75.8 135,6.6 142.9,6.2 43.5,-83.7 				"/>
				<polygon class="st10" points="150.7,5.9 158.6,5.5 42.8,-99.4 43.2,-91.5 				"/>
				<polygon class="st10" points="162.1,76.4 161.8,68.5 95.5,8.6 87.7,9 				"/>
				<polygon class="st10" points="162.9,92.2 162.5,84.3 79.8,9.4 71.9,9.8 				"/>
				<polygon class="st10" points="163.7,108 163.3,100.1 64,10.2 56.1,10.6 				"/>
				<polygon class="st10" points="52.6,97.7 77.4,120.1 85.3,119.8 52.2,89.8 				"/>
				<polygon class="st10" points="51.8,81.9 93.1,119.4 101,119 51.4,74 				"/>
				<polygon class="st10" points="50.6,58.3 51,66.1 108.9,118.6 116.8,118.2 				"/>
				<polygon class="st10" points="132.6,117.4 49.8,42.5 50.2,50.4 124.7,117.8 				"/>
				<polygon class="st10" points="148.3,116.6 49,26.7 49.4,34.6 140.4,117 				"/>
				<polygon class="st10" points="164.1,115.8 48.2,11 48.6,18.8 156.2,116.2 				"/>
				<polygon class="st9" points="47.9,3.1 47.9,3.1 48,6.9 48.2,10.9 48.3,10.9 				"/>
				<polygon class="st10" points="47.5,-4.8 47.9,3.1 47.9,3.1 47.9,3.1 47.9,3.1 47.5,-4.8 				"/>
				<polygon class="st10" points="52.2,89.8 52.2,89.8 52.6,97.7 52.6,97.7 				"/>
				<polygon class="st10" points="51.4,74 51.4,74 51.8,81.9 51.8,81.9 				"/>
				<polygon class="st10" points="50.6,58.3 50.6,58.3 51,66.1 51,66.1 				"/>
				<polygon class="st10" points="49.8,42.5 49.8,42.5 50.2,50.4 50.2,50.4 				"/>
				<polygon class="st10" points="49,26.7 49,26.7 49.4,34.6 49.4,34.6 				"/>
				<polygon class="st10" points="48.2,11 48.2,11 48.6,18.8 48.6,18.8 				"/>
				<polygon class="st9" points="0.9,13.3 8.8,12.9 -65.7,-54.5 -65.3,-46.6 				"/>
				<polygon class="st9" points="16.7,12.5 24.6,12.1 -66.4,-70.3 -66,-62.4 				"/>
				<polygon class="st9" points="32.5,11.7 40.4,11.3 -67.2,-86.1 -66.8,-78.2 				"/>
				<polygon class="st9" points="47.9,3.1 48,6.9 47.9,3.1 				"/>
				<rect x="47.9" y="3.1" transform="matrix(0.6711 -0.7413 0.7413 0.6711 13.4652 36.4871)" class="st9" width="0" height="0"/>
				<polygon class="st9" points="47.9,3.1 -59.7,-94.3 -67.6,-93.9 48.2,10.9 47.9,3.1 				"/>
				<polygon class="st9" points="47.9,3.1 47.9,3.1 48.2,10.9 48.2,10.9 				"/>
				<polygon class="st9" points="47.9,3.1 48.2,10.9 48.2,10.9 48,6.9 47.9,3.1 				"/>
				<polygon class="st9" points="47.9,3.1 47.9,3.1 47.9,3.1 47.9,3.1 				"/>
				<rect x="47.9" y="3.1" transform="matrix(0.6711 -0.7413 0.7413 0.6711 13.4663 36.4838)" class="st9" width="0" height="0"/>
			</g>
			<g class="st7">
				
					<rect x="-468.6" y="40.5" transform="matrix(0.6711 -0.7413 0.7413 0.6711 -313.0375 0.4136)" class="st5" width="625.1" height="625.1"/>
				
					<rect x="-468.6" y="40.5" transform="matrix(0.6711 -0.7413 0.7413 0.6711 -313.0375 0.4136)" class="st8" width="625.1" height="625.1"/>
			</g>
		</g>
	</g>
</g>
<g>
	<defs>
		<rect id="SVGID_5_" x="-560" y="140" width="100" height="100"/>
	</defs>
	<clipPath id="SVGID_6_">
		<use xlink:href="#SVGID_5_"  style="overflow:visible;"/>
	</clipPath>
	<g class="st11">
		<g>
			<defs>
				<rect id="SVGID_7_" x="-631.3" y="-558.9" width="595" height="1388.2"/>
			</defs>
			<clipPath id="SVGID_8_">
				<use xlink:href="#SVGID_7_"  style="overflow:visible;"/>
			</clipPath>
			<g class="st12">
				<rect x="-455.1" y="-327.6" class="st5" width="466" height="466"/>
				<rect x="-455.1" y="-327.6" class="st13" width="466" height="466"/>
				<g>
					<polygon class="st8" points="2.8,34 -5.2,34 10.9,17.9 10.9,25.9 					"/>
					<polygon class="st8" points="-13.3,34 -21.3,34 -13.3,25.9 -5.2,17.9 2.8,17.9 -5.2,25.9 					"/>
				</g>
			</g>
		</g>
	</g>
</g>
<g>
	<defs>
		<rect id="SVGID_13_" x="-140" y="140" width="100" height="100"/>
	</defs>
	<clipPath id="SVGID_10_">
		<use xlink:href="#SVGID_13_"  style="overflow:visible;"/>
	</clipPath>
	<g class="st14">
		<rect x="-224.6" y="49.7" class="st18" width="268.4" height="268.4"/>
		<g>
			<polygon class="st19" points="-202.2,60.8 -185.4,77.6 -179.9,83.2 -174.3,77.6 -157.5,60.8 -140.7,77.6 -135.1,83.2 
				-129.5,77.6 -112.7,60.8 -90.4,83.2 -84.8,77.6 -68,60.8 -51.2,77.6 -45.6,83.2 -40.1,77.6 -40.1,77.6 -23.3,60.8 -6.5,77.6 
				-6.5,77.6 -0.9,83.2 -0.9,83.2 -0.9,83.2 4.7,77.6 4.7,77.6 21.5,60.8 43.8,83.2 43.8,72 27,55.2 21.5,49.7 15.9,55.2 -0.9,72 
				-23.3,49.7 -28.9,55.2 -45.6,72 -62.4,55.2 -68,49.7 -73.6,55.2 -90.4,72 -112.7,49.7 -118.3,55.2 -135.1,72 -151.9,55.2 
				-157.5,49.7 -163.1,55.2 -179.9,72 -196.6,55.2 -202.2,49.7 -207.8,55.2 -224.6,72 -224.6,83.2 -224.6,83.2 			"/>
			<polygon class="st19" points="-202.2,105.6 -185.4,122.4 -179.9,127.9 -174.3,122.4 -157.5,105.6 -140.7,122.4 -135.1,127.9 
				-129.5,122.4 -112.7,105.6 -90.4,127.9 -84.8,122.4 -68,105.6 -51.2,122.4 -45.6,127.9 -40.1,122.4 -40.1,122.4 -23.3,105.6 
				-6.5,122.4 -6.5,122.4 -0.9,127.9 -0.9,127.9 -0.9,127.9 4.7,122.4 4.7,122.4 21.5,105.6 43.8,127.9 43.8,116.8 27,100 
				21.5,94.4 15.9,100 -0.9,116.8 -23.3,94.4 -28.9,100 -45.6,116.8 -62.4,100 -68,94.4 -73.6,100 -90.4,116.8 -112.7,94.4 
				-118.3,100 -135.1,116.8 -151.9,100 -157.5,94.4 -163.1,100 -179.9,116.8 -196.6,100 -202.2,94.4 -207.8,100 -224.6,116.8 
				-224.6,127.9 -224.6,127.9 			"/>
		</g>
		<g>
			<polygon class="st16" points="-202.2,83.2 -185.4,100 -179.9,105.6 -174.3,100 -157.5,83.2 -140.7,100 -135.1,105.6 -129.5,100 
				-112.7,83.2 -90.4,105.6 -84.8,100 -68,83.2 -51.2,100 -45.6,105.6 -40.1,100 -40.1,100 -23.3,83.2 -6.5,100 -6.5,100 
				-0.9,105.6 -0.9,105.6 -0.9,105.6 4.7,100 4.7,100 21.5,83.2 43.8,105.6 43.8,94.4 27,77.6 21.5,72 15.9,77.6 -0.9,94.4 
				-23.3,72 -28.9,77.6 -45.6,94.4 -62.4,77.6 -68,72 -73.6,77.6 -90.4,94.4 -112.7,72 -118.3,77.6 -135.1,94.4 -151.9,77.6 
				-157.5,72 -163.1,77.6 -179.9,94.4 -196.6,77.6 -202.2,72 -207.8,77.6 -224.6,94.4 -224.6,105.6 -224.6,105.6 			"/>
			<g>
				<polygon class="st16" points="-6.5,55.2 -0.9,60.8 -0.9,60.8 -0.9,60.8 4.7,55.2 4.7,55.2 10.3,49.7 -12.1,49.7 -6.5,55.2 				
					"/>
				<polygon class="st16" points="43.8,49.7 32.7,49.7 43.8,60.8 				"/>
			</g>
		</g>
	</g>
</g>
<g>
	<path class="st13" d="M35,64.4c0,0-2.3-19.2,2.5-28.5c4.5-8.8,18.3-9.8,23.7-1.8c7.2,10.8,6.1,28.2,6.1,28.2L35,64.4z"/>
	<path class="st43" d="M44.5,23.3c-1.5,0.7,0.9,2,0.9,2s-2.5,0.1-2.3,1.2c0.3,1.1,1.6,1.1,1.6,1.1S43,29.2,43.9,30
		c0.8,0.8,2.1-0.1,2.1-0.1s-1.1,1.9,0.6,2.2c1.7,0.2,2.1-1.8,2.1-1.8s0.7,2.1,1.8,1.7c1.1-0.4,0.6-2.6,0.6-2.6s1.3,1.5,2.1,0.3
		c0.8-1.3-1.5-1.9-1.5-1.9s2.3-0.5,2-1.4c-0.3-0.9-2.3-0.4-2.3-0.4s2.1-1,1.1-2c-1-0.9-2.1,0.8-2.1,0.8s0.3-2.2-1.1-2.6
		c-1.4-0.4-1.5,2.1-1.5,2.1S46.4,22.3,44.5,23.3z"/>
	<path class="st44" d="M35,64.4c-1.8,1.7-1.6,6.5,0.1,7.6c1.6,1.1,32-0.6,33.2-2.3c1.1-1.7,0.7-6.1-1-7.4C65.6,61,36,63.4,35,64.4z"
		/>
	<g>
		<path class="st5" d="M49.3,31.6c0.1,0.2,0.3,0.3,0.5,0.4C49.6,31.9,49.5,31.7,49.3,31.6z"/>
		<path class="st5" d="M46.1,25.6c0.4,0,0.7,0.3,0.9,0.7c0.1,0.2,0.2,0.5,0.4,0.6c0.3,0.2,0.6,0.1,0.9-0.1c0.4-0.3,0.8-0.7,1.3-0.7
			c0.4,0,0.7,0.4,0.8,0.7c0.3,0.4,0.5,1,1,1.1c0.1,0,0.3,0,0.4,0c-0.2-0.1-0.3-0.1-0.3-0.1s0.6-0.2,1.2-0.4c0.1,0,0.1-0.1,0.2-0.1
			c0.1-0.1,0.2-0.1,0.3-0.2c0.2-0.2,0.4-0.4,0.3-0.7c0-0.1-0.1-0.2-0.1-0.2c-0.1,0.1-0.2,0.3-0.4,0.4c-0.4,0.3-0.9,0.5-1.3,0.2
			c-0.4-0.3-0.5-0.7-0.8-1c-0.4-0.3-0.9-0.4-1.4-0.3c-0.5,0.1-0.9,0.6-1.4,0.6c-0.4-0.1-0.5-0.4-0.7-0.7c-0.6-1-1.7-0.1-2.5-0.3
			c-0.4-0.1-0.5-0.4-0.6-0.8c0-0.2,0-0.5-0.2-0.6c-0.7,0.7,1.2,1.7,1.2,1.7s-1.2,0-1.8,0.4c0.2,0.2,0.5,0.3,0.8,0.3
			C45,25.9,45.5,25.5,46.1,25.6z"/>
		<path class="st5" d="M45.5,26.7c0.4,0.1,0.8,0.3,1.1,0.7c0.3,0.4,0.5,1,1.2,0.7c0.4-0.2,0.8-0.5,1.3-0.4c0.4,0.1,0.8,0.5,1.1,0.8
			c0.4,0.5,0.9,0.8,1.5,0.5c0.4-0.2,0.7-0.5,1.2-0.6c-0.1-0.1-0.2-0.1-0.3-0.2c-0.3,0.2-0.6,0.3-0.9,0.3c-0.5,0-0.7-0.3-1-0.7
			c-0.3-0.4-0.5-1.2-1.2-1.1c-0.6,0.1-0.9,0.7-1.5,0.8c-0.5,0.1-0.8-0.1-1-0.5c-0.1-0.2-0.2-0.5-0.4-0.6c-0.2-0.2-0.5-0.2-0.8-0.2
			c-0.6,0.1-1.1,0.5-1.7,0.3c-0.3-0.1-0.6-0.3-0.8-0.5c-0.2,0.2-0.2,0.4-0.2,0.6c0.1,0.2,0.1,0.4,0.3,0.5
			C44,26.7,44.8,26.5,45.5,26.7z"/>
		<path class="st5" d="M45.9,24.3c0.4-0.1,1-0.2,1.3,0.1c0.3,0.3,0.4,0.8,0.7,1c0.3,0.1,0.7-0.2,0.9-0.3c0.2-0.1,0.4-0.2,0.6-0.2
			c0.5-0.1,0.9,0,1.3,0.3c0.3,0.2,0.4,0.4,0.6,0.7c0.4-0.2,1.1-0.7,1.2-1.2c-0.1,0-0.3-0.1-0.4-0.2c-0.3-0.2-0.5-0.5-0.7-0.7
			c-0.7,0.1-1.3,1-1.3,1s0.1-0.5,0-1.1c-0.1,0.1-0.3,0.2-0.4,0.3c-0.3,0.2-0.7,0.2-1,0c-0.2-0.2-0.3-0.4-0.6-0.5
			c-0.1-0.1-0.3-0.1-0.5-0.1c-0.2,0.5-0.2,1.1-0.2,1.1s-0.4-0.6-1-1c-0.3,0-0.5,0-0.7-0.2c0,0,0,0,0,0c-0.4-0.1-0.9,0-1.4,0.2
			c0,0-0.1,0-0.1,0.1c0.1,0.3,0.1,0.6,0.2,0.9C44.9,24.6,45.6,24.4,45.9,24.3z"/>
		<path class="st5" d="M51.7,26.2c0.5,0.4,0.9,0.1,1.3-0.3c-0.5-0.2-1.2-0.1-1.5,0C51.6,26,51.6,26.1,51.7,26.2z"/>
		<path class="st5" d="M52.4,24C52.4,24,52.3,24,52.4,24c-0.1-0.1-0.2-0.2-0.3-0.2C52.2,23.9,52.3,23.9,52.4,24z"/>
		<path class="st5" d="M49,23.4c0.4,0.1,0.7-0.1,1-0.3c0,0,0,0,0.1,0c-0.2-0.4-0.5-0.8-1-0.9c-0.6-0.2-0.9,0.1-1.1,0.5
			c0.1,0,0.2,0.1,0.3,0.1C48.5,22.9,48.7,23.3,49,23.4z"/>
		<path class="st5" d="M50.6,31.9c0.4-0.3,0.5-0.8,0.5-1.3c-0.5,0.2-0.9,0.6-1.4,0.3c-0.4-0.2-0.5-0.6-0.8-0.9
			c-0.4-0.4-0.8-0.4-1.3-0.3c-0.4,0.1-0.9,0.3-1.3,0.2c-0.5-0.1-0.7-0.6-0.9-0.9c-0.3-0.4-0.6-0.7-1.1-0.8c-0.3,0.4-0.6,0.9-0.6,1.4
			c0.5-0.1,1,0.1,1.3,0.4c0.1,0.1,0.2,0.2,0.3,0.4c0.4-0.1,0.7-0.3,0.7-0.3s-0.3,0.4-0.3,0.9c0.1,0.2,0.3,0.3,0.5,0.4
			c0.6,0.3,1-0.3,1.5-0.6c0.4-0.2,0.7-0.2,1-0.1c0.1-0.2,0.1-0.3,0.1-0.3s0.1,0.2,0.2,0.4c0.6,0.3,1.1,0.9,1.7,1.1
			C50.5,31.9,50.6,31.9,50.6,31.9z"/>
		<path class="st5" d="M45.1,28.2c0.3,0.4,0.4,0.9,0.9,1.1c0.4,0.2,1,0,1.4-0.1c0.4-0.1,0.9-0.2,1.3,0.1c0.3,0.2,0.5,0.6,0.8,0.9
			c0.5,0.5,1,0.1,1.6-0.2c0-0.2-0.1-0.4-0.1-0.5c-0.1,0-0.2,0-0.3-0.1c-0.4-0.2-0.7-0.6-1-0.9c-0.4-0.4-0.9-0.6-1.4-0.3
			c-0.3,0.2-0.6,0.4-1,0.3c-0.4-0.1-0.6-0.6-0.8-0.9c-0.3-0.4-0.8-0.6-1.3-0.7c-0.5-0.1-1,0-1.5,0.2c0.5,0.3,1,0.3,1,0.3
			s-0.1,0.1-0.2,0.2C44.7,27.8,45,27.9,45.1,28.2z"/>
		<path class="st5" d="M47.3,31.5c-0.3,0.2-0.7,0.5-1.1,0.3c-0.2-0.1-0.4-0.2-0.5-0.4c0.1,0.3,0.3,0.6,0.9,0.7c1,0.1,1.5-0.5,1.8-1
			C48,31,47.6,31.3,47.3,31.5z"/>
		<path class="st5" d="M43.9,29.9c-0.1,0-0.1,0-0.2,0c0,0.1,0.1,0.1,0.1,0.2c0.3,0.3,0.7,0.4,1,0.3C44.6,30.1,44.3,29.9,43.9,29.9z"
			/>
		<path class="st5" d="M51.8,29.4c-0.2,0.1-0.4,0.2-0.7,0.2c0.1,0.1,0.2,0.2,0.4,0.3c0.2,0,0.3-0.1,0.5,0c0.2,0,0.4,0.2,0.5,0.3
			c0.2-0.1,0.4-0.2,0.6-0.5c0.2-0.3,0.2-0.6,0.1-0.8C52.7,28.7,52.2,29.1,51.8,29.4z"/>
		<path class="st44" d="M45.3,28.9c0.2,0.4,0.4,0.8,0.9,0.9c0.4,0.1,0.9-0.1,1.3-0.2c0.5-0.1,1-0.1,1.3,0.3c0.3,0.3,0.5,0.7,0.8,0.9
			c0.5,0.3,1,0,1.4-0.3c0-0.2,0-0.4,0-0.5c-0.5,0.3-1,0.7-1.6,0.2c-0.3-0.3-0.5-0.7-0.8-0.9c-0.4-0.3-0.8-0.2-1.3-0.1
			c-0.4,0.1-1,0.3-1.4,0.1c-0.4-0.2-0.6-0.8-0.9-1.1c-0.2-0.2-0.4-0.4-0.6-0.4c-0.1,0.1-0.2,0.2-0.3,0.4
			C44.7,28.2,45,28.5,45.3,28.9z"/>
		<path class="st44" d="M51.9,29.8c-0.2,0-0.3,0-0.5,0c0.3,0.2,0.7,0.4,1,0.3C52.3,30,52.2,29.9,51.9,29.8z"/>
		<path class="st44" d="M45.2,27.1c0.5,0.1,1,0.3,1.3,0.7c0.2,0.3,0.4,0.8,0.8,0.9c0.4,0.1,0.7-0.2,1-0.3c0.5-0.3,1-0.1,1.4,0.3
			c0.3,0.3,0.6,0.7,1,0.9c0.1,0,0.2,0.1,0.3,0.1c0-0.1,0-0.1,0-0.1s0,0.1,0.1,0.1c0.2,0,0.5-0.1,0.7-0.2c0.4-0.2,0.9-0.7,1.4-0.5
			c-0.1-0.2-0.3-0.4-0.5-0.6c-0.4,0.1-0.8,0.4-1.2,0.6c-0.6,0.3-1.1,0-1.5-0.5c-0.3-0.3-0.6-0.7-1.1-0.8c-0.5-0.1-0.8,0.2-1.3,0.4
			c-0.7,0.3-0.8-0.2-1.2-0.7c-0.3-0.3-0.7-0.6-1.1-0.7c-0.7-0.2-1.4,0-2.1,0.3c0.1,0.1,0.2,0.2,0.3,0.3C44.2,27.1,44.7,27,45.2,27.1
			z"/>
		<path class="st44" d="M50.4,32c0.1,0,0.2-0.1,0.2-0.1c0,0-0.1,0-0.1,0c-0.6-0.2-1.1-0.8-1.7-1.1c0.1,0.3,0.3,0.6,0.5,0.9
			c0.2,0.1,0.3,0.3,0.5,0.4C50,32.1,50.2,32.1,50.4,32z"/>
		<path class="st44" d="M43.6,29.5c0,0.1,0,0.3,0.1,0.4c0.1,0,0.1,0,0.2,0c0.4,0,0.7,0.2,1,0.5c0.1,0,0.2,0,0.4-0.1
			c-0.1-0.1-0.2-0.3-0.3-0.4C44.6,29.6,44.1,29.4,43.6,29.5z"/>
		<path class="st44" d="M47.6,30.7c-0.5,0.3-0.9,0.8-1.5,0.6c-0.2-0.1-0.4-0.2-0.5-0.4c0,0.2,0,0.4,0,0.5c0.2,0.2,0.3,0.3,0.5,0.4
			c0.4,0.2,0.8-0.1,1.1-0.3c0.4-0.3,0.7-0.5,1.1-0.4c0.1-0.2,0.2-0.3,0.2-0.5C48.3,30.5,47.9,30.5,47.6,30.7z"/>
		<path class="st44" d="M52.8,27.3c0.2-0.1,0.4-0.2,0.5-0.3c-0.1,0.1-0.2,0.1-0.3,0.2C52.9,27.3,52.8,27.3,52.8,27.3z"/>
		<path class="st44" d="M44.1,26.4c0.6,0.1,1.1-0.2,1.7-0.3c0.3,0,0.6,0,0.8,0.2c0.2,0.2,0.3,0.4,0.4,0.6c0.2,0.4,0.5,0.6,1,0.5
			c0.5-0.2,0.9-0.7,1.5-0.8c0.6-0.1,0.9,0.7,1.2,1.1c0.2,0.4,0.5,0.7,1,0.7c0.3,0,0.6-0.1,0.9-0.3c-0.2-0.1-0.4-0.2-0.6-0.3
			c-0.1,0-0.3,0-0.4,0c-0.6-0.1-0.8-0.7-1-1.1c-0.2-0.3-0.5-0.6-0.8-0.7c-0.5-0.1-0.9,0.4-1.3,0.7c-0.3,0.2-0.6,0.3-0.9,0.1
			c-0.2-0.1-0.3-0.4-0.4-0.6c-0.2-0.4-0.4-0.6-0.9-0.7c-0.6-0.1-1.1,0.4-1.7,0.4c-0.3,0-0.6-0.1-0.8-0.3c-0.1,0.1-0.2,0.1-0.3,0.2
			C43.5,26.1,43.8,26.3,44.1,26.4z"/>
		<path class="st44" d="M44.3,24.1c0.1,0.4,0.2,0.7,0.6,0.8c0.9,0.3,2-0.7,2.5,0.3c0.2,0.3,0.3,0.7,0.7,0.7c0.5,0.1,0.9-0.5,1.4-0.6
			c0.5-0.1,1,0,1.4,0.3c0.3,0.3,0.5,0.7,0.8,1c0.4,0.3,0.9,0.1,1.3-0.2c0.1-0.1,0.2-0.3,0.4-0.4C53.3,26,53.2,26,53,25.9
			c-0.4,0.4-0.8,0.7-1.3,0.3c-0.1-0.1-0.2-0.2-0.3-0.3c-0.2,0-0.3,0-0.3,0s0.1,0,0.2-0.1c-0.2-0.2-0.3-0.5-0.6-0.7
			c-0.4-0.3-0.9-0.4-1.3-0.3c-0.2,0-0.4,0.1-0.6,0.2c-0.3,0.2-0.6,0.4-0.9,0.3c-0.4-0.1-0.4-0.7-0.7-1c-0.4-0.3-0.9-0.2-1.3-0.1
			c-0.4,0.1-1.1,0.3-1.3-0.1c-0.2-0.2-0.1-0.6-0.2-0.9c-0.1,0.1-0.2,0.1-0.2,0.2C44.3,23.6,44.3,23.9,44.3,24.1z"/>
		<path class="st44" d="M52.2,24.4c0.1,0.1,0.3,0.2,0.4,0.2c0-0.2,0-0.4-0.2-0.6c-0.1-0.1-0.2-0.1-0.3-0.2c-0.2-0.1-0.4-0.1-0.6-0.1
			C51.7,23.9,51.9,24.2,52.2,24.4z"/>
		<path class="st44" d="M46.6,23.3c-0.2-0.1-0.5-0.2-0.7-0.3c0,0,0,0,0,0C46.1,23.3,46.3,23.3,46.6,23.3z"/>
		<path class="st44" d="M48.8,23.8c0.3,0.3,0.7,0.2,1,0c0.1-0.1,0.3-0.2,0.4-0.3c0-0.2-0.1-0.3-0.1-0.5c0,0,0,0-0.1,0
			c-0.3,0.2-0.6,0.5-1,0.3c-0.3-0.1-0.5-0.5-0.8-0.7c-0.1-0.1-0.2-0.1-0.3-0.1c-0.1,0.2-0.1,0.3-0.2,0.5c0.2,0,0.3,0,0.5,0.1
			C48.4,23.4,48.6,23.6,48.8,23.8z"/>
	</g>
	<g>
		<path class="st5" d="M60.2,66.9c0-1.1,0-2.2-0.2-3.3C60,63,60,62.5,59.9,62c-0.6,0-1.2,0-1.8,0.1c0.4,1.6,0.5,3.3,0.6,4.9
			c0.1,1.3,0.2,2.6,0.2,3.8c0,0.2,0,0.3,0,0.5c0.5,0,1-0.1,1.4-0.1c0-0.3,0-0.6,0-1C60.3,69.1,60.3,68,60.2,66.9z"/>
		<path class="st5" d="M48.4,64.4c0-0.6-0.1-1.2-0.1-1.7c-0.4,0-0.9,0.1-1.3,0.1c0,0.6,0,1.1,0.1,1.7c0.1,1.1,0.2,2.3,0.3,3.4
			c0.1,1.2,0.2,2.3,0.4,3.4c0,0.3,0.1,0.5,0.1,0.8c0.4,0,0.8,0,1.2-0.1c-0.1-1.3-0.2-2.6-0.3-3.8C48.6,66.9,48.5,65.7,48.4,64.4z"/>
		<path class="st5" d="M65.2,66.5c-0.1-1.5-0.2-3.1-0.6-4.6c-0.5,0-1,0-1.6,0c0.4,1.5,0.6,3.1,0.8,4.6c0.1,1.1,0.2,2.2,0.2,3.4
			c0,0.3,0,0.6,0,0.8c0.4-0.1,0.8-0.1,1.2-0.2c0-0.3,0-0.5,0-0.8C65.3,68.7,65.2,67.6,65.2,66.5z"/>
		<path class="st5" d="M50.2,67.9c-0.1-1.8-0.3-3.6-0.2-5.4c-0.5,0-1,0.1-1.5,0.1c0,0.6,0.1,1.3,0.1,1.9c0.1,1.2,0.2,2.4,0.3,3.5
			c0.1,1.3,0.3,2.6,0.4,3.9c0.4,0,0.9,0,1.3-0.1c0-0.2,0-0.4-0.1-0.5C50.4,70.2,50.3,69.1,50.2,67.9z"/>
		<path class="st5" d="M52.1,68c-0.1-1.2-0.2-2.3-0.3-3.5c-0.1-0.7-0.1-1.4-0.2-2.1c-0.5,0-0.9,0.1-1.4,0.1c0,1.8,0.1,3.5,0.2,5.3
			c0.1,1.2,0.2,2.3,0.4,3.5c0,0.2,0.1,0.4,0.1,0.6c0.5,0,1.1-0.1,1.6-0.1c0-0.2,0-0.3,0-0.5C52.4,70.2,52.3,69.1,52.1,68z"/>
		<path class="st5" d="M56.8,67.4c-0.1-1.1-0.2-2.3-0.4-3.4c-0.1-0.6-0.2-1.2-0.3-1.9c-0.4,0-0.8,0-1.2,0.1c0.1,0.5,0.2,1,0.2,1.5
			c0.2,1.2,0.3,2.4,0.4,3.6c0.1,1.3,0.2,2.5,0.3,3.8c0,0.1,0,0.3,0,0.4c0.4,0,0.7-0.1,1.1-0.1c0-0.2,0-0.5,0-0.7
			C56.9,69.6,56.9,68.5,56.8,67.4z"/>
		<path class="st5" d="M62,66.5c-0.1-1.5-0.4-3.1-0.7-4.6c-0.4,0-0.8,0-1.2,0c0.1,0.4,0.2,0.9,0.2,1.3c0.1,1.1,0.2,2.2,0.2,3.3
			c0,1.2,0.1,2.4,0.1,3.5c0,0.3,0,0.7,0,1c0.5-0.1,1.1-0.1,1.6-0.2c0-0.4,0-0.9,0-1.3C62.2,68.6,62.1,67.5,62,66.5z"/>
		<path class="st5" d="M58.4,67.2c-0.1-1.7-0.2-3.4-0.6-5.1c-0.5,0-1,0-1.5,0.1c0.1,0.6,0.2,1.2,0.3,1.8c0.2,1.1,0.3,2.2,0.4,3.4
			c0.1,1.2,0.1,2.3,0.1,3.5c0,0.2,0,0.5,0,0.7c0.5,0,1-0.1,1.5-0.1c0-0.2,0-0.4,0-0.6C58.6,69.5,58.5,68.3,58.4,67.2z"/>
		<path class="st5" d="M47.1,67.8c-0.1-1.2-0.2-2.4-0.3-3.5c0-0.5-0.1-1-0.1-1.5c-0.5,0-1,0.1-1.4,0.1c0.1,1.7,0.2,3.4,0.4,5.2
			c0.1,1.2,0.3,2.4,0.5,3.5c0,0.2,0.1,0.3,0.1,0.5c0.4,0,0.9,0,1.3-0.1c0-0.2-0.1-0.5-0.1-0.7C47.4,70.2,47.2,69,47.1,67.8z"/>
		<path class="st5" d="M55.3,67.7c-0.1-1.2-0.2-2.4-0.3-3.6c-0.1-0.6-0.1-1.1-0.2-1.7c0-0.1,0-0.2-0.1-0.3c-0.4,0-0.8,0-1.2,0.1
			c0,0.6,0.1,1.3,0.1,1.9c0.1,1.2,0.2,2.3,0.3,3.5c0.1,1.2,0.2,2.3,0.3,3.5c0,0.1,0,0.3,0,0.4c0.4,0,0.9-0.1,1.3-0.1
			c0-0.1,0-0.2,0-0.4C55.4,70.1,55.4,68.9,55.3,67.7z"/>
		<path class="st5" d="M53.6,67.8c-0.1-1.2-0.2-2.3-0.3-3.5c0-0.6-0.1-1.3-0.1-1.9c-0.5,0-1,0.1-1.5,0.1c0.1,0.7,0.1,1.3,0.2,2
			c0.1,1.2,0.3,2.3,0.4,3.5c0.1,1.2,0.2,2.3,0.4,3.5c0,0.2,0,0.3,0,0.5c0.4,0,0.8-0.1,1.2-0.1c0-0.1,0-0.3,0-0.4
			C53.8,70.1,53.7,68.9,53.6,67.8z"/>
		<path class="st5" d="M63.5,66.5c-0.2-1.6-0.4-3.1-0.8-4.6c-0.4,0-0.8,0-1.2,0c0.4,1.5,0.6,3,0.7,4.6c0.1,1.1,0.2,2.2,0.2,3.3
			c0,0.4,0,0.7,0,1.1c0.4-0.1,0.9-0.1,1.3-0.2c0-0.4,0-0.8,0-1.1C63.7,68.6,63.6,67.6,63.5,66.5z"/>
		<path class="st5" d="M38.7,68.6c-0.1-1.1-0.1-2.2-0.1-3.3c0-0.5,0-1.1,0.1-1.7c-0.5,0.1-0.9,0.1-1.3,0.2c-0.1,1.8-0.1,3.5,0.2,5.3
			c0.2,1.1,0.4,2.1,0.7,3.2c0.3,0,0.6,0,1,0c0-0.1-0.1-0.3-0.1-0.4C38.9,70.8,38.8,69.7,38.7,68.6z"/>
		<path class="st5" d="M40,68.6c-0.2-1.7-0.3-3.4-0.2-5.1c-0.3,0-0.6,0.1-0.9,0.1c-0.1,0.6-0.1,1.2-0.1,1.8c0,1.1,0,2.1,0.1,3.2
			c0.1,1.1,0.3,2.1,0.5,3.2c0,0.2,0.1,0.3,0.1,0.5c0.3,0,0.7,0,1.1,0c0-0.1,0-0.2-0.1-0.3C40.3,70.9,40.1,69.7,40,68.6z"/>
		<path class="st5" d="M67.8,65.8c-0.1-1-0.2-2-0.4-2.9c0-0.2-0.1-0.4-0.1-0.6c0,0,0,0,0,0c-0.2-0.1-0.6-0.2-1.2-0.3
			c0.1,0.4,0.2,0.8,0.3,1.2c0.2,1.1,0.4,2.1,0.5,3.2c0.1,1.1,0.1,2.2,0.1,3.3c0,0.2,0,0.3,0,0.5c0.4-0.1,0.7-0.2,1-0.3
			c0-0.4,0-0.8,0-1.2C67.9,67.7,67.9,66.8,67.8,65.8z"/>
		<path class="st5" d="M67.5,62.6c0,0.1,0,0.2,0.1,0.3c0.2,1,0.3,1.9,0.5,2.9c0.1,1,0.2,2,0.2,3c0,0.3,0,0.6,0,0.9c0,0,0,0,0,0
			C69.3,68.1,68.9,64.1,67.5,62.6z"/>
		<path class="st5" d="M34.5,68.6c-0.1-1,0-2,0.2-3c0.1-0.4,0.1-0.7,0.2-1.1c-1.6,1.8-1.4,6.4,0.2,7.4c0,0,0,0,0,0
			c0-0.1-0.1-0.2-0.1-0.4C34.7,70.6,34.5,69.6,34.5,68.6z"/>
		<path class="st5" d="M35.8,64.1c-0.3,0.1-0.5,0.1-0.6,0.2c-0.1,0.5-0.3,1-0.4,1.6c-0.1,1-0.2,1.9-0.1,2.9c0.1,1,0.3,1.9,0.5,2.8
			c0.1,0.2,0.1,0.4,0.2,0.5c0.2,0,0.6,0.1,0.9,0.1c-0.3-1.1-0.5-2.2-0.7-3.3C35.5,67.4,35.5,65.7,35.8,64.1z"/>
		<path class="st5" d="M37.1,63.9c-0.4,0.1-0.7,0.1-1,0.2c-0.2,1.6-0.3,3.2-0.1,4.9c0.1,1.1,0.4,2.2,0.8,3.3c0.4,0,0.8,0,1.2,0
			c-0.3-1.1-0.6-2.2-0.7-3.3C37,67.3,36.9,65.6,37.1,63.9z"/>
		<path class="st5" d="M66.6,66.6c-0.1-1.1-0.2-2.1-0.5-3.2c-0.1-0.5-0.2-1-0.3-1.5c-0.3,0-0.6,0-1-0.1c0.1,0.3,0.2,0.6,0.2,0.9
			c0.2,1.1,0.3,2.2,0.4,3.3c0.1,1.2,0.1,2.3,0.1,3.5c0,0.3,0,0.6,0,0.9c0.4-0.1,0.8-0.1,1.1-0.2c0-0.2,0-0.3,0-0.5
			C66.7,68.7,66.7,67.7,66.6,66.6z"/>
		<path class="st5" d="M43.9,68.6c-0.1-1.2-0.2-2.4-0.3-3.7c0-0.6-0.1-1.2-0.1-1.9c-0.4,0-0.8,0.1-1.2,0.1c0.1,1.8,0.2,3.5,0.4,5.2
			c0.1,1.2,0.3,2.4,0.5,3.5c0,0.1,0,0.2,0,0.2c0.4,0,0.8,0,1.2,0c0,0,0-0.1,0-0.1C44.2,71,44.1,69.8,43.9,68.6z"/>
		<path class="st5" d="M42.6,68.6c-0.2-1.8-0.4-3.6-0.4-5.4c-0.3,0-0.6,0.1-0.8,0.1c0,0.6,0,1.2,0,1.8c0,1.1,0.1,2.1,0.2,3.2
			c0.1,1.1,0.3,2.1,0.5,3.2c0.1,0.3,0.1,0.5,0.2,0.8c0.3,0,0.6,0,0.8,0c0,0,0-0.1,0-0.1C42.9,71,42.7,69.8,42.6,68.6z"/>
		<path class="st5" d="M41.3,68.3c-0.1-1.1-0.2-2.3-0.2-3.4c0-0.5,0-1,0-1.5c-0.4,0-0.7,0.1-1.1,0.1c0,0.6,0,1.2,0,1.9
			c0,1.1,0.1,2.2,0.2,3.3c0.1,1.1,0.3,2.2,0.5,3.4c0,0.1,0,0.2,0.1,0.3c0.4,0,0.7,0,1.1,0c-0.1-0.2-0.1-0.5-0.2-0.7
			C41.6,70.5,41.4,69.4,41.3,68.3z"/>
		<path class="st5" d="M45.5,68.2c-0.2-1.7-0.3-3.5-0.3-5.2c-0.5,0-1,0.1-1.4,0.1c0,0.6,0,1.3,0,1.9c0.1,1.2,0.2,2.3,0.3,3.5
			c0.1,1.2,0.3,2.4,0.6,3.7c0,0,0,0.1,0,0.1c0.4,0,0.9,0,1.3-0.1c0-0.2-0.1-0.4-0.1-0.5C45.8,70.5,45.6,69.3,45.5,68.2z"/>
		<path class="st43" d="M34.7,68.7c-0.1-1,0-1.9,0.1-2.9c0.1-0.5,0.2-1.1,0.4-1.6c-0.1,0-0.2,0.1-0.2,0.1c0,0-0.1,0.1-0.1,0.1
			c-0.1,0.4-0.2,0.8-0.2,1.1c-0.2,1-0.2,2-0.2,3c0.1,1,0.2,2,0.5,3c0,0.1,0.1,0.2,0.1,0.4c0.1,0,0.2,0.1,0.4,0.1
			c-0.1-0.2-0.1-0.4-0.2-0.5C35,70.6,34.8,69.7,34.7,68.7z"/>
		<path class="st43" d="M36.1,64c-0.1,0-0.2,0-0.3,0.1c-0.3,1.6-0.3,3.3-0.1,4.8c0.1,1.1,0.4,2.2,0.7,3.3c0.1,0,0.2,0,0.3,0
			c-0.4-1.1-0.6-2.2-0.8-3.3C35.8,67.3,35.9,65.7,36.1,64z"/>
		<path class="st43" d="M37.3,63.8c-0.1,0-0.2,0-0.3,0c-0.2,1.7,0,3.5,0.2,5.2c0.2,1.1,0.4,2.2,0.7,3.3c0.1,0,0.2,0,0.3,0
			c-0.3-1-0.6-2.1-0.7-3.2C37.2,67.4,37.2,65.6,37.3,63.8z"/>
		<path class="st43" d="M38.9,68.6c-0.1-1.1-0.1-2.1-0.1-3.2c0-0.6,0.1-1.2,0.1-1.8c-0.1,0-0.2,0-0.3,0c0,0.6-0.1,1.1-0.1,1.7
			c0,1.1,0,2.2,0.1,3.3c0.1,1.1,0.3,2.2,0.5,3.2c0,0.1,0.1,0.3,0.1,0.4c0.1,0,0.2,0,0.3,0c0-0.2-0.1-0.3-0.1-0.5
			C39.2,70.7,39,69.7,38.9,68.6z"/>
		<path class="st43" d="M40.3,68.6c-0.1-1.1-0.2-2.2-0.2-3.3c0-0.6,0-1.2,0-1.9c-0.1,0-0.2,0-0.2,0c-0.1,1.7,0.1,3.4,0.2,5.1
			c0.1,1.1,0.3,2.2,0.5,3.4c0,0.1,0,0.2,0.1,0.3c0.1,0,0.2,0,0.3,0c0-0.1,0-0.2-0.1-0.3C40.6,70.8,40.4,69.7,40.3,68.6z"/>
		<path class="st43" d="M41.5,68.3c-0.1-1-0.2-2.1-0.2-3.2c0-0.6,0-1.2,0-1.8c-0.1,0-0.2,0-0.2,0c0,0.5,0,1,0,1.5
			c0,1.2,0.1,2.3,0.2,3.4c0.1,1.1,0.3,2.2,0.5,3.3c0,0.2,0.1,0.5,0.2,0.7c0.1,0,0.2,0,0.3,0c-0.1-0.3-0.1-0.5-0.2-0.8
			C41.8,70.5,41.6,69.4,41.5,68.3z"/>
		<path class="st43" d="M42.7,68.5c-0.2-1.7-0.3-3.5-0.4-5.2c-0.1,0-0.1,0-0.2,0c0,1.8,0.2,3.6,0.4,5.4c0.1,1.2,0.3,2.3,0.5,3.5
			c0,0,0,0.1,0,0.1c0.1,0,0.1,0,0.2,0c0-0.1,0-0.2,0-0.2C43,70.8,42.9,69.6,42.7,68.5z"/>
		<path class="st43" d="M44.1,68.4c-0.1-1.1-0.2-2.3-0.3-3.5c0-0.6,0-1.3,0-1.9c-0.1,0-0.1,0-0.2,0c0,0.6,0,1.3,0.1,1.9
			c0.1,1.2,0.2,2.5,0.3,3.7c0.1,1.2,0.3,2.3,0.5,3.5c0,0,0,0.1,0,0.1c0.1,0,0.2,0,0.2,0c0,0,0-0.1,0-0.1
			C44.4,70.9,44.3,69.6,44.1,68.4z"/>
		<path class="st43" d="M45.7,68.1c-0.2-1.7-0.3-3.4-0.4-5.2c-0.1,0-0.1,0-0.2,0c0,1.7,0.2,3.5,0.3,5.2c0.1,1.2,0.3,2.3,0.4,3.4
			c0,0.2,0.1,0.4,0.1,0.5c0.1,0,0.1,0,0.2,0c0-0.2-0.1-0.3-0.1-0.5C46,70.4,45.8,69.3,45.7,68.1z"/>
		<path class="st43" d="M47.3,67.8c-0.1-1.1-0.2-2.3-0.3-3.4c0-0.5-0.1-1.1-0.1-1.7c-0.1,0-0.1,0-0.2,0c0,0.5,0.1,1,0.1,1.5
			c0.1,1.2,0.2,2.4,0.3,3.5c0.1,1.2,0.2,2.3,0.4,3.5c0,0.2,0.1,0.5,0.1,0.7c0.1,0,0.2,0,0.2,0c0-0.3-0.1-0.5-0.1-0.8
			C47.6,70.1,47.4,69,47.3,67.8z"/>
		<path class="st43" d="M48.6,64.6c0-0.6-0.1-1.3-0.1-1.9c-0.1,0-0.1,0-0.2,0c0,0.6,0.1,1.2,0.1,1.7c0.1,1.3,0.2,2.5,0.2,3.7
			c0.1,1.3,0.2,2.6,0.3,3.8c0.1,0,0.2,0,0.3,0c-0.2-1.3-0.3-2.6-0.4-3.9C48.8,66.9,48.7,65.7,48.6,64.6z"/>
		<path class="st43" d="M50.4,67.8c-0.1-1.8-0.2-3.5-0.2-5.3c-0.1,0-0.1,0-0.2,0c0,1.8,0.1,3.6,0.2,5.4c0.1,1.2,0.2,2.3,0.4,3.5
			c0,0.2,0,0.4,0.1,0.5c0.1,0,0.2,0,0.3,0c0-0.2-0.1-0.4-0.1-0.6C50.6,70.1,50.5,69,50.4,67.8z"/>
		<path class="st43" d="M52.4,67.9c-0.1-1.2-0.3-2.3-0.4-3.5c-0.1-0.7-0.1-1.3-0.2-2c-0.1,0-0.1,0-0.2,0c0.1,0.7,0.1,1.4,0.2,2.1
			c0.1,1.2,0.2,2.3,0.3,3.5c0.1,1.1,0.2,2.3,0.3,3.4c0,0.2,0,0.3,0,0.5c0.1,0,0.2,0,0.3,0c0-0.2,0-0.3,0-0.5
			C52.6,70.2,52.5,69,52.4,67.9z"/>
		<path class="st43" d="M53.8,67.7c-0.1-1.2-0.2-2.3-0.3-3.5c0-0.6-0.1-1.3-0.1-1.9c-0.1,0-0.1,0-0.2,0c0,0.6,0.1,1.3,0.1,1.9
			c0.1,1.2,0.2,2.3,0.3,3.5c0.1,1.2,0.2,2.3,0.3,3.5c0,0.1,0,0.3,0,0.4c0.1,0,0.2,0,0.2,0c0-0.1,0-0.3,0-0.4
			C54.1,70.1,54,68.9,53.8,67.7z"/>
		<path class="st43" d="M55.5,67.3c-0.1-1.2-0.2-2.4-0.4-3.6c-0.1-0.5-0.1-1-0.2-1.5c-0.1,0-0.1,0-0.2,0c0,0.1,0,0.2,0.1,0.3
			c0.1,0.6,0.2,1.1,0.2,1.7c0.1,1.2,0.2,2.4,0.3,3.6c0.1,1.2,0.2,2.3,0.2,3.5c0,0.1,0,0.2,0,0.4c0.1,0,0.2,0,0.3,0
			c0-0.1,0-0.3,0-0.4C55.7,69.9,55.6,68.6,55.5,67.3z"/>
		<path class="st43" d="M57,67.3c-0.1-1.1-0.2-2.2-0.4-3.4c-0.1-0.6-0.2-1.2-0.3-1.8c-0.1,0-0.1,0-0.2,0c0.1,0.6,0.2,1.2,0.3,1.9
			c0.2,1.1,0.3,2.3,0.4,3.4c0.1,1.1,0.1,2.3,0.1,3.4c0,0.2,0,0.5,0,0.7c0.1,0,0.2,0,0.3,0c0-0.2,0-0.5,0-0.7
			C57.1,69.6,57.1,68.4,57,67.3z"/>
		<path class="st43" d="M58.7,67c-0.1-1.6-0.2-3.3-0.6-4.9c-0.1,0-0.2,0-0.2,0c0.4,1.7,0.5,3.4,0.6,5.1c0.1,1.2,0.1,2.4,0.2,3.5
			c0,0.2,0,0.4,0,0.6c0.1,0,0.2,0,0.3,0c0-0.2,0-0.3,0-0.5C58.8,69.5,58.8,68.3,58.7,67z"/>
		<path class="st43" d="M60.5,66.6c0-1.1-0.1-2.2-0.2-3.3c-0.1-0.4-0.1-0.9-0.2-1.3c-0.1,0-0.1,0-0.2,0c0.1,0.5,0.2,1.1,0.2,1.6
			c0.1,1.1,0.1,2.2,0.2,3.3c0,1.1,0,2.2,0.1,3.3c0,0.3,0,0.6,0,1c0.1,0,0.2,0,0.3,0c0-0.3,0-0.7,0-1C60.6,68.9,60.5,67.8,60.5,66.6z
			"/>
		<path class="st43" d="M62.3,66.5c-0.2-1.5-0.4-3.1-0.7-4.6c-0.1,0-0.2,0-0.2,0c0.3,1.5,0.6,3,0.7,4.6c0.1,1,0.2,2.1,0.2,3.1
			c0,0.4,0,0.9,0,1.3c0.1,0,0.2,0,0.3,0c0-0.4,0-0.7,0-1.1C62.5,68.7,62.4,67.6,62.3,66.5z"/>
		<path class="st43" d="M63.7,66.5c-0.2-1.5-0.4-3.1-0.8-4.6c-0.1,0-0.1,0-0.2,0c0.3,1.5,0.6,3.1,0.8,4.6c0.1,1,0.2,2,0.2,3.1
			c0,0.4,0,0.8,0,1.1c0.1,0,0.2,0,0.3,0c0-0.3,0-0.6,0-0.8C63.9,68.8,63.9,67.7,63.7,66.5z"/>
		<path class="st43" d="M65.4,66.1c-0.1-1.1-0.2-2.2-0.4-3.3c-0.1-0.3-0.1-0.6-0.2-0.9c-0.1,0-0.1,0-0.2,0c0.4,1.5,0.5,3,0.6,4.6
			c0.1,1.1,0.1,2.2,0.1,3.3c0,0.3,0,0.5,0,0.8c0.1,0,0.2,0,0.3,0c0-0.3,0-0.6,0-0.9C65.5,68.5,65.5,67.3,65.4,66.1z"/>
		<path class="st43" d="M66.8,66.5c-0.1-1.1-0.3-2.2-0.5-3.2c-0.1-0.4-0.2-0.8-0.3-1.2c-0.1,0-0.1,0-0.2,0c0.1,0.5,0.3,1,0.3,1.5
			c0.2,1.1,0.4,2.1,0.5,3.2c0.1,1,0.1,2.1,0.1,3.1c0,0.2,0,0.3,0,0.5c0.1,0,0.2,0,0.3-0.1c0-0.2,0-0.3,0-0.5
			C67,68.7,66.9,67.6,66.8,66.5z"/>
		<path class="st43" d="M68,65.8c-0.1-1-0.3-2-0.5-2.9c0-0.1,0-0.2-0.1-0.3c-0.1-0.1-0.2-0.2-0.3-0.2c0,0.2,0.1,0.4,0.1,0.6
			c0.2,1,0.3,2,0.4,2.9c0.1,0.9,0.1,1.9,0.1,2.8c0,0.4,0,0.8,0,1.2c0.1-0.1,0.2-0.1,0.3-0.2c0-0.3,0-0.6,0-0.9
			C68.2,67.8,68.1,66.8,68,65.8z"/>
	</g>
	<g>
		<path class="st5" d="M41.2,36.3l3-3.3l1.6,3.1l2-3.3l1.9,2.8l1.6-2.9l2.6,2.4l0.8-2.9l2.7,2.6l0.3-3l2.2,0.9
			c-5.7-6.1-17.1-5.1-21.8,2l2.5-1.5L41.2,36.3z"/>
		<path class="st5" d="M40.8,39.3l3.1-3.3l2,3.3l2.3-3l2.1,2.7l1.5-3.3l3,2.7l1.1-3l2.8,2.5l0.8-3.3l3,1.4c-0.3-0.5-0.5-0.9-0.8-1.4
			l-2.8-1.4l-0.5,3.2l-2.9-2.3L54.2,37l-2.7-2.7l-1.7,3.3l-1.7-2.7l-2.3,3L44,34.7L41,38l-1.4-3.2l-2.5,1.6
			c-0.2,0.4-0.4,0.8-0.5,1.3l2.7-1.7L40.8,39.3z"/>
		<path class="st5" d="M42.6,57.3l5.3-8.5l5.9,7.3l5.6-7.8l4.8,6.9l2.5-5.1c-0.1-0.6-0.2-1.2-0.3-1.9l-2.3,4.9L59.5,46l-5.7,8.1
			l-5.9-7.6l-5.5,8.5l-5.1-8.7l-2.8,5c0,0.8,0,1.6,0,2.4l2.6-4.7L42.6,57.3z"/>
		<path class="st5" d="M64.5,57.9l-5.1-6.9l-5.7,7.8L48,51.9l-5.7,7.9l-5.1-7.5l-2.7,4.8c0.1,4.2,0.5,7.2,0.5,7.2l32.2-2.1
			c0,0,0.3-4-0.3-9.4L64.5,57.9z"/>
		<path class="st5" d="M42.7,50.8l5.2-8.1L54,51l5.6-8.3l4.6,7.3l1.7-4.2c-0.6-2.7-1.5-5.5-2.7-8.1l-3.3-2l-1.1,3.5L56,36.8
			l-1.1,3.1l-3-2.6l-1.6,3.3L48,37.8l-2.5,2.9l-2-3.3l-3,3.5l-1.7-3.5l-2.8,1.7c-0.7,2.3-1.1,4.8-1.4,7.4l2.7-4L42.7,50.8z"/>
		<path class="st43" d="M42.3,59.8l5.7-7.9l5.7,6.9l5.7-7.8l5.1,6.9l2.5-5c-0.1-0.9-0.2-1.8-0.3-2.8l-2.5,5.1l-4.8-6.9l-5.6,7.8
			l-5.9-7.3l-5.3,8.5L37,48.9l-2.6,4.7c0,1.2,0,2.4,0.1,3.5l2.7-4.8L42.3,59.8z"/>
		<path class="st43" d="M42.4,54.9l5.5-8.5l5.9,7.6l5.7-8.1l4.6,7.2l2.3-4.9c-0.1-0.8-0.3-1.7-0.5-2.6l-1.7,4.2l-4.6-7.3L54,51
			l-6.1-8.3l-5.2,8.1l-5.2-8.2l-2.7,4c-0.2,1.6-0.3,3.1-0.3,4.7l2.8-5L42.4,54.9z"/>
		<path class="st44" d="M41,38l3-3.4l1.9,3.2l2.3-3l1.7,2.7l1.7-3.3l2.7,2.7l1.1-2.8l2.9,2.3l0.5-3.2l2.8,1.4
			c-0.1-0.2-0.3-0.4-0.4-0.6c-0.4-0.5-0.7-1-1.2-1.5l-2.2-0.9l-0.3,3l-2.7-2.6l-0.8,2.9l-2.6-2.4l-1.6,2.9l-1.9-2.8l-2,3.3L44.2,33
			l-3,3.3l-0.5-3.2l-2.5,1.5c-0.3,0.4-0.5,0.8-0.7,1.2c-0.1,0.2-0.2,0.4-0.3,0.6l2.5-1.6L41,38z"/>
		<path class="st44" d="M40.6,40.9l3-3.5l2,3.3l2.5-2.9l2.2,2.7l1.6-3.3l3,2.6l1.1-3.1l2.8,2.4l1.1-3.5l3.3,2
			c-0.3-0.5-0.5-1.1-0.8-1.6l-3-1.4l-0.8,3.3l-2.8-2.5l-1.1,3l-3-2.7L50.2,39l-2.1-2.7l-2.3,3l-2-3.3l-3.1,3.3L39.3,36l-2.7,1.7
			c-0.2,0.4-0.3,0.9-0.5,1.4l2.8-1.7L40.6,40.9z"/>
	</g>
</g>
</svg>
