<?xml version="1.0" encoding="utf-8"?>
<!-- Generator: Adobe Illustrator 22.1.0, SVG Export Plug-In . SVG Version: 6.00 Build 0)  -->
<svg version="1.1" id="Layer_1" xmlns="http://www.w3.org/2000/svg" xmlns:xlink="http://www.w3.org/1999/xlink" x="0px" y="0px"
	 viewBox="0 0 100 100" style="enable-background:new 0 0 100 100;" xml:space="preserve">
<style type="text/css">
	.st0{fill:#BE1E2D;}
	.st1{fill:#00B0BB;}
	.st2{fill:#63C4AF;}
	.st3{fill:#EAEAEA;}
	.st4{fill:#413E34;}
	.st5{fill:none;}
	.st6{clip-path:url(#SVGID_2_);}
	.st7{clip-path:url(#SVGID_4_);}
	.st8{fill:#1E0D12;}
	.st9{fill:#E62F34;}
	.st10{fill:#25793D;}
	.st11{clip-path:url(#SVGID_6_);}
	.st12{clip-path:url(#SVGID_8_);}
	.st13{fill:#FFFFFF;}
	.st14{clip-path:url(#SVGID_10_);}
	.st15{clip-path:url(#SVGID_12_);}
	.st16{fill:#96BF4D;}
	.st17{clip-path:url(#SVGID_14_);}
	.st18{fill-rule:evenodd;clip-rule:evenodd;fill:#FFFFFF;}
	.st19{fill:#C92927;}
	.st20{fill:#253748;}
	.st21{clip-path:url(#SVGID_16_);}
	.st22{fill:#97CB59;}
	.st23{fill:#DA2128;}
	.st24{fill:#00A14B;}
	.st25{fill:#96171A;}
	.st26{fill:#D1E39B;}
	.st27{fill:#4FBBBB;}
	.st28{fill:#37343F;}
	.st29{fill:#077A64;}
	.st30{fill:#F4EED4;}
	.st31{fill:#012E47;}
	.st32{fill:#BE1C42;}
	.st33{fill:#008E9F;}
	.st34{fill:#CD4134;}
	.st35{clip-path:url(#SVGID_18_);}
	.st36{clip-path:url(#SVGID_20_);}
	.st37{fill:#EE2424;}
	.st38{fill:#67BC45;}
	.st39{clip-path:url(#SVGID_22_);}
	.st40{clip-path:url(#SVGID_24_);}
	.st41{fill:#004A54;}
	.st42{fill:#D93128;}
	.st43{fill:#401B23;}
	.st44{fill:#EE2D40;}
	.st45{fill:#F1EBC9;}
	.st46{fill-rule:evenodd;clip-rule:evenodd;fill:#C92927;}
	.st47{fill-rule:evenodd;clip-rule:evenodd;fill:#96BF4D;}
	.st48{fill:#BD3026;}
	.st49{opacity:0.4;fill:#CD4134;}
	.st50{fill:#E6B448;}
	.st51{fill:#E21F26;}
	.st52{fill:#A82123;}
	.st53{fill:#383A3A;}
	.st54{fill:#F17B22;}
	.st55{fill:#F1F0DC;}
	.st56{fill:#56AE78;}
	.st57{fill:#EE262E;}
	.st58{fill:#C47229;}
	.st59{fill:#FEC010;}
	.st60{fill:#C0343E;}
	.st61{fill:url(#SVGID_25_);}
	.st62{fill:#659DAA;}
	.st63{fill:#C9A784;}
	.st64{fill:#DDCFB5;}
	.st65{fill:#D2A886;}
	.st66{fill:#9B3227;}
	.st67{opacity:0.39;fill:#FFFFFF;}
	.st68{fill:#E5E5E5;}
	.st69{fill:#202945;}
	.st70{fill:none;stroke:#ACA300;stroke-miterlimit:10;}
	.st71{fill:none;stroke:#ACA300;stroke-miterlimit:10;stroke-dasharray:2.0083,2.0083;}
	.st72{fill:#ACA300;}
</style>
<rect x="0" y="0" class="st0" width="100" height="100"/>
<g>
	<defs>
		<rect id="SVGID_1_" x="140" y="0" width="100" height="100"/>
	</defs>
	<clipPath id="SVGID_2_">
		<use xlink:href="#SVGID_1_"  style="overflow:visible;"/>
	</clipPath>
	<g class="st6">
		<g>
			<defs>
				
					<rect id="SVGID_3_" x="-327.5" y="-6.7" transform="matrix(0.6711 -0.7413 0.7413 0.6711 -97.4734 168.6821)" width="937.7" height="401.9"/>
			</defs>
			<clipPath id="SVGID_4_">
				<use xlink:href="#SVGID_3_"  style="overflow:visible;"/>
			</clipPath>
			<g class="st7">
				
					<rect x="-189.1" y="-423" transform="matrix(0.6711 -0.7413 0.7413 0.6711 122.4549 55.2567)" class="st5" width="625.1" height="625.1"/>
				
					<rect x="-189.1" y="-423" transform="matrix(0.6711 -0.7413 0.7413 0.6711 122.4549 55.2567)" class="st8" width="625.1" height="625.1"/>
				<polygon class="st9" points="18.2,-2.4 18.6,5.5 26.5,5.1 				"/>
				<polygon class="st9" points="34.4,4.7 42.3,4.3 17.4,-18.2 17.8,-10.3 				"/>
				<polygon class="st9" points="50.2,3.9 58,3.5 16.7,-34 17,-26.1 				"/>
				<polygon class="st9" points="65.9,3.1 73.8,2.7 15.9,-49.7 16.3,-41.8 				"/>
				<polygon class="st9" points="81.7,2.3 89.6,1.9 15.1,-65.5 15.5,-57.6 				"/>
				<polygon class="st9" points="97.5,1.5 105.3,1.2 14.3,-81.3 14.7,-73.4 				"/>
				<polygon class="st9" points="113.2,0.8 121.1,0.4 13.5,-97 13.9,-89.1 				"/>
				<polygon class="st9" points="-96.5,-83.7 2.9,6.2 10.7,5.9 -96.8,-91.5 				"/>
				<polygon class="st9" points="-97.2,-99.4 18.6,5.5 18.2,-2.4 -89.4,-99.8 -97.2,-99.4 -97.2,-99.4 -97.2,-99.4 				"/>
				<polygon class="st10" points="-96.1,-75.8 -5,6.6 2.9,6.2 -96.5,-83.7 				"/>
				<polygon class="st10" points="10.7,5.9 18.6,5.5 -97.2,-99.4 -96.8,-91.5 				"/>
				<polygon class="st10" points="19,13.3 18.6,5.5 10.7,5.9 				"/>
				<polygon class="st10" points="19.8,29.1 19.4,21.2 2.9,6.2 -5,6.6 				"/>
				<polygon class="st10" points="20.6,44.9 20.2,37 -12.9,7 -20.8,7.4 				"/>
				<polygon class="st10" points="21.4,60.7 21,52.8 -28.7,7.8 -36.6,8.2 				"/>
				<polygon class="st10" points="22.1,76.4 21.8,68.5 -44.5,8.6 -52.3,9 				"/>
				<polygon class="st10" points="22.9,92.2 22.5,84.3 -60.2,9.4 -68.1,9.8 				"/>
				<polygon class="st10" points="23.7,108 23.3,100.1 -76,10.2 -83.9,10.6 				"/>
				<polygon class="st10" points="8.3,116.6 -91,26.7 -90.6,34.6 0.4,117 				"/>
				<polygon class="st10" points="24.1,115.8 -91.8,11 -91.4,18.8 16.2,116.2 				"/>
			</g>
			<g class="st7">
				
					<rect x="-608.6" y="40.5" transform="matrix(0.6711 -0.7413 0.7413 0.6711 -359.0773 -103.3721)" class="st5" width="625.1" height="625.1"/>
				
					<rect x="-608.6" y="40.5" transform="matrix(0.6711 -0.7413 0.7413 0.6711 -359.0773 -103.3721)" class="st8" width="625.1" height="625.1"/>
			</g>
		</g>
	</g>
</g>
<g>
	<path class="st45" d="M41.5,32c1.4-0.3,2.4-0.7,2.3-2.1c0.4,1.4,1.3,1.8,2.9,1.5c0,0,0,0,0,0c1.6-0.3,2.2-1,2.1-2.4
		c0.5,1.4,1.5,1.4,2.9,1.1l-0.8-4.2c0,0-0.5,0.1-1.1,0.2c-0.2-1.1-0.9-4.5-4.8-3.8c0,0,0,0,0,0c-4,0.8-3.4,4.2-3.1,5.3
		c-0.7,0.1-1.1,0.2-1.1,0.2L41.5,32z M45.1,23.1c2.2-0.4,3.4,0.5,3.9,3.1c-1.1,0.2-2.3,0.4-3.2,0.6l0,0c-0.8,0.2-2.1,0.4-3.2,0.6
		C42.1,24.8,42.9,23.5,45.1,23.1z"/>
	<path class="st45" d="M48.1,38.8c4.9-1,7.8-1.7,10.5-3.3c-1.1-0.4-2.2-0.8-3.4-1l0,0c-2.7-0.8-3.1-1.6-3.4-3
		c-2.4,1-3.9,1.2-4.9,1.4c0,0,0,0,0,0c-1,0.2-2.5,0.5-5.1,0.5c0.3,1.4,0.2,2.3-2,4l0,0c-1,0.6-1.9,1.4-2.8,2.2
		C40.1,40.1,43.1,39.7,48.1,38.8z"/>
	<path class="st45" d="M54.9,75.3C54.9,75.3,54.9,75.3,54.9,75.3c7.6-1.4,13.4-6.8,15.8-13.6c-4.4,2.4-9.4,4-17.3,5.5
		c-7.9,1.4-13.1,1.8-18.1,1.1C40,73.8,47.4,76.7,54.9,75.3z"/>
	<path class="st45" d="M33.6,66c5.4,1,10.6,0.8,19.5-0.8c0,0,0,0,0,0c8.8-1.7,13.8-3.4,18.4-6.3c0.5-2.5,0.5-5.2,0-7.8
		c-1.2-6.4-5.3-11.6-10.6-14.5c-3.3,2.3-6.6,3.2-12.4,4.3c-5.8,1.1-9.2,1.4-13.1,0.5c-4,4.6-5.9,10.9-4.7,17.4
		C31.2,61.4,32.2,63.8,33.6,66z M47.3,52.3l-1.8-3.4h0l3.5,1.6l-0.4-8.9l2.8,8.5l2.7-2.8l0,0l-0.4,3.8L62,48l-7.2,5.3l3.5,1.7l0,0
		l-3.8,0.8l5.6,7l-7.3-5.2l-0.5,3.8h0L50.4,58l-4.9,7.5l2.7-8.5l-3.8,0.7v0l2.6-2.8l-8.6-2.4L47.3,52.3z"/>
</g>
</svg>
