<?xml version="1.0" encoding="utf-8"?>
<!-- Generator: Adobe Illustrator 22.1.0, SVG Export Plug-In . SVG Version: 6.00 Build 0)  -->
<svg version="1.1" id="Layer_1" xmlns="http://www.w3.org/2000/svg" xmlns:xlink="http://www.w3.org/1999/xlink" x="0px" y="0px"
	 viewBox="0 0 100 100" style="enable-background:new 0 0 100 100;" xml:space="preserve">
<style type="text/css">
	.st0{fill:#BE1E2D;}
	.st1{fill:#00B0BB;}
	.st2{fill:#63C4AF;}
	.st3{fill:#EAEAEA;}
	.st4{fill:#413E34;}
	.st5{fill:none;}
	.st6{clip-path:url(#SVGID_2_);}
	.st7{clip-path:url(#SVGID_4_);}
	.st8{fill:#1E0D12;}
	.st9{fill:#E62F34;}
	.st10{fill:#25793D;}
	.st11{clip-path:url(#SVGID_6_);}
	.st12{clip-path:url(#SVGID_8_);}
	.st13{fill:#FFFFFF;}
	.st14{clip-path:url(#SVGID_10_);}
	.st15{clip-path:url(#SVGID_12_);}
	.st16{fill:#96BF4D;}
	.st17{clip-path:url(#SVGID_14_);}
	.st18{fill-rule:evenodd;clip-rule:evenodd;fill:#FFFFFF;}
	.st19{fill:#C92927;}
	.st20{fill:#253748;}
	.st21{clip-path:url(#SVGID_16_);}
	.st22{fill:#97CB59;}
	.st23{fill:#DA2128;}
	.st24{fill:#00A14B;}
	.st25{fill:#96171A;}
	.st26{fill:#D1E39B;}
	.st27{fill:#4FBBBB;}
	.st28{fill:#37343F;}
	.st29{fill:#077A64;}
	.st30{fill:#F4EED4;}
	.st31{fill:#012E47;}
	.st32{fill:#BE1C42;}
	.st33{fill:#008E9F;}
	.st34{fill:#CD4134;}
	.st35{clip-path:url(#SVGID_18_);}
	.st36{clip-path:url(#SVGID_20_);}
	.st37{fill:#EE2424;}
	.st38{fill:#67BC45;}
	.st39{clip-path:url(#SVGID_22_);}
	.st40{clip-path:url(#SVGID_24_);}
	.st41{fill:#004A54;}
	.st42{fill:#D93128;}
	.st43{fill:#401B23;}
	.st44{fill:#EE2D40;}
	.st45{fill:#F1EBC9;}
	.st46{fill-rule:evenodd;clip-rule:evenodd;fill:#C92927;}
	.st47{fill-rule:evenodd;clip-rule:evenodd;fill:#96BF4D;}
	.st48{fill:#BD3026;}
	.st49{opacity:0.4;fill:#CD4134;}
	.st50{fill:#E6B448;}
	.st51{fill:#E21F26;}
	.st52{fill:#A82123;}
	.st53{fill:#383A3A;}
	.st54{fill:#F17B22;}
	.st55{fill:#F1F0DC;}
	.st56{fill:#56AE78;}
	.st57{fill:#EE262E;}
	.st58{fill:#C47229;}
	.st59{fill:#FEC010;}
	.st60{fill:#C0343E;}
	.st61{fill:url(#SVGID_25_);}
	.st62{fill:#659DAA;}
	.st63{fill:#C9A784;}
	.st64{fill:#DDCFB5;}
	.st65{fill:#D2A886;}
	.st66{fill:#9B3227;}
	.st67{opacity:0.39;fill:#FFFFFF;}
	.st68{fill:#E5E5E5;}
	.st69{fill:#202945;}
	.st70{fill:none;stroke:#ACA300;stroke-miterlimit:10;}
	.st71{fill:none;stroke:#ACA300;stroke-miterlimit:10;stroke-dasharray:2.0083,2.0083;}
	.st72{fill:#ACA300;}
</style>
<g>
	<defs>
		<rect id="SVGID_1_" x="0" y="0" width="100" height="100"/>
	</defs>
	<clipPath id="SVGID_2_">
		<use xlink:href="#SVGID_1_"  style="overflow:visible;"/>
	</clipPath>
	<g class="st6">
		<g>
			<defs>
				
					<rect id="SVGID_3_" x="-467.5" y="-6.7" transform="matrix(0.6711 -0.7413 0.7413 0.6711 -143.5132 64.8964)" width="937.7" height="401.9"/>
			</defs>
			<clipPath id="SVGID_4_">
				<use xlink:href="#SVGID_3_"  style="overflow:visible;"/>
			</clipPath>
			<g class="st7">
				
					<rect x="134.4" y="-3.4" transform="matrix(0.6711 -0.7413 0.7413 0.6711 -82.2137 433.0032)" class="st5" width="625.1" height="625.1"/>
				
					<rect x="134.4" y="-3.4" transform="matrix(0.6711 -0.7413 0.7413 0.6711 -82.2137 433.0032)" class="st8" width="625.1" height="625.1"/>
			</g>
			<g class="st7">
				
					<rect x="-329.1" y="-423" transform="matrix(0.6711 -0.7413 0.7413 0.6711 76.4152 -48.529)" class="st5" width="625.1" height="625.1"/>
				
					<rect x="-329.1" y="-423" transform="matrix(0.6711 -0.7413 0.7413 0.6711 76.4152 -48.529)" class="st8" width="625.1" height="625.1"/>
				<polygon class="st9" points="99.8,2.4 99.4,-5.5 91.5,-5.1 				"/>
				<polygon class="st9" points="100.5,18.1 100.2,10.3 83.6,-4.7 77.3,-4.4 75.7,-4.3 				"/>
				<polygon class="st9" points="101.3,33.9 100.9,26 67.8,-3.9 59.9,-3.5 				"/>
				<polygon class="st9" points="102.1,49.7 101.7,41.8 52.1,-3.2 44.2,-2.8 				"/>
				<polygon class="st9" points="36.3,-2.4 28.4,-2 102.9,65.5 102.5,57.6 				"/>
				<polygon class="st9" points="103.7,81.2 103.3,73.3 20.5,-1.6 12.6,-1.2 				"/>
				<polygon class="st9" points="104.5,97 104.1,89.1 4.8,-0.8 -3.1,-0.4 				"/>
				<polygon class="st9" points="2.4,110 10.2,109.6 -6.3,94.6 -5.9,102.5 2.4,110 				"/>
				<polygon class="st9" points="18.1,109.2 26,108.8 -7.1,78.8 -6.7,86.7 18.1,109.2 				"/>
				<polygon class="st9" points="33.9,108.4 41.8,108 -7.9,63 -7.5,70.9 33.9,108.4 				"/>
				<polygon class="st9" points="49.7,107.6 57.5,107.2 -8.7,47.3 -8.3,55.2 49.7,107.6 				"/>
				<polygon class="st9" points="65.4,106.8 73.3,106.4 -9.4,31.5 -9,39.4 65.4,106.8 				"/>
				<polygon class="st9" points="81.2,106 89.1,105.6 -10.2,15.8 -9.8,23.6 81.2,106 				"/>
				<polygon class="st9" points="97,105.3 97,105.3 104.8,104.9 -11,0 -10.6,7.9 				"/>
			</g>
			<g class="st7">
				
					<rect x="-748.6" y="40.5" transform="matrix(0.6711 -0.7413 0.7413 0.6711 -405.1171 -207.1579)" class="st5" width="625.1" height="625.1"/>
				
					<rect x="-748.6" y="40.5" transform="matrix(0.6711 -0.7413 0.7413 0.6711 -405.1171 -207.1579)" class="st8" width="625.1" height="625.1"/>
			</g>
		</g>
	</g>
</g>
</svg>
