<svg enable-background="new 0 0 100 100" viewBox="0 0 100 100" xmlns="http://www.w3.org/2000/svg" xmlns:xlink="http://www.w3.org/1999/xlink"><clipPath id="a"><path d="m0 0h100v100h-100z"/></clipPath><clipPath id="b"><path d="m-467.5-6.7h937.7v401.9h-937.7z" transform="matrix(.6711 -.7413 .7413 .6711 -143.5132 64.8964)"/></clipPath><g clip-path="url(#a)"><g clip-path="url(#b)"><path d="m134.4-3.4h625.1v625.1h-625.1z" fill="none" transform="matrix(.6711 -.7413 .7413 .6711 -82.2137 433.0032)"/><path d="m134.4-3.4h625.1v625.1h-625.1z" fill="#1e0d12" transform="matrix(.6711 -.7413 .7413 .6711 -82.2137 433.0032)"/></g><g clip-path="url(#b)"><path d="m-329.1-423h625.1v625.1h-625.1z" fill="none" transform="matrix(.6711 -.7413 .7413 .6711 76.4152 -48.529)"/><path d="m-329.1-423h625.1v625.1h-625.1z" fill="#1e0d12" transform="matrix(.6711 -.7413 .7413 .6711 76.4152 -48.529)"/><g fill="#e62f34"><path d="m99.8 2.4-.4-7.9-7.9.4z"/><path d="m100.5 18.1-.3-7.8-16.6-15-6.3.3-1.6.1z"/><path d="m101.3 33.9-.4-7.9-33.1-29.9-7.9.4z"/><path d="m102.1 49.7-.4-7.9-49.6-45-7.9.4z"/><path d="m36.3-2.4-7.9.4 74.5 67.5-.4-7.9z"/><path d="m103.7 81.2-.4-7.9-82.8-74.9-7.9.4z"/><path d="m104.5 97-.4-7.9-99.3-89.9-7.9.4z"/><path d="m2.4 110 7.8-.4-16.5-15 .4 7.9z"/><path d="m18.1 109.2 7.9-.4-33.1-30 .4 7.9z"/><path d="m33.9 108.4 7.9-.4-49.7-45 .4 7.9z"/><path d="m49.7 107.6 7.8-.4-66.2-59.9.4 7.9z"/><path d="m65.4 106.8 7.9-.4-82.7-74.9.4 7.9z"/><path d="m81.2 106 7.9-.4-99.3-89.8.4 7.8z"/><path d="m97 105.3 7.8-.4-115.8-104.9.4 7.9z"/></g></g><g clip-path="url(#b)"><path d="m-748.6 40.5h625.1v625.1h-625.1z" fill="none" transform="matrix(.6711 -.7413 .7413 .6711 -405.1171 -207.1579)"/><path d="m-748.6 40.5h625.1v625.1h-625.1z" fill="#1e0d12" transform="matrix(.6711 -.7413 .7413 .6711 -405.1171 -207.1579)"/></g></g></svg>