<?xml version="1.0" encoding="utf-8"?>
<!-- Generator: Adobe Illustrator 22.1.0, SVG Export Plug-In . SVG Version: 6.00 Build 0)  -->
<svg version="1.1" id="Layer_1" xmlns="http://www.w3.org/2000/svg" xmlns:xlink="http://www.w3.org/1999/xlink" x="0px" y="0px"
	 viewBox="0 0 100 100" style="enable-background:new 0 0 100 100;" xml:space="preserve">
<style type="text/css">
	.st0{fill:#BE1E2D;}
	.st1{fill:#00B0BB;}
	.st2{fill:#63C4AF;}
	.st3{fill:#EAEAEA;}
	.st4{fill:#413E34;}
	.st5{fill:none;}
	.st6{clip-path:url(#SVGID_2_);}
	.st7{clip-path:url(#SVGID_4_);}
	.st8{fill:#1E0D12;}
	.st9{fill:#E62F34;}
	.st10{fill:#25793D;}
	.st11{clip-path:url(#SVGID_6_);}
	.st12{clip-path:url(#SVGID_8_);}
	.st13{fill:#FFFFFF;}
	.st14{clip-path:url(#SVGID_10_);}
	.st15{clip-path:url(#SVGID_12_);}
	.st16{fill:#96BF4D;}
	.st17{clip-path:url(#SVGID_14_);}
	.st18{fill-rule:evenodd;clip-rule:evenodd;fill:#FFFFFF;}
	.st19{fill:#C92927;}
	.st20{fill:#253748;}
	.st21{clip-path:url(#SVGID_16_);}
	.st22{fill:#97CB59;}
	.st23{fill:#DA2128;}
	.st24{fill:#00A14B;}
	.st25{fill:#96171A;}
	.st26{fill:#D1E39B;}
	.st27{fill:#4FBBBB;}
	.st28{fill:#37343F;}
	.st29{fill:#077A64;}
	.st30{fill:#F4EED4;}
	.st31{fill:#012E47;}
	.st32{fill:#BE1C42;}
	.st33{fill:#008E9F;}
	.st34{fill:#CD4134;}
	.st35{clip-path:url(#SVGID_18_);}
	.st36{clip-path:url(#SVGID_20_);}
	.st37{fill:#EE2424;}
	.st38{fill:#67BC45;}
	.st39{clip-path:url(#SVGID_22_);}
	.st40{clip-path:url(#SVGID_24_);}
	.st41{fill:#004A54;}
	.st42{fill:#D93128;}
	.st43{fill:#401B23;}
	.st44{fill:#EE2D40;}
	.st45{fill:#F1EBC9;}
	.st46{fill-rule:evenodd;clip-rule:evenodd;fill:#C92927;}
	.st47{fill-rule:evenodd;clip-rule:evenodd;fill:#96BF4D;}
	.st48{fill:#BD3026;}
	.st49{opacity:0.4;fill:#CD4134;}
	.st50{fill:#E6B448;}
	.st51{fill:#E21F26;}
	.st52{fill:#A82123;}
	.st53{fill:#383A3A;}
	.st54{fill:#F17B22;}
	.st55{fill:#F1F0DC;}
	.st56{fill:#56AE78;}
	.st57{fill:#EE262E;}
	.st58{fill:#C47229;}
	.st59{fill:#FEC010;}
	.st60{fill:#C0343E;}
	.st61{fill:url(#SVGID_25_);}
	.st62{fill:#659DAA;}
	.st63{fill:#C9A784;}
	.st64{fill:#DDCFB5;}
	.st65{fill:#D2A886;}
	.st66{fill:#9B3227;}
	.st67{opacity:0.39;fill:#FFFFFF;}
	.st68{fill:#E5E5E5;}
	.st69{fill:#202945;}
	.st70{fill:none;stroke:#ACA300;stroke-miterlimit:10;}
	.st71{fill:none;stroke:#ACA300;stroke-miterlimit:10;stroke-dasharray:2.0083,2.0083;}
	.st72{fill:#ACA300;}
</style>
<g>
	<defs>
		<rect id="SVGID_1_" x="840" y="-140" width="100" height="100"/>
	</defs>
	<clipPath id="SVGID_2_">
		<use xlink:href="#SVGID_1_"  style="overflow:visible;"/>
	</clipPath>
	<g class="st6">
		<g>
			<defs>
				
					<rect id="SVGID_3_" x="372.5" y="-146.7" transform="matrix(0.6711 -0.7413 0.7413 0.6711 236.5112 641.571)" width="937.7" height="401.9"/>
			</defs>
			<clipPath id="SVGID_4_">
				<use xlink:href="#SVGID_3_"  style="overflow:visible;"/>
			</clipPath>
			<g class="st7">
				
					<rect x="91.4" y="-99.5" transform="matrix(0.6711 -0.7413 0.7413 0.6711 -25.0927 369.5167)" class="st5" width="625.1" height="625.1"/>
				
					<rect x="91.4" y="-99.5" transform="matrix(0.6711 -0.7413 0.7413 0.6711 -25.0927 369.5167)" class="st8" width="625.1" height="625.1"/>
				<polygon class="st10" points="106.8,117.2 86.1,98.4 82.3,102.6 98.9,117.6 				"/>
				<polygon class="st10" points="122.5,116.4 93.6,90.2 89.8,94.3 114.6,116.8 				"/>
				<polygon class="st10" points="138.3,115.6 101.1,81.9 97.3,86 130.4,116 				"/>
			</g>
		</g>
	</g>
</g>
<g>
	<defs>
		<rect id="SVGID_5_" x="0" y="0" width="100" height="100"/>
	</defs>
	<clipPath id="SVGID_6_">
		<use xlink:href="#SVGID_5_"  style="overflow:visible;"/>
	</clipPath>
	<g class="st11">
		<g>
			<defs>
				<rect id="SVGID_7_" x="-71.3" y="-698.9" width="595" height="1388.2"/>
			</defs>
			<clipPath id="SVGID_8_">
				<use xlink:href="#SVGID_7_"  style="overflow:visible;"/>
			</clipPath>
			<g class="st12">
				<rect x="-361.1" y="-1.6" class="st5" width="466" height="466"/>
				<rect x="-361.1" y="-1.6" class="st13" width="466" height="466"/>
				<g>
					<g>
						<polygon class="st10" points="104.9,94.8 88.8,110.9 80.8,110.9 104.9,86.8 						"/>
						<polygon class="st10" points="104.9,78.7 72.8,110.9 64.7,110.9 104.9,70.7 						"/>
						<polygon class="st10" points="104.9,62.7 56.7,110.9 48.7,110.9 104.9,54.6 						"/>
						<polygon class="st10" points="104.9,46.6 40.6,110.9 32.6,110.9 104.9,38.6 						"/>
						<polygon class="st10" points="104.9,30.5 24.6,110.9 16.5,110.9 104.9,22.5 						"/>
						<polygon class="st10" points="104.9,14.5 8.5,110.9 0.4,110.9 104.9,6.4 						"/>
						<polygon class="st10" points="8.5,-1.6 0.4,-1.6 -7.6,6.4 -7.6,14.5 						"/>
						<polygon class="st10" points="24.6,-1.6 16.5,-1.6 -7.6,22.5 -7.6,30.5 						"/>
						<polygon class="st10" points="40.6,-1.6 32.6,-1.6 -7.6,38.6 -7.6,46.6 						"/>
						<polygon class="st10" points="56.7,-1.6 48.7,-1.6 -7.6,54.6 -7.6,62.7 						"/>
						<polygon class="st10" points="72.8,-1.6 64.7,-1.6 -7.6,70.7 -7.6,78.7 						"/>
						<polygon class="st10" points="88.8,-1.6 80.8,-1.6 -7.6,86.8 -7.6,94.8 						"/>
						<polygon class="st10" points="104.9,-1.6 96.9,-1.6 -7.6,102.9 -7.6,110.9 						"/>
					</g>
				</g>
				<g>
					<polygon class="st8" points="0.4,30.5 0.4,22.5 -7.6,30.5 -15.6,38.6 -15.6,46.6 -7.6,38.6 					"/>
					<polygon class="st8" points="0.4,62.7 0.4,54.6 -7.6,62.7 -15.6,70.7 -15.6,78.7 -7.6,70.7 					"/>
					<polygon class="st8" points="0.4,14.5 0.4,6.4 -7.6,14.5 -15.6,22.5 -15.6,30.5 -7.6,22.5 					"/>
					<polygon class="st8" points="0.4,-1.6 -7.6,-1.6 -15.6,6.4 -15.6,14.5 					"/>
					<polygon class="st8" points="0.4,46.6 0.4,38.6 -7.6,46.6 -15.6,54.6 -15.6,62.7 -7.6,54.6 					"/>
					<polygon class="st8" points="0.4,78.7 0.4,70.7 -7.6,78.7 -15.6,86.8 -15.6,94.8 -7.6,86.8 					"/>
					<polygon class="st8" points="0.4,94.8 0.4,86.8 -7.6,94.8 -15.6,102.9 -15.6,110.9 -7.6,102.9 					"/>
				</g>
			</g>
		</g>
	</g>
</g>
<g>
	<defs>
		<rect id="SVGID_9_" x="140" y="0" width="100" height="100"/>
	</defs>
	<clipPath id="SVGID_10_">
		<use xlink:href="#SVGID_9_"  style="overflow:visible;"/>
	</clipPath>
	<g class="st14">
		<g>
			<defs>
				
					<rect id="SVGID_11_" x="-186" y="-97.1" transform="matrix(0.6991 -0.715 0.715 0.6991 11.5672 124.2313)" width="678.8" height="290.9"/>
			</defs>
			<clipPath id="SVGID_12_">
				<use xlink:href="#SVGID_11_"  style="overflow:visible;"/>
			</clipPath>
			<g class="st15">
				
					<rect x="102.6" y="-39.1" transform="matrix(0.6991 -0.715 0.715 0.6991 10.6464 179.6907)" class="st5" width="232.6" height="232.6"/>
				
					<rect x="102.6" y="-39.1" transform="matrix(0.6991 -0.715 0.715 0.6991 10.6464 179.6907)" class="st10" width="232.6" height="232.6"/>
				<polygon class="st9" points="104.9,47.1 101,47.2 97.2,51.2 93.3,55.1 97.2,55.1 101.1,51.1 				"/>
				<polygon class="st9" points="97.1,47.2 93.2,47.3 89.3,51.2 85.5,55.2 89.4,55.2 93.2,51.2 				"/>
				<polygon class="st9" points="85.4,51.3 89.3,47.3 85.4,47.4 81.5,51.3 77.6,55.3 81.5,55.2 				"/>
				<polygon class="st8" points="97.8,106 136.5,66.4 136.4,62.5 93.9,106 				"/>
				<polygon class="st8" points="89.9,106 136.4,58.5 136.4,54.6 86,106.1 				"/>
				<polygon class="st8" points="85.4,51.3 81.5,55.2 81.6,59.2 85.5,55.2 89.3,51.2 				"/>
				<polygon class="st8" points="93.2,51.2 89.4,55.2 81.6,63.1 81.7,67 93.3,55.1 97.2,51.2 				"/>
				<polygon class="st8" points="101.1,51.1 97.2,55.1 81.7,70.9 81.8,74.8 101.1,55 105,51.1 				"/>
				<polygon class="st8" points="108.9,51 105,55 81.8,78.7 81.9,82.6 109,54.9 112.8,51 				"/>
				<polygon class="st8" points="116.7,50.9 112.9,54.9 81.9,86.6 81.9,90.5 116.8,54.8 120.7,50.9 				"/>
				<polygon class="st8" points="124.6,50.8 120.7,54.8 82,94.4 82,98.3 124.6,54.8 128.5,50.8 				"/>
				<polygon class="st8" points="136.3,50.7 132.4,50.8 128.5,54.7 82.1,102.2 82.1,106.1 132.4,54.7 				"/>
				<polygon class="st8" points="97.1,47.2 93.2,51.2 97.2,51.2 101,47.2 135.9,11.6 135.8,7.6 				"/>
				<polygon class="st8" points="89.3,51.2 93.2,47.3 135.8,3.7 135.7,-0.2 89.3,47.3 85.4,51.3 				"/>
			</g>
			<g class="st15">
				
					<rect x="-60" y="127.2" transform="matrix(0.6991 -0.715 0.715 0.6991 -157.1564 113.467)" class="st5" width="232.6" height="232.6"/>
				
					<rect x="-60" y="127.2" transform="matrix(0.6991 -0.715 0.715 0.6991 -157.1564 113.467)" class="st10" width="232.6" height="232.6"/>
			</g>
			<g class="st15">
				
					<rect x="-63.7" y="-201.7" transform="matrix(0.6991 -0.715 0.715 0.6991 76.87 11.8879)" class="st5" width="232.6" height="232.6"/>
				
					<rect x="-63.7" y="-201.7" transform="matrix(0.6991 -0.715 0.715 0.6991 76.87 11.8879)" class="st10" width="232.6" height="232.6"/>
				<polygon class="st9" points="26.7,51.9 30.6,48 30.5,44.1 26.6,48 24.7,50 				"/>
				<polygon class="st9" points="30.4,32.3 30.3,28.4 26.5,32.4 22.6,36.3 22.6,40.2 26.5,36.3 				"/>
				<polygon class="st9" points="28.7,53.9 30.6,55.8 30.6,51.9 				"/>
				<polygon class="st9" points="30.5,40.2 30.4,36.2 26.6,40.2 22.7,44.2 22.7,48.1 26.6,44.1 				"/>
				<polygon class="st9" points="30.3,24.5 30.3,20.6 26.4,24.5 22.5,28.5 22.6,32.4 26.4,28.4 				"/>
				<polygon class="st9" points="30.1,8.8 30.1,4.9 26.2,8.9 22.3,12.8 22.4,16.7 26.3,12.8 				"/>
				<polygon class="st9" points="30.2,16.7 30.2,12.7 26.3,16.7 22.4,20.7 22.5,24.6 26.3,20.6 				"/>
				<polygon class="st9" points="22.2,-2.8 22.2,1.1 26.1,-2.9 24.8,-2.9 				"/>
				<polygon class="st9" points="26.1,1 22.2,5 22.3,8.9 26.2,5 30,1 30,-2.9 30,-2.9 				"/>
				<polygon class="st9" points="65.8,51.5 62,55.5 65.9,55.4 69.8,51.5 73.6,47.5 69.7,47.5 				"/>
				<polygon class="st9" points="58,47.7 54.1,47.7 50.2,51.7 46.3,55.6 50.2,55.6 54.1,51.6 				"/>
				<polygon class="st9" points="73.7,51.4 69.8,55.4 73.7,55.3 77.6,51.4 81.5,47.4 77.5,47.5 				"/>
				<polygon class="st9" points="65.8,47.6 61.9,47.6 58,51.6 54.1,55.5 58.1,55.5 61.9,51.5 				"/>
				<polygon class="st9" points="50.1,47.8 46.2,47.8 42.4,51.8 38.5,55.7 42.4,55.7 46.3,51.7 				"/>
				<polygon class="st9" points="26.6,48 22.7,48.1 24.7,50 				"/>
				<polygon class="st9" points="28.7,53.9 30.6,51.9 34.5,47.9 30.6,48 26.7,51.9 				"/>
				<polygon class="st9" points="38.4,51.8 42.3,47.8 38.4,47.9 34.5,51.9 30.6,55.8 34.6,55.8 				"/>
				<polygon class="st8" points="80.9,0.4 81,4.3 88.7,-3.6 84.8,-3.5 				"/>
				<polygon class="st8" points="81,8.3 81.1,12.2 96.5,-3.7 92.6,-3.6 				"/>
				<polygon class="st8" points="81.1,16.1 81.2,20 104.4,-3.7 100.5,-3.7 				"/>
				<polygon class="st8" points="81.2,23.9 81.2,27.8 112.2,-3.8 108.3,-3.8 				"/>
				<polygon class="st8" points="81.3,31.7 81.3,35.7 120,-3.9 116.1,-3.9 				"/>
				<polygon class="st8" points="81.4,39.6 81.4,43.5 127.9,-4 124,-4 				"/>
				<polygon class="st8" points="81.5,47.4 81.5,51.3 85.4,47.4 135.7,-4.1 131.8,-4.1 				"/>
			</g>
			<g class="st15">
				
					<rect x="-226.3" y="-35.4" transform="matrix(0.6991 -0.715 0.715 0.6991 -90.9328 -54.3357)" class="st5" width="232.6" height="232.6"/>
				
					<rect x="-226.3" y="-35.4" transform="matrix(0.6991 -0.715 0.715 0.6991 -90.9328 -54.3357)" class="st10" width="232.6" height="232.6"/>
				<polygon class="st9" points="23.3,99 23.3,102.9 27.2,98.9 31.1,95 31,91 27.2,95 				"/>
				<polygon class="st9" points="23.1,83.3 23.2,87.2 27,83.3 30.9,79.3 30.9,75.4 27,79.3 				"/>
				<polygon class="st9" points="27.3,106.8 31.2,102.8 31.1,98.9 27.3,102.8 23.4,106.8 23.4,110.7 				"/>
				<polygon class="st9" points="23.2,91.1 23.3,95 27.1,91.1 31,87.1 31,83.2 27.1,87.2 				"/>
				<polygon class="st9" points="23,75.5 23.1,79.4 27,75.4 30.8,71.5 30.8,67.6 26.9,71.5 				"/>
				<polygon class="st9" points="24.7,50 22.8,52 22.8,55.9 26.7,51.9 				"/>
				<polygon class="st9" points="26.7,55.9 22.9,59.8 22.9,63.7 26.8,59.8 30.7,55.8 28.7,53.9 				"/>
				<polygon class="st9" points="23,71.6 26.9,67.6 30.7,63.6 30.7,59.7 26.8,63.7 23,67.6 				"/>
				<polygon class="st9" points="22.7,48.1 18.9,52 15,56 18.9,55.9 22.8,52 24.7,50 				"/>
				<polygon class="st9" points="-0.7,56.2 3.2,56.1 7.1,52.2 11,48.2 7.1,48.2 3.2,52.2 				"/>
				<polygon class="st9" points="26.7,51.9 22.8,55.9 26.7,55.9 28.7,53.9 				"/>
				<polygon class="st9" points="11,52.1 7.2,56.1 11.1,56 14.9,52.1 18.8,48.1 14.9,48.2 				"/>
				<polygon class="st9" points="-8.5,56.2 -4.6,56.2 -0.7,52.2 3.2,48.3 -0.8,48.3 -4.6,52.3 				"/>
			</g>
		</g>
	</g>
</g>
<g>
	<defs>
		<rect id="SVGID_15_" x="0" y="140" width="100" height="100"/>
	</defs>
	<clipPath id="SVGID_14_">
		<use xlink:href="#SVGID_15_"  style="overflow:visible;"/>
	</clipPath>
	<g class="st17">
		<polygon class="st22" points="16.4,-7.5 -0.2,21 -16.9,-7.5 -0.2,-36 		"/>
		<polygon class="st22" points="49.6,-7.5 33,21 16.4,-7.5 33,-36 		"/>
		<polygon class="st22" points="82.9,-7.5 66.3,21 49.6,-7.5 66.3,-36 		"/>
		<polygon class="st22" points="116.2,-7.5 99.5,21 82.9,-7.5 99.5,-36 		"/>
		<polygon class="st23" points="33,21.1 16.4,49.6 -0.2,21.1 16.4,-7.4 		"/>
		<polygon class="st24" points="66.3,21.1 49.6,49.6 33,21.1 49.6,-7.4 		"/>
		<polygon class="st23" points="99.5,21.1 82.9,49.6 66.3,21.1 82.9,-7.4 		"/>
		<polygon class="st24" points="132.8,21.1 116.2,49.6 99.5,21.1 116.2,-7.4 		"/>
		<polygon class="st24" points="33,77.9 16.4,106.4 -0.2,77.9 16.4,49.4 		"/>
		<polygon class="st25" points="66.3,77.9 49.6,106.4 33,77.9 49.6,49.4 		"/>
		<polygon class="st24" points="99.5,77.9 82.9,106.4 66.3,77.9 82.9,49.4 		"/>
		<polygon class="st23" points="132.8,77.9 116.2,106.4 99.5,77.9 116.2,49.4 		"/>
		<polygon class="st22" points="16.4,49.5 -0.2,78 -16.9,49.5 -0.2,21 		"/>
		<polygon class="st22" points="49.6,49.5 33,78 16.4,49.5 33,21 		"/>
		<polygon class="st22" points="82.9,49.5 66.3,78 49.6,49.5 66.3,21 		"/>
		<polygon class="st22" points="116.2,49.5 99.5,78 82.9,49.5 99.5,21 		"/>
		<polygon class="st22" points="16.4,106.5 -0.2,135 -16.9,106.5 -0.2,78 		"/>
		<polygon class="st22" points="49.6,106.5 33,135 16.4,106.5 33,78 		"/>
		<polygon class="st22" points="82.9,106.5 66.3,135 49.6,106.5 66.3,78 		"/>
		<polygon class="st22" points="116.2,106.5 99.5,135 82.9,106.5 99.5,78 		"/>
		<path class="st26" d="M249.2,78.2l-16.6-28.3l16.5-28.2l0.1-0.2l-0.1-0.2l0,0L232.7-6.9L249.1-35L249-35l0.1-0.2l-0.6-0.3
			L232.2-7.6L215.6-36L199-7.6L182.4-36L165.8-7.6L149.2-36L132.6-7.6L116-36L99.4-7.6L82.8-36L66.2-7.6L49.6-36L33-7.6L16.4-36
			L-0.1-7.6L-16.7-36L-33.3-7.6L-49.9-36L-66.5-7.6L-83.1-36L-99.7-7.6L-116.3-36L-133-7.5l-16.2-27.8l-0.6,0.3l16.5,28.2
			l-16.6,28.3l16.6,28.3l-16.6,28.3l16.6,28.3l-16.6,28.3l16.7,28.5l-16.7,28.5l16.6,28.3l-16.6,28.3l16.6,28.5l0,0.1l0,0
			l-16.6,28.4l16.6,28.3l-16.5,28.2l0.6,0.3l16.3-27.9l0,0.1l0,0l16.6,28.4l16.6-28.4l0,0l0,0l16.6,28.4l16.6-28.4l0,0l0,0
			l16.6,28.4l16.6-28.4l0,0l0,0l16.6,28.4l16.6-28.4l0,0l0,0l16.6,28.4L33,334.7l0,0l0,0l16.6,28.4l16.6-28.4l0,0l0,0l16.6,28.4
			l16.6-28.4l0,0l0,0l16.6,28.4l16.6-28.4l0,0l0,0l16.6,28.4l16.6-28.4l0,0l0,0l16.6,28.4l16.6-28.4l0,0l0,0l16.6,28.4l16.6-28.4
			l0,0l0,0l16.3,27.9l0.6-0.3l0-0.1l0,0L232.6,334l16.5-28.2l0.1-0.2l-0.1-0.2l0,0l-16.5-28.2l16.5-28.2l-0.1,0l0.1-0.1l0.1-0.2
			l-16.6-28.3l16.5-28.2l0.1-0.2l-0.1-0.2l0,0l-16.5-28.2l16.5-28.2l-0.1,0l0.1-0.1l0.1-0.2l-16.5-28.3l16.4-28.2l0,0l0,0
			L249.2,78.2z M232.2,105.8L232.2,105.8L216,78.2l16.2-27.7l0,0l0,0l16.2,27.7L232.2,105.8L232.2,105.8z M199,333.2L199,333.2
			l-16.2-27.6l16.2-27.7l16.2,27.7L199,333.2L199,333.2z M165.8,333.2L165.8,333.2l-16.2-27.6l16.2-27.7l16.2,27.7L165.8,333.2
			L165.8,333.2z M132.6,333.2L132.6,333.2l-16.2-27.6l16.2-27.7l16.2,27.7L132.6,333.2L132.6,333.2z M99.4,333.2L99.4,333.2
			l-16.2-27.6l16.2-27.7l16.2,27.7L99.4,333.2L99.4,333.2z M66.2,333.2L66.2,333.2L50,305.6l16.2-27.7l16.2,27.7L66.2,333.2
			L66.2,333.2z M33,333.2L33,333.2l-16.2-27.6L33,277.9l16.2,27.7L33,333.2L33,333.2z M-0.1,333.2L-0.1,333.2l-16.2-27.6l16.2-27.7
			l16.2,27.7L-0.1,333.2L-0.1,333.2z M-33.3,333.2L-33.3,333.2l-16.2-27.6l16.2-27.7l16.2,27.7L-33.3,333.2L-33.3,333.2z
			 M-66.5,333.2L-66.5,333.2l-16.2-27.6l16.2-27.7l16.2,27.7L-66.5,333.2L-66.5,333.2z M-99.7,333.2L-99.7,333.2l-16.2-27.6
			l16.2-27.7l16.2,27.7L-99.7,333.2L-99.7,333.2z M-99.7-6.1L-99.7-6.1l16.2,27.6l-16.2,27.7l0,0l0,0l-16.2-27.7L-99.7-6.1
			L-99.7-6.1z M-66.5-6.1L-66.5-6.1l16.2,27.6l-16.2,27.7l0,0l0,0l-16.2-27.7L-66.5-6.1L-66.5-6.1z M-33.3-6.1L-33.3-6.1l16.2,27.6
			l-16.2,27.7l0,0l0,0l-16.2-27.7L-33.3-6.1L-33.3-6.1z M-0.1-6.1L-0.1-6.1L16,21.5L-0.1,49.2l0,0l0,0l-16.2-27.7L-0.1-6.1L-0.1-6.1
			z M33-6.1L33-6.1l16.2,27.6L33.1,49.2l0,0l0,0L16.9,21.5L33-6.1L33-6.1z M66.2-6.1L66.2-6.1l16.2,27.6L66.3,49.2l0,0l0,0
			L50.1,21.5L66.2-6.1L66.2-6.1z M99.4-6.1L99.4-6.1l16.2,27.6L99.5,49.2l0,0l0,0L83.3,21.5L99.4-6.1L99.4-6.1z M132.6-6.1
			L132.6-6.1l16.2,27.6l-16.2,27.7l0,0l0,0l-16.2-27.7L132.6-6.1L132.6-6.1z M165.8-6.1L165.8-6.1L182,21.5l-16.2,27.7l0,0l0,0
			l-16.2-27.7L165.8-6.1L165.8-6.1z M199-6.1L199-6.1l16.2,27.6L199,49.2l0,0l0,0l-16.2-27.7L199-6.1L199-6.1z M215.2,191.9
			l-16.2,27.7l0-0.1l0,0.1l-8.1-13.8l-8.1-13.9l16.2-27.8l8.1,13.9L215.2,191.9z M199,105.8L199,105.8l-16.2-27.6L199,50.6l0,0l0,0
			l16.2,27.7L199,105.8L199,105.8z M-66.5,50.6L-66.5,50.6l16.2,27.6l-16.2,27.7l0-0.1l0,0.1l-16.2-27.7L-66.5,50.6L-66.5,50.6z
			 M-33.3,50.6L-33.3,50.6l16.2,27.6l-16.2,27.7l0-0.1l0,0.1l-16.2-27.7L-33.3,50.6L-33.3,50.6z M-0.1,50.6L-0.1,50.6l16.2,27.6
			l-16.2,27.7l0-0.1l0,0.1l-16.2-27.7L-0.1,50.6L-0.1,50.6z M33,50.6L33,50.6l16.2,27.6l-16.2,27.7l0-0.1l0,0.1L16.8,78.2L33,50.6
			L33,50.6z M66.2,50.6L66.2,50.6l16.2,27.6l-16.2,27.7l0-0.1l0,0.1L50,78.2L66.2,50.6L66.2,50.6z M99.4,50.6L99.4,50.6l16.2,27.6
			l-16.2,27.7l0-0.1l0,0.1L83.2,78.2L99.4,50.6L99.4,50.6z M132.6,50.6L132.6,50.6l16.2,27.6l-16.2,27.7l0-0.1l0,0.1l-16.2-27.7
			L132.6,50.6L132.6,50.6z M165.8,50.6L165.8,50.6L182,78.2l-16.2,27.7l0-0.1l0,0.1l-16.2-27.7L165.8,50.6L165.8,50.6z M182,191.9
			l-16.2,27.7l0-0.1l0,0.1l-8.1-13.8l-8.1-13.9l16.2-27.8l8.1,13.9L182,191.9z M165.4,220.3L149.2,248l-16.2-27.7l16.2-27.7
			l8.1,13.9L165.4,220.3z M33.1,219.6L33.1,219.6L33.1,219.6l-8.1-13.8l-8.1-13.9l8.1-13.9l8.1-13.9l8.1,13.9l8.1,13.9l-8.1,13.9
			L33.1,219.6z M58.1,205.8L50,191.9l16.2-27.8l8.1,13.9l8.1,13.9l-16.2,27.7l0-0.1l0,0.1L58.1,205.8z M116,191.3l-16.2-27.8
			l16.2-27.8l16.2,27.8l-5.8,9.8L116,191.3z M82.8,191.3l-16.2-27.8l16.2-27.8l16.2,27.8l-5.8,9.8L82.8,191.3z M16.4,135.8
			l16.2,27.8l-16.2,27.8L0.2,163.5L16.4,135.8z M33.4,163.5l16.2-27.8l16.2,27.8l-11.3,19.3l-5,8.5l-11.9-20.4L33.4,163.5z
			 M148.8,135l-16.2,27.7L116.5,135l16.2-27.7L148.8,135z M115.6,135l-16.2,27.7L83.3,135l16.2-27.7L115.6,135z M82.4,135
			l-16.2,27.7L50.1,135l16.2-27.7L82.4,135z M49.2,135L33,162.7L16.9,135L33,107.3L49.2,135z M16,135l-16.2,27.7L-16.3,135
			l16.2-27.7L16,135z M-33.3,107.3l16.2,27.7l-16.2,27.7L-49.5,135L-33.3,107.3z M83.2,191.9l16.2-27.8l8.1,13.9l8.1,13.9
			l-16.2,27.7l0-0.1l0,0.1l-8.1-13.8L83.2,191.9z M116.4,191.9l16.2-27.8l8.1,13.9l8.1,13.9l-16.2,27.7l0-0.1l0,0.1l-8.1-13.8
			L116.4,191.9z M149.2,191.3L133,163.5l16.2-27.8l16.2,27.8l-5.8,9.8L149.2,191.3z M165.8,107.3L182,135l-16.2,27.7L149.7,135
			L165.8,107.3z M165.4,106.6l-16.2,27.7l-16.2-27.7l16.2-27.7L165.4,106.6z M132.2,106.6L116,134.2l-16.2-27.7L116,78.9
			L132.2,106.6z M99,106.6l-16.2,27.7l-16.2-27.7l16.2-27.7L99,106.6z M65.8,106.6l-16.2,27.7l-16.2-27.7l16.2-27.7L65.8,106.6z
			 M32.6,106.6l-16.2,27.7L0.3,106.6l16.2-27.7L32.6,106.6z M-0.6,106.6l-16.2,27.7l-16.2-27.7l16.2-27.7L-0.6,106.6z M-33.8,106.6
			l-16.2,27.7l-16.2-27.7l16.2-27.7L-33.8,106.6z M-16.7,135.8l16.2,27.8l-16.2,27.8L-33,163.5L-16.7,135.8z M-16.4,191.9l8.1-13.9
			l8.1-13.9L8,178l8.1,13.9L8,205.8l-8.1,13.8l0-0.1l0,0.1l-8.1-13.8L-16.4,191.9z M0.3,220.3l8.1-13.8l8.1-13.9l8.1,13.9l8.1,13.8
			L16.4,248L0.3,220.3z M33.5,220.3l8.1-13.8l8.1-13.8l16.2,27.7L49.6,248L33.5,220.3z M66.7,220.3l16.2-27.7l8.1,13.9l8.1,13.8
			L82.8,248L66.7,220.3z M99.9,220.3l16.2-27.7l8.1,13.9l8.1,13.8L116,248L99.9,220.3z M-67,106.6l-16.2,27.7l-16.2-27.7l16.2-27.7
			L-67,106.6z M-66.5,107.3l16.2,27.7l-16.2,27.7L-82.7,135L-66.5,107.3z M-16.7,192.6l8.1,13.9l8.1,13.8L-16.7,248l-16.2-27.7
			l8.1-13.8L-16.7,192.6z M-33.3,221l16.2,27.7l-16.2,27.7l-16.2-27.7L-33.3,221z M-0.1,221L16,248.7l-16.2,27.7l-16.2-27.7
			L-0.1,221z M33,221l16.2,27.7L33,276.4l-16.2-27.7L33,221z M66.2,221l16.2,27.7l-16.2,27.7l-16.2-27.7L66.2,221z M99.4,221
			l16.2,27.7l-16.2,27.7l-16.2-27.7L99.4,221z M132.6,221l16.2,27.7l-16.2,27.7l-16.2-27.7L132.6,221z M165.8,221l16.2,27.7
			l-16.2,27.7l-16.2-27.7L165.8,221z M182.4,134.2l-16.2-27.7l16.2-27.7l16.2,27.7L182.4,134.2z M-49.9,135.8l16.2,27.8l-16.2,27.8
			l-16.2-27.8L-49.9,135.8z M-49.6,191.9l8.1-13.9l8.1-13.9l8.1,13.9l8.1,13.9l-8.1,13.9l-8.1,13.8l0-0.1l0,0.1l-8.1-13.8
			L-49.6,191.9z M-50.4,248.7l-16.2,27.7l-16.2-27.7l16.2-27.7L-50.4,248.7z M182.4,191.3l-16.2-27.8l16.2-27.8l16.2,27.8l-5.8,9.8
			L182.4,191.3z M182.4,77.6l-16.2-27.7l16.2-27.7l16.2,27.7L182.4,77.6z M149.2,77.6l-16.2-27.7l16.2-27.7l16.2,27.7L149.2,77.6z
			 M116,77.6L99.9,49.9L116,22.2l16.2,27.7L116,77.6z M82.8,77.6L66.7,49.9l16.2-27.7L99,49.9L82.8,77.6z M49.6,77.6L33.5,49.9
			l16.2-27.7l16.2,27.7L49.6,77.6z M32.6,49.9L16.4,77.6L0.3,49.9l16.2-27.7L32.6,49.9z M-0.6,49.9l-16.2,27.7l-16.2-27.7l16.2-27.7
			L-0.6,49.9z M-33.8,49.9l-16.2,27.7l-16.2-27.7l16.2-27.7L-33.8,49.9z M-67,49.9l-16.2,27.7l-16.2-27.7l16.2-27.7L-67,49.9z
			 M-49.9,192.6l8.1,13.9l8.1,13.8L-49.9,248l-16.2-27.7l8.1-13.8L-49.9,192.6z M-66.9,277.2l-16.2,27.8l-16.2-27.8l16.2-27.8
			L-66.9,277.2z M-66.2,277.2l16.2-27.8l16.2,27.8l-16.2,27.8L-66.2,277.2z M-33,277.2l16.2-27.8l16.2,27.8l-16.2,27.8L-33,277.2z
			 M0.2,277.2l16.2-27.8l16.2,27.8l-16.2,27.8L0.2,277.2z M33.4,277.2l16.2-27.8l16.2,27.8l-16.2,27.8L33.4,277.2z M66.6,277.2
			l16.2-27.8l16.2,27.8l-16.2,27.8L66.6,277.2z M99.8,277.2l16.2-27.8l16.2,27.8L116,304.9L99.8,277.2z M133,277.2l16.2-27.8
			l16.2,27.8l-16.2,27.8L133,277.2z M166.2,277.2l16.2-27.8l16.2,27.8l-16.2,27.8L166.2,277.2z M199,276.4l-16.2-27.7L199,221
			l16.2,27.7L199,276.4z M198.6,220.3L182.4,248l-16.2-27.7l16.2-27.7l8.1,13.9L198.6,220.3z M199,162.7L182.9,135l16.2-27.7
			l16.2,27.7L199,162.7z M199.4,49.9l16.2-27.7l16.2,27.7l-16.2,27.7L199.4,49.9z M-99.7,50.6L-99.7,50.6l16.2,27.6l-16.2,27.7
			l0-0.1l0,0.1l-16.2-27.7L-99.7,50.6L-99.7,50.6z M-83.6,135l-16.2,27.7l-16.2-27.7l16.2-27.7L-83.6,135z M-83.1,135.8l16.2,27.8
			l-16.2,27.8l-16.2-27.8L-83.1,135.8z M-82.8,191.9l8.1-13.9l8.1-13.9l8.1,13.9l8.1,13.9l-8.1,13.9l-8.1,13.8l0-0.1l0,0.1
			l-8.1-13.8L-82.8,191.9z M-100.2,49.9l-16.2,27.7l-16.2-27.7l16.2-27.7L-100.2,49.9z M-100.2,106.6l-16.2,27.7l-16.2-27.7
			l16.2-27.7L-100.2,106.6z M-83.1,192.6l8.1,13.9l8.1,13.8L-83.1,248l-16.2-27.7l8.1-13.8L-83.1,192.6z M-99.7,221l16.2,27.7
			l-16.2,27.7l-16.2-27.7L-99.7,221z M199.4,277.2l16.2-27.8l16.2,27.8l-16.2,27.8L199.4,277.2z M215.6,191.3l-16.2-27.8l16.2-27.8
			l16.2,27.8l-5.8,9.8L215.6,191.3z M215.6,134.2l-16.2-27.7l16.2-27.7l16.2,27.7L215.6,134.2z M232.2,49.1L232.2,49.1L216,21.5
			l16.1-27.6l0,0.1l0-0.1l16.1,27.6L232.2,49.1L232.2,49.1z M215.6,20.8L199.5-6.9l16.1-27.6l16.1,27.6L215.6,20.8z M182.4,20.8
			L166.3-6.9l16.1-27.6l16.1,27.6L182.4,20.8z M149.2,20.8L133.1-6.9l16.1-27.6l16.1,27.6L149.2,20.8z M116,20.8L99.9-6.9L116-34.5
			l16.1,27.6L116,20.8z M82.8,20.8L66.7-6.9l16.1-27.6L99-6.9L82.8,20.8z M49.6,20.8L33.5-6.9l16.1-27.6L65.8-6.9L49.6,20.8z
			 M16.4,20.8L0.3-6.9l16.1-27.6L32.6-6.9L16.4,20.8z M-16.7,20.8L-32.9-6.9l16.1-27.6L-0.6-6.9L-16.7,20.8z M-49.9,20.8L-66.1-6.9
			l16.1-27.6l16.1,27.6L-49.9,20.8z M-83.1,20.8L-99.3-6.9l16.1-27.6L-67-6.9L-83.1,20.8z M-116.3,20.8l-16.1-27.6l16.1-27.6
			l16.1,27.6L-116.3,20.8z M-116.3,135.8l16.2,27.8l-16.2,27.8l-16.2-27.8L-116.3,135.8z M-115.9,191.9l8.1-13.9l8.1-13.9l8.1,13.9
			l8.1,13.9l-8.1,13.9l-8.1,13.8l0-0.1l0,0.1l-8.1-13.8L-115.9,191.9z M-100.1,277.2l-16.2,27.8l-16.2-27.8l16.2-27.8L-100.1,277.2z
			 M-100.2,334l-16.2,27.7l-16.2-27.7l16.2-27.7L-100.2,334z M-83.1,306.3L-67,334l-16.2,27.7L-99.3,334L-83.1,306.3z M-49.9,306.3
			l16.2,27.7l-16.2,27.7L-66.1,334L-49.9,306.3z M-16.7,306.3L-0.6,334l-16.2,27.7L-32.9,334L-16.7,306.3z M16.4,306.3L32.6,334
			l-16.2,27.7L0.3,334L16.4,306.3z M49.6,306.3L65.8,334l-16.2,27.7L33.5,334L49.6,306.3z M82.8,306.3L99,334l-16.2,27.7L66.7,334
			L82.8,306.3z M116,306.3l16.2,27.7L116,361.7L99.9,334L116,306.3z M149.2,306.3l16.2,27.7l-16.2,27.7L133.1,334L149.2,306.3z
			 M182.4,306.3l16.2,27.7l-16.2,27.7L166.3,334L182.4,306.3z M215.6,306.3l16.2,27.7l-16.2,27.7L199.4,334L215.6,306.3z
			 M232.2,333.2L232.2,333.2L216,305.6l16.2-27.7l16.2,27.7L232.2,333.2L232.2,333.2z M232.2,221l16.2,27.7l-16.2,27.7L216,248.7
			L232.2,221z M231.8,220.3L215.6,248l-16.2-27.7l16.2-27.7l8.1,13.9L231.8,220.3z M232.2,107.3l16.2,27.7l-16.2,27.7L216.1,135
			L232.2,107.3z M-116.3,192.6l8.1,13.9l8.1,13.8l-16.2,27.7l-16.2-27.7l8.1-13.8L-116.3,192.6z M248.4,191.9l-16.2,27.7l0-0.1
			l0,0.1l-8.1-13.8l-8.1-13.9l16.2-27.8l3.9,6.7L248.4,191.9z M-149.1,21.5L-133-6.2l0,0.1l0-0.1l16.1,27.6l-16.2,27.7l0,0l0,0.1
			L-149.1,21.5z M-149.1,78.2l16.2-27.7l0,0.1l0,0l16.2,27.7l-16.2,27.7l0-0.1l0,0.1L-149.1,78.2z M-133,107.2l16.2,27.8l-16.2,27.7
			l-16.2-27.8L-133,107.2z M-149.1,191.9l16.2-27.8l8.1,13.9l8.1,13.9l-8.1,13.9l-8.1,13.8l0-0.1l0,0.1L-149.1,191.9z M-133,220.9
			l16.2,27.8l-16.2,27.7l-16.2-27.8L-133,220.9z M-149.1,305.6l16.2-27.8l16.2,27.7l-16.2,27.7l0,0l0,0.1L-149.1,305.6z"/>
	</g>
</g>
</svg>
