<svg enable-background="new 0 0 100 100" viewBox="0 0 100 100" xmlns="http://www.w3.org/2000/svg" xmlns:xlink="http://www.w3.org/1999/xlink"><clipPath id="a"><path d="m700-140h100v100h-100z"/></clipPath><clipPath id="b"><path d="m232.5-146.7h937.7v401.9h-937.7z" transform="matrix(.6711 -.7413 .7413 .6711 190.4715 537.7853)"/></clipPath><clipPath id="c"><path d="m-140 0h100v100h-100z"/></clipPath><clipPath id="d"><path d="m-211.3-698.9h595v1388.2h-595z"/></clipPath><clipPath id="e"><path d="m0 0h100v100h-100z"/></clipPath><clipPath id="f"><path d="m-326-97.1h678.8v290.9h-678.8z" transform="matrix(.6991 -.715 .715 .6991 -30.5536 24.1331)"/></clipPath><clipPath id="g"><path d="m-140 140h100v100h-100z"/></clipPath><clipPath id="h"><path d="m140 280h100v100h-100z"/></clipPath><clipPath id="i"><path d="m108.1 76.1h172.2v516.6h-172.2z"/></clipPath><g clip-path="url(#a)"><g clip-path="url(#b)"><path d="m-48.6-99.5h625.1v625.1h-625.1z" fill="none" transform="matrix(.6711 -.7413 .7413 .6711 -71.1325 265.731)"/><path d="m-48.6-99.5h625.1v625.1h-625.1z" fill="#1e0d12" transform="matrix(.6711 -.7413 .7413 .6711 -71.1325 265.731)"/><g fill="#25793d"><path d="m35.1 60.5 2.4 49.3.2 3.8 8.5-.4 7.3-.3 9.7-.5 6-.3 7.9-.4 4.8-.3 11-.5 3.7-.2 12.1-.6 2.6-.1 13.1-.7 1.6-.1 22.1-1.1-2.8-55.1-2.7-55.2-7.9.4-7.9.4-47.3 2.3-47.3 2.4 2.8 55.1z"/><path d="m14.1 114.8-45.6-41.2-3.7 4.1 41.4 37.5z"/><path d="m21.9 114.4 7.9-.4-53.8-48.7-3.7 4.2z"/><path d="m32.6 11.1-4.1-3.7-3.8 4.1 8.3 7.5z"/><path d="m33 19-.4-7.9z"/><path d="m33.4 26.9-12.4-11.2-3.8 4.1 16.6 15z"/><path d="m33.4 26.9.4 7.9z"/><path d="m34.2 42.7-20.7-18.8-3.7 4.2 24.8 22.5z"/><path d="m34.2 42.7.4 7.9z"/><path d="m35 58.4.1 2.1z"/><path d="m35 58.4-29-26.2-3.7 4.2 33.1 29.9z"/><path d="m35.1 60.5-.1-2.1.4 7.9z"/><path d="m35.8 74.2-37.3-33.7-3.7 4.1 41.3 37.5z"/><path d="m35.8 74.2.3 7.9h.1z"/><path d="m36.5 90-45.5-41.2-3.7 4.1 49.6 45z"/><path d="m36.5 90 .4 7.9z"/><path d="m37.3 105.7-53.8-48.7-3.7 4.2 57.9 52.4z"/><path d="m79.5.9 47.3-2.3-3.2.1z"/><path d="m77.9 1-45.7 2.3 47.3-2.4z"/><path d="m39.7-5-3.7 4.1 4.1 3.8 7.9-.4z"/><path d="m48 2.5-7.9.4z"/><path d="m40.1 2.9 7.9-.4z"/><path d="m63.8 1.7-16.6-15-3.7 4.1 12.4 11.3z"/><path d="m55.9 2.1 7.9-.4z"/><path d="m55.9 2.1 7.9-.4z"/><path d="m79.5.9-1.6.1z"/><path d="m79.5.9-24.8-22.5-3.7 4.2 20.7 18.7z"/><path d="m79.5.9-7.8.4z"/><path d="m79.5.9-7.8.4 6.2-.3z"/><path d="m95.3.1-33.1-29.9-3.7 4.1 28.9 26.2z"/><path d="m95.3.1-7.9.4z"/></g></g></g><g clip-path="url(#c)"><g clip-path="url(#d)"><path d="m-35.1-1.6h466v466h-466z" fill="none"/><path d="m-35.1-1.6h466v466h-466z" fill="#fff"/><g fill="#25793d"><path d="m93.4-1.6h112.5v112.5h-112.5z"/><path d="m93.4 30.5v-8l-8 8-8 8.1v8l8-8z"/><path d="m93.4 62.7v-8.1l-8 8.1-8 8v8l8-8z"/><path d="m93.4 14.5v-8.1l-8 8.1-8 8v8l8-8z"/><path d="m93.4-1.6h-8l-8 8v8.1z"/><path d="m93.4 46.6v-8l-8 8-8 8v8.1l8-8.1z"/><path d="m93.4 78.7v-8l-8 8-8 8.1v8l8-8z"/><path d="m93.4 94.8v-8l-8 8-8 8.1v8l8-8z"/><path d="m77.4 94.8-16.1 16.1h-8l24.1-24.1z"/><path d="m77.4 78.7-32.2 32.2h-8l40.2-40.2z"/><path d="m77.4 62.7-48.2 48.2h-8.1l56.3-56.3z"/><path d="m77.4 46.6-64.3 64.3h-8l72.3-72.3z"/><path d="m77.4 30.5-80.4 80.4h-8l88.4-88.4z"/><path d="m77.4 14.5-96.4 96.4h-8.1l104.5-104.5z"/><path d="m13.1-1.6h-8l-40.2 40.2v8z"/><path d="m29.2-1.6h-8.1l-56.2 56.2v8.1z"/><path d="m45.2-1.6h-8l-72.3 72.3v8z"/><path d="m61.3-1.6h-8l-88.4 88.4v8z"/><path d="m77.4-1.6h-8.1l-104.4 104.5v8z"/></g><g fill="#e62f34"><path d="m-35.1 30.5 32.1-32.1h8.1l-40.2 40.2z"/><path d="m-35.1 46.6 48.2-48.2h8l-56.2 56.2z"/><path d="m-35.1 62.7 64.3-64.3h8l-72.3 72.3z"/><path d="m-35.1 78.7 80.3-80.3h8.1l-88.4 88.4z"/><path d="m-35.1 94.8 96.4-96.4h8l-104.4 104.5z"/><path d="m61.3 110.9h8l8.1-8v-8.1z"/><path d="m45.2 110.9h8.1l24.1-24.1v-8.1z"/><path d="m29.2 110.9h8l40.2-40.2v-8z"/><path d="m13.1 110.9h8l56.3-56.3v-8z"/><path d="m-3 110.9h8.1l72.3-72.3v-8.1z"/><path d="m-19 110.9h8l88.4-88.4v-8z"/><path d="m-35.1 110.9h8l104.5-104.5v-8z"/></g></g></g><g clip-path="url(#e)"><g clip-path="url(#f)"><path d="m125.1-205.4h232.6v232.6h-232.6z" fill="none" transform="matrix(.6991 -.715 .715 .6991 136.3283 145.8161)"/><path d="m125.1-205.4h232.6v232.6h-232.6z" fill="#25793d" transform="matrix(.6991 -.715 .715 .6991 136.3283 145.8161)"/></g><g clip-path="url(#f)"><path d="m-37.4-39.1h232.6v232.6h-232.6z" fill="none" transform="matrix(.6991 -.715 .715 .6991 -31.4744 79.5925)"/><path d="m-37.4-39.1h232.6v232.6h-232.6z" fill="#25793d" transform="matrix(.6991 -.715 .715 .6991 -31.4744 79.5925)"/><g fill="#e62f34"><path d="m47.7 97.1.1 3.9 3.9-3.9 3.8-4v-3.9l-3.9 4z"/><path d="m47.6 81.5v3.9l3.9-4 3.8-3.9v-4l-3.9 4z"/><path d="m51.7 104.9 3.9-4v-3.9l-3.9 4-3.9 4 .1 3.9z"/><path d="m47.6 89.3.1 3.9 3.9-4 3.8-3.9v-3.9l-3.9 3.9z"/><path d="m47.5 73.6v3.9l3.9-3.9 3.9-4-.1-3.9-3.9 4z"/><path d="m47.3 54.1 3.8-4 3.9-4v-3.9l-3.9 4-3.9 3.9z"/><path d="m54.8 30.5v-3.9l-3.9 3.9-3.9 4 .1 3.9 3.8-4z"/><path d="m47.3 58v3.9l3.9-4 3.9-3.9-.1-3.9-3.8 3.9z"/><path d="m47.4 65.8v3.9l3.9-3.9 3.9-4-.1-3.9-3.8 3.9z"/><path d="m54.9 38.3v-3.9l-3.9 4-3.9 3.9.1 3.9 3.8-3.9z"/><path d="m54.7 22.6v-3.9l-3.9 4-3.9 4 .1 3.9 3.9-4z"/><path d="m54.6 7-.1-3.9-3.9 3.9-3.8 4v3.9l3.9-4z"/><path d="m54.6 14.8v-3.9l-3.9 4-3.8 3.9v3.9l3.9-3.9z"/><path d="m46.7 3.2v3.9l3.9-4 3.9-3.9-.1-4-3.8 4z"/><path d="m90.3 49.7-3.9 3.9h3.9l3.9-4 3.9-3.9h-4z"/><path d="m82.4 45.8-3.9.1-3.9 3.9-3.9 4 4-.1 3.8-3.9z"/><path d="m98.1 49.6-3.9 3.9h3.9l3.9-4 3.9-3.9h-3.9z"/><path d="m90.2 45.7-3.9.1-3.9 3.9-3.8 4h3.9l3.9-4z"/><path d="m74.6 45.9-3.9.1-3.9 3.9-3.9 4 3.9-.1 3.9-3.9z"/><path d="m39.4 54.1h3.9l3.9-4 3.9-3.9h-3.9l-3.9 4z"/><path d="m23.8 54.3h3.9l3.8-4 3.9-3.9h-3.9l-3.9 4z"/><path d="m47.3 54.1 3.9-.1 3.8-3.9 3.9-4h-3.9l-3.9 4z"/><path d="m62.9 50 3.8-4-3.9.1-3.8 3.9-3.9 4 3.9-.1z"/><path d="m31.6 54.2h3.9l3.9-4 3.9-3.9h-4l-3.8 4z"/><path d="m15.9 54.4h3.9l3.9-4 3.9-4-3.9.1-3.9 3.9z"/><path d="m4.1 46.7-3.9.1-3.9 3.9.1 3.9z"/><path d="m8.1 50.6 3.8-4-3.9.1-3.9 3.9-3.8 4 3.9-.1z"/><path d="m8.1 54.5h3.9l3.9-4 3.9-4-4 .1-3.8 3.9z"/></g></g><g clip-path="url(#f)"><path d="m-200 127.2h232.6v232.6h-232.6z" fill="none" transform="matrix(.6991 -.715 .715 .6991 -199.2772 13.3688)"/><path d="m-200 127.2h232.6v232.6h-232.6z" fill="#25793d" transform="matrix(.6991 -.715 .715 .6991 -199.2772 13.3688)"/></g><g clip-path="url(#f)"><path d="m-203.7-201.7h232.6v232.6h-232.6z" fill="none" transform="matrix(.6991 -.715 .715 .6991 34.7492 -88.2103)"/><path d="m-203.7-201.7h232.6v232.6h-232.6z" fill="#25793d" transform="matrix(.6991 -.715 .715 .6991 34.7492 -88.2103)"/></g></g><g clip-path="url(#g)"><g fill="#97cb59"><path d="m9.4-7.5-16.6 28.5-16.6-28.5 16.6-28.5z"/><path d="m42.7-7.5-16.6 28.5-16.7-28.5 16.7-28.5z"/><path d="m75.9-7.5-16.6 28.5-16.6-28.5 16.6-28.5z"/><path d="m109.2-7.5-16.6 28.5-16.7-28.5 16.7-28.5z"/></g><path d="m26.1 21.1-16.7 28.5-16.6-28.5 16.6-28.5z" fill="#da2128"/><path d="m59.3 21.1-16.6 28.5-16.6-28.5 16.6-28.5z" fill="#00a14b"/><path d="m92.6 21.1-16.7 28.5-16.6-28.5 16.6-28.5z" fill="#da2128"/><path d="m109.2 49.6-16.6-28.5 16.6-28.5z" fill="#00a14b"/><path d="m26.1 77.9-16.7 28.5-16.6-28.5 16.6-28.5z" fill="#00a14b"/><path d="m59.3 77.9-16.6 28.5-16.6-28.5 16.6-28.5z" fill="#96171a"/><path d="m92.6 77.9-16.7 28.5-16.6-28.5 16.6-28.5z" fill="#00a14b"/><path d="m109.2 106.4-16.6-28.5 16.6-28.5z" fill="#da2128"/><g fill="#97cb59"><path d="m9.4 49.5-16.6 28.5-16.6-28.5 16.6-28.5z"/><path d="m42.7 49.5-16.6 28.5-16.7-28.5 16.7-28.5z"/><path d="m75.9 49.5-16.6 28.5-16.6-28.5 16.6-28.5z"/><path d="m109.2 49.5-16.6 28.5-16.7-28.5 16.7-28.5z"/><path d="m9.4 106.5-16.6 28.5-16.6-28.5 16.6-28.5z"/><path d="m42.7 106.5-16.6 28.5-16.7-28.5 16.7-28.5z"/><path d="m75.9 106.5-16.6 28.5-16.6-28.5 16.6-28.5z"/><path d="m109.2 106.5-16.6 28.5-16.7-28.5 16.7-28.5z"/></g><path d="m109.2 78.2-16.6-28.3 16.5-28.2.1-.2-.1-.2-16.4-28.2 16.4-28.1h-.1l.1-.2-.6-.3-16.3 27.9-16.6-28.4-16.6 28.4-16.6-28.4-16.6 28.4-16.6-28.4-16.6 28.4-16.6-28.4-16.6 28.4-16.6-28.4-16.6 28.4-16.6-28.4-16.6 28.4-16.6-28.4-16.6 28.4-16.5-28.4-16.6 28.4-16.6-28.4-16.6 28.4-16.6-28.4-16.6 28.4-16.6-28.4-16.7 28.5-16.2-27.8-.6.3 16.5 28.2-16.6 28.3 16.6 28.3-16.6 28.3 16.6 28.3-16.6 28.3 16.7 28.5-16.7 28.5 16.6 28.3-16.6 28.3 16.6 28.5v.1l-16.6 28.4 16.6 28.3-16.5 28.2.6.3 16.3-27.9v.1l16.6 28.4 16.6-28.4 16.6 28.4 16.6-28.4 16.6 28.4 16.6-28.4 16.6 28.4 16.6-28.4 16.6 28.4 16.6-28.4 16.6 28.4 16.6-28.4 16.6 28.4 16.6-28.4 16.6 28.4 16.6-28.4 16.6 28.4 16.6-28.4 16.6 28.4 16.5-28 16.6 28.4 16.6-28.4 16.3 27.9.6-.3v-.1l-16.5-28.2 16.5-28.2.1-.2-.1-.2-16.5-28.2 16.5-28.2h-.1l.1-.1.1-.2-16.6-28.3 16.5-28.2.1-.2-.1-.2-16.5-28.2 16.5-28.2h-.1l.1-.1.1-.2-16.5-28.3 16.4-28.2zm-17 27.6-16.2-27.6 16.2-27.7 16.2 27.7zm-33.2 227.4-16.2-27.6 16.2-27.7 16.2 27.7zm-33.2 0-16.2-27.6 16.2-27.7 16.2 27.7zm-33.2 0-16.2-27.6 16.2-27.7 16.2 27.7zm-33.2 0-16.2-27.6 16.2-27.7 16.2 27.7zm-33.2 0-16.2-27.6 16.2-27.7 16.2 27.7zm-33.2 0-16.2-27.6 16.2-27.7 16.2 27.7zm-33.1 0-16.2-27.6 16.2-27.7 16.2 27.7zm-33.2 0-16.2-27.6 16.2-27.7 16.2 27.7zm-33.2 0-16.2-27.6 16.2-27.7 16.2 27.7zm-33.2 0-16.2-27.6 16.2-27.7 16.2 27.7zm0-339.3 16.2 27.6-16.2 27.7-16.2-27.7zm33.2 0 16.2 27.6-16.2 27.7-16.2-27.7zm33.2 0 16.2 27.6-16.2 27.7-16.2-27.7zm33.2 0 16.2 27.6-16.2 27.7-16.2-27.7zm33.1 0 16.2 27.6-16.2 27.7-16.2-27.7zm33.2 0 16.2 27.6-16.2 27.7-16.2-27.7zm33.2 0 16.2 27.6-16.2 27.7-16.2-27.7zm33.2 0 16.2 27.6-16.2 27.7-16.2-27.7zm33.2 0 16.2 27.6-16.2 27.7-16.2-27.7zm33.2 0 16.2 27.6-16.2 27.7-16.2-27.7zm16.2 198-16.2 27.7v-.1.1l-8.1-13.8-8.1-13.9 16.2-27.7 8.1 13.9zm-16.2-86.1-16.2-27.6 16.2-27.6 16.2 27.7zm-265.5-55.2 16.2 27.6-16.2 27.7v-.1.1l-16.2-27.7zm33.2 0 16.2 27.6-16.2 27.7v-.1.1l-16.2-27.7zm33.2 0 16.2 27.6-16.2 27.7v-.1.1l-16.2-27.7zm33.1 0 16.2 27.6-16.2 27.7v-.1.1l-16.2-27.7zm33.2 0 16.2 27.6-16.2 27.7v-.1.1l-16.2-27.7zm33.2 0 16.2 27.6-16.2 27.7v-.1.1l-16.2-27.7zm33.2 0 16.2 27.6-16.2 27.7v-.1.1l-16.2-27.7zm33.2 0 16.2 27.6-16.2 27.7v-.1.1l-16.2-27.7zm16.2 141.3-16.2 27.7v-.1.1l-8.1-13.8-8.1-13.9 16.2-27.8 8.1 13.9zm-16.6 28.4-16.2 27.7-16.2-27.7 16.2-27.7 8.1 13.9zm-132.3-.7-8.1-13.8-8.1-13.9 8.1-13.9 8.1-13.9 8.1 13.9 8.1 13.9-8.1 13.9zm25-13.8-8.1-13.9 16.2-27.8 8.1 13.9 8.1 13.9-16.2 27.7v-.1.1zm57.9-14.5-16.2-27.8 16.2-27.8 16.2 27.8-5.8 9.8zm-33.2 0-16.2-27.8 16.2-27.8 16.2 27.8-5.8 9.8zm-66.4-55.5 16.2 27.8-16.2 27.8-16.2-27.8zm17 27.7 16.2-27.8 16.2 27.8-11.3 19.3-5 8.5-11.9-20.4zm115.4-28.5-16.2 27.7-16.1-27.7 16.2-27.7zm-33.2 0-16.2 27.7-16.1-27.7 16.2-27.7zm-33.2 0-16.2 27.7-16.1-27.7 16.2-27.7zm-33.2 0-16.2 27.7-16.2-27.7 16.2-27.7zm-33.2 0-16.2 27.7-16.2-27.7 16.2-27.7zm-49.3-27.7 16.2 27.7-16.2 27.7-16.2-27.7zm116.5 84.6 16.2-27.8 8.1 13.9 8.1 13.9-16.2 27.7v-.1.1l-8.1-13.8zm33.2 0 16.2-27.8 8.1 13.9 8.1 13.9-16.2 27.7v-.1.1l-8.1-13.8zm32.8-.6-16.2-27.8 16.2-27.8 16.2 27.8-5.8 9.8zm16.6-84 16.2 27.7-16.2 27.7-16.1-27.7zm-.4-.7-16.2 27.6-16.2-27.7 16.2-27.6zm-33.2 0-16.2 27.6-16.2-27.7 16.2-27.6zm-33.2 0-16.2 27.7-16.2-27.7 16.2-27.7zm-33.2 0-16.2 27.7-16.2-27.7 16.2-27.7zm-33.2 0-16.2 27.7-16.2-27.7 16.2-27.7zm-33.2 0-16.2 27.7-16.2-27.7 16.2-27.7zm-33.2 0-16.2 27.7-16.2-27.7 16.2-27.7zm17.1 29.2 16.2 27.8-16.2 27.8-16.2-27.8zm.3 56.1 8.1-13.9 8.1-13.9 8.1 13.9 8.1 13.9-8.1 13.9-8.1 13.8v-.1.1l-8.1-13.8zm16.7 28.4 8.1-13.8 8.1-13.9 8.1 13.9 8.1 13.8-16.2 27.7zm33.2 0 8.1-13.8 8.1-13.8 16.2 27.7-16.3 27.6zm33.2 0 16.2-27.7 8.1 13.9 8.1 13.8-16.3 27.7zm33.2 0 16.2-27.7 8.1 13.9 8.1 13.8-16.3 27.7zm-166.9-113.7-16.2 27.7-16.2-27.7 16.2-27.7zm.5.7 16.2 27.7-16.2 27.7-16.2-27.7zm49.8 85.3 8.1 13.9 8.1 13.8-16.2 27.7-16.2-27.7 8.1-13.8zm-16.6 28.4 16.2 27.7-16.2 27.7-16.2-27.7zm33.2 0 16.2 27.7-16.2 27.7-16.2-27.7zm33.1 0 16.2 27.7-16.2 27.7-16.2-27.7zm33.2 0 16.2 27.7-16.2 27.7-16.2-27.7zm33.2 0 16.2 27.7-16.2 27.7-16.2-27.7zm33.2 0 16.2 27.7-16.2 27.7-16.2-27.7zm33.2 0 16.2 27.7-16.2 27.7-16.1-27.7zm16.6-86.8-16.2-27.7 16.2-27.7 16.2 27.7zm-232.3 1.6 16.2 27.8-16.2 27.8-16.2-27.8zm.3 56.1 8.1-13.9 8.1-13.9 8.1 13.9 8.1 13.9-8.1 13.9-8.1 13.8v-.1.1l-8.1-13.8zm-.8 56.8-16.2 27.7-16.2-27.7 16.2-27.7zm232.8-57.4-16.2-27.8 16.2-27.8 16.2 27.8-5.8 9.8zm0-113.7-16.1-27.7 16.2-27.7 16.2 27.7zm-33.2 0-16.1-27.7 16.1-27.7 16.2 27.7zm-33.2 0-16.2-27.7 16.2-27.7 16.2 27.7zm-33.2 0-16.2-27.7 16.2-27.7 16.2 27.7zm-33.2 0-16.2-27.7 16.2-27.7 16.2 27.7zm-17-27.7-16.2 27.7-16.2-27.7 16.2-27.7zm-33.2 0-16.2 27.7-16.2-27.7 16.2-27.7zm-33.2 0-16.2 27.7-16.2-27.7 16.2-27.7zm-33.2 0-16.2 27.7-16.2-27.7 16.2-27.7zm17.1 142.7 8.1 13.9 8.1 13.8-16.2 27.7-16.2-27.7 8.1-13.8zm-17 84.6-16.2 27.8-16.2-27.8 16.2-27.8zm.7 0 16.2-27.8 16.2 27.8-16.2 27.8zm33.2 0 16.2-27.8 16.2 27.8-16.2 27.8zm33.2 0 16.2-27.8 16.2 27.8-16.2 27.8zm33.2 0 16.2-27.8 16.2 27.8-16.2 27.8zm33.2 0 16.2-27.8 16.2 27.8-16.2 27.8zm33.2 0 16.2-27.8 16.2 27.8-16.2 27.7zm33.2 0 16.2-27.8 16.2 27.8-16.2 27.7zm33.2 0 16.2-27.8 16.2 27.8-16.2 27.8zm32.8-.8-16.2-27.7 16.2-27.7 16.2 27.7zm-.4-56.1-16.2 27.7-16.2-27.7 16.2-27.7 8.1 13.9zm.4-57.6-16.1-27.7 16.1-27.7 16.2 27.7zm.4-112.8 16.2-27.7 16.2 27.7-16.2 27.7zm-299.1.7 16.2 27.6-16.2 27.7v-.1.1l-16.2-27.7zm16.1 84.4-16.2 27.7-16.2-27.7 16.2-27.7zm.5.8 16.2 27.8-16.2 27.8-16.2-27.8zm.3 56.1 8.1-13.9 8.1-13.9 8.1 13.9 8.1 13.9-8.1 13.9-8.1 13.8v-.1.1l-8.1-13.8zm-17.4-142-16.2 27.7-16.2-27.7 16.2-27.7zm0 56.7-16.2 27.7-16.2-27.7 16.2-27.7zm17.1 86 8.1 13.9 8.1 13.8-16.2 27.7-16.2-27.7 8.1-13.8zm-16.6 28.4 16.2 27.7-16.2 27.7-16.2-27.7zm299.1 56.2 16.2-27.8 16.2 27.8-16.2 27.8zm16.2-85.9-16.2-27.8 16.2-27.8 16.2 27.8-5.8 9.8zm0-57.1-16.2-27.7 16.2-27.7 16.2 27.7zm16.6-85.1-16.2-27.6 16.2-27.7v.1-.1l16.1 27.6zm-16.6-28.3-16.1-27.7 16.1-27.6 16.2 27.6zm-33.2 0-16.1-27.7 16.1-27.6 16.2 27.6zm-33.2 0-16.1-27.7 16.1-27.6 16.2 27.6zm-33.2 0-16.1-27.7 16.1-27.6 16.2 27.6zm-33.2 0-16.1-27.7 16.1-27.6 16.2 27.6zm-33.2 0-16.1-27.6 16.1-27.6 16.1 27.6zm-33.2 0-16.1-27.6 16.1-27.6 16.1 27.6zm-33.1 0-16.1-27.6 16.1-27.6 16.1 27.6zm-33.2 0-16.1-27.6 16.1-27.6 16.1 27.6zm-33.2 0-16.1-27.6 16.1-27.6 16.1 27.5zm-33.2 0-16.1-27.6 16.1-27.6 16.1 27.6zm0 115 16.2 27.8-16.2 27.8-16.2-27.8zm.4 56.1 8.1-13.9 8.1-13.9 8.1 13.9 8.1 13.9-8.1 13.9-8.1 13.8v-.1.1l-8.1-13.8zm15.8 85.3-16.2 27.8-16.2-27.8 16.2-27.8zm-.1 56.8-16.2 27.7-16.2-27.7 16.2-27.7zm17.1-27.7 16.1 27.7-16.2 27.7-16.2-27.7zm33.2 0 16.2 27.7-16.2 27.7-16.2-27.7zm33.2 0 16.2 27.7-16.2 27.7-16.2-27.7zm33.1 0 16.2 27.7-16.2 27.7-16.2-27.7zm33.2 0 16.2 27.7-16.2 27.7-16.2-27.7zm33.2 0 16.2 27.7-16.2 27.7-16.1-27.7zm33.2 0 16.2 27.7-16.2 27.7-16.1-27.7zm33.2 0 16.2 27.7-16.2 27.7-16.1-27.7zm33.2 0 16.2 27.7-16.2 27.7-16.1-27.7zm33.2 0 16.2 27.7-16.2 27.7-16.2-27.7zm16.6 26.9-16.2-27.6 16.2-27.7 16.2 27.7zm0-112.2 16.2 27.7-16.2 27.7-16.2-27.7zm-.4-.7-16.2 27.7-16.2-27.7 16.2-27.7 8.1 13.9zm.4-113 16.2 27.7-16.2 27.7-16.1-27.7zm-348.5 85.3 8.1 13.9 8.1 13.8-16.2 27.7-16.2-27.7 8.1-13.8zm364.7-.7-16.2 27.7v-.1.1l-8.1-13.8-8.1-13.9 16.2-27.8 3.9 6.7zm-397.5-170.4 16.1-27.7v.1-.1l16.1 27.6-16.2 27.7v.1zm0 56.7 16.2-27.7v.1l16.2 27.7-16.2 27.7v-.1.1zm16.1 29 16.2 27.8-16.2 27.7-16.2-27.8zm-16.1 84.7 16.2-27.8 8.1 13.9 8.1 13.9-8.1 13.9-8.1 13.8v-.1.1zm16.1 29 16.2 27.8-16.2 27.7-16.2-27.8zm-16.1 84.7 16.2-27.8 16.2 27.7-16.2 27.7v.1z" fill="#d1e39b"/></g><g clip-path="url(#h)"><g clip-path="url(#i)"><path d="m51.8 76.1h57.5v57.5h-57.5z" fill="none"/><g fill="#ee2424"><path d="m55.2 76.1-3.4 3.4v3.3l6.7-6.7z"/><path d="m85.6 76.1-33.8 33.8v3.4l37.2-37.2z"/><path d="m92.4 76.1-40.6 40.6v16.9l57.5-57.5z"/></g><path d="m58.5 76.1-6.7 6.7v27.1l33.8-33.8z" fill="#67bc45"/><path d="m55.2 76.1h-3.4v3.4z" fill="#fff"/><path d="m89 76.1-37.2 37.2v3.4l40.6-40.6z" fill="#fff"/><path d="m109.3 79.5-54.1 54.1h3.3l50.8-50.8z" fill="#ee2424"/><path d="m109.3 82.8-50.8 50.8h27.1l23.7-23.7z" fill="#67bc45"/><path d="m109.3 76.1-57.5 57.5h3.4l54.1-54.1z" fill="#fff"/></g></g></svg>