<?xml version="1.0" encoding="utf-8"?>
<!-- Generator: Adobe Illustrator 22.1.0, SVG Export Plug-In . SVG Version: 6.00 Build 0)  -->
<svg version="1.1" id="Layer_1" xmlns="http://www.w3.org/2000/svg" xmlns:xlink="http://www.w3.org/1999/xlink" x="0px" y="0px"
	 viewBox="0 0 100 100" style="enable-background:new 0 0 100 100;" xml:space="preserve">
<style type="text/css">
	.st0{fill:#BE1E2D;}
	.st1{fill:#00B0BB;}
	.st2{fill:#63C4AF;}
	.st3{fill:#EAEAEA;}
	.st4{fill:#413E34;}
	.st5{fill:none;}
	.st6{clip-path:url(#SVGID_2_);}
	.st7{clip-path:url(#SVGID_4_);}
	.st8{fill:#1E0D12;}
	.st9{fill:#E62F34;}
	.st10{fill:#25793D;}
	.st11{clip-path:url(#SVGID_6_);}
	.st12{clip-path:url(#SVGID_8_);}
	.st13{fill:#FFFFFF;}
	.st14{clip-path:url(#SVGID_10_);}
	.st15{clip-path:url(#SVGID_12_);}
	.st16{fill:#96BF4D;}
	.st17{clip-path:url(#SVGID_14_);}
	.st18{fill-rule:evenodd;clip-rule:evenodd;fill:#FFFFFF;}
	.st19{fill:#C92927;}
	.st20{fill:#253748;}
	.st21{clip-path:url(#SVGID_16_);}
	.st22{fill:#97CB59;}
	.st23{fill:#DA2128;}
	.st24{fill:#00A14B;}
	.st25{fill:#96171A;}
	.st26{fill:#D1E39B;}
	.st27{fill:#4FBBBB;}
	.st28{fill:#37343F;}
	.st29{fill:#077A64;}
	.st30{fill:#F4EED4;}
	.st31{fill:#012E47;}
	.st32{fill:#BE1C42;}
	.st33{fill:#008E9F;}
	.st34{fill:#CD4134;}
	.st35{clip-path:url(#SVGID_18_);}
	.st36{clip-path:url(#SVGID_20_);}
	.st37{fill:#EE2424;}
	.st38{fill:#67BC45;}
	.st39{clip-path:url(#SVGID_22_);}
	.st40{clip-path:url(#SVGID_24_);}
	.st41{fill:#004A54;}
	.st42{fill:#D93128;}
	.st43{fill:#401B23;}
	.st44{fill:#EE2D40;}
	.st45{fill:#F1EBC9;}
	.st46{fill-rule:evenodd;clip-rule:evenodd;fill:#C92927;}
	.st47{fill-rule:evenodd;clip-rule:evenodd;fill:#96BF4D;}
	.st48{fill:#BD3026;}
	.st49{opacity:0.4;fill:#CD4134;}
	.st50{fill:#E6B448;}
	.st51{fill:#E21F26;}
	.st52{fill:#A82123;}
	.st53{fill:#383A3A;}
	.st54{fill:#F17B22;}
	.st55{fill:#F1F0DC;}
	.st56{fill:#56AE78;}
	.st57{fill:#EE262E;}
	.st58{fill:#C47229;}
	.st59{fill:#FEC010;}
	.st60{fill:#C0343E;}
	.st61{fill:url(#SVGID_25_);}
	.st62{fill:#659DAA;}
	.st63{fill:#C9A784;}
	.st64{fill:#DDCFB5;}
	.st65{fill:#D2A886;}
	.st66{fill:#9B3227;}
	.st67{opacity:0.39;fill:#FFFFFF;}
	.st68{fill:#E5E5E5;}
	.st69{fill:#202945;}
	.st70{fill:none;stroke:#ACA300;stroke-miterlimit:10;}
	.st71{fill:none;stroke:#ACA300;stroke-miterlimit:10;stroke-dasharray:2.0083,2.0083;}
	.st72{fill:#ACA300;}
</style>
<g>
	<defs>
		<rect id="SVGID_1_" x="700" y="-140" width="100" height="100"/>
	</defs>
	<clipPath id="SVGID_2_">
		<use xlink:href="#SVGID_1_"  style="overflow:visible;"/>
	</clipPath>
	<g class="st6">
		<g>
			<defs>
				
					<rect id="SVGID_3_" x="232.5" y="-146.7" transform="matrix(0.6711 -0.7413 0.7413 0.6711 190.4715 537.7853)" width="937.7" height="401.9"/>
			</defs>
			<clipPath id="SVGID_4_">
				<use xlink:href="#SVGID_3_"  style="overflow:visible;"/>
			</clipPath>
			<g class="st7">
				
					<rect x="-48.6" y="-99.5" transform="matrix(0.6711 -0.7413 0.7413 0.6711 -71.1325 265.731)" class="st5" width="625.1" height="625.1"/>
				
					<rect x="-48.6" y="-99.5" transform="matrix(0.6711 -0.7413 0.7413 0.6711 -71.1325 265.731)" class="st8" width="625.1" height="625.1"/>
				<polygon class="st5" points="32.2,3.3 32.2,3.3 32.2,3.3 				"/>
				<polygon class="st10" points="35.1,60.5 37.5,109.8 37.7,113.6 46.2,113.2 53.5,112.9 53.5,112.9 63.2,112.4 69.2,112.1 
					69.2,112.1 77.1,111.7 77.1,111.7 81.9,111.4 92.9,110.9 92.9,110.9 96.6,110.7 108.7,110.1 108.7,110.1 111.3,110 124.4,109.3 
					124.4,109.3 126,109.2 148.1,108.1 145.3,53 142.6,-2.2 134.7,-1.8 126.8,-1.4 79.5,0.9 32.2,3.3 35,58.4 35,58.4 				"/>
				<polygon class="st10" points="32.2,3.3 32.2,3.3 32.2,3.3 32.2,3.3 				"/>
				<polygon class="st10" points="14.1,114.8 -31.5,73.6 -35.2,77.7 6.2,115.2 				"/>
				<polygon class="st10" points="21.9,114.4 29.8,114 -24,65.3 -27.7,69.5 				"/>
				<polygon class="st10" points="32.6,11.1 28.5,7.4 24.7,11.5 33,19 				"/>
				<polygon class="st10" points="33,19 32.6,11.1 32.6,11.1 33,19 				"/>
				<polygon class="st10" points="33.4,26.9 21,15.7 17.2,19.8 33.8,34.8 				"/>
				<polygon class="st10" points="33.4,26.9 33.4,26.9 33.8,34.8 33.8,34.8 				"/>
				<polygon class="st10" points="34.2,42.7 13.5,23.9 9.8,28.1 34.6,50.6 				"/>
				<polygon class="st10" points="34.2,42.7 34.2,42.7 34.6,50.6 34.6,50.6 				"/>
				<polygon class="st10" points="35,58.4 35,58.4 35.1,60.5 				"/>
				<polygon class="st10" points="35,58.4 6,32.2 2.3,36.4 35.4,66.3 				"/>
				<polygon class="st10" points="35.1,60.5 35,58.4 35,58.4 35.4,66.3 35.4,66.3 				"/>
				<polygon class="st10" points="35.8,74.2 -1.5,40.5 -5.2,44.6 36.1,82.1 				"/>
				<polygon class="st10" points="35.8,74.2 35.8,74.2 36.1,82.1 36.2,82.1 				"/>
				<polygon class="st10" points="36.5,90 -9,48.8 -12.7,52.9 36.9,97.9 				"/>
				<polygon class="st10" points="36.5,90 36.5,90 36.9,97.9 36.9,97.9 				"/>
				<polygon class="st10" points="37.3,105.7 -16.5,57 -20.2,61.2 37.7,113.6 				"/>
				<polygon class="st10" points="79.5,0.9 79.5,0.9 126.8,-1.4 123.6,-1.3 				"/>
				<polygon class="st10" points="77.9,1 32.2,3.3 32.2,3.3 79.5,0.9 				"/>
				<polygon class="st10" points="39.7,-5 36,-0.9 40.1,2.9 48,2.5 				"/>
				<polygon class="st10" points="48,2.5 48,2.5 40.1,2.9 40.1,2.9 				"/>
				<polygon class="st10" points="40.1,2.9 48,2.5 40.1,2.9 				"/>
				<polygon class="st10" points="63.8,1.7 47.2,-13.3 43.5,-9.2 55.9,2.1 				"/>
				<polygon class="st10" points="55.9,2.1 55.9,2.1 63.8,1.7 63.8,1.7 				"/>
				<polygon class="st10" points="55.9,2.1 63.8,1.7 55.9,2.1 				"/>
				<polygon class="st10" points="79.5,0.9 77.9,1 79.5,0.9 				"/>
				<polygon class="st10" points="79.5,0.9 54.7,-21.6 51,-17.4 71.7,1.3 				"/>
				<polygon class="st10" points="79.5,0.9 71.7,1.3 71.7,1.3 79.5,0.9 				"/>
				<polygon class="st10" points="79.5,0.9 71.7,1.3 71.7,1.3 77.9,1 79.5,0.9 				"/>
				<polygon class="st10" points="95.3,0.1 62.2,-29.8 58.5,-25.7 87.4,0.5 				"/>
				<polygon class="st10" points="95.3,0.1 95.3,0.1 87.4,0.5 87.4,0.5 				"/>
			</g>
		</g>
	</g>
</g>
<g>
	<defs>
		<rect id="SVGID_5_" x="-140" y="0" width="100" height="100"/>
	</defs>
	<clipPath id="SVGID_6_">
		<use xlink:href="#SVGID_5_"  style="overflow:visible;"/>
	</clipPath>
	<g class="st11">
		<g>
			<defs>
				<rect id="SVGID_7_" x="-211.3" y="-698.9" width="595" height="1388.2"/>
			</defs>
			<clipPath id="SVGID_8_">
				<use xlink:href="#SVGID_7_"  style="overflow:visible;"/>
			</clipPath>
			<g class="st12">
				<rect x="-35.1" y="-1.6" class="st5" width="466" height="466"/>
				<rect x="-35.1" y="-1.6" class="st13" width="466" height="466"/>
				<rect x="93.4" y="-1.6" class="st10" width="112.5" height="112.5"/>
				<g>
					<polygon class="st10" points="93.4,30.5 93.4,22.5 85.4,30.5 77.4,38.6 77.4,46.6 85.4,38.6 					"/>
					<polygon class="st10" points="93.4,62.7 93.4,54.6 85.4,62.7 77.4,70.7 77.4,78.7 85.4,70.7 					"/>
					<polygon class="st10" points="93.4,14.5 93.4,6.4 85.4,14.5 77.4,22.5 77.4,30.5 85.4,22.5 					"/>
					<polygon class="st10" points="93.4,-1.6 85.4,-1.6 77.4,6.4 77.4,14.5 					"/>
					<polygon class="st10" points="93.4,46.6 93.4,38.6 85.4,46.6 77.4,54.6 77.4,62.7 85.4,54.6 					"/>
					<polygon class="st10" points="93.4,78.7 93.4,70.7 85.4,78.7 77.4,86.8 77.4,94.8 85.4,86.8 					"/>
					<polygon class="st10" points="93.4,94.8 93.4,86.8 85.4,94.8 77.4,102.9 77.4,110.9 85.4,102.9 					"/>
				</g>
				<g>
					<polygon class="st10" points="77.4,94.8 61.3,110.9 53.3,110.9 77.4,86.8 					"/>
					<polygon class="st10" points="77.4,78.7 45.2,110.9 37.2,110.9 77.4,70.7 					"/>
					<polygon class="st10" points="77.4,62.7 29.2,110.9 21.1,110.9 77.4,54.6 					"/>
					<polygon class="st10" points="77.4,46.6 13.1,110.9 5.1,110.9 77.4,38.6 					"/>
					<polygon class="st10" points="77.4,30.5 -3,110.9 -11,110.9 77.4,22.5 					"/>
					<polygon class="st10" points="77.4,14.5 -19,110.9 -27.1,110.9 77.4,6.4 					"/>
					<polygon class="st10" points="13.1,-1.6 5.1,-1.6 -35.1,38.6 -35.1,46.6 					"/>
					<polygon class="st10" points="29.2,-1.6 21.1,-1.6 -35.1,54.6 -35.1,62.7 					"/>
					<polygon class="st10" points="45.2,-1.6 37.2,-1.6 -35.1,70.7 -35.1,78.7 					"/>
					<polygon class="st10" points="61.3,-1.6 53.3,-1.6 -35.1,86.8 -35.1,94.8 					"/>
					<polygon class="st10" points="77.4,-1.6 69.3,-1.6 -35.1,102.9 -35.1,110.9 					"/>
				</g>
				<g>
					<polygon class="st9" points="-35.1,30.5 -3,-1.6 5.1,-1.6 -35.1,38.6 					"/>
					<polygon class="st9" points="-35.1,46.6 13.1,-1.6 21.1,-1.6 -35.1,54.6 					"/>
					<polygon class="st9" points="-35.1,62.7 29.2,-1.6 37.2,-1.6 -35.1,70.7 					"/>
					<polygon class="st9" points="-35.1,78.7 45.2,-1.6 53.3,-1.6 -35.1,86.8 					"/>
					<polygon class="st9" points="-35.1,94.8 61.3,-1.6 69.3,-1.6 -35.1,102.9 					"/>
					<polygon class="st9" points="61.3,110.9 69.3,110.9 77.4,102.9 77.4,94.8 					"/>
					<polygon class="st9" points="45.2,110.9 53.3,110.9 77.4,86.8 77.4,78.7 					"/>
					<polygon class="st9" points="29.2,110.9 37.2,110.9 77.4,70.7 77.4,62.7 					"/>
					<polygon class="st9" points="13.1,110.9 21.1,110.9 77.4,54.6 77.4,46.6 					"/>
					<polygon class="st9" points="-3,110.9 5.1,110.9 77.4,38.6 77.4,30.5 					"/>
					<polygon class="st9" points="-19,110.9 -11,110.9 77.4,22.5 77.4,14.5 					"/>
					<polygon class="st9" points="-35.1,110.9 -27.1,110.9 77.4,6.4 77.4,-1.6 					"/>
				</g>
			</g>
		</g>
	</g>
</g>
<g>
	<defs>
		<rect id="SVGID_9_" x="0" y="0" width="100" height="100"/>
	</defs>
	<clipPath id="SVGID_10_">
		<use xlink:href="#SVGID_9_"  style="overflow:visible;"/>
	</clipPath>
	<g class="st14">
		<g>
			<defs>
				
					<rect id="SVGID_11_" x="-326" y="-97.1" transform="matrix(0.6991 -0.715 0.715 0.6991 -30.5536 24.1331)" width="678.8" height="290.9"/>
			</defs>
			<clipPath id="SVGID_12_">
				<use xlink:href="#SVGID_11_"  style="overflow:visible;"/>
			</clipPath>
			<g class="st15">
				
					<rect x="125.1" y="-205.4" transform="matrix(0.6991 -0.715 0.715 0.6991 136.3283 145.8161)" class="st5" width="232.6" height="232.6"/>
				
					<rect x="125.1" y="-205.4" transform="matrix(0.6991 -0.715 0.715 0.6991 136.3283 145.8161)" class="st10" width="232.6" height="232.6"/>
			</g>
			<g class="st15">
				
					<rect x="-37.4" y="-39.1" transform="matrix(0.6991 -0.715 0.715 0.6991 -31.4744 79.5925)" class="st5" width="232.6" height="232.6"/>
				
					<rect x="-37.4" y="-39.1" transform="matrix(0.6991 -0.715 0.715 0.6991 -31.4744 79.5925)" class="st10" width="232.6" height="232.6"/>
				<polygon class="st9" points="47.7,97.1 47.8,101 51.7,97.1 55.5,93.1 55.5,89.2 51.6,93.2 				"/>
				<polygon class="st9" points="47.6,81.5 47.6,85.4 51.5,81.4 55.3,77.5 55.3,73.5 51.4,77.5 				"/>
				<polygon class="st9" points="51.7,104.9 55.6,100.9 55.6,97 51.7,101 47.8,105 47.9,108.9 				"/>
				<polygon class="st9" points="47.6,89.3 47.7,93.2 51.6,89.2 55.4,85.3 55.4,81.4 51.5,85.3 				"/>
				<polygon class="st9" points="47.5,73.6 47.5,77.5 51.4,73.6 55.3,69.6 55.2,65.7 51.3,69.7 				"/>
				<polygon class="st9" points="47.3,54.1 51.1,50.1 55,46.1 55,42.2 51.1,46.2 47.2,50.1 				"/>
				<polygon class="st9" points="54.8,30.5 54.8,26.6 50.9,30.5 47,34.5 47.1,38.4 50.9,34.4 				"/>
				<polygon class="st9" points="47.3,58 47.3,61.9 51.2,57.9 55.1,54 55,50.1 51.2,54 				"/>
				<polygon class="st9" points="47.4,65.8 47.4,69.7 51.3,65.8 55.2,61.8 55.1,57.9 51.3,61.8 				"/>
				<polygon class="st9" points="54.9,38.3 54.9,34.4 51,38.4 47.1,42.3 47.2,46.2 51,42.3 				"/>
				<polygon class="st9" points="54.7,22.6 54.7,18.7 50.8,22.7 46.9,26.7 47,30.6 50.9,26.6 				"/>
				<polygon class="st9" points="54.6,7 54.5,3.1 50.6,7 46.8,11 46.8,14.9 50.7,10.9 				"/>
				<polygon class="st9" points="54.6,14.8 54.6,10.9 50.7,14.9 46.9,18.8 46.9,22.7 50.8,18.8 				"/>
				<polygon class="st9" points="46.7,3.2 46.7,7.1 50.6,3.1 54.5,-0.8 54.4,-4.8 50.6,-0.8 				"/>
				<polygon class="st9" points="90.3,49.7 86.4,53.6 90.3,53.6 94.2,49.6 98.1,45.7 94.1,45.7 				"/>
				<polygon class="st9" points="82.4,45.8 78.5,45.9 74.6,49.8 70.7,53.8 74.7,53.7 78.5,49.8 				"/>
				<polygon class="st9" points="98.1,49.6 94.2,53.5 98.1,53.5 102,49.5 105.9,45.6 102,45.6 				"/>
				<polygon class="st9" points="90.2,45.7 86.3,45.8 82.4,49.7 78.6,53.7 82.5,53.7 86.4,49.7 				"/>
				<polygon class="st9" points="74.6,45.9 70.7,46 66.8,49.9 62.9,53.9 66.8,53.8 70.7,49.9 				"/>
				<polygon class="st9" points="39.4,54.1 43.3,54.1 47.2,50.1 51.1,46.2 47.2,46.2 43.3,50.2 				"/>
				<polygon class="st9" points="23.8,54.3 27.7,54.3 31.5,50.3 35.4,46.4 31.5,46.4 27.6,50.4 				"/>
				<polygon class="st9" points="47.3,54.1 51.2,54 55,50.1 58.9,46.1 55,46.1 51.1,50.1 				"/>
				<polygon class="st9" points="62.9,50 66.7,46 62.8,46.1 59,50 55.1,54 59,53.9 				"/>
				<polygon class="st9" points="31.6,54.2 35.5,54.2 39.4,50.2 43.3,46.3 39.3,46.3 35.5,50.3 				"/>
				<polygon class="st9" points="15.9,54.4 19.8,54.4 23.7,50.4 27.6,46.4 23.7,46.5 19.8,50.4 				"/>
				<polygon class="st9" points="4.1,46.7 0.2,46.8 -3.7,50.7 -3.6,54.6 				"/>
				<polygon class="st9" points="8.1,50.6 11.9,46.6 8,46.7 4.1,50.6 0.3,54.6 4.2,54.5 				"/>
				<polygon class="st9" points="8.1,54.5 12,54.5 15.9,50.5 19.8,46.5 15.8,46.6 12,50.5 				"/>
			</g>
			<g class="st15">
				
					<rect x="-200" y="127.2" transform="matrix(0.6991 -0.715 0.715 0.6991 -199.2772 13.3688)" class="st5" width="232.6" height="232.6"/>
				
					<rect x="-200" y="127.2" transform="matrix(0.6991 -0.715 0.715 0.6991 -199.2772 13.3688)" class="st10" width="232.6" height="232.6"/>
			</g>
			<g class="st15">
				
					<rect x="-203.7" y="-201.7" transform="matrix(0.6991 -0.715 0.715 0.6991 34.7492 -88.2103)" class="st5" width="232.6" height="232.6"/>
				
					<rect x="-203.7" y="-201.7" transform="matrix(0.6991 -0.715 0.715 0.6991 34.7492 -88.2103)" class="st10" width="232.6" height="232.6"/>
			</g>
		</g>
	</g>
</g>
<g>
	<defs>
		<rect id="SVGID_15_" x="-140" y="140" width="100" height="100"/>
	</defs>
	<clipPath id="SVGID_14_">
		<use xlink:href="#SVGID_15_"  style="overflow:visible;"/>
	</clipPath>
	<g class="st17">
		<polygon class="st22" points="9.4,-7.5 -7.2,21 -23.8,-7.5 -7.2,-36 		"/>
		<polygon class="st22" points="42.7,-7.5 26.1,21 9.4,-7.5 26.1,-36 		"/>
		<polygon class="st22" points="75.9,-7.5 59.3,21 42.7,-7.5 59.3,-36 		"/>
		<polygon class="st22" points="109.2,-7.5 92.6,21 75.9,-7.5 92.6,-36 		"/>
		<polygon class="st23" points="26.1,21.1 9.4,49.6 -7.2,21.1 9.4,-7.4 		"/>
		<polygon class="st24" points="59.3,21.1 42.7,49.6 26.1,21.1 42.7,-7.4 		"/>
		<polygon class="st23" points="92.6,21.1 75.9,49.6 59.3,21.1 75.9,-7.4 		"/>
		<polygon class="st24" points="109.2,49.6 92.6,21.1 109.2,-7.4 		"/>
		<polygon class="st24" points="26.1,77.9 9.4,106.4 -7.2,77.9 9.4,49.4 		"/>
		<polygon class="st25" points="59.3,77.9 42.7,106.4 26.1,77.9 42.7,49.4 		"/>
		<polygon class="st24" points="92.6,77.9 75.9,106.4 59.3,77.9 75.9,49.4 		"/>
		<polygon class="st23" points="109.2,106.4 92.6,77.9 109.2,49.4 		"/>
		<polygon class="st22" points="9.4,49.5 -7.2,78 -23.8,49.5 -7.2,21 		"/>
		<polygon class="st22" points="42.7,49.5 26.1,78 9.4,49.5 26.1,21 		"/>
		<polygon class="st22" points="75.9,49.5 59.3,78 42.7,49.5 59.3,21 		"/>
		<polygon class="st22" points="109.2,49.5 92.6,78 75.9,49.5 92.6,21 		"/>
		<polygon class="st22" points="9.4,106.5 -7.2,135 -23.8,106.5 -7.2,78 		"/>
		<polygon class="st22" points="42.7,106.5 26.1,135 9.4,106.5 26.1,78 		"/>
		<polygon class="st22" points="75.9,106.5 59.3,135 42.7,106.5 59.3,78 		"/>
		<polygon class="st22" points="109.2,106.5 92.6,135 75.9,106.5 92.6,78 		"/>
		<path class="st26" d="M109.2,78.2L92.6,49.9l16.5-28.2l0.1-0.2l-0.1-0.2l0,0L92.7-6.9L109.1-35L109-35l0.1-0.2l-0.6-0.3L92.2-7.6
			L75.6-36L59-7.6L42.4-36L25.8-7.6L9.2-36L-7.4-7.6L-24-36L-40.6-7.6L-57.2-36L-73.8-7.6L-90.4-36L-107-7.6L-123.6-36l-16.6,28.4
			L-156.7-36l-16.6,28.4L-189.9-36l-16.6,28.4L-223.1-36l-16.6,28.4L-256.3-36L-273-7.5l-16.2-27.8l-0.6,0.3l16.5,28.2l-16.6,28.3
			l16.6,28.3l-16.6,28.3l16.6,28.3l-16.6,28.3l16.7,28.5l-16.7,28.5l16.6,28.3l-16.6,28.3l16.6,28.5l0,0.1l0,0l-16.6,28.4l16.6,28.3
			l-16.5,28.2l0.6,0.3l16.3-27.9l0,0.1l0,0l16.6,28.4l16.6-28.4l0,0l0,0l16.6,28.4l16.6-28.4l0,0l0,0l16.6,28.4l16.6-28.4l0,0l0,0
			l16.6,28.4l16.6-28.4l0,0l0,0l16.6,28.4l16.6-28.4l0,0l0,0l16.6,28.4l16.6-28.4l0,0l0,0l16.6,28.4l16.6-28.4l0,0l0,0l16.6,28.4
			l16.6-28.4l0,0l0,0l16.6,28.4l16.6-28.4l0,0l0,0l16.6,28.4L59,334.7l0,0l0,0l16.6,28.4l16.6-28.4l0,0l0,0l16.3,27.9l0.6-0.3l0-0.1
			l0,0L92.6,334l16.5-28.2l0.1-0.2l-0.1-0.2l0,0l-16.5-28.2l16.5-28.2l-0.1,0l0.1-0.1l0.1-0.2l-16.6-28.3l16.5-28.2l0.1-0.2
			l-0.1-0.2l0,0l-16.5-28.2l16.5-28.2l-0.1,0l0.1-0.1l0.1-0.2l-16.5-28.3l16.4-28.2l0,0l0,0L109.2,78.2z M92.2,105.8L92.2,105.8
			L76,78.2l16.2-27.7l0,0l0,0l16.2,27.7L92.2,105.8L92.2,105.8z M59,333.2L59,333.2l-16.2-27.6L59,277.9l16.2,27.7L59,333.2
			L59,333.2z M25.8,333.2L25.8,333.2L9.6,305.6l16.2-27.7L42,305.6L25.8,333.2L25.8,333.2z M-7.4,333.2L-7.4,333.2l-16.2-27.6
			l16.2-27.7l16.2,27.7L-7.4,333.2L-7.4,333.2z M-40.6,333.2L-40.6,333.2l-16.2-27.6l16.2-27.7l16.2,27.7L-40.6,333.2L-40.6,333.2z
			 M-73.8,333.2L-73.8,333.2L-90,305.6l16.2-27.7l16.2,27.7L-73.8,333.2L-73.8,333.2z M-107,333.2L-107,333.2l-16.2-27.6l16.2-27.7
			l16.2,27.7L-107,333.2L-107,333.2z M-140.1,333.2L-140.1,333.2l-16.2-27.6l16.2-27.7l16.2,27.7L-140.1,333.2L-140.1,333.2z
			 M-173.3,333.2L-173.3,333.2l-16.2-27.6l16.2-27.7l16.2,27.7L-173.3,333.2L-173.3,333.2z M-206.5,333.2L-206.5,333.2l-16.2-27.6
			l16.2-27.7l16.2,27.7L-206.5,333.2L-206.5,333.2z M-239.7,333.2L-239.7,333.2l-16.2-27.6l16.2-27.7l16.2,27.7L-239.7,333.2
			L-239.7,333.2z M-239.7-6.1L-239.7-6.1l16.2,27.6l-16.2,27.7l0,0l0,0l-16.2-27.7L-239.7-6.1L-239.7-6.1z M-206.5-6.1L-206.5-6.1
			l16.2,27.6l-16.2,27.7l0,0l0,0l-16.2-27.7L-206.5-6.1L-206.5-6.1z M-173.3-6.1L-173.3-6.1l16.2,27.6l-16.2,27.7l0,0l0,0
			l-16.2-27.7L-173.3-6.1L-173.3-6.1z M-140.1-6.1L-140.1-6.1l16.2,27.6l-16.2,27.7l0,0l0,0l-16.2-27.7L-140.1-6.1L-140.1-6.1z
			 M-107-6.1L-107-6.1l16.2,27.6l-16.2,27.7l0,0l0,0l-16.2-27.7L-107-6.1L-107-6.1z M-73.8-6.1L-73.8-6.1l16.2,27.6l-16.2,27.7l0,0
			l0,0l-16.2-27.7L-73.8-6.1L-73.8-6.1z M-40.6-6.1L-40.6-6.1l16.2,27.6l-16.2,27.7l0,0l0,0l-16.2-27.7L-40.6-6.1L-40.6-6.1z
			 M-7.4-6.1L-7.4-6.1L8.8,21.5L-7.4,49.2l0,0l0,0l-16.2-27.7L-7.4-6.1L-7.4-6.1z M25.8-6.1L25.8-6.1L42,21.5L25.8,49.2l0,0l0,0
			L9.6,21.5L25.8-6.1L25.8-6.1z M59-6.1L59-6.1l16.2,27.6L59,49.2l0,0l0,0L42.8,21.5L59-6.1L59-6.1z M75.2,191.9l-16.2,27.7l0-0.1
			l0,0.1l-8.1-13.8l-8.1-13.9L59,164.2l8.1,13.9L75.2,191.9z M59,105.8L59,105.8L42.8,78.2L59,50.6l0,0l0,0l16.2,27.7L59,105.8
			L59,105.8z M-206.5,50.6L-206.5,50.6l16.2,27.6l-16.2,27.7l0-0.1l0,0.1l-16.2-27.7L-206.5,50.6L-206.5,50.6z M-173.3,50.6
			L-173.3,50.6l16.2,27.6l-16.2,27.7l0-0.1l0,0.1l-16.2-27.7L-173.3,50.6L-173.3,50.6z M-140.1,50.6L-140.1,50.6l16.2,27.6
			l-16.2,27.7l0-0.1l0,0.1l-16.2-27.7L-140.1,50.6L-140.1,50.6z M-107,50.6L-107,50.6l16.2,27.6l-16.2,27.7l0-0.1l0,0.1l-16.2-27.7
			L-107,50.6L-107,50.6z M-73.8,50.6L-73.8,50.6l16.2,27.6l-16.2,27.7l0-0.1l0,0.1L-90,78.2L-73.8,50.6L-73.8,50.6z M-40.6,50.6
			L-40.6,50.6l16.2,27.6l-16.2,27.7l0-0.1l0,0.1l-16.2-27.7L-40.6,50.6L-40.6,50.6z M-7.4,50.6L-7.4,50.6L8.8,78.2l-16.2,27.7l0-0.1
			l0,0.1l-16.2-27.7L-7.4,50.6L-7.4,50.6z M25.8,50.6L25.8,50.6L42,78.2l-16.2,27.7l0-0.1l0,0.1L9.6,78.2L25.8,50.6L25.8,50.6z
			 M42,191.9l-16.2,27.7l0-0.1l0,0.1l-8.1-13.8l-8.1-13.9l16.2-27.8l8.1,13.9L42,191.9z M25.4,220.3L9.2,248l-16.2-27.7l16.2-27.7
			l8.1,13.9L25.4,220.3z M-106.9,219.6L-106.9,219.6L-106.9,219.6l-8.1-13.8l-8.1-13.9l8.1-13.9l8.1-13.9l8.1,13.9l8.1,13.9
			l-8.1,13.9L-106.9,219.6z M-81.9,205.8l-8.1-13.9l16.2-27.8l8.1,13.9l8.1,13.9l-16.2,27.7l0-0.1l0,0.1L-81.9,205.8z M-24,191.3
			l-16.2-27.8l16.2-27.8l16.2,27.8l-5.8,9.8L-24,191.3z M-57.2,191.3l-16.2-27.8l16.2-27.8l16.2,27.8l-5.8,9.8L-57.2,191.3z
			 M-123.6,135.8l16.2,27.8l-16.2,27.8l-16.2-27.8L-123.6,135.8z M-106.6,163.5l16.2-27.8l16.2,27.8l-11.3,19.3l-5,8.5l-11.9-20.4
			L-106.6,163.5z M8.8,135l-16.2,27.7L-23.5,135l16.2-27.7L8.8,135z M-24.4,135l-16.2,27.7L-56.7,135l16.2-27.7L-24.4,135z
			 M-57.6,135l-16.2,27.7L-89.9,135l16.2-27.7L-57.6,135z M-90.8,135l-16.2,27.7l-16.2-27.7l16.2-27.7L-90.8,135z M-124,135
			l-16.2,27.7l-16.2-27.7l16.2-27.7L-124,135z M-173.3,107.3l16.2,27.7l-16.2,27.7l-16.2-27.7L-173.3,107.3z M-56.8,191.9l16.2-27.8
			l8.1,13.9l8.1,13.9l-16.2,27.7l0-0.1l0,0.1l-8.1-13.8L-56.8,191.9z M-23.6,191.9l16.2-27.8L0.7,178l8.1,13.9l-16.2,27.7l0-0.1
			l0,0.1l-8.1-13.8L-23.6,191.9z M9.2,191.3L-7,163.5l16.2-27.8l16.2,27.8l-5.8,9.8L9.2,191.3z M25.8,107.3L42,135l-16.2,27.7
			L9.7,135L25.8,107.3z M25.4,106.6L9.2,134.2l-16.2-27.7L9.2,78.9L25.4,106.6z M-7.8,106.6L-24,134.2l-16.2-27.7L-24,78.9
			L-7.8,106.6z M-41,106.6l-16.2,27.7l-16.2-27.7l16.2-27.7L-41,106.6z M-74.2,106.6l-16.2,27.7l-16.2-27.7l16.2-27.7L-74.2,106.6z
			 M-107.4,106.6l-16.2,27.7l-16.2-27.7l16.2-27.7L-107.4,106.6z M-140.6,106.6l-16.2,27.7l-16.2-27.7l16.2-27.7L-140.6,106.6z
			 M-173.8,106.6l-16.2,27.7l-16.2-27.7l16.2-27.7L-173.8,106.6z M-156.7,135.8l16.2,27.8l-16.2,27.8l-16.2-27.8L-156.7,135.8z
			 M-156.4,191.9l8.1-13.9l8.1-13.9l8.1,13.9l8.1,13.9l-8.1,13.9l-8.1,13.8l0-0.1l0,0.1l-8.1-13.8L-156.4,191.9z M-139.7,220.3
			l8.1-13.8l8.1-13.9l8.1,13.9l8.1,13.8l-16.2,27.7L-139.7,220.3z M-106.5,220.3l8.1-13.8l8.1-13.8l16.2,27.7L-90.4,248
			L-106.5,220.3z M-73.3,220.3l16.2-27.7l8.1,13.9l8.1,13.8L-57.2,248L-73.3,220.3z M-40.1,220.3l16.2-27.7l8.1,13.9l8.1,13.8
			L-24,248L-40.1,220.3z M-207,106.6l-16.2,27.7l-16.2-27.7l16.2-27.7L-207,106.6z M-206.5,107.3l16.2,27.7l-16.2,27.7l-16.2-27.7
			L-206.5,107.3z M-156.7,192.6l8.1,13.9l8.1,13.8l-16.2,27.7l-16.2-27.7l8.1-13.8L-156.7,192.6z M-173.3,221l16.2,27.7l-16.2,27.7
			l-16.2-27.7L-173.3,221z M-140.1,221l16.2,27.7l-16.2,27.7l-16.2-27.7L-140.1,221z M-107,221l16.2,27.7l-16.2,27.7l-16.2-27.7
			L-107,221z M-73.8,221l16.2,27.7l-16.2,27.7l-16.2-27.7L-73.8,221z M-40.6,221l16.2,27.7l-16.2,27.7l-16.2-27.7L-40.6,221z
			 M-7.4,221l16.2,27.7l-16.2,27.7l-16.2-27.7L-7.4,221z M25.8,221L42,248.7l-16.2,27.7L9.7,248.7L25.8,221z M42.4,134.2l-16.2-27.7
			l16.2-27.7l16.2,27.7L42.4,134.2z M-189.9,135.8l16.2,27.8l-16.2,27.8l-16.2-27.8L-189.9,135.8z M-189.6,191.9l8.1-13.9l8.1-13.9
			l8.1,13.9l8.1,13.9l-8.1,13.9l-8.1,13.8l0-0.1l0,0.1l-8.1-13.8L-189.6,191.9z M-190.4,248.7l-16.2,27.7l-16.2-27.7l16.2-27.7
			L-190.4,248.7z M42.4,191.3l-16.2-27.8l16.2-27.8l16.2,27.8l-5.8,9.8L42.4,191.3z M42.4,77.6L26.3,49.9l16.2-27.7l16.2,27.7
			L42.4,77.6z M9.2,77.6L-6.9,49.9L9.2,22.2l16.2,27.7L9.2,77.6z M-24,77.6l-16.2-27.7L-24,22.2l16.2,27.7L-24,77.6z M-57.2,77.6
			l-16.2-27.7l16.2-27.7L-41,49.9L-57.2,77.6z M-90.4,77.6l-16.2-27.7l16.2-27.7l16.2,27.7L-90.4,77.6z M-107.4,49.9l-16.2,27.7
			l-16.2-27.7l16.2-27.7L-107.4,49.9z M-140.6,49.9l-16.2,27.7l-16.2-27.7l16.2-27.7L-140.6,49.9z M-173.8,49.9l-16.2,27.7
			l-16.2-27.7l16.2-27.7L-173.8,49.9z M-207,49.9l-16.2,27.7l-16.2-27.7l16.2-27.7L-207,49.9z M-189.9,192.6l8.1,13.9l8.1,13.8
			l-16.2,27.7l-16.2-27.7l8.1-13.8L-189.9,192.6z M-206.9,277.2l-16.2,27.8l-16.2-27.8l16.2-27.8L-206.9,277.2z M-206.2,277.2
			l16.2-27.8l16.2,27.8l-16.2,27.8L-206.2,277.2z M-173,277.2l16.2-27.8l16.2,27.8l-16.2,27.8L-173,277.2z M-139.8,277.2l16.2-27.8
			l16.2,27.8l-16.2,27.8L-139.8,277.2z M-106.6,277.2l16.2-27.8l16.2,27.8l-16.2,27.8L-106.6,277.2z M-73.4,277.2l16.2-27.8
			l16.2,27.8l-16.2,27.8L-73.4,277.2z M-40.2,277.2l16.2-27.8l16.2,27.8L-24,304.9L-40.2,277.2z M-7,277.2l16.2-27.8l16.2,27.8
			L9.2,304.9L-7,277.2z M26.2,277.2l16.2-27.8l16.2,27.8l-16.2,27.8L26.2,277.2z M59,276.4l-16.2-27.7L59,221l16.2,27.7L59,276.4z
			 M58.6,220.3L42.4,248l-16.2-27.7l16.2-27.7l8.1,13.9L58.6,220.3z M59,162.7L42.9,135L59,107.3L75.2,135L59,162.7z M59.4,49.9
			l16.2-27.7l16.2,27.7L75.6,77.6L59.4,49.9z M-239.7,50.6L-239.7,50.6l16.2,27.6l-16.2,27.7l0-0.1l0,0.1l-16.2-27.7L-239.7,50.6
			L-239.7,50.6z M-223.6,135l-16.2,27.7l-16.2-27.7l16.2-27.7L-223.6,135z M-223.1,135.8l16.2,27.8l-16.2,27.8l-16.2-27.8
			L-223.1,135.8z M-222.8,191.9l8.1-13.9l8.1-13.9l8.1,13.9l8.1,13.9l-8.1,13.9l-8.1,13.8l0-0.1l0,0.1l-8.1-13.8L-222.8,191.9z
			 M-240.2,49.9l-16.2,27.7l-16.2-27.7l16.2-27.7L-240.2,49.9z M-240.2,106.6l-16.2,27.7l-16.2-27.7l16.2-27.7L-240.2,106.6z
			 M-223.1,192.6l8.1,13.9l8.1,13.8l-16.2,27.7l-16.2-27.7l8.1-13.8L-223.1,192.6z M-239.7,221l16.2,27.7l-16.2,27.7l-16.2-27.7
			L-239.7,221z M59.4,277.2l16.2-27.8l16.2,27.8l-16.2,27.8L59.4,277.2z M75.6,191.3l-16.2-27.8l16.2-27.8l16.2,27.8l-5.8,9.8
			L75.6,191.3z M75.6,134.2l-16.2-27.7l16.2-27.7l16.2,27.7L75.6,134.2z M92.2,49.1L92.2,49.1L76,21.5L92.2-6.2l0,0.1l0-0.1
			l16.1,27.6L92.2,49.1L92.2,49.1z M75.6,20.8L59.5-6.9l16.1-27.6L91.8-6.9L75.6,20.8z M42.4,20.8L26.3-6.9l16.1-27.6L58.6-6.9
			L42.4,20.8z M9.2,20.8L-6.9-6.9L9.2-34.5L25.4-6.9L9.2,20.8z M-24,20.8L-40.1-6.9L-24-34.5L-7.8-6.9L-24,20.8z M-57.2,20.8
			L-73.3-6.9l16.1-27.6L-41-6.9L-57.2,20.8z M-90.4,20.8l-16.1-27.6l16.1-27.6l16.1,27.6L-90.4,20.8z M-123.6,20.8l-16.1-27.6
			l16.1-27.6l16.1,27.6L-123.6,20.8z M-156.7,20.8l-16.1-27.6l16.1-27.6l16.1,27.6L-156.7,20.8z M-189.9,20.8l-16.1-27.6l16.1-27.6
			l16.1,27.6L-189.9,20.8z M-223.1,20.8l-16.1-27.6l16.1-27.6L-207-6.9L-223.1,20.8z M-256.3,20.8l-16.1-27.6l16.1-27.6l16.1,27.6
			L-256.3,20.8z M-256.3,135.8l16.2,27.8l-16.2,27.8l-16.2-27.8L-256.3,135.8z M-255.9,191.9l8.1-13.9l8.1-13.9l8.1,13.9l8.1,13.9
			l-8.1,13.9l-8.1,13.8l0-0.1l0,0.1l-8.1-13.8L-255.9,191.9z M-240.1,277.2l-16.2,27.8l-16.2-27.8l16.2-27.8L-240.1,277.2z
			 M-240.2,334l-16.2,27.7l-16.2-27.7l16.2-27.7L-240.2,334z M-223.1,306.3L-207,334l-16.2,27.7l-16.2-27.7L-223.1,306.3z
			 M-189.9,306.3l16.2,27.7l-16.2,27.7l-16.2-27.7L-189.9,306.3z M-156.7,306.3l16.2,27.7l-16.2,27.7l-16.2-27.7L-156.7,306.3z
			 M-123.6,306.3l16.2,27.7l-16.2,27.7l-16.2-27.7L-123.6,306.3z M-90.4,306.3l16.2,27.7l-16.2,27.7l-16.2-27.7L-90.4,306.3z
			 M-57.2,306.3L-41,334l-16.2,27.7L-73.3,334L-57.2,306.3z M-24,306.3L-7.8,334L-24,361.7L-40.1,334L-24,306.3z M9.2,306.3
			L25.4,334L9.2,361.7L-6.9,334L9.2,306.3z M42.4,306.3L58.6,334l-16.2,27.7L26.3,334L42.4,306.3z M75.6,306.3L91.8,334l-16.2,27.7
			L59.4,334L75.6,306.3z M92.2,333.2L92.2,333.2L76,305.6l16.2-27.7l16.2,27.7L92.2,333.2L92.2,333.2z M92.2,221l16.2,27.7
			l-16.2,27.7L76,248.7L92.2,221z M91.8,220.3L75.6,248l-16.2-27.7l16.2-27.7l8.1,13.9L91.8,220.3z M92.2,107.3l16.2,27.7
			l-16.2,27.7L76.1,135L92.2,107.3z M-256.3,192.6l8.1,13.9l8.1,13.8l-16.2,27.7l-16.2-27.7l8.1-13.8L-256.3,192.6z M108.4,191.9
			l-16.2,27.7l0-0.1l0,0.1l-8.1-13.8L76,191.9l16.2-27.8l3.9,6.7L108.4,191.9z M-289.1,21.5L-273-6.2l0,0.1l0-0.1l16.1,27.6
			l-16.2,27.7l0,0l0,0.1L-289.1,21.5z M-289.1,78.2l16.2-27.7l0,0.1l0,0l16.2,27.7l-16.2,27.7l0-0.1l0,0.1L-289.1,78.2z M-273,107.2
			l16.2,27.8l-16.2,27.7l-16.2-27.8L-273,107.2z M-289.1,191.9l16.2-27.8l8.1,13.9l8.1,13.9l-8.1,13.9l-8.1,13.8l0-0.1l0,0.1
			L-289.1,191.9z M-273,220.9l16.2,27.8l-16.2,27.7l-16.2-27.8L-273,220.9z M-289.1,305.6l16.2-27.8l16.2,27.7l-16.2,27.7l0,0l0,0.1
			L-289.1,305.6z"/>
	</g>
</g>
<g>
	<defs>
		<rect id="SVGID_17_" x="140" y="280" width="100" height="100"/>
	</defs>
	<clipPath id="SVGID_16_">
		<use xlink:href="#SVGID_17_"  style="overflow:visible;"/>
	</clipPath>
	<g class="st21">
		<g>
			<defs>
				<rect id="SVGID_19_" x="108.1" y="76.1" width="172.2" height="516.6"/>
			</defs>
			<clipPath id="SVGID_18_">
				<use xlink:href="#SVGID_19_"  style="overflow:visible;"/>
			</clipPath>
			<g class="st35">
				<rect x="51.8" y="76.1" class="st5" width="57.5" height="57.5"/>
				<polygon class="st37" points="55.2,76.1 51.8,79.5 51.8,82.8 58.5,76.1 				"/>
				<polygon class="st37" points="85.6,76.1 51.8,109.9 51.8,113.3 89,76.1 				"/>
				<polygon class="st37" points="92.4,76.1 51.8,116.7 51.8,133.6 51.8,133.6 109.3,76.1 				"/>
				<polygon class="st38" points="58.5,76.1 51.8,82.8 51.8,109.9 85.6,76.1 				"/>
				<polygon class="st13" points="55.2,76.1 51.8,76.1 51.8,76.1 51.8,79.5 				"/>
				<polygon class="st13" points="89,76.1 51.8,113.3 51.8,116.7 92.4,76.1 				"/>
				<polygon class="st37" points="109.3,79.5 55.2,133.6 58.5,133.6 109.3,82.8 				"/>
				<polygon class="st38" points="109.3,82.8 58.5,133.6 85.6,133.6 109.3,109.9 				"/>
				<polygon class="st13" points="109.3,76.1 51.8,133.6 55.2,133.6 109.3,79.5 				"/>
			</g>
		</g>
	</g>
</g>
</svg>
