<?xml version="1.0" encoding="utf-8"?>
<!-- Generator: Adobe Illustrator 22.1.0, SVG Export Plug-In . SVG Version: 6.00 Build 0)  -->
<svg version="1.1" id="Layer_1" xmlns="http://www.w3.org/2000/svg" xmlns:xlink="http://www.w3.org/1999/xlink" x="0px" y="0px"
	 viewBox="0 0 100 100" style="enable-background:new 0 0 100 100;" xml:space="preserve">
<style type="text/css">
	.st0{fill:#BE1E2D;}
	.st1{fill:#00B0BB;}
	.st2{fill:#63C4AF;}
	.st3{fill:#EAEAEA;}
	.st4{fill:#413E34;}
	.st5{fill:none;}
	.st6{clip-path:url(#SVGID_2_);}
	.st7{clip-path:url(#SVGID_4_);}
	.st8{fill:#1E0D12;}
	.st9{fill:#E62F34;}
	.st10{fill:#25793D;}
	.st11{clip-path:url(#SVGID_6_);}
	.st12{clip-path:url(#SVGID_8_);}
	.st13{fill:#FFFFFF;}
	.st14{clip-path:url(#SVGID_10_);}
	.st15{clip-path:url(#SVGID_12_);}
	.st16{fill:#96BF4D;}
	.st17{clip-path:url(#SVGID_14_);}
	.st18{fill-rule:evenodd;clip-rule:evenodd;fill:#FFFFFF;}
	.st19{fill:#C92927;}
	.st20{fill:#253748;}
	.st21{clip-path:url(#SVGID_16_);}
	.st22{fill:#97CB59;}
	.st23{fill:#DA2128;}
	.st24{fill:#00A14B;}
	.st25{fill:#96171A;}
	.st26{fill:#D1E39B;}
	.st27{fill:#4FBBBB;}
	.st28{fill:#37343F;}
	.st29{fill:#077A64;}
	.st30{fill:#F4EED4;}
	.st31{fill:#012E47;}
	.st32{fill:#BE1C42;}
	.st33{fill:#008E9F;}
	.st34{fill:#CD4134;}
	.st35{clip-path:url(#SVGID_18_);}
	.st36{clip-path:url(#SVGID_20_);}
	.st37{fill:#EE2424;}
	.st38{fill:#67BC45;}
	.st39{clip-path:url(#SVGID_22_);}
	.st40{clip-path:url(#SVGID_24_);}
	.st41{fill:#004A54;}
	.st42{fill:#D93128;}
	.st43{fill:#401B23;}
	.st44{fill:#EE2D40;}
	.st45{fill:#F1EBC9;}
	.st46{fill-rule:evenodd;clip-rule:evenodd;fill:#C92927;}
	.st47{fill-rule:evenodd;clip-rule:evenodd;fill:#96BF4D;}
	.st48{fill:#BD3026;}
	.st49{opacity:0.4;fill:#CD4134;}
	.st50{fill:#E6B448;}
	.st51{fill:#E21F26;}
	.st52{fill:#A82123;}
	.st53{fill:#383A3A;}
	.st54{fill:#F17B22;}
	.st55{fill:#F1F0DC;}
	.st56{fill:#56AE78;}
	.st57{fill:#EE262E;}
	.st58{fill:#C47229;}
	.st59{fill:#FEC010;}
	.st60{fill:#C0343E;}
	.st61{fill:url(#SVGID_25_);}
	.st62{fill:#659DAA;}
	.st63{fill:#C9A784;}
	.st64{fill:#DDCFB5;}
	.st65{fill:#D2A886;}
	.st66{fill:#9B3227;}
	.st67{opacity:0.39;fill:#FFFFFF;}
	.st68{fill:#E5E5E5;}
	.st69{fill:#202945;}
	.st70{fill:none;stroke:#ACA300;stroke-miterlimit:10;}
	.st71{fill:none;stroke:#ACA300;stroke-miterlimit:10;stroke-dasharray:2.0083,2.0083;}
	.st72{fill:#ACA300;}
</style>
<g>
	<defs>
		<rect id="SVGID_1_" x="560" y="-140" width="100" height="100"/>
	</defs>
	<clipPath id="SVGID_2_">
		<use xlink:href="#SVGID_1_"  style="overflow:visible;"/>
	</clipPath>
	<g class="st6">
		<g>
			<defs>
				
					<rect id="SVGID_3_" x="92.5" y="-146.7" transform="matrix(0.6711 -0.7413 0.7413 0.6711 144.4317 433.9995)" width="937.7" height="401.9"/>
			</defs>
			<clipPath id="SVGID_4_">
				<use xlink:href="#SVGID_3_"  style="overflow:visible;"/>
			</clipPath>
			<g class="st7">
				
					<rect x="-188.6" y="-99.5" transform="matrix(0.6711 -0.7413 0.7413 0.6711 -117.1723 161.9453)" class="st5" width="625.1" height="625.1"/>
				
					<rect x="-188.6" y="-99.5" transform="matrix(0.6711 -0.7413 0.7413 0.6711 -117.1723 161.9453)" class="st8" width="625.1" height="625.1"/>
				<polygon class="st10" points="-104.9,60.5 -102.5,109.8 -102.3,113.6 -93.8,113.2 -86.5,112.9 -86.5,112.9 -76.8,112.4 
					-70.8,112.1 -70.8,112.1 -62.9,111.7 -62.9,111.7 -58.1,111.4 -47.1,110.9 -47.1,110.9 -43.4,110.7 -31.3,110.1 -31.3,110.1 
					-28.7,110 -15.6,109.3 -15.6,109.3 -14,109.2 8.1,108.1 5.3,53 2.6,-2.2 -5.3,-1.8 -13.2,-1.4 -60.5,0.9 -107.8,3.3 -105,58.4 
					-105,58.4 				"/>
				<polygon class="st10" points="7.3,92.4 23.9,107.4 31.7,107 6.9,84.5 				"/>
				<polygon class="st10" points="6.5,76.6 39.6,106.6 47.5,106.2 6.1,68.7 				"/>
				<polygon class="st10" points="55.4,105.8 63.3,105.4 5.3,53 5.7,60.8 				"/>
				<polygon class="st10" points="5,45.1 71.2,105 79,104.6 4.6,37.2 				"/>
				<polygon class="st10" points="4.2,29.3 86.9,104.2 94.8,103.8 3.8,21.4 				"/>
				<polygon class="st10" points="3.4,13.5 102.7,103.5 110.6,103.1 3,5.7 				"/>
				<polygon class="st10" points="113.4,0.2 105.1,-7.3 97.2,-6.9 113.8,8.1 				"/>
				<polygon class="st10" points="114.2,15.9 89.3,-6.5 81.4,-6.1 114.5,23.8 				"/>
				<polygon class="st10" points="114.9,31.7 73.6,-5.7 65.7,-5.4 115.3,39.6 				"/>
				<polygon class="st10" points="115.7,47.5 57.8,-5 49.9,-4.6 116.1,55.4 				"/>
				<polygon class="st10" points="116.5,63.3 42,-4.2 34.1,-3.8 116.9,71.1 				"/>
				<polygon class="st10" points="117.3,79 26.3,-3.4 18.4,-3 117.7,86.9 				"/>
				<polygon class="st10" points="10.5,-2.6 2.6,-2.2 118.5,102.7 118.1,94.8 				"/>
			</g>
		</g>
	</g>
</g>
<g>
	<defs>
		<rect id="SVGID_5_" x="-280" y="0" width="100" height="100"/>
	</defs>
	<clipPath id="SVGID_6_">
		<use xlink:href="#SVGID_5_"  style="overflow:visible;"/>
	</clipPath>
	<g class="st11">
		<g>
			<defs>
				<rect id="SVGID_7_" x="-351.3" y="-698.9" width="595" height="1388.2"/>
			</defs>
			<clipPath id="SVGID_8_">
				<use xlink:href="#SVGID_7_"  style="overflow:visible;"/>
			</clipPath>
			<g class="st12">
				<rect x="-175.1" y="-1.6" class="st5" width="466" height="466"/>
				<rect x="-175.1" y="-1.6" class="st13" width="466" height="466"/>
				<rect x="-46.6" y="-1.6" class="st10" width="112.5" height="112.5"/>
				<g>
					<g>
						<polygon class="st10" points="178.4,30.5 98,110.9 90,110.9 178.4,22.5 						"/>
						<polygon class="st10" points="178.4,14.5 82,110.9 73.9,110.9 178.4,6.4 						"/>
						<polygon class="st10" points="82,-1.6 73.9,-1.6 65.9,6.4 65.9,14.5 						"/>
						<polygon class="st10" points="98,-1.6 90,-1.6 65.9,22.5 65.9,30.5 						"/>
						<polygon class="st10" points="114.1,-1.6 106.1,-1.6 65.9,38.6 65.9,46.6 						"/>
						<polygon class="st10" points="130.2,-1.6 122.1,-1.6 65.9,54.6 65.9,62.7 						"/>
						<polygon class="st10" points="146.2,-1.6 138.2,-1.6 65.9,70.7 65.9,78.7 						"/>
						<polygon class="st10" points="162.3,-1.6 154.3,-1.6 65.9,86.8 65.9,94.8 						"/>
						<polygon class="st10" points="178.4,-1.6 170.3,-1.6 65.9,102.9 65.9,110.9 						"/>
					</g>
				</g>
			</g>
		</g>
	</g>
</g>
<g>
	<defs>
		<rect id="SVGID_9_" x="-140" y="0" width="100" height="100"/>
	</defs>
	<clipPath id="SVGID_10_">
		<use xlink:href="#SVGID_9_"  style="overflow:visible;"/>
	</clipPath>
	<g class="st14">
		<g>
			<defs>
				
					<rect id="SVGID_11_" x="-466" y="-97.1" transform="matrix(0.6991 -0.715 0.715 0.6991 -72.6743 -75.9651)" width="678.8" height="290.9"/>
			</defs>
			<clipPath id="SVGID_12_">
				<use xlink:href="#SVGID_11_"  style="overflow:visible;"/>
			</clipPath>
			<g class="st15">
				
					<rect x="-14.9" y="-205.4" transform="matrix(0.6991 -0.715 0.715 0.6991 94.2076 45.7179)" class="st5" width="232.6" height="232.6"/>
				
					<rect x="-14.9" y="-205.4" transform="matrix(0.6991 -0.715 0.715 0.6991 94.2076 45.7179)" class="st10" width="232.6" height="232.6"/>
				<polygon class="st9" points="75.6,48.3 79.4,44.3 79.4,40.4 75.5,44.3 73.6,46.3 				"/>
				<polygon class="st9" points="79.3,28.6 79.2,24.7 75.3,28.7 71.5,32.6 71.5,36.6 75.4,32.6 				"/>
				<polygon class="st9" points="77.5,50.2 79.5,52.1 79.5,48.2 				"/>
				<polygon class="st9" points="79.3,36.5 79.3,32.5 75.4,36.5 71.6,40.5 71.6,44.4 75.5,40.4 				"/>
				<polygon class="st9" points="79.2,20.8 79.1,16.9 75.2,20.8 71.4,24.8 71.4,28.7 75.3,24.8 				"/>
				<polygon class="st9" points="79,5.1 78.9,1.2 75.1,5.2 71.2,9.1 71.2,13.1 75.1,9.1 				"/>
				<polygon class="st9" points="79.1,13 79,9.1 75.2,13 71.3,17 71.3,20.9 75.2,16.9 				"/>
				<polygon class="st9" points="75,-2.6 71.1,1.3 71.2,5.2 75,1.3 78.9,-2.7 78.9,-6.6 78.9,-6.6 				"/>
				<polygon class="st9" points="106.8,44 102.9,44 99,48 95.2,51.9 99.1,51.9 103,47.9 				"/>
				<polygon class="st9" points="99,44.1 95.1,44.1 91.2,48.1 87.3,52 91.3,52 95.1,48 				"/>
				<polygon class="st9" points="75.5,44.3 71.6,44.4 73.6,46.3 				"/>
				<polygon class="st9" points="77.5,50.2 79.5,48.2 83.3,44.3 79.4,44.3 75.6,48.3 				"/>
				<polygon class="st9" points="87.3,48.1 91.2,44.2 87.3,44.2 83.4,48.2 79.5,52.1 83.4,52.1 				"/>
			</g>
			<g class="st15">
				
					<rect x="-177.4" y="-39.1" transform="matrix(0.6991 -0.715 0.715 0.6991 -73.5952 -20.5058)" class="st5" width="232.6" height="232.6"/>
				
					<rect x="-177.4" y="-39.1" transform="matrix(0.6991 -0.715 0.715 0.6991 -73.5952 -20.5058)" class="st10" width="232.6" height="232.6"/>
				<polygon class="st5" points="21.1,84.1 21.1,84.1 21.1,80.2 21.1,80.2 				"/>
				<polygon class="st5" points="20.9,60.6 20.9,60.6 20.8,56.7 20.8,56.7 				"/>
				<polygon class="st5" points="21.1,78.3 21.1,80.2 20.9,64.5 20.9,64.5 				"/>
				<polygon class="st5" points="20.7,48.9 20.7,48.9 20.7,45 20.7,47.6 				"/>
				<polygon class="st5" points="20.8,54.2 20.8,56.7 20.8,52.8 20.8,50.2 				"/>
				<polygon class="st5" points="20.7,45 20.7,45 20.7,41 20.7,41 				"/>
				<polygon class="st5" points="20.4,14.1 20.4,17.5 20.3,5.8 20.3,9.4 				"/>
				<polygon class="st5" points="20.6,37.1 20.6,37.1 20.5,25.4 20.5,25.4 				"/>
				<polygon class="st5" points="21.3,99.8 21.3,99.8 21.2,88 21.2,88 				"/>
				<polygon class="st5" points="20.4,21.5 20.4,21.5 20.4,17.5 20.4,17.5 				"/>
				<polygon class="st5" points="20.3,5.8 20.3,5.8 20.2,1.9 20.2,1.9 				"/>
				<polygon class="st9" points="5,45.1 1.1,45.2 -2.7,49.1 -6.6,53.1 -2.7,53 1.2,49.1 				"/>
				<polygon class="st9" points="16.9,52.8 20.8,52.8 20.7,48.9 				"/>
				<polygon class="st9" points="12.9,45 9,45.1 5.1,49 1.2,53 5.1,53 9,49 				"/>
				<polygon class="st9" points="20.7,45 20.7,45 16.8,45 12.9,49 9,52.9 13,52.9 16.8,48.9 				"/>
				<polygon class="st8" points="21.4,103.7 21.4,103.7 21.3,99.8 21.3,99.8 				"/>
				<polygon class="st8" points="21.4,103.7 21.3,99.8 17.4,103.7 				"/>
				<polygon class="st8" points="21.2,91.9 9.6,103.8 13.5,103.8 21.3,95.8 				"/>
				<polygon class="st8" points="21.2,88 21.2,88 21.1,84.1 21.1,84.1 				"/>
				<polygon class="st8" points="21.1,84.1 1.8,103.9 3.1,103.9 5.7,103.9 21.2,88 				"/>
				<polygon class="st8" points="21.1,80.2 21.1,80.2 21.1,78.3 				"/>
				<polygon class="st8" points="21.1,80.2 21.1,78.3 21.1,76.3 -6,104 -3.9,104 -2.1,103.9 				"/>
				<polygon class="st8" points="21,68.4 -13.9,104.1 -10,104 21,72.4 				"/>
				<polygon class="st8" points="20.9,64.5 20.9,64.5 20.9,60.6 20.9,60.6 				"/>
				<polygon class="st8" points="-17.8,104.1 20.9,64.5 20.9,60.6 -21.7,104.2 				"/>
				<polygon class="st8" points="20.8,56.7 20.8,56.7 20.8,54.2 				"/>
				<polygon class="st8" points="20.8,54.2 20.8,52.8 -29.5,104.2 -25.6,104.2 20.8,56.7 				"/>
				<polygon class="st8" points="1.2,49.1 -2.7,53 -33.7,84.7 -33.6,88.6 1.2,53 5.1,49 				"/>
				<polygon class="st8" points="9,49 5.1,53 -33.6,92.5 -33.5,96.5 9,52.9 12.9,49 				"/>
				<polygon class="st8" points="20.7,48.9 16.8,48.9 13,52.9 -33.5,100.4 -33.5,104.3 16.9,52.8 				"/>
				<polygon class="st8" points="20.7,47.6 20.7,45 20.7,45 				"/>
				<polygon class="st8" points="20.7,45 16.8,48.9 20.7,48.9 20.7,47.6 				"/>
				<polygon class="st8" points="20.7,41 20.7,41 20.6,37.1 20.6,37.1 				"/>
				<polygon class="st8" points="20.6,37.1 12.9,45 9,49 12.9,49 16.8,45 20.7,41 				"/>
				<polygon class="st8" points="20.5,29.3 5,45.1 1.2,49.1 5.1,49 9,45.1 20.6,33.2 				"/>
				<polygon class="st8" points="20.5,25.4 20.5,25.4 20.4,21.5 20.4,21.5 				"/>
				<polygon class="st8" points="20.4,21.5 -2.8,45.2 -6.7,49.2 -2.7,49.1 1.1,45.2 20.5,25.4 				"/>
				<polygon class="st8" points="20.4,17.5 20.4,17.5 20.4,14.1 				"/>
				<polygon class="st8" points="20.4,14.1 20.4,13.6 -10.6,45.3 -14.5,49.3 -10.6,49.2 -6.7,45.3 20.4,17.5 				"/>
				<polygon class="st8" points="20.3,9.4 20.3,5.8 20.3,5.8 				"/>
				<polygon class="st8" points="20.3,9.4 20.3,5.8 -18.4,45.4 -22.3,49.4 -18.4,49.3 -14.5,45.3 20.3,9.7 				"/>
				<polygon class="st8" points="20.2,1.9 20.2,-2 20.2,-2 20.2,1.9 				"/>
				<polygon class="st8" points="-26.2,49.4 -22.4,45.4 20.2,1.9 20.2,-2 -26.3,45.5 -30.1,49.4 				"/>
				<polygon class="st8" points="-34.3,29.9 -34.2,33.8 4.5,-5.8 1.9,-5.7 0.6,-5.7 				"/>
				<polygon class="st8" points="-34.2,37.7 -34.2,41.7 12.3,-5.9 8.4,-5.8 				"/>
				<polygon class="st8" points="-34.1,45.6 -34.1,49.5 -30.2,45.5 20.1,-5.9 16.2,-5.9 				"/>
				<polygon class="st9" points="72.2,95.3 72.2,99.2 76.1,95.2 80,91.3 79.9,87.4 76,91.3 				"/>
				<polygon class="st9" points="72,79.6 72,83.5 75.9,79.6 79.8,75.6 79.7,71.7 75.9,75.7 				"/>
				<polygon class="st9" points="76.2,103.1 80,99.1 80,95.2 76.1,99.2 72.3,103.1 72.3,107 				"/>
				<polygon class="st9" points="72.1,87.4 72.1,91.4 76,87.4 79.9,83.4 79.8,79.5 76,83.5 				"/>
				<polygon class="st9" points="71.9,71.8 71.9,75.7 75.8,71.7 79.7,67.8 79.6,63.9 75.8,67.8 				"/>
				<polygon class="st9" points="73.6,46.3 71.6,48.3 71.7,52.2 75.6,48.3 				"/>
				<polygon class="st9" points="75.6,52.2 71.7,56.1 71.8,60 75.6,56.1 79.5,52.1 77.5,50.2 				"/>
				<polygon class="st9" points="71.9,67.9 75.7,63.9 79.6,60 79.6,56 75.7,60 71.8,64 				"/>
				<polygon class="st9" points="71.6,44.4 67.7,48.3 63.9,52.3 67.8,52.3 71.6,48.3 73.6,46.3 				"/>
				<polygon class="st9" points="48.2,52.5 52.1,52.4 56,48.5 59.9,44.5 55.9,44.6 52.1,48.5 				"/>
				<polygon class="st9" points="75.6,48.3 71.7,52.2 75.6,52.2 77.5,50.2 				"/>
				<polygon class="st9" points="59.9,48.4 56,52.4 59.9,52.3 63.8,48.4 67.7,44.4 63.8,44.5 				"/>
				<polygon class="st9" points="40.4,52.6 44.3,52.5 48.2,48.6 52,44.6 48.1,44.6 44.2,48.6 				"/>
				<polygon class="st9" points="20.8,50.2 20.8,52.8 20.7,48.9 20.7,48.9 				"/>
				<polygon class="st9" points="20.7,48.9 20.7,48.9 20.8,50.2 				"/>
				<polygon class="st9" points="28.5,44.9 24.6,44.9 20.7,48.9 20.8,52.8 				"/>
				<polygon class="st9" points="32.5,48.7 36.4,44.8 32.4,44.8 28.6,48.8 24.7,52.7 28.6,52.7 				"/>
				<polygon class="st9" points="32.5,52.7 36.5,52.6 40.3,48.6 44.2,44.7 40.3,44.7 36.4,48.7 				"/>
			</g>
		</g>
	</g>
</g>
<rect x="0" y="0" class="st16" width="100" height="100"/>
<g>
	<defs>
		<rect id="SVGID_13_" x="140" y="0" width="100" height="100"/>
	</defs>
	<clipPath id="SVGID_14_">
		<use xlink:href="#SVGID_13_"  style="overflow:visible;"/>
	</clipPath>
	<g class="st17">
		<rect x="55.4" y="-90.3" class="st18" width="268.4" height="268.4"/>
		<g>
			<polygon class="st19" points="77.8,10.3 94.6,27.1 100.1,32.7 105.7,27.1 122.5,10.3 139.3,27.1 144.9,32.7 150.5,27.1 
				167.3,10.3 189.6,32.7 195.2,27.1 212,10.3 228.8,27.1 234.4,32.7 239.9,27.1 239.9,27.1 256.7,10.3 273.5,27.1 273.5,27.1 
				279.1,32.7 279.1,32.7 279.1,32.7 284.7,27.1 284.7,27.1 301.5,10.3 323.8,32.7 323.8,21.5 307,4.7 301.5,-0.9 295.9,4.7 
				279.1,21.5 256.7,-0.9 251.1,4.7 234.4,21.5 217.6,4.7 212,-0.9 206.4,4.7 189.6,21.5 167.3,-0.9 161.7,4.7 144.9,21.5 
				128.1,4.7 122.5,-0.9 116.9,4.7 100.1,21.5 83.4,4.7 77.8,-0.9 72.2,4.7 55.4,21.5 55.4,32.7 55.4,32.7 			"/>
			<polygon class="st19" points="77.8,55 94.6,71.8 100.1,77.4 105.7,71.8 122.5,55 139.3,71.8 144.9,77.4 150.5,71.8 167.3,55 
				189.6,77.4 195.2,71.8 212,55 228.8,71.8 234.4,77.4 239.9,71.8 239.9,71.8 256.7,55 273.5,71.8 273.5,71.8 279.1,77.4 
				279.1,77.4 279.1,77.4 284.7,71.8 284.7,71.8 301.5,55 323.8,77.4 323.8,66.2 307,49.5 301.5,43.9 295.9,49.5 279.1,66.2 
				256.7,43.9 251.1,49.5 234.4,66.2 217.6,49.5 212,43.9 206.4,49.5 189.6,66.2 167.3,43.9 161.7,49.5 144.9,66.2 128.1,49.5 
				122.5,43.9 116.9,49.5 100.1,66.2 83.4,49.5 77.8,43.9 72.2,49.5 55.4,66.2 55.4,77.4 55.4,77.4 			"/>
			<polygon class="st19" points="77.8,99.8 94.6,116.6 100.1,122.1 105.7,116.6 122.5,99.8 139.3,116.6 144.9,122.1 150.5,116.6 
				167.3,99.8 189.6,122.1 195.2,116.6 212,99.8 228.8,116.6 234.4,122.1 239.9,116.6 239.9,116.6 256.7,99.8 273.5,116.6 
				273.5,116.6 279.1,122.1 279.1,122.1 279.1,122.1 284.7,116.6 284.7,116.6 301.5,99.8 323.8,122.1 323.8,111 307,94.2 
				301.5,88.6 295.9,94.2 279.1,111 256.7,88.6 251.1,94.2 234.4,111 217.6,94.2 212,88.6 206.4,94.2 189.6,111 167.3,88.6 
				161.7,94.2 144.9,111 128.1,94.2 122.5,88.6 116.9,94.2 100.1,111 83.4,94.2 77.8,88.6 72.2,94.2 55.4,111 55.4,122.1 
				55.4,122.1 			"/>
		</g>
		<g>
			<polygon class="st16" points="77.8,-12.1 94.6,4.7 100.1,10.3 105.7,4.7 122.5,-12.1 139.3,4.7 144.9,10.3 150.5,4.7 
				167.3,-12.1 189.6,10.3 195.2,4.7 212,-12.1 228.8,4.7 234.4,10.3 239.9,4.7 239.9,4.7 256.7,-12.1 273.5,4.7 273.5,4.7 
				279.1,10.3 279.1,10.3 279.1,10.3 284.7,4.7 284.7,4.7 301.5,-12.1 323.8,10.3 323.8,-0.9 307,-17.6 301.5,-23.2 295.9,-17.6 
				279.1,-0.9 256.7,-23.2 251.1,-17.6 234.4,-0.9 217.6,-17.6 212,-23.2 206.4,-17.6 189.6,-0.9 167.3,-23.2 161.7,-17.6 
				144.9,-0.9 128.1,-17.6 122.5,-23.2 116.9,-17.6 100.1,-0.9 83.4,-17.6 77.8,-23.2 72.2,-17.6 55.4,-0.9 55.4,10.3 55.4,10.3 			
				"/>
			<polygon class="st16" points="77.8,32.7 94.6,49.5 100.1,55 105.7,49.5 122.5,32.7 139.3,49.5 144.9,55 150.5,49.5 167.3,32.7 
				189.6,55 195.2,49.5 212,32.7 228.8,49.5 234.4,55 239.9,49.5 239.9,49.5 256.7,32.7 273.5,49.5 273.5,49.5 279.1,55 279.1,55 
				279.1,55 284.7,49.5 284.7,49.5 301.5,32.7 323.8,55 323.8,43.9 307,27.1 301.5,21.5 295.9,27.1 279.1,43.9 256.7,21.5 
				251.1,27.1 234.4,43.9 217.6,27.1 212,21.5 206.4,27.1 189.6,43.9 167.3,21.5 161.7,27.1 144.9,43.9 128.1,27.1 122.5,21.5 
				116.9,27.1 100.1,43.9 83.4,27.1 77.8,21.5 72.2,27.1 55.4,43.9 55.4,55 55.4,55 			"/>
			<polygon class="st16" points="77.8,77.4 94.6,94.2 100.1,99.8 105.7,94.2 122.5,77.4 139.3,94.2 144.9,99.8 150.5,94.2 
				167.3,77.4 189.6,99.8 195.2,94.2 212,77.4 228.8,94.2 234.4,99.8 239.9,94.2 239.9,94.2 256.7,77.4 273.5,94.2 273.5,94.2 
				279.1,99.8 279.1,99.8 279.1,99.8 284.7,94.2 284.7,94.2 301.5,77.4 323.8,99.8 323.8,88.6 307,71.8 301.5,66.2 295.9,71.8 
				279.1,88.6 256.7,66.2 251.1,71.8 234.4,88.6 217.6,71.8 212,66.2 206.4,71.8 189.6,88.6 167.3,66.2 161.7,71.8 144.9,88.6 
				128.1,71.8 122.5,66.2 116.9,71.8 100.1,88.6 83.4,71.8 77.8,66.2 72.2,71.8 55.4,88.6 55.4,99.8 55.4,99.8 			"/>
		</g>
	</g>
</g>
<g>
	<defs>
		<rect id="SVGID_17_" x="0" y="280" width="100" height="100"/>
	</defs>
	<clipPath id="SVGID_16_">
		<use xlink:href="#SVGID_17_"  style="overflow:visible;"/>
	</clipPath>
	<g class="st21">
		<g>
			<defs>
				<rect id="SVGID_19_" x="-31.9" y="76.1" width="172.2" height="516.6"/>
			</defs>
			<clipPath id="SVGID_18_">
				<use xlink:href="#SVGID_19_"  style="overflow:visible;"/>
			</clipPath>
			<g class="st35">
				<rect x="84.3" y="76.1" class="st5" width="57.5" height="57.5"/>
				<polygon class="st37" points="87.7,76.1 84.3,79.5 84.3,82.8 91,76.1 				"/>
				<polygon class="st37" points="118.1,76.1 84.3,109.9 84.3,113.3 121.5,76.1 				"/>
				<polygon class="st37" points="124.9,76.1 84.3,116.7 84.3,133.6 84.3,133.6 141.8,76.1 				"/>
				<polygon class="st38" points="91,76.1 84.3,82.8 84.3,109.9 118.1,76.1 				"/>
				<polygon class="st13" points="87.7,76.1 84.3,76.1 84.3,76.1 84.3,79.5 				"/>
				<polygon class="st13" points="121.5,76.1 84.3,113.3 84.3,116.7 124.9,76.1 				"/>
				<polygon class="st37" points="141.8,79.5 87.7,133.6 91,133.6 141.8,82.8 				"/>
				<polygon class="st38" points="141.8,82.8 91,133.6 118.1,133.6 141.8,109.9 				"/>
				<polygon class="st13" points="141.8,76.1 84.3,133.6 87.7,133.6 141.8,79.5 				"/>
			</g>
			<g class="st35">
				<rect x="26.8" y="76.1" class="st5" width="57.5" height="57.5"/>
				<polygon class="st37" points="30.2,76.1 26.8,79.5 26.8,82.8 33.5,76.1 				"/>
				<polygon class="st37" points="60.6,76.1 26.8,109.9 26.8,113.3 64,76.1 				"/>
				<polygon class="st37" points="67.4,76.1 26.8,116.7 26.8,133.6 26.8,133.6 84.3,76.1 				"/>
				<polygon class="st38" points="33.5,76.1 26.8,82.8 26.8,109.9 60.6,76.1 				"/>
				<polygon class="st13" points="30.2,76.1 26.8,76.1 26.8,76.1 26.8,79.5 				"/>
				<polygon class="st13" points="64,76.1 26.8,113.3 26.8,116.7 67.4,76.1 				"/>
				<polygon class="st37" points="84.3,79.5 30.2,133.6 33.5,133.6 84.3,82.8 				"/>
				<polygon class="st38" points="84.3,82.8 33.5,133.6 60.6,133.6 84.3,109.9 				"/>
				<polygon class="st13" points="84.3,76.1 26.8,133.6 30.2,133.6 84.3,79.5 				"/>
			</g>
			<g class="st35">
				<rect x="-30.7" y="76.1" class="st5" width="57.5" height="57.5"/>
				<polygon class="st37" points="3.1,76.1 -30.7,109.9 -30.7,113.3 6.5,76.1 				"/>
				<polygon class="st37" points="9.9,76.1 -30.7,116.7 -30.7,133.6 -30.7,133.6 26.8,76.1 				"/>
				<polygon class="st38" points="-24,76.1 -30.7,82.8 -30.7,109.9 3.1,76.1 				"/>
				<polygon class="st13" points="6.5,76.1 -30.7,113.3 -30.7,116.7 9.9,76.1 				"/>
				<polygon class="st37" points="26.8,79.5 -27.3,133.6 -24,133.6 26.8,82.8 				"/>
				<polygon class="st38" points="26.8,82.8 -24,133.6 3.1,133.6 26.8,109.9 				"/>
				<polygon class="st13" points="26.8,76.1 -30.7,133.6 -27.3,133.6 26.8,79.5 				"/>
			</g>
		</g>
	</g>
</g>
<g>
	<defs>
		<rect id="SVGID_21_" x="140" y="280" width="100" height="100"/>
	</defs>
	<clipPath id="SVGID_20_">
		<use xlink:href="#SVGID_21_"  style="overflow:visible;"/>
	</clipPath>
	<g class="st36">
		<g>
			<defs>
				<rect id="SVGID_23_" x="100.8" y="78.3" width="154.9" height="464.7"/>
			</defs>
			<clipPath id="SVGID_22_">
				<use xlink:href="#SVGID_23_"  style="overflow:visible;"/>
			</clipPath>
			<g class="st39">
				<rect x="80" y="78.3" class="st5" width="57.8" height="57.8"/>
				<polygon class="st13" points="104.4,78.3 80,102.6 80,105.7 107.4,78.3 				"/>
				<polygon class="st13" points="110.4,78.3 80,108.7 80,136.1 137.8,78.3 				"/>
				<polygon class="st37" points="80,78.3 80,102.6 104.4,78.3 				"/>
				<polygon class="st38" points="107.4,78.3 80,105.7 80,108.7 110.4,78.3 				"/>
				<polygon class="st37" points="137.8,78.3 137.8,78.3 80,136.1 80,136.1 104.4,136.1 137.8,102.6 				"/>
			</g>
		</g>
	</g>
</g>
<g>
	<path class="st18" d="M42,36.2c-1.4-3.3,0-7.1,3.3-8.5c3.3-1.4,7.1,0,8.5,3.3l1.7,3.8c0.7,1.5,2.5,2.2,4,1.6c1.5-0.7,2.2-2.5,1.6-4
		l-1.7-3.8c-2.8-6.4-10.2-9.2-16.6-6.4c-6.4,2.8-9.2,10.2-6.4,16.6L53,76.4c0.7,1.5,2.5,2.2,4,1.6c1.5-0.7,2.2-2.5,1.6-4L42,36.2z"
		/>
	<polygon class="st46" points="52.5,60.1 44.5,57 42.4,52.3 50.4,55.4 	"/>
	<polygon class="st46" points="47.8,49.4 39.7,46.3 37.7,41.6 45.7,44.7 	"/>
	<path class="st46" d="M43.2,38.9l-7.6-3c-0.2-1.3-0.3-2.7-0.1-4l6,2.3c0.1,0.6,0.2,1.3,0.5,1.9L43.2,38.9z"/>
	<path class="st46" d="M59.5,36.3c-1.5,0.7-3.3,0-4-1.6l-1-2.2l6.8,0.8C61.4,34.7,60.7,35.8,59.5,36.3z"/>
	<path class="st46" d="M44.3,28.2c-0.8,0.5-1.5,1.3-2,2.2c-0.1,0.2-0.2,0.4-0.3,0.6l-4.8-4c0.7-1.1,1.4-2,2.3-2.8L44.3,28.2z"/>
	<path class="st46" d="M46.3,27.4l0.2-6.2c1.2-0.1,2.4-0.1,3.6,0.1l-0.2,6.2C48.7,27.1,47.5,27.1,46.3,27.4z"/>
	<path class="st46" d="M51.4,28.2l4.7-4.1c0.8,0.7,1.5,1.5,2.1,2.4l0.3,0.4l-4.7,4L53.3,30C52.8,29.2,52.1,28.6,51.4,28.2z"/>
	<path class="st46" d="M52,74l6.6,2.6c-0.3,0.6-0.8,1.1-1.5,1.4c-1.5,0.7-3.3,0-4-1.6L52,74z"/>
	<polygon class="st46" points="57.3,70.9 49.2,67.7 47.1,63 55.2,66.1 	"/>
</g>
</svg>
