<?xml version="1.0" encoding="utf-8"?>
<!-- Generator: Adobe Illustrator 22.1.0, SVG Export Plug-In . SVG Version: 6.00 Build 0)  -->
<svg version="1.1" id="Layer_1" xmlns="http://www.w3.org/2000/svg" xmlns:xlink="http://www.w3.org/1999/xlink" x="0px" y="0px"
	 viewBox="0 0 100 100" style="enable-background:new 0 0 100 100;" xml:space="preserve">
<style type="text/css">
	.st0{fill:#BE1E2D;}
	.st1{fill:#00B0BB;}
	.st2{fill:#63C4AF;}
	.st3{fill:#EAEAEA;}
	.st4{fill:#413E34;}
	.st5{fill:none;}
	.st6{clip-path:url(#SVGID_2_);}
	.st7{clip-path:url(#SVGID_4_);}
	.st8{fill:#1E0D12;}
	.st9{fill:#E62F34;}
	.st10{fill:#25793D;}
	.st11{clip-path:url(#SVGID_6_);}
	.st12{clip-path:url(#SVGID_8_);}
	.st13{fill:#FFFFFF;}
	.st14{clip-path:url(#SVGID_10_);}
	.st15{clip-path:url(#SVGID_12_);}
	.st16{fill:#96BF4D;}
	.st17{clip-path:url(#SVGID_14_);}
	.st18{fill-rule:evenodd;clip-rule:evenodd;fill:#FFFFFF;}
	.st19{fill:#C92927;}
	.st20{fill:#253748;}
	.st21{clip-path:url(#SVGID_16_);}
	.st22{fill:#97CB59;}
	.st23{fill:#DA2128;}
	.st24{fill:#00A14B;}
	.st25{fill:#96171A;}
	.st26{fill:#D1E39B;}
	.st27{fill:#4FBBBB;}
	.st28{fill:#37343F;}
	.st29{fill:#077A64;}
	.st30{fill:#F4EED4;}
	.st31{fill:#012E47;}
	.st32{fill:#BE1C42;}
	.st33{fill:#008E9F;}
	.st34{fill:#CD4134;}
	.st35{clip-path:url(#SVGID_18_);}
	.st36{clip-path:url(#SVGID_20_);}
	.st37{fill:#EE2424;}
	.st38{fill:#67BC45;}
	.st39{clip-path:url(#SVGID_22_);}
	.st40{clip-path:url(#SVGID_24_);}
	.st41{fill:#004A54;}
	.st42{fill:#D93128;}
	.st43{fill:#401B23;}
	.st44{fill:#EE2D40;}
	.st45{fill:#F1EBC9;}
	.st46{fill-rule:evenodd;clip-rule:evenodd;fill:#C92927;}
	.st47{fill-rule:evenodd;clip-rule:evenodd;fill:#96BF4D;}
	.st48{fill:#BD3026;}
	.st49{opacity:0.4;fill:#CD4134;}
	.st50{fill:#E6B448;}
	.st51{fill:#E21F26;}
	.st52{fill:#A82123;}
	.st53{fill:#383A3A;}
	.st54{fill:#F17B22;}
	.st55{fill:#F1F0DC;}
	.st56{fill:#56AE78;}
	.st57{fill:#EE262E;}
	.st58{fill:#C47229;}
	.st59{fill:#FEC010;}
	.st60{fill:#C0343E;}
	.st61{fill:url(#SVGID_25_);}
	.st62{fill:#659DAA;}
	.st63{fill:#C9A784;}
	.st64{fill:#DDCFB5;}
	.st65{fill:#D2A886;}
	.st66{fill:#9B3227;}
	.st67{opacity:0.39;fill:#FFFFFF;}
	.st68{fill:#E5E5E5;}
	.st69{fill:#202945;}
	.st70{fill:none;stroke:#ACA300;stroke-miterlimit:10;}
	.st71{fill:none;stroke:#ACA300;stroke-miterlimit:10;stroke-dasharray:2.0083,2.0083;}
	.st72{fill:#ACA300;}
</style>
<g>
	<defs>
		<rect id="SVGID_1_" x="420" y="-140" width="100" height="100"/>
	</defs>
	<clipPath id="SVGID_2_">
		<use xlink:href="#SVGID_1_"  style="overflow:visible;"/>
	</clipPath>
	<g class="st6">
		<g>
			<defs>
				
					<rect id="SVGID_3_" x="-47.5" y="-146.7" transform="matrix(0.6711 -0.7413 0.7413 0.6711 98.3919 330.2138)" width="937.7" height="401.9"/>
			</defs>
			<clipPath id="SVGID_4_">
				<use xlink:href="#SVGID_3_"  style="overflow:visible;"/>
			</clipPath>
			<g class="st7">
				
					<rect x="90.9" y="-563" transform="matrix(0.6711 -0.7413 0.7413 0.6711 318.3202 216.7884)" class="st5" width="625.1" height="625.1"/>
				
					<rect x="90.9" y="-563" transform="matrix(0.6711 -0.7413 0.7413 0.6711 318.3202 216.7884)" class="st8" width="625.1" height="625.1"/>
			</g>
			<g class="st7">
				
					<rect x="-328.6" y="-99.5" transform="matrix(0.6711 -0.7413 0.7413 0.6711 -163.212 58.1595)" class="st5" width="625.1" height="625.1"/>
				
					<rect x="-328.6" y="-99.5" transform="matrix(0.6711 -0.7413 0.7413 0.6711 -163.212 58.1595)" class="st8" width="625.1" height="625.1"/>
				<polygon class="st9" points="61.3,-12.1 59.7,-12 84.5,10.5 84.1,2.6 67.6,-12.4 				"/>
				<polygon class="st9" points="43.9,-11.2 85.3,26.2 84.9,18.3 51.8,-11.6 				"/>
				<polygon class="st9" points="28.2,-10.4 86.1,42 85.7,34.1 36.1,-10.8 				"/>
				<polygon class="st9" points="15.4,-9.8 12.4,-9.7 12.4,-9.7 12.4,-9.7 86.9,57.8 86.5,49.9 20.3,-10.1 				"/>
				<polygon class="st9" points="-3.4,-8.9 87.7,73.5 87.3,65.6 4.5,-9.3 				"/>
				<polygon class="st9" points="88.1,81.4 -11.3,-8.5 -19.1,-8.1 88.4,89.3 				"/>
				<polygon class="st9" points="-22.7,79 2.1,101.5 10,101.1 -23.1,71.1 				"/>
				<polygon class="st9" points="-23.5,63.3 17.9,100.7 25.8,100.3 -23.9,55.4 				"/>
				<polygon class="st9" points="-24.3,47.5 33.7,99.9 41.5,99.5 -24.7,39.6 				"/>
				<polygon class="st9" points="-25.1,31.7 49.4,99.1 57.3,98.7 -25.5,23.8 				"/>
				<polygon class="st9" points="-25.8,15.9 65.2,98.4 73.1,98 -26.2,8.1 				"/>
				<polygon class="st9" points="81,97.6 88.8,97.2 -27,-7.7 -27,-7.7 -26.6,0.2 				"/>
				<polygon class="st10" points="-22.3,86.9 -5.8,101.9 2.1,101.5 -22.7,79 				"/>
				<polygon class="st10" points="-23.1,71.1 10,101.1 17.9,100.7 -23.5,63.3 				"/>
				<polygon class="st10" points="-23.9,55.4 25.8,100.3 33.7,99.9 -24.3,47.5 				"/>
				<polygon class="st10" points="-24.7,39.6 41.5,99.5 49.4,99.1 -25.1,31.7 				"/>
				<polygon class="st10" points="-25.5,23.8 57.3,98.7 65.2,98.4 -25.8,15.9 				"/>
				<polygon class="st10" points="-26.2,8.1 73.1,98 81,97.6 -26.6,0.2 				"/>
				<polygon class="st10" points="67.6,-12.4 84.1,2.6 83.7,-5.3 75.5,-12.8 67.6,-12.4 67.6,-12.4 				"/>
				<polygon class="st10" points="51.8,-11.6 84.9,18.3 84.5,10.5 59.7,-12 				"/>
				<polygon class="st10" points="36.1,-10.8 85.7,34.1 85.3,26.2 43.9,-11.2 				"/>
				<polygon class="st10" points="20.3,-10.1 86.5,49.9 86.1,42 28.2,-10.4 				"/>
				<polygon class="st10" points="4.5,-9.3 87.3,65.6 86.9,57.8 12.4,-9.7 				"/>
				<polygon class="st10" points="-11.3,-8.5 88.1,81.4 87.7,73.5 -3.4,-8.9 				"/>
				<polygon class="st10" points="88.4,89.3 -19.1,-8.1 -27,-7.7 -27,-7.7 88.8,97.2 				"/>
				<polygon class="st10" points="96.7,96.8 88.4,89.3 88.8,97.2 				"/>
				<polygon class="st10" points="104.6,96.4 112.5,96 87.7,73.5 88.1,81.4 				"/>
				<polygon class="st10" points="120.4,95.6 128.3,95.2 86.9,57.8 87.3,65.6 				"/>
				<polygon class="st10" points="136.1,94.8 144,94.4 86.1,42 86.5,49.9 				"/>
				<polygon class="st10" points="151.9,94 159.8,93.7 85.3,26.2 85.7,34.1 				"/>
				<polygon class="st10" points="167.7,93.3 175.6,92.9 84.5,10.5 84.9,18.3 				"/>
				<polygon class="st10" points="183.4,92.5 191.3,92.1 83.7,-5.3 84.1,2.6 				"/>
				<polygon class="st10" points="198,68 107,-14.4 99.1,-14 198.4,75.9 				"/>
				<polygon class="st10" points="199.2,91.7 198.8,83.8 91.2,-13.6 90.7,-13.6 83.4,-13.2 83.4,-13.2 				"/>
				<polygon class="st9" points="89.2,105.1 88.8,97.2 81,97.6 				"/>
				<polygon class="st9" points="90,120.8 89.6,113 73.1,98 65.2,98.4 				"/>
				<polygon class="st9" points="90.8,136.6 90.4,128.7 57.3,98.7 49.4,99.1 				"/>
				<polygon class="st9" points="91.6,152.4 91.2,144.5 41.5,99.5 33.7,99.9 				"/>
			</g>
		</g>
	</g>
</g>
<g>
	<defs>
		<rect id="SVGID_5_" x="-420" y="0" width="100" height="100"/>
	</defs>
	<clipPath id="SVGID_6_">
		<use xlink:href="#SVGID_5_"  style="overflow:visible;"/>
	</clipPath>
	<g class="st11">
		<g>
			<defs>
				<rect id="SVGID_7_" x="-491.3" y="-698.9" width="595" height="1388.2"/>
			</defs>
			<clipPath id="SVGID_8_">
				<use xlink:href="#SVGID_7_"  style="overflow:visible;"/>
			</clipPath>
			<g class="st12">
				<rect x="-315.1" y="-1.6" class="st5" width="466" height="466"/>
				<rect x="-315.1" y="-1.6" class="st13" width="466" height="466"/>
				<g>
					<g>
						<polygon class="st10" points="150.9,62.7 102.6,110.9 94.6,110.9 150.9,54.6 						"/>
						<polygon class="st10" points="150.9,46.6 86.6,110.9 78.5,110.9 150.9,38.6 						"/>
						<polygon class="st10" points="150.9,30.5 70.5,110.9 62.5,110.9 150.9,22.5 						"/>
						<polygon class="st10" points="150.9,14.5 54.4,110.9 46.4,110.9 150.9,6.4 						"/>
						<polygon class="st10" points="54.4,-1.6 46.4,-1.6 38.4,6.4 38.4,14.5 						"/>
						<polygon class="st10" points="70.5,-1.6 62.5,-1.6 38.4,22.5 38.4,30.5 						"/>
						<polygon class="st10" points="86.6,-1.6 78.5,-1.6 38.4,38.6 38.4,46.6 						"/>
						<polygon class="st10" points="102.6,-1.6 94.6,-1.6 38.4,54.6 38.4,62.7 						"/>
						<polygon class="st10" points="118.7,-1.6 110.7,-1.6 38.4,70.7 38.4,78.7 						"/>
						<polygon class="st10" points="134.8,-1.6 126.7,-1.6 38.4,86.8 38.4,94.8 						"/>
						<polygon class="st10" points="150.9,-1.6 142.8,-1.6 38.4,102.9 38.4,110.9 						"/>
					</g>
					<g>
						<polygon class="st10" points="38.4,94.8 22.3,110.9 14.3,110.9 38.4,86.8 						"/>
						<polygon class="st10" points="38.4,78.7 6.2,110.9 -1.8,110.9 38.4,70.7 						"/>
						<polygon class="st10" points="38.4,62.7 -9.8,110.9 -17.9,110.9 38.4,54.6 						"/>
						<polygon class="st10" points="38.4,46.6 -25.9,110.9 -33.9,110.9 38.4,38.6 						"/>
						<polygon class="st10" points="38.4,30.5 -42,110.9 -50,110.9 38.4,22.5 						"/>
						<polygon class="st10" points="38.4,14.5 -58,110.9 -66.1,110.9 38.4,6.4 						"/>
						<polygon class="st10" points="6.2,-1.6 -1.8,-1.6 -74.1,70.7 -74.1,78.7 						"/>
						<polygon class="st10" points="22.3,-1.6 14.3,-1.6 -74.1,86.8 -74.1,94.8 						"/>
						<polygon class="st10" points="38.4,-1.6 30.3,-1.6 -74.1,102.9 -74.1,110.9 						"/>
					</g>
				</g>
				<g>
					<polygon class="st8" points="46.4,30.5 46.4,22.5 38.4,30.5 30.3,38.6 30.3,46.6 38.4,38.6 					"/>
					<polygon class="st8" points="46.4,62.7 46.4,54.6 38.4,62.7 30.3,70.7 30.3,78.7 38.4,70.7 					"/>
					<polygon class="st8" points="46.4,14.5 46.4,6.4 38.4,14.5 30.3,22.5 30.3,30.5 38.4,22.5 					"/>
					<polygon class="st8" points="46.4,-1.6 38.4,-1.6 30.3,6.4 30.3,14.5 					"/>
					<polygon class="st8" points="46.4,46.6 46.4,38.6 38.4,46.6 30.3,54.6 30.3,62.7 38.4,54.6 					"/>
					<polygon class="st8" points="46.4,78.7 46.4,70.7 38.4,78.7 30.3,86.8 30.3,94.8 38.4,86.8 					"/>
					<polygon class="st8" points="46.4,94.8 46.4,86.8 38.4,94.8 30.3,102.9 30.3,110.9 38.4,102.9 					"/>
				</g>
			</g>
		</g>
	</g>
</g>
<g>
	<defs>
		<rect id="SVGID_9_" x="-280" y="0" width="100" height="100"/>
	</defs>
	<clipPath id="SVGID_10_">
		<use xlink:href="#SVGID_9_"  style="overflow:visible;"/>
	</clipPath>
	<g class="st14">
		<g>
			<defs>
				
					<rect id="SVGID_11_" x="-606" y="-97.1" transform="matrix(0.6991 -0.715 0.715 0.6991 -114.7951 -176.0634)" width="678.8" height="290.9"/>
			</defs>
			<clipPath id="SVGID_12_">
				<use xlink:href="#SVGID_11_"  style="overflow:visible;"/>
			</clipPath>
			<g class="st15">
				
					<rect x="-154.9" y="-205.4" transform="matrix(0.6991 -0.715 0.715 0.6991 52.0868 -54.3804)" class="st5" width="232.6" height="232.6"/>
				
					<rect x="-154.9" y="-205.4" transform="matrix(0.6991 -0.715 0.715 0.6991 52.0868 -54.3804)" class="st10" width="232.6" height="232.6"/>
				<polygon class="st8" points="-10.1,4.6 -10.1,8.5 5.4,-7.3 1.5,-7.3 				"/>
				<polygon class="st8" points="-10,12.4 -10,16.3 13.2,-7.4 9.3,-7.4 				"/>
				<polygon class="st8" points="-9.9,20.2 -9.9,24.1 21.1,-7.5 17.2,-7.5 				"/>
				<polygon class="st8" points="-9.9,28.1 -9.8,32 28.9,-7.6 25,-7.6 				"/>
				<polygon class="st8" points="-9.8,35.9 -9.7,39.8 36.7,-7.7 32.8,-7.7 				"/>
				<polygon class="st8" points="-9.7,43.7 -9.6,47.6 -5.8,43.7 44.6,-7.8 40.6,-7.7 				"/>
			</g>
		</g>
	</g>
</g>
<g>
	<defs>
		<rect id="SVGID_13_" x="0" y="0" width="100" height="100"/>
	</defs>
	<clipPath id="SVGID_14_">
		<use xlink:href="#SVGID_13_"  style="overflow:visible;"/>
	</clipPath>
	<g class="st17">
		<rect x="-84.6" y="-90.3" class="st18" width="268.4" height="268.4"/>
		<g>
			<polygon class="st19" points="-62.2,10.3 -45.4,27.1 -39.9,32.7 -34.3,27.1 -17.5,10.3 -0.7,27.1 4.9,32.7 10.5,27.1 27.3,10.3 
				49.6,32.7 55.2,27.1 72,10.3 88.8,27.1 94.4,32.7 99.9,27.1 99.9,27.1 116.7,10.3 133.5,27.1 133.5,27.1 139.1,32.7 139.1,32.7 
				139.1,32.7 144.7,27.1 144.7,27.1 161.5,10.3 183.8,32.7 183.8,21.5 167,4.7 161.5,-0.9 155.9,4.7 139.1,21.5 116.7,-0.9 
				111.1,4.7 94.4,21.5 77.6,4.7 72,-0.9 66.4,4.7 49.6,21.5 27.3,-0.9 21.7,4.7 4.9,21.5 -11.9,4.7 -17.5,-0.9 -23.1,4.7 
				-39.9,21.5 -56.6,4.7 -62.2,-0.9 -67.8,4.7 -84.6,21.5 -84.6,32.7 -84.6,32.7 			"/>
			<polygon class="st19" points="-62.2,55 -45.4,71.8 -39.9,77.4 -34.3,71.8 -17.5,55 -0.7,71.8 4.9,77.4 10.5,71.8 27.3,55 
				49.6,77.4 55.2,71.8 72,55 88.8,71.8 94.4,77.4 99.9,71.8 99.9,71.8 116.7,55 133.5,71.8 133.5,71.8 139.1,77.4 139.1,77.4 
				139.1,77.4 144.7,71.8 144.7,71.8 161.5,55 183.8,77.4 183.8,66.2 167,49.5 161.5,43.9 155.9,49.5 139.1,66.2 116.7,43.9 
				111.1,49.5 94.4,66.2 77.6,49.5 72,43.9 66.4,49.5 49.6,66.2 27.3,43.9 21.7,49.5 4.9,66.2 -11.9,49.5 -17.5,43.9 -23.1,49.5 
				-39.9,66.2 -56.6,49.5 -62.2,43.9 -67.8,49.5 -84.6,66.2 -84.6,77.4 -84.6,77.4 			"/>
			<polygon class="st19" points="-62.2,99.8 -45.4,116.6 -39.9,122.1 -34.3,116.6 -17.5,99.8 -0.7,116.6 4.9,122.1 10.5,116.6 
				27.3,99.8 49.6,122.1 55.2,116.6 72,99.8 88.8,116.6 94.4,122.1 99.9,116.6 99.9,116.6 116.7,99.8 133.5,116.6 133.5,116.6 
				139.1,122.1 139.1,122.1 139.1,122.1 144.7,116.6 144.7,116.6 161.5,99.8 183.8,122.1 183.8,111 167,94.2 161.5,88.6 155.9,94.2 
				139.1,111 116.7,88.6 111.1,94.2 94.4,111 77.6,94.2 72,88.6 66.4,94.2 49.6,111 27.3,88.6 21.7,94.2 4.9,111 -11.9,94.2 
				-17.5,88.6 -23.1,94.2 -39.9,111 -56.6,94.2 -62.2,88.6 -67.8,94.2 -84.6,111 -84.6,122.1 -84.6,122.1 			"/>
		</g>
		<g>
			<polygon class="st16" points="-62.2,-12.1 -45.4,4.7 -39.9,10.3 -34.3,4.7 -17.5,-12.1 -0.7,4.7 4.9,10.3 10.5,4.7 27.3,-12.1 
				49.6,10.3 55.2,4.7 72,-12.1 88.8,4.7 94.4,10.3 99.9,4.7 99.9,4.7 116.7,-12.1 133.5,4.7 133.5,4.7 139.1,10.3 139.1,10.3 
				139.1,10.3 144.7,4.7 144.7,4.7 161.5,-12.1 183.8,10.3 183.8,-0.9 167,-17.6 161.5,-23.2 155.9,-17.6 139.1,-0.9 116.7,-23.2 
				111.1,-17.6 94.4,-0.9 77.6,-17.6 72,-23.2 66.4,-17.6 49.6,-0.9 27.3,-23.2 21.7,-17.6 4.9,-0.9 -11.9,-17.6 -17.5,-23.2 
				-23.1,-17.6 -39.9,-0.9 -56.6,-17.6 -62.2,-23.2 -67.8,-17.6 -84.6,-0.9 -84.6,10.3 -84.6,10.3 			"/>
			<polygon class="st16" points="-62.2,32.7 -45.4,49.5 -39.9,55 -34.3,49.5 -17.5,32.7 -0.7,49.5 4.9,55 10.5,49.5 27.3,32.7 
				49.6,55 55.2,49.5 72,32.7 88.8,49.5 94.4,55 99.9,49.5 99.9,49.5 116.7,32.7 133.5,49.5 133.5,49.5 139.1,55 139.1,55 139.1,55 
				144.7,49.5 144.7,49.5 161.5,32.7 183.8,55 183.8,43.9 167,27.1 161.5,21.5 155.9,27.1 139.1,43.9 116.7,21.5 111.1,27.1 
				94.4,43.9 77.6,27.1 72,21.5 66.4,27.1 49.6,43.9 27.3,21.5 21.7,27.1 4.9,43.9 -11.9,27.1 -17.5,21.5 -23.1,27.1 -39.9,43.9 
				-56.6,27.1 -62.2,21.5 -67.8,27.1 -84.6,43.9 -84.6,55 -84.6,55 			"/>
			<polygon class="st16" points="-62.2,77.4 -45.4,94.2 -39.9,99.8 -34.3,94.2 -17.5,77.4 -0.7,94.2 4.9,99.8 10.5,94.2 27.3,77.4 
				49.6,99.8 55.2,94.2 72,77.4 88.8,94.2 94.4,99.8 99.9,94.2 99.9,94.2 116.7,77.4 133.5,94.2 133.5,94.2 139.1,99.8 139.1,99.8 
				139.1,99.8 144.7,94.2 144.7,94.2 161.5,77.4 183.8,99.8 183.8,88.6 167,71.8 161.5,66.2 155.9,71.8 139.1,88.6 116.7,66.2 
				111.1,71.8 94.4,88.6 77.6,71.8 72,66.2 66.4,71.8 49.6,88.6 27.3,66.2 21.7,71.8 4.9,88.6 -11.9,71.8 -17.5,66.2 -23.1,71.8 
				-39.9,88.6 -56.6,71.8 -62.2,66.2 -67.8,71.8 -84.6,88.6 -84.6,99.8 -84.6,99.8 			"/>
		</g>
	</g>
</g>
<g>
	<defs>
		<rect id="SVGID_17_" x="-140" y="280" width="100" height="100"/>
	</defs>
	<clipPath id="SVGID_16_">
		<use xlink:href="#SVGID_17_"  style="overflow:visible;"/>
	</clipPath>
	<g class="st21">
		<g>
			<defs>
				<rect id="SVGID_19_" x="-171.9" y="76.1" width="172.2" height="516.6"/>
			</defs>
			<clipPath id="SVGID_18_">
				<use xlink:href="#SVGID_19_"  style="overflow:visible;"/>
			</clipPath>
			<g class="st35">
				<rect x="-55.7" y="76.1" class="st5" width="57.5" height="57.5"/>
				<polygon class="st37" points="-15.1,76.1 -55.7,116.7 -55.7,133.6 -55.7,133.6 1.8,76.1 				"/>
				<polygon class="st37" points="1.8,79.5 -52.3,133.6 -49,133.6 1.8,82.8 				"/>
				<polygon class="st38" points="1.8,82.8 -49,133.6 -21.9,133.6 1.8,109.9 				"/>
				<polygon class="st13" points="1.8,76.1 -55.7,133.6 -52.3,133.6 1.8,79.5 				"/>
			</g>
		</g>
	</g>
</g>
<g>
	<defs>
		<rect id="SVGID_21_" x="0" y="280" width="100" height="100"/>
	</defs>
	<clipPath id="SVGID_20_">
		<use xlink:href="#SVGID_21_"  style="overflow:visible;"/>
	</clipPath>
	<g class="st36">
		<g>
			<defs>
				<rect id="SVGID_23_" x="-39.2" y="78.3" width="154.9" height="464.7"/>
			</defs>
			<clipPath id="SVGID_22_">
				<use xlink:href="#SVGID_23_"  style="overflow:visible;"/>
			</clipPath>
			<g class="st39">
				<rect x="55.6" y="78.3" class="st5" width="57.8" height="57.8"/>
				<polygon class="st13" points="80,78.3 55.6,102.6 55.6,105.7 83,78.3 				"/>
				<polygon class="st13" points="86.1,78.3 55.6,108.7 55.6,136.1 113.5,78.3 				"/>
				<polygon class="st37" points="55.6,78.3 55.6,102.6 80,78.3 				"/>
				<polygon class="st38" points="83,78.3 55.6,105.7 55.6,108.7 86.1,78.3 				"/>
				<polygon class="st37" points="113.5,78.3 113.5,78.3 55.6,136.1 55.6,136.1 80,136.1 113.5,102.6 				"/>
			</g>
			<g class="st39">
				<rect x="-2.2" y="78.3" class="st5" width="57.8" height="57.8"/>
				<polygon class="st13" points="22.2,78.3 -2.2,102.6 -2.2,105.7 25.2,78.3 				"/>
				<polygon class="st13" points="28.3,78.3 -2.2,108.7 -2.2,136.1 55.6,78.3 				"/>
				<polygon class="st37" points="-2.2,78.3 -2.2,102.6 22.2,78.3 				"/>
				<polygon class="st38" points="25.2,78.3 -2.2,105.7 -2.2,108.7 28.3,78.3 				"/>
				<polygon class="st37" points="55.6,78.3 55.6,78.3 -2.2,136.1 -2.2,136.1 22.2,136.1 55.6,102.6 				"/>
			</g>
		</g>
	</g>
</g>
</svg>
