<svg enable-background="new 0 0 100 100" viewBox="0 0 100 100" xmlns="http://www.w3.org/2000/svg" xmlns:xlink="http://www.w3.org/1999/xlink"><clipPath id="a"><path d="m420-140h100v100h-100z"/></clipPath><clipPath id="b"><path d="m-47.5-146.7h937.7v401.9h-937.7z" transform="matrix(.6711 -.7413 .7413 .6711 98.3919 330.2138)"/></clipPath><clipPath id="c"><path d="m-420 0h100v100h-100z"/></clipPath><clipPath id="d"><path d="m-491.3-698.9h595v1388.2h-595z"/></clipPath><clipPath id="e"><path d="m-280 0h100v100h-100z"/></clipPath><clipPath id="f"><path d="m-606-97.1h678.8v290.9h-678.8z" transform="matrix(.6991 -.715 .715 .6991 -114.7951 -176.0634)"/></clipPath><clipPath id="g"><path d="m0 0h100v100h-100z"/></clipPath><clipPath id="h"><path d="m-140 280h100v100h-100z"/></clipPath><clipPath id="i"><path d="m-171.9 76.1h172.2v516.6h-172.2z"/></clipPath><clipPath id="j"><path d="m0 280h100v100h-100z"/></clipPath><clipPath id="k"><path d="m-39.2 78.3h154.9v464.7h-154.9z"/></clipPath><g clip-path="url(#a)"><g clip-path="url(#b)"><path d="m90.9-563h625.1v625.1h-625.1z" fill="none" transform="matrix(.6711 -.7413 .7413 .6711 318.3202 216.7884)"/><path d="m90.9-563h625.1v625.1h-625.1z" fill="#1e0d12" transform="matrix(.6711 -.7413 .7413 .6711 318.3202 216.7884)"/></g><g clip-path="url(#b)"><path d="m-328.6-99.5h625.1v625.1h-625.1z" fill="none" transform="matrix(.6711 -.7413 .7413 .6711 -163.212 58.1595)"/><path d="m-328.6-99.5h625.1v625.1h-625.1z" fill="#1e0d12" transform="matrix(.6711 -.7413 .7413 .6711 -163.212 58.1595)"/><g fill="#e62f34"><path d="m61.3-12.1-1.6.1 24.8 22.5-.4-7.9-16.5-15z"/><path d="m43.9-11.2 41.4 37.4-.4-7.9-33.1-29.9z"/><path d="m28.2-10.4 57.9 52.4-.4-7.9-49.6-44.9z"/><path d="m15.4-9.8-3 .1 74.5 67.5-.4-7.9-66.2-60z"/><path d="m-3.4-8.9 91.1 82.4-.4-7.9-82.8-74.9z"/><path d="m88.1 81.4-99.4-89.9-7.8.4 107.5 97.4z"/><path d="m-22.7 79 24.8 22.5 7.9-.4-33.1-30z"/><path d="m-23.5 63.3 41.4 37.4 7.9-.4-49.7-44.9z"/><path d="m-24.3 47.5 58 52.4 7.8-.4-66.2-59.9z"/><path d="m-25.1 31.7 74.5 67.4 7.9-.4-82.8-74.9z"/><path d="m-25.8 15.9 91 82.5 7.9-.4-99.3-89.9z"/><path d="m81 97.6 7.8-.4-115.8-104.9.4 7.9z"/></g><g fill="#25793d"><path d="m-22.3 86.9 16.5 15 7.9-.4-24.8-22.5z"/><path d="m-23.1 71.1 33.1 30 7.9-.4-41.4-37.4z"/><path d="m-23.9 55.4 49.7 44.9 7.9-.4-58-52.4z"/><path d="m-24.7 39.6 66.2 59.9 7.9-.4-74.5-67.4z"/><path d="m-25.5 23.8 82.8 74.9 7.9-.3-91-82.5z"/><path d="m-26.2 8.1 99.3 89.9 7.9-.4-107.6-97.4z"/><path d="m67.6-12.4 16.5 15-.4-7.9-8.2-7.5z"/><path d="m51.8-11.6 33.1 29.9-.4-7.8-24.8-22.5z"/><path d="m36.1-10.8 49.6 44.9-.4-7.9-41.4-37.4z"/><path d="m20.3-10.1 66.2 60-.4-7.9-57.9-52.4z"/><path d="m4.5-9.3 82.8 74.9-.4-7.8-74.5-67.5z"/><path d="m-11.3-8.5 99.4 89.9-.4-7.9-91.1-82.4z"/><path d="m88.4 89.3-107.5-97.4-7.9.4 115.8 104.9z"/><path d="m96.7 96.8-8.3-7.5.4 7.9z"/><path d="m104.6 96.4 7.9-.4-24.8-22.5.4 7.9z"/><path d="m120.4 95.6 7.9-.4-41.4-37.4.4 7.8z"/><path d="m136.1 94.8 7.9-.4-57.9-52.4.4 7.9z"/><path d="m151.9 94 7.9-.3-74.5-67.5.4 7.9z"/><path d="m167.7 93.3 7.9-.4-91.1-82.4.4 7.8z"/><path d="m183.4 92.5 7.9-.4-107.6-97.4.4 7.9z"/><path d="m198 68-91-82.4-7.9.4 99.3 89.9z"/><path d="m199.2 91.7-.4-7.9-107.6-97.4h-.5l-7.3.4z"/></g><path d="m89.2 105.1-.4-7.9-7.8.4z" fill="#e62f34"/><path d="m90 120.8-.4-7.8-16.5-15-7.9.4z" fill="#e62f34"/><path d="m90.8 136.6-.4-7.9-33.1-30-7.9.4z" fill="#e62f34"/><path d="m91.6 152.4-.4-7.9-49.7-45-7.8.4z" fill="#e62f34"/></g></g><g clip-path="url(#c)"><g clip-path="url(#d)"><path d="m-315.1-1.6h466v466h-466z" fill="none"/><path d="m-315.1-1.6h466v466h-466z" fill="#fff"/><g fill="#25793d"><path d="m150.9 62.7-48.3 48.2h-8l56.3-56.3z"/><path d="m150.9 46.6-64.3 64.3h-8.1l72.4-72.3z"/><path d="m150.9 30.5-80.4 80.4h-8l88.4-88.4z"/><path d="m150.9 14.5-96.5 96.4h-8l104.5-104.5z"/><path d="m54.4-1.6h-8l-8 8v8.1z"/><path d="m70.5-1.6h-8l-24.1 24.1v8z"/><path d="m86.6-1.6h-8.1l-40.1 40.2v8z"/><path d="m102.6-1.6h-8l-56.2 56.2v8.1z"/><path d="m118.7-1.6h-8l-72.3 72.3v8z"/><path d="m134.8-1.6h-8.1l-88.3 88.4v8z"/><path d="m150.9-1.6h-8.1l-104.4 104.5v8z"/><path d="m38.4 94.8-16.1 16.1h-8l24.1-24.1z"/><path d="m38.4 78.7-32.2 32.2h-8l40.2-40.2z"/><path d="m38.4 62.7-48.2 48.2h-8.1l56.3-56.3z"/><path d="m38.4 46.6-64.3 64.3h-8l72.3-72.3z"/><path d="m38.4 30.5-80.4 80.4h-8l88.4-88.4z"/><path d="m38.4 14.5-96.4 96.4h-8.1l104.5-104.5z"/><path d="m6.2-1.6h-8l-72.3 72.3v8z"/><path d="m22.3-1.6h-8l-88.4 88.4v8z"/><path d="m38.4-1.6h-8.1l-104.4 104.5v8z"/></g><g fill="#1e0d12"><path d="m46.4 30.5v-8l-8 8-8.1 8.1v8l8.1-8z"/><path d="m46.4 62.7v-8.1l-8 8.1-8.1 8v8l8.1-8z"/><path d="m46.4 14.5v-8.1l-8 8.1-8.1 8v8l8.1-8z"/><path d="m46.4-1.6h-8l-8.1 8v8.1z"/><path d="m46.4 46.6v-8l-8 8-8.1 8v8.1l8.1-8.1z"/><path d="m46.4 78.7v-8l-8 8-8.1 8.1v8l8.1-8z"/><path d="m46.4 94.8v-8l-8 8-8.1 8.1v8l8.1-8z"/></g></g></g><g clip-path="url(#e)"><g clip-path="url(#f)"><path d="m-154.9-205.4h232.6v232.6h-232.6z" fill="none" transform="matrix(.6991 -.715 .715 .6991 52.0868 -54.3804)"/><path d="m-154.9-205.4h232.6v232.6h-232.6z" fill="#25793d" transform="matrix(.6991 -.715 .715 .6991 52.0868 -54.3804)"/><g fill="#1e0d12"><path d="m-10.1 4.6v3.9l15.5-15.8h-3.9z"/><path d="m-10 12.4v3.9l23.2-23.7h-3.9z"/><path d="m-9.9 20.2v3.9l31-31.6h-3.9z"/><path d="m-9.9 28.1.1 3.9 38.7-39.6h-3.9z"/><path d="m-9.8 35.9.1 3.9 46.4-47.5h-3.9z"/><path d="m-9.7 43.7.1 3.9 3.8-3.9 50.4-51.5-4 .1z"/></g></g></g><g clip-path="url(#g)"><path clip-rule="evenodd" d="m-84.6-90.3h268.4v268.4h-268.4z" fill="#fff" fill-rule="evenodd"/><g fill="#c92927"><path d="m-62.2 10.3 16.8 16.8 5.5 5.6 5.6-5.6 16.8-16.8 16.8 16.8 5.6 5.6 5.6-5.6 16.8-16.8 22.3 22.4 5.6-5.6 16.8-16.8 16.8 16.8 5.6 5.6 5.5-5.6 16.8-16.8 16.8 16.8 5.6 5.6 5.6-5.6 16.8-16.8 22.3 22.4v-11.2l-16.8-16.8-5.5-5.6-5.6 5.6-16.8 16.8-22.4-22.4-5.6 5.6-16.7 16.8-16.8-16.8-5.6-5.6-5.6 5.6-16.8 16.8-22.3-22.4-5.6 5.6-16.8 16.8-16.8-16.8-5.6-5.6-5.6 5.6-16.8 16.8-16.7-16.8-5.6-5.6-5.6 5.6-16.8 16.8v11.2z"/><path d="m-62.2 55 16.8 16.8 5.5 5.6 5.6-5.6 16.8-16.8 16.8 16.8 5.6 5.6 5.6-5.6 16.8-16.8 22.3 22.4 5.6-5.6 16.8-16.8 16.8 16.8 5.6 5.6 5.5-5.6 16.8-16.8 16.8 16.8 5.6 5.6 5.6-5.6 16.8-16.8 22.3 22.4v-11.2l-16.8-16.7-5.5-5.6-5.6 5.6-16.8 16.7-22.4-22.3-5.6 5.6-16.7 16.7-16.8-16.7-5.6-5.6-5.6 5.6-16.8 16.7-22.3-22.3-5.6 5.6-16.8 16.7-16.8-16.7-5.6-5.6-5.6 5.6-16.8 16.7-16.7-16.7-5.6-5.6-5.6 5.6-16.8 16.7v11.2z"/><path d="m-62.2 99.8 16.8 16.8 5.5 5.5 5.6-5.5 16.8-16.8 16.8 16.8 5.6 5.5 5.6-5.5 16.8-16.8 22.3 22.3 5.6-5.5 16.8-16.8 16.8 16.8 5.6 5.5 5.5-5.5 16.8-16.8 16.8 16.8 5.6 5.5 5.6-5.5 16.8-16.8 22.3 22.3v-11.1l-16.8-16.8-5.5-5.6-5.6 5.6-16.8 16.8-22.4-22.4-5.6 5.6-16.7 16.8-16.8-16.8-5.6-5.6-5.6 5.6-16.8 16.8-22.3-22.4-5.6 5.6-16.8 16.8-16.8-16.8-5.6-5.6-5.6 5.6-16.8 16.8-16.7-16.8-5.6-5.6-5.6 5.6-16.8 16.8v11.1z"/></g><g fill="#96bf4d"><path d="m-62.2-12.1 16.8 16.8 5.5 5.6 5.6-5.6 16.8-16.8 16.8 16.8 5.6 5.6 5.6-5.6 16.8-16.8 22.3 22.4 5.6-5.6 16.8-16.8 16.8 16.8 5.6 5.6 5.5-5.6 16.8-16.8 16.8 16.8 5.6 5.6 5.6-5.6 16.8-16.8 22.3 22.4v-11.2l-16.8-16.7-5.5-5.6-5.6 5.6-16.8 16.7-22.4-22.3-5.6 5.6-16.7 16.7-16.8-16.7-5.6-5.6-5.6 5.6-16.8 16.7-22.3-22.3-5.6 5.6-16.8 16.7-16.8-16.7-5.6-5.6-5.6 5.6-16.8 16.7-16.7-16.7-5.6-5.6-5.6 5.6-16.8 16.7v11.2z"/><path d="m-62.2 32.7 16.8 16.8 5.5 5.5 5.6-5.5 16.8-16.8 16.8 16.8 5.6 5.5 5.6-5.5 16.8-16.8 22.3 22.3 5.6-5.5 16.8-16.8 16.8 16.8 5.6 5.5 5.5-5.5 16.8-16.8 16.8 16.8 5.6 5.5 5.6-5.5 16.8-16.8 22.3 22.3v-11.1l-16.8-16.8-5.5-5.6-5.6 5.6-16.8 16.8-22.4-22.4-5.6 5.6-16.7 16.8-16.8-16.8-5.6-5.6-5.6 5.6-16.8 16.8-22.3-22.4-5.6 5.6-16.8 16.8-16.8-16.8-5.6-5.6-5.6 5.6-16.8 16.8-16.7-16.8-5.6-5.6-5.6 5.6-16.8 16.8v11.1z"/><path d="m-62.2 77.4 16.8 16.8 5.5 5.6 5.6-5.6 16.8-16.8 16.8 16.8 5.6 5.6 5.6-5.6 16.8-16.8 22.3 22.4 5.6-5.6 16.8-16.8 16.8 16.8 5.6 5.6 5.5-5.6 16.8-16.8 16.8 16.8 5.6 5.6 5.6-5.6 16.8-16.8 22.3 22.4v-11.2l-16.8-16.8-5.5-5.6-5.6 5.6-16.8 16.8-22.4-22.4-5.6 5.6-16.7 16.8-16.8-16.8-5.6-5.6-5.6 5.6-16.8 16.8-22.3-22.4-5.6 5.6-16.8 16.8-16.8-16.8-5.6-5.6-5.6 5.6-16.8 16.8-16.7-16.8-5.6-5.6-5.6 5.6-16.8 16.8v11.2z"/></g></g><g clip-path="url(#h)"><g clip-path="url(#i)"><path d="m-55.7 76.1h57.5v57.5h-57.5z" fill="none"/><path d="m-15.1 76.1-40.6 40.6v16.9l57.5-57.5z" fill="#ee2424"/><path d="m1.8 79.5-54.1 54.1h3.3l50.8-50.8z" fill="#ee2424"/><path d="m1.8 82.8-50.8 50.8h27.1l23.7-23.7z" fill="#67bc45"/><path d="m1.8 76.1-57.5 57.5h3.4l54.1-54.1z" fill="#fff"/></g></g><g clip-path="url(#j)"><g clip-path="url(#k)"><path d="m55.6 78.3h57.8v57.8h-57.8z" fill="none"/><path d="m80 78.3-24.4 24.3v3.1l27.4-27.4z" fill="#fff"/><path d="m86.1 78.3-30.5 30.4v27.4l57.9-57.8z" fill="#fff"/><path d="m55.6 78.3v24.3l24.4-24.3z" fill="#ee2424"/><path d="m83 78.3-27.4 27.4v3l30.5-30.4z" fill="#67bc45"/><path d="m113.5 78.3-57.9 57.8h24.4l33.5-33.5z" fill="#ee2424"/></g><g clip-path="url(#k)"><path d="m-2.2 78.3h57.8v57.8h-57.8z" fill="none"/><path d="m22.2 78.3-24.4 24.3v3.1l27.4-27.4z" fill="#fff"/><path d="m28.3 78.3-30.5 30.4v27.4l57.8-57.8z" fill="#fff"/><path d="m-2.2 78.3v24.3l24.4-24.3z" fill="#ee2424"/><path d="m25.2 78.3-27.4 27.4v3l30.5-30.4z" fill="#67bc45"/><path d="m55.6 78.3-57.8 57.8h24.4l33.4-33.5z" fill="#ee2424"/></g></g></svg>