<?xml version="1.0" encoding="utf-8"?>
<!-- Generator: Adobe Illustrator 22.1.0, SVG Export Plug-In . SVG Version: 6.00 Build 0)  -->
<svg version="1.1" id="Layer_1" xmlns="http://www.w3.org/2000/svg" xmlns:xlink="http://www.w3.org/1999/xlink" x="0px" y="0px"
	 viewBox="0 0 100 100" style="enable-background:new 0 0 100 100;" xml:space="preserve">
<style type="text/css">
	.st0{fill:#BE1E2D;}
	.st1{fill:#00B0BB;}
	.st2{fill:#63C4AF;}
	.st3{fill:#EAEAEA;}
	.st4{fill:#413E34;}
	.st5{fill:none;}
	.st6{clip-path:url(#SVGID_2_);}
	.st7{clip-path:url(#SVGID_4_);}
	.st8{fill:#1E0D12;}
	.st9{fill:#E62F34;}
	.st10{fill:#25793D;}
	.st11{clip-path:url(#SVGID_6_);}
	.st12{clip-path:url(#SVGID_8_);}
	.st13{fill:#FFFFFF;}
	.st14{clip-path:url(#SVGID_10_);}
	.st15{clip-path:url(#SVGID_12_);}
	.st16{fill:#96BF4D;}
	.st17{clip-path:url(#SVGID_14_);}
	.st18{fill-rule:evenodd;clip-rule:evenodd;fill:#FFFFFF;}
	.st19{fill:#C92927;}
	.st20{fill:#253748;}
	.st21{clip-path:url(#SVGID_16_);}
	.st22{fill:#97CB59;}
	.st23{fill:#DA2128;}
	.st24{fill:#00A14B;}
	.st25{fill:#96171A;}
	.st26{fill:#D1E39B;}
	.st27{fill:#4FBBBB;}
	.st28{fill:#37343F;}
	.st29{fill:#077A64;}
	.st30{fill:#F4EED4;}
	.st31{fill:#012E47;}
	.st32{fill:#BE1C42;}
	.st33{fill:#008E9F;}
	.st34{fill:#CD4134;}
	.st35{clip-path:url(#SVGID_18_);}
	.st36{clip-path:url(#SVGID_20_);}
	.st37{fill:#EE2424;}
	.st38{fill:#67BC45;}
	.st39{clip-path:url(#SVGID_22_);}
	.st40{clip-path:url(#SVGID_24_);}
	.st41{fill:#004A54;}
	.st42{fill:#D93128;}
	.st43{fill:#401B23;}
	.st44{fill:#EE2D40;}
	.st45{fill:#F1EBC9;}
	.st46{fill-rule:evenodd;clip-rule:evenodd;fill:#C92927;}
	.st47{fill-rule:evenodd;clip-rule:evenodd;fill:#96BF4D;}
	.st48{fill:#BD3026;}
	.st49{opacity:0.4;fill:#CD4134;}
	.st50{fill:#E6B448;}
	.st51{fill:#E21F26;}
	.st52{fill:#A82123;}
	.st53{fill:#383A3A;}
	.st54{fill:#F17B22;}
	.st55{fill:#F1F0DC;}
	.st56{fill:#56AE78;}
	.st57{fill:#EE262E;}
	.st58{fill:#C47229;}
	.st59{fill:#FEC010;}
	.st60{fill:#C0343E;}
	.st61{fill:url(#SVGID_25_);}
	.st62{fill:#659DAA;}
	.st63{fill:#C9A784;}
	.st64{fill:#DDCFB5;}
	.st65{fill:#D2A886;}
	.st66{fill:#9B3227;}
	.st67{opacity:0.39;fill:#FFFFFF;}
	.st68{fill:#E5E5E5;}
	.st69{fill:#202945;}
	.st70{fill:none;stroke:#ACA300;stroke-miterlimit:10;}
	.st71{fill:none;stroke:#ACA300;stroke-miterlimit:10;stroke-dasharray:2.0083,2.0083;}
	.st72{fill:#ACA300;}
</style>
<g>
	<defs>
		<rect id="SVGID_1_" x="280" y="-140" width="100" height="100"/>
	</defs>
	<clipPath id="SVGID_2_">
		<use xlink:href="#SVGID_1_"  style="overflow:visible;"/>
	</clipPath>
	<g class="st6">
		<g>
			<defs>
				
					<rect id="SVGID_3_" x="-187.5" y="-146.7" transform="matrix(0.6711 -0.7413 0.7413 0.6711 52.3521 226.4281)" width="937.7" height="401.9"/>
			</defs>
			<clipPath id="SVGID_4_">
				<use xlink:href="#SVGID_3_"  style="overflow:visible;"/>
			</clipPath>
			<g class="st7">
				
					<rect x="-49.1" y="-563" transform="matrix(0.6711 -0.7413 0.7413 0.6711 272.2804 113.0027)" class="st5" width="625.1" height="625.1"/>
				
					<rect x="-49.1" y="-563" transform="matrix(0.6711 -0.7413 0.7413 0.6711 272.2804 113.0027)" class="st8" width="625.1" height="625.1"/>
				<polygon class="st10" points="169.6,86.2 166.8,31 164.1,-24.2 156.2,-23.8 148.3,-23.4 101,-21 53.7,-18.7 53.7,-18.7 
					169.6,86.2 				"/>
			</g>
			<g class="st7">
				
					<rect x="-468.6" y="-99.5" transform="matrix(0.6711 -0.7413 0.7413 0.6711 -209.2518 -45.6262)" class="st5" width="625.1" height="625.1"/>
				
					<rect x="-468.6" y="-99.5" transform="matrix(0.6711 -0.7413 0.7413 0.6711 -209.2518 -45.6262)" class="st8" width="625.1" height="625.1"/>
				<polygon class="st10" points="-3.9,94.8 4,94.4 -53.9,42 -53.5,49.9 				"/>
				<polygon class="st10" points="11.9,94 19.8,93.7 -54.7,26.2 -54.3,34.1 				"/>
				<polygon class="st10" points="27.7,93.3 35.6,92.9 -55.5,10.5 -55.1,18.3 				"/>
				<polygon class="st10" points="43.4,92.5 51.3,92.1 -56.3,-5.3 -55.9,2.6 				"/>
				<polygon class="st10" points="22.2,-17.1 55.3,12.9 54.9,5 30.1,-17.5 				"/>
				<polygon class="st10" points="8.8,-16.4 6.4,-16.3 56.1,28.6 55.7,20.7 14.3,-16.7 				"/>
				<polygon class="st10" points="-9.3,-15.5 56.9,44.4 56.5,36.5 -1.5,-15.9 				"/>
				<polygon class="st10" points="57.2,52.3 -17.2,-15.2 -25.1,-14.8 57.6,60.2 				"/>
				<polygon class="st10" points="58,68 -33,-14.4 -40.9,-14 58.4,75.9 				"/>
				<polygon class="st10" points="59.2,91.7 58.8,83.8 -48.8,-13.6 -49.3,-13.6 -56.6,-13.2 -56.6,-13.2 				"/>
				<polygon class="st10" points="56.5,36.5 56.6,38.6 59,87.9 59.2,91.7 59.2,91.7 59.2,91.7 67.7,91.3 75,90.9 75,90.9 84.7,90.4 
					90.7,90.1 90.7,90.1 98.6,89.7 98.6,89.7 103.4,89.5 114.4,89 114.4,89 118.1,88.8 130.2,88.2 130.2,88.2 132.8,88 145.9,87.4 
					145.9,87.4 147.5,87.3 169.6,86.2 169.6,86.2 53.7,-18.7 53.7,-18.7 56.5,36.5 				"/>
				
					<rect x="59.2" y="91.7" transform="matrix(0.6711 -0.7413 0.7413 0.6711 -48.5071 74.0494)" class="st10" width="0" height="0"/>
				<polygon class="st10" points="56.9,44.4 57.2,52.3 57.3,52.3 57.6,60.2 57.6,60.2 58,68 58,68 58.4,75.9 58.4,75.9 58.8,83.8 
					58.8,83.8 59,87.9 56.6,38.6 56.9,44.4 				"/>
				<polygon class="st10" points="54.5,-2.9 54.5,-2.9 54.9,5 54.9,5 55.3,12.9 55.3,12.9 55.7,20.7 55.7,20.7 56.1,28.6 56.1,28.6 
					56.5,36.5 56.5,36.5 53.7,-18.7 53.7,-18.7 54.1,-10.8 54.1,-10.8 				"/>
				<polygon class="st10" points="55.3,12.9 54.9,5 54.9,5 55.3,12.9 				"/>
				<polygon class="st10" points="56.1,28.6 55.7,20.7 55.7,20.7 56.1,28.6 				"/>
				<polygon class="st10" points="56.5,36.5 56.5,36.5 56.6,38.6 				"/>
				<polygon class="st10" points="56.9,44.4 56.6,38.6 56.5,36.5 56.5,36.5 56.9,44.4 				"/>
				<polygon class="st10" points="57.6,60.2 57.3,52.3 57.2,52.3 57.6,60.2 				"/>
				<polygon class="st10" points="58.4,75.9 58,68 58,68 58.4,75.9 				"/>
				<polygon class="st10" points="59.2,91.7 59,87.9 59.2,91.7 				"/>
				<polygon class="st10" points="58.8,83.8 59.2,91.7 59.2,91.7 59,87.9 58.8,83.8 				"/>
				<polygon class="st10" points="172.7,149.3 106.5,89.3 103.4,89.5 98.6,89.7 173.1,157.2 				"/>
				<polygon class="st10" points="98.6,89.7 98.6,89.7 103.4,89.5 				"/>
				<polygon class="st10" points="173.9,172.9 173.5,165.1 90.7,90.1 84.7,90.4 82.9,90.5 				"/>
				<polygon class="st10" points="90.7,90.1 84.7,90.4 90.7,90.1 				"/>
				<polygon class="st10" points="174.7,188.7 174.3,180.8 75,90.9 67.7,91.3 67.1,91.3 				"/>
				<polygon class="st10" points="75,90.9 67.7,91.3 75,90.9 				"/>
				<polygon class="st10" points="59.6,99.6 59.2,91.7 59.6,99.6 				"/>
				<polygon class="st10" points="167.2,197 175.1,196.6 59.2,91.7 59.6,99.6 				"/>
				<polygon class="st10" points="59.6,99.6 59.2,91.7 59.2,91.7 59.6,99.6 				"/>
			</g>
		</g>
	</g>
</g>
<g>
	<defs>
		<rect id="SVGID_5_" x="-560" y="0" width="100" height="100"/>
	</defs>
	<clipPath id="SVGID_6_">
		<use xlink:href="#SVGID_5_"  style="overflow:visible;"/>
	</clipPath>
	<g class="st11">
		<g>
			<defs>
				<rect id="SVGID_7_" x="-631.3" y="-698.9" width="595" height="1388.2"/>
			</defs>
			<clipPath id="SVGID_8_">
				<use xlink:href="#SVGID_7_"  style="overflow:visible;"/>
			</clipPath>
			<g class="st12">
				<rect x="-455.1" y="-1.6" class="st5" width="466" height="466"/>
				<rect x="-455.1" y="-1.6" class="st13" width="466" height="466"/>
				<g>
					<g>
						<polygon class="st10" points="10.9,94.8 -5.2,110.9 -13.3,110.9 10.9,86.8 						"/>
						<polygon class="st10" points="10.9,78.7 -21.3,110.9 -29.3,110.9 10.9,70.7 						"/>
						<polygon class="st10" points="10.9,62.7 -37.4,110.9 -45.4,110.9 10.9,54.6 						"/>
						<polygon class="st10" points="10.9,46.6 -53.4,110.9 -61.5,110.9 10.9,38.6 						"/>
						<polygon class="st10" points="10.9,30.5 -69.5,110.9 -77.5,110.9 10.9,22.5 						"/>
						<polygon class="st10" points="10.9,14.5 -85.6,110.9 -93.6,110.9 10.9,6.4 						"/>
						<polygon class="st10" points="10.9,-1.6 2.8,-1.6 -101.6,102.9 -101.6,110.9 						"/>
					</g>
				</g>
			</g>
		</g>
	</g>
</g>
<g>
	<defs>
		<rect id="SVGID_13_" x="-140" y="0" width="100" height="100"/>
	</defs>
	<clipPath id="SVGID_10_">
		<use xlink:href="#SVGID_13_"  style="overflow:visible;"/>
	</clipPath>
	<g class="st14">
		<rect x="-224.6" y="-90.3" class="st18" width="268.4" height="268.4"/>
		<g>
			<polygon class="st19" points="-202.2,10.3 -185.4,27.1 -179.9,32.7 -174.3,27.1 -157.5,10.3 -140.7,27.1 -135.1,32.7 
				-129.5,27.1 -112.7,10.3 -90.4,32.7 -84.8,27.1 -68,10.3 -51.2,27.1 -45.6,32.7 -40.1,27.1 -40.1,27.1 -23.3,10.3 -6.5,27.1 
				-6.5,27.1 -0.9,32.7 -0.9,32.7 -0.9,32.7 4.7,27.1 4.7,27.1 21.5,10.3 43.8,32.7 43.8,21.5 27,4.7 21.5,-0.9 15.9,4.7 -0.9,21.5 
				-23.3,-0.9 -28.9,4.7 -45.6,21.5 -62.4,4.7 -68,-0.9 -73.6,4.7 -90.4,21.5 -112.7,-0.9 -118.3,4.7 -135.1,21.5 -151.9,4.7 
				-157.5,-0.9 -163.1,4.7 -179.9,21.5 -196.6,4.7 -202.2,-0.9 -207.8,4.7 -224.6,21.5 -224.6,32.7 -224.6,32.7 			"/>
			<polygon class="st19" points="-202.2,55 -185.4,71.8 -179.9,77.4 -174.3,71.8 -157.5,55 -140.7,71.8 -135.1,77.4 -129.5,71.8 
				-112.7,55 -90.4,77.4 -84.8,71.8 -68,55 -51.2,71.8 -45.6,77.4 -40.1,71.8 -40.1,71.8 -23.3,55 -6.5,71.8 -6.5,71.8 -0.9,77.4 
				-0.9,77.4 -0.9,77.4 4.7,71.8 4.7,71.8 21.5,55 43.8,77.4 43.8,66.2 27,49.5 21.5,43.9 15.9,49.5 -0.9,66.2 -23.3,43.9 
				-28.9,49.5 -45.6,66.2 -62.4,49.5 -68,43.9 -73.6,49.5 -90.4,66.2 -112.7,43.9 -118.3,49.5 -135.1,66.2 -151.9,49.5 -157.5,43.9 
				-163.1,49.5 -179.9,66.2 -196.6,49.5 -202.2,43.9 -207.8,49.5 -224.6,66.2 -224.6,77.4 -224.6,77.4 			"/>
			<polygon class="st19" points="-202.2,99.8 -185.4,116.6 -179.9,122.1 -174.3,116.6 -157.5,99.8 -140.7,116.6 -135.1,122.1 
				-129.5,116.6 -112.7,99.8 -90.4,122.1 -84.8,116.6 -68,99.8 -51.2,116.6 -45.6,122.1 -40.1,116.6 -40.1,116.6 -23.3,99.8 
				-6.5,116.6 -6.5,116.6 -0.9,122.1 -0.9,122.1 -0.9,122.1 4.7,116.6 4.7,116.6 21.5,99.8 43.8,122.1 43.8,111 27,94.2 21.5,88.6 
				15.9,94.2 -0.9,111 -23.3,88.6 -28.9,94.2 -45.6,111 -62.4,94.2 -68,88.6 -73.6,94.2 -90.4,111 -112.7,88.6 -118.3,94.2 
				-135.1,111 -151.9,94.2 -157.5,88.6 -163.1,94.2 -179.9,111 -196.6,94.2 -202.2,88.6 -207.8,94.2 -224.6,111 -224.6,122.1 
				-224.6,122.1 			"/>
		</g>
		<g>
			<polygon class="st16" points="-202.2,-12.1 -185.4,4.7 -179.9,10.3 -174.3,4.7 -157.5,-12.1 -140.7,4.7 -135.1,10.3 -129.5,4.7 
				-112.7,-12.1 -90.4,10.3 -84.8,4.7 -68,-12.1 -51.2,4.7 -45.6,10.3 -40.1,4.7 -40.1,4.7 -23.3,-12.1 -6.5,4.7 -6.5,4.7 
				-0.9,10.3 -0.9,10.3 -0.9,10.3 4.7,4.7 4.7,4.7 21.5,-12.1 43.8,10.3 43.8,-0.9 27,-17.6 21.5,-23.2 15.9,-17.6 -0.9,-0.9 
				-23.3,-23.2 -28.9,-17.6 -45.6,-0.9 -62.4,-17.6 -68,-23.2 -73.6,-17.6 -90.4,-0.9 -112.7,-23.2 -118.3,-17.6 -135.1,-0.9 
				-151.9,-17.6 -157.5,-23.2 -163.1,-17.6 -179.9,-0.9 -196.6,-17.6 -202.2,-23.2 -207.8,-17.6 -224.6,-0.9 -224.6,10.3 
				-224.6,10.3 			"/>
			<polygon class="st16" points="-202.2,32.7 -185.4,49.5 -179.9,55 -174.3,49.5 -157.5,32.7 -140.7,49.5 -135.1,55 -129.5,49.5 
				-112.7,32.7 -90.4,55 -84.8,49.5 -68,32.7 -51.2,49.5 -45.6,55 -40.1,49.5 -40.1,49.5 -23.3,32.7 -6.5,49.5 -6.5,49.5 -0.9,55 
				-0.9,55 -0.9,55 4.7,49.5 4.7,49.5 21.5,32.7 43.8,55 43.8,43.9 27,27.1 21.5,21.5 15.9,27.1 -0.9,43.9 -23.3,21.5 -28.9,27.1 
				-45.6,43.9 -62.4,27.1 -68,21.5 -73.6,27.1 -90.4,43.9 -112.7,21.5 -118.3,27.1 -135.1,43.9 -151.9,27.1 -157.5,21.5 
				-163.1,27.1 -179.9,43.9 -196.6,27.1 -202.2,21.5 -207.8,27.1 -224.6,43.9 -224.6,55 -224.6,55 			"/>
			<polygon class="st16" points="-202.2,77.4 -185.4,94.2 -179.9,99.8 -174.3,94.2 -157.5,77.4 -140.7,94.2 -135.1,99.8 
				-129.5,94.2 -112.7,77.4 -90.4,99.8 -84.8,94.2 -68,77.4 -51.2,94.2 -45.6,99.8 -40.1,94.2 -40.1,94.2 -23.3,77.4 -6.5,94.2 
				-6.5,94.2 -0.9,99.8 -0.9,99.8 -0.9,99.8 4.7,94.2 4.7,94.2 21.5,77.4 43.8,99.8 43.8,88.6 27,71.8 21.5,66.2 15.9,71.8 
				-0.9,88.6 -23.3,66.2 -28.9,71.8 -45.6,88.6 -62.4,71.8 -68,66.2 -73.6,71.8 -90.4,88.6 -112.7,66.2 -118.3,71.8 -135.1,88.6 
				-151.9,71.8 -157.5,66.2 -163.1,71.8 -179.9,88.6 -196.6,71.8 -202.2,66.2 -207.8,71.8 -224.6,88.6 -224.6,99.8 -224.6,99.8 			
				"/>
		</g>
	</g>
</g>
<rect x="0" y="0" class="st5" width="100" height="100"/>
<g>
	<defs>
		<rect id="SVGID_21_" x="-140" y="280" width="100" height="100"/>
	</defs>
	<clipPath id="SVGID_12_">
		<use xlink:href="#SVGID_21_"  style="overflow:visible;"/>
	</clipPath>
	<g class="st15">
		<g>
			<defs>
				<rect id="SVGID_23_" x="-179.2" y="78.3" width="154.9" height="464.7"/>
			</defs>
			<clipPath id="SVGID_14_">
				<use xlink:href="#SVGID_23_"  style="overflow:visible;"/>
			</clipPath>
			<g class="st17">
				<rect x="-26.5" y="78.3" class="st5" width="57.8" height="57.8"/>
				<polygon class="st13" points="-2.2,78.3 -26.5,102.6 -26.5,105.7 0.8,78.3 				"/>
				<polygon class="st13" points="3.9,78.3 -26.5,108.7 -26.5,136.1 31.3,78.3 				"/>
				<polygon class="st38" points="0.8,78.3 -26.5,105.7 -26.5,108.7 3.9,78.3 				"/>
				<polygon class="st37" points="31.3,78.3 31.3,78.3 -26.5,136.1 -26.5,136.1 -2.2,136.1 31.3,102.6 				"/>
			</g>
		</g>
	</g>
</g>
<g>
	<path class="st46" d="M69.9,47.7v22.4c0,2-1.9,3.6-4.3,3.6h-12v-26H69.9L69.9,47.7z M49.2,73.6h-12c-2.4,0-4.3-1.6-4.3-3.6V47.7
		h16.3V73.6z"/>
	<path class="st47" d="M52.5,35.8c1.8,1.4,5.3,0.7,8.1-1.8c3-2.7,4.2-6.3,2.6-8.2c-1.6-1.9-5.4-1.2-8.4,1.5c-1.8,1.6-3,3.6-3.3,5.3
		c0,0,0,0-0.1,0c0,0,0,0-0.1,0c-0.3-1.7-1.4-3.7-3.3-5.3c-3-2.7-6.8-3.3-8.4-1.5c-1.6,1.9-0.5,5.5,2.6,8.2c2.9,2.5,6.4,3.2,8.1,1.8
		c0.3,0.2,0.7,0.3,1.1,0.3C51.8,36.1,52.2,36,52.5,35.8L52.5,35.8z M52,32.7c0.1-1,0.6-2,1.4-2.7c1.6-1.4,3.8-1.4,5-0.1
		c1.2,1.4,0.9,3.6-0.7,5c-1.5,1.3-3.5,1.4-4.8,0.3c0.1-0.3,0.2-0.6,0.2-0.9C53.2,33.6,52.7,32.9,52,32.7L52,32.7z M49.9,35.2
		c-1.2,1.1-3.3,1-4.7-0.3c-1.6-1.4-1.9-3.6-0.7-5c1.2-1.4,3.4-1.3,5,0.1c0.9,0.7,1.3,1.7,1.4,2.7c-0.7,0.2-1.2,0.9-1.2,1.7
		C49.7,34.7,49.7,35,49.9,35.2z"/>
	<path class="st46" d="M32.8,37h16.5v9.6H32.8c-0.8,0-1.5-0.7-1.5-1.5v-6.5C31.2,37.7,31.9,37,32.8,37L32.8,37z M53.7,37h16.4
		c0.8,0,1.5,0.7,1.5,1.5v6.5c0,0.8-0.7,1.5-1.5,1.5H53.7V37z"/>
	<rect x="49.2" y="37" class="st47" width="4.4" height="36.7"/>
</g>
</svg>
