<?xml version="1.0" encoding="utf-8"?>
<!-- Generator: Adobe Illustrator 22.1.0, SVG Export Plug-In . SVG Version: 6.00 Build 0)  -->
<svg version="1.1" id="Layer_1" xmlns="http://www.w3.org/2000/svg" xmlns:xlink="http://www.w3.org/1999/xlink" x="0px" y="0px"
	 viewBox="0 0 100 100" style="enable-background:new 0 0 100 100;" xml:space="preserve">
<style type="text/css">
	.st0{fill:#BE1E2D;}
	.st1{fill:#00B0BB;}
	.st2{fill:#63C4AF;}
	.st3{fill:#EAEAEA;}
	.st4{fill:#413E34;}
	.st5{fill:none;}
	.st6{clip-path:url(#SVGID_2_);}
	.st7{clip-path:url(#SVGID_4_);}
	.st8{fill:#1E0D12;}
	.st9{fill:#E62F34;}
	.st10{fill:#25793D;}
	.st11{clip-path:url(#SVGID_6_);}
	.st12{clip-path:url(#SVGID_8_);}
	.st13{fill:#FFFFFF;}
	.st14{clip-path:url(#SVGID_10_);}
	.st15{clip-path:url(#SVGID_12_);}
	.st16{fill:#96BF4D;}
	.st17{clip-path:url(#SVGID_14_);}
	.st18{fill-rule:evenodd;clip-rule:evenodd;fill:#FFFFFF;}
	.st19{fill:#C92927;}
	.st20{fill:#253748;}
	.st21{clip-path:url(#SVGID_16_);}
	.st22{fill:#97CB59;}
	.st23{fill:#DA2128;}
	.st24{fill:#00A14B;}
	.st25{fill:#96171A;}
	.st26{fill:#D1E39B;}
	.st27{fill:#4FBBBB;}
	.st28{fill:#37343F;}
	.st29{fill:#077A64;}
	.st30{fill:#F4EED4;}
	.st31{fill:#012E47;}
	.st32{fill:#BE1C42;}
	.st33{fill:#008E9F;}
	.st34{fill:#CD4134;}
	.st35{clip-path:url(#SVGID_18_);}
	.st36{clip-path:url(#SVGID_20_);}
	.st37{fill:#EE2424;}
	.st38{fill:#67BC45;}
	.st39{clip-path:url(#SVGID_22_);}
	.st40{clip-path:url(#SVGID_24_);}
	.st41{fill:#004A54;}
	.st42{fill:#D93128;}
	.st43{fill:#401B23;}
	.st44{fill:#EE2D40;}
	.st45{fill:#F1EBC9;}
	.st46{fill-rule:evenodd;clip-rule:evenodd;fill:#C92927;}
	.st47{fill-rule:evenodd;clip-rule:evenodd;fill:#96BF4D;}
	.st48{fill:#BD3026;}
	.st49{opacity:0.4;fill:#CD4134;}
	.st50{fill:#E6B448;}
	.st51{fill:#E21F26;}
	.st52{fill:#A82123;}
	.st53{fill:#383A3A;}
	.st54{fill:#F17B22;}
	.st55{fill:#F1F0DC;}
	.st56{fill:#56AE78;}
	.st57{fill:#EE262E;}
	.st58{fill:#C47229;}
	.st59{fill:#FEC010;}
	.st60{fill:#C0343E;}
	.st61{fill:url(#SVGID_25_);}
	.st62{fill:#659DAA;}
	.st63{fill:#C9A784;}
	.st64{fill:#DDCFB5;}
	.st65{fill:#D2A886;}
	.st66{fill:#9B3227;}
	.st67{opacity:0.39;fill:#FFFFFF;}
	.st68{fill:#E5E5E5;}
	.st69{fill:#202945;}
	.st70{fill:none;stroke:#ACA300;stroke-miterlimit:10;}
	.st71{fill:none;stroke:#ACA300;stroke-miterlimit:10;stroke-dasharray:2.0083,2.0083;}
	.st72{fill:#ACA300;}
</style>
<g>
	<defs>
		<rect id="SVGID_1_" x="140" y="-140" width="100" height="100"/>
	</defs>
	<clipPath id="SVGID_2_">
		<use xlink:href="#SVGID_1_"  style="overflow:visible;"/>
	</clipPath>
	<g class="st6">
		<g>
			<defs>
				
					<rect id="SVGID_3_" x="-327.5" y="-146.7" transform="matrix(0.6711 -0.7413 0.7413 0.6711 6.3124 122.6424)" width="937.7" height="401.9"/>
			</defs>
			<clipPath id="SVGID_4_">
				<use xlink:href="#SVGID_3_"  style="overflow:visible;"/>
			</clipPath>
			<g class="st7">
				
					<rect x="-189.1" y="-563" transform="matrix(0.6711 -0.7413 0.7413 0.6711 226.2406 9.2169)" class="st5" width="625.1" height="625.1"/>
				
					<rect x="-189.1" y="-563" transform="matrix(0.6711 -0.7413 0.7413 0.6711 226.2406 9.2169)" class="st8" width="625.1" height="625.1"/>
				<polygon class="st10" points="29.6,86.2 26.8,31 24.1,-24.2 16.2,-23.8 8.3,-23.4 -39,-21 -86.3,-18.7 -86.3,-18.7 29.6,86.2 
									"/>
				<polygon class="st10" points="29.2,78.3 29.6,86.2 37.5,85.8 				"/>
				<polygon class="st10" points="28.8,70.4 45.4,85.4 53.2,85 28.4,62.6 				"/>
				<polygon class="st10" points="28,54.7 61.1,84.6 69,84.2 27.6,46.8 				"/>
				<polygon class="st10" points="76.9,83.9 84.8,83.5 26.8,31 27.2,38.9 				"/>
				<polygon class="st10" points="26.5,23.1 92.7,83.1 100.5,82.7 26.1,15.2 				"/>
				<polygon class="st10" points="25.7,7.4 108.4,82.3 116.3,81.9 25.3,-0.5 				"/>
				<polygon class="st10" points="24.9,-8.4 124.2,81.5 132.1,81.1 24.5,-16.3 				"/>
				<polygon class="st10" points="87.2,-27.3 136.8,17.6 136.4,9.8 95.1,-27.7 				"/>
				<polygon class="st10" points="71.4,-26.5 137.6,33.4 137.2,25.5 79.3,-26.9 				"/>
				<polygon class="st10" points="55.6,-25.7 138.4,49.2 138,41.3 63.5,-26.1 				"/>
				<polygon class="st10" points="39.9,-24.9 139.2,65 138.8,57.1 47.8,-25.3 				"/>
				<polygon class="st10" points="32,-24.6 24.1,-24.2 140,80.7 139.6,72.8 				"/>
				<polygon class="st10" points="29.6,86.2 29.6,86.2 29.6,86.2 				"/>
			</g>
			<g class="st7">
				
					<rect x="-608.6" y="-99.5" transform="matrix(0.6711 -0.7413 0.7413 0.6711 -255.2916 -149.4119)" class="st5" width="625.1" height="625.1"/>
				
					<rect x="-608.6" y="-99.5" transform="matrix(0.6711 -0.7413 0.7413 0.6711 -255.2916 -149.4119)" class="st8" width="625.1" height="625.1"/>
				<polygon class="st10" points="-83.5,36.5 -83.4,38.6 -81,87.9 -80.8,91.7 -80.8,91.7 -80.8,91.7 -72.3,91.3 -65,90.9 -65,90.9 
					-55.3,90.4 -49.3,90.1 -49.3,90.1 -41.4,89.7 -41.4,89.7 -36.6,89.5 -25.6,89 -25.6,89 -21.9,88.8 -9.8,88.2 -9.8,88.2 -7.2,88 
					5.9,87.4 5.9,87.4 7.5,87.3 29.6,86.2 29.6,86.2 -86.3,-18.7 -86.3,-18.7 -83.5,36.5 				"/>
				<polygon class="st10" points="29.6,86.2 29.6,86.2 29.6,86.2 				"/>
				<polygon class="st10" points="30,94.1 29.6,86.2 21.7,86.6 				"/>
				<polygon class="st10" points="30.4,102 13.8,87 7.5,87.3 5.9,87.4 30.8,109.9 				"/>
				<polygon class="st10" points="5.9,87.4 5.9,87.4 7.5,87.3 				"/>
				<polygon class="st10" points="31.1,117.8 -2,87.8 -7.2,88 -9.8,88.2 31.5,125.6 				"/>
				<polygon class="st10" points="31.9,133.5 -17.7,88.6 -21.9,88.8 -25.6,89 32.3,141.4 				"/>
				<polygon class="st10" points="32.7,149.3 -33.5,89.3 -36.6,89.5 -41.4,89.7 33.1,157.2 				"/>
				<polygon class="st10" points="33.9,172.9 33.5,165.1 -49.3,90.1 -55.3,90.4 -57.1,90.5 				"/>
				<polygon class="st10" points="34.7,188.7 34.3,180.8 -65,90.9 -72.3,91.3 -72.9,91.3 				"/>
				<polygon class="st10" points="27.2,197 35.1,196.6 -80.8,91.7 -80.4,99.6 				"/>
			</g>
		</g>
	</g>
</g>
<g>
	<g>
		<g>
			<path class="st50" d="M43.4,41.1c-3.7-1.7-6.1-5.7-5.7-9.8c0.3-4.2,3.8-7.3,7.9-8c4-0.7,7.8,1.5,9.5,5.2c0.8,1.7,1.1,3.6,0.8,5.4
				c-0.2,1.6-1.4,3.1-1.3,4.7c0.3,2.9,3.4,1.6,4.8,0.5c1.8-1.3,3-3.4,5-4.5c2.7-1.5,5.5,0,5.8,3.1c0.4,4.3-5.3,5.9-8,8.3
				c-2.1,1.9-3,4.5-2,7.2c1.2,3.5,4.1,7.2,6.9,9.6c0.7,0.6,1.4,1,2.4,0.8c0.5-0.1,0.8-0.5,1.2-0.7c0.7-0.4,1.6-1,2.4-1
				c1.4,0.1,1.8,2.4,1.8,3.3c-0.2,2.3-1.9,4.6-3.6,6.1c-2.3,2-4.9,1.8-7.4,0.3c-3.1-1.9-5.2-5.6-8.7-6.8c-3.5-1.2-4.6,3.1-5.8,5.5
				c-2,4-4.6,9.8-10,6.7c-1.7-1-3.5-2.6-4.4-4.4c-0.7-1.3-1-3.3,0.4-4.3c1.8-1.3,2.3,0.4,3.7,0.7c2.7,0.6,4.2-3.7,4.9-5.6
				c1.1-3.1,2.6-8.1-0.2-10.8c-2.8-2.7-7.5-2.9-11.1-3.4c-1.7-0.3-3.3-0.8-3.9-2.6c-0.6-1.5-0.2-3.1,1-4.2c2-1.8,5-0.8,7.3-0.1
				c1.7,0.5,6.8,1.9,6.4-1.4c-0.1-1-1.6-0.7-1.5,0.3c0.1,0.9-6.5-0.9-7.2-1C33,40,31.1,40,29.5,41.1c-2.5,1.6-3.2,5.1-1.4,7.5
				c1,1.3,2.3,1.8,3.8,2.1c2.8,0.5,5.6,0.7,8.4,1.7c1.4,0.5,2.9,1.3,3.4,2.9c0.4,1.4,0,3.5-0.3,4.9c-0.4,1.9-1.8,7.8-4.6,7.2
				c-1.3-0.3-1.7-1.2-3.2-0.6c-1.3,0.5-2.2,1.7-2.5,3c-0.7,3.7,3.4,7.6,6.5,9c3.2,1.4,6.2,0.2,8.2-2.6c1.3-1.8,2.1-3.8,3.1-5.8
				c0.5-1,1-2.6,1.8-3.4c1.8-2,4.6,0.9,5.7,1.9c2.7,2.6,5.7,6,9.9,5.7c3.6-0.3,6.9-4.3,7.8-7.6c0.8-2.6-0.4-7.1-4-6.6
				c-0.5,0.1-1,0.4-1.4,0.7c-0.9,0.6-0.7,0.8-1.8,0.8c-1.1,0-1.3-0.4-2-1.1c-1.9-2-3.7-4.2-4.9-6.7c-3.1-6.3,3.7-8,7.2-11.4
				c2.2-2.1,3-5.2,1.1-7.9c-2-2.9-5.5-2.2-7.9-0.2c-1,0.8-1.8,1.8-2.7,2.7c-0.7,0.7-4.1,3.4-3.8,0.1c0.1-0.9,0.7-1.8,0.9-2.7
				c0.2-0.8,0.2-1.7,0.2-2.6c-0.5-8.2-9.5-12.6-16.2-7.9c-6.5,4.6-4.9,14.5,2.2,17.5C43.6,42,43.8,41.3,43.4,41.1L43.4,41.1z"/>
		</g>
		<g>
			<g>
				<path class="st50" d="M38.6,28.5c0,0.3-0.1,2.7-0.2,1.2c0-0.1-0.1-0.1-0.2,0c-0.2,0.7-0.3,1.2-0.3,1.9c0,0.1,0.2,0.2,0.2,0
					c0-0.7,0-1.4,0-2.2c0-0.1-0.2-0.2-0.2,0c-0.2,1.1-0.3,2-0.1,3.1c0,0.1,0.3,0.2,0.3,0c0.2-0.9,0.2-1.7,0.1-2.5
					c0-0.2-0.3-0.2-0.3,0c0,1.4,0.1,2.9,0.1,4.3c0,0.2,0.2,0.2,0.3,0.1c0.6-1.2,0.8-2.3,0.9-3.6c0-0.2-0.3-0.2-0.3,0
					c-0.2,1.7-0.2,3.4,0,5.1c0,0.2,0.3,0.2,0.4,0c0.3-1.4,0.5-2.9,0.5-4.3c0-0.3-0.4-0.3-0.4,0C39,33,38.9,34.5,39,36
					c0,0.3,0.4,0.3,0.4,0c0-0.9,0-1.8,0-2.6c0-0.3-0.4-0.3-0.4,0c-0.1,1.4,0,2.6,0.2,4c0,0.2,0.4,0.2,0.4,0c0.4-1.1,0.6-2,0.5-3.2
					c0-0.3-0.4-0.3-0.5,0c-0.1,1.5,0,3,0.3,4.5c0.1,0.3,0.4,0.2,0.5,0c0.2-1.3,0.2-2.6,0.1-3.9c-0.2,0-0.3,0.1-0.5,0.1
					c0.2,1.4,0.3,2.7,0.5,4.1c0,0.3,0.4,0.3,0.5,0c0.4-1.3,0.5-2.4,0.4-3.7c0-0.3-0.5-0.4-0.5,0c0,1.7,0.3,3.3,0.9,5
					c0.1,0.3,0.5,0.1,0.5-0.1c0.2-1.2,0.2-2.4,0-3.6c0-0.3-0.6-0.2-0.5,0.1c0.2,1.5,0.5,2.9,0.9,4.3c0.1,0.3,0.5,0.3,0.5,0
					c0.1-2.6-0.1-5.2-0.5-7.8c-0.1-0.3-0.5-0.3-0.5,0c0,1.7,0,3.4,0,5.1c0.2,0,0.4,0,0.5,0c-0.1-2.4-0.2-4.8-0.3-7.2
					c0-0.3-0.5-0.4-0.6,0c0,1.5-0.1,3-0.1,4.6c0.2,0,0.4,0,0.5,0c-0.2-1.8-0.4-3.6-0.5-5.5c0-0.3-0.6-0.3-0.6,0
					c0,1.4-0.1,2.7-0.3,4.1c0.2,0,0.4,0,0.6,0c-0.2-1.2-0.3-2.4-0.3-3.6c0-0.4-0.5-0.4-0.6,0c-0.1,1.3-0.3,2.6-0.4,3.9
					c0.2,0,0.4,0,0.6,0c0.1-1.6,0-3.1-0.2-4.6c0-0.3-0.5-0.3-0.6,0c-0.1,1.2-0.3,2.4-0.4,3.6c0.2,0,0.4,0,0.6,0
					c-0.1-1.3-0.2-2.7-0.4-4c0-0.3-0.5-0.2-0.5,0c-0.2,1.1-0.4,2.1-0.5,3.2c0.2,0,0.4,0,0.5,0c-0.1-0.9-0.3-1.7-0.4-2.6
					c0-0.3-0.5-0.3-0.5,0c-0.4,1.7-0.5,3.2-0.1,5c0.1,0.3,0.5,0.2,0.5,0c0.3-2.5,0.6-5,0.8-7.5c-0.2,0-0.3,0-0.5,0c0,0.3,0,0.6,0,1
					c0,0.3,0.4,0.4,0.5,0.1c0.2-0.5,0.3-1,0.5-1.5c-0.2,0-0.3-0.1-0.5-0.1c0.1,0.9,0.1,1.7,0.2,2.6c0,0.3,0.4,0.4,0.5,0.1
					c0.2-0.9,0.4-1.8,0.5-2.8c-0.2,0-0.3-0.1-0.5-0.1C40,27.7,39.9,28.8,40,30c0,0.3,0.4,0.3,0.5,0c0.3-1.5,0.5-3.1,0.8-4.6
					c-0.2,0-0.3,0-0.5,0c-0.2,1.6-0.3,3.2-0.3,4.9c0,0.3,0.4,0.4,0.5,0.1c0.3-1.5,0.5-3,0.6-4.6c0-0.3-0.5-0.4-0.5,0
					c-0.1,1.5-0.1,2.9-0.1,4.4c0,0.3,0.4,0.4,0.5,0.1c0.4-1.8,0.6-3.6,0.6-5.5c-0.2,0-0.4,0-0.5,0c0.1,1.5,0.1,3,0.2,4.4
					c0,0.3,0.5,0.4,0.5,0c0.2-1.7,0.3-3.4,0.5-5.1c-0.2,0-0.4,0-0.5,0c0.1,0.9,0.1,1.9,0.2,2.8c0,0.3,0.5,0.3,0.6,0
					c0.1-0.7,0.1-1.5,0.2-2.2c-0.2,0-0.4,0-0.6,0c0,1.2,0,2.5,0.1,3.7c0,0.4,0.5,0.4,0.6,0c0.2-1.4,0.4-2.9,0.6-4.3
					c-0.2,0-0.4,0-0.6,0c0.1,1.2,0.2,2.3,0.3,3.5c0,0.4,0.6,0.4,0.6,0c0.1-1.2,0.1-2.3,0.2-3.5c-0.2,0-0.4,0-0.6,0
					c0.1,0.9,0.3,1.8,0.4,2.7c0.1,0.4,0.5,0.3,0.6,0c0.2-0.9,0.3-1.8,0.5-2.7c-0.2,0-0.4,0-0.6,0c0.1,0.9,0.2,1.8,0.3,2.8
					c0,0.3,0.6,0.3,0.6,0c0-1.1,0.1-2.1,0.1-3.2c-0.2,0-0.4,0-0.6,0c0.1,1,0.3,2,0.4,3c0.1,0.3,0.6,0.3,0.6,0
					c0.1-0.9,0.1-1.8,0.2-2.6c-0.2,0-0.4,0-0.6,0c0.2,0.8,0.3,1.6,0.5,2.4c0.1,0.3,0.6,0.3,0.6,0c0.1-0.9,0.1-1.8,0.2-2.8
					c-0.2,0-0.4,0-0.6,0c0.3,1.1,0.6,2.1,0.8,3.2c0.1,0.4,0.7,0.3,0.6-0.1c-0.1-1.1-0.3-2.2-0.4-3.3c-0.2,0-0.4,0.1-0.6,0.1
					c0.1,0.7,0.2,1.4,0.3,2.1c0.1,0.4,0.6,0.3,0.6,0c0.1-0.7,0.1-1.5,0.2-2.2c-0.2,0-0.4,0-0.6,0c0.3,0.9,0.5,1.8,0.8,2.7
					c0.1,0.3,0.6,0.3,0.6,0c0.1-0.8,0-1.4-0.1-2.2c-0.2,0-0.4,0.1-0.6,0.1c0.2,0.9,0.5,1.7,0.7,2.6c0.1,0.4,0.6,0.3,0.6-0.1
					c-0.1-1.1-0.2-2.1-0.3-3.2c-0.2,0.1-0.4,0.1-0.6,0.2c0.4,1,0.8,1.9,1.2,2.9c0.1,0.3,0.6,0.2,0.6-0.1c0-0.8-0.1-1.5-0.3-2.2
					c-0.2,0.1-0.4,0.2-0.5,0.3c0.4,0.5,0.7,1,0.9,1.6c0.1,0.2,0.5,0.2,0.6,0c0.2-0.8,0.2-0.6,0-1.4c-0.2,0.1-0.4,0.1-0.6,0.2
					c0.5,1,1,1.7,1.7,2.5c0.2,0.2,0.6,0,0.5-0.3c-0.1-0.7-0.2-1.2-0.5-1.8c-0.1-0.3-0.7-0.1-0.6,0.2c0.3,1.2,0.7,2.1,1.3,3.2
					c0.2,0.3,0.7,0.1,0.6-0.2c-0.2-0.9-0.3-1.8-0.5-2.7c-0.2,0.1-0.4,0.1-0.6,0.2c0.5,0.9,1,1.8,1.4,2.7c0.2,0.4,0.6,0.1,0.6-0.2
					c-0.1-0.9-0.3-1.6-0.6-2.4c-0.1-0.4-0.7-0.3-0.6,0.1c0.2,1.4,0.6,2.7,1.1,3.9c0.1,0.3,0.6,0.2,0.6-0.1c0-0.3,0-0.5,0.1-0.8
					c-0.2,0-0.4,0.1-0.6,0.1c0.5,1.3,0.8,2.6,1,4c0.1,0.4,0.6,0.3,0.6,0c0-0.9-0.1-1.8-0.1-2.7c0-0.4-0.6-0.5-0.6,0
					c0,1.1,0,2.2,0,3.3c0.2,0,0.4,0,0.6,0c-0.2-1.5-0.4-3-0.7-4.5c-0.1-0.4-0.6-0.3-0.6,0c0,1.5,0,3.1,0.1,4.6c0.2,0,0.4,0,0.6,0
					c-0.4-2-0.9-4.1-1.3-6.1c-0.1-0.3-0.6-0.3-0.6,0c0,1.7,0,3.3,0.1,5c0.2,0,0.4,0,0.6,0c-0.4-1.8-0.7-3.6-1.1-5.5
					c-0.1-0.4-0.6-0.3-0.6,0c0,1.7,0.1,3.3,0.4,5c0.2,0,0.4-0.1,0.6-0.1c-0.4-1.7-0.9-3.4-1.3-5.1c-0.1-0.4-0.6-0.3-0.6,0
					c-0.2,1.6-0.2,3.2,0,4.9c0.2,0,0.4-0.1,0.6-0.1c-0.4-2.2-0.9-4.4-1.5-6.6C50.6,25,50,25,50,25.4c0,2.1,0.2,4.1,0.5,6.1
					c0.2,0,0.4-0.1,0.6-0.1c-0.3-1.5-0.6-2.9-0.9-4.4c-0.1-0.3-0.7-0.3-0.6,0c0.1,1.8,0.2,3.5,0.3,5.3c0.2,0,0.4,0,0.6,0
					c-0.3-1.8-0.7-3.6-1.1-5.4c-0.1-0.4-0.6-0.3-0.6,0c-0.3,1.9-0.3,3.8,0,5.8c0.1,0.4,0.7,0.3,0.6-0.1c-0.2-1.8-0.6-3.5-1.2-5.2
					c-0.1-0.3-0.6-0.3-0.6,0c-0.1,1.8,0,3.5,0.3,5.3c0.1,0.4,0.7,0.3,0.6-0.1c-0.2-1.9-0.6-3.8-1.2-5.6c-0.1-0.3-0.6-0.3-0.6,0
					c-0.1,2.1-0.1,4.2,0.2,6.3c0.2,0,0.4-0.1,0.6-0.1c-0.4-2.2-0.9-4.3-1.3-6.5c-0.1-0.4-0.6-0.3-0.6,0c-0.2,2.1-0.1,4.2,0.3,6.3
					c0.1,0.4,0.7,0.3,0.6-0.1c-0.3-1.8-0.6-3.6-1.2-5.4c-0.1-0.3-0.6-0.3-0.6,0c-0.1,1.8,0,3.5,0.1,5.3c0.2,0,0.4-0.1,0.6-0.1
					c-0.4-1.7-0.7-3.4-1.1-5.2c-0.1-0.3-0.6-0.3-0.6,0c0.1,1.8,0.2,3.7,0.2,5.5c0.2,0,0.4,0,0.6,0c-0.2-1.9-0.6-3.8-1.1-5.6
					C43.5,27,43,27,43,27.4c-0.1,1.9-0.1,3.8,0,5.7c0,0.4,0.6,0.3,0.6,0c-0.1-1.8-0.3-3.4-0.7-5.2c-0.1-0.4-0.6-0.3-0.6,0
					c-0.1,2.4,0,4.8,0.4,7.2c0.1,0.4,0.6,0.3,0.6,0c0.1-1.4,0-2.6-0.2-3.9c-0.1-0.3-0.6-0.3-0.6,0c0,2.8,0.4,5.6,1.1,8.4
					c0.1,0.3,0.6,0.3,0.6,0c0.1-2.1,0-4.1-0.3-6.1c-0.1-0.4-0.6-0.3-0.6,0c0,2.4,0.3,4.8,0.7,7.2c0.1,0.4,0.6,0.3,0.6,0
					c0.3-2.7,0.2-5.3-0.2-8c-0.1-0.4-0.7-0.3-0.6,0.1c0.3,2.6,0.7,5.3,1,7.9c0,0.4,0.6,0.3,0.6,0c0.1-2.6,0.1-5.3,0.2-7.9
					c-0.2,0-0.4,0-0.5,0c0.4,2.4,0.6,4.7,0.7,7.1c0,0.3,0.5,0.4,0.5,0c0.1-2.8,0-5.5-0.1-8.3c0-0.3-0.6-0.4-0.5,0
					c0,2.1,0.3,4.2,0.8,6.3c0.1,0.3,0.5,0.3,0.6,0c0.3-2,0.4-4.1,0.3-6.1c0-0.4-0.6-0.4-0.6,0c0.1,2.9,0.4,5.7,1,8.6
					c0.1,0.3,0.6,0.3,0.6,0c0.2-3,0.2-6.1,0-9.1c-0.2,0-0.4,0-0.6,0c0.3,2.6,0.6,5.3,0.9,7.9c0,0.4,0.6,0.3,0.6,0
					c0.2-2.7,0.3-5.5,0.4-8.2c-0.2,0-0.4,0-0.7,0c0.2,2.3,0.4,4.5,0.6,6.8c0,0.4,0.6,0.3,0.7-0.1c0.2-2.3,0.4-4.6,0.7-6.8
					c-0.2,0-0.4,0-0.7,0c0,2.7,0.1,5.3,0.4,8c0,0.4,0.6,0.3,0.7,0c0.3-2.3,0.8-4.5,1.4-6.7c-0.2,0-0.4,0-0.6,0
					c0.3,2.4,0.2,4.7-0.2,7.1c-0.1,0.4,0.5,0.5,0.6,0.1c0.8-3.2,1.2-6.5,1.4-9.8c0-0.3-0.5-0.5-0.6-0.1c-0.5,2.4-0.5,4.8-0.2,7.2
					c0,0.4,0.6,0.3,0.6,0c0.2-1.6,0.4-3.2,0.6-4.8c-0.2,0-0.4,0-0.6,0c0.1,2.4-0.1,4.7-0.5,7.1c-0.1,0.3,0.5,0.4,0.6,0.1
					c0.4-1.9,0.8-3.7,1.2-5.6c-0.2,0-0.4-0.1-0.6-0.1c-0.2,1.7-0.5,3.3-0.9,5c-0.1,0.4,0.5,0.6,0.6,0.2c0.4-1.4,0.7-2.7,1.1-4.1
					c-0.2,0-0.4-0.1-0.6-0.1c-0.4,2.1-1,4.2-1.6,6.3c0.2,0,0.4,0.1,0.6,0.1c0.5-2.7,0.4-5.3-0.3-7.9c-0.1-0.3-0.5-0.4-0.7,0
					c-0.7,2-1.1,4.1-1.2,6.2c0.2,0,0.5,0,0.7-0.1c-0.3-2.6-0.6-5.1-0.9-7.7c0-0.4-0.7-0.3-0.7,0.1c-0.4,4-0.8,7.9-1,11.9
					c0.2,0,0.5,0,0.7,0c-0.1-2.1-0.1-4.2-0.2-6.3c0-0.4-0.7-0.5-0.7,0c0,2.7-0.1,5.4-0.4,8.1c0.2,0,0.5,0,0.7,0
					c-0.1-2.8-0.4-5.5-1-8.2c-0.1-0.4-0.7-0.4-0.7,0.1c0,2.6,0,5.2-0.1,7.8c0.2,0,0.5,0,0.7-0.1c-0.3-2.3-0.7-4.7-1-7
					c-0.1-0.4-0.7-0.3-0.7,0.1c-0.1,2.3-0.2,4.5-0.2,6.8c0.2,0,0.5,0,0.7-0.1c-0.4-1.9-0.8-3.7-1.1-5.6c-0.1-0.4-0.7-0.3-0.7,0.1
					c-0.1,2.5-0.2,5-0.3,7.5c0.2,0,0.5,0,0.7-0.1c-0.4-2-0.9-4-1.3-5.9c-0.1-0.5-0.7-0.3-0.7,0.1c0.2,2,0.3,4,0.5,6.1
					c0.2,0,0.5-0.1,0.7-0.1c-0.3-1.9-0.6-3.7-0.8-5.6c-0.1-0.4-0.7-0.4-0.7,0.1c0,1.6,0.1,3.2,0.1,4.8c0.2,0,0.5,0,0.7,0
					c-0.1-2.6-0.5-5-1.1-7.5c-0.1-0.4-0.7-0.4-0.7,0.1c0.1,3.4,0.3,6.7,0.7,10c0.2-0.1,0.5-0.1,0.7-0.2c-0.2-1.3-0.5-2.5-0.7-3.8
					c-0.1-0.4-0.7-0.4-0.7,0.1c0,1.5-0.1,3.1-0.1,4.6c0.2,0,0.5,0,0.7-0.1c-0.4-1.6-0.8-3.1-1.2-4.7c-0.1-0.3-0.6-0.4-0.7,0
					c-0.3,1.4-0.5,2.7-0.4,4.1c0.2,0,0.5,0,0.7-0.1c-0.3-1.5-0.5-3.1-0.8-4.6c-0.1-0.4-0.7-0.4-0.7,0.1c0,1.5,0.1,3,0.1,4.5
					c0.2,0,0.5,0,0.7-0.1c-0.3-1.8-0.8-3.4-1.5-5c-0.2-0.4-0.7-0.2-0.7,0.2c-0.2,1.7-0.2,3.3-0.1,5c0.2,0,0.5,0,0.7-0.1
					c-0.5-2-1-4-1.4-5.9c-0.1-0.4-0.7-0.3-0.7,0.1c-0.3,1.8-0.2,3.5,0.1,5.2c0.1,0.5,0.8,0.3,0.7-0.1c-0.3-1.7-0.7-3.2-1.4-4.7
					c-0.2-0.3-0.6-0.2-0.7,0.1c-0.2,1.4-0.2,2.6,0,4c0.2,0,0.4-0.1,0.7-0.1c-0.4-1.1-0.7-2.2-1.1-3.3c-0.1-0.3-0.7-0.4-0.7,0.1
					c0,1.2,0.1,2.4,0.3,3.6c0.1,0.4,0.7,0.3,0.7-0.1c-0.2-1.8-0.6-3.5-1.5-5.1c-0.2-0.3-0.6-0.2-0.6,0.1c-0.1,1.5,0,2.8,0.2,4.3
					c0.2,0,0.4-0.1,0.7-0.1c-0.3-1.3-0.6-2.6-0.9-3.9c-0.1-0.4-0.6-0.3-0.7,0.1c-0.2,1.3-0.3,2.5-0.2,3.8c0.2,0,0.4-0.1,0.7-0.1
					c-0.1-1.4-0.5-2.5-1.2-3.8c-0.1-0.2-0.5-0.2-0.6,0c-0.4,1.5-0.5,2.8-0.2,4.3c0.1,0.4,0.7,0.3,0.7,0c-0.1-1.5-0.5-2.9-1.1-4.3
					c-0.1-0.3-0.5-0.2-0.6,0c-0.4,1.3-0.5,2.6-0.4,4c0.2,0,0.4-0.1,0.6-0.1c-0.2-1.1-0.4-2-0.9-3c-0.1-0.2-0.5-0.2-0.6,0
					c-0.3,1.5-0.3,2.7,0.2,4.2c0.1,0.3,0.6,0.3,0.6,0c0.1-1.3-0.1-2.4-0.5-3.6c-0.1-0.3-0.6-0.2-0.6,0.1c-0.2,2.1,0.2,4.1,1,6.1
					c0.1,0.3,0.6,0.2,0.6-0.1c0.2-1.3,0.2-2.5-0.1-3.8c-0.1-0.4-0.7-0.3-0.7,0.1c0.3,1.2,0.5,2.4,0.8,3.6c0.1,0.4,0.6,0.3,0.7,0
					c0.1-1.5,0.1-3-0.1-4.5c-0.2,0-0.4,0.1-0.7,0.1c0.4,1.5,0.8,3,1.1,4.5c0.1,0.4,0.6,0.3,0.7-0.1c0.2-1.6,0.2-3.1,0-4.8
					c-0.1-0.4-0.7-0.3-0.7,0.1c0.2,1.8,0.6,3.5,1.1,5.1c0.1,0.4,0.6,0.3,0.7-0.1c0.3-1.7,0.2-3.2-0.2-4.9c-0.1-0.4-0.7-0.3-0.7,0.1
					c0.2,1.6,0.5,3.1,1,4.7c0.1,0.4,0.7,0.4,0.7-0.1c0.1-1.6,0.1-3.2-0.1-4.8c-0.2,0-0.5,0.1-0.7,0.1c0.4,1.9,0.9,3.8,1.3,5.6
					c0.1,0.4,0.7,0.4,0.7-0.1c0.2-1.9,0.1-3.7-0.1-5.5c-0.2,0.1-0.5,0.1-0.7,0.2c0.3,1.8,0.7,3.5,1.3,5.1c0.1,0.4,0.7,0.4,0.7-0.1
					c0.2-1.6,0.1-3.1,0-4.7c-0.2,0.1-0.5,0.1-0.7,0.2c0.4,1.4,0.7,2.9,1.1,4.3c0.1,0.4,0.7,0.4,0.7-0.1c0-1.6,0-3.3,0-4.9
					c-0.2,0-0.5,0-0.7,0.1c0.5,1.7,0.9,3.5,1.4,5.2c0.1,0.4,0.7,0.4,0.7-0.1c0-1.5,0.1-3.1,0.1-4.6c-0.2,0-0.5,0-0.7,0.1
					c0.3,1.6,0.6,3.1,0.9,4.7c0.1,0.5,0.7,0.3,0.8-0.1c0.3-1.5,0.3-2.9,0.1-4.4c-0.1-0.5-0.8-0.3-0.8,0.2c0.2,1.7,0.5,3.4,1.1,5
					c0.1,0.3,0.6,0.4,0.7,0c0.3-1.3,0.5-2.4,0.4-3.8c-0.3,0-0.5,0-0.8,0.1c0.2,1.5,0.5,3,0.7,4.4c0.1,0.4,0.8,0.4,0.8-0.1
					c-0.1-1.5-0.1-3-0.2-4.5c-0.3,0-0.5,0-0.8,0.1c0.3,1.6,0.6,3.1,0.9,4.7c0.1,0.4,0.8,0.4,0.8-0.1c0-1.9-0.1-3.8-0.4-5.7
					c-0.3,0.1-0.5,0.1-0.8,0.2c0.4,1.9,0.9,3.8,1.3,5.7c0.1,0.5,0.7,0.4,0.8-0.1c0.4-3.3-0.2-6.5-1.9-9.4c-0.2,0.2-0.3,0.4-0.5,0.6
					c0.4,0.2,0.7,0.3,1.1,0.5c0.1-0.3,0.1-0.5,0.2-0.8c-2.6-0.2-5.3-1.3-7.8-2c-0.3-0.1-0.6,0.1-0.6,0.4c-0.1,1.8-0.3,3.4-0.7,5.2
					c-0.2,1-0.7,2.1-0.3,3.1c0.5,1.2,1.6,1.7,2.7,1.2c0.3-0.1,0.1-0.6-0.2-0.5c-0.6-1-1.2-2-1.7-2.9c0.1-0.4,0.2-0.7,0.3-1.1
					c0.2-0.6,0.3-1.2,0.4-1.8c0.2-1,0.3-2.1,0.4-3.1c-0.2,0.1-0.4,0.3-0.6,0.4c2.6,0.7,5.4,1.8,8,2c0.5,0,0.6-0.6,0.2-0.8
					c-0.4-0.2-0.7-0.3-1.1-0.5c-0.3-0.2-0.7,0.3-0.5,0.6c1.6,2.8,2.2,5.8,1.8,9c0.3,0,0.5,0,0.8-0.1c-0.5-1.9-0.9-3.8-1.4-5.7
					c-0.1-0.5-0.9-0.3-0.8,0.2c0.3,1.8,0.4,3.6,0.4,5.4c0.3,0,0.5,0,0.8-0.1c-0.3-1.6-0.6-3.1-0.9-4.7c-0.1-0.4-0.8-0.4-0.8,0.1
					c0.1,1.5,0.1,3,0.2,4.5c0.3,0,0.5,0,0.8-0.1c-0.2-1.5-0.5-3-0.7-4.4c-0.1-0.4-0.8-0.4-0.8,0.1c0.1,1.2,0,2.3-0.3,3.6
					c0.2,0,0.5,0,0.7,0c-0.5-1.7-0.9-3.3-1.1-5c-0.3,0.1-0.5,0.1-0.8,0.2c0.2,1.4,0.1,2.8-0.1,4.2c0.3,0,0.5,0,0.8-0.1
					c-0.3-1.6-0.6-3.1-0.9-4.7c-0.1-0.4-0.7-0.4-0.7,0.1c0,1.5-0.1,3.1-0.1,4.6c0.2,0,0.5,0,0.7-0.1c-0.5-1.7-0.9-3.5-1.4-5.2
					c-0.1-0.4-0.7-0.4-0.7,0.1c0,1.6,0,3.3,0,4.9c0.2,0,0.5,0,0.7-0.1c-0.4-1.4-0.7-2.9-1.1-4.3c-0.1-0.5-0.8-0.3-0.7,0.2
					c0.2,1.5,0.2,3,0,4.5c0.2,0,0.5,0,0.7-0.1c-0.6-1.7-1-3.4-1.3-5.1c-0.1-0.5-0.8-0.3-0.7,0.2c0.2,1.8,0.3,3.5,0.1,5.3
					c0.2,0,0.5,0,0.7-0.1c-0.4-1.9-0.9-3.8-1.3-5.6c-0.1-0.5-0.7-0.3-0.7,0.1c0.2,1.6,0.2,3.1,0.1,4.6c0.2,0,0.5,0,0.7-0.1
					c-0.5-1.5-0.8-3.1-1-4.7c-0.2,0-0.5,0.1-0.7,0.1c0.4,1.6,0.5,3.1,0.2,4.8c0.2,0,0.5,0,0.7-0.1c-0.5-1.7-0.9-3.4-1.1-5.1
					c-0.2,0-0.4,0.1-0.7,0.1c0.2,1.6,0.2,3,0,4.6c0.2,0,0.4,0,0.7-0.1c-0.4-1.5-0.8-3-1.1-4.5c-0.1-0.4-0.7-0.3-0.7,0.1
					c0.2,1.5,0.3,2.9,0.1,4.3c0.2,0,0.4,0,0.7,0c-0.3-1.2-0.5-2.4-0.8-3.6c-0.2,0-0.4,0.1-0.7,0.1c0.3,1.2,0.3,2.4,0.1,3.6
					c0.2,0,0.4-0.1,0.6-0.1c-0.8-1.9-1.1-3.7-0.9-5.8c-0.2,0-0.4,0.1-0.6,0.1c0.4,1.1,0.5,2.1,0.5,3.3c0.2,0,0.4,0,0.6,0
					c-0.4-1.3-0.5-2.5-0.2-3.8c-0.2,0-0.4,0-0.6,0c0.4,1,0.7,1.8,0.8,2.9c0.1,0.4,0.7,0.3,0.6-0.1c-0.1-1.3,0-2.4,0.4-3.6
					c-0.2,0-0.4,0-0.6,0c0.6,1.3,0.9,2.5,1,4c0.2,0,0.4,0,0.7,0c-0.3-1.4-0.2-2.6,0.2-3.9c-0.2,0-0.4,0-0.6,0c0.7,1.2,1,2.3,1.2,3.6
					c0,0.4,0.7,0.3,0.7-0.1c-0.1-1.3,0-2.4,0.2-3.6c-0.2,0-0.5,0-0.7,0.1c0.3,1.3,0.6,2.6,0.9,3.9c0.1,0.4,0.7,0.3,0.7-0.1
					c-0.2-1.4-0.3-2.7-0.2-4.1c-0.2,0-0.4,0.1-0.6,0.1c0.8,1.6,1.3,3.2,1.4,4.9c0.2,0,0.4-0.1,0.7-0.1c-0.2-1.1-0.3-2.3-0.3-3.4
					c-0.2,0-0.4,0-0.7,0.1c0.4,1.1,0.7,2.2,1.1,3.3c0.1,0.4,0.7,0.3,0.7-0.1c-0.2-1.3-0.2-2.5,0-3.8c-0.2,0-0.4,0.1-0.7,0.1
					c0.7,1.5,1.1,3,1.3,4.6c0.2,0,0.5-0.1,0.7-0.1c-0.4-1.7-0.4-3.3-0.1-5c-0.2,0-0.5,0-0.7,0.1c0.5,2,0.9,4,1.4,5.9
					c0.1,0.4,0.8,0.4,0.7-0.1c-0.1-1.7-0.1-3.3,0.1-5c-0.2,0.1-0.5,0.1-0.7,0.2c0.7,1.6,1.2,3.1,1.4,4.9c0.1,0.4,0.7,0.4,0.7-0.1
					c0-1.5-0.1-3-0.1-4.5c-0.2,0-0.5,0-0.7,0.1c0.3,1.5,0.5,3.1,0.8,4.6c0.1,0.4,0.7,0.4,0.7-0.1c-0.1-1.4,0-2.6,0.4-3.9
					c-0.2,0-0.5,0-0.7,0c0.4,1.6,0.8,3.1,1.2,4.7c0.1,0.4,0.7,0.4,0.7-0.1c0-1.5,0.1-3.1,0.1-4.6c-0.2,0-0.5,0-0.7,0.1
					c0.2,1.3,0.5,2.5,0.7,3.8c0.1,0.5,0.8,0.3,0.7-0.2c-0.4-3.3-0.6-6.5-0.7-9.8c-0.2,0-0.5,0-0.7,0.1c0.6,2.4,1,4.8,1.1,7.3
					c0,0.5,0.7,0.5,0.7,0c0-1.6-0.1-3.2-0.1-4.8c-0.2,0-0.5,0-0.7,0.1c0.3,1.9,0.6,3.7,0.8,5.6c0.1,0.5,0.7,0.3,0.7-0.1
					c-0.2-2-0.3-4-0.5-6.1c-0.2,0-0.5,0.1-0.7,0.1c0.4,2,0.9,4,1.3,5.9c0.1,0.4,0.7,0.3,0.7-0.1c0.1-2.5,0.2-5,0.3-7.5
					c-0.2,0-0.5,0-0.7,0.1c0.4,1.9,0.8,3.7,1.1,5.6c0.1,0.4,0.7,0.3,0.7-0.1c0.1-2.3,0.2-4.5,0.2-6.8c-0.2,0-0.5,0-0.7,0.1
					c0.3,2.3,0.7,4.7,1,7c0.1,0.4,0.7,0.3,0.7-0.1c0-2.6,0-5.2,0.1-7.8c-0.2,0-0.5,0-0.7,0.1c0.6,2.7,0.9,5.3,1,8
					c0,0.4,0.6,0.5,0.7,0c0.3-2.7,0.4-5.4,0.4-8.1c-0.2,0-0.5,0-0.7,0c0.1,2.1,0.1,4.2,0.2,6.3c0,0.4,0.7,0.5,0.7,0
					c0.2-4,0.5-7.9,1-11.9c-0.2,0-0.5,0-0.7,0.1c0.3,2.6,0.6,5.1,0.9,7.7c0,0.4,0.7,0.3,0.7-0.1c0.1-2.1,0.5-4.1,1.2-6.1
					c-0.2,0-0.4,0-0.7,0c0.7,2.6,0.8,5.1,0.4,7.7c-0.1,0.4,0.5,0.5,0.6,0.1c0.7-2.1,1.2-4.3,1.6-6.5c0.1-0.3-0.5-0.5-0.6-0.1
					c-0.4,1.4-0.7,2.7-1.1,4.1c0.2,0.1,0.4,0.1,0.6,0.2c0.4-1.7,0.7-3.4,0.9-5.2c0-0.3-0.5-0.4-0.6-0.1c-0.4,1.9-0.8,3.7-1.2,5.6
					c0.2,0,0.4,0.1,0.6,0.1c0.4-2.3,0.5-4.7,0.5-7.1c0-0.4-0.5-0.4-0.6,0c-0.2,1.6-0.4,3.2-0.6,4.8c0.2,0,0.4,0,0.6,0
					c-0.3-2.4-0.3-4.6,0.2-6.9c-0.2,0-0.4-0.1-0.6-0.1c-0.2,3.3-0.6,6.5-1.4,9.7c0.2,0,0.4,0.1,0.6,0.1c0.4-2.4,0.5-4.8,0.2-7.3
					c0-0.3-0.5-0.3-0.6,0c-0.6,2.3-1.1,4.6-1.4,6.9c0.2,0,0.4,0,0.7,0C51.1,36,51,33.4,51,30.8c0-0.4-0.6-0.5-0.7,0
					c-0.2,2.3-0.4,4.5-0.7,6.8c0.2,0,0.4,0,0.7-0.1c-0.2-2.3-0.4-4.5-0.6-6.8c0-0.4-0.7-0.3-0.7,0c0,2.7-0.2,5.5-0.4,8.2
					c0.2,0,0.4,0,0.6,0c-0.3-2.6-0.6-5.3-1-7.9c0-0.4-0.6-0.3-0.6,0.1c0.2,3,0.2,6,0,9c0.2,0,0.4,0,0.6,0c-0.5-2.8-0.8-5.6-1-8.4
					c-0.2,0-0.4,0-0.6,0c0.1,2.1,0,4.1-0.3,6.1c0.2,0,0.4,0,0.6,0c-0.5-2-0.7-4.1-0.8-6.2c-0.2,0-0.4,0-0.5,0
					c0.2,2.8,0.2,5.5,0.1,8.3c0.2,0,0.3,0,0.5,0c-0.1-2.4-0.4-4.8-0.7-7.2c0-0.3-0.5-0.3-0.5,0c-0.1,2.6-0.2,5.2-0.3,7.9
					c0.2,0,0.4,0,0.6,0c-0.3-2.6-0.7-5.3-1-7.9c-0.2,0-0.4,0.1-0.6,0.1c0.4,2.6,0.4,5.2,0.1,7.8c0.2,0,0.4,0,0.6,0
					c-0.4-2.3-0.7-4.7-0.7-7.1c-0.2,0-0.4,0-0.6,0c0.3,2,0.4,3.9,0.3,5.9c0.2,0,0.4,0,0.6,0c-0.7-2.7-1.1-5.4-1.1-8.2
					c-0.2,0-0.4,0-0.6,0c0.2,1.3,0.3,2.5,0.2,3.8c0.2,0,0.4,0,0.6,0c-0.4-2.3-0.5-4.7-0.4-7.1c-0.2,0-0.4,0-0.6,0
					c0.4,1.7,0.6,3.3,0.7,5c0.2,0,0.4,0,0.6,0c-0.2-1.8-0.1-3.7,0-5.5c-0.2,0-0.4,0-0.6,0c0.5,1.9,0.8,3.7,1.1,5.6
					c0,0.4,0.6,0.3,0.6,0c-0.1-1.8-0.2-3.7-0.2-5.5c-0.2,0-0.4,0-0.6,0c0.4,1.7,0.7,3.4,1.1,5.2c0.1,0.4,0.7,0.3,0.6-0.1
					c-0.1-1.7-0.2-3.4-0.1-5.1c-0.2,0-0.4,0-0.6,0c0.5,1.8,0.9,3.6,1.2,5.4c0.2,0,0.4-0.1,0.6-0.1c-0.4-2-0.4-4-0.3-6.1
					c-0.2,0-0.4,0-0.6,0c0.4,2.2,0.9,4.3,1.3,6.5c0.1,0.4,0.7,0.3,0.6-0.1c-0.3-2.1-0.4-4.1-0.2-6.1c-0.2,0-0.4,0-0.6,0
					c0.6,1.9,1,3.7,1.2,5.6c0.2,0,0.4-0.1,0.6-0.1c-0.3-1.7-0.3-3.4-0.2-5.1c-0.2,0-0.4,0-0.6,0c0.5,1.7,0.9,3.4,1.2,5.2
					c0.2,0,0.4-0.1,0.6-0.1c-0.3-1.9-0.3-3.7,0-5.6c-0.2,0-0.4,0-0.6,0c0.5,1.8,0.8,3.6,1.1,5.4c0.1,0.4,0.7,0.3,0.6,0
					c-0.1-1.8-0.2-3.5-0.3-5.3c-0.2,0-0.4,0-0.6,0c0.3,1.5,0.6,2.9,0.9,4.4c0.1,0.4,0.7,0.3,0.6-0.1c-0.3-2-0.5-3.9-0.5-6
					c-0.2,0-0.4,0-0.6,0c0.6,2.2,1.1,4.4,1.5,6.6c0.1,0.4,0.7,0.3,0.6-0.1c-0.2-1.6-0.2-3.1,0-4.7c-0.2,0-0.4,0-0.6,0
					c0.4,1.7,0.9,3.4,1.3,5.1c0.1,0.4,0.7,0.3,0.6-0.1c-0.3-1.6-0.4-3.2-0.4-4.8c-0.2,0-0.4,0-0.6,0c0.4,1.8,0.7,3.6,1.1,5.5
					c0.1,0.3,0.6,0.3,0.6,0c0-1.7,0-3.3-0.1-5c-0.2,0-0.4,0-0.6,0c0.4,2,0.9,4.1,1.3,6.1c0.1,0.3,0.6,0.3,0.6,0c0-1.5,0-3.1-0.1-4.6
					c-0.2,0-0.4,0-0.6,0c0.2,1.5,0.4,3,0.7,4.5c0.1,0.4,0.6,0.3,0.6,0c0-1.1,0-2.2,0-3.3c-0.2,0-0.4,0-0.6,0c0,0.9,0.1,1.8,0.1,2.7
					c0.2,0,0.4,0,0.6,0c-0.2-1.5-0.6-2.8-1.1-4.2c-0.1-0.3-0.6-0.2-0.6,0.1c0,0.3,0,0.5-0.1,0.8c0.2,0,0.4-0.1,0.6-0.1
					c-0.5-1.2-0.8-2.5-1.1-3.8c-0.2,0-0.4,0.1-0.6,0.1c0.3,0.8,0.5,1.5,0.6,2.4c0.2-0.1,0.4-0.1,0.6-0.2c-0.4-0.9-0.9-1.8-1.4-2.7
					c-0.2-0.3-0.7-0.1-0.6,0.2c0.2,0.9,0.3,1.8,0.5,2.7c0.2-0.1,0.4-0.1,0.6-0.2c-0.6-1-1-1.9-1.2-3c-0.2,0.1-0.4,0.1-0.6,0.2
					c0.3,0.5,0.4,1.1,0.4,1.7c0.2-0.1,0.4-0.2,0.5-0.3c-0.7-0.7-1.2-1.5-1.6-2.4c-0.2-0.3-0.7-0.1-0.6,0.2c0,0.3,0,0.7,0,1
					c0.2,0,0.4,0,0.6,0c-0.3-0.7-0.6-1.2-1-1.7c-0.2-0.3-0.6,0-0.5,0.3c0.2,0.7,0.3,1.4,0.2,2.1c0.2,0,0.4-0.1,0.6-0.1
					c-0.4-1-0.8-1.9-1.2-2.9c-0.1-0.4-0.6-0.1-0.6,0.2c0.1,1.1,0.2,2.1,0.3,3.2c0.2,0,0.4-0.1,0.6-0.1c-0.3-0.9-0.5-1.7-0.8-2.6
					c-0.1-0.4-0.7-0.3-0.6,0.1c0.1,0.7,0.1,1.4,0.1,2c0.2,0,0.4,0,0.6,0c-0.3-0.9-0.5-1.8-0.8-2.7c-0.1-0.3-0.6-0.3-0.6,0
					c-0.1,0.7-0.1,1.5-0.2,2.2c0.2,0,0.4,0,0.6,0c-0.1-0.7-0.2-1.4-0.3-2.1c-0.1-0.4-0.7-0.3-0.6,0.1c0.1,1.1,0.3,2.2,0.4,3.3
					c0.2,0,0.4-0.1,0.6-0.1c-0.2-1.1-0.5-2.1-0.8-3.2c-0.1-0.3-0.6-0.3-0.6,0c-0.1,0.9-0.1,1.8-0.2,2.8c0.2,0,0.4,0,0.6,0
					c-0.2-0.8-0.4-1.6-0.5-2.4c-0.1-0.3-0.6-0.3-0.6,0c-0.1,0.9-0.1,1.8-0.2,2.6c0.2,0,0.4,0,0.6,0c-0.1-1-0.3-2-0.4-3
					c-0.1-0.3-0.6-0.3-0.6,0c0,1.1-0.1,2.1-0.1,3.2c0.2,0,0.4,0,0.6,0c-0.1-0.9-0.2-1.8-0.3-2.8c0-0.4-0.5-0.3-0.6,0
					c-0.2,0.9-0.3,1.8-0.5,2.7c0.2,0,0.4,0,0.6,0c-0.1-0.9-0.3-1.8-0.4-2.7c0-0.3-0.6-0.3-0.6,0c-0.1,1.2-0.1,2.3-0.2,3.5
					c0.2,0,0.4,0,0.6,0c-0.1-1.2-0.2-2.3-0.3-3.5c0-0.3-0.5-0.3-0.6,0c-0.2,1.4-0.4,2.9-0.6,4.3c0.2,0,0.4,0,0.6,0
					c0-1.2,0-2.5-0.1-3.7c0-0.4-0.5-0.4-0.6,0c-0.1,0.7-0.1,1.5-0.2,2.2c0.2,0,0.4,0,0.6,0c-0.1-0.9-0.2-1.9-0.2-2.8
					c0-0.3-0.5-0.3-0.5,0c-0.2,1.7-0.3,3.4-0.5,5.1c0.2,0,0.4,0,0.5,0c-0.1-1.5-0.1-3-0.2-4.4c0-0.3-0.5-0.4-0.5,0
					c0,1.8-0.2,3.6-0.6,5.3c0.2,0,0.3,0.1,0.5,0.1c-0.1-1.5,0-2.9,0.1-4.4c-0.2,0-0.3,0-0.5,0c-0.1,1.5-0.3,3-0.6,4.4
					c0.2,0,0.3,0.1,0.5,0.1c0-1.6,0.1-3.3,0.3-4.9c0-0.3-0.5-0.3-0.5,0c-0.3,1.5-0.5,3.1-0.8,4.6c0.2,0,0.3,0,0.5,0
					c0-1.1,0-2.2,0.1-3.4c0-0.3-0.4-0.4-0.5-0.1c-0.2,0.9-0.4,1.8-0.5,2.8c0.2,0,0.3,0.1,0.5,0.1c-0.1-0.9-0.1-1.7-0.2-2.6
					c0-0.3-0.4-0.4-0.5-0.1c-0.2,0.5-0.3,1-0.5,1.5c0.2,0,0.3,0.1,0.5,0.1c0-0.3,0-0.6,0-1c0-0.3-0.5-0.4-0.5,0
					c-0.2,2.5-0.4,5-0.8,7.5c0.2,0,0.3,0,0.5,0c-0.2-0.8,0.3-3.1-0.8-3.5c-0.4-0.1-0.9,0-1,0.4c-0.2,0.5,0.3,1,0.8,1
					c1.1,0.1,1-2,1.2-2.7c-0.2,0-0.3,0-0.5,0c0.1,0.9,0.2,1.7,0.4,2.6c0,0.3,0.5,0.2,0.5,0c0.2-1.1,0.4-2.1,0.5-3.2
					c-0.2,0-0.4,0-0.5,0c0.1,1.3,0.2,2.7,0.4,4c0,0.3,0.5,0.3,0.6,0c0.1-1.2,0.3-2.4,0.4-3.6c-0.2,0-0.4,0-0.6,0
					c0.2,1.5,0.3,3,0.2,4.5c0,0.4,0.5,0.4,0.6,0c0.1-1.3,0.3-2.6,0.4-3.9c-0.2,0-0.4,0-0.6,0c0,1.3,0.2,2.5,0.3,3.7
					c0,0.3,0.5,0.3,0.6,0c0.2-1.4,0.3-2.7,0.3-4.1c-0.2,0-0.4,0-0.6,0c0.2,1.8,0.4,3.6,0.6,5.4c0,0.3,0.5,0.3,0.5,0
					c0-1.5,0.1-3,0.1-4.6c-0.2,0-0.4,0-0.6,0c0.1,2.4,0.2,4.8,0.3,7.2c0,0.3,0.5,0.4,0.5,0c0-1.7,0-3.4,0-5.1c-0.2,0-0.4,0-0.5,0
					c0.4,2.5,0.6,5,0.5,7.6c0.2,0,0.4,0,0.5,0c-0.4-1.4-0.7-2.8-0.9-4.3c-0.2,0-0.3,0.1-0.5,0.1c0.2,1.2,0.2,2.3,0,3.4
					c0.2,0,0.3-0.1,0.5-0.1c-0.6-1.6-0.8-3-0.9-4.7c-0.2,0-0.3,0-0.5,0c0.1,1.2,0,2.4-0.4,3.6c0.2,0,0.3,0,0.5,0
					c-0.2-1.4-0.3-2.7-0.5-4.1c0-0.3-0.5-0.2-0.5,0.1c0.1,1.3,0.1,2.5-0.1,3.8c0.2,0,0.3,0,0.5,0c-0.3-1.4-0.4-2.9-0.3-4.3
					c-0.2,0-0.3,0-0.5,0c0,0.6-0.2,3.9-0.2,1.6c0-0.3,0.1-1.5-0.2-1.5c-0.3,0-0.3,0.9,0,1c0.4,0.1,0.2-1,0.2-1.4
					c0-0.2,0.2-1.4,0.1-1.5c-0.4-0.4-0.3,2.3-0.5,2c-0.4-0.8,0.3-2.1-0.1-2.7c-0.2-0.3-0.6,3.6-0.7,1c0-0.6,0-1.2-0.1-1.7
					c0,0.3-0.1,0.4-0.2,0.1c-0.6-2,0.3,0,0.1,0c0.3,0,0.2-1.4,0.3,0c0,0.1,0.2,0.1,0.2,0c0.1-0.8,0.2-1.5,0.3-2.3
					C38.7,28.4,38.6,28.4,38.6,28.5L38.6,28.5z"/>
			</g>
			<g>
				<path class="st50" d="M40.8,25.5c1.9-1.5,3.6-2.4,6-2.1c2.6,0.4,4.3,1.3,5.8,3.5c0.2,0.4,0.8,0.1,0.6-0.3
					c-0.4-0.6-0.7-1.2-1.1-1.8c-0.2,0.1-0.3,0.2-0.5,0.3c1.7,1.5,2.7,3.2,3.4,5.4c0.2-0.1,0.4-0.1,0.6-0.2c-0.8-1.1-1.4-2.3-2.1-3.5
					c-0.1-0.2-0.4-0.2-0.5,0c-0.3,1.2-0.5,2.4-0.5,3.7c0.2,0,0.3-0.1,0.5-0.1c-0.5-1.4-1-2.9-1.4-4.4c-0.1-0.3-0.6-0.3-0.5,0
					c0,1,0,2-0.1,3c0.2,0,0.4-0.1,0.5-0.1c-0.7-1.1-1.4-2.2-2.1-3.3c-0.1-0.2-0.5-0.2-0.5,0c-0.4,1.5-0.6,2.8-0.5,4.3
					c0.2,0,0.4-0.1,0.6-0.1c-0.5-1.2-1-2.4-1.5-3.6c-0.1-0.3-0.6-0.2-0.6,0.1c0,2.1-0.2,4.1-0.7,6.1c0.2,0,0.4,0,0.6,0
					c-0.7-1.3-1.3-2.6-1.8-4c-0.1-0.3-0.4-0.3-0.6-0.1c-1,1.3-0.9,3.9-1.1,5.5c0.2,0,0.5,0,0.7-0.1c-0.4-1.7-1-3.4-1.8-5
					c-0.1-0.3-0.6-0.2-0.6,0.1c0,2.3,0.3,4.6,1.1,6.8c0.1,0.3,0.3,0.3,0.5,0.2c1.2-0.8,1.4-2.4,1.9-3.7c0.2-0.5,0.4-1,0.6-1.5
					c0.6,0.2,0.9,0.6,0.8,1.3c0.4,0.9,0.4,2,0.6,3c0.1,0.3,0.5,0.4,0.6,0c0.5-1.6,0.6-3.2,0.6-4.9c-0.2,0-0.4,0.1-0.6,0.1
					c0.7,1.4,0.5,3,1.3,4.4c0.1,0.2,0.5,0.2,0.6,0c0.4-1.5,0.7-3,0.9-4.5c-0.2,0-0.4,0-0.6,0c0.3,1.1,0.6,2.2,0.9,3.4
					c0.1,0.3,0.5,0.3,0.6,0c0.4-1.3,0.8-2.6,1-4c-0.2,0-0.4,0-0.6,0c0.3,1.1,0.5,2.2,0.6,3.3c0,0.3,0.5,0.3,0.6,0
					c0.2-0.6,0.4-1.1,0.5-1.8c-0.2,0-0.4,0-0.6,0c0,0.8,0,1.6,0,2.4c0,0.3,0.5,0.3,0.5,0c0.1-0.8,0.1-1.6,0.1-2.4
					c0-0.4-0.5-0.4-0.6,0c-0.1,0.6-0.2,1.1-0.4,1.6c0.2,0,0.4,0,0.6,0c-0.1-1.1-0.3-2.2-0.6-3.3c-0.1-0.3-0.5-0.3-0.6,0
					c-0.2,1.3-0.6,2.6-1,3.8c0.2,0,0.4,0,0.6,0c-0.3-1.1-0.6-2.2-0.9-3.4c-0.1-0.4-0.6-0.3-0.6,0c-0.2,1.5-0.5,2.9-0.9,4.3
					c0.2,0,0.4,0,0.6,0c-0.8-1.4-0.6-3-1.3-4.4c-0.1-0.3-0.6-0.2-0.6,0.1c0.1,1.6-0.1,3.2-0.6,4.7c0.2,0,0.4,0,0.6,0
					c-0.3-1.4-0.2-4.8-2-5.2c-0.2,0-0.3,0-0.4,0.2c-0.6,1.5-1.2,4.6-2.6,5.6c0.2,0.1,0.4,0.1,0.5,0.2c-0.7-2.2-1.1-4.3-1-6.6
					c-0.2,0-0.4,0.1-0.6,0.1c0.7,1.6,1.3,3.2,1.7,4.8c0.1,0.4,0.6,0.3,0.7-0.1c0.2-1.3,0.1-4.1,1-5.2c-0.2,0-0.4-0.1-0.6-0.1
					c0.5,1.5,1.1,2.8,1.8,4.1c0.1,0.2,0.5,0.2,0.6,0c0.5-2.1,0.7-4.1,0.7-6.3c-0.2,0-0.4,0.1-0.6,0.1c0.5,1.2,1,2.4,1.6,3.6
					c0.1,0.3,0.6,0.2,0.6-0.1c0-1.4,0.1-2.8,0.5-4.2c-0.2,0-0.4,0-0.5,0c0.7,1.1,1.4,2.2,2.1,3.3c0.1,0.2,0.5,0.2,0.5-0.1
					c0.1-1,0.1-2,0.1-3c-0.2,0-0.4,0-0.5,0c0.4,1.5,0.9,3,1.5,4.5c0.1,0.2,0.5,0.1,0.5-0.1c0-0.6,0-2.8,0.5-2.8
					c0.3,0,1.5,2.6,1.6,2.9c0.2,0.3,0.6,0.1,0.6-0.2c-0.5-2.3-1.7-4.1-3.5-5.7c-0.2-0.2-0.7,0-0.5,0.3c0.3,0.6,0.7,1.2,1,1.9
					c0.2-0.1,0.4-0.2,0.6-0.3c-1.5-2.2-3-3.3-5.7-3.7c-3-0.5-4.8,0.4-7.1,2.3C40.3,25.4,40.6,25.7,40.8,25.5L40.8,25.5z"/>
			</g>
			<g>
				<path class="st50" d="M44.1,43.8c0,0.3,0.2,3.4,0,3.5c0.3,0.3,0.3,0.1,0-0.6c-0.1-0.2-0.2-0.5-0.3-0.7c-0.1-0.1-0.3-0.1-0.3,0
					c-0.4,1.8-0.5,3.5-0.1,5.3c0.1,0.3,0.5,0.3,0.5,0c0.3-1.9,0.5-3.9,0.8-5.8c-0.2,0-0.4,0-0.6,0c0.3,1.7,0.7,3.3,1.2,5
					c0.1,0.2,0.5,0.3,0.6,0c0.5-2.5,0.6-5,0.4-7.5c-0.2,0-0.4,0.1-0.6,0.1c0.3,2.1,0.5,4.2,0.8,6.3c0,0.3,0.6,0.3,0.6,0
					c0-2.6-0.1-5.2-0.1-7.8c-0.2,0-0.4,0-0.6,0c0.5,2.6,0.9,5.2,1.4,7.7c0.1,0.3,0.5,0.3,0.6,0c0.2-3.5,0-6.9-0.7-10.4
					c-0.1-0.4-0.6-0.2-0.6,0.1c0.6,3.1,1.1,6.3,1.7,9.4c0.1,0.3,0.5,0.3,0.6,0c0.4-2.5,0.4-4.9,0.2-7.4c0-0.3-0.6-0.3-0.6,0
					c0.2,2.3,0.3,4.6,0.5,6.9c0,0.4,0.6,0.4,0.6,0c0.3-3.1,0.4-6.2,0.3-9.3c-0.2,0-0.4,0-0.6,0c0.3,2.6,0.7,5.2,1,7.8
					c0,0.4,0.6,0.3,0.6,0c0.3-2.9,0.3-5.9,0.3-8.9c0-0.4-0.6-0.4-0.6,0c0,2.8,0.1,5.7,0.1,8.5c0,0.4,0.5,0.4,0.6,0
					c0.4-2.7,0.5-5.5,0.3-8.2c0-0.4-0.6-0.4-0.6,0c0,2.8,0.1,5.5,0.4,8.2c0,0.4,0.6,0.3,0.6,0c0.4-2.8,0.5-5.7,0.4-8.5
					c-0.2,0-0.4,0-0.7,0c0.1,2.4,0.3,4.9,0.4,7.3c0,0.5,0.6,0.5,0.7,0c0.4-2.7,0.5-5.4,0.5-8.1c0-0.5-0.7-0.5-0.7,0
					c0,2.1,0.2,4.3,0.4,6.4c0.1,0.4,0.6,0.3,0.7-0.1c0.4-2.3,0.5-4.6,0.4-6.9c0-0.4-0.6-0.5-0.7,0c-0.1,0.8-0.2,1.7-0.3,2.5
					c-0.1,0.5,0.6,0.5,0.7,0c0.3-1.3,0.7-2.5,1.3-3.6c-0.2-0.1-0.4-0.2-0.6-0.3c-0.7,3.8-0.8,7.5-0.3,11.3c0.2,0,0.5-0.1,0.7-0.1
					c-0.3-2-0.5-3.9-0.8-5.9c-0.2,0-0.4,0.1-0.7,0.1c0.3,1.6,0.7,3.2,1,4.9c0.1,0.4,0.7,0.3,0.7,0c-0.1-1.5-0.1-2.9-0.2-4.4
					c-0.2,0-0.4,0.1-0.6,0.1c0.5,1.3,0.8,2.5,0.9,3.9c0,0.3,0.6,0.3,0.6,0c-0.1-1.3-0.2-2.7-0.2-4c-0.2,0-0.4,0-0.6,0
					c0.3,1.2,0.7,2.4,1,3.6c0.1,0.4,0.7,0.3,0.6-0.1c-0.1-1.1-0.2-2.3-0.3-3.4c-0.2,0-0.4,0.1-0.6,0.1c0.2,1.4,0.4,2.7,0.8,4.1
					c0.1,0.3,0.6,0.3,0.6,0c0-1.3-0.1-2.6-0.3-3.9c-0.2,0-0.4,0.1-0.6,0.1c0.2,1,0.4,2,0.6,2.9c0.1,0.4,0.6,0.3,0.6,0
					c0.1-0.9,0.3-1.9,0.4-2.8c-0.2,0-0.4,0-0.6,0c0.2,0.7,0.3,1.4,0.4,2.1c0,0.4,0.6,0.3,0.6,0c0-1.8-1-3.1-2.7-3.7
					c-0.4-0.1-0.6,0.4-0.3,0.6c1.7,0.9,3.4,0.9,5-0.2c0.2-0.1,0.3-0.4,0.1-0.5c-0.2-0.3-0.5-0.5-0.7-0.8c-0.2-0.2-0.5-0.1-0.6,0.1
					c-0.8,1.6-1.3,3.2-1.7,5c0.2,0,0.4,0.1,0.7,0.1c0.1-1.4,0.1-2.7,0.2-4.1c0-0.4-0.6-0.5-0.7-0.1c-0.3,1.4-0.4,2.8-0.4,4.3
					c0,0.4,0.5,0.5,0.6,0.1c0.4-1.4,0.8-2.7,1.2-4.1c-0.2,0-0.4-0.1-0.6-0.1c0,1.3-0.1,2.6-0.1,3.9c0,0.4,0.5,0.5,0.6,0.1
					c0.6-2,1-4,1.2-6c-0.2,0-0.4,0-0.7,0c0,1.7,0,3.4,0,5.2c0,0.4,0.6,0.5,0.7,0.1c0.5-1.8,0.9-3.6,1.1-5.4c-0.2,0-0.5,0-0.7,0
					c0,1.6-0.1,3.2-0.3,4.8c-0.1,0.4,0.6,0.5,0.7,0.1c0.4-1.9,0.7-3.8,0.9-5.7c-0.2,0-0.5,0-0.7,0.1c0.1,1.5,0.3,3,0.4,4.5
					c0,0.3,0.6,0.3,0.7,0c0.5-1.7,0.8-3.3,0.9-5.1c-0.2,0-0.5,0-0.7,0c0,1.5-0.1,3.1-0.1,4.7c0,0.4,0.6,0.5,0.7,0.1
					c0.4-1.8,0.6-3.6,0.7-5.4c-0.2,0-0.5,0-0.7,0.1c0.2,1.4,0.3,2.8,0.5,4.3c0,0.3,0.6,0.4,0.7,0c0.4-1.4,0.5-2.7,0.5-4.2
					c-0.2,0-0.5,0-0.7,0.1c0.1,1.3,0.2,2.5,0.4,3.8c0,0.4,0.7,0.3,0.7-0.1c0-1.6-0.1-3.2-0.1-4.8c-0.2,0-0.5,0-0.7,0.1
					c0.2,1.2,0.4,2.3,0.6,3.5c0.1,0.4,0.6,0.3,0.7-0.1c0.1-1.1,0.1-2.2-0.1-3.4c-0.2,0-0.4,0.1-0.7,0.1c0.2,0.8,0.4,1.7,0.7,2.5
					c0.1,0.4,0.7,0.4,0.7-0.1c0-0.9,0-1.8,0-2.8c-0.2,0-0.5,0-0.7,0.1c0.2,0.9,0.4,1.8,0.5,2.8c0,0.4,0.7,0.3,0.7-0.1
					c0-1.2,0-2.3,0-3.5c-0.2,0-0.5,0-0.7,0.1c0.2,0.9,0.4,1.7,0.6,2.6c0.1,0.4,0.7,0.4,0.7-0.1c0.1-0.8,0-1.4-0.2-2.1
					c-0.2,0.1-0.4,0.2-0.7,0.2c0.2,0.5,0.4,1.1,0.5,1.6c0.1,0.4,0.7,0.4,0.7-0.1c0-0.6-0.1-1.3-0.1-1.9c-0.2,0.1-0.4,0.1-0.6,0.2
					c0.3,0.4,0.6,0.9,0.9,1.3c0.2,0.3,0.6,0,0.6-0.2c0.2-0.9,0.2-0.6,0-1.5c-0.1-0.5-0.8-0.3-0.7,0.2c0.1,0.7,0.3,1.2,0.5,1.9
					c0.1,0.4,0.6,0.2,0.7-0.1c0.1-0.6,0.1-0.5,0-1.1c-0.2,0.1-0.5,0.1-0.7,0.2c0.3,1,0.6,2,0.8,3c0.1,0.4,0.7,0.4,0.7-0.1
					c0-0.8-0.1-1.6-0.1-2.4c-0.2,0-0.5,0-0.7,0.1c0.4,1.5,0.6,2.9,0.6,4.5c0,0.5,0.7,0.5,0.8,0c0-0.4,0-0.9,0-1.3
					c0-0.4-0.6-0.6-0.7-0.1c-0.2,0.8-0.5,1.6-1,2.3c0.2,0.1,0.4,0.2,0.7,0.3c0.1-0.5,0.2-1,0.4-1.4c0.1-0.5-0.5-0.7-0.7-0.2
					c-0.2,0.6-0.4,1.1-0.8,1.6c0.2,0.1,0.4,0.1,0.7,0.2c0.2-1.2,0.4-2.4,0.6-3.5c0.1-0.4-0.6-0.5-0.7-0.1c-0.6,1.2-1,2.5-1.5,3.8
					c0.2,0,0.5,0.1,0.7,0.1c0.1-1.7,0.2-3.3,0.3-5c0-0.4-0.6-0.5-0.7-0.1c-0.5,1.4-0.9,2.8-1.1,4.3c0.2,0,0.5,0,0.7,0
					c0.1-1.3,0.2-2.6,0.2-3.9c0-0.4-0.6-0.5-0.7-0.1c-0.4,1.8-0.7,3.7-1,5.5c-0.1,0.4,0.5,0.5,0.7,0.1c0.9-2.3,1.3-4.6,1-7.1
					c0-0.3-0.5-0.4-0.6-0.1c-0.9,1.9-1.6,3.9-1.9,6c0,0.3,0.5,0.5,0.6,0.2c0.9-1.7,1.8-3.4,2.7-5.1c-0.2,0-0.4-0.1-0.6-0.1
					c0.1,0.5,0.2,1.1,0.3,1.6c0.1,0.3,0.6,0.3,0.6,0c0-0.7-0.1-1.4-0.1-2.1c0-0.4-0.6-0.4-0.6,0c0,0.7,0.1,1.3,0.1,2
					c0.2,0,0.4,0,0.5,0c-0.1-0.3-0.1-0.6-0.2-0.9c0-0.3-0.5-0.3-0.5,0c0,0.4,0.1,0.8,0.1,1.2c0,0.3,0.5,0.4,0.5,0
					c0-0.4,0-0.8-0.1-1.2c-0.2,0-0.3,0-0.5,0c0,0.3,0.1,0.6,0.1,0.9c0,0.3,0.6,0.3,0.5,0c0-0.7-0.1-1.3-0.1-2c-0.2,0-0.4,0-0.6,0
					c0,0.7,0.1,1.4,0.1,2.1c0.2,0,0.4,0,0.6,0c-0.1-0.5-0.2-1.1-0.3-1.6c-0.1-0.3-0.4-0.4-0.6-0.1c-0.9,1.7-1.8,3.4-2.7,5.1
					c0.2,0.1,0.4,0.1,0.6,0.2c0.3-2,0.9-3.8,1.8-5.6c-0.2,0-0.4-0.1-0.6-0.1c0.2,2.4-0.1,4.6-1,6.7c0.2,0,0.5,0.1,0.7,0.1
					c0.3-1.8,0.6-3.6,1-5.4c-0.2,0-0.5-0.1-0.7-0.1c-0.1,1.3-0.2,2.6-0.3,3.9c0,0.5,0.7,0.5,0.7,0c0.2-1.4,0.6-2.8,1.1-4.1
					c-0.2,0-0.5-0.1-0.7-0.1c-0.1,1.7-0.2,3.3-0.3,5c0,0.4,0.6,0.5,0.7,0.1c0.4-1.3,0.9-2.5,1.4-3.8c-0.2,0-0.5-0.1-0.7-0.1
					c-0.2,1.2-0.4,2.4-0.6,3.5c-0.1,0.4,0.5,0.5,0.7,0.2c0.4-0.6,0.7-1.1,0.9-1.8c-0.2-0.1-0.5-0.2-0.7-0.2c-0.1,0.5-0.2,1-0.4,1.4
					c-0.1,0.4,0.4,0.7,0.7,0.3c0.5-0.8,0.9-1.5,1.1-2.4c-0.2,0-0.5-0.1-0.7-0.1c0,0.4,0,0.9,0,1.3c0.3,0,0.5,0,0.8,0
					c0-1.6-0.2-3.1-0.6-4.7c-0.1-0.4-0.8-0.4-0.7,0.1c0,0.8,0.1,1.6,0.1,2.4c0.2,0,0.5,0,0.7-0.1c-0.3-1-0.6-2-0.8-3
					c-0.1-0.4-0.8-0.3-0.7,0.2c0,0.3,0,0.6,0,0.9c0.2,0,0.5-0.1,0.7-0.1c-0.3-0.5-0.4-1.1-0.5-1.7c-0.2,0.1-0.5,0.1-0.7,0.2
					c0,0.4,0,0.8,0,1.3c0.2-0.1,0.4-0.1,0.6-0.2c-0.3-0.4-0.6-0.9-0.9-1.3c-0.2-0.2-0.6-0.1-0.6,0.2c0,0.6,0.1,1.3,0.1,1.9
					c0.2,0,0.5,0,0.7-0.1c-0.1-0.6-0.3-1.2-0.6-1.8c-0.2-0.4-0.8-0.1-0.7,0.2c0.2,0.6,0.3,1.3,0.2,1.9c0.2,0,0.5,0,0.7-0.1
					c-0.2-0.8-0.4-1.7-0.6-2.5c-0.1-0.4-0.7-0.4-0.7,0.1c0,1.2,0,2.3,0,3.5c0.2,0,0.5,0,0.7-0.1c-0.1-0.9-0.3-1.9-0.5-2.8
					c-0.1-0.4-0.7-0.4-0.7,0.1c0,0.9,0,1.8,0,2.8c0.2,0,0.5,0,0.7-0.1c-0.2-0.8-0.4-1.7-0.7-2.5c-0.1-0.4-0.7-0.3-0.7,0.1
					C65,36.1,65,37,65,38.1c0.2,0,0.4,0,0.7-0.1c-0.2-1.2-0.4-2.3-0.6-3.5c-0.1-0.4-0.7-0.3-0.7,0.1c0,1.6,0.1,3.2,0.1,4.8
					c0.2,0,0.5,0,0.7-0.1c-0.1-1.3-0.2-2.5-0.4-3.8c0-0.4-0.7-0.3-0.7,0.1c0,1.4-0.1,2.7-0.5,4c0.2,0,0.5,0,0.7,0
					c-0.2-1.4-0.3-2.8-0.5-4.3c0-0.4-0.7-0.3-0.7,0.1c-0.1,1.8-0.3,3.5-0.7,5.2c0.2,0,0.5,0.1,0.7,0.1c0-1.6,0.1-3.1,0.1-4.7
					c0-0.4-0.7-0.5-0.7,0c-0.1,1.7-0.4,3.3-0.9,4.9c0.2,0,0.4,0,0.7,0c-0.1-1.5-0.3-3-0.4-4.5c0-0.4-0.6-0.3-0.7,0.1
					c-0.2,1.9-0.4,3.7-0.8,5.5c0.2,0,0.4,0.1,0.7,0.1c0.3-1.6,0.4-3.2,0.3-4.8c0-0.5-0.7-0.5-0.7,0c-0.2,1.8-0.5,3.5-1,5.2
					c0.2,0,0.5,0.1,0.7,0.1c0-1.7,0-3.4,0-5.2c0-0.4-0.6-0.5-0.7,0c-0.2,2-0.6,3.9-1.2,5.8c0.2,0,0.4,0.1,0.6,0.1
					c0-1.3,0.1-2.6,0.1-3.9c0-0.4-0.5-0.5-0.6-0.1c-0.4,1.4-0.8,2.7-1.2,4.1c0.2,0,0.4,0.1,0.6,0.1c0-1.4,0.1-2.8,0.3-4.1
					c-0.2,0-0.4-0.1-0.7-0.1c-0.1,1.4-0.1,2.7-0.2,4.1c0,0.4,0.6,0.5,0.7,0.1c0.4-1.7,1-3.4,1.7-5c-0.2,0-0.4,0.1-0.6,0.1
					c1.4,1.6-3.2,0.7-3.5,0.6c-0.1,0.2-0.2,0.4-0.3,0.6c1.4,0.4,2.2,1.5,2.2,3c0.2,0,0.4,0,0.6,0c-0.1-0.7-0.2-1.4-0.4-2.1
					c-0.1-0.4-0.6-0.3-0.6,0c-0.1,0.9-0.3,1.9-0.4,2.8c0.2,0,0.4,0,0.6,0c-0.2-1-0.4-2-0.6-2.9c-0.1-0.4-0.7-0.3-0.6,0.1
					c0.2,1.2,0.3,2.4,0.3,3.7c0.2,0,0.4,0,0.6,0c-0.4-1.3-0.6-2.7-0.8-4.1c0-0.4-0.7-0.3-0.6,0.1c0.1,1.1,0.2,2.3,0.3,3.4
					c0.2,0,0.4-0.1,0.6-0.1c-0.3-1.2-0.7-2.4-1-3.6c-0.1-0.3-0.6-0.3-0.6,0c0.1,1.3,0.2,2.7,0.2,4c0.2,0,0.4,0,0.6,0
					c-0.2-1.4-0.5-2.7-1-4c-0.1-0.3-0.6-0.2-0.6,0.1c0.1,1.5,0.1,2.9,0.2,4.4c0.2,0,0.4,0,0.7,0c-0.3-1.6-0.6-3.2-1-4.9
					c-0.1-0.4-0.7-0.3-0.7,0.1c0.3,2,0.5,3.9,0.8,5.9c0.1,0.5,0.8,0.3,0.7-0.1c-0.5-3.7-0.4-7.4,0.3-11c0.1-0.3-0.5-0.5-0.6-0.2
					c-0.7,1.2-1.1,2.5-1.4,3.9c0.2,0,0.5,0.1,0.7,0.1c0.1-0.8,0.2-1.7,0.3-2.5c-0.2,0-0.5,0-0.7,0c0.1,2.3,0,4.6-0.4,6.9
					c0.2,0,0.5,0,0.7-0.1c-0.2-2.1-0.4-4.1-0.4-6.2c-0.2,0-0.5,0-0.7,0c0,2.7-0.1,5.4-0.5,8.1c0.2,0,0.5,0,0.7,0
					c-0.2-2.4-0.3-4.9-0.5-7.3c0-0.4-0.7-0.5-0.7,0c0.1,2.9,0,5.7-0.4,8.5c0.2,0,0.4,0,0.6,0c-0.2-2.7-0.4-5.4-0.4-8.1
					c-0.2,0-0.4,0-0.6,0c0.2,2.8,0.1,5.5-0.3,8.2c0.2,0,0.4,0,0.6,0c0-2.8-0.1-5.7-0.1-8.5c-0.2,0-0.4,0-0.6,0c0.1,3,0,5.9-0.3,8.9
					c0.2,0,0.4,0,0.6,0c-0.3-2.6-0.7-5.2-1-7.8c0-0.3-0.6-0.3-0.6,0c0.1,3.1,0.1,6.2-0.2,9.3c0.2,0,0.4,0,0.6,0
					c-0.2-2.3-0.3-4.6-0.5-6.9c-0.2,0-0.4,0-0.6,0c0.2,2.4,0.2,4.8-0.2,7.2c0.2,0,0.4,0,0.6,0c-0.6-3.1-1.1-6.3-1.7-9.4
					c-0.2,0-0.4,0.1-0.6,0.1c0.7,3.4,0.9,6.8,0.7,10.2c0.2,0,0.4,0,0.6,0c-0.5-2.6-0.9-5.2-1.4-7.7c-0.1-0.3-0.6-0.3-0.6,0
					c0,2.6,0.1,5.2,0.1,7.8c0.2,0,0.4,0,0.6,0c-0.3-2.1-0.5-4.2-0.8-6.3c0-0.4-0.6-0.2-0.6,0.1c0.2,2.5,0.1,4.8-0.4,7.2
					c0.2,0,0.4,0,0.6,0c-0.5-1.6-0.9-3.3-1.2-5c-0.1-0.3-0.5-0.3-0.6,0c-0.2,1.9-0.5,3.9-0.7,5.8c0.2,0,0.4,0,0.5,0
					c-0.2-0.8-0.5-2-0.3-2.9c0.1-0.6,0.3-1.5,0.6-0.1c0,0.2,0.3,0.1,0.3,0c0-1.4,0-2.9,0-4.3C44.3,43.7,44.1,43.7,44.1,43.8
					L44.1,43.8z"/>
			</g>
			<g>
				<path class="st50" d="M44.5,49.3c0.2,0.8,0.3,2.1,0.7,2.6C44.9,51.5,44.7,50,44.5,49.3c-0.1-0.1-0.3,0-0.3,0.1
					c0,1.7,0.1,3.2,0.6,4.9c0.1,0.2,0.4,0.2,0.4-0.1c-0.1-1.7-0.5-3.3-1-5c-0.1-0.2-0.4-0.2-0.4,0c0.1,2,0.4,3.8,0.9,5.7
					c0.1,0.2,0.4,0.2,0.4,0c-0.1-2.1-0.1-4.3-0.4-6.4c-0.2-1.4,0,0.9,0.1,1.3c0.3,1.1,0.6,2.2,0.8,3.4c0.1,0.2,0.4,0.2,0.4,0
					c0-2.3,0-4.6,0-6.9c-0.2,0-0.3,0-0.5,0c0.6,3.2,0.8,6.4,0.8,9.6c0.2,0,0.3,0,0.5,0c-0.2-3.2-0.4-6.5-0.6-9.7c-0.2,0-0.3,0-0.5,0
					c0.6,3.2,1.1,6.4,1.4,9.6c0,0.3,0.5,0.2,0.5,0c0-3-0.2-5.9-0.4-8.8c-0.2,0-0.3,0.1-0.5,0.1c0.5,2.2,0.8,4.5,1,6.8
					c0,0.3,0.5,0.3,0.5,0c0.1-2.3,0-4.6-0.1-6.8c-0.2,0-0.3,0-0.5,0c0.4,2.6,0.7,5.1,1.1,7.7c0,0.3,0.5,0.2,0.5,0
					c0-2.5-0.1-5.1-0.1-7.6c-0.2,0-0.3,0-0.5,0c0.3,2.2,0.6,4.4,0.9,6.6c0,0.3,0.4,0.2,0.5,0c0.4-2.9,0.5-5.7,0.4-8.7
					c-0.2,0-0.3,0-0.5,0c0.2,2.9,0.3,5.7,0.5,8.6c0,0.3,0.5,0.4,0.5,0c0.2-3,0.1-5.9-0.3-8.9c0-0.3-0.5-0.2-0.5,0.1
					c0.3,3,0.6,6,0.9,9c0,0.3,0.5,0.3,0.5,0c0.9-3.1,1-6.3,0.9-9.6c-0.2,0-0.4,0-0.6,0c0.1,2.7,0.3,5.5,0.4,8.2c0,0.4,0.5,0.4,0.6,0
					c0.5-3,0.6-6,0.4-9c0-0.4-0.6-0.4-0.6,0c0,3.4,0.1,6.8,0.1,10.2c0,0.4,0.5,0.4,0.6,0c0.6-3.4,0.7-6.8,0.7-10.3
					c-0.2,0-0.4,0-0.6,0c0.2,3,0.4,6,0.6,9c0,0.4,0.6,0.4,0.6,0c0.4-3.5,0.6-7,0.4-10.5c-0.2,0-0.4,0-0.6,0
					c0.3,3.4,0.5,6.8,0.8,10.2c0,0.4,0.6,0.3,0.6,0c0.5-3,0.7-6,0.6-9c0-0.4-0.6-0.4-0.6,0c0,2.7,0.1,5.3,0.1,8c0,0.4,0.6,0.5,0.6,0
					c0.4-2.6,0.6-5.2,0.5-7.8c0-0.4-0.7-0.5-0.7,0c0,2.8-0.1,5.7-0.1,8.5c0,0.4,0.5,0.5,0.7,0.1c1-2.7,1.6-5.5,1.7-8.4
					c-0.2,0-0.5,0-0.7,0c-0.1,2.6-0.3,5.3-0.4,7.9c0,0.4,0.6,0.5,0.7,0.1c0.8-2.6,1.2-5.3,1.4-8c-0.2,0-0.5,0-0.7,0
					c0,2.5-0.1,5-0.1,7.5c0,0.4,0.6,0.5,0.7,0.1c0.9-3.1,1.5-6.2,1.7-9.4c0-0.5-0.7-0.5-0.7,0c-0.3,2.4-0.5,4.9-0.8,7.3
					c0,0.4,0.6,0.5,0.7,0.1c0.6-2.6,1.2-5.2,1.9-7.8c-0.2,0-0.4-0.1-0.6-0.1c-0.3,2.3-0.6,4.6-0.9,6.8c0,0.3,0.4,0.4,0.5,0.2
					c1.2-2.5,2-5.1,2.4-7.8c0-0.3-0.5-0.4-0.6-0.1c-0.4,2-0.8,4-1.2,6c-0.1,0.4,0.4,0.5,0.6,0.2c0.8-2.2,1.3-4.5,1.5-6.9
					c-0.2,0-0.4,0-0.6,0c-0.1,1.7-0.3,3.4-0.4,5.1c0,0.3,0.5,0.4,0.6,0.1c0.6-1.6,1.2-3.2,1.6-4.8c-0.2,0-0.4-0.1-0.6-0.1
					c-0.1,1.5-0.2,2.9-0.3,4.4c0,0.4,0.5,0.4,0.6,0c0.3-1.7,0.4-3.5,0.5-5.2c0-0.4-0.5-0.4-0.6,0c-0.3,1.7-0.4,3.3-0.4,5
					c0,0.2,0.3,0.4,0.4,0.1c0.2-0.4,0.4-0.7,0.6-1.1c0.2-0.5,0.6-2,0.4-0.3c0,0.2,0.2,0.3,0.3,0.1c0.2-0.3,0.5-0.8,0.6-1.1
					c-0.1,0.4-0.6,1.2-0.9,1.5c-0.1,0.2-2,1.9-2.3,1.6c-0.2-0.2,0.2-1,0.3-1.3c0.4-1.6,0.5-3.3,0.3-5c0-0.3-0.5-0.3-0.6,0
					c-0.4,1.3-0.7,2.7-1.1,4c0.2,0,0.4,0,0.6,0c-0.2-2.2-0.3-4.5-0.5-6.7c0-0.4-0.6-0.3-0.6,0c-0.2,1.5-0.2,2.9-0.1,4.4
					c0,0.4,0.6,0.3,0.7,0c0.1-0.8,0.3-1.7,0.4-2.5c-0.2,0-0.5,0-0.7,0c-0.1,3.1-0.6,6.2-1.6,9.1c0.2,0,0.4,0.1,0.6,0.1
					c0-1.8,0-3.7,0.1-5.5c0-0.3-0.5-0.5-0.6-0.1c-0.4,1.6-0.9,3.1-1.6,4.6c0.2,0,0.4,0,0.6,0c-0.2-0.6-0.3-1.2-0.5-1.8
					c-0.1-0.3-0.4-0.3-0.5,0c-0.7,1.5-1.3,2.9-2,4.4c0.2,0,0.4,0,0.5,0c-0.3-1.1-0.5-2.2-0.6-3.4c0-0.2-0.4-0.3-0.5-0.1
					c-0.6,1.2-1.1,2.4-1.5,3.6c0.2,0,0.4,0,0.6,0c-0.2-1-0.4-2-0.6-3c-0.1-0.3-0.5-0.3-0.6,0c-0.5,2.2-1.2,4.4-2.1,6.5
					c0.2,0,0.4,0,0.6,0c-0.3-1.6-0.5-3.2-0.8-4.8c-0.1-0.4-0.6-0.3-0.6,0c-0.3,3.3-0.5,6.6-0.8,10c0.2,0,0.4,0,0.6,0
					c0-1.7,0-3.4,0-5.1c-0.2,0-0.3,0-0.5,0c0.1,2.6-0.2,5.1-0.8,7.6c0.2,0,0.3,0.1,0.5,0.1c0-2.3-0.1-4.5-0.3-6.8
					c0-0.3-0.5-0.2-0.5,0c-0.1,2-0.3,3.9-0.6,5.9c0.2,0,0.4,0,0.5,0c-0.2-2.1-0.5-4.1-0.7-6.2c0-0.3-0.6-0.3-0.6,0
					c0.1,2.1,0.1,4.1-0.1,6.2c0.2,0,0.4,0,0.6,0c-0.3-1.8-0.5-3.7-0.8-5.5c-0.1-0.4-0.6-0.3-0.6,0.1c0.2,1.8,0.2,3.6,0.2,5.4
					c0.2,0,0.4,0,0.6,0c-0.1-1.8-0.4-3.6-0.7-5.4c-0.1-0.3-0.7-0.3-0.6,0c0.1,1.7,0.2,3.3,0.3,5c0.2,0,0.4,0,0.7,0
					c-0.4-1.7-0.8-3.4-1.2-5.1c-0.1-0.4-0.7-0.3-0.7,0.1c0,1.7,0.1,3.4,0.1,5.2c0.2,0,0.5,0,0.7-0.1c-0.3-1.9-0.6-3.8-0.9-5.7
					c-0.1-0.4-0.6-0.3-0.7,0.1c-0.1,0.9,0,1.6,0.2,2.4c0.1,0.4,0.7,0.3,0.7-0.1c-0.3-2.9-0.5-5.8-0.6-8.7c-0.2,0-0.4,0-0.6,0
					c0.3,1,0.7,2,1.1,3c0.1,0.3,0.6,0.3,0.6,0c0-0.6,0-1.1,0-1.7c-0.2,0-0.4,0-0.5,0c0.2,0.7,0.3,1.4,0.3,2.1c0.2,0,0.3,0,0.5,0
					c-0.2-0.7-0.4-1.4-0.5-2c-0.1-0.3-0.5-0.2-0.5,0.1c-0.6,1.7-1.1,2.3-1.6,1.6c-0.1-0.1-0.1-0.2-0.2-0.3c0,0-0.1-0.1-0.1-0.1
					c-0.2,0.1-0.3,0-0.5,0.2c-0.1,0.1-0.1,0.2-0.1,0.3c0,0,0,0.1,0.1,0.1c0.1,0.3,0.5,0.1,0.4-0.2c0.3,0.8,0.9,1.3,1.7,0.8
					c0.9-0.5,0.8-1.7,0.7-2.5c-0.2,0-0.3,0.1-0.5,0.1c0.2,0.7,0.3,1.4,0.5,2c0.1,0.3,0.5,0.2,0.5,0c0-0.8-0.1-1.5-0.3-2.3
					c-0.1-0.3-0.5-0.3-0.5,0c0,0.6,0,1.1,0,1.7c0.2,0,0.4,0,0.6,0c-0.3-1-0.7-2-1-3c-0.1-0.3-0.6-0.3-0.6,0c0.1,3,0.2,6,0.5,8.9
					c0.2,0,0.4-0.1,0.7-0.1c-0.2-0.7-0.3-1.5-0.1-2.3c-0.2,0-0.5,0-0.7,0.1c0.3,1.9,0.6,3.8,0.9,5.8c0.1,0.4,0.7,0.3,0.7-0.1
					c0-1.7-0.1-3.4-0.1-5.2c-0.2,0-0.4,0-0.7,0.1c0.4,1.7,0.8,3.4,1.2,5.1c0.1,0.3,0.7,0.3,0.7,0c-0.1-1.7-0.2-3.3-0.3-5
					c-0.2,0-0.4,0-0.6,0c0.4,1.7,0.6,3.5,0.7,5.3c0,0.4,0.6,0.4,0.6,0c0-1.9,0-3.7-0.2-5.6c-0.2,0-0.4,0.1-0.6,0.1
					c0.3,1.8,0.5,3.7,0.8,5.5c0,0.4,0.6,0.3,0.6,0c0.2-2.1,0.2-4.1,0.1-6.2c-0.2,0-0.4,0-0.6,0c0.3,2.1,0.5,4.1,0.8,6.2
					c0,0.3,0.5,0.2,0.5,0c0.3-2,0.5-3.9,0.6-5.9c-0.2,0-0.3,0-0.5,0c0.2,2.2,0.3,4.4,0.3,6.7c0,0.3,0.4,0.4,0.5,0.1
					c0.6-2.5,0.9-5.1,0.8-7.7c0-0.3-0.5-0.4-0.5,0c0,1.7,0,3.4,0,5.1c0,0.4,0.5,0.4,0.6,0c0.3-3.3,0.6-6.6,0.8-9.9
					c-0.2,0-0.4,0-0.6,0c0.3,1.6,0.6,3.2,0.8,4.8c0.1,0.3,0.5,0.3,0.6,0c0.9-2.1,1.6-4.3,2-6.5c-0.2,0-0.4,0-0.6,0
					c0.2,1,0.4,2,0.6,3c0.1,0.3,0.5,0.3,0.6,0c0.4-1.2,0.9-2.4,1.4-3.5c-0.2,0-0.3-0.1-0.5-0.1c0.1,1.2,0.3,2.3,0.6,3.4
					c0.1,0.3,0.4,0.3,0.5,0c0.7-1.5,1.3-2.9,2-4.4c-0.2,0-0.4,0-0.5,0c0.2,0.6,0.3,1.2,0.5,1.8c0.1,0.3,0.4,0.3,0.6,0
					c0.7-1.5,1.2-3,1.6-4.6c-0.2,0-0.4-0.1-0.6-0.1c0,1.8-0.1,3.7-0.1,5.5c0,0.4,0.5,0.5,0.6,0.1c1-3,1.6-6.1,1.6-9.3
					c0-0.4-0.6-0.5-0.7,0c-0.1,0.8-0.3,1.7-0.4,2.5c0.2,0,0.4,0,0.7,0c-0.1-1.4-0.1-2.8,0.1-4.2c-0.2,0-0.4,0-0.6,0
					c0.2,2.2,0.4,4.5,0.5,6.7c0,0.3,0.5,0.3,0.6,0c0.4-1.3,0.7-2.7,1.1-4c-0.2,0-0.4,0-0.6,0c0.3,2.3,0,4.3-0.8,6.5
					c-0.1,0.2,0.1,0.4,0.3,0.4c2.3-0.3,3.9-2,4-4.3c0-0.2-0.3-0.3-0.4-0.1c-0.5,1-0.4,1.6-0.6,0.1c0-0.1-0.2-0.1-0.3,0
					c-0.3,0.8-0.8,3.4-0.8,1.2c0-1.1,0.3-2.3,0.5-3.3c-0.2,0-0.4,0-0.6,0c0,1.8-0.2,3.5-0.5,5.2c0.2,0,0.4,0,0.6,0
					c0.1-1.5,0.2-2.9,0.3-4.4c0-0.3-0.5-0.4-0.6-0.1c-0.4,1.6-0.9,3.2-1.6,4.8c0.2,0,0.4,0.1,0.6,0.1c0.1-1.7,0.3-3.4,0.4-5.1
					c0-0.4-0.6-0.4-0.6,0c-0.2,2.3-0.7,4.5-1.5,6.7c0.2,0.1,0.4,0.1,0.6,0.2c0.4-2,0.8-4,1.2-6c-0.2,0-0.4-0.1-0.6-0.1
					c-0.4,2.6-1.1,5.1-2.3,7.5c0.2,0.1,0.4,0.1,0.5,0.2c0.3-2.3,0.6-4.6,1-6.8c0-0.3-0.5-0.5-0.6-0.1c-0.6,2.6-1.3,5.2-1.9,7.8
					c0.2,0,0.4,0.1,0.7,0.1c0.3-2.4,0.6-4.9,0.9-7.3c-0.2,0-0.5,0-0.7,0c-0.2,3.2-0.8,6.2-1.7,9.3c0.2,0,0.5,0.1,0.7,0.1
					c0-2.5,0-5,0.1-7.5c0-0.5-0.7-0.5-0.7,0c-0.1,2.7-0.6,5.3-1.3,7.9c0.2,0,0.5,0.1,0.7,0.1c0.1-2.6,0.2-5.3,0.4-7.9
					c0-0.4-0.7-0.5-0.7,0c-0.1,2.8-0.7,5.6-1.7,8.3c0.2,0,0.4,0.1,0.7,0.1c0-2.8,0.1-5.7,0.1-8.5c-0.2,0-0.4,0-0.7,0
					c0.1,2.6-0.1,5.2-0.5,7.8c0.2,0,0.4,0,0.6,0c0-2.7-0.1-5.3-0.1-8c-0.2,0-0.4,0-0.6,0c0.1,3-0.1,6-0.6,9c0.2,0,0.4,0,0.6,0
					c-0.3-3.4-0.5-6.8-0.8-10.2c0-0.3-0.6-0.3-0.6,0c0.2,3.5,0,7-0.4,10.5c0.2,0,0.4,0,0.6,0c-0.2-3-0.4-6-0.6-9
					c0-0.4-0.6-0.4-0.6,0c0,3.5-0.1,6.9-0.7,10.3c0.2,0,0.4,0,0.6,0c0-3.4-0.1-6.8-0.1-10.2c-0.2,0-0.4,0-0.6,0c0.2,3,0.1,6-0.4,9
					c0.2,0,0.4,0,0.6,0c-0.1-2.7-0.3-5.5-0.4-8.2c0-0.4-0.6-0.4-0.6,0c0.1,3.2,0.1,6.3-0.9,9.4c0.2,0,0.4,0,0.5,0
					c-0.3-3-0.6-6-0.9-9c-0.2,0-0.3,0.1-0.5,0.1c0.4,2.9,0.5,5.8,0.3,8.8c0.2,0,0.3,0,0.5,0c-0.2-2.9-0.3-5.7-0.5-8.6
					c0-0.3-0.5-0.3-0.5,0c0.1,2.9,0,5.8-0.4,8.7c0.2,0,0.3,0,0.5,0c-0.3-2.2-0.6-4.4-0.9-6.6c0-0.3-0.5-0.2-0.5,0
					c0,2.5,0.1,5.1,0.1,7.6c0.2,0,0.3,0,0.5,0c-0.4-2.6-0.7-5.1-1.1-7.7c0-0.3-0.5-0.2-0.5,0c0.1,2.3,0.2,4.5,0.1,6.8
					c0.2,0,0.3,0,0.5,0c-0.1-2.3-0.4-4.6-1-6.9c-0.1-0.3-0.5-0.2-0.5,0.1c0.3,2.9,0.4,5.8,0.4,8.7c0.2,0,0.3,0,0.5,0
					c-0.3-3.2-0.8-6.4-1.4-9.6c-0.1-0.3-0.5-0.3-0.5,0c0.2,3.2,0.4,6.5,0.6,9.7c0,0.3,0.5,0.4,0.5,0c0-3.3-0.3-6.5-0.8-9.8
					c0-0.3-0.5-0.2-0.5,0c0,1.1,0,2.3,0,3.4c0,0.7-0.3,2,0,2.6c0.2,0.4-0.2-1.8-0.2-1.7c-0.3-1.1-0.6-2.2-0.8-3.4
					c-0.1-0.2-0.4-0.2-0.4,0c0.1,1.7,0.2,3.4,0.4,5.1c0,0.7,0.1,1.3,0.4,1.7c-0.5-0.6-0.4-2.1-0.5-2.8c-0.6-3.2,0.4,2.2,0.5,2.2
					c0.1,0-0.3-2.1-0.3-2.4c0-2.1,0.6,1.3,0.7,1.8c0,0.1,0.2,0.1,0.2,0c-0.3-1.2-0.5-2.3-0.8-3.5C44.7,49.2,44.5,49.2,44.5,49.3
					L44.5,49.3z"/>
			</g>
			<g>
				<path class="st50" d="M31.3,42.6c2.1-0.5,4.1,0.1,6,0.7c0.3,0.1,0.4-0.3,0.2-0.4c-1.2-0.8-5.3-2.9-6.2-0.5
					c-0.1,0.2,0.2,0.4,0.3,0.2c1.4-1.5,4.2-0.2,5.6,0.7c0.1-0.1,0.1-0.3,0.2-0.4c-2-0.6-4.1-1.2-6.2-0.5
					C31,42.3,31.1,42.6,31.3,42.6L31.3,42.6z"/>
			</g>
			<g>
				<path class="st50" d="M38.4,34.2c-0.7,0.8-0.2,1.8,0.2,2.6c0.8,1.5,1.9,2.8,3.2,3.8c0.3,0.2,0.5-0.2,0.3-0.4
					c-1-1.4-1.7-2.8-2.3-4.4c-0.1-0.2-0.5-0.1-0.4,0.1c0.3,1.7,1.2,3.3,2.3,4.6c0.1-0.1,0.2-0.3,0.3-0.4c-0.9-0.7-1.7-1.4-2.4-2.3
					c-0.5-0.7-2-2.6-1.2-3.5C38.6,34.2,38.5,34.1,38.4,34.2L38.4,34.2z"/>
			</g>
			<g>
				<path class="st50" d="M45.6,57.9c-0.4,1.8-0.7,3.6-1.1,5.4c0,0.2,0.2,0.2,0.2,0.1c0.4-1.5,0.6-3,0.6-4.6c0-0.2-0.3-0.3-0.4-0.1
					c-0.4,2-0.8,3.9-1.2,5.9c0,0.2,0.3,0.4,0.4,0.1c0.4-1.1,0.7-2.1,1.1-3.2c0.1-0.4,0.6-2.6,0.1-1.3c-0.6,1.7-0.7,3.8-0.9,5.5
					c0,0.3,0.4,0.3,0.5,0.1c0.8-2.6,1.5-5.3,1.9-8c-0.2,0-0.4,0-0.5,0c-0.1,2.4-0.1,4.7-0.2,7.1c0,0.3,0.4,0.4,0.5,0.1
					c0.7-2.3,1.1-4.5,1.2-6.9c-0.2,0-0.3,0-0.5,0c-0.1,2.6-0.4,5.1-0.8,7.6c0,0.3,0.4,0.4,0.5,0.1c0.7-2.6,1.1-5.3,1.3-8
					c0-0.3-0.5-0.4-0.5,0c-0.3,3-0.6,6-1,9c0,0.3,0.4,0.4,0.5,0.1c0.9-3.2,1.6-6.4,2-9.6c-0.2,0-0.4,0-0.5,0
					c-0.3,3.2-0.7,6.3-1.2,9.5c0.2,0,0.4,0,0.6,0c0.5-3.2,0.9-6.4,1.4-9.7c-0.2,0-0.4,0-0.6,0c-0.2,3.5-0.5,7.1-0.9,10.6
					c0,0.4,0.5,0.5,0.6,0.1c0.8-2.8,1.3-5.6,1.5-8.4c-0.2,0-0.4,0-0.7,0c0,2.5-0.2,5.1-0.5,7.6c-0.1,0.4,0.6,0.5,0.7,0.1
					c0.6-2,0.9-3.9,0.9-6c0-0.5-0.7-0.5-0.7,0c-0.3,2.3-0.4,4.6-0.5,6.9c0,0.4,0.6,0.6,0.7,0.1c0.5-2.1,0.8-4.2,1-6.4
					c-0.2,0-0.5,0-0.7,0c0,1.6-0.1,3.1-0.1,4.7c0,0.4,0.6,0.5,0.7,0.1c0.4-1.8,0.6-3.6,0.8-5.4c-0.2,0-0.4,0-0.6,0
					c0,1.6,0.1,3.2,0.2,4.8c0,0.4,0.6,0.3,0.7,0c0.1-2.1,0.3-4.2,0.6-6.2c-0.2,0-0.4,0-0.7,0.1c0.3,1.8,0.5,3.6,0.5,5.4
					c0,0.4,0.7,0.5,0.7,0c0.1-1.6,0.2-3.3,0.3-4.9c-0.2,0-0.5,0-0.7,0.1c0.3,1.5,0.6,3,0.9,4.5c0.1,0.4,0.6,0.3,0.6,0
					c0.1-1.8,0.1-3.5,0.1-5.3c-0.2,0-0.4,0-0.6,0c0.2,1.2,0.3,2.4,0.3,3.6c0.2,0,0.4,0,0.6,0c-0.3-2.6-0.7-5.1-1.3-7.7
					C53.5,55,53,55,53,55.3c0,1.8-0.1,3.5-0.1,5.3c0.2,0,0.4,0,0.6,0c-0.2-2.1-0.5-4.2-0.7-6.3c0-0.3-0.6-0.3-0.6,0
					c0.1,2.3,0,4.6-0.2,6.9c0.2,0,0.4,0,0.7,0c-0.2-2.4-0.5-4.9-0.9-7.3C51.6,53.6,51,53.6,51,54c0,2.3-0.2,4.6-0.5,6.8
					c0.2,0,0.5,0,0.7-0.1c-0.3-2.3-0.6-4.7-0.9-7c-0.1-0.5-0.8-0.3-0.7,0.2c0.2,2.2,0.2,4.4,0.1,6.6c0.2,0,0.5,0,0.7-0.1
					c-0.5-3.8-0.7-7.7-0.7-11.5c-0.2,0-0.4,0-0.7,0c0.1,0.8,0,0.6,0.4,1.3c0.2,0.3,0.6,0.2,0.6-0.1c0.2-1.4,0.3-2.8,0.3-4.2
					c-0.2,0-0.4,0-0.7,0.1c0.3,1.8,0.6,3.5,0.9,5.3c0.1,0.3,0.5,0.2,0.5-0.1c-0.2-1.8-0.5-3.5-0.7-5.3c-0.1-0.4-0.7-0.3-0.7,0.1
					c0,1.4,0,2.8-0.3,4.2c0.2,0,0.4-0.1,0.6-0.1c-0.1-0.4-0.3-0.8-0.4-1.1c0-0.4-0.7-0.3-0.7,0c0,3.9,0.3,7.8,0.7,11.7
					c0,0.4,0.7,0.3,0.7-0.1c0.2-2.3,0.1-4.5-0.1-6.7c-0.2,0.1-0.5,0.1-0.7,0.2c0.3,2.3,0.6,4.7,0.9,7c0.1,0.4,0.7,0.3,0.7-0.1
					c0.3-2.3,0.5-4.5,0.5-6.8c-0.2,0-0.5,0-0.7,0.1c0.5,2.3,0.8,4.7,1,7.1c0,0.4,0.6,0.5,0.7,0c0.2-2.3,0.3-4.6,0.2-6.9
					c-0.2,0-0.4,0-0.6,0c0.2,2.1,0.5,4.2,0.7,6.3c0,0.3,0.6,0.3,0.6,0c0-1.8,0.1-3.5,0.1-5.3c-0.2,0-0.4,0-0.6,0
					c0.6,2.5,1,5.1,1.3,7.7c0,0.3,0.6,0.3,0.6,0c0-1.3-0.1-2.5-0.3-3.8c0-0.3-0.6-0.3-0.6,0c-0.1,1.8-0.2,3.5-0.2,5.3
					c0.2,0,0.4,0,0.6,0c-0.3-1.5-0.6-3-0.8-4.5c-0.1-0.4-0.7-0.3-0.7,0.1c-0.1,1.6-0.2,3.3-0.3,4.9c0.2,0,0.5,0,0.7,0
					c0-1.9-0.2-3.7-0.5-5.6c-0.1-0.4-0.6-0.3-0.7,0.1c-0.3,2.1-0.5,4.1-0.6,6.2c0.2,0,0.4,0,0.7,0c-0.2-1.5-0.3-3.1-0.2-4.6
					c0-0.4-0.6-0.5-0.6,0c-0.2,1.7-0.4,3.5-0.8,5.2c0.2,0,0.4,0.1,0.7,0.1c0-1.6,0.1-3.1,0.1-4.7c0-0.5-0.7-0.5-0.7,0
					c-0.2,2.1-0.6,4.1-1.1,6.2c0.2,0,0.5,0.1,0.7,0.1c0.1-2.3,0.2-4.6,0.5-6.9c-0.2,0-0.5,0-0.7,0c0,2-0.3,3.9-0.9,5.8
					c0.2,0,0.5,0.1,0.7,0.1c0.3-2.5,0.4-5.1,0.5-7.6c0-0.4-0.6-0.5-0.7,0c-0.3,2.8-0.7,5.5-1.5,8.3c0.2,0,0.4,0.1,0.6,0.1
					c0.4-3.5,0.7-7,0.9-10.6c0-0.4-0.6-0.4-0.6,0c-0.4,3.2-0.9,6.4-1.3,9.7c-0.1,0.4,0.5,0.4,0.6,0c0.5-3.1,0.9-6.3,1.2-9.5
					c0-0.3-0.5-0.4-0.5,0c-0.4,3.2-1.1,6.4-2,9.5c0.2,0,0.3,0.1,0.5,0.1c0.3-3,0.6-6,1-9c-0.2,0-0.3,0-0.5,0
					c-0.2,2.7-0.6,5.3-1.3,7.9c0.2,0,0.3,0.1,0.5,0.1c0.4-2.5,0.7-5.1,0.8-7.6c0-0.3-0.5-0.3-0.5,0c-0.1,2.3-0.5,4.5-1.2,6.8
					c0.2,0,0.3,0.1,0.5,0.1c0.1-2.4,0.2-4.7,0.3-7.1c0-0.4-0.5-0.4-0.5,0c-0.4,2.7-1,5.3-1.9,7.8c0.2,0,0.3,0.1,0.5,0.1
					c0.2-2.3,0.6-4.5,1.1-6.7c0.1-0.3-0.3-0.4-0.4-0.1c-0.3,0.8-0.5,1.6-0.8,2.4c-0.1,0.3-0.9,2.1-0.8,2.4c0.2,0.6,0.7-1.8,0.6-1.6
					c0.1-0.6,0.6-2,0.5-2.5c-0.1-0.9-0.4,1.6-0.2,0.6c-0.1,0.5-0.5,2.6-0.1,2.3c0.3-0.3,0.3-1.5,0.4-1.9c0.2-0.9,0.3-1.8,0.5-2.7
					C45.8,57.8,45.6,57.8,45.6,57.9L45.6,57.9z"/>
			</g>
			<g>
				<path class="st50" d="M51.9,52c0.2-0.6,0.3-1.2,0.5-1.8c-0.2,0-0.4-0.1-0.6-0.1c0.3,2.5,0.7,4.9,1.2,7.3c0.1,0.4,0.6,0.3,0.6,0
					c0.2-2.7,0.4-5.4,0.3-8.2c-0.2,0-0.4,0-0.7,0c0.2,2.8,0.4,5.5,0.6,8.3c0,0.4,0.6,0.4,0.6,0c0-2.8,0.1-5.5,0.1-8.3
					c-0.2,0-0.4,0-0.6,0c0.2,2.9,0.5,5.8,0.8,8.7c0,0.3,0.4,0.3,0.6,0.1c0.9-1.3,0.7-3,0.7-4.5c0-2.3-0.2-4.7-0.4-7
					c0-0.4-0.7-0.3-0.7,0.1c0.2,2.6,0.6,5.1,1.4,7.5c0.1,0.4,0.7,0.4,0.7-0.1c0-3.1-0.1-6.2-0.1-9.4c0-0.5-0.8-0.6-0.8,0
					c-0.1,3.1,0.1,6.2,0.3,9.2c0,0.5,0.7,0.4,0.8-0.1c0.3-2.9,0.2-5.7-0.2-8.5c-0.1-0.4-0.7-0.4-0.8,0.1c-0.2,2.9,0,5.8,0.7,8.6
					c0.1,0.4,0.7,0.4,0.8-0.1c0.4-2.9,0.5-5.8,0.2-8.8c-0.1-0.5-0.8-0.3-0.8,0.2c0.3,3.1,0.5,6.2,0.7,9.3c0,0.5,0.8,0.6,0.8,0
					c0-3.5,0-7,0.1-10.6c-0.3,0-0.5,0-0.8,0.1c0.5,3.8,0.9,7.6,1.4,11.3c0.1,0.4,0.7,0.4,0.7-0.1c0.1-1.8,0-3.5-0.2-5.2
					c-0.2,0.1-0.5,0.1-0.7,0.2c0.4,2,0.7,4,0.9,6c0.1,0.4,0.7,0.3,0.7-0.1c-0.1-1.5-0.4-2.9-0.7-4.4c-0.1-0.4-0.7-0.3-0.6,0.1
					c0.4,2.2,0.7,4.4,1.1,6.6c0.2-0.1,0.4-0.2,0.6-0.2c-0.8-1.6-1.7-3.2-2.5-4.8c-0.2-0.4-0.7-0.1-0.7,0.2c0.2,2.1,0.5,4.1,1,6.1
					c0.2-0.1,0.5-0.1,0.7-0.2c-0.6-2.3-1.2-4.6-1.8-6.9c-0.1-0.5-0.8-0.3-0.7,0.2c0.2,2,0.5,4,0.7,6c0.2-0.1,0.5-0.1,0.7-0.2
					c-0.6-2.4-1.1-4.8-1.7-7.1c-0.1-0.4-0.7-0.4-0.7,0.1c0.1,2.5,0.4,5,0.7,7.5c0.2,0,0.5-0.1,0.7-0.1c-0.4-2.6-0.9-5.2-1.5-7.7
					c-0.1-0.4-0.7-0.4-0.7,0.1c0.1,3,0.2,6,0.3,8.9c0.3,0,0.5,0,0.8-0.1c-0.5-2.3-1-4.7-1.5-7c-0.1-0.4-0.8-0.4-0.8,0.1
					c0.2,3,0.4,6,0.8,9c0.1,0.5,0.7,0.4,0.8-0.1c0.3-2.2,0-4.1-1-6.1c-0.2-0.4-0.7-0.2-0.7,0.2c-0.4,2.8-0.1,5.3,0.9,7.9
					c0.1,0.3,0.6,0.3,0.7-0.1c0.3-1.5,0.3-2.8-0.1-4.2c-0.1-0.5-0.7-0.3-0.7,0.1c0.2,1.6,0.4,3.2,0.8,4.8c0.1,0.4,0.6,0.3,0.7-0.1
					c0.2-1.8,0.2-3.4,0-5.2c-0.1-0.4-0.7-0.3-0.7,0.1c-0.2,2.1,0,4.1,0.7,6.1c0.1,0.4,0.7,0.4,0.8-0.1c0.5-2.5,0.5-4.9,0-7.4
					c-0.1-0.4-0.7-0.3-0.7,0.1c-0.1,2.5,0.1,4.8,0.8,7.2c0.1,0.4,0.7,0.4,0.7-0.1c0.2-2.7,0.1-5.4-0.1-8.1c0-0.4-0.7-0.4-0.7,0.1
					c0,2.5,0.4,4.8,1.1,7.2c0.1,0.4,0.7,0.4,0.7-0.1c0.2-2.5,0.1-4.9-0.2-7.4c-0.2,0.1-0.5,0.1-0.7,0.2c0.4,2.1,0.8,4.2,1.2,6.3
					c0.1,0.4,0.7,0.4,0.7-0.1c0.2-3,0.1-5.9-0.4-8.9c-0.2,0.1-0.5,0.1-0.7,0.2c0.5,2.5,1,4.9,1.9,7.2c0.2,0.4,0.7,0.2,0.8-0.2
					c0.2-2,0-3.8-0.5-5.7c-0.1-0.5-0.9-0.3-0.8,0.2c0.4,1.8,1,3.5,1.7,5.1c0.2,0.4,0.7,0.1,0.7-0.2c-0.2-1.7-0.6-3.4-1.3-5
					c-0.2,0.1-0.4,0.2-0.7,0.3c0.8,1.6,1.5,3.1,2.3,4.7c0.2,0.4,0.9,0.2,0.7-0.3c-0.7-2-1.3-4-2-6c-0.3,0.1-0.5,0.2-0.8,0.3
					c0.9,1.8,1.9,3.7,2.8,5.5c0.2,0.4,0.9,0.2,0.7-0.3c-0.6-2.2-1.4-4.4-2.3-6.5c-0.2,0.1-0.5,0.2-0.7,0.4c1.2,2.6,2.5,5.2,3.7,7.8
					c0.2,0.4,0.8,0.1,0.6-0.3c-1.2-2.6-2.4-5.3-3.6-7.9c-0.2-0.5-0.9-0.1-0.7,0.4c0.9,2.1,1.6,4.2,2.2,6.4c0.2-0.1,0.5-0.2,0.7-0.3
					c-0.9-1.8-1.9-3.7-2.8-5.5c-0.2-0.4-0.9-0.2-0.8,0.3c0.7,2,1.3,4,2,6c0.2-0.1,0.5-0.2,0.7-0.3c-0.8-1.6-1.5-3.1-2.3-4.7
					c-0.2-0.4-0.8-0.1-0.7,0.3c0.6,1.6,1,3.1,1.2,4.8c0.2-0.1,0.5-0.2,0.7-0.2c-0.6-1.6-1.2-3.3-1.6-5c-0.3,0.1-0.5,0.1-0.8,0.2
					c0.5,1.8,0.6,3.6,0.5,5.5c0.3-0.1,0.5-0.1,0.8-0.2c-0.9-2.3-1.4-4.6-1.9-7c-0.1-0.5-0.8-0.3-0.7,0.2c0.5,2.9,0.6,5.8,0.4,8.7
					c0.2,0,0.5,0,0.7-0.1c-0.4-2.1-0.8-4.2-1.2-6.3c-0.1-0.5-0.8-0.3-0.7,0.2c0.4,2.4,0.4,4.8,0.2,7.2c0.2,0,0.5,0,0.7-0.1
					c-0.7-2.3-1.1-4.6-1.1-7c-0.2,0-0.5,0-0.7,0.1c0.3,2.6,0.3,5.3,0.1,7.9c0.2,0,0.5,0,0.7-0.1c-0.7-2.3-0.9-4.6-0.8-7
					c-0.2,0-0.4,0-0.7,0.1c0.4,2.4,0.4,4.7-0.1,7.2c0.2,0,0.5,0,0.7-0.1c-0.7-1.9-0.9-3.8-0.7-5.8c-0.2,0-0.5,0-0.7,0.1
					c0.2,1.7,0.2,3.3,0,5c0.2,0,0.5,0,0.7-0.1c-0.4-1.6-0.7-3.1-0.8-4.7c-0.2,0-0.5,0-0.7,0.1c0.3,1.3,0.3,2.5,0,3.8
					c0.2,0,0.5,0,0.7-0.1c-0.9-2.5-1.2-4.9-0.8-7.5c-0.2,0.1-0.5,0.1-0.7,0.2c0.9,1.8,1.2,3.7,0.9,5.7c0.3,0,0.5,0,0.8-0.1
					c-0.4-2.9-0.6-5.9-0.8-8.8c-0.3,0-0.5,0-0.8,0.1c0.5,2.3,1,4.7,1.5,7c0.1,0.4,0.8,0.4,0.8-0.1c-0.1-3-0.2-6-0.3-8.9
					c-0.2,0-0.5,0-0.7,0.1c0.6,2.6,1.1,5.1,1.5,7.7c0.1,0.5,0.8,0.3,0.7-0.1c-0.3-2.4-0.5-4.8-0.7-7.3c-0.2,0-0.5,0-0.7,0.1
					c0.6,2.4,1.1,4.8,1.6,7.1c0.1,0.5,0.8,0.3,0.7-0.2c-0.2-2-0.5-4-0.7-6c-0.2,0.1-0.5,0.1-0.7,0.2c0.6,2.3,1.2,4.6,1.8,6.9
					c0.1,0.5,0.8,0.3,0.7-0.2c-0.5-2-0.8-4.1-1.1-6.1c-0.2,0.1-0.4,0.2-0.7,0.2c0.8,1.6,1.7,3.2,2.5,4.8c0.2,0.4,0.7,0.2,0.6-0.2
					c-0.4-2.2-0.7-4.4-1.1-6.6c-0.2,0-0.4,0.1-0.6,0.1c0.3,1.4,0.6,2.8,0.7,4.3c0.2,0,0.4,0,0.7-0.1c-0.2-2-0.5-4-0.8-6
					c-0.1-0.5-0.8-0.3-0.7,0.2c0.2,1.7,0.3,3.3,0.2,5c0.2,0,0.5,0,0.7-0.1c-0.4-3.8-0.9-7.6-1.3-11.3c-0.1-0.4-0.8-0.4-0.8,0.1
					c0,3.5-0.1,7-0.1,10.5c0.3,0,0.5,0,0.8,0c-0.1-3.2-0.4-6.4-0.7-9.5c-0.3,0.1-0.5,0.1-0.8,0.2c0.3,2.9,0.2,5.7-0.2,8.6
					c0.3,0,0.5,0,0.8-0.1c-0.7-2.8-0.9-5.6-0.7-8.4c-0.3,0-0.5,0-0.8,0.1c0.5,2.8,0.5,5.5,0.2,8.3c0.3,0,0.5,0,0.8-0.1
					c-0.3-3-0.4-6-0.3-9c-0.3,0-0.5,0-0.8,0c0.1,3.1,0.1,6.2,0.2,9.4c0.2,0,0.5,0,0.7-0.1c-0.7-2.5-1.2-5-1.4-7.5
					c-0.2,0-0.4,0.1-0.7,0.1c0.2,2,0.3,4,0.4,6c0,1.6,0.4,3.7-0.6,5.1c0.2,0,0.4,0.1,0.6,0.1c-0.3-2.9-0.6-5.8-0.8-8.7
					c0-0.4-0.6-0.3-0.6,0c0,2.8-0.1,5.5-0.1,8.3c0.2,0,0.4,0,0.6,0c-0.2-2.8-0.4-5.5-0.6-8.3c0-0.4-0.7-0.5-0.7,0
					c0,2.7-0.1,5.5-0.3,8.2c0.2,0,0.4,0,0.6,0c-0.5-2.4-0.9-4.8-1.2-7.3c0-0.3-0.5-0.4-0.6-0.1c-0.4,0.7-0.5,1.3-0.6,2.1
					C51.2,52.4,51.8,52.5,51.9,52L51.9,52z"/>
			</g>
			<g>
				<path class="st50" d="M44.2,64.4c-0.6,0.9-1.2,1.9-1.9,2.8c-0.6,0.8-1.5,2.3-0.5,0.3c0.2-0.3,1.2-2.6,0.5-1.5
					c-0.6,1-0.8,2.3-1.2,3.4c-0.1,0.2,0.2,0.3,0.4,0.2c1.5-1.9,2.8-3.9,3.8-6.1c0.1-0.3-0.3-0.6-0.4-0.3c-1,2.1-1.9,4.3-2.6,6.5
					c-0.1,0.3,0.3,0.5,0.5,0.2c1.4-2.4,2.8-4.8,4.1-7.2c0.2-0.3-0.3-0.7-0.5-0.3C45,64.9,43.9,67.4,43,70c-0.1,0.3,0.3,0.5,0.5,0.2
					c1-1.9,1.9-3.9,2.6-5.9c0.6-1.5,1.3-2.9,1-4.5c-0.1-0.2-0.4-0.3-0.5-0.1c-1.9,3-3.6,6.1-4.9,9.4c-0.1,0.3,0.3,0.5,0.5,0.2
					c1.3-2.6,2.6-5.1,3.9-7.7c-0.2-0.1-0.3-0.2-0.5-0.2c-0.9,3.6-1.9,7.2-2.8,10.8c-0.1,0.2,0.2,0.5,0.4,0.4c1.1-0.6,1.4-1.9,1.9-3
					c0.9-1.9,1.6-3.8,2.3-5.8c0.1-0.4-0.4-0.5-0.6-0.2c-1.2,2.4-2.2,4.9-3.1,7.4c-0.1,0.4,0.4,0.5,0.6,0.2c1.2-2.5,2.3-4.9,3.3-7.4
					c-0.2-0.1-0.4-0.1-0.6-0.2c-1.1,3-2.2,6-3.2,9c-0.1,0.4,0.4,0.6,0.6,0.2c1-2.3,2-4.5,3.1-6.8c-0.2-0.1-0.4-0.1-0.6-0.2
					c-0.8,2.2-1.6,4.4-2.3,6.6c-0.1,0.3,0.4,0.6,0.5,0.3c1.3-2.1,2.4-4.2,3.3-6.5c-0.2-0.1-0.4-0.1-0.6-0.2c-1,2.5-1.9,5.1-2.7,7.7
					C45,74,45.4,74.3,45.6,74c1.2-2,2.4-4,3.5-6c-0.2-0.1-0.3-0.2-0.5-0.3c-1,2.2-2,4.4-2.8,6.6c-0.1,0.3,0.3,0.5,0.5,0.2
					c1.4-2.2,2.5-4.5,3.4-7c0.1-0.3-0.4-0.5-0.5-0.2c-1,2-1.9,4.1-2.6,6.2c-0.1,0.3,0.4,0.5,0.5,0.2c1.1-2.2,2.1-4.4,3.1-6.7
					c-0.2-0.1-0.4-0.1-0.5-0.2c-0.8,2-1.5,4.1-2.3,6.1c-0.1,0.3,0.3,0.5,0.5,0.2c1.3-2.4,2.5-4.9,3.6-7.5c0.1-0.3-0.4-0.5-0.5-0.2
					c-0.7,1.4-1.2,2.9-1.7,4.3c-0.3,1-0.7,2-1.2,2.9c-0.2,0.3-1.5,2.1-1.5,2c0-0.2-0.3-0.3-0.4-0.1c-0.8,1.3-1.1,1.5-0.9,0.6
					c0.1-0.2-0.2-0.4-0.3-0.2c-0.4,0.7-0.3,0.4-0.5,1.2c0,0.1,0.2,0.3,0.3,0.2c0.7-0.5,1.2-1,1.7-1.6c-0.1,0-0.3-0.1-0.4-0.1
					c0,0.2,0,0.4,0,0.7c0,0.2,0.3,0.4,0.4,0.2c2.8-2.6,3.2-6.5,4.9-9.8c-0.2-0.1-0.3-0.2-0.5-0.2c-1,2.5-2.2,5-3.5,7.4
					c0.2,0.1,0.3,0.2,0.5,0.2c0.8-2,1.5-4.1,2.3-6.1c0.1-0.3-0.4-0.5-0.5-0.2c-0.9,2.2-2,4.4-3,6.6c0.2,0.1,0.3,0.2,0.5,0.2
					c0.7-2.1,1.5-4.1,2.5-6.1c-0.2-0.1-0.3-0.2-0.5-0.2c-0.8,2.4-1.9,4.7-3.3,6.9c0.2,0.1,0.3,0.2,0.5,0.2c0.8-2.2,1.7-4.4,2.7-6.5
					c0.2-0.3-0.3-0.6-0.5-0.3c-1.2,2-2.4,4-3.5,6c0.2,0.1,0.3,0.2,0.5,0.2c0.8-2.6,1.7-5.2,2.7-7.7c0.1-0.4-0.4-0.5-0.6-0.2
					c-0.9,2.2-2,4.3-3.2,6.3c0.2,0.1,0.4,0.2,0.5,0.3c0.8-2.2,1.6-4.4,2.3-6.6c0.1-0.4-0.4-0.5-0.6-0.2c-1,2.3-2.1,4.5-3.1,6.8
					c0.2,0.1,0.4,0.1,0.6,0.2c1-3,2.1-6,3.2-9c0.1-0.4-0.4-0.6-0.6-0.2c-1,2.5-2.1,5-3.3,7.4c0.2,0.1,0.4,0.1,0.6,0.2
					c0.9-2.5,1.9-5,3.1-7.4c-0.2-0.1-0.4-0.1-0.6-0.2c-0.5,1.4-0.9,2.7-1.5,4c-0.5,1.2-1.2,3.7-2.4,4.4c0.1,0.1,0.3,0.2,0.4,0.4
					c0.9-3.6,1.9-7.2,2.8-10.8c0.1-0.3-0.3-0.5-0.5-0.2c-1.3,2.6-2.6,5.1-3.8,7.7c0.2,0.1,0.3,0.2,0.5,0.2c1.3-3.2,3-6.3,4.9-9.2
					c-0.2,0-0.4-0.1-0.5-0.1c0.4,1.6-0.7,3.5-1.3,5c-0.7,1.7-1.4,3.3-2.2,5c0.2,0.1,0.3,0.2,0.5,0.2c0.9-2.6,2.1-5,3.5-7.4
					c-0.2-0.1-0.3-0.2-0.5-0.3c-1.3,2.5-2.6,4.9-4.1,7.2c0.2,0.1,0.3,0.2,0.5,0.2c0.7-2.2,1.6-4.4,2.6-6.5c-0.2-0.1-0.3-0.1-0.5-0.2
					c-0.8,1.8-1.8,3.6-3,5.2c-0.6,0.8,0.1-0.3,0.3-0.8c0.3-0.9,0.6-1.8,0.9-2.7c0.1-0.2-0.2-0.3-0.3-0.1c-0.7,1.4-1.3,2.9-2,4.3
					c0,0.1,0.1,0.2,0.2,0.1C42.1,67.8,43.2,66.2,44.2,64.4C44.2,64.4,44.2,64.4,44.2,64.4L44.2,64.4z"/>
			</g>
			<g>
				<path class="st50" d="M45.8,73.3c-0.1-0.5-0.2-1.1-0.2-1.6c0-0.1-0.2-0.1-0.2,0c-0.5,0.9-1.1,1.8-1.6,2.8c0.1,0,0.2,0.1,0.3,0.1
					c0-0.4,0-0.7,0.1-1.1c0-0.2-0.2-0.2-0.2,0c0,0.4-0.1,0.7-0.1,1.1c0,0.2,0.2,0.2,0.3,0.1c0.5-0.9,1-1.9,1.5-2.8
					c-0.1,0-0.1,0-0.2,0c0.1,0.5,0.2,1.1,0.3,1.6C45.6,73.5,45.8,73.4,45.8,73.3L45.8,73.3z"/>
			</g>
			<g>
				<path class="st50" d="M35.5,68.8c-0.4,0.4-0.6,0.8-0.8,1.4c-0.1,0.2,0.2,0.3,0.3,0.1C35.4,69.7,35.5,69.4,35.5,68.8
					c-0.1-0.2-0.3-0.3-0.4-0.1c-0.4,0.6-0.6,1.2-0.8,1.9c0,0.2,0.2,0.4,0.3,0.2c0.5-0.7,0.9-1.4,1.2-2.2c0.1-0.2-0.2-0.4-0.4-0.2
					c-0.7,0.6-0.9,1.1-0.9,2c0,0.2,0.2,0.3,0.4,0.2c0.8-0.6,1.3-1.2,1.8-2.1c0.1-0.3-0.2-0.5-0.4-0.2c-0.6,1.2-1.1,2.3-1.4,3.6
					c-0.1,0.2,0.2,0.4,0.4,0.2c0.8-1.1,1.4-2.3,1.9-3.6c0.1-0.2-0.3-0.4-0.4-0.2c-0.8,1.4-1.4,2.9-1.9,4.4c-0.1,0.2,0.2,0.4,0.4,0.2
					c0.9-1,1.6-2.1,2.1-3.4c0.1-0.3-0.3-0.5-0.4-0.2c-0.8,1.4-1.5,2.8-2.1,4.3c-0.1,0.3,0.3,0.5,0.5,0.2c0.8-1.2,1.2-2.4,1.2-3.8
					c0-0.3-0.3-0.4-0.5-0.2c-0.5,0.6-0.9,1.3-1.3,1.9c0.2,0.1,0.3,0.1,0.5,0.2c0.2-0.8,0.2-0.5,0.1-1.3c0-0.2-0.3-0.4-0.4-0.2
					c-0.5,0.5-0.7,0.9-0.9,1.5c-0.1,0.3,0.3,0.5,0.5,0.2c0.9-1.3,1.7-2.7,2.3-4.2c0.1-0.3-0.3-0.4-0.4-0.2c-0.4,0.5-0.3,0.3-0.4,0.9
					c0,0.1,0.1,0.3,0.3,0.2c1.3-0.3,0.9,0.5,0.8,1.5c0,0.2,0.3,0.3,0.4,0.1c0.5-0.3,0.6-0.7,0.3-1.1c-0.2,0.4-0.4,0.7-0.6,1.1
					c-0.1,0.2,0.1,0.4,0.3,0.2c0.5-0.4,0.8-0.8,1.1-1.3c0.1-0.2-0.2-0.4-0.3-0.2c-0.4,0.6-0.8,1.2-1.1,1.8c-0.1,0.2,0.1,0.4,0.3,0.3
					c0.6-0.6,1.1-1.1,1.6-1.8c0.1-0.2-0.2-0.5-0.4-0.2c-0.5,0.7-0.9,1.5-1.2,2.3c-0.1,0.2,0.2,0.4,0.3,0.2c0.3-0.3,1.9-1.6,1.9-2.1
					c0-0.5-0.8,0.5-0.8,0.5c-0.5,0.6-0.8,1.4-1.2,2c-0.1,0.2,0.2,0.5,0.3,0.3c1.1-1.2,2.2-2.4,3.3-3.5c-0.1-0.1-0.2-0.3-0.4-0.4
					c-1.4,1.5-2.6,3-3.7,4.7c-0.2,0.3,0.2,0.6,0.4,0.4c1.4-1.3,2.6-2.8,3.6-4.4c0.2-0.3-0.2-0.6-0.4-0.4c-1.6,1.7-3,3.6-4.1,5.7
					c0.2,0.1,0.4,0.2,0.6,0.3c0.4-1.2,0.5-2.3,0.4-3.6c0-0.2-0.3-0.5-0.5-0.2c-0.7,0.8-1.1,1.5-1.4,2.5c-0.1,0.3,0.4,0.6,0.5,0.3
					c0.6-1.1,0.8-2.2,0.8-3.4c0-0.3-0.3-0.4-0.5-0.2c-0.9,1.2-1.2,2.4-1.2,3.9c0,0.2,0.3,0.4,0.5,0.2c0.7-0.6,1.2-1.2,1.6-2.1
					C37.3,72,37.1,72,37,71.9c-0.4,1-0.7,2-0.9,3c-0.1,0.3,0.3,0.3,0.5,0.2c1.4-1,2.2-2.2,2.7-3.8c0.1-0.3-0.4-0.5-0.5-0.3
					c-0.8,1.3-1.3,2.5-1.7,3.9c-0.1,0.3,0.3,0.5,0.5,0.3c1.4-1.8,2.6-3.6,3.5-5.6c0.2-0.3-0.3-0.7-0.5-0.3c-1.2,2-2.2,4.1-3,6.3
					c-0.1,0.4,0.4,0.5,0.6,0.3c1.8-2.3,3.3-4.7,4.6-7.3c0.2-0.4-0.3-0.7-0.5-0.3c-1.7,2.3-2.9,4.8-3.9,7.5c-0.1,0.3,0.3,0.6,0.5,0.3
					c1.7-1.9,3.1-4.1,4.1-6.4c0.1-0.3-0.3-0.5-0.5-0.3c-1.7,2.4-3,5-3.9,7.9c-0.1,0.3,0.3,0.5,0.5,0.2c1.5-2.3,2.8-4.6,3.9-7
					c0.2-0.4-0.3-0.7-0.5-0.3c-1.3,1.9-2.2,4-2.8,6.3c-0.1,0.3,0.3,0.5,0.5,0.3c1.4-2,2.5-4.1,3.3-6.5c0.1-0.3-0.4-0.6-0.5-0.3
					c-1.5,2.6-2.7,5.2-3.6,8.1c-0.1,0.3,0.3,0.5,0.5,0.2c1.4-1.9,2.5-4,3.6-6.1c0.2-0.3-0.3-0.6-0.5-0.3c-0.9,1.7-1.6,3.5-2,5.3
					c-0.1,0.3,0.3,0.5,0.5,0.2c1.3-1.8,2.3-3.7,3-5.7c0.1-0.3-0.4-0.5-0.5-0.2c-1,2.1-1.9,4.2-2.5,6.4c-0.1,0.3,0.3,0.5,0.6,0.3
					c1.3-1.8,2.4-3.6,3.1-5.7c0.1-0.3-0.4-0.6-0.6-0.3c-1.1,1.8-1.9,3.6-2.4,5.7c-0.1,0.4,0.4,0.6,0.6,0.3c1.2-1.9,2.2-3.9,3.1-6
					c0.2-0.4-0.5-0.6-0.7-0.2c-0.8,1.7-1.4,3.5-1.9,5.3c-0.1,0.4,0.4,0.7,0.6,0.3c0.8-1.5,1.6-3.1,2.3-4.7c0.2-0.4-0.5-0.6-0.7-0.2
					c-0.7,1.6-1.2,3.2-1.4,4.9c-0.1,0.4,0.5,0.5,0.7,0.2c0.7-1.3,1.3-2.7,1.8-4.1c-0.2-0.1-0.5-0.2-0.7-0.2
					c-0.3,1.1-0.5,2.2-0.8,3.2c-0.1,0.4,0.4,0.7,0.6,0.3c0.5-0.9,1-1.9,1.4-2.8c-0.2-0.1-0.4-0.1-0.6-0.2c0,0.4,0,0.9,0.1,1.3
					c0,0.4,0.5,0.5,0.7,0.1c0.3-0.7,0.5-1.3,0.8-2c-0.2,0-0.4,0.1-0.6,0.1c0.1,0.1,0.3,0.3,0.4,0.4c0.2,0.2,0.6,0.1,0.6-0.2
					c0.1-0.9,0.1-1.9,0.2-2.8c0-0.3-0.4-0.3-0.5,0c-0.1,0.9-0.3,1.9-0.4,2.8c0.2-0.1,0.4-0.1,0.6-0.2c-0.1-0.1-0.3-0.3-0.4-0.4
					c-0.2-0.2-0.5-0.1-0.6,0.1c-0.3,0.6-0.5,1.3-0.8,1.9c0.2,0,0.4,0.1,0.7,0.1c0-0.4,0-0.9,0-1.3c0-0.3-0.5-0.5-0.6-0.2
					c-0.5,0.9-1,1.9-1.5,2.8c0.2,0.1,0.4,0.2,0.6,0.3c0.3-1.1,0.5-2.2,0.8-3.2c0.1-0.4-0.5-0.7-0.7-0.2c-0.5,1.4-1.1,2.7-1.7,3.9
					c0.2,0.1,0.4,0.1,0.7,0.2c0.2-1.7,0.7-3.2,1.4-4.7c-0.2-0.1-0.5-0.1-0.7-0.2c-0.7,1.5-1.4,3.1-2.2,4.5c0.2,0.1,0.4,0.2,0.6,0.3
					c0.5-1.9,1.1-3.6,1.9-5.3c-0.2-0.1-0.4-0.1-0.7-0.2c-0.8,2-1.8,4-3,5.9c0.2,0.1,0.4,0.2,0.6,0.3c0.4-2,1.2-3.8,2.3-5.5
					c-0.2-0.1-0.4-0.2-0.6-0.3c-0.7,2-1.7,3.8-3,5.6c0.2,0.1,0.4,0.2,0.6,0.3c0.6-2.2,1.4-4.3,2.4-6.3c-0.2-0.1-0.3-0.2-0.5-0.2
					c-0.7,2-1.7,3.9-3,5.6c0.2,0.1,0.3,0.2,0.5,0.2c0.5-1.8,1.1-3.5,2-5.2c-0.2-0.1-0.3-0.2-0.5-0.3c-1.1,2.1-2.1,4.2-3.6,6.1
					c0.2,0.1,0.3,0.2,0.5,0.2c0.9-2.8,2.1-5.4,3.6-7.9c-0.2-0.1-0.4-0.2-0.5-0.3c-0.7,2.3-1.8,4.4-3.2,6.3c0.2,0.1,0.4,0.2,0.5,0.3
					c0.5-2.2,1.5-4.2,2.8-6.1c-0.2-0.1-0.4-0.2-0.5-0.3c-1.2,2.4-2.5,4.8-3.9,7c0.2,0.1,0.3,0.2,0.5,0.2c0.8-2.8,2.1-5.4,3.8-7.7
					c-0.2-0.1-0.3-0.2-0.5-0.3c-1,2.3-2.3,4.3-4,6.2c0.2,0.1,0.3,0.2,0.5,0.3c0.9-2.6,2.2-5.1,3.8-7.4c-0.2-0.1-0.4-0.2-0.5-0.3
					c-1.3,2.6-2.8,5-4.6,7.3c0.2,0.1,0.4,0.2,0.6,0.3c0.8-2.1,1.8-4.2,2.9-6.1c-0.2-0.1-0.4-0.2-0.6-0.3c-1,2-2.1,3.8-3.5,5.6
					c0.2,0.1,0.4,0.2,0.5,0.3c0.4-1.3,0.9-2.6,1.7-3.8c-0.2-0.1-0.4-0.2-0.5-0.3c-0.5,1.5-1.3,2.6-2.6,3.5c0.2,0.1,0.3,0.1,0.5,0.2
					c0.2-1.1,0.5-1.9,0.9-2.9c0.1-0.3-0.4-0.5-0.5-0.2c-0.3,0.8-0.8,1.4-1.4,1.9c0.2,0.1,0.3,0.1,0.5,0.2c0-1.4,0.3-2.5,1.1-3.6
					c-0.2-0.1-0.3-0.1-0.5-0.2c0,1.1-0.2,2.1-0.7,3.1c0.2,0.1,0.3,0.2,0.5,0.3c0.2-0.8,0.7-1.6,1.3-2.2c-0.2-0.1-0.3-0.2-0.5-0.2
					c0,1.2-0.1,2.3-0.4,3.4c-0.1,0.3,0.4,0.6,0.6,0.3c1.1-2.1,2.4-3.9,4-5.6c-0.1-0.1-0.3-0.2-0.4-0.4c-1,1.6-2.1,3-3.5,4.3
					c0.1,0.1,0.3,0.2,0.4,0.4c1.1-1.7,2.2-3.2,3.6-4.7c0.2-0.2-0.1-0.6-0.4-0.4c-0.8,0.9-2.1,1.9-2.7,3c-0.2,0.3,0.5-0.4,0.5-0.5
					c0.5-0.6,0.9-1.3,1.3-1.9c0.2-0.2-0.2-0.4-0.3-0.2c-0.5,0.6-1.6,1.4-1.8,2.1c0.3-0.3,0.5-0.6,0.7-0.9c-0.3-0.4-0.5-0.3-0.7,0.2
					c-0.5,0.1-0.5,0.8,0.1-0.3c-0.1-0.3-0.2-0.2-0.3,0.3c0.2-0.4,0.4-0.7,0.6-1.1c0.1-0.2-0.2-0.4-0.3-0.2c-0.9,1.4-0.5,0.7-0.4-0.4
					c0-0.1-0.1-0.2-0.2-0.2c-0.5,0.3-0.7,0.2-0.7-0.2c-0.1-0.1-0.3-0.1-0.4-0.2c-0.6,1.4-1.4,2.8-2.3,4.1c0.2,0.1,0.3,0.1,0.5,0.2
					c0.1-0.1,0.2-0.2,0.3-0.3c-0.1,0.3,0.3,0.5,0.5,0.2c0.4-0.7,0.8-1.3,1.3-1.9c-0.2-0.1-0.3-0.1-0.5-0.2c0,1.4-0.4,2.5-1.1,3.6
					c0.2,0.1,0.3,0.1,0.5,0.2c0.6-1.4,1.3-2.8,2-4.2c-0.1-0.1-0.3-0.1-0.4-0.2c-0.3,0.7-0.7,2.2-1.3,2.7c0.4-0.3,0.9-3.1,1.2-2.9
					c-0.5-0.2-1.2,1.4-1.4,1.9c0.3,0.3,0.4,0.1,0.4-0.6c0.3-0.7,0.6-1.4,1-2c-0.1-0.1-0.3-0.2-0.4-0.2c-0.3,0.6-0.6,1.1-1.2,1.6
					c0.1-1,0-1.1-0.3-0.3c-0.4,0.4-0.4,0.6-0.1,0.5c0.3-0.4,0.6-0.7,0.9-1.1C35.8,68.8,35.6,68.6,35.5,68.8L35.5,68.8z"/>
			</g>
			<g>
				<path class="st50" d="M55.9,65.3c1.1,1.2,2.1,2.4,3.2,3.7c0.1,0.1,0.3,0,0.3-0.1c-0.1-1.1-0.4-1.9-1-2.9c-0.1-0.2-0.4,0-0.3,0.2
					c0.6,1.2,1.1,2.3,1.7,3.5c0.1,0.2,0.4,0.1,0.3-0.1c-0.1-0.6-1.1-4.4-1.5-4c-0.3,0.3,1.8,3.5,2,3.9c0.1,0.2,0.4,0.1,0.4-0.2
					c-0.7-2-1.6-3.8-2.7-5.6c-0.1-0.2-0.5-0.1-0.4,0.2c0.3,1.9,1,3.6,2,5.2c0.2,0.3,0.6,0.1,0.5-0.2c-0.3-2-0.5-4-0.8-5.9
					c-0.2,0-0.4,0.1-0.6,0.1c0.7,2.3,1.6,4.5,2.6,6.7c0.2,0.4,0.6,0.1,0.6-0.2c-0.2-2.6-0.7-5.1-1.3-7.6c-0.1-0.4-0.7-0.3-0.7,0.1
					c0.4,2.4,1,4.8,1.9,7.1c0.1,0.4,0.7,0.1,0.6-0.2c-0.4-2.7-0.9-5.4-1.6-8.1c-0.2,0-0.4,0.1-0.7,0.1c0.6,2.3,1.4,4.5,2.3,6.6
					c0.2,0.4,0.7,0.1,0.6-0.2c-0.3-1.9-0.8-3.8-1.3-5.6c-0.1-0.4-0.8-0.3-0.7,0.1c0.5,2,1.3,3.8,2.3,5.6c0.2,0.3,0.8,0.2,0.6-0.2
					c-0.6-2.2-1.3-4.4-1.9-6.6c-0.2,0-0.5,0.1-0.7,0.1c0.7,1.9,1.4,3.8,2.4,5.6c0.2,0.4,0.8,0.2,0.7-0.2c-0.5-2-1-3.9-1.5-5.9
					c-0.2,0.1-0.5,0.2-0.7,0.2c1,1.6,1.9,3.2,2.7,4.9c0.2,0.4,0.8,0.1,0.7-0.2c-0.5-1.5-1-3-1.5-4.6c-0.2,0.1-0.4,0.2-0.7,0.2
					c0.7,1.8,1.5,3.5,2.5,5.1c0.2,0.3,0.7,0.2,0.6-0.2c-0.2-1.1-0.5-2.1-0.9-3.1c-0.2-0.4-0.8-0.1-0.6,0.3c0.5,1.2,1.1,2.2,1.9,3.2
					c0.2,0.3,0.7,0,0.6-0.3c-0.3-1.1-0.8-2.1-1.3-3.1c-0.2,0.1-0.4,0.3-0.6,0.4c0.7,1,1.5,2,2.2,3c0.2,0.3,0.7,0,0.6-0.3
					c-0.3-0.8-0.6-1.6-0.8-2.4c-0.2,0.1-0.4,0.2-0.6,0.3c0.7,1,1.4,1.8,2.2,2.6c0.3,0.3,0.6,0,0.6-0.3c-0.1-0.8-0.2-1.3-0.5-2
					c-0.2,0.1-0.4,0.3-0.6,0.4c0.5,0.6,0.9,1.2,1.4,1.8c0.2,0.3,0.7,0,0.6-0.4c-0.4-0.8-0.8-1.4-1.4-2.1c-0.2-0.3-0.7,0-0.6,0.4
					c0.5,1,1.1,1.7,2.1,2.2c0.3,0.2,0.6-0.1,0.5-0.4c-0.3-0.7-0.6-1.4-0.9-2.1c-0.2,0.1-0.4,0.2-0.6,0.3c0.5,0.7,0.9,1.3,1.5,2
					c0.2,0.2,0.7,0,0.6-0.3c-0.3-1-0.6-1.8-1.2-2.7c-0.2-0.4-0.8-0.1-0.6,0.3c0.4,0.8,0.9,1.5,1.5,2.1c0.2,0.2,0.7,0,0.6-0.3
					C72.4,64,72,63,71.4,61.9c-0.2-0.4-0.8-0.1-0.6,0.3c0.5,1,1.2,1.7,2,2.4c0.2,0.2,0.6-0.1,0.5-0.4c-0.1-0.8-0.3-1.4-0.8-2.1
					c-0.2-0.4-0.8-0.1-0.6,0.3c0.3,0.8,0.6,1.2,1.2,1.8c0.2,0.2,0.7,0,0.6-0.3c-0.2-0.9-0.4-1.6-0.8-2.4c-0.2,0.1-0.4,0.3-0.6,0.4
					c0.5,0.7,1,1.4,1.5,2.1c0.2,0.3,0.7-0.1,0.6-0.4c-0.2-0.5-0.4-1-0.5-1.4c-0.1-0.4-0.7-0.1-0.6,0.2c0.2,1,0.5,2,0.9,2.9
					c0.2-0.1,0.4-0.2,0.6-0.3c-0.3-0.5-0.4-1-0.4-1.6c-0.2,0-0.5,0.1-0.7,0.1c0.3,0.9,0.5,1.8,0.8,2.8c0.2-0.1,0.4-0.2,0.6-0.2
					c-0.3-0.9-0.7-1.8-1-2.7c-0.1-0.4-0.7-0.1-0.6,0.2c0.3,1.1,0.4,2.2,0.5,3.3c0.2-0.1,0.4-0.2,0.6-0.3c-0.6-0.5-0.9-1.1-1.1-1.9
					c-0.1-0.3-0.7-0.4-0.7,0.1c0.1,0.9,0.2,1.7,0.4,2.6c0.2,0,0.4-0.1,0.7-0.1c-0.2-0.8-0.5-1.6-0.9-2.4c-0.2-0.4-0.7-0.1-0.6,0.2
					c0.2,1.1,0.4,2.3,0.6,3.4c0.2-0.1,0.4-0.2,0.6-0.2c-0.5-1-0.9-2-1.2-3c-0.1-0.4-0.7-0.3-0.7,0.1c0.1,1.4,0.4,2.7,0.9,4.1
					c0.2-0.1,0.4-0.2,0.6-0.3c-0.4-1.1-0.8-2.2-1.2-3.3c-0.1-0.4-0.6-0.1-0.6,0.2c0.1,1.3,0.3,2.6,0.4,3.8c0.2,0,0.4-0.1,0.6-0.1
					c-0.5-1.4-1-2.9-1.5-4.3c-0.1-0.3-0.7-0.4-0.7,0c0.1,1.8,0.4,3.5,0.8,5.2c0.1,0.4,0.7,0.3,0.7-0.1c-0.2-1.9-0.7-3.5-1.7-5.2
					c-0.2-0.3-0.7-0.2-0.6,0.2c0.2,1.5,0.4,2.9,0.6,4.4c0.2-0.1,0.4-0.2,0.6-0.2c-0.7-1.5-1.4-3-2.1-4.5c-0.1-0.3-0.6-0.2-0.6,0.1
					c0,2,0.4,3.8,1,5.7c0.1,0.4,0.7,0.1,0.6-0.2c-0.5-2.1-1.1-4.1-1.8-6.1c-0.1-0.4-0.7-0.1-0.6,0.2c0.5,1.9,1,3.9,1.4,5.8
					c0.2-0.1,0.4-0.2,0.7-0.2c-0.9-2.2-1.9-4.3-3-6.3c-0.2-0.4-0.7-0.2-0.7,0.3c0.2,2.2,0.8,4.3,1.7,6.3c0.2,0.4,0.9,0.2,0.7-0.3
					c-0.8-2.4-1.7-4.7-2.7-7.1c-0.2-0.4-0.8-0.2-0.7,0.3c0.4,2.1,1,4.2,1.7,6.2c0.2,0.5,0.9,0.3,0.8-0.2c-0.6-2-1.4-4-2.4-5.9
					c-0.2-0.4-0.8-0.2-0.7,0.3c0.5,2.3,1.1,4.6,1.9,6.8c0.2-0.1,0.5-0.2,0.7-0.3c-0.8-1.7-1.7-3.4-2.5-5.1C63.6,65.3,63,65.6,63,66
					c0.3,1.8,0.9,3.4,1.7,5c0.2-0.1,0.5-0.2,0.7-0.4c-0.8-1.3-1.6-2.7-2.4-4c-0.2-0.4-0.8-0.2-0.7,0.3c0.3,1.6,0.8,3.2,1.5,4.7
					c0.2-0.1,0.5-0.2,0.7-0.4c-0.7-1.2-1.4-2.5-2.1-3.7c-0.2-0.4-0.8-0.2-0.7,0.3c0.2,1.2,0.6,2.2,1.2,3.2c0.3,0.4,0.9,0.1,0.7-0.4
					c-0.7-1.5-1.6-2.8-2.7-4.1c-0.3-0.3-0.7,0-0.6,0.3c0.3,1.6,0.9,2.9,1.9,4.1c0.2,0.3,0.7,0,0.6-0.3c-0.9-3.3-1.7-6.6-2.6-9.9
					c-0.1-0.4-0.7-0.4-0.7,0.1c0,3.6,1.5,6.9,4.3,9.3c0.2,0.2,0.5,0.1,0.6-0.2c0.1-0.8,0.1-1.3-0.3-2c-0.1-0.3-0.6-0.1-0.6,0.2
					c0.2,1.6,0.7,2.8,1.5,4.2c0.2,0.3,0.6,0.2,0.6-0.1c0.1-1,0-1.7-0.4-2.6c-0.2-0.4-0.8-0.1-0.6,0.3c0.4,0.9,0.8,1.7,1.4,2.5
					c0.2,0.3,0.6,0,0.6-0.3c-0.1-1-0.3-1.7-0.8-2.6c-0.2-0.3-0.8-0.2-0.7,0.2c0.3,1.3,0.8,2.3,1.6,3.4c0.2,0.2,0.6,0.1,0.6-0.2
					c0-1.1-0.1-2-0.3-3.1c-0.1-0.4-0.7-0.4-0.7,0.1c0,1.3,0.3,2.3,1,3.3c0.2,0.3,0.7,0.2,0.7-0.1c0-1.4-0.1-2.8-0.4-4.2
					c-0.2,0-0.5,0.1-0.7,0.1c0.3,1.2,0.7,2.3,1.3,3.4c0.2,0.4,0.7,0.1,0.6-0.2c-0.1-1.2-0.3-2.4-0.7-3.6c-0.1-0.4-0.7-0.3-0.7,0.1
					c0.2,1.5,0.6,2.7,1.3,4c0.2,0.3,0.7,0.2,0.7-0.1c0.1-1.3,0-2.5-0.2-3.8c-0.2,0.1-0.5,0.1-0.7,0.2c0.2,1.2,0.6,2.2,1.2,3.3
					c0.2,0.3,0.7,0.2,0.7-0.1c0-1.3-0.2-2.5-0.6-3.8c-0.2,0.1-0.5,0.2-0.7,0.2c0.5,1.2,1.1,2.3,1.9,3.3c0.3,0.3,0.7,0,0.7-0.3
					c-0.1-1-0.2-2.1-0.2-3.1c-0.2,0.1-0.5,0.2-0.7,0.3c0.4,0.7,0.9,1.3,1.3,2c0.2,0.3,0.7,0.2,0.7-0.2c0.1-0.9,0.2-1.7,0.1-2.6
					c-0.2,0-0.5,0.1-0.7,0.1c0.2,0.3,0.5,0.7,0.7,1c0.1,0.2,0.6,0.3,0.6-0.1c0.2-0.7,0-0.8,0.5-0.3c0.2,0.1,0.5,0,0.5-0.3
					c-0.1-1.7,0.4-4.1-0.6-5.5c-0.7-0.9-1.8-1.5-2.9-1.3c-2,0.4-2.5,2.8-1,4.1c0.3,0.2,0.7-0.2,0.5-0.4c-0.3-0.4-0.5-0.8-0.8-1.3
					c-0.1-0.2-0.6-0.3-0.6,0.1c-0.2,0.8-0.3,1.5-0.2,2.3c0.2,0,0.5,0,0.7-0.1c-0.3-0.9-0.5-1.8-0.8-2.7c-0.1-0.4-0.7-0.4-0.7,0.1
					c-0.1,1-0.1,1.9,0,2.8c0.2-0.1,0.5-0.2,0.7-0.3c-0.5-1.2-0.9-2.5-1.4-3.7c-0.1-0.4-0.7-0.2-0.7,0.2c0,0.3,0,0.7,0,1
					c0.3,0,0.5,0,0.8-0.1c-1.6-4.6-6.4-6.8-8.7-10.9c-0.2-0.4-0.8-0.2-0.7,0.3c0.2,1.8,0.7,3.5,1.3,5.2c0.2,0.4,0.8,0.1,0.7-0.3
					c-0.2-2.3-0.9-4.5-1.9-6.6c-0.2-0.3-0.7-0.2-0.7,0.1c-0.1,1.4-0.3,2.8-0.4,4.2c0.2-0.1,0.5-0.1,0.7-0.2
					c-0.8-1.5-1.5-3.1-2.3-4.6c-0.1-0.3-0.6-0.3-0.7,0.1c-0.5,2.1-0.8,4.2-0.7,6.3c0,0.5,0.8,0.6,0.8,0c0-1.8,0-3.6,0-5.4
					c0-0.5-0.8-0.6-0.8,0c-0.1,2.6,0.1,5.1,0.6,7.7c0.1,0.4,0.6,0.4,0.8,0c0.6-1.4,0.6-2.6,0-4c-0.2-0.4-0.7-0.2-0.8,0.2
					c-0.4,2.2-0.7,4.4-1,6.7c0.3-0.1,0.5-0.1,0.8-0.2c-0.4-0.8-0.9-1.5-1.3-2.3c-0.2-0.4-0.7-0.2-0.8,0.2c-0.2,1.2-0.2,2.2,0.1,3.4
					c0.1,0.4,0.8,0.4,0.8-0.1c0-0.4,0-0.7,0-1.1c0-0.5-0.8-0.6-0.8,0c0,0.7,0,1.4,0,2.1c0.3,0,0.5,0,0.8-0.1
					c-0.1-0.6-0.1-0.6-0.5-0.9c-0.2-0.2-0.5-0.2-0.7,0.1c-0.9,1.5-1.5,3.1-1.8,4.8c0.2-0.1,0.4-0.2,0.6-0.3
					c-0.1-0.2-0.2-0.4-0.3-0.6c-0.1-0.4-0.8-0.4-0.8,0.1c0,1.4-0.3,2.5-1.1,3.7c0.2,0.1,0.5,0.2,0.7,0.2c0.1-1.7,0-3.2-0.4-4.8
					c-0.1-0.3-0.5-0.4-0.7-0.1c-0.5,0.9-1,1.8-1.5,2.7c0.2,0,0.5,0.1,0.7,0.1c-0.1-1,0-1.8,0.1-2.8c-0.2,0-0.5,0-0.7,0
					c0,1.1-0.2,2.1-0.5,3.1c0.2,0.1,0.4,0.1,0.6,0.2c0.5-1.9,0.6-3.8,0.4-5.8c0-0.2-0.4-0.3-0.5-0.2c-1.1,1.1-2.2,2.1-3.2,3.2
					c0.2,0.1,0.3,0.2,0.5,0.3c1.1-3,2.2-5.9,3.3-8.9c-0.2,0-0.4-0.1-0.7-0.1c-0.1,0.8-0.2,1.6-0.3,2.4c0,0.3,0.5,0.5,0.6,0.2
					c0.8-1.4,1.4-2.8,1.8-4.3c-0.2,0-0.5,0-0.7,0c0.2,1.6,0.5,3.1,0.9,4.6c0.1,0.3,0.6,0.4,0.7,0c0.7-3.4,0.3-6.7,0.3-10.1
					c0-3.7,0.4-7.4,1.1-11.1c-0.2,0-0.5,0-0.7,0c0,1.8,0.1,3.6,0.1,5.4c0.2,0,0.4,0,0.6,0c-0.2-1.2-0.3-2.4-0.5-3.6
					c0-0.3-0.6-0.2-0.5,0.1c0.1,1.2,0.2,2.4,0.4,3.7c0,0.4,0.6,0.3,0.6,0c0-1.8,0-3.6,0-5.4c0-0.5-0.6-0.5-0.7,0
					c-0.6,3.4-1,6.8-1.1,10.2c-0.1,3.6,0.4,7.2-0.3,10.8c0.2,0,0.5,0,0.7,0c-0.4-1.5-0.7-3-0.9-4.6c0-0.3-0.6-0.4-0.7,0
					c-0.4,1.5-1,2.8-1.7,4.2c0.2,0.1,0.4,0.1,0.6,0.2c0.1-0.8,0.2-1.6,0.3-2.4c0-0.4-0.5-0.5-0.7-0.1c-1.1,3-2.2,5.9-3.3,8.9
					c-0.1,0.3,0.3,0.6,0.5,0.3c1.1-1.1,2.2-2.1,3.2-3.2c-0.2-0.1-0.3-0.1-0.5-0.2c0.2,1.9,0.1,3.6-0.4,5.5c-0.1,0.4,0.5,0.6,0.6,0.2
					c0.4-1.1,0.5-2.1,0.6-3.2c0-0.5-0.6-0.5-0.7,0c-0.2,1-0.2,1.9-0.2,2.9c0,0.3,0.5,0.6,0.7,0.2c0.5-0.9,1-1.8,1.5-2.7
					c-0.2,0-0.5-0.1-0.7-0.1c0.3,1.5,0.4,3.1,0.3,4.6c0,0.4,0.5,0.6,0.7,0.2c0.9-1.3,1.3-2.5,1.3-4.1c-0.3,0-0.6,0-0.8,0.1
					c0.1,0.7,0.2,0.7,0.7,1.1c0.3,0.2,0.6-0.1,0.6-0.3c0.3-1.6,0.8-3,1.7-4.4c-0.2,0-0.4,0-0.7,0.1c0.1,0.2,0.2,0.4,0.3,0.6
					c0.1,0.5,0.8,0.4,0.8-0.1c0-0.7,0-1.4,0-2.1c-0.3,0-0.6,0-0.8,0c0,0.4,0,0.7,0,1.1c0.3,0,0.5,0,0.8-0.1
					c-0.3-1.1-0.3-2.1-0.1-3.2c-0.3,0.1-0.5,0.1-0.8,0.2c0.4,0.8,0.9,1.5,1.3,2.3c0.2,0.4,0.7,0.2,0.8-0.2c0.3-2.2,0.6-4.4,1-6.7
					C55.3,56,55,56,54.7,56.1c0.5,1.2,0.4,2.2-0.1,3.4c0.3,0,0.5,0,0.8,0c-0.6-2.5-0.8-4.9-0.6-7.5c-0.3,0-0.5,0-0.8,0
					c0,1.8,0,3.6,0,5.4c0.3,0,0.5,0,0.8,0c-0.1-2.1,0.1-4.1,0.7-6.1c-0.2,0-0.5,0-0.7,0.1c0.8,1.5,1.5,3.1,2.3,4.6
					c0.2,0.3,0.7,0.2,0.7-0.2c0.1-1.4,0.3-2.8,0.4-4.2c-0.2,0-0.5,0.1-0.7,0.1c1,2,1.6,4.1,1.8,6.4c0.2-0.1,0.5-0.2,0.7-0.3
					c-0.6-1.6-1-3.3-1.2-5c-0.2,0.1-0.5,0.2-0.7,0.3c2.2,4.2,7,6.3,8.7,10.8c0.1,0.4,0.7,0.2,0.7-0.2c0-0.3,0-0.7,0-1
					c-0.2,0.1-0.5,0.1-0.7,0.2c0.5,1.2,0.9,2.5,1.4,3.7c0.2,0.4,0.8,0.1,0.7-0.3c-0.1-1-0.1-1.7,0-2.6c-0.2,0-0.5,0-0.7,0.1
					c0.3,0.9,0.5,1.8,0.8,2.7c0.1,0.4,0.7,0.3,0.7-0.1c0.1-0.7,0.1-1.4,0.2-2c-0.2,0-0.4,0-0.6,0.1c0.3,0.4,0.5,0.8,0.8,1.2
					c0.2-0.1,0.3-0.3,0.5-0.4c-1.3-1.6-0.6-2.5,2.3-2.5c0.8,0.6,1.2,1.4,1.3,2.3c0,0.2,0.2,0.3,0.4,0.3c0,0,0.1,0,0.1,0
					c0.2-0.1,0.3-0.2,0.3-0.4c0-0.3-0.1-0.4-0.3-0.5c-0.1-0.1-0.3-0.1-0.4,0c-0.8,0.9-0.3,2.9-0.3,4c0.2-0.1,0.4-0.2,0.5-0.3
					c-0.3-0.2-0.5-0.4-0.8-0.6c-0.2-0.1-0.5,0-0.5,0.2c-0.1,0.4-0.2,0.7-0.3,1.1c0.2,0,0.4,0,0.6-0.1c-0.2-0.4-0.5-0.7-0.7-1.1
					c-0.2-0.3-0.7-0.3-0.7,0.1c0.1,0.9,0,1.7-0.1,2.6c0.2-0.1,0.5-0.1,0.7-0.2c-0.4-0.7-0.9-1.3-1.3-2c-0.2-0.4-0.8-0.2-0.7,0.3
					c0.1,1,0.2,2.1,0.3,3.1c0.2-0.1,0.4-0.2,0.7-0.3c-0.8-1-1.3-2-1.8-3.2c-0.1-0.4-0.8-0.1-0.7,0.2c0.4,1.2,0.6,2.3,0.6,3.6
					c0.2,0,0.5-0.1,0.7-0.1c-0.6-1-1-1.9-1.1-3.1c-0.1-0.5-0.8-0.3-0.7,0.2c0.2,1.2,0.2,2.4,0.2,3.6c0.2,0,0.5-0.1,0.7-0.1
					c-0.7-1.2-1.1-2.4-1.3-3.8c-0.2,0-0.5,0.1-0.7,0.1c0.3,1.2,0.6,2.3,0.7,3.5c0.2,0,0.4-0.1,0.7-0.1c-0.6-1-1-2.1-1.3-3.2
					c-0.1-0.4-0.8-0.3-0.7,0.1c0.2,1.3,0.3,2.6,0.4,4c0.2,0,0.4-0.1,0.7-0.1c-0.6-0.9-0.9-1.8-0.9-3c-0.2,0-0.5,0-0.7,0.1
					c0.2,1,0.3,1.9,0.3,2.9c0.2-0.1,0.4-0.1,0.6-0.2c-0.7-1-1.2-1.9-1.5-3.1c-0.2,0.1-0.4,0.2-0.7,0.2c0.4,0.8,0.7,1.5,0.7,2.4
					c0.2-0.1,0.4-0.2,0.6-0.3c-0.6-0.8-0.9-1.5-1.3-2.4c-0.2,0.1-0.4,0.2-0.6,0.3c0.4,0.7,0.5,1.5,0.4,2.3c0.2,0,0.4-0.1,0.6-0.1
					c-0.8-1.2-1.3-2.5-1.5-4c-0.2,0.1-0.4,0.1-0.6,0.2c0.1,0.6,0.1,1.1,0.2,1.7c0.2-0.1,0.4-0.1,0.6-0.2c-2.6-2.3-4-5.4-4-8.9
					c-0.2,0-0.5,0-0.7,0.1c0.9,3.3,1.7,6.6,2.6,9.9c0.2-0.1,0.4-0.2,0.6-0.3c-1-1.2-1.5-2.3-1.7-3.8c-0.2,0.1-0.4,0.2-0.6,0.3
					c1.1,1.2,1.9,2.5,2.5,3.9c0.2-0.1,0.5-0.2,0.7-0.4c-0.6-1-0.9-1.9-1.1-3.1c-0.2,0.1-0.5,0.2-0.7,0.3c0.7,1.2,1.4,2.5,2.1,3.7
					c0.2,0.4,0.9,0.1,0.7-0.4c-0.7-1.5-1.1-2.9-1.4-4.5c-0.2,0.1-0.5,0.2-0.7,0.3c0.8,1.3,1.6,2.7,2.4,4c0.3,0.4,0.9,0.1,0.7-0.4
					c-0.8-1.5-1.3-3.1-1.6-4.8c-0.2,0.1-0.5,0.2-0.7,0.3c0.8,1.7,1.7,3.4,2.5,5.1c0.2,0.4,0.9,0.2,0.7-0.3c-0.8-2.2-1.4-4.5-1.9-6.8
					c-0.2,0.1-0.5,0.2-0.7,0.3c0.9,1.9,1.7,3.7,2.4,5.7c0.3-0.1,0.5-0.1,0.8-0.2c-0.7-2-1.3-4.1-1.7-6.2c-0.2,0.1-0.5,0.2-0.7,0.3
					c0.9,2.3,1.8,4.6,2.6,6.9c0.2-0.1,0.5-0.2,0.7-0.3c-0.9-2-1.4-4-1.6-6.1c-0.2,0.1-0.5,0.2-0.7,0.3c1.1,2.1,2.1,4.1,3,6.3
					c0.2,0.4,0.8,0.1,0.7-0.2c-0.5-1.9-1-3.9-1.5-5.8c-0.2,0.1-0.4,0.2-0.6,0.2c0.7,1.9,1.3,3.9,1.8,5.9c0.2,0,0.4-0.1,0.7-0.1
					c-0.6-1.8-1-3.5-1-5.4c-0.2,0-0.4,0.1-0.6,0.1c0.7,1.5,1.4,3,2.1,4.5c0.2,0.4,0.7,0.1,0.6-0.2c-0.2-1.5-0.4-2.9-0.6-4.4
					c-0.2,0.1-0.4,0.2-0.6,0.2c0.9,1.6,1.4,3.2,1.6,5c0.2,0,0.4-0.1,0.7-0.1c-0.4-1.7-0.7-3.3-0.8-5c-0.2,0-0.4,0-0.7,0
					c0.5,1.4,1,2.9,1.5,4.3c0.1,0.4,0.7,0.3,0.6-0.1c-0.1-1.3-0.3-2.6-0.4-3.8c-0.2,0.1-0.4,0.1-0.6,0.2c0.4,1.1,0.8,2.2,1.2,3.3
					c0.1,0.4,0.7,0.1,0.6-0.3c-0.5-1.3-0.7-2.5-0.9-3.9c-0.2,0-0.4,0.1-0.7,0.1c0.3,1.1,0.8,2.2,1.3,3.2c0.2,0.4,0.7,0.1,0.6-0.2
					c-0.2-1.1-0.4-2.3-0.6-3.4c-0.2,0.1-0.4,0.2-0.6,0.2c0.4,0.7,0.6,1.4,0.8,2.2c0.1,0.4,0.8,0.3,0.7-0.1c-0.2-0.8-0.4-1.6-0.4-2.4
					c-0.2,0-0.5,0-0.7,0.1c0.3,0.9,0.6,1.5,1.3,2.2c0.3,0.3,0.6,0,0.6-0.3c-0.1-1.1-0.3-2.2-0.5-3.3c-0.2,0.1-0.4,0.2-0.6,0.2
					c0.3,0.9,0.7,1.8,1,2.7c0.1,0.4,0.8,0.1,0.6-0.2c-0.3-0.9-0.5-1.8-0.8-2.8c-0.1-0.4-0.7-0.3-0.7,0.1c0.1,0.7,0.2,1.2,0.4,1.8
					c0.2,0.4,0.8,0.1,0.6-0.3c-0.4-0.9-0.6-1.8-0.8-2.8c-0.2,0.1-0.4,0.2-0.6,0.2c0.2,0.5,0.4,1,0.5,1.4c0.2-0.1,0.4-0.3,0.6-0.4
					c-0.5-0.7-1-1.4-1.5-2.1c-0.2-0.3-0.7,0.1-0.6,0.4c0.4,0.7,0.6,1.5,0.7,2.2c0.2-0.1,0.4-0.2,0.6-0.3c-0.5-0.4-0.9-1-1.1-1.6
					c-0.2,0.1-0.4,0.2-0.6,0.3c0.4,0.5,0.7,1.2,0.7,1.9c0.2-0.1,0.3-0.2,0.5-0.4c-0.8-0.6-1.4-1.3-1.8-2.2c-0.2,0.1-0.4,0.2-0.6,0.3
					c0.6,1,0.9,1.8,1.2,3c0.2-0.1,0.4-0.2,0.6-0.3c-0.6-0.6-1-1.2-1.4-2c-0.2,0.1-0.4,0.2-0.6,0.3c0.5,0.9,0.8,1.5,1.1,2.5
					c0.2-0.1,0.4-0.2,0.6-0.3c-0.5-0.6-1-1.2-1.4-1.8c-0.2-0.4-0.8-0.1-0.6,0.3c0.3,0.7,0.6,1.4,0.9,2.1c0.2-0.1,0.3-0.3,0.5-0.4
					c-0.8-0.5-1.4-1.1-1.8-2c-0.2,0.1-0.4,0.3-0.6,0.4c0.5,0.6,1,1.2,1.3,1.9c0.2-0.1,0.4-0.3,0.6-0.4c-0.5-0.6-0.9-1.2-1.4-1.8
					c-0.2-0.3-0.7,0-0.6,0.4c0.3,0.6,0.5,1.2,0.5,1.8c0.2-0.1,0.4-0.2,0.6-0.3c-0.8-0.8-1.6-1.7-2.2-2.6c-0.2-0.3-0.7,0-0.6,0.3
					c0.3,0.8,0.6,1.6,0.8,2.4c0.2-0.1,0.4-0.2,0.6-0.3c-0.7-1-1.5-2-2.2-3c-0.2-0.3-0.7,0.1-0.6,0.4c0.6,1,0.9,1.9,1.3,3
					c0.2-0.1,0.4-0.2,0.6-0.3c-0.8-1-1.3-1.9-1.8-3.1c-0.2,0.1-0.4,0.2-0.6,0.3c0.4,1,0.7,1.9,0.8,2.9c0.2-0.1,0.4-0.2,0.6-0.2
					c-1-1.6-1.8-3.3-2.4-5c-0.1-0.4-0.8-0.3-0.7,0.1c0.5,1.5,1,3,1.5,4.6c0.2-0.1,0.5-0.2,0.7-0.2c-0.8-1.7-1.7-3.3-2.7-4.9
					c-0.2-0.3-0.8-0.2-0.7,0.2c0.5,2,1,3.9,1.5,5.9c0.2-0.1,0.4-0.2,0.7-0.2c-0.9-1.7-1.7-3.5-2.3-5.4c-0.1-0.4-0.8-0.3-0.7,0.1
					c0.6,2.2,1.3,4.4,1.9,6.6c0.2-0.1,0.4-0.2,0.6-0.2c-1-1.7-1.7-3.5-2.2-5.5c-0.2,0-0.4,0.1-0.7,0.1c0.5,1.9,1,3.7,1.3,5.6
					c0.2-0.1,0.4-0.2,0.6-0.2c-0.9-2.1-1.6-4.2-2.2-6.4c-0.1-0.4-0.8-0.3-0.7,0.1c0.7,2.7,1.3,5.4,1.6,8.1c0.2-0.1,0.4-0.2,0.6-0.2
					c-0.8-2.3-1.4-4.5-1.8-6.9c-0.2,0-0.4,0.1-0.7,0.1c0.6,2.5,1.1,5,1.3,7.6c0.2-0.1,0.4-0.1,0.6-0.2c-1-2.1-1.8-4.3-2.5-6.5
					c-0.1-0.4-0.7-0.3-0.6,0.1c0.3,2,0.6,3.9,0.9,5.9c0.2-0.1,0.4-0.1,0.5-0.2c-1-1.6-1.7-3.2-2.1-5c-0.1,0.1-0.3,0.1-0.4,0.2
					c0.2,0.3,2.9,4.5,2.5,4.8c0.3-0.3-1.4-3.3-1.7-4c-0.1-0.2-0.4-0.1-0.4,0.1c0.4,1.1,0.6,2.1,1,3.2c0.7,1.9,0-0.4-0.5-0.9
					c-1-1.2,1,1.7-0.4,0.9c-0.9-0.5-1.8-2-2.4-2.7C56,65,55.8,65.2,55.9,65.3L55.9,65.3z"/>
			</g>
		</g>
	</g>
	<g>
		<path class="st13" d="M42.4,29.4c-0.8,0.8,0,2.3,1.1,2.3c1.5,0.1,2.3-1.9,1.3-2.9c-0.5-0.6-1.3-0.8-2-0.5c-0.6,0.3-1.1,1-1,1.7
			c0.2,1.6,2.8,1.7,2.9,0c0.1-0.8-0.6-1.6-1.4-1.4c-0.8,0.2-1.2,1-0.7,1.7c0.1,0.2,0.4,0.2,0.6,0.2c0.5-0.1,0.8-0.5,0.9-1
			c0.1-0.7-1-0.9-1.2-0.2c-0.2,0.4,0,0.8,0.3,1c0.2,0.2,0.6,0,0.7-0.2c0,0,0-0.1,0.1-0.1c-0.3-0.2-0.7-0.4-1-0.7c0,0,0,0,0.1,0
			c0.2,0.1,0.5,0.2,0.7,0.3c0,0.2,0,0.3-0.1,0.3c-0.1-0.1-0.2-0.1-0.1,0c0,0,0,0.1,0,0.1c-0.1,0-0.3,0.1-0.3-0.1
			c-0.1-0.2,0.1-0.4,0.3-0.5c0.3-0.1,0.6,0.1,0.7,0.4c0.2,0.5-0.2,1.2-0.7,1.1c-0.6-0.1-0.8-0.8-0.6-1.2
			C42.8,29.5,42.6,29.3,42.4,29.4L42.4,29.4z"/>
	</g>
	<g>
		<path class="st13" d="M48.9,28.4c-0.4,0.5-0.4,1.2,0.2,1.6c0.6,0.4,1.3,0,1.6-0.6c0.6-1.3-1.1-2.5-2.3-2.1
			c-1.3,0.4-1.4,2.3-0.2,2.9c1.2,0.6,2.8-0.6,2.1-2c-0.3-0.7-1.3-0.9-1.9-0.4c-0.6,0.5-0.5,1.5,0.1,1.9c0.4,0.3,0.9,0,1-0.5
			c0.1-0.9-1.1-1.4-1.7-0.8c-0.7,0.6-0.2,1.7,0.6,1.9c0.3,0.1,0.6,0,0.7-0.3c0.2-0.3,0.3-0.6,0.2-0.9c-0.1-0.3-0.5-0.6-0.8-0.4
			c-0.2,0.1-0.4,0.3-0.6,0.5c-0.2,0.4,0.2,0.8,0.6,0.6c0.1,0,0.1-0.1,0.2-0.1c-0.2-0.2-0.4-0.4-0.5-0.6c0,0.1,0,0.1-0.1,0.2
			c0.2-0.1,0.5-0.2,0.7-0.3c-0.2,0,0,0-0.1,0c0,0.1-0.1,0.2-0.2,0.3c-0.1,0-0.2-0.1-0.3-0.3c0.3-0.2,0.7-0.3,1-0.5c0,0,0,0.1,0,0.1
			c0,0.1-0.1,0.1-0.2,0.1c0,0,0,0,0,0c0,0,0,0.2-0.1,0.2c-0.2,0.2-0.5,0-0.6-0.3c0-0.4,0.4-0.4,0.7-0.3c0.2,0.1,0.4,0.2,0.4,0.4
			c0,0,0,0.2,0,0.1c0.1,0.1,0.4,0,0.1,0.3c0.2-0.2,0.3-0.6,0-0.8C49.6,28.3,49.1,28.2,48.9,28.4L48.9,28.4z"/>
	</g>
	<g>
		<path class="st13" d="M43.1,35.1c0.9,1.8,3.2,2.3,5,1.9c1.6-0.3,4-1.7,3.8-3.6C51.8,33,51.3,32.8,51,33c-0.6,0.2-0.7,0.5-1.1,1
			c-0.6,0.6-1.3,1-2.1,1.2c-1.4,0.3-2.8-0.3-4.1-0.7C43.2,34.4,42.9,34.8,43.1,35.1L43.1,35.1z"/>
	</g>
	<g>
		<path class="st13" d="M36.3,41.3c-0.9-0.3-4-0.8-3.5,1.1c0.2,0.6,2,1.2,2,1.2c0,0-2.3,0.9-2.5,1.3c-0.3,0.6-0.2,1.1,0.2,1.6
			c0.3,0.3,0.7,0.4,1.2,0.5c0.4-0.1,0.4-0.1,0,0c-0.2,0-0.4,0.1-0.5,0.2c-1.9,0.9-0.4,2.7,0.9,3.3c0.7,0.3,1.3-0.9,0.6-1.3
			c-1.5-0.7,0.1-0.8,0.6-1.2c0.4-0.3,0.6-0.8,0.4-1.3c-0.2-0.5-0.6-0.7-1.1-1c-0.3-0.2-0.6,0-0.6-0.4c0-0.1,1.8-0.7,2-0.8
			c0.3-0.1,0.3-0.4,0.3-0.7c0-0.6-0.2-0.8-0.7-1.1c-0.3-0.2-1.5-0.3-0.8-0.9c0.2-0.2,1.3,0,1.5,0.1C36.6,41.9,36.7,41.4,36.3,41.3
			L36.3,41.3z"/>
	</g>
	<g>
		<path class="st13" d="M62.3,35.9c0.5,0.3,0.4-0.5,0.8,0.2c0.3,0.5,0,0.4-0.1,0.9c0,0.3,0,0.6,0.1,0.9c0.5,0.8,2.4,0.2,2.6,0.6
			c0.1,0.3-1.1,1.1-0.6,1.9c0.2,0.3,0.5,0.5,0.8,0.6c0.2,0,0.4,0,0.6,0c0.1,0,0.2,0,0.3-0.1c0.3,0.6,0.3,1.1-0.2,1.4
			c-0.3,0.3-0.1,1,0.4,0.8c1.1-0.4,2.2-2.1,1.1-3.1c-0.4-0.4-1.7-0.2-1.8-0.5c-0.1-0.3,0.7-0.8,0.5-1.4c-0.1-0.6-0.6-0.8-1.2-0.9
			c-0.3,0-1,0.2-1.2,0.1c-0.6-0.3,0-1,0-1.3c0.4-2.1-2-1.2-2.9-0.7c-0.2,0.2-0.3,0.5,0.1,0.6c0.3,0.1,0.2,0.1,0.5,0
			C62.4,36,62.4,35.9,62.3,35.9L62.3,35.9z"/>
	</g>
	<g>
		<path class="st13" d="M40.8,67.5c0.4,0,0.4,0,0.8-0.2c0.5-0.3,0.3-0.6,1-0.1c0.7,0.5,0.2,0.3,0.4,0.9c0.2,0.8,0.5,1.3,1.5,1.3
			c0.4,0,0.8-0.3,1.2-0.3c0.7-0.1,0.5-0.2,0.8,0.3c0.1,0.2,0,0.4,0.1,0.6c0.1,0.3,0.4,0.7,0.8,0.8c0.3,0.1,2-0.3,1.9,0.3
			c-0.1,0.9,1.3,1,1.4,0.1c0.1-0.6-0.1-1.2-0.6-1.6c-0.3-0.2-0.5-0.3-0.9-0.4c-0.4-0.1-1,0.2-1.3,0.1c-0.3-0.1,0-0.1,0-0.6
			c0-0.3-0.1-0.5-0.3-0.8c-0.3-0.5-0.9-0.6-1.4-0.5c-0.8,0.1-1.5,1-2,0.1c-0.2-0.4-0.1-0.9-0.6-1.3c-1.3-1.1-1.9,0.5-2.7,1.1
			C40.7,67.3,40.7,67.5,40.8,67.5L40.8,67.5z"/>
	</g>
	<g>
		<path class="st13" d="M60.9,69.4c-0.1-1.3,0.8-1.8,2-1.8c0.3,0,0.5,0,0.8-0.1c0.2-0.1,0.3-0.4,0.4-0.6c0-0.1,0-0.3,0-0.5
			c0.1-0.4-1-2.4,1.2-1.4c0.3,0.2,0.7-0.2,0.7-0.5c0-0.4-0.3-2.2,0.6-1.6c0.3,0.2,0.6,0,0.6-0.3c0-0.9-0.8-1.3-1.6-1.1
			c-1.4,0.5-0.6,1.9-0.7,2.9c0.2-0.2,0.5-0.3,0.7-0.5c-0.7-0.3-1.5-0.3-2.1,0.2c-0.3,0.3-0.5,0.6-0.6,1c-0.1,0.3,0.1,0.9-0.1,1.1
			c-0.2,0.2-0.8,0.1-1.1,0.2c-0.4,0.1-0.8,0.4-1.1,0.7c-0.6,0.6-0.7,1.4-0.5,2.2C60.3,69.9,60.9,69.9,60.9,69.4L60.9,69.4z"/>
	</g>
	<g>
		<g>
			<path class="st51" d="M50.1,47.6c-0.8,0.6-0.5,1.9,0.4,2.2c1.2,0.4,2.3-0.9,1.9-2c-0.5-1.2-2.1-1.5-2.9-0.5
				c-0.8,0.9-0.4,2.4,0.7,2.8c1,0.4,2.3-0.1,2.5-1.2c0.2-1.1-0.6-2.3-1.8-2.2c-1.1,0.1-1.9,1.4-1.3,2.4c0.6,0.9,2.1,1,2.6,0
				c0.3-0.6,0.2-1.4-0.4-1.7c-0.6-0.3-1.4-0.1-1.5,0.6c-0.1,0.6,0.4,1.3,1,1.1c0.7-0.2,0.4-1.2-0.3-1.1c-0.2,0-0.3,0.2-0.4,0.3
				c0,0,0,0,0,0.1c-0.1,0.6,0.8,0.9,0.9,0.3c0,0,0,0,0-0.1c-0.1,0.1-0.2,0.2-0.4,0.3c0,0-0.1,0-0.1,0c-0.1-0.1-0.2-0.2-0.3-0.2
				c0,0,0,0,0,0.1c0-0.2,0-0.3,0-0.5c0,0,0,0.1-0.1,0.1c0.1-0.1,0.2-0.1,0.3-0.2c0.1,0.1,0.1,0.1,0.1,0c0.1,0,0.1,0,0.2,0.1
				c0.1,0.1,0,0.3,0,0.3c-0.1,0.2-0.3,0.2-0.5,0.2c-0.5-0.1-0.6-0.6-0.2-0.9c0.9-0.7,1.6,1.2,0.4,1.3c-0.4,0-0.9-0.2-0.9-0.6
				c0-0.6,0.5-1,1-0.7c0.5,0.3,0.3,1.1-0.3,1.1c-0.6,0.1-0.8-0.8-0.5-1.2C50.5,47.6,50.2,47.5,50.1,47.6L50.1,47.6z"/>
		</g>
		<g>
			<path class="st51" d="M52,53.4c0.3-0.3,0.3-0.7,0-1c-0.4-0.3-0.8-0.1-1,0.2c-0.6,0.7-1.1,1.6-0.7,2.5c0.8,1.7,4.5,1,3.9-1.1
				c-0.2-0.9-1.4-1.7-2.3-1.8c-0.9-0.1-1.6,0.6-1.7,1.5c0,0.8,0.6,1.5,1.4,1.7c0.7,0.1,1.8-0.3,1.8-1.1c0-0.8-1.1-1.3-1.6-0.6
				c-0.5,0.7,0.2,1.6,1,1.4c0.2-0.1,0.3-0.2,0.4-0.4c0.1-0.6-0.2-1.4-0.9-1.4c-0.6,0-1,0.5-0.8,1.1c0.2,0.4,0.7,0.2,0.8-0.2
				c0,0.1,0,0.3,0,0.4c0.1-0.1,0.2-0.3,0.4-0.4c-0.1,0-0.1,0-0.2,0c0.1,0.1,0.1,0.1,0.1,0.1c-0.1,0.1-0.3,0.2-0.4,0.2
				c-0.3,0-0.6,0-0.8-0.3c-0.1-0.3-0.1-0.7,0.2-0.8c0.3-0.1,0.8,0.2,1,0.4c0.3,0.3,0.7,0.6,0.3,1C52.6,55,52,55,51.7,54.9
				c-0.4-0.1-0.5-0.3-0.4-0.7c0-0.2,0.1-0.3,0.2-0.5c0-0.1,0.3-0.4,0.3-0.4c-0.1,0-0.3-0.1-0.4-0.1c0,0,0,0,0.1,0
				c-0.1-0.1-0.2-0.2-0.2-0.3c0,0,0,0,0,0.1c0.1-0.2,0.1-0.3,0.2-0.5c0,0,0,0,0,0C50.8,53,51.5,53.9,52,53.4L52,53.4z"/>
		</g>
		<g>
			<path class="st51" d="M53.3,58.4c-0.9,0.3-1.4,1.3-1.1,2.2c0.3,0.9,1.3,1.3,2.2,1.1c1-0.3,1.4-1.4,1.1-2.4
				c-0.4-1.1-1.7-1.4-2.8-1.1c-1,0.3-1.6,1.3-1.4,2.3c0.2,1,1.2,1.5,2.1,1.3c0.9-0.2,1.5-1,1.3-2c-0.2-0.9-1.3-1.6-2.2-1.2
				c-1.1,0.5-1.2,2.3,0.1,2.7c1.2,0.4,2-1.1,1.3-2c-0.1-0.2-0.4-0.2-0.6-0.1c-0.6,0.2-0.6,1-0.1,1.3c0.4,0.3,0.8-0.2,0.6-0.6
				c0,0.1,0,0.1,0,0.2c-0.2,0-0.4-0.1-0.6-0.1c0.1,0.2-0.4,0.4-0.4,0c0-0.2,0.3-0.4,0.4-0.4c0.3,0.1,0.5,0.5,0.4,0.8
				c-0.2,0.3-0.7,0.3-0.9,0.2c-0.4-0.3-0.3-0.8,0-1.1c0.7-0.7,2.5,0.1,1.7,1c-0.3,0.4-1,0.3-1.3-0.1c-0.5-0.5-0.1-1.4,0.4-1.7
				C53.6,58.6,53.5,58.3,53.3,58.4L53.3,58.4z"/>
		</g>
	</g>
</g>
</svg>
