<svg enable-background="new 0 0 100 100" viewBox="0 0 100 100" xmlns="http://www.w3.org/2000/svg" xmlns:xlink="http://www.w3.org/1999/xlink"><clipPath id="a"><path d="m0-140h100v100h-100z"/></clipPath><clipPath id="b"><path d="m-467.5-146.7h937.7v401.9h-937.7z" transform="matrix(.6711 -.7413 .7413 .6711 -39.7274 18.8567)"/></clipPath><g clip-path="url(#a)"><g clip-path="url(#b)"><path d="m134.4-143.4h625.1v625.1h-625.1z" fill="none" transform="matrix(.6711 -.7413 .7413 .6711 21.572 386.9634)"/><path d="m134.4-143.4h625.1v625.1h-625.1z" fill="#1e0d12" transform="matrix(.6711 -.7413 .7413 .6711 21.572 386.9634)"/><g fill="#e62f34"><path d="m111.5 98.9-.4-7.9-8.3-7.5-3.7 4.2z"/><path d="m112.3 114.7-.4-7.9-16.5-15-3.8 4.1z"/></g></g><g clip-path="url(#b)"><path d="m-329.1-563h625.1v625.1h-625.1z" fill="none" transform="matrix(.6711 -.7413 .7413 .6711 180.2009 -94.5688)"/><path d="m-329.1-563h625.1v625.1h-625.1z" fill="#1e0d12" transform="matrix(.6711 -.7413 .7413 .6711 180.2009 -94.5688)"/><g fill="#e62f34"><path d="m65.4-33.2 41.4 37.5-.4-7.9-33.1-30z"/><path d="m49.7-32.4 57.9 52.5-.4-7.9-49.6-45z"/><path d="m36.9-31.8-3 .2 74.5 67.4-.4-7.9-66.2-59.9z"/><path d="m18.1-30.8 91.1 82.4-.4-7.9-82.8-74.9z"/><path d="m2.4-30 107.5 97.4-.3-7.9-99.3-89.9z"/><path d="m-.4 72.8 8.2 7.5 7.9-.4-16.5-14.9z"/><path d="m-1.2 57.1 24.8 22.4 7.9-.3-33.1-30z"/><path d="m-2 41.3 41.4 37.5 7.9-.4-49.7-45z"/><path d="m-2.8 25.5 58 52.5 7.8-.4-66.2-60z"/><path d="m-3.6 9.8 74.5 67.4 7.9-.4-82.8-74.9z"/><path d="m-4.3-6 91 82.4 7.9-.4-99.3-89.9z"/><path d="m-5.5-29.6.4 7.8 107.6 97.4 7.8-.4z"/></g><g fill="#25793d"><path d="m0 80.7 7.8-.4-8.2-7.5z"/><path d="m-.8 65 16.5 14.9 7.9-.4-24.8-22.4z"/><path d="m-1.6 49.2 33.1 30 7.9-.4-41.4-37.5z"/><path d="m-2.4 33.4 49.7 45 7.9-.4-58-52.5z"/><path d="m-3.2 17.6 66.2 60 7.9-.4-74.5-67.4z"/><path d="m-4 1.9 82.8 74.9 7.9-.4-91-82.4z"/><path d="m-4.7-13.9 99.3 89.9 7.9-.4-107.6-97.4z"/><path d="m57.6-32.8 49.6 45-.4-7.9-41.4-37.5z"/><path d="m41.8-32 66.2 59.9-.4-7.8-57.9-52.5z"/><path d="m33.9-31.6-7.9.4 82.8 74.9-.4-7.9z"/><path d="m10.3-30.4 99.3 89.9-.4-7.9-91.1-82.4z"/><path d="m-5.5-29.6 115.8 104.8-.4-7.8-107.5-97.4z"/></g><path d="m86.7 76.4 12.4 11.3 3.7-4.2-8.2-7.5z" fill="#e62f34"/><path d="m70.9 77.2 20.7 18.7 3.8-4.1-16.6-15z" fill="#e62f34"/><path d="m55.2 78 28.9 26.2 3.8-4.1-24.9-22.5z" fill="#e62f34"/><path d="m39.4 78.8 37.2 33.7 3.8-4.2-33.1-29.9z" fill="#e62f34"/><path d="m23.6 79.5 45.5 41.3 3.8-4.2-41.4-37.4z" fill="#e62f34"/><path d="m7.8 80.3 53.8 48.7 3.8-4.1-49.7-45z" fill="#e62f34"/><path d="m.7 96.5.4 7.9 45.6 41.2 3.7-4.2z" fill="#e62f34"/><path d="m.4 88.6 53.8 48.7 3.7-4.1-57.9-52.5z" fill="#e62f34"/></g><g clip-path="url(#b)"><path d="m-748.6-99.5h625.1v625.1h-625.1z" fill="none" transform="matrix(.6711 -.7413 .7413 .6711 -301.3314 -253.1976)"/><path d="m-748.6-99.5h625.1v625.1h-625.1z" fill="#1e0d12" transform="matrix(.6711 -.7413 .7413 .6711 -301.3314 -253.1976)"/></g></g><path d="m0 0h100v100h-100z" fill="#253748"/><path d="m51.3 40s9.6-12.8 12-14.9c2.5-2.1 14.6 14.8 12.1 17.1s-20 2.4-20 2.4z" fill="#cd4134"/><path d="m55.5 44.3s13 1.4 15.4 2.1c2.4.8-6.1 13.3-8.7 12.6s-8.8-10.8-8.8-10.8z" fill="#bd3026"/><path d="m53.7 50.1 10.9 22.9c.1.2 0 .4-.1.5l-7.6 5.7c-.4.3-1.1.1-1.1-.3l-5-28.1z" fill="#cd4134"/><path d="m51.2 40s-9.2-13.3-11.7-15.4c-2.4-2.2-14.9 14.1-12.5 16.6 2.4 2.4 19.9 3.3 19.9 3.3z" fill="#cd4134"/><path d="m47 44.1s-13.1.8-15.5 1.5 5.7 13.6 8.4 13 9.1-10.4 9.1-10.4z" fill="#bd3026"/><path d="m48.5 50-11.4 22.4c-.1.2 0 .4.1.5l7.5 6c.4.3 1.1.2 1.1-.2l5.7-27.9z" fill="#cd4134"/><path d="m46.9 41-.1 6.9c0 1.8 1.7 3.3 3.7 3.4h1.1c.6 0 1.2-.1 1.7-.3 1.3-.5 2.1-1.6 2.1-2.9l.1-6.9c0-1.3-.8-2.4-2.1-3-.5-.2-1.1-.4-1.7-.4h-1.1c-1.9 0-3.7 1.4-3.7 3.2z" fill="#bd3026"/><g fill="#cd4134"><path d="m53.5 38.2-.1 12.8c1.3-.5 2.1-1.6 2.1-2.9l.1-6.9c0-1.3-.8-2.4-2.1-3z" opacity=".4"/><path d="m49.1 38.1-.2 12.8c-1.2-.6-2.1-1.7-2.1-3l.2-6.9c0-1.3.8-2.4 2.1-2.9z" opacity=".4"/></g></svg>