<?xml version="1.0" encoding="utf-8"?>
<!-- Generator: Adobe Illustrator 22.1.0, SVG Export Plug-In . SVG Version: 6.00 Build 0)  -->
<svg version="1.1" id="Layer_1" xmlns="http://www.w3.org/2000/svg" xmlns:xlink="http://www.w3.org/1999/xlink" x="0px" y="0px"
	 viewBox="0 0 100 100" style="enable-background:new 0 0 100 100;" xml:space="preserve">
<style type="text/css">
	.st0{fill:#BE1E2D;}
	.st1{fill:#00B0BB;}
	.st2{fill:#63C4AF;}
	.st3{fill:#EAEAEA;}
	.st4{fill:#413E34;}
	.st5{fill:none;}
	.st6{clip-path:url(#SVGID_2_);}
	.st7{clip-path:url(#SVGID_4_);}
	.st8{fill:#1E0D12;}
	.st9{fill:#E62F34;}
	.st10{fill:#25793D;}
	.st11{clip-path:url(#SVGID_6_);}
	.st12{clip-path:url(#SVGID_8_);}
	.st13{fill:#FFFFFF;}
	.st14{clip-path:url(#SVGID_10_);}
	.st15{clip-path:url(#SVGID_12_);}
	.st16{fill:#96BF4D;}
	.st17{clip-path:url(#SVGID_14_);}
	.st18{fill-rule:evenodd;clip-rule:evenodd;fill:#FFFFFF;}
	.st19{fill:#C92927;}
	.st20{fill:#253748;}
	.st21{clip-path:url(#SVGID_16_);}
	.st22{fill:#97CB59;}
	.st23{fill:#DA2128;}
	.st24{fill:#00A14B;}
	.st25{fill:#96171A;}
	.st26{fill:#D1E39B;}
	.st27{fill:#4FBBBB;}
	.st28{fill:#37343F;}
	.st29{fill:#077A64;}
	.st30{fill:#F4EED4;}
	.st31{fill:#012E47;}
	.st32{fill:#BE1C42;}
	.st33{fill:#008E9F;}
	.st34{fill:#CD4134;}
	.st35{clip-path:url(#SVGID_18_);}
	.st36{clip-path:url(#SVGID_20_);}
	.st37{fill:#EE2424;}
	.st38{fill:#67BC45;}
	.st39{clip-path:url(#SVGID_22_);}
	.st40{clip-path:url(#SVGID_24_);}
	.st41{fill:#004A54;}
	.st42{fill:#D93128;}
	.st43{fill:#401B23;}
	.st44{fill:#EE2D40;}
	.st45{fill:#F1EBC9;}
	.st46{fill-rule:evenodd;clip-rule:evenodd;fill:#C92927;}
	.st47{fill-rule:evenodd;clip-rule:evenodd;fill:#96BF4D;}
	.st48{fill:#BD3026;}
	.st49{opacity:0.4;fill:#CD4134;}
	.st50{fill:#E6B448;}
	.st51{fill:#E21F26;}
	.st52{fill:#A82123;}
	.st53{fill:#383A3A;}
	.st54{fill:#F17B22;}
	.st55{fill:#F1F0DC;}
	.st56{fill:#56AE78;}
	.st57{fill:#EE262E;}
	.st58{fill:#C47229;}
	.st59{fill:#FEC010;}
	.st60{fill:#C0343E;}
	.st61{fill:url(#SVGID_25_);}
	.st62{fill:#659DAA;}
	.st63{fill:#C9A784;}
	.st64{fill:#DDCFB5;}
	.st65{fill:#D2A886;}
	.st66{fill:#9B3227;}
	.st67{opacity:0.39;fill:#FFFFFF;}
	.st68{fill:#E5E5E5;}
	.st69{fill:#202945;}
	.st70{fill:none;stroke:#ACA300;stroke-miterlimit:10;}
	.st71{fill:none;stroke:#ACA300;stroke-miterlimit:10;stroke-dasharray:2.0083,2.0083;}
	.st72{fill:#ACA300;}
</style>
<g>
	<defs>
		<rect id="SVGID_1_" x="0" y="-140" width="100" height="100"/>
	</defs>
	<clipPath id="SVGID_2_">
		<use xlink:href="#SVGID_1_"  style="overflow:visible;"/>
	</clipPath>
	<g class="st6">
		<g>
			<defs>
				
					<rect id="SVGID_3_" x="-467.5" y="-146.7" transform="matrix(0.6711 -0.7413 0.7413 0.6711 -39.7274 18.8567)" width="937.7" height="401.9"/>
			</defs>
			<clipPath id="SVGID_4_">
				<use xlink:href="#SVGID_3_"  style="overflow:visible;"/>
			</clipPath>
			<g class="st7">
				
					<rect x="134.4" y="-143.4" transform="matrix(0.6711 -0.7413 0.7413 0.6711 21.572 386.9634)" class="st5" width="625.1" height="625.1"/>
				
					<rect x="134.4" y="-143.4" transform="matrix(0.6711 -0.7413 0.7413 0.6711 21.572 386.9634)" class="st8" width="625.1" height="625.1"/>
				<polygon class="st9" points="111.5,98.9 111.1,91 102.8,83.5 99.1,87.7 				"/>
				<polygon class="st9" points="112.3,114.7 111.9,106.8 95.4,91.8 91.6,95.9 				"/>
			</g>
			<g class="st7">
				
					<rect x="-329.1" y="-563" transform="matrix(0.6711 -0.7413 0.7413 0.6711 180.2009 -94.5688)" class="st5" width="625.1" height="625.1"/>
				
					<rect x="-329.1" y="-563" transform="matrix(0.6711 -0.7413 0.7413 0.6711 180.2009 -94.5688)" class="st8" width="625.1" height="625.1"/>
				<polygon class="st9" points="65.4,-33.2 106.8,4.3 106.4,-3.6 73.3,-33.6 				"/>
				<polygon class="st9" points="49.7,-32.4 107.6,20.1 107.2,12.2 57.6,-32.8 				"/>
				<polygon class="st9" points="36.9,-31.8 33.9,-31.6 108.4,35.8 108,27.9 41.8,-32 				"/>
				<polygon class="st9" points="18.1,-30.8 109.2,51.6 108.8,43.7 26,-31.2 				"/>
				<polygon class="st9" points="2.4,-30 109.9,67.4 109.6,59.5 10.3,-30.4 				"/>
				<polygon class="st9" points="-0.4,72.8 7.8,80.3 15.7,79.9 -0.8,65 				"/>
				<polygon class="st9" points="-1.2,57.1 23.6,79.5 31.5,79.2 -1.6,49.2 				"/>
				<polygon class="st9" points="-2,41.3 39.4,78.8 47.3,78.4 -2.4,33.4 				"/>
				<polygon class="st9" points="-2.8,25.5 55.2,78 63,77.6 -3.2,17.6 				"/>
				<polygon class="st9" points="-3.6,9.8 70.9,77.2 78.8,76.8 -4,1.9 				"/>
				<polygon class="st9" points="-4.3,-6 86.7,76.4 94.6,76 -4.7,-13.9 				"/>
				<polygon class="st9" points="-5.5,-29.6 -5.5,-29.6 -5.1,-21.8 102.5,75.6 110.3,75.2 -5.5,-29.6 				"/>
				<polygon class="st10" points="0,80.7 7.8,80.3 -0.4,72.8 				"/>
				<polygon class="st10" points="-0.8,65 15.7,79.9 23.6,79.5 -1.2,57.1 				"/>
				<polygon class="st10" points="-1.6,49.2 31.5,79.2 39.4,78.8 -2,41.3 				"/>
				<polygon class="st10" points="-2.4,33.4 47.3,78.4 55.2,78 -2.8,25.5 				"/>
				<polygon class="st10" points="-3.2,17.6 63,77.6 70.9,77.2 -3.6,9.8 				"/>
				<polygon class="st10" points="-4,1.9 78.8,76.8 86.7,76.4 -4.3,-6 				"/>
				<polygon class="st10" points="-4.7,-13.9 94.6,76 102.5,75.6 -5.1,-21.8 				"/>
				<polygon class="st10" points="57.6,-32.8 107.2,12.2 106.8,4.3 65.4,-33.2 				"/>
				<polygon class="st10" points="41.8,-32 108,27.9 107.6,20.1 49.7,-32.4 				"/>
				<polygon class="st10" points="33.9,-31.6 33.9,-31.6 26,-31.2 108.8,43.7 108.4,35.8 33.9,-31.6 				"/>
				<polygon class="st10" points="10.3,-30.4 109.6,59.5 109.2,51.6 18.1,-30.8 				"/>
				<polygon class="st10" points="-5.5,-29.6 110.3,75.2 109.9,67.4 2.4,-30 				"/>
				<polygon class="st9" points="86.7,76.4 99.1,87.7 102.8,83.5 94.6,76 				"/>
				<polygon class="st9" points="70.9,77.2 91.6,95.9 95.4,91.8 78.8,76.8 				"/>
				<polygon class="st9" points="55.2,78 84.1,104.2 87.9,100.1 63,77.6 				"/>
				<polygon class="st9" points="39.4,78.8 76.6,112.5 80.4,108.3 47.3,78.4 				"/>
				<polygon class="st9" points="23.6,79.5 69.1,120.8 72.9,116.6 31.5,79.2 				"/>
				<polygon class="st9" points="7.8,80.3 61.6,129 65.4,124.9 15.7,79.9 				"/>
				<polygon class="st9" points="0.7,96.5 1.1,104.4 46.7,145.6 50.4,141.4 				"/>
				<polygon class="st9" points="0.4,88.6 54.2,137.3 57.9,133.2 0,80.7 				"/>
			</g>
			<g class="st7">
				
					<rect x="-748.6" y="-99.5" transform="matrix(0.6711 -0.7413 0.7413 0.6711 -301.3314 -253.1976)" class="st5" width="625.1" height="625.1"/>
				
					<rect x="-748.6" y="-99.5" transform="matrix(0.6711 -0.7413 0.7413 0.6711 -301.3314 -253.1976)" class="st8" width="625.1" height="625.1"/>
			</g>
		</g>
	</g>
</g>
<rect x="0" y="0" class="st20" width="100" height="100"/>
<g>
	<path class="st34" d="M51.3,40c0,0,9.6-12.8,12-14.9c2.5-2.1,14.6,14.8,12.1,17.1c-2.5,2.3-20,2.4-20,2.4L51.3,40z"/>
	<path class="st48" d="M55.5,44.3c0,0,13,1.4,15.4,2.1c2.4,0.8-6.1,13.3-8.7,12.6c-2.6-0.7-8.8-10.8-8.8-10.8L55.5,44.3z"/>
	<path class="st34" d="M53.7,50.1L64.6,73c0.1,0.2,0,0.4-0.1,0.5l-7.6,5.7c-0.4,0.3-1.1,0.1-1.1-0.3l-5-28.1L53.7,50.1z"/>
	<path class="st34" d="M51.2,40c0,0-9.2-13.3-11.7-15.4c-2.4-2.2-14.9,14.1-12.5,16.6c2.4,2.4,19.9,3.3,19.9,3.3L51.2,40z"/>
	<path class="st48" d="M47,44.1c0,0-13.1,0.8-15.5,1.5c-2.4,0.7,5.7,13.6,8.4,13c2.7-0.6,9.1-10.4,9.1-10.4L47,44.1z"/>
	<path class="st34" d="M48.5,50L37.1,72.4c-0.1,0.2,0,0.4,0.1,0.5l7.5,6c0.4,0.3,1.1,0.2,1.1-0.2l5.7-27.9L48.5,50z"/>
	<path class="st48" d="M46.9,41l-0.1,6.9c0,1.8,1.7,3.3,3.7,3.4l1.1,0c0.6,0,1.2-0.1,1.7-0.3c1.3-0.5,2.1-1.6,2.1-2.9l0.1-6.9
		c0-1.3-0.8-2.4-2.1-3c-0.5-0.2-1.1-0.4-1.7-0.4l-1.1,0C48.7,37.8,46.9,39.2,46.9,41z"/>
	<path class="st49" d="M53.5,38.2L53.4,51c1.3-0.5,2.1-1.6,2.1-2.9l0.1-6.9C55.6,39.9,54.8,38.8,53.5,38.2z"/>
	<path class="st49" d="M49.1,38.1l-0.2,12.8c-1.2-0.6-2.1-1.7-2.1-3L47,41C47,39.7,47.8,38.6,49.1,38.1z"/>
</g>
</svg>
