<?xml version="1.0" encoding="utf-8"?>
<!-- Generator: Adobe Illustrator 22.1.0, SVG Export Plug-In . SVG Version: 6.00 Build 0)  -->
<svg version="1.1" id="Layer_1" xmlns="http://www.w3.org/2000/svg" xmlns:xlink="http://www.w3.org/1999/xlink" x="0px" y="0px"
	 viewBox="0 0 100 100" style="enable-background:new 0 0 100 100;" xml:space="preserve">
<style type="text/css">
	.st0{fill:#BE1E2D;}
	.st1{fill:#00B0BB;}
	.st2{fill:#63C4AF;}
	.st3{fill:#EAEAEA;}
	.st4{fill:#413E34;}
	.st5{fill:none;}
	.st6{clip-path:url(#SVGID_2_);}
	.st7{clip-path:url(#SVGID_4_);}
	.st8{fill:#1E0D12;}
	.st9{fill:#E62F34;}
	.st10{fill:#25793D;}
	.st11{clip-path:url(#SVGID_6_);}
	.st12{clip-path:url(#SVGID_8_);}
	.st13{fill:#FFFFFF;}
	.st14{clip-path:url(#SVGID_10_);}
	.st15{clip-path:url(#SVGID_12_);}
	.st16{fill:#96BF4D;}
	.st17{clip-path:url(#SVGID_14_);}
	.st18{fill-rule:evenodd;clip-rule:evenodd;fill:#FFFFFF;}
	.st19{fill:#C92927;}
	.st20{fill:#253748;}
	.st21{clip-path:url(#SVGID_16_);}
	.st22{fill:#97CB59;}
	.st23{fill:#DA2128;}
	.st24{fill:#00A14B;}
	.st25{fill:#96171A;}
	.st26{fill:#D1E39B;}
	.st27{fill:#4FBBBB;}
	.st28{fill:#37343F;}
	.st29{fill:#077A64;}
	.st30{fill:#F4EED4;}
	.st31{fill:#012E47;}
	.st32{fill:#BE1C42;}
	.st33{fill:#008E9F;}
	.st34{fill:#CD4134;}
	.st35{clip-path:url(#SVGID_18_);}
	.st36{clip-path:url(#SVGID_20_);}
	.st37{fill:#EE2424;}
	.st38{fill:#67BC45;}
	.st39{clip-path:url(#SVGID_22_);}
	.st40{clip-path:url(#SVGID_24_);}
	.st41{fill:#004A54;}
	.st42{fill:#D93128;}
	.st43{fill:#401B23;}
	.st44{fill:#EE2D40;}
	.st45{fill:#F1EBC9;}
	.st46{fill-rule:evenodd;clip-rule:evenodd;fill:#C92927;}
	.st47{fill-rule:evenodd;clip-rule:evenodd;fill:#96BF4D;}
	.st48{fill:#BD3026;}
	.st49{opacity:0.4;fill:#CD4134;}
	.st50{fill:#E6B448;}
	.st51{fill:#E21F26;}
	.st52{fill:#A82123;}
	.st53{fill:#383A3A;}
	.st54{fill:#F17B22;}
	.st55{fill:#F1F0DC;}
	.st56{fill:#56AE78;}
	.st57{fill:#EE262E;}
	.st58{fill:#C47229;}
	.st59{fill:#FEC010;}
	.st60{fill:#C0343E;}
	.st61{fill:url(#SVGID_25_);}
	.st62{fill:#659DAA;}
	.st63{fill:#C9A784;}
	.st64{fill:#DDCFB5;}
	.st65{fill:#D2A886;}
	.st66{fill:#9B3227;}
	.st67{opacity:0.39;fill:#FFFFFF;}
	.st68{fill:#E5E5E5;}
	.st69{fill:#202945;}
	.st70{fill:none;stroke:#ACA300;stroke-miterlimit:10;}
	.st71{fill:none;stroke:#ACA300;stroke-miterlimit:10;stroke-dasharray:2.0083,2.0083;}
	.st72{fill:#ACA300;}
</style>
<g>
	<defs>
		<rect id="SVGID_1_" x="840" y="-280" width="100" height="100"/>
	</defs>
	<clipPath id="SVGID_2_">
		<use xlink:href="#SVGID_1_"  style="overflow:visible;"/>
	</clipPath>
	<g class="st6">
		<g>
			<defs>
				
					<rect id="SVGID_3_" x="372.5" y="-286.7" transform="matrix(0.6711 -0.7413 0.7413 0.6711 340.2969 595.5312)" width="937.7" height="401.9"/>
			</defs>
			<clipPath id="SVGID_4_">
				<use xlink:href="#SVGID_3_"  style="overflow:visible;"/>
			</clipPath>
			<g class="st7">
				
					<rect x="91.4" y="-239.5" transform="matrix(0.6711 -0.7413 0.7413 0.6711 78.693 323.4769)" class="st5" width="625.1" height="625.1"/>
				
					<rect x="91.4" y="-239.5" transform="matrix(0.6711 -0.7413 0.7413 0.6711 78.693 323.4769)" class="st8" width="625.1" height="625.1"/>
				<polygon class="st9" points="25.5,91.8 21.3,92.1 9.8,92.6 9.8,92.6 				"/>
				<polygon class="st9" points="64.9,89.9 64.9,89.9 57.1,90.3 57.1,90.3 				"/>
				<polygon class="st9" points="64.9,89.9 72.8,89.5 72.8,89.5 				"/>
				<polygon class="st9" points="57.1,90.3 50.8,90.6 25.5,91.8 25.5,91.8 				"/>
				<polygon class="st9" points="1.9,93 1.9,93 -13,93.8 -13.9,93.8 				"/>
				<polygon class="st9" points="57.1,90.3 25.5,91.8 9.8,92.6 1.9,93 -13.9,93.8 -37.5,95 -37.5,95 78.3,199.9 78.3,199.9 
					77.9,192 77.9,192 77.5,184.1 77.5,184.1 77.1,176.2 77.1,176.2 76.7,168.3 76.7,168.3 76.4,160.5 76.4,160.5 76,152.6 
					76,152.6 75.6,144.7 75.2,136.8 75.2,136.8 74.8,128.9 74.8,128.9 74.4,121 74.4,121 74,113.1 74,113.1 73.6,105.3 73.6,105.3 
					73.2,97.4 73.2,97.4 72.8,89.5 64.9,89.9 				"/>
				<polygon class="st9" points="172.9,195.2 180.8,194.8 73.2,97.4 73.6,105.3 				"/>
				<polygon class="st9" points="73.6,105.3 73.6,105.3 73.2,97.4 73.2,97.4 				"/>
				<polygon class="st9" points="96.5,88.3 88.6,88.7 96.5,88.3 				"/>
				<polygon class="st9" points="187.5,170.7 187.5,170.7 96.5,88.3 88.6,88.7 187.9,178.6 				"/>
				<polygon class="st9" points="80.7,89.1 72.8,89.5 72.8,89.5 80.7,89.1 				"/>
				<polygon class="st9" points="188.3,186.5 80.7,89.1 72.8,89.5 188.7,194.4 188.3,186.5 				"/>
				<polygon class="st9" points="68.5,2.8 68.1,-5.1 59.9,-12.6 56.1,-8.5 				"/>
				<polygon class="st9" points="69.3,18.5 68.9,10.7 52.4,-4.3 48.6,-0.2 				"/>
				<polygon class="st9" points="70.1,34.3 69.7,26.4 44.9,3.9 41.1,8.1 				"/>
				<polygon class="st9" points="70.9,50.1 70.5,42.2 37.4,12.2 33.6,16.4 				"/>
				<polygon class="st9" points="71.7,65.8 71.3,58 29.9,20.5 26.1,24.6 				"/>
				<polygon class="st9" points="72,73.7 22.4,28.8 18.6,32.9 72.4,81.6 				"/>
				<polygon class="st9" points="9.8,92.6 -15.1,70.1 -18.8,74.3 1.9,93 				"/>
				<polygon class="st9" points="9.8,92.6 9.8,92.6 1.9,93 1.9,93 				"/>
				<polygon class="st9" points="21.3,92.1 25.5,91.8 -7.6,61.9 -11.3,66 17.6,92.2 				"/>
				<polygon class="st9" points="25.5,91.8 21.3,92.1 25.5,91.8 				"/>
				<polygon class="st9" points="41.3,91.1 -0.1,53.6 -3.8,57.7 33.4,91.5 				"/>
				<polygon class="st9" points="50.8,90.6 57.1,90.3 7.4,45.3 3.7,49.5 49.2,90.7 				"/>
				<polygon class="st9" points="57.1,90.3 50.8,90.6 57.1,90.3 				"/>
				<polygon class="st9" points="72.8,89.5 14.9,37 11.2,41.2 64.9,89.9 				"/>
				<polygon class="st9" points="72.8,89.5 64.9,89.9 64.9,89.9 				"/>
			</g>
		</g>
	</g>
</g>
<g>
	<defs>
		<rect id="SVGID_5_" x="0" y="-140" width="100" height="100"/>
	</defs>
	<clipPath id="SVGID_6_">
		<use xlink:href="#SVGID_5_"  style="overflow:visible;"/>
	</clipPath>
	<g class="st11">
		<g>
			<defs>
				<rect id="SVGID_7_" x="-71.3" y="-838.9" width="595" height="1388.2"/>
			</defs>
			<clipPath id="SVGID_8_">
				<use xlink:href="#SVGID_7_"  style="overflow:visible;"/>
			</clipPath>
			<g class="st12">
				<rect x="-361.1" y="-141.6" class="st5" width="466" height="466"/>
				<rect x="-361.1" y="-141.6" class="st13" width="466" height="466"/>
				<g>
					<g>
						<polygon class="st9" points="104.9,91.4 104.9,99.4 96.9,99.4 						"/>
						<polygon class="st9" points="104.9,83.4 88.8,99.4 80.8,99.4 104.9,75.3 						"/>
						<polygon class="st9" points="104.9,67.3 72.8,99.4 64.7,99.4 104.9,59.3 						"/>
						<polygon class="st9" points="104.9,51.2 56.7,99.4 48.7,99.4 104.9,43.2 						"/>
						<polygon class="st9" points="104.9,35.2 40.6,99.4 32.6,99.4 104.9,27.1 						"/>
						<polygon class="st9" points="104.9,19.1 24.6,99.4 16.5,99.4 104.9,11.1 						"/>
						<polygon class="st9" points="104.9,3 8.5,99.4 0.4,99.4 104.9,-5 						"/>
						<polygon class="st9" points="8.5,-13 0.4,-13 -7.6,-5 -7.6,3 						"/>
						<polygon class="st9" points="24.6,-13 16.5,-13 -7.6,11.1 -7.6,19.1 						"/>
						<polygon class="st9" points="40.6,-13 32.6,-13 -7.6,27.1 -7.6,35.2 						"/>
						<polygon class="st9" points="56.7,-13 48.7,-13 -7.6,43.2 -7.6,51.2 						"/>
						<polygon class="st9" points="72.8,-13 64.7,-13 -7.6,59.3 -7.6,67.3 						"/>
						<polygon class="st9" points="88.8,-13 80.8,-13 -7.6,75.3 -7.6,83.4 						"/>
						<polygon class="st9" points="104.9,-13 96.9,-13 -7.6,91.4 -7.6,99.4 						"/>
					</g>
				</g>
				<g>
					<polygon class="st8" points="0.4,19.1 0.4,11.1 -7.6,19.1 -15.6,27.1 -15.6,35.2 -7.6,27.1 					"/>
					<polygon class="st8" points="0.4,51.2 0.4,43.2 -7.6,51.2 -15.6,59.3 -15.6,67.3 -7.6,59.3 					"/>
					<polygon class="st8" points="0.4,3 0.4,-5 -7.6,3 -15.6,11.1 -15.6,19.1 -7.6,11.1 					"/>
					<polygon class="st8" points="0.4,35.2 0.4,27.1 -7.6,35.2 -15.6,43.2 -15.6,51.2 -7.6,43.2 					"/>
					<polygon class="st8" points="0.4,67.3 0.4,59.3 -7.6,67.3 -15.6,75.3 -15.6,83.4 -7.6,75.3 					"/>
					<polygon class="st8" points="0.4,99.4 0.4,91.4 -7.6,99.4 -15.6,107.5 -15.6,115.5 -7.6,107.5 					"/>
					<polygon class="st8" points="0.4,83.4 0.4,75.3 -7.6,83.4 -15.6,91.4 -15.6,99.4 -7.6,91.4 					"/>
					<polygon class="st8" points="0.4,-13 0.4,-21.1 -7.6,-13 -15.6,-5 -15.6,3 -7.6,-5 					"/>
				</g>
			</g>
		</g>
	</g>
</g>
<g>
	<defs>
		<rect id="SVGID_9_" x="140" y="-140" width="100" height="100"/>
	</defs>
	<clipPath id="SVGID_10_">
		<use xlink:href="#SVGID_9_"  style="overflow:visible;"/>
	</clipPath>
	<g class="st14">
		<g>
			<defs>
				
					<rect id="SVGID_11_" x="-186" y="-237.1" transform="matrix(0.6991 -0.715 0.715 0.6991 111.6654 82.1106)" width="678.8" height="290.9"/>
			</defs>
			<clipPath id="SVGID_12_">
				<use xlink:href="#SVGID_11_"  style="overflow:visible;"/>
			</clipPath>
			<g class="st15">
				
					<rect x="102.6" y="-179.1" transform="matrix(0.6991 -0.715 0.715 0.6991 110.7446 137.5699)" class="st5" width="232.6" height="232.6"/>
				
					<rect x="102.6" y="-179.1" transform="matrix(0.6991 -0.715 0.715 0.6991 110.7446 137.5699)" class="st10" width="232.6" height="232.6"/>
				<polygon class="st8" points="137.5,12.5 137.4,8.6 137.4,8.6 137.4,6.6 137.3,0.8 137.3,-3.2 137.2,-7.1 137.2,-11 137.2,-11 
					137.1,-18.8 137.1,-22.7 137,-26.6 137,-30.6 137,-30.6 136.9,-32.5 136.9,-34.5 133,-34.4 133,-34.4 129.1,-34.4 129.1,-34.4 
					125.2,-34.3 125.2,-34.3 121.3,-34.3 117.4,-34.3 113.4,-34.2 113.4,-34.2 109.5,-34.2 109.5,-34.2 105.6,-34.1 105.6,-34.1 
					101.7,-34.1 97.8,-34 93.9,-34 93.9,-34 89.9,-34 89.9,-34 86,-33.9 86,-33.9 82.1,-33.9 137.5,20.3 137.5,16.4 				"/>
			</g>
			<g class="st15">
				
					<rect x="-60" y="-12.8" transform="matrix(0.6991 -0.715 0.715 0.6991 -57.0582 71.3463)" class="st5" width="232.6" height="232.6"/>
				
					<rect x="-60" y="-12.8" transform="matrix(0.6991 -0.715 0.715 0.6991 -57.0582 71.3463)" class="st10" width="232.6" height="232.6"/>
				<polygon class="st9" points="25,107.7 25,111.7 28.9,107.7 32.8,103.7 32.7,99.8 28.8,103.8 				"/>
				<polygon class="st9" points="24.9,99.9 24.9,103.8 28.8,99.9 32.7,95.9 32.6,92 28.8,95.9 				"/>
				<polygon class="st9" points="24.7,80.3 28.5,76.4 32.4,72.4 32.4,68.5 28.5,72.5 24.6,76.4 				"/>
				<polygon class="st9" points="32.2,56.8 32.2,52.8 28.3,56.8 24.4,60.8 24.5,64.7 28.4,60.7 				"/>
				<polygon class="st9" points="24.7,84.2 24.8,88.2 28.6,84.2 32.5,80.2 32.4,76.3 28.6,80.3 				"/>
				<polygon class="st9" points="24.8,92.1 24.8,96 28.7,92 32.6,88.1 32.5,84.2 28.7,88.1 				"/>
				<polygon class="st9" points="32.3,64.6 32.3,60.7 28.4,64.6 24.5,68.6 24.6,72.5 28.4,68.5 				"/>
				<polygon class="st9" points="32.1,48.9 32.1,45 28.2,49 24.4,52.9 24.4,56.8 28.3,52.9 				"/>
				<polygon class="st9" points="32,33.3 31.9,29.3 28.1,33.3 24.2,37.3 24.2,41.2 28.1,37.2 				"/>
				<polygon class="st9" points="32.1,41.1 32,37.2 28.1,41.1 24.3,45.1 24.3,49 28.2,45.1 				"/>
				<polygon class="st9" points="24,25.5 27.9,21.6 24,21.6 				"/>
				<polygon class="st9" points="24.1,29.4 24.1,33.4 28,29.4 31.9,25.4 31.8,21.5 28,25.5 				"/>
				<polygon class="st9" points="106.8,71.6 102.9,71.6 99,75.6 95.1,79.5 99,79.5 102.9,75.5 				"/>
				<polygon class="st9" points="99,71.7 95,71.7 91.2,75.7 87.3,79.6 91.2,79.6 95.1,75.6 				"/>
				<polygon class="st9" points="67.7,75.9 63.8,79.9 67.7,79.8 71.6,75.9 75.5,71.9 71.6,72 				"/>
				<polygon class="st9" points="59.8,72.1 55.9,72.2 52,76.1 48.2,80.1 52.1,80 55.9,76.1 				"/>
				<polygon class="st9" points="75.5,75.8 71.6,79.8 75.6,79.8 79.4,75.8 83.3,71.8 79.4,71.9 				"/>
				<polygon class="st9" points="91.1,71.8 87.2,71.8 83.3,75.8 79.5,79.7 83.4,79.7 87.3,75.7 				"/>
				<polygon class="st9" points="67.6,72 63.7,72.1 59.9,76 56,80 59.9,79.9 63.8,76 				"/>
				<polygon class="st9" points="52,72.2 48.1,72.2 44.2,76.2 40.3,80.2 44.2,80.1 48.1,76.2 				"/>
				<polygon class="st9" points="16.8,80.4 20.7,80.4 24.6,76.4 28.5,72.5 24.6,72.5 20.7,76.5 				"/>
				<polygon class="st9" points="1.2,80.6 5.1,80.6 9,76.6 12.8,72.6 8.9,72.7 5,76.6 				"/>
				<polygon class="st9" points="24.7,80.3 28.6,80.3 32.4,76.3 36.3,72.4 32.4,72.4 28.5,76.4 				"/>
				<polygon class="st9" points="40.3,76.2 44.2,72.3 40.2,72.3 36.4,76.3 32.5,80.2 36.4,80.2 				"/>
				<polygon class="st9" points="9,80.5 12.9,80.5 16.8,76.5 20.7,72.5 16.7,72.6 12.9,76.5 				"/>
				<polygon class="st9" points="-6.7,80.7 -2.7,80.6 1.1,76.7 5,72.7 1.1,72.8 -2.8,76.7 				"/>
				<polygon class="st8" points="99.6,130.4 138.3,90.8 138.3,86.9 95.7,130.4 				"/>
				<polygon class="st8" points="138.2,80.5 138.2,79.1 87.9,130.5 91.8,130.5 138.2,83 				"/>
				<polygon class="st8" points="87.3,75.7 83.4,79.7 83.4,83.6 87.3,79.6 91.2,75.7 				"/>
				<polygon class="st8" points="95.1,75.6 91.2,79.6 83.5,87.5 83.5,91.4 95.1,79.5 99,75.6 				"/>
				<polygon class="st8" points="102.9,75.5 99,79.5 83.6,95.3 83.6,99.2 103,79.5 106.8,75.5 				"/>
				<polygon class="st8" points="110.8,75.5 106.9,79.4 83.7,103.2 83.7,107.1 110.8,79.4 114.7,75.4 				"/>
				<polygon class="st8" points="118.6,75.4 114.7,79.3 83.7,111 83.8,114.9 118.6,79.3 122.5,75.3 				"/>
				<polygon class="st8" points="126.4,75.3 122.5,79.2 83.8,118.8 83.9,122.7 126.5,79.2 130.3,75.2 				"/>
				<polygon class="st8" points="138.2,75.1 134.2,75.2 130.4,79.1 83.9,126.7 84,130.6 134.3,79.1 				"/>
				<polygon class="st8" points="137.7,35.6 137.7,32.1 99,71.7 95.1,75.6 99,75.6 102.9,71.6 137.7,36 				"/>
				<polygon class="st8" points="91.2,75.7 95,71.7 137.6,28.2 137.6,24.2 91.1,71.8 87.3,75.7 				"/>
				<polygon class="st8" points="82.8,24.9 82.8,28.8 90.6,20.9 86.6,20.9 				"/>
				<polygon class="st8" points="82.9,32.7 82.9,36.6 98.4,20.8 94.5,20.8 				"/>
				<polygon class="st8" points="102.3,20.7 83,40.5 83,44.4 106.2,20.7 103,20.7 				"/>
				<polygon class="st8" points="83,48.4 83.1,52.3 114.1,20.6 110.1,20.6 				"/>
				<polygon class="st8" points="83.1,56.2 83.2,60.1 121.9,20.5 119.3,20.5 118,20.6 				"/>
				<polygon class="st8" points="83.2,64 83.3,67.9 129.7,20.4 125.8,20.5 				"/>
				<polygon class="st8" points="83.3,71.8 83.3,75.8 87.2,71.8 137.5,20.3 133.6,20.4 				"/>
				<polygon class="st8" points="98.4,20.8 98.4,20.8 103,20.7 104.3,20.7 				"/>
				<polygon class="st8" points="82.7,20.9 82.7,20.9 86.6,20.9 86.6,20.9 				"/>
				<polygon class="st8" points="90.6,20.9 90.6,20.9 94.5,20.8 94.5,20.8 				"/>
				<polygon class="st8" points="86.6,20.9 86.6,20.9 90.6,20.9 90.6,20.9 				"/>
				<polygon class="st8" points="94.5,20.8 94.5,20.8 98.4,20.8 98.4,20.8 				"/>
				<polygon class="st8" points="82.2,-29.9 82.2,-29.9 82.2,-26 82.2,-26 82.2,-22.1 82.2,-22.1 82.3,-18.2 82.3,-14.3 82.4,-10.4 
					82.4,-10.4 82.4,-6.5 82.4,-6.5 82.5,-2.5 82.5,-2.5 82.5,1.4 82.6,5.3 82.6,9.2 82.6,9.2 82.6,13.1 82.6,13.1 82.7,17 82.7,17 
					82.7,20.9 86.6,20.9 86.6,20.9 90.6,20.9 94.5,20.8 98.4,20.8 104.3,20.7 106.2,20.7 106.2,20.7 110.1,20.6 114.1,20.6 
					118,20.6 125.8,20.5 125.8,20.5 129.7,20.4 133.6,20.4 137.5,20.3 82.1,-33.9 				"/>
				<polygon class="st8" points="86.6,20.9 86.6,20.9 90.6,20.9 				"/>
				<polygon class="st8" points="20.1,21.7 22,21.6 20.1,21.6 				"/>
				<polygon class="st8" points="27.9,17.6 27.8,13.7 24,17.7 20.1,21.6 22,21.6 24,21.6 				"/>
				<polygon class="st8" points="27.8,9.8 27.7,5.9 23.9,9.9 12.3,21.7 16.2,21.7 23.9,13.8 				"/>
				<polygon class="st8" points="27.7,2 27.7,-1.9 23.8,2 4.4,21.8 8.3,21.8 23.8,5.9 				"/>
				<polygon class="st8" points="0.5,21.9 0.5,21.9 -3.4,21.9 				"/>
				<polygon class="st8" points="27.6,-5.8 27.6,-9.8 23.7,-5.8 -3.4,21.9 0.5,21.9 23.7,-1.9 				"/>
				<polygon class="st8" points="27.5,-13.7 27.5,-17.6 23.6,-13.6 -11.2,22 -7.3,22 23.7,-9.7 				"/>
				<polygon class="st8" points="23.6,-17.5 27.4,-21.5 27.4,-25.4 23.5,-21.5 -19.1,22.1 -17.1,22.1 -15.1,22 				"/>
				<polygon class="st8" points="23.5,-25.4 27.3,-29.3 27.3,-33.2 23.4,-29.3 -26.9,22.2 -23,22.1 				"/>
				<polygon class="st8" points="62.5,-33.6 58.6,-33.6 31.5,-5.9 27.7,-1.9 27.7,2 31.6,-2 				"/>
				<polygon class="st8" points="70.4,-33.7 66.5,-33.7 31.6,1.9 27.7,5.9 27.8,9.8 31.7,5.9 				"/>
				<polygon class="st8" points="78.2,-33.8 74.3,-33.8 31.7,9.8 27.8,13.7 27.9,17.6 31.7,13.7 				"/>
				<polygon class="st8" points="78.8,21 78.8,21 74.9,21 				"/>
				<polygon class="st8" points="82.6,13.1 74.9,21 78.8,21 82.7,17 				"/>
				<polygon class="st8" points="82.7,17 82.6,13.1 82.6,13.1 82.7,17 				"/>
				<polygon class="st8" points="82.6,5.3 67.1,21.1 71,21.1 82.6,9.2 				"/>
				<polygon class="st8" points="82.6,9.2 82.6,5.3 82.6,9.2 				"/>
				<polygon class="st8" points="59.2,21.2 63.2,21.2 63.2,21.2 59.2,21.2 				"/>
				<polygon class="st8" points="82.5,-2.5 59.2,21.2 63.2,21.2 82.5,1.4 				"/>
				<polygon class="st8" points="82.5,-2.5 82.5,-2.5 82.5,1.4 				"/>
				<polygon class="st8" points="82.4,-10.4 51.4,21.3 55.3,21.3 82.4,-6.5 				"/>
				<polygon class="st8" points="47.5,21.3 82.3,-14.3 82.3,-18.2 43.6,21.4 				"/>
				<polygon class="st8" points="39.7,21.4 39.7,21.4 35.7,21.5 				"/>
				<polygon class="st8" points="82.2,-26 35.7,21.5 39.7,21.4 82.2,-22.1 				"/>
				<polygon class="st8" points="82.1,-33.9 31.8,17.6 27.9,21.6 31.8,21.5 82.2,-29.9 				"/>
				<polygon class="st9" points="31.6,-2 27.7,2 23.8,5.9 23.9,9.9 27.7,5.9 31.6,1.9 				"/>
				<polygon class="st9" points="31.7,5.9 27.8,9.8 23.9,13.8 24,17.7 27.8,13.7 31.7,9.8 				"/>
				<polygon class="st9" points="27.9,17.6 24,21.6 27.9,21.6 31.8,17.6 31.7,13.7 				"/>
				<polygon class="st9" points="31.5,-9.8 27.6,-5.8 23.7,-1.9 23.8,2 27.7,-1.9 31.5,-5.9 				"/>
			</g>
			<g class="st15">
				
					<rect x="-226.3" y="-175.4" transform="matrix(0.6991 -0.715 0.715 0.6991 9.1655 -96.4565)" class="st5" width="232.6" height="232.6"/>
				
					<rect x="-226.3" y="-175.4" transform="matrix(0.6991 -0.715 0.715 0.6991 9.1655 -96.4565)" class="st10" width="232.6" height="232.6"/>
				<polygon class="st8" points="7.7,-33 3.8,-33 -27.2,-1.3 -27.1,2.6 				"/>
				<polygon class="st8" points="15.6,-33.1 11.6,-33.1 -27.1,6.5 -27,8.5 -27,10.4 				"/>
				<polygon class="st8" points="23.4,-33.2 19.5,-33.2 -27,14.3 -26.9,18.3 				"/>
			</g>
		</g>
	</g>
</g>
<g>
	<defs>
		<rect id="SVGID_15_" x="0" y="0" width="100" height="100"/>
	</defs>
	<clipPath id="SVGID_14_">
		<use xlink:href="#SVGID_15_"  style="overflow:visible;"/>
	</clipPath>
	<g class="st17">
		<polygon class="st23" points="33,-5.2 16.4,23.3 -0.2,-5.2 16.4,-33.7 		"/>
		<polygon class="st24" points="66.3,-5.2 49.6,23.3 33,-5.2 49.6,-33.7 		"/>
		<polygon class="st23" points="99.5,-5.2 82.9,23.3 66.3,-5.2 82.9,-33.7 		"/>
		<polygon class="st24" points="132.8,-5.2 116.2,23.3 99.5,-5.2 116.2,-33.7 		"/>
		<polygon class="st24" points="33,52 16.4,80.5 -0.2,52 16.4,23.5 		"/>
		<polygon class="st25" points="66.3,52 49.6,80.5 33,52 49.6,23.5 		"/>
		<polygon class="st24" points="99.5,52 82.9,80.5 66.3,52 82.9,23.5 		"/>
		<polygon class="st23" points="132.8,52 116.2,80.5 99.5,52 116.2,23.5 		"/>
		<polygon class="st23" points="33,108.9 16.4,137.4 -0.2,108.9 16.4,80.4 		"/>
		<polygon class="st24" points="66.3,108.9 49.6,137.4 33,108.9 49.6,80.4 		"/>
		<polygon class="st23" points="99.5,108.9 82.9,137.4 66.3,108.9 82.9,80.4 		"/>
		<polygon class="st24" points="132.8,108.9 116.2,137.4 99.5,108.9 116.2,80.4 		"/>
		<polygon class="st22" points="16.4,23.5 -0.2,52 -16.9,23.5 -0.2,-5 		"/>
		<polygon class="st22" points="49.6,23.5 33,52 16.4,23.5 33,-5 		"/>
		<polygon class="st22" points="82.9,23.5 66.3,52 49.6,23.5 66.3,-5 		"/>
		<polygon class="st22" points="116.2,23.5 99.5,52 82.9,23.5 99.5,-5 		"/>
		<polygon class="st22" points="16.4,80.5 -0.2,109 -16.9,80.5 -0.2,52 		"/>
		<polygon class="st22" points="49.6,80.5 33,109 16.4,80.5 33,52 		"/>
		<polygon class="st22" points="82.9,80.5 66.3,109 49.6,80.5 66.3,52 		"/>
		<polygon class="st22" points="116.2,80.5 99.5,109 82.9,80.5 99.5,52 		"/>
		<path class="st26" d="M249.2-61.8l-16.6-28.3l16.5-28.2l0.1-0.2l-0.1-0.2l0,0l-16.4-28.1l16.4-28.1L249-175l0.1-0.2l-0.6-0.3
			l-16.3,27.9L215.6-176L199-147.6L182.4-176l-16.6,28.4L149.2-176l-16.6,28.4L116-176l-16.6,28.4L82.8-176l-16.6,28.4L49.6-176
			L33-147.6L16.4-176l-16.6,28.4L-16.7-176l-16.6,28.4L-49.9-176l-16.6,28.4L-83.1-176l-16.6,28.4l-16.6-28.4l-16.7,28.5l-16.2-27.8
			l-0.6,0.3l16.5,28.2l-16.6,28.3l16.6,28.3l-16.6,28.3l16.6,28.3l-16.6,28.3l16.7,28.5l-16.7,28.5l16.6,28.3l-16.6,28.3l16.6,28.5
			l0,0.1l0,0l-16.6,28.4l16.6,28.3l-16.5,28.2l0.6,0.3l16.3-27.9l0,0.1l0,0l16.6,28.4l16.6-28.4l0,0l0,0l16.6,28.4l16.6-28.4l0,0
			l0,0l16.6,28.4l16.6-28.4l0,0l0,0l16.6,28.4l16.6-28.4l0,0l0,0l16.6,28.4L33,194.7l0,0l0,0l16.6,28.4l16.6-28.4l0,0l0,0l16.6,28.4
			l16.6-28.4l0,0l0,0l16.6,28.4l16.6-28.4l0,0l0,0l16.6,28.4l16.6-28.4l0,0l0,0l16.6,28.4l16.6-28.4l0,0l0,0l16.6,28.4l16.6-28.4
			l0,0l0,0l16.3,27.9l0.6-0.3l0-0.1l0,0L232.6,194l16.5-28.2l0.1-0.2l-0.1-0.2l0,0l-16.5-28.2l16.5-28.2l-0.1,0l0.1-0.1l0.1-0.2
			l-16.6-28.3l16.5-28.2l0.1-0.2l-0.1-0.2l0,0l-16.5-28.2l16.5-28.2l-0.1,0l0.1-0.1l0.1-0.2l-16.5-28.3l16.4-28.2l0,0l0,0
			L249.2-61.8z M232.2-34.2L232.2-34.2L216-61.8l16.2-27.7l0,0l0,0l16.2,27.7L232.2-34.2L232.2-34.2z M199,193.2L199,193.2
			l-16.2-27.6l16.2-27.7l16.2,27.7L199,193.2L199,193.2z M165.8,193.2L165.8,193.2l-16.2-27.6l16.2-27.7l16.2,27.7L165.8,193.2
			L165.8,193.2z M132.6,193.2L132.6,193.2l-16.2-27.6l16.2-27.7l16.2,27.7L132.6,193.2L132.6,193.2z M99.4,193.2L99.4,193.2
			l-16.2-27.6l16.2-27.7l16.2,27.7L99.4,193.2L99.4,193.2z M66.2,193.2L66.2,193.2L50,165.6l16.2-27.7l16.2,27.7L66.2,193.2
			L66.2,193.2z M33,193.2L33,193.2l-16.2-27.6L33,137.9l16.2,27.7L33,193.2L33,193.2z M-0.1,193.2L-0.1,193.2l-16.2-27.6l16.2-27.7
			l16.2,27.7L-0.1,193.2L-0.1,193.2z M-33.3,193.2L-33.3,193.2l-16.2-27.6l16.2-27.7l16.2,27.7L-33.3,193.2L-33.3,193.2z
			 M-66.5,193.2L-66.5,193.2l-16.2-27.6l16.2-27.7l16.2,27.7L-66.5,193.2L-66.5,193.2z M-99.7,193.2L-99.7,193.2l-16.2-27.6
			l16.2-27.7l16.2,27.7L-99.7,193.2L-99.7,193.2z M-99.7-146.1L-99.7-146.1l16.2,27.6l-16.2,27.7l0,0l0,0l-16.2-27.7L-99.7-146.1
			L-99.7-146.1z M-66.5-146.1L-66.5-146.1l16.2,27.6l-16.2,27.7l0,0l0,0l-16.2-27.7L-66.5-146.1L-66.5-146.1z M-33.3-146.1
			L-33.3-146.1l16.2,27.6l-16.2,27.7l0,0l0,0l-16.2-27.7L-33.3-146.1L-33.3-146.1z M-0.1-146.1L-0.1-146.1L16-118.5L-0.1-90.8l0,0
			l0,0l-16.2-27.7L-0.1-146.1L-0.1-146.1z M33-146.1L33-146.1l16.2,27.6L33.1-90.8l0,0l0,0l-16.2-27.7L33-146.1L33-146.1z
			 M66.2-146.1L66.2-146.1l16.2,27.6L66.3-90.8l0,0l0,0l-16.2-27.7L66.2-146.1L66.2-146.1z M99.4-146.1L99.4-146.1l16.2,27.6
			L99.5-90.8l0,0l0,0l-16.2-27.7L99.4-146.1L99.4-146.1z M132.6-146.1L132.6-146.1l16.2,27.6l-16.2,27.7l0,0l0,0l-16.2-27.7
			L132.6-146.1L132.6-146.1z M165.8-146.1L165.8-146.1l16.2,27.6l-16.2,27.7l0,0l0,0l-16.2-27.7L165.8-146.1L165.8-146.1z
			 M199-146.1L199-146.1l16.2,27.6L199-90.8l0,0l0,0l-16.2-27.7L199-146.1L199-146.1z M215.2,51.9l-16.2,27.7l0-0.1l0,0.1l-8.1-13.8
			l-8.1-13.9L199,24.2l8.1,13.9L215.2,51.9z M199-34.2L199-34.2l-16.2-27.6L199-89.4l0,0l0,0l16.2,27.7L199-34.2L199-34.2z
			 M-66.5-89.4L-66.5-89.4l16.2,27.6l-16.2,27.7l0-0.1l0,0.1l-16.2-27.7L-66.5-89.4L-66.5-89.4z M-33.3-89.4L-33.3-89.4l16.2,27.6
			l-16.2,27.7l0-0.1l0,0.1l-16.2-27.7L-33.3-89.4L-33.3-89.4z M-0.1-89.4L-0.1-89.4l16.2,27.6L-0.1-34.1l0-0.1l0,0.1l-16.2-27.7
			L-0.1-89.4L-0.1-89.4z M33-89.4L33-89.4l16.2,27.6L33.1-34.1l0-0.1l0,0.1L16.8-61.8L33-89.4L33-89.4z M66.2-89.4L66.2-89.4
			l16.2,27.6L66.3-34.1l0-0.1l0,0.1L50-61.8L66.2-89.4L66.2-89.4z M99.4-89.4L99.4-89.4l16.2,27.6L99.5-34.1l0-0.1l0,0.1L83.2-61.8
			L99.4-89.4L99.4-89.4z M132.6-89.4L132.6-89.4l16.2,27.6l-16.2,27.7l0-0.1l0,0.1l-16.2-27.7L132.6-89.4L132.6-89.4z M165.8-89.4
			L165.8-89.4L182-61.8l-16.2,27.7l0-0.1l0,0.1l-16.2-27.7L165.8-89.4L165.8-89.4z M182,51.9l-16.2,27.7l0-0.1l0,0.1l-8.1-13.8
			l-8.1-13.9l16.2-27.8l8.1,13.9L182,51.9z M165.4,80.3L149.2,108l-16.2-27.7l16.2-27.7l8.1,13.9L165.4,80.3z M33.1,79.6L33.1,79.6
			L33.1,79.6l-8.1-13.8l-8.1-13.9L24.9,38L33,24.2L41.2,38l8.1,13.9l-8.1,13.9L33.1,79.6z M58.1,65.8L50,51.9l16.2-27.8L74.3,38
			l8.1,13.9L66.3,79.6l0-0.1l0,0.1L58.1,65.8z M116,51.3L99.8,23.5L116-4.2l16.2,27.8l-5.8,9.8L116,51.3z M82.8,51.3L66.6,23.5
			L82.8-4.2l16.2,27.8l-5.8,9.8L82.8,51.3z M16.4-4.2l16.2,27.8L16.4,51.3L0.2,23.5L16.4-4.2z M33.4,23.5L49.6-4.2l16.2,27.8
			L54.6,42.8l-5,8.5L37.7,30.8L33.4,23.5z M148.8-5l-16.2,27.7L116.5-5l16.2-27.7L148.8-5z M115.6-5L99.4,22.7L83.3-5l16.2-27.7
			L115.6-5z M82.4-5L66.2,22.7L50.1-5l16.2-27.7L82.4-5z M49.2-5L33,22.7L16.9-5L33-32.7L49.2-5z M16-5L-0.1,22.7L-16.3-5l16.2-27.7
			L16-5z M-33.3-32.7L-17.2-5l-16.2,27.7L-49.5-5L-33.3-32.7z M83.2,51.9l16.2-27.8l8.1,13.9l8.1,13.9L99.5,79.6l0-0.1l0,0.1
			l-8.1-13.8L83.2,51.9z M116.4,51.9l16.2-27.8l8.1,13.9l8.1,13.9l-16.2,27.7l0-0.1l0,0.1l-8.1-13.8L116.4,51.9z M149.2,51.3
			L133,23.5l16.2-27.8l16.2,27.8l-5.8,9.8L149.2,51.3z M165.8-32.7L182-5l-16.2,27.7L149.7-5L165.8-32.7z M165.4-33.4L149.2-5.8
			l-16.2-27.7l16.2-27.7L165.4-33.4z M132.2-33.4L116-5.8L99.9-33.4L116-61.1L132.2-33.4z M99-33.4L82.8-5.8L66.7-33.4l16.2-27.7
			L99-33.4z M65.8-33.4L49.6-5.8L33.5-33.4l16.2-27.7L65.8-33.4z M32.6-33.4L16.4-5.8L0.3-33.4l16.2-27.7L32.6-33.4z M-0.6-33.4
			L-16.7-5.8l-16.2-27.7l16.2-27.7L-0.6-33.4z M-33.8-33.4L-49.9-5.8l-16.2-27.7l16.2-27.7L-33.8-33.4z M-16.7-4.2l16.2,27.8
			l-16.2,27.8L-33,23.5L-16.7-4.2z M-16.4,51.9L-8.3,38l8.1-13.9L8,38l8.1,13.9L8,65.8l-8.1,13.8l0-0.1l0,0.1l-8.1-13.8L-16.4,51.9z
			 M0.3,80.3l8.1-13.8l8.1-13.9l8.1,13.9l8.1,13.8L16.4,108L0.3,80.3z M33.5,80.3l8.1-13.8l8.1-13.8l16.2,27.7L49.6,108L33.5,80.3z
			 M66.7,80.3l16.2-27.7l8.1,13.9L99,80.3L82.8,108L66.7,80.3z M99.9,80.3L116,52.6l8.1,13.9l8.1,13.8L116,108L99.9,80.3z M-67-33.4
			L-83.1-5.8l-16.2-27.7l16.2-27.7L-67-33.4z M-66.5-32.7L-50.4-5l-16.2,27.7L-82.7-5L-66.5-32.7z M-16.7,52.6l8.1,13.9l8.1,13.8
			L-16.7,108l-16.2-27.7l8.1-13.8L-16.7,52.6z M-33.3,81l16.2,27.7l-16.2,27.7l-16.2-27.7L-33.3,81z M-0.1,81L16,108.7l-16.2,27.7
			l-16.2-27.7L-0.1,81z M33,81l16.2,27.7L33,136.4l-16.2-27.7L33,81z M66.2,81l16.2,27.7l-16.2,27.7l-16.2-27.7L66.2,81z M99.4,81
			l16.2,27.7l-16.2,27.7l-16.2-27.7L99.4,81z M132.6,81l16.2,27.7l-16.2,27.7l-16.2-27.7L132.6,81z M165.8,81l16.2,27.7l-16.2,27.7
			l-16.2-27.7L165.8,81z M182.4-5.8l-16.2-27.7l16.2-27.7l16.2,27.7L182.4-5.8z M-49.9-4.2l16.2,27.8l-16.2,27.8l-16.2-27.8
			L-49.9-4.2z M-49.6,51.9l8.1-13.9l8.1-13.9l8.1,13.9l8.1,13.9l-8.1,13.9l-8.1,13.8l0-0.1l0,0.1l-8.1-13.8L-49.6,51.9z
			 M-50.4,108.7l-16.2,27.7l-16.2-27.7L-66.5,81L-50.4,108.7z M182.4,51.3l-16.2-27.8l16.2-27.8l16.2,27.8l-5.8,9.8L182.4,51.3z
			 M182.4-62.4l-16.2-27.7l16.2-27.7l16.2,27.7L182.4-62.4z M149.2-62.4l-16.2-27.7l16.2-27.7l16.2,27.7L149.2-62.4z M116-62.4
			L99.9-90.1l16.2-27.7l16.2,27.7L116-62.4z M82.8-62.4L66.7-90.1l16.2-27.7L99-90.1L82.8-62.4z M49.6-62.4L33.5-90.1l16.2-27.7
			l16.2,27.7L49.6-62.4z M32.6-90.1L16.4-62.4L0.3-90.1l16.2-27.7L32.6-90.1z M-0.6-90.1l-16.2,27.7l-16.2-27.7l16.2-27.7L-0.6-90.1
			z M-33.8-90.1l-16.2,27.7l-16.2-27.7l16.2-27.7L-33.8-90.1z M-67-90.1l-16.2,27.7l-16.2-27.7l16.2-27.7L-67-90.1z M-49.9,52.6
			l8.1,13.9l8.1,13.8L-49.9,108l-16.2-27.7l8.1-13.8L-49.9,52.6z M-66.9,137.2l-16.2,27.8l-16.2-27.8l16.2-27.8L-66.9,137.2z
			 M-66.2,137.2l16.2-27.8l16.2,27.8l-16.2,27.8L-66.2,137.2z M-33,137.2l16.2-27.8l16.2,27.8l-16.2,27.8L-33,137.2z M0.2,137.2
			l16.2-27.8l16.2,27.8l-16.2,27.8L0.2,137.2z M33.4,137.2l16.2-27.8l16.2,27.8l-16.2,27.8L33.4,137.2z M66.6,137.2l16.2-27.8
			l16.2,27.8l-16.2,27.8L66.6,137.2z M99.8,137.2l16.2-27.8l16.2,27.8L116,164.9L99.8,137.2z M133,137.2l16.2-27.8l16.2,27.8
			l-16.2,27.8L133,137.2z M166.2,137.2l16.2-27.8l16.2,27.8l-16.2,27.8L166.2,137.2z M199,136.4l-16.2-27.7L199,81l16.2,27.7
			L199,136.4z M198.6,80.3L182.4,108l-16.2-27.7l16.2-27.7l8.1,13.9L198.6,80.3z M199,22.7L182.9-5L199-32.7L215.2-5L199,22.7z
			 M199.4-90.1l16.2-27.7l16.2,27.7l-16.2,27.7L199.4-90.1z M-99.7-89.4L-99.7-89.4l16.2,27.6l-16.2,27.7l0-0.1l0,0.1l-16.2-27.7
			L-99.7-89.4L-99.7-89.4z M-83.6-5l-16.2,27.7L-115.9-5l16.2-27.7L-83.6-5z M-83.1-4.2l16.2,27.8l-16.2,27.8l-16.2-27.8L-83.1-4.2z
			 M-82.8,51.9l8.1-13.9l8.1-13.9l8.1,13.9l8.1,13.9l-8.1,13.9l-8.1,13.8l0-0.1l0,0.1l-8.1-13.8L-82.8,51.9z M-100.2-90.1
			l-16.2,27.7l-16.2-27.7l16.2-27.7L-100.2-90.1z M-100.2-33.4l-16.2,27.7l-16.2-27.7l16.2-27.7L-100.2-33.4z M-83.1,52.6l8.1,13.9
			l8.1,13.8L-83.1,108l-16.2-27.7l8.1-13.8L-83.1,52.6z M-99.7,81l16.2,27.7l-16.2,27.7l-16.2-27.7L-99.7,81z M199.4,137.2
			l16.2-27.8l16.2,27.8l-16.2,27.8L199.4,137.2z M215.6,51.3l-16.2-27.8l16.2-27.8l16.2,27.8l-5.8,9.8L215.6,51.3z M215.6-5.8
			l-16.2-27.7l16.2-27.7l16.2,27.7L215.6-5.8z M232.2-90.9L232.2-90.9L216-118.5l16.1-27.6l0,0.1l0-0.1l16.1,27.6L232.2-90.9
			L232.2-90.9z M215.6-119.2l-16.1-27.6l16.1-27.6l16.1,27.6L215.6-119.2z M182.4-119.2l-16.1-27.6l16.1-27.6l16.1,27.6L182.4-119.2
			z M149.2-119.2l-16.1-27.6l16.1-27.6l16.1,27.6L149.2-119.2z M116-119.2l-16.1-27.6l16.1-27.6l16.1,27.6L116-119.2z M82.8-119.2
			l-16.1-27.6l16.1-27.6L99-146.9L82.8-119.2z M49.6-119.2l-16.1-27.6l16.1-27.6l16.1,27.6L49.6-119.2z M16.4-119.2L0.3-146.9
			l16.1-27.6l16.1,27.6L16.4-119.2z M-16.7-119.2l-16.1-27.6l16.1-27.6l16.1,27.6L-16.7-119.2z M-49.9-119.2l-16.1-27.6l16.1-27.6
			l16.1,27.6L-49.9-119.2z M-83.1-119.2l-16.1-27.6l16.1-27.6l16.1,27.6L-83.1-119.2z M-116.3-119.2l-16.1-27.6l16.1-27.6l16.1,27.6
			L-116.3-119.2z M-116.3-4.2l16.2,27.8l-16.2,27.8l-16.2-27.8L-116.3-4.2z M-115.9,51.9l8.1-13.9l8.1-13.9l8.1,13.9l8.1,13.9
			l-8.1,13.9l-8.1,13.8l0-0.1l0,0.1l-8.1-13.8L-115.9,51.9z M-100.1,137.2l-16.2,27.8l-16.2-27.8l16.2-27.8L-100.1,137.2z
			 M-100.2,194l-16.2,27.7l-16.2-27.7l16.2-27.7L-100.2,194z M-83.1,166.3L-67,194l-16.2,27.7L-99.3,194L-83.1,166.3z M-49.9,166.3
			l16.2,27.7l-16.2,27.7L-66.1,194L-49.9,166.3z M-16.7,166.3L-0.6,194l-16.2,27.7L-32.9,194L-16.7,166.3z M16.4,166.3L32.6,194
			l-16.2,27.7L0.3,194L16.4,166.3z M49.6,166.3L65.8,194l-16.2,27.7L33.5,194L49.6,166.3z M82.8,166.3L99,194l-16.2,27.7L66.7,194
			L82.8,166.3z M116,166.3l16.2,27.7L116,221.7L99.9,194L116,166.3z M149.2,166.3l16.2,27.7l-16.2,27.7L133.1,194L149.2,166.3z
			 M182.4,166.3l16.2,27.7l-16.2,27.7L166.3,194L182.4,166.3z M215.6,166.3l16.2,27.7l-16.2,27.7L199.4,194L215.6,166.3z
			 M232.2,193.2L232.2,193.2L216,165.6l16.2-27.7l16.2,27.7L232.2,193.2L232.2,193.2z M232.2,81l16.2,27.7l-16.2,27.7L216,108.7
			L232.2,81z M231.8,80.3L215.6,108l-16.2-27.7l16.2-27.7l8.1,13.9L231.8,80.3z M232.2-32.7L248.4-5l-16.2,27.7L216.1-5L232.2-32.7z
			 M-116.3,52.6l8.1,13.9l8.1,13.8l-16.2,27.7l-16.2-27.7l8.1-13.8L-116.3,52.6z M248.4,51.9l-16.2,27.7l0-0.1l0,0.1l-8.1-13.8
			L216,51.9l16.2-27.8l3.9,6.7L248.4,51.9z M-149.1-118.5l16.2-27.7l0,0.1l0-0.1l16.1,27.6l-16.2,27.7l0,0l0,0.1L-149.1-118.5z
			 M-149.1-61.8l16.2-27.7l0,0.1l0,0l16.2,27.7l-16.2,27.7l0-0.1l0,0.1L-149.1-61.8z M-133-32.8L-116.8-5l-16.2,27.7l-16.2-27.8
			L-133-32.8z M-149.1,51.9l16.2-27.8l8.1,13.9l8.1,13.9l-8.1,13.9l-8.1,13.8l0-0.1l0,0.1L-149.1,51.9z M-133,80.9l16.2,27.8
			l-16.2,27.7l-16.2-27.8L-133,80.9z M-149.1,165.6l16.2-27.8l16.2,27.7l-16.2,27.7l0,0l0,0.1L-149.1,165.6z"/>
	</g>
</g>
</svg>
