<svg enable-background="new 0 0 100 100" viewBox="0 0 100 100" xmlns="http://www.w3.org/2000/svg" xmlns:xlink="http://www.w3.org/1999/xlink"><clipPath id="a"><path d="m840-280h100v100h-100z"/></clipPath><clipPath id="b"><path d="m372.5-286.7h937.7v401.9h-937.7z" transform="matrix(.6711 -.7413 .7413 .6711 340.2969 595.5312)"/></clipPath><clipPath id="c"><path d="m0-140h100v100h-100z"/></clipPath><clipPath id="d"><path d="m-71.3-838.9h595v1388.2h-595z"/></clipPath><clipPath id="e"><path d="m140-140h100v100h-100z"/></clipPath><clipPath id="f"><path d="m-186-237.1h678.8v290.9h-678.8z" transform="matrix(.6991 -.715 .715 .6991 111.6654 82.1106)"/></clipPath><clipPath id="g"><path d="m0 0h100v100h-100z"/></clipPath><g clip-path="url(#a)"><g clip-path="url(#b)"><path d="m91.4-239.5h625.1v625.1h-625.1z" fill="none" transform="matrix(.6711 -.7413 .7413 .6711 78.693 323.4769)"/><path d="m91.4-239.5h625.1v625.1h-625.1z" fill="#1e0d12" transform="matrix(.6711 -.7413 .7413 .6711 78.693 323.4769)"/><g fill="#e62f34"><path d="m25.5 91.8-4.2.3-11.5.5z"/><path d="m64.9 89.9-7.8.4z"/><path d="m64.9 89.9 7.9-.4z"/><path d="m57.1 90.3-6.3.3-25.3 1.2z"/><path d="m1.9 93-14.9.8h-.9z"/><path d="m57.1 90.3-31.6 1.5-15.7.8-7.9.4-15.8.8-23.6 1.2 115.8 104.9-.4-7.9-.4-7.9-.4-7.9-.4-7.9-.3-7.8-.4-7.9-.4-7.9-.4-7.9-.4-7.9-.4-7.9-.4-7.9-.4-7.8-.4-7.9-.4-7.9-7.9.4z"/><path d="m172.9 195.2 7.9-.4-107.6-97.4.4 7.9z"/><path d="m73.6 105.3-.4-7.9z"/><path d="m96.5 88.3-7.9.4z"/><path d="m187.5 170.7-91-82.4-7.9.4 99.3 89.9z"/><path d="m80.7 89.1-7.9.4z"/><path d="m188.3 186.5-107.6-97.4-7.9.4 115.9 104.9z"/><path d="m68.5 2.8-.4-7.9-8.2-7.5-3.8 4.1z"/><path d="m69.3 18.5-.4-7.8-16.5-15-3.8 4.1z"/><path d="m70.1 34.3-.4-7.9-24.8-22.5-3.8 4.2z"/><path d="m70.9 50.1-.4-7.9-33.1-30-3.8 4.2z"/><path d="m71.7 65.8-.4-7.8-41.4-37.5-3.8 4.1z"/><path d="m72 73.7-49.6-44.9-3.8 4.1 53.8 48.7z"/><path d="m9.8 92.6-24.9-22.5-3.7 4.2 20.7 18.7z"/><path d="m9.8 92.6-7.9.4z"/><path d="m21.3 92.1 4.2-.3-33.1-29.9-3.7 4.1 28.9 26.2z"/><path d="m25.5 91.8-4.2.3z"/><path d="m41.3 91.1-41.4-37.5-3.7 4.1 37.2 33.8z"/><path d="m50.8 90.6 6.3-.3-49.7-45-3.7 4.2 45.5 41.2z"/><path d="m57.1 90.3-6.3.3z"/><path d="m72.8 89.5-57.9-52.5-3.7 4.2 53.7 48.7z"/><path d="m72.8 89.5-7.9.4z"/></g></g></g><g clip-path="url(#c)"><g clip-path="url(#d)"><path d="m-361.1-141.6h466v466h-466z" fill="none"/><path d="m-361.1-141.6h466v466h-466z" fill="#fff"/><g fill="#e62f34"><path d="m104.9 91.4v8h-8z"/><path d="m104.9 83.4-16.1 16h-8l24.1-24.1z"/><path d="m104.9 67.3-32.1 32.1h-8.1l40.2-40.1z"/><path d="m104.9 51.2-48.2 48.2h-8l56.2-56.2z"/><path d="m104.9 35.2-64.3 64.2h-8l72.3-72.3z"/><path d="m104.9 19.1-80.3 80.3h-8.1l88.4-88.3z"/><path d="m104.9 3-96.4 96.4h-8.1l104.5-104.4z"/><path d="m8.5-13h-8.1l-8 8v8z"/><path d="m24.6-13h-8.1l-24.1 24.1v8z"/><path d="m40.6-13h-8l-40.2 40.1v8.1z"/><path d="m56.7-13h-8l-56.3 56.2v8z"/><path d="m72.8-13h-8.1l-72.3 72.3v8z"/><path d="m88.8-13h-8l-88.4 88.3v8.1z"/><path d="m104.9-13h-8l-104.5 104.4v8z"/></g><g fill="#1e0d12"><path d="m.4 19.1v-8l-8 8-8 8v8.1l8-8.1z"/><path d="m.4 51.2v-8l-8 8-8 8.1v8l8-8z"/><path d="m.4 3v-8l-8 8-8 8.1v8l8-8z"/><path d="m.4 35.2v-8.1l-8 8.1-8 8v8l8-8z"/><path d="m.4 67.3v-8l-8 8-8 8v8.1l8-8.1z"/><path d="m.4 99.4v-8l-8 8-8 8.1v8l8-8z"/><path d="m.4 83.4v-8.1l-8 8.1-8 8v8l8-8z"/><path d="m.4-13v-8.1l-8 8.1-8 8v8l8-8z"/></g></g></g><g clip-path="url(#e)"><g clip-path="url(#f)"><path d="m102.6-179.1h232.6v232.6h-232.6z" fill="none" transform="matrix(.6991 -.715 .715 .6991 110.7446 137.5699)"/><path d="m102.6-179.1h232.6v232.6h-232.6z" fill="#25793d" transform="matrix(.6991 -.715 .715 .6991 110.7446 137.5699)"/><path d="m137.5 12.5-.1-3.9v-2l-.1-5.8v-4l-.1-3.9v-3.9l-.1-7.8v-3.9l-.1-3.9v-4l-.1-1.9v-2l-3.9.1h-3.9l-3.9.1h-3.9-3.9l-4 .1h-3.9l-3.9.1h-3.9l-3.9.1h-3.9-4l-3.9.1h-3.9l55.4 54.2v-3.9z" fill="#1e0d12"/></g><g clip-path="url(#f)"><path d="m-60-12.8h232.6v232.6h-232.6z" fill="none" transform="matrix(.6991 -.715 .715 .6991 -57.0582 71.3463)"/><path d="m-60-12.8h232.6v232.6h-232.6z" fill="#25793d" transform="matrix(.6991 -.715 .715 .6991 -57.0582 71.3463)"/><g fill="#e62f34"><path d="m25 107.7v4l3.9-4 3.9-4-.1-3.9-3.9 4z"/><path d="m24.9 99.9v3.9l3.9-3.9 3.9-4-.1-3.9-3.8 3.9z"/><path d="m24.7 80.3 3.8-3.9 3.9-4v-3.9l-3.9 4-3.9 3.9z"/><path d="m32.2 56.8v-4l-3.9 4-3.9 4 .1 3.9 3.9-4z"/><path d="m24.7 84.2.1 4 3.8-4 3.9-4-.1-3.9-3.8 4z"/><path d="m24.8 92.1v3.9l3.9-4 3.9-3.9-.1-3.9-3.8 3.9z"/><path d="m32.3 64.6v-3.9l-3.9 3.9-3.9 4 .1 3.9 3.8-4z"/><path d="m32.1 48.9v-3.9l-3.9 4-3.8 3.9v3.9l3.9-3.9z"/><path d="m32 33.3-.1-4-3.8 4-3.9 4v3.9l3.9-4z"/><path d="m32.1 41.1-.1-3.9-3.9 3.9-3.8 4v3.9l3.9-3.9z"/><path d="m24 25.5 3.9-3.9h-3.9z"/><path d="m24.1 29.4v4l3.9-4 3.9-4-.1-3.9-3.8 4z"/><path d="m106.8 71.6h-3.9l-3.9 4-3.9 3.9h3.9l3.9-4z"/><path d="m99 71.7h-4l-3.8 4-3.9 3.9h3.9l3.9-4z"/><path d="m67.7 75.9-3.9 4 3.9-.1 3.9-3.9 3.9-4-3.9.1z"/><path d="m59.8 72.1-3.9.1-3.9 3.9-3.8 4 3.9-.1 3.8-3.9z"/><path d="m75.5 75.8-3.9 4h4l3.8-4 3.9-4-3.9.1z"/><path d="m91.1 71.8h-3.9l-3.9 4-3.8 3.9h3.9l3.9-4z"/><path d="m67.6 72-3.9.1-3.8 3.9-3.9 4 3.9-.1 3.9-3.9z"/><path d="m52 72.2h-3.9l-3.9 4-3.9 4 3.9-.1 3.9-3.9z"/><path d="m16.8 80.4h3.9l3.9-4 3.9-3.9h-3.9l-3.9 4z"/><path d="m1.2 80.6h3.9l3.9-4 3.8-4-3.9.1-3.9 3.9z"/><path d="m24.7 80.3h3.9l3.8-4 3.9-3.9h-3.9l-3.9 4z"/><path d="m40.3 76.2 3.9-3.9h-4l-3.8 4-3.9 3.9h3.9z"/><path d="m9 80.5h3.9l3.9-4 3.9-4-4 .1-3.8 3.9z"/><path d="m-6.7 80.7 4-.1 3.8-3.9 3.9-4-3.9.1-3.9 3.9z"/></g><g fill="#1e0d12"><path d="m99.6 130.4 38.7-39.6v-3.9l-42.6 43.5z"/><path d="m138.2 80.5v-1.4l-50.3 51.4h3.9l46.4-47.5z"/><path d="m87.3 75.7-3.9 4v3.9l3.9-4 3.9-3.9z"/><path d="m95.1 75.6-3.9 4-7.7 7.9v3.9l11.6-11.9 3.9-3.9z"/><path d="m102.9 75.5-3.9 4-15.4 15.8v3.9l19.4-19.7 3.8-4z"/><path d="m110.8 75.5-3.9 3.9-23.2 23.8v3.9l27.1-27.7 3.9-4z"/><path d="m118.6 75.4-3.9 3.9-31 31.7.1 3.9 34.8-35.6 3.9-4z"/><path d="m126.4 75.3-3.9 3.9-38.7 39.6.1 3.9 42.6-43.5 3.8-4z"/><path d="m138.2 75.1-4 .1-3.8 3.9-46.5 47.6.1 3.9 50.3-51.5z"/><path d="m137.7 35.6v-3.5l-38.7 39.6-3.9 3.9h3.9l3.9-4 34.8-35.6z"/><path d="m91.2 75.7 3.8-4 42.6-43.5v-4l-46.5 47.6-3.8 3.9z"/><path d="m82.8 24.9v3.9l7.8-7.9h-4z"/><path d="m82.9 32.7v3.9l15.5-15.8h-3.9z"/><path d="m102.3 20.7-19.3 19.8v3.9l23.2-23.7h-3.2z"/><path d="m83 48.4.1 3.9 31-31.7h-4z"/><path d="m83.1 56.2.1 3.9 38.7-39.6h-2.6l-1.3.1z"/><path d="m83.2 64 .1 3.9 46.4-47.5-3.9.1z"/><path d="m83.3 71.8v4l3.9-4 50.3-51.5-3.9.1z"/><path d="m98.4 20.8 4.6-.1h1.3z"/><path d="m82.7 20.9h3.9z"/><path d="m90.6 20.9 3.9-.1z"/><path d="m86.6 20.9h4z"/><path d="m94.5 20.8h3.9z"/><path d="m82.2-29.9v3.9 3.9l.1 3.9v3.9l.1 3.9v3.9l.1 4v3.9l.1 3.9v3.9 3.9l.1 3.9v3.9h3.9 4l3.9-.1h3.9l5.9-.1h1.9l3.9-.1h4 3.9l7.8-.1 3.9-.1h3.9l3.9-.1-55.4-54.2z"/><path d="m86.6 20.9h4z"/><path d="m20.1 21.7 1.9-.1h-1.9z"/><path d="m27.9 17.6-.1-3.9-3.8 4-3.9 3.9h1.9 2z"/><path d="m27.8 9.8-.1-3.9-3.8 4-11.6 11.8h3.9l7.7-7.9z"/><path d="m27.7 2v-3.9l-3.9 3.9-19.4 19.8h3.9l15.5-15.9z"/><path d="m.5 21.9h-3.9z"/><path d="m27.6-5.8v-4l-3.9 4-27.1 27.7h3.9l23.2-23.8z"/><path d="m27.5-13.7v-3.9l-3.9 4-34.8 35.6h3.9l31-31.7z"/><path d="m23.6-17.5 3.8-4v-3.9l-3.9 3.9-42.6 43.6h2l2-.1z"/><path d="m23.5-25.4 3.8-3.9v-3.9l-3.9 3.9-50.3 51.5 3.9-.1z"/><path d="m62.5-33.6h-3.9l-27.1 27.7-3.8 4v3.9l3.9-4z"/><path d="m70.4-33.7h-3.9l-34.9 35.6-3.9 4 .1 3.9 3.9-3.9z"/><path d="m78.2-33.8h-3.9l-42.6 43.6-3.9 3.9.1 3.9 3.8-3.9z"/><path d="m78.8 21h-3.9z"/><path d="m82.6 13.1-7.7 7.9h3.9l3.9-4z"/><path d="m82.7 17-.1-3.9z"/><path d="m82.6 5.3-15.5 15.8h3.9l11.6-11.9z"/><path d="m82.6 9.2v-3.9z"/><path d="m59.2 21.2h4z"/><path d="m82.5-2.5-23.3 23.7h4l19.3-19.8z"/><path d="m82.5-2.5v3.9z"/><path d="m82.4-10.4-31 31.7h3.9l27.1-27.8z"/><path d="m47.5 21.3 34.8-35.6v-3.9l-38.7 39.6z"/><path d="m39.7 21.4-4 .1z"/><path d="m82.2-26-46.5 47.5 4-.1 42.5-43.5z"/><path d="m82.1-33.9-50.3 51.5-3.9 4 3.9-.1 50.4-51.4z"/></g><path d="m31.6-2-3.9 4-3.9 3.9.1 4 3.8-4 3.9-4z" fill="#e62f34"/><path d="m31.7 5.9-3.9 3.9-3.9 4 .1 3.9 3.8-4 3.9-3.9z" fill="#e62f34"/><path d="m27.9 17.6-3.9 4h3.9l3.9-4-.1-3.9z" fill="#e62f34"/><path d="m31.5-9.8-3.9 4-3.9 3.9.1 3.9 3.9-3.9 3.8-4z" fill="#e62f34"/></g><g clip-path="url(#f)"><path d="m-226.3-175.4h232.6v232.6h-232.6z" fill="none" transform="matrix(.6991 -.715 .715 .6991 9.1655 -96.4565)"/><path d="m-226.3-175.4h232.6v232.6h-232.6z" fill="#25793d" transform="matrix(.6991 -.715 .715 .6991 9.1655 -96.4565)"/><g fill="#1e0d12"><path d="m7.7-33h-3.9l-31 31.7.1 3.9z"/><path d="m15.6-33.1h-4l-38.7 39.6.1 2v1.9z"/><path d="m23.4-33.2h-3.9l-46.5 47.5.1 4z"/></g></g></g><g clip-path="url(#g)"><path d="m33-5.2-16.6 28.5-16.6-28.5 16.6-28.5z" fill="#da2128"/><path d="m66.3-5.2-16.7 28.5-16.6-28.5 16.6-28.5z" fill="#00a14b"/><path d="m99.5-5.2-16.6 28.5-16.6-28.5 16.6-28.5z" fill="#da2128"/><path d="m132.8-5.2-16.6 28.5-16.7-28.5 16.7-28.5z" fill="#00a14b"/><path d="m33 52-16.6 28.5-16.6-28.5 16.6-28.5z" fill="#00a14b"/><path d="m66.3 52-16.7 28.5-16.6-28.5 16.6-28.5z" fill="#96171a"/><path d="m99.5 52-16.6 28.5-16.6-28.5 16.6-28.5z" fill="#00a14b"/><path d="m132.8 52-16.6 28.5-16.7-28.5 16.7-28.5z" fill="#da2128"/><path d="m33 108.9-16.6 28.5-16.6-28.5 16.6-28.5z" fill="#da2128"/><path d="m66.3 108.9-16.7 28.5-16.6-28.5 16.6-28.5z" fill="#00a14b"/><path d="m99.5 108.9-16.6 28.5-16.6-28.5 16.6-28.5z" fill="#da2128"/><path d="m132.8 108.9-16.6 28.5-16.7-28.5 16.7-28.5z" fill="#00a14b"/><g fill="#97cb59"><path d="m16.4 23.5-16.6 28.5-16.7-28.5 16.7-28.5z"/><path d="m49.6 23.5-16.6 28.5-16.6-28.5 16.6-28.5z"/><path d="m82.9 23.5-16.6 28.5-16.7-28.5 16.7-28.5z"/><path d="m116.2 23.5-16.7 28.5-16.6-28.5 16.6-28.5z"/><path d="m16.4 80.5-16.6 28.5-16.7-28.5 16.7-28.5z"/><path d="m49.6 80.5-16.6 28.5-16.6-28.5 16.6-28.5z"/><path d="m82.9 80.5-16.6 28.5-16.7-28.5 16.7-28.5z"/><path d="m116.2 80.5-16.7 28.5-16.6-28.5 16.6-28.5z"/></g><path d="m249.2-61.8-16.6-28.3 16.5-28.2.1-.2-.1-.2-16.4-28.1 16.4-28.1-.1-.1.1-.2-.6-.3-16.3 27.9-16.6-28.4-16.6 28.4-16.6-28.4-16.6 28.4-16.6-28.4-16.6 28.4-16.6-28.4-16.6 28.4-16.6-28.4-16.6 28.4-16.6-28.4-16.6 28.4-16.6-28.4-16.6 28.4-16.5-28.4-16.6 28.4-16.6-28.4-16.6 28.4-16.6-28.4-16.6 28.4-16.6-28.4-16.7 28.5-16.2-27.8-.6.3 16.5 28.2-16.6 28.3 16.6 28.3-16.6 28.3 16.6 28.3-16.6 28.3 16.7 28.5-16.7 28.5 16.6 28.3-16.6 28.3 16.6 28.5v.1l-16.6 28.4 16.6 28.3-16.5 28.2.6.3 16.3-27.9v.1l16.6 28.4 16.6-28.4 16.6 28.4 16.6-28.4 16.6 28.4 16.6-28.4 16.6 28.4 16.6-28.4 16.6 28.4 16.5-28 16.6 28.4 16.6-28.4 16.6 28.4 16.6-28.4 16.6 28.4 16.6-28.4 16.6 28.4 16.6-28.4 16.6 28.4 16.6-28.4 16.6 28.4 16.6-28.4 16.3 27.9.6-.3v-.1l-16.5-28.2 16.5-28.2.1-.2-.1-.2-16.5-28.2 16.5-28.2h-.1l.1-.1.1-.2-16.6-28.3 16.5-28.2.1-.2-.1-.2-16.5-28.2 16.5-28.2h-.1l.1-.1.1-.2-16.5-28.3 16.4-28.2zm-17 27.6-16.2-27.6 16.2-27.7 16.2 27.7zm-33.2 227.4-16.2-27.6 16.2-27.7 16.2 27.7zm-33.2 0-16.2-27.6 16.2-27.7 16.2 27.7zm-33.2 0-16.2-27.6 16.2-27.7 16.2 27.7zm-33.2 0-16.2-27.6 16.2-27.7 16.2 27.7zm-33.2 0-16.2-27.6 16.2-27.7 16.2 27.7zm-33.2 0-16.2-27.6 16.2-27.7 16.2 27.7zm-33.1 0-16.2-27.6 16.2-27.7 16.2 27.7zm-33.2 0-16.2-27.6 16.2-27.7 16.2 27.7zm-33.2 0-16.2-27.6 16.2-27.7 16.2 27.7zm-33.2 0-16.2-27.6 16.2-27.7 16.2 27.7zm0-339.3 16.2 27.6-16.2 27.7-16.2-27.7zm33.2 0 16.2 27.6-16.2 27.7-16.2-27.7zm33.2 0 16.2 27.6-16.2 27.7-16.2-27.7zm33.2 0 16.1 27.6-16.1 27.7-16.2-27.7zm33.1 0 16.2 27.6-16.1 27.7-16.2-27.7zm33.2 0 16.2 27.6-16.1 27.7-16.2-27.7zm33.2 0 16.2 27.6-16.1 27.7-16.2-27.7zm33.2 0 16.2 27.6-16.2 27.7-16.2-27.7zm33.2 0 16.2 27.6-16.2 27.7-16.2-27.7zm33.2 0 16.2 27.6-16.2 27.7-16.2-27.7zm16.2 198-16.2 27.7v-.1.1l-8.1-13.8-8.1-13.9 16.2-27.7 8.1 13.9zm-16.2-86.1-16.2-27.6 16.2-27.6 16.2 27.7zm-265.5-55.2 16.2 27.6-16.2 27.7v-.1.1l-16.2-27.7zm33.2 0 16.2 27.6-16.2 27.7v-.1.1l-16.2-27.7zm33.2 0 16.2 27.6-16.2 27.7v-.1.1l-16.2-27.7zm33.1 0 16.2 27.6-16.1 27.7v-.1.1l-16.3-27.7zm33.2 0 16.2 27.6-16.1 27.7v-.1.1l-16.3-27.7zm33.2 0 16.2 27.6-16.1 27.7v-.1.1l-16.3-27.7zm33.2 0 16.2 27.6-16.2 27.7v-.1.1l-16.2-27.7zm33.2 0 16.2 27.6-16.2 27.7v-.1.1l-16.2-27.7zm16.2 141.3-16.2 27.7v-.1.1l-8.1-13.8-8.1-13.9 16.2-27.8 8.1 13.9zm-16.6 28.4-16.2 27.7-16.2-27.7 16.2-27.7 8.1 13.9zm-132.3-.7-8.1-13.8-8.1-13.9 8-13.9 8.1-13.8 8.2 13.8 8.1 13.9-8.1 13.9zm25-13.8-8.1-13.9 16.2-27.8 8.1 13.9 8.1 13.9-16.1 27.7v-.1.1zm57.9-14.5-16.2-27.8 16.2-27.7 16.2 27.8-5.8 9.8zm-33.2 0-16.2-27.8 16.2-27.7 16.2 27.8-5.8 9.8zm-66.4-55.5 16.2 27.8-16.2 27.7-16.2-27.8zm17 27.7 16.2-27.7 16.2 27.8-11.2 19.2-5 8.5-11.9-20.5zm115.4-28.5-16.2 27.7-16.1-27.7 16.2-27.7zm-33.2 0-16.2 27.7-16.1-27.7 16.2-27.7zm-33.2 0-16.2 27.7-16.1-27.7 16.2-27.7zm-33.2 0-16.2 27.7-16.1-27.7 16.1-27.7zm-33.2 0-16.1 27.7-16.2-27.7 16.2-27.7zm-49.3-27.7 16.1 27.7-16.2 27.7-16.1-27.7zm116.5 84.6 16.2-27.8 8.1 13.9 8.1 13.9-16.1 27.7v-.1.1l-8.1-13.8zm33.2 0 16.2-27.8 8.1 13.9 8.1 13.9-16.2 27.7v-.1.1l-8.1-13.8zm32.8-.6-16.2-27.8 16.2-27.8 16.2 27.8-5.8 9.8zm16.6-84 16.2 27.7-16.2 27.7-16.1-27.7zm-.4-.7-16.2 27.6-16.2-27.7 16.2-27.7zm-33.2 0-16.2 27.6-16.1-27.6 16.1-27.7zm-33.2 0-16.2 27.6-16.1-27.6 16.2-27.7zm-33.2 0-16.2 27.6-16.1-27.6 16.2-27.7zm-33.2 0-16.2 27.6-16.1-27.6 16.2-27.7zm-33.2 0-16.1 27.6-16.2-27.7 16.2-27.7zm-33.2 0-16.1 27.6-16.2-27.7 16.2-27.7zm17.1 29.2 16.2 27.8-16.2 27.8-16.3-27.9zm.3 56.1 8.1-13.9 8.1-13.9 8.2 13.9 8.1 13.9-8.1 13.9-8.1 13.8v-.1.1l-8.1-13.8zm16.7 28.4 8.1-13.8 8.1-13.9 8.1 13.9 8.1 13.8-16.3 27.7zm33.2 0 8.1-13.8 8.1-13.8 16.2 27.7-16.3 27.6zm33.2 0 16.2-27.7 8.1 13.9 8 13.8-16.2 27.7zm33.2 0 16.1-27.7 8.1 13.9 8.1 13.8-16.2 27.7zm-166.9-113.7-16.1 27.6-16.2-27.7 16.2-27.7zm.5.7 16.1 27.7-16.2 27.7-16.1-27.7zm49.8 85.3 8.1 13.9 8.1 13.8-16.2 27.7-16.2-27.7 8.1-13.8zm-16.6 28.4 16.2 27.7-16.2 27.7-16.2-27.7zm33.2 0 16.1 27.7-16.2 27.7-16.2-27.7zm33.1 0 16.2 27.7-16.2 27.7-16.2-27.7zm33.2 0 16.2 27.7-16.2 27.7-16.2-27.7zm33.2 0 16.2 27.7-16.2 27.7-16.2-27.7zm33.2 0 16.2 27.7-16.2 27.7-16.2-27.7zm33.2 0 16.2 27.7-16.2 27.7-16.2-27.7zm16.6-86.8-16.2-27.7 16.2-27.7 16.2 27.7zm-232.3 1.6 16.2 27.8-16.2 27.8-16.2-27.8zm.3 56.1 8.1-13.9 8.1-13.9 8.1 13.9 8.1 13.9-8.1 13.9-8.1 13.8v-.1.1l-8.1-13.8zm-.8 56.8-16.2 27.7-16.2-27.7 16.3-27.7zm232.8-57.4-16.2-27.8 16.2-27.8 16.2 27.8-5.8 9.8zm0-113.7-16.2-27.7 16.2-27.7 16.2 27.7zm-33.2 0-16.2-27.7 16.2-27.7 16.2 27.7zm-33.2 0-16.1-27.7 16.2-27.7 16.2 27.7zm-33.2 0-16.1-27.7 16.2-27.7 16.1 27.7zm-33.2 0-16.1-27.7 16.2-27.7 16.2 27.7zm-17-27.7-16.2 27.7-16.1-27.7 16.2-27.7zm-33.2 0-16.2 27.7-16.2-27.7 16.2-27.7zm-33.2 0-16.2 27.7-16.2-27.7 16.2-27.7zm-33.2 0-16.2 27.7-16.2-27.7 16.2-27.7zm17.1 142.7 8.1 13.9 8.1 13.8-16.2 27.7-16.2-27.7 8.1-13.8zm-17 84.6-16.2 27.8-16.2-27.8 16.2-27.8zm.7 0 16.2-27.8 16.2 27.8-16.2 27.8zm33.2 0 16.2-27.8 16.2 27.8-16.2 27.8zm33.2 0 16.2-27.8 16.2 27.8-16.2 27.8zm33.2 0 16.2-27.8 16.2 27.8-16.2 27.8zm33.2 0 16.2-27.8 16.2 27.8-16.2 27.8zm33.2 0 16.2-27.8 16.2 27.8-16.2 27.7zm33.2 0 16.2-27.8 16.2 27.8-16.2 27.8zm33.2 0 16.2-27.8 16.2 27.8-16.2 27.8zm32.8-.8-16.2-27.7 16.2-27.7 16.2 27.7zm-.4-56.1-16.2 27.7-16.2-27.7 16.2-27.7 8.1 13.9zm.4-57.6-16.1-27.7 16.1-27.7 16.2 27.7zm.4-112.8 16.2-27.7 16.2 27.7-16.2 27.7zm-299.1.7 16.2 27.6-16.2 27.7v-.1.1l-16.2-27.7zm16.1 84.4-16.2 27.7-16.1-27.7 16.2-27.7zm.5.8 16.2 27.8-16.2 27.8-16.2-27.8zm.3 56.1 8.1-13.9 8.1-13.9 8.1 13.9 8.1 13.9-8.1 13.9-8.1 13.8v-.1.1l-8.1-13.8zm-17.4-142-16.2 27.7-16.2-27.7 16.2-27.7zm0 56.7-16.2 27.7-16.2-27.7 16.2-27.7zm17.1 86 8.1 13.9 8.1 13.8-16.2 27.7-16.2-27.7 8.1-13.8zm-16.6 28.4 16.2 27.7-16.2 27.7-16.2-27.7zm299.1 56.2 16.2-27.8 16.2 27.8-16.2 27.8zm16.2-85.9-16.2-27.8 16.2-27.8 16.2 27.8-5.8 9.8zm0-57.1-16.2-27.7 16.2-27.7 16.2 27.7zm16.6-85.1-16.2-27.6 16.1-27.6v.1-.1l16.1 27.6zm-16.6-28.3-16.1-27.6 16.1-27.6 16.1 27.6zm-33.2 0-16.1-27.6 16.1-27.6 16.1 27.6zm-33.2 0-16.1-27.6 16.1-27.6 16.1 27.6zm-33.2 0-16.1-27.6 16.1-27.6 16.1 27.6zm-33.2 0-16.1-27.6 16.1-27.6 16.2 27.5zm-33.2 0-16.1-27.6 16.1-27.6 16.1 27.6zm-33.2 0-16.1-27.7 16.1-27.6 16.1 27.6zm-33.1 0-16.1-27.6 16.1-27.6 16.1 27.6zm-33.2 0-16.1-27.6 16.1-27.6 16.1 27.6zm-33.2 0-16.1-27.6 16.1-27.6 16.1 27.6zm-33.2 0-16.1-27.6 16.1-27.6 16.1 27.6zm0 115 16.2 27.8-16.2 27.8-16.2-27.8zm.4 56.1 8.1-13.9 8.1-13.9 8.1 13.9 8.1 13.9-8.1 13.9-8.1 13.8v-.1.1l-8.1-13.8zm15.8 85.3-16.2 27.8-16.2-27.8 16.2-27.8zm-.1 56.8-16.2 27.7-16.2-27.7 16.2-27.7zm17.1-27.7 16.1 27.7-16.2 27.7-16.1-27.7zm33.2 0 16.2 27.7-16.2 27.7-16.2-27.7zm33.2 0 16.1 27.7-16.2 27.7-16.1-27.7zm33.1 0 16.2 27.7-16.2 27.7-16.1-27.7zm33.2 0 16.2 27.7-16.2 27.7-16.1-27.7zm33.2 0 16.2 27.7-16.2 27.7-16.1-27.7zm33.2 0 16.2 27.7-16.2 27.7-16.1-27.7zm33.2 0 16.2 27.7-16.2 27.7-16.1-27.7zm33.2 0 16.2 27.7-16.2 27.7-16.1-27.7zm33.2 0 16.2 27.7-16.2 27.7-16.2-27.7zm16.6 26.9-16.2-27.6 16.2-27.7 16.2 27.7zm0-112.2 16.2 27.7-16.2 27.7-16.2-27.7zm-.4-.7-16.2 27.7-16.2-27.7 16.2-27.7 8.1 13.9zm.4-113 16.2 27.7-16.2 27.7-16.1-27.7zm-348.5 85.3 8.1 13.9 8.1 13.8-16.2 27.7-16.2-27.7 8.1-13.8zm364.7-.7-16.2 27.7v-.1.1l-8.1-13.8-8.1-13.9 16.2-27.8 3.9 6.7zm-397.5-170.4 16.2-27.7v.1-.1l16.1 27.6-16.2 27.7v.1zm0 56.7 16.2-27.7v.1l16.2 27.7-16.2 27.7v-.1.1zm16.1 29 16.2 27.8-16.2 27.7-16.2-27.8zm-16.1 84.7 16.2-27.8 8.1 13.9 8.1 13.9-8.1 13.9-8.1 13.8v-.1.1zm16.1 29 16.2 27.8-16.2 27.7-16.2-27.8zm-16.1 84.7 16.2-27.8 16.2 27.7-16.2 27.7v.1z" fill="#d1e39b"/></g></svg>