<?xml version="1.0" encoding="utf-8"?>
<!-- Generator: Adobe Illustrator 22.1.0, SVG Export Plug-In . SVG Version: 6.00 Build 0)  -->
<svg version="1.1" id="Layer_1" xmlns="http://www.w3.org/2000/svg" xmlns:xlink="http://www.w3.org/1999/xlink" x="0px" y="0px"
	 viewBox="0 0 100 100" style="enable-background:new 0 0 100 100;" xml:space="preserve">
<style type="text/css">
	.st0{fill:#BE1E2D;}
	.st1{fill:#00B0BB;}
	.st2{fill:#63C4AF;}
	.st3{fill:#EAEAEA;}
	.st4{fill:#413E34;}
	.st5{fill:none;}
	.st6{clip-path:url(#SVGID_2_);}
	.st7{clip-path:url(#SVGID_4_);}
	.st8{fill:#1E0D12;}
	.st9{fill:#E62F34;}
	.st10{fill:#25793D;}
	.st11{clip-path:url(#SVGID_6_);}
	.st12{clip-path:url(#SVGID_8_);}
	.st13{fill:#FFFFFF;}
	.st14{clip-path:url(#SVGID_10_);}
	.st15{clip-path:url(#SVGID_12_);}
	.st16{fill:#96BF4D;}
	.st17{clip-path:url(#SVGID_14_);}
	.st18{fill-rule:evenodd;clip-rule:evenodd;fill:#FFFFFF;}
	.st19{fill:#C92927;}
	.st20{fill:#253748;}
	.st21{clip-path:url(#SVGID_16_);}
	.st22{fill:#97CB59;}
	.st23{fill:#DA2128;}
	.st24{fill:#00A14B;}
	.st25{fill:#96171A;}
	.st26{fill:#D1E39B;}
	.st27{fill:#4FBBBB;}
	.st28{fill:#37343F;}
	.st29{fill:#077A64;}
	.st30{fill:#F4EED4;}
	.st31{fill:#012E47;}
	.st32{fill:#BE1C42;}
	.st33{fill:#008E9F;}
	.st34{fill:#CD4134;}
	.st35{clip-path:url(#SVGID_18_);}
	.st36{clip-path:url(#SVGID_20_);}
	.st37{fill:#EE2424;}
	.st38{fill:#67BC45;}
	.st39{clip-path:url(#SVGID_22_);}
	.st40{clip-path:url(#SVGID_24_);}
	.st41{fill:#004A54;}
	.st42{fill:#D93128;}
	.st43{fill:#401B23;}
	.st44{fill:#EE2D40;}
	.st45{fill:#F1EBC9;}
	.st46{fill-rule:evenodd;clip-rule:evenodd;fill:#C92927;}
	.st47{fill-rule:evenodd;clip-rule:evenodd;fill:#96BF4D;}
	.st48{fill:#BD3026;}
	.st49{opacity:0.4;fill:#CD4134;}
	.st50{fill:#E6B448;}
	.st51{fill:#E21F26;}
	.st52{fill:#A82123;}
	.st53{fill:#383A3A;}
	.st54{fill:#F17B22;}
	.st55{fill:#F1F0DC;}
	.st56{fill:#56AE78;}
	.st57{fill:#EE262E;}
	.st58{fill:#C47229;}
	.st59{fill:#FEC010;}
	.st60{fill:#C0343E;}
	.st61{fill:url(#SVGID_25_);}
	.st62{fill:#659DAA;}
	.st63{fill:#C9A784;}
	.st64{fill:#DDCFB5;}
	.st65{fill:#D2A886;}
	.st66{fill:#9B3227;}
	.st67{opacity:0.39;fill:#FFFFFF;}
	.st68{fill:#E5E5E5;}
	.st69{fill:#202945;}
	.st70{fill:none;stroke:#ACA300;stroke-miterlimit:10;}
	.st71{fill:none;stroke:#ACA300;stroke-miterlimit:10;stroke-dasharray:2.0083,2.0083;}
	.st72{fill:#ACA300;}
</style>
<g>
	<defs>
		<rect id="SVGID_1_" x="700" y="-280" width="100" height="100"/>
	</defs>
	<clipPath id="SVGID_2_">
		<use xlink:href="#SVGID_1_"  style="overflow:visible;"/>
	</clipPath>
	<g class="st6">
		<g>
			<defs>
				
					<rect id="SVGID_3_" x="232.5" y="-286.7" transform="matrix(0.6711 -0.7413 0.7413 0.6711 294.2572 491.7455)" width="937.7" height="401.9"/>
			</defs>
			<clipPath id="SVGID_4_">
				<use xlink:href="#SVGID_3_"  style="overflow:visible;"/>
			</clipPath>
			<g class="st7">
				
					<rect x="-48.6" y="-239.5" transform="matrix(0.6711 -0.7413 0.7413 0.6711 32.6532 219.6912)" class="st5" width="625.1" height="625.1"/>
				
					<rect x="-48.6" y="-239.5" transform="matrix(0.6711 -0.7413 0.7413 0.6711 32.6532 219.6912)" class="st8" width="625.1" height="625.1"/>
				<polygon class="st9" points="44,99.8 143.3,189.7 151.2,189.3 43.6,91.9 				"/>
				<polygon class="st9" points="98.4,81.3 90.5,81.7 98.4,81.3 				"/>
				<polygon class="st9" points="156.3,133.7 98.4,81.3 90.5,81.7 156.7,141.6 				"/>
				<polygon class="st9" points="82.6,82.1 82.6,82 74.7,82.4 74.7,82.4 				"/>
				<polygon class="st9" points="74.7,82.4 157.5,157.4 157.1,149.5 82.6,82.1 				"/>
				<polygon class="st9" points="66.8,82.8 66.8,82.8 59,83.2 59,83.2 				"/>
				<polygon class="st9" points="59,83.2 158.3,173.1 157.9,165.2 66.8,82.8 				"/>
				<polygon class="st9" points="51.1,83.6 43.2,84 43.2,84 51.1,83.6 				"/>
				<polygon class="st9" points="43.2,84 159.1,188.9 158.7,181 51.1,83.6 43.2,84 43.2,84 43.2,84 				"/>
				<polygon class="st10" points="150.4,15.5 100.8,-29.5 96.6,-29.3 92.9,-29.1 150.8,23.3 				"/>
				<polygon class="st10" points="151.2,31.2 85,-28.7 81.9,-28.6 77.1,-28.3 151.6,39.1 				"/>
				<polygon class="st10" points="152.4,54.9 152,47 69.2,-27.9 63.2,-27.6 61.4,-27.5 				"/>
				<polygon class="st10" points="153.2,70.6 152.8,62.8 53.5,-27.1 46.2,-26.8 45.6,-26.8 				"/>
				<polygon class="st10" points="59,83.2 42.4,68.2 42.8,76.1 51.1,83.6 				"/>
				<polygon class="st10" points="74.7,82.4 41.6,52.5 42,60.4 66.8,82.8 				"/>
				<polygon class="st10" points="90.5,81.7 40.9,36.7 41.2,44.6 82.6,82 				"/>
				<polygon class="st10" points="106.3,80.9 40.1,20.9 40.5,28.8 98.4,81.3 				"/>
				<polygon class="st10" points="122,80.1 39.3,5.2 39.7,13.1 114.1,80.5 				"/>
				<polygon class="st10" points="137.8,79.3 38.5,-10.6 38.9,-2.7 129.9,79.7 				"/>
				<polygon class="st10" points="153.6,78.5 37.7,-26.4 38.1,-18.5 145.7,78.9 				"/>
				<polygon class="st10" points="106.3,80.9 98.4,81.3 98.4,81.3 				"/>
				<polygon class="st10" points="156.3,133.7 155.9,125.8 106.3,80.9 98.4,81.3 				"/>
				<polygon class="st10" points="90.5,81.7 82.6,82 82.6,82.1 				"/>
				<polygon class="st10" points="157.1,149.5 156.7,141.6 90.5,81.7 82.6,82.1 				"/>
				<polygon class="st10" points="74.7,82.4 74.7,82.4 66.8,82.8 66.8,82.8 				"/>
				<polygon class="st10" points="66.8,82.8 157.9,165.2 157.5,157.4 74.7,82.4 				"/>
				<polygon class="st10" points="59,83.2 51.1,83.6 51.1,83.6 59,83.2 				"/>
				<polygon class="st10" points="59,83.2 51.1,83.6 158.7,181 158.3,173.1 				"/>
				<polygon class="st10" points="44.4,107.7 135.4,190.1 143.3,189.7 44,99.8 				"/>
				<polygon class="st10" points="151.2,189.3 159.1,188.9 43.2,84 43.6,91.9 				"/>
				<polygon class="st9" points="43.6,91.9 44,99.8 44,99.8 44,99.8 44,99.8 43.6,91.9 				"/>
				<polygon class="st9" points="43.2,84 43.2,84 43.2,84 43.2,84 				"/>
				<polygon class="st10" points="44.4,107.7 44.4,107.7 44,99.8 44,99.8 44.4,107.7 44.4,107.7 				"/>
				<polygon class="st10" points="43.6,91.9 43.6,91.9 43.2,84 43.2,84 43.6,91.9 43.6,91.9 				"/>
				<polygon class="st9" points="32.9,195.2 40.8,194.8 -66.8,97.4 -66.4,105.3 				"/>
				<polygon class="st9" points="35.3,84.4 27.4,84.8 27.4,84.8 35.3,84.4 				"/>
				<polygon class="st9" points="44,99.8 43.6,91.9 43.6,91.9 44,99.8 				"/>
				<polygon class="st9" points="43.6,91.9 43.6,91.9 43.6,91.9 43.6,91.9 				"/>
				<polygon class="st9" points="43.6,91.9 43.6,91.9 35.3,84.4 27.4,84.8 44,99.8 				"/>
				<polygon class="st9" points="43.6,91.9 43.6,91.9 44,99.8 44,99.8 				"/>
				<polygon class="st9" points="43.6,91.9 43.6,91.9 44,99.8 44,99.8 				"/>
				<polygon class="st9" points="43.6,91.9 43.6,91.9 43.6,91.9 43.6,91.9 				"/>
				<polygon class="st9" points="43.6,91.9 43.6,91.9 43.6,91.9 43.6,91.9 				"/>
				<polygon class="st9" points="19.5,85.2 11.7,85.6 19.5,85.2 				"/>
				<polygon class="st9" points="44.4,107.7 44.4,107.7 19.5,85.2 11.7,85.6 44.8,115.5 				"/>
				<polygon class="st9" points="3.8,86 -4.1,86.4 -4.1,86.4 3.8,86 				"/>
				<polygon class="st9" points="45.2,123.4 45.2,123.4 3.8,86 -4.1,86.4 45.5,131.3 				"/>
				<polygon class="st9" points="45.9,139.2 45.9,139.2 -12,86.8 -19.9,87.1 46.3,147.1 				"/>
				<polygon class="st9" points="46.7,155 46.7,155 -27.8,87.5 -35.6,87.9 47.1,162.8 				"/>
				<polygon class="st9" points="47.5,170.7 47.5,170.7 -43.5,88.3 -51.4,88.7 47.9,178.6 				"/>
				<polygon class="st9" points="48.3,186.5 -59.3,89.1 -67.2,89.5 48.7,194.4 48.3,186.5 				"/>
			</g>
		</g>
	</g>
</g>
<g>
	<defs>
		<rect id="SVGID_5_" x="-140" y="-140" width="100" height="100"/>
	</defs>
	<clipPath id="SVGID_6_">
		<use xlink:href="#SVGID_5_"  style="overflow:visible;"/>
	</clipPath>
	<g class="st11">
		<g>
			<defs>
				<rect id="SVGID_7_" x="-211.3" y="-838.9" width="595" height="1388.2"/>
			</defs>
			<clipPath id="SVGID_8_">
				<use xlink:href="#SVGID_7_"  style="overflow:visible;"/>
			</clipPath>
			<g class="st12">
				<rect x="-35.1" y="-141.6" class="st5" width="466" height="466"/>
				<rect x="-35.1" y="-141.6" class="st13" width="466" height="466"/>
				<rect x="-35.1" y="-13" class="st9" width="112.5" height="112.5"/>
				<g>
					<polygon class="st9" points="93.4,-13 85.4,-13 77.4,-5 77.4,3 					"/>
					<polygon class="st9" points="93.4,19.1 93.4,11.1 85.4,19.1 77.4,27.1 77.4,35.2 85.4,27.1 					"/>
					<polygon class="st9" points="93.4,3 93.4,-5 85.4,3 77.4,11.1 77.4,19.1 85.4,11.1 					"/>
					<polygon class="st9" points="93.4,35.2 93.4,27.1 85.4,35.2 77.4,43.2 77.4,51.2 85.4,43.2 					"/>
					<polygon class="st9" points="93.4,83.4 93.4,75.3 85.4,83.4 77.4,91.4 77.4,99.4 85.4,91.4 					"/>
					<polygon class="st9" points="93.4,67.3 93.4,59.3 85.4,67.3 77.4,75.3 77.4,83.4 85.4,75.3 					"/>
					<polygon class="st9" points="93.4,51.2 93.4,43.2 85.4,51.2 77.4,59.3 77.4,67.3 85.4,59.3 					"/>
					<polygon class="st9" points="93.4,99.4 93.4,91.4 85.4,99.4 					"/>
				</g>
				<g>
					<polygon class="st10" points="93.4,107.5 93.4,99.4 101.5,99.4 					"/>
					<polygon class="st10" points="93.4,115.5 109.5,99.4 117.5,99.4 93.4,123.5 					"/>
					<polygon class="st10" points="93.4,131.6 125.6,99.4 133.6,99.4 93.4,139.6 					"/>
					<polygon class="st10" points="93.4,147.6 141.6,99.4 149.7,99.4 93.4,155.7 					"/>
					<polygon class="st10" points="93.4,163.7 157.7,99.4 165.7,99.4 93.4,171.7 					"/>
					<polygon class="st10" points="93.4,179.8 173.8,99.4 181.8,99.4 93.4,187.8 					"/>
					<polygon class="st10" points="93.4,195.8 189.8,99.4 197.9,99.4 93.4,203.9 					"/>
					<polygon class="st10" points="93.4,211.9 101.5,211.9 205.9,107.5 205.9,99.4 					"/>
				</g>
				<g>
					<polygon class="st10" points="93.4,3 109.5,-13 117.5,-13 93.4,11.1 					"/>
					<polygon class="st10" points="93.4,19.1 125.6,-13 133.6,-13 93.4,27.1 					"/>
					<polygon class="st10" points="93.4,35.2 141.6,-13 149.7,-13 93.4,43.2 					"/>
					<polygon class="st10" points="93.4,51.2 157.7,-13 165.7,-13 93.4,59.3 					"/>
					<polygon class="st10" points="93.4,67.3 173.8,-13 181.8,-13 93.4,75.3 					"/>
					<polygon class="st10" points="93.4,83.4 189.8,-13 197.9,-13 93.4,91.4 					"/>
					<polygon class="st10" points="93.4,99.4 101.5,99.4 205.9,-5 205.9,-13 					"/>
				</g>
				<g>
					<polygon class="st9" points="-35.1,131.6 -3,99.4 5.1,99.4 -35.1,139.6 					"/>
					<polygon class="st9" points="-35.1,147.6 13.1,99.4 21.1,99.4 -35.1,155.7 					"/>
					<polygon class="st9" points="-35.1,163.7 29.2,99.4 37.2,99.4 -35.1,171.7 					"/>
					<polygon class="st9" points="-35.1,179.8 45.2,99.4 53.3,99.4 -35.1,187.8 					"/>
					<polygon class="st9" points="-35.1,195.8 61.3,99.4 69.3,99.4 -35.1,203.9 					"/>
					<polygon class="st9" points="-35.1,211.9 -27.1,211.9 77.4,107.5 77.4,99.4 					"/>
				</g>
				<g>
					<polygon class="st9" points="109.5,-13 101.5,-13 93.4,-5 93.4,3 					"/>
					<polygon class="st9" points="125.6,-13 117.5,-13 93.4,11.1 93.4,19.1 					"/>
					<polygon class="st9" points="141.6,-13 133.6,-13 93.4,27.1 93.4,35.2 					"/>
					<polygon class="st9" points="157.7,-13 149.7,-13 93.4,43.2 93.4,51.2 					"/>
					<polygon class="st9" points="173.8,-13 165.7,-13 93.4,59.3 93.4,67.3 					"/>
					<polygon class="st9" points="189.8,-13 181.8,-13 93.4,75.3 93.4,83.4 					"/>
					<polygon class="st9" points="205.9,-13 197.9,-13 93.4,91.4 93.4,99.4 					"/>
				</g>
			</g>
		</g>
	</g>
</g>
<g>
	<defs>
		<rect id="SVGID_9_" x="0" y="-140" width="100" height="100"/>
	</defs>
	<clipPath id="SVGID_10_">
		<use xlink:href="#SVGID_9_"  style="overflow:visible;"/>
	</clipPath>
	<g class="st14">
		<g>
			<defs>
				
					<rect id="SVGID_11_" x="-326" y="-237.1" transform="matrix(0.6991 -0.715 0.715 0.6991 69.5447 -17.9877)" width="678.8" height="290.9"/>
			</defs>
			<clipPath id="SVGID_12_">
				<use xlink:href="#SVGID_11_"  style="overflow:visible;"/>
			</clipPath>
			<g class="st15">
				
					<rect x="-37.4" y="-179.1" transform="matrix(0.6991 -0.715 0.715 0.6991 68.6238 37.4717)" class="st5" width="232.6" height="232.6"/>
				
					<rect x="-37.4" y="-179.1" transform="matrix(0.6991 -0.715 0.715 0.6991 68.6238 37.4717)" class="st10" width="232.6" height="232.6"/>
				<polygon class="st8" points="32.2,-34.9 28.2,-34.8 -2.7,-3.2 -2.7,0.8 				"/>
				<polygon class="st8" points="40,-35 36.1,-34.9 -2.6,4.7 -2.6,6.1 -2.6,8.6 				"/>
				<polygon class="st8" points="47.8,-35 43.9,-35 -2.5,12.5 -2.5,16.4 				"/>
				<polygon class="st8" points="52.3,15.8 52.3,11.9 48.4,15.8 44.5,19.8 48.4,19.8 				"/>
				<polygon class="st8" points="52.2,8 52.2,4.1 48.3,8 36.7,19.9 37.6,19.9 40.6,19.9 48.4,11.9 				"/>
				<polygon class="st8" points="48.3,4.1 52.1,0.1 52.1,-3.8 48.2,0.2 28.9,20 32,19.9 32.8,19.9 				"/>
				<polygon class="st8" points="52,-7.7 52,-11.6 48.1,-7.6 21,20.1 24.9,20 48.2,-3.7 				"/>
				<polygon class="st8" points="17.1,20.1 48.1,-11.6 52,-15.5 51.9,-19.4 48,-15.5 13.2,20.2 				"/>
				<polygon class="st8" points="51.9,-23.3 51.8,-27.3 48,-23.3 5.4,20.2 9.3,20.2 48,-19.4 				"/>
				<polygon class="st8" points="47.9,-27.2 51.8,-31.2 51.7,-35.1 47.9,-31.1 -2.5,20.3 1.5,20.3 				"/>
				<polygon class="st8" points="52.1,0.1 56,-3.8 87,-35.5 83.1,-35.4 56,-7.7 52.1,-3.8 				"/>
				<polygon class="st8" points="52.2,8 56.1,4 94.8,-35.6 90.9,-35.5 56,0.1 52.2,4.1 				"/>
				<polygon class="st8" points="52.3,15.8 56.2,11.8 102.6,-35.7 98.7,-35.6 56.1,7.9 52.3,11.9 				"/>
				<polygon class="st8" points="101.8,19.2 103.2,19.1 107.1,15.2 107.1,11.3 99.3,19.2 				"/>
				<polygon class="st8" points="95.4,19.2 107,7.4 107,3.4 91.5,19.3 				"/>
				<polygon class="st8" points="106.9,-4.4 83.7,19.4 87.6,19.3 106.9,-0.5 				"/>
				<polygon class="st8" points="79.8,19.4 106.9,-8.3 106.8,-12.2 75.8,19.5 				"/>
				<polygon class="st8" points="68,19.5 70.2,19.5 71.9,19.5 106.8,-16.1 106.8,-17.4 106.7,-20 				"/>
				<polygon class="st8" points="64.1,19.6 106.7,-24 106.7,-25.6 106.6,-27.9 60.2,19.6 				"/>
				<polygon class="st8" points="56.3,19.7 106.6,-31.8 106.5,-35.7 56.2,15.8 52.4,19.7 				"/>
				<polygon class="st9" points="48.3,4.1 48.3,8 52.2,4.1 56,0.1 56,-3.8 52.1,0.1 				"/>
				<polygon class="st9" points="48.4,11.9 48.4,15.8 52.3,11.9 56.1,7.9 56.1,4 52.2,8 				"/>
				<polygon class="st9" points="48.4,19.8 51.1,19.7 52.4,19.7 56.2,15.8 56.2,11.8 52.3,15.8 				"/>
				<polygon class="st9" points="48.2,-3.7 48.2,0.2 52.1,-3.8 56,-7.7 55.9,-11.6 52,-7.7 				"/>
				<polygon class="st9" points="53,74.5 56.8,70.6 56.8,66.7 52.9,70.6 51,72.6 				"/>
				<polygon class="st9" points="56.7,54.9 56.6,51 52.7,55 48.9,58.9 48.9,62.8 52.8,58.9 				"/>
				<polygon class="st9" points="54.9,76.5 56.9,78.4 56.9,74.5 				"/>
				<polygon class="st9" points="56.8,62.7 56.7,58.8 52.8,62.8 49,66.7 49,70.7 52.9,66.7 				"/>
				<polygon class="st9" points="56.6,47.1 56.5,43.2 52.7,47.1 48.8,51.1 48.8,55 52.7,51 				"/>
				<polygon class="st9" points="56.4,31.4 56.4,27.5 52.5,31.5 48.6,35.4 48.7,39.3 52.5,35.4 				"/>
				<polygon class="st9" points="56.5,39.3 56.4,35.3 52.6,39.3 48.7,43.3 48.7,47.2 52.6,43.2 				"/>
				<polygon class="st9" points="51.1,19.7 52.4,19.7 52.4,19.7 				"/>
				<polygon class="st9" points="48.4,19.8 48.5,23.7 52.4,19.7 51.1,19.7 				"/>
				<polygon class="st9" points="52.4,23.6 48.5,27.6 48.6,31.5 52.4,27.5 56.3,23.6 56.3,19.7 56.3,19.7 				"/>
				<polygon class="st9" points="92.1,74.1 88.2,78.1 92.2,78 96,74 99.9,70.1 96,70.1 				"/>
				<polygon class="st9" points="84.2,70.3 80.3,70.3 76.5,74.3 72.6,78.2 76.5,78.2 80.4,74.2 				"/>
				<polygon class="st9" points="99.9,74 96.1,78 100,77.9 103.9,74 107.7,70 103.8,70 				"/>
				<polygon class="st9" points="92.1,70.2 88.2,70.2 84.3,74.2 80.4,78.1 84.3,78.1 88.2,74.1 				"/>
				<polygon class="st9" points="76.4,70.4 72.5,70.4 68.6,74.4 64.8,78.3 68.7,78.3 72.5,74.3 				"/>
				<polygon class="st9" points="52.9,70.6 49,70.7 51,72.6 				"/>
				<polygon class="st9" points="54.9,76.5 56.9,74.5 60.8,70.5 56.8,70.6 53,74.5 				"/>
				<polygon class="st9" points="64.7,74.4 68.6,70.4 64.7,70.5 60.8,74.4 56.9,78.4 60.8,78.4 				"/>
			</g>
			<g class="st15">
				
					<rect x="-200" y="-12.8" transform="matrix(0.6991 -0.715 0.715 0.6991 -99.1789 -28.752)" class="st5" width="232.6" height="232.6"/>
				
					<rect x="-200" y="-12.8" transform="matrix(0.6991 -0.715 0.715 0.6991 -99.1789 -28.752)" class="st10" width="232.6" height="232.6"/>
				<polygon class="st9" points="49.4,105.9 49.4,109.8 53.3,105.9 57.2,101.9 57.1,98 53.3,101.9 				"/>
				<polygon class="st9" points="49.3,98.1 49.4,102 53.2,98 57.1,94.1 57.1,90.1 53.2,94.1 				"/>
				<polygon class="st9" points="51,72.6 49.1,74.6 49.1,78.5 53,74.5 				"/>
				<polygon class="st9" points="53,78.4 49.1,82.4 49.2,86.3 53.1,82.4 56.9,78.4 54.9,76.5 				"/>
				<polygon class="st9" points="49.3,94.1 53.1,90.2 57,86.2 57,82.3 53.1,86.3 49.2,90.2 				"/>
				<polygon class="st9" points="49,70.7 45.1,74.6 41.3,78.6 45.2,78.5 49.1,74.6 51,72.6 				"/>
				<polygon class="st9" points="25.6,78.8 29.5,78.7 33.4,74.7 37.3,70.8 33.3,70.8 29.5,74.8 				"/>
				<polygon class="st9" points="53,74.5 49.1,78.5 53,78.4 54.9,76.5 				"/>
				<polygon class="st9" points="37.3,74.7 33.4,78.7 37.4,78.6 41.2,74.7 45.1,70.7 41.2,70.7 				"/>
				<polygon class="st9" points="17.8,78.8 21.7,78.8 25.6,74.8 29.4,70.9 25.5,70.9 21.6,74.9 				"/>
				<polygon class="st9" points="5.9,71.1 2,71.2 -1.8,75.1 -1.8,79.1 				"/>
				<polygon class="st9" points="9.9,75 13.8,71.1 9.9,71.1 6,75.1 2.1,79 6,79 				"/>
				<polygon class="st9" points="9.9,78.9 13.9,78.9 17.7,74.9 21.6,71 17.7,71 13.8,75 				"/>
			</g>
		</g>
	</g>
</g>
<g>
	<defs>
		<rect id="SVGID_15_" x="-140" y="0" width="100" height="100"/>
	</defs>
	<clipPath id="SVGID_14_">
		<use xlink:href="#SVGID_15_"  style="overflow:visible;"/>
	</clipPath>
	<g class="st17">
		<polygon class="st23" points="26.1,-5.2 9.4,23.3 -7.2,-5.2 9.4,-33.7 		"/>
		<polygon class="st24" points="59.3,-5.2 42.7,23.3 26.1,-5.2 42.7,-33.7 		"/>
		<polygon class="st23" points="92.6,-5.2 75.9,23.3 59.3,-5.2 75.9,-33.7 		"/>
		<polygon class="st24" points="109.2,23.3 92.6,-5.2 109.2,-33.7 		"/>
		<polygon class="st24" points="26.1,52 9.4,80.5 -7.2,52 9.4,23.5 		"/>
		<polygon class="st25" points="59.3,52 42.7,80.5 26.1,52 42.7,23.5 		"/>
		<polygon class="st24" points="92.6,52 75.9,80.5 59.3,52 75.9,23.5 		"/>
		<polygon class="st23" points="109.2,80.5 92.6,52 109.2,23.5 		"/>
		<polygon class="st23" points="26.1,108.9 9.4,137.4 -7.2,108.9 9.4,80.4 		"/>
		<polygon class="st24" points="59.3,108.9 42.7,137.4 26.1,108.9 42.7,80.4 		"/>
		<polygon class="st23" points="92.6,108.9 75.9,137.4 59.3,108.9 75.9,80.4 		"/>
		<polygon class="st24" points="109.2,137.4 92.6,108.9 109.2,80.4 		"/>
		<polygon class="st22" points="9.4,23.5 -7.2,52 -23.8,23.5 -7.2,-5 		"/>
		<polygon class="st22" points="42.7,23.5 26.1,52 9.4,23.5 26.1,-5 		"/>
		<polygon class="st22" points="75.9,23.5 59.3,52 42.7,23.5 59.3,-5 		"/>
		<polygon class="st22" points="109.2,23.5 92.6,52 75.9,23.5 92.6,-5 		"/>
		<polygon class="st22" points="9.4,80.5 -7.2,109 -23.8,80.5 -7.2,52 		"/>
		<polygon class="st22" points="42.7,80.5 26.1,109 9.4,80.5 26.1,52 		"/>
		<polygon class="st22" points="75.9,80.5 59.3,109 42.7,80.5 59.3,52 		"/>
		<polygon class="st22" points="109.2,80.5 92.6,109 75.9,80.5 92.6,52 		"/>
		<path class="st26" d="M109.2-61.8L92.6-90.1l16.5-28.2l0.1-0.2l-0.1-0.2l0,0l-16.4-28.1l16.4-28.1L109-175l0.1-0.2l-0.6-0.3
			l-16.3,27.9L75.6-176L59-147.6L42.4-176l-16.6,28.4L9.2-176l-16.6,28.4L-24-176l-16.6,28.4L-57.2-176l-16.6,28.4L-90.4-176
			l-16.6,28.4l-16.6-28.4l-16.6,28.4l-16.6-28.4l-16.6,28.4l-16.6-28.4l-16.6,28.4l-16.6-28.4l-16.6,28.4l-16.6-28.4l-16.7,28.5
			l-16.2-27.8l-0.6,0.3l16.5,28.2l-16.6,28.3l16.6,28.3l-16.6,28.3l16.6,28.3l-16.6,28.3l16.7,28.5l-16.7,28.5l16.6,28.3l-16.6,28.3
			l16.6,28.5l0,0.1l0,0l-16.6,28.4l16.6,28.3l-16.5,28.2l0.6,0.3l16.3-27.9l0,0.1l0,0l16.6,28.4l16.6-28.4l0,0l0,0l16.6,28.4
			l16.6-28.4l0,0l0,0l16.6,28.4l16.6-28.4l0,0l0,0l16.6,28.4l16.6-28.4l0,0l0,0l16.6,28.4l16.6-28.4l0,0l0,0l16.6,28.4l16.6-28.4
			l0,0l0,0l16.6,28.4l16.6-28.4l0,0l0,0l16.6,28.4l16.6-28.4l0,0l0,0l16.6,28.4l16.6-28.4l0,0l0,0l16.6,28.4L59,194.7l0,0l0,0
			l16.6,28.4l16.6-28.4l0,0l0,0l16.3,27.9l0.6-0.3l0-0.1l0,0L92.6,194l16.5-28.2l0.1-0.2l-0.1-0.2l0,0l-16.5-28.2l16.5-28.2l-0.1,0
			l0.1-0.1l0.1-0.2L92.6,80.3l16.5-28.2l0.1-0.2l-0.1-0.2l0,0L92.6,23.5l16.5-28.2l-0.1,0l0.1-0.1l0.1-0.2L92.7-33.4l16.4-28.2l0,0
			l0,0L109.2-61.8z M92.2-34.2L92.2-34.2L76-61.8l16.2-27.7l0,0l0,0l16.2,27.7L92.2-34.2L92.2-34.2z M59,193.2L59,193.2l-16.2-27.6
			L59,137.9l16.2,27.7L59,193.2L59,193.2z M25.8,193.2L25.8,193.2L9.6,165.6l16.2-27.7L42,165.6L25.8,193.2L25.8,193.2z M-7.4,193.2
			L-7.4,193.2l-16.2-27.6l16.2-27.7l16.2,27.7L-7.4,193.2L-7.4,193.2z M-40.6,193.2L-40.6,193.2l-16.2-27.6l16.2-27.7l16.2,27.7
			L-40.6,193.2L-40.6,193.2z M-73.8,193.2L-73.8,193.2L-90,165.6l16.2-27.7l16.2,27.7L-73.8,193.2L-73.8,193.2z M-107,193.2
			L-107,193.2l-16.2-27.6l16.2-27.7l16.2,27.7L-107,193.2L-107,193.2z M-140.1,193.2L-140.1,193.2l-16.2-27.6l16.2-27.7l16.2,27.7
			L-140.1,193.2L-140.1,193.2z M-173.3,193.2L-173.3,193.2l-16.2-27.6l16.2-27.7l16.2,27.7L-173.3,193.2L-173.3,193.2z
			 M-206.5,193.2L-206.5,193.2l-16.2-27.6l16.2-27.7l16.2,27.7L-206.5,193.2L-206.5,193.2z M-239.7,193.2L-239.7,193.2l-16.2-27.6
			l16.2-27.7l16.2,27.7L-239.7,193.2L-239.7,193.2z M-239.7-146.1L-239.7-146.1l16.2,27.6l-16.2,27.7l0,0l0,0l-16.2-27.7
			L-239.7-146.1L-239.7-146.1z M-206.5-146.1L-206.5-146.1l16.2,27.6l-16.2,27.7l0,0l0,0l-16.2-27.7L-206.5-146.1L-206.5-146.1z
			 M-173.3-146.1L-173.3-146.1l16.2,27.6l-16.2,27.7l0,0l0,0l-16.2-27.7L-173.3-146.1L-173.3-146.1z M-140.1-146.1L-140.1-146.1
			l16.2,27.6l-16.2,27.7l0,0l0,0l-16.2-27.7L-140.1-146.1L-140.1-146.1z M-107-146.1L-107-146.1l16.2,27.6l-16.2,27.7l0,0l0,0
			l-16.2-27.7L-107-146.1L-107-146.1z M-73.8-146.1L-73.8-146.1l16.2,27.6l-16.2,27.7l0,0l0,0l-16.2-27.7L-73.8-146.1L-73.8-146.1z
			 M-40.6-146.1L-40.6-146.1l16.2,27.6l-16.2,27.7l0,0l0,0l-16.2-27.7L-40.6-146.1L-40.6-146.1z M-7.4-146.1L-7.4-146.1l16.2,27.6
			L-7.4-90.8l0,0l0,0l-16.2-27.7L-7.4-146.1L-7.4-146.1z M25.8-146.1L25.8-146.1L42-118.5L25.8-90.8l0,0l0,0L9.6-118.5L25.8-146.1
			L25.8-146.1z M59-146.1L59-146.1l16.2,27.6L59-90.8l0,0l0,0l-16.2-27.7L59-146.1L59-146.1z M75.2,51.9L59.1,79.6l0-0.1l0,0.1
			l-8.1-13.8l-8.1-13.9L59,24.2L67.1,38L75.2,51.9z M59-34.2L59-34.2L42.8-61.8L59-89.4l0,0l0,0l16.2,27.7L59-34.2L59-34.2z
			 M-206.5-89.4L-206.5-89.4l16.2,27.6l-16.2,27.7l0-0.1l0,0.1l-16.2-27.7L-206.5-89.4L-206.5-89.4z M-173.3-89.4L-173.3-89.4
			l16.2,27.6l-16.2,27.7l0-0.1l0,0.1l-16.2-27.7L-173.3-89.4L-173.3-89.4z M-140.1-89.4L-140.1-89.4l16.2,27.6l-16.2,27.7l0-0.1
			l0,0.1l-16.2-27.7L-140.1-89.4L-140.1-89.4z M-107-89.4L-107-89.4l16.2,27.6l-16.2,27.7l0-0.1l0,0.1l-16.2-27.7L-107-89.4
			L-107-89.4z M-73.8-89.4L-73.8-89.4l16.2,27.6l-16.2,27.7l0-0.1l0,0.1L-90-61.8L-73.8-89.4L-73.8-89.4z M-40.6-89.4L-40.6-89.4
			l16.2,27.6l-16.2,27.7l0-0.1l0,0.1l-16.2-27.7L-40.6-89.4L-40.6-89.4z M-7.4-89.4L-7.4-89.4L8.8-61.8L-7.3-34.1l0-0.1l0,0.1
			l-16.2-27.7L-7.4-89.4L-7.4-89.4z M25.8-89.4L25.8-89.4L42-61.8L25.9-34.1l0-0.1l0,0.1L9.6-61.8L25.8-89.4L25.8-89.4z M42,51.9
			L25.9,79.6l0-0.1l0,0.1l-8.1-13.8L9.6,51.9l16.2-27.8L33.9,38L42,51.9z M25.4,80.3L9.2,108L-6.9,80.3L9.2,52.6l8.1,13.9L25.4,80.3
			z M-106.9,79.6L-106.9,79.6L-106.9,79.6l-8.1-13.8l-8.1-13.9l8.1-13.9l8.1-13.9l8.1,13.9l8.1,13.9l-8.1,13.9L-106.9,79.6z
			 M-81.9,65.8L-90,51.9l16.2-27.8l8.1,13.9l8.1,13.9l-16.2,27.7l0-0.1l0,0.1L-81.9,65.8z M-24,51.3l-16.2-27.8L-24-4.2l16.2,27.8
			l-5.8,9.8L-24,51.3z M-57.2,51.3l-16.2-27.8l16.2-27.8l16.2,27.8l-5.8,9.8L-57.2,51.3z M-123.6-4.2l16.2,27.8l-16.2,27.8
			l-16.2-27.8L-123.6-4.2z M-106.6,23.5l16.2-27.8l16.2,27.8l-11.3,19.3l-5,8.5l-11.9-20.4L-106.6,23.5z M8.8-5L-7.4,22.7L-23.5-5
			l16.2-27.7L8.8-5z M-24.4-5l-16.2,27.7L-56.7-5l16.2-27.7L-24.4-5z M-57.6-5l-16.2,27.7L-89.9-5l16.2-27.7L-57.6-5z M-90.8-5
			L-107,22.7L-123.1-5l16.2-27.7L-90.8-5z M-124-5l-16.2,27.7L-156.3-5l16.2-27.7L-124-5z M-173.3-32.7L-157.2-5l-16.2,27.7
			L-189.5-5L-173.3-32.7z M-56.8,51.9l16.2-27.8l8.1,13.9l8.1,13.9l-16.2,27.7l0-0.1l0,0.1l-8.1-13.8L-56.8,51.9z M-23.6,51.9
			l16.2-27.8L0.7,38l8.1,13.9L-7.3,79.6l0-0.1l0,0.1l-8.1-13.8L-23.6,51.9z M9.2,51.3L-7,23.5L9.2-4.2l16.2,27.8l-5.8,9.8L9.2,51.3z
			 M25.8-32.7L42-5L25.8,22.7L9.7-5L25.8-32.7z M25.4-33.4L9.2-5.8L-6.9-33.4L9.2-61.1L25.4-33.4z M-7.8-33.4L-24-5.8l-16.2-27.7
			L-24-61.1L-7.8-33.4z M-41-33.4L-57.2-5.8l-16.2-27.7l16.2-27.7L-41-33.4z M-74.2-33.4L-90.4-5.8l-16.2-27.7l16.2-27.7L-74.2-33.4
			z M-107.4-33.4l-16.2,27.7l-16.2-27.7l16.2-27.7L-107.4-33.4z M-140.6-33.4l-16.2,27.7l-16.2-27.7l16.2-27.7L-140.6-33.4z
			 M-173.8-33.4l-16.2,27.7l-16.2-27.7l16.2-27.7L-173.8-33.4z M-156.7-4.2l16.2,27.8l-16.2,27.8L-173,23.5L-156.7-4.2z
			 M-156.4,51.9l8.1-13.9l8.1-13.9L-132,38l8.1,13.9l-8.1,13.9l-8.1,13.8l0-0.1l0,0.1l-8.1-13.8L-156.4,51.9z M-139.7,80.3l8.1-13.8
			l8.1-13.9l8.1,13.9l8.1,13.8l-16.2,27.7L-139.7,80.3z M-106.5,80.3l8.1-13.8l8.1-13.8l16.2,27.7L-90.4,108L-106.5,80.3z
			 M-73.3,80.3l16.2-27.7l8.1,13.9l8.1,13.8L-57.2,108L-73.3,80.3z M-40.1,80.3L-24,52.6l8.1,13.9l8.1,13.8L-24,108L-40.1,80.3z
			 M-207-33.4l-16.2,27.7l-16.2-27.7l16.2-27.7L-207-33.4z M-206.5-32.7L-190.4-5l-16.2,27.7L-222.7-5L-206.5-32.7z M-156.7,52.6
			l8.1,13.9l8.1,13.8l-16.2,27.7l-16.2-27.7l8.1-13.8L-156.7,52.6z M-173.3,81l16.2,27.7l-16.2,27.7l-16.2-27.7L-173.3,81z
			 M-140.1,81l16.2,27.7l-16.2,27.7l-16.2-27.7L-140.1,81z M-107,81l16.2,27.7l-16.2,27.7l-16.2-27.7L-107,81z M-73.8,81l16.2,27.7
			l-16.2,27.7l-16.2-27.7L-73.8,81z M-40.6,81l16.2,27.7l-16.2,27.7l-16.2-27.7L-40.6,81z M-7.4,81l16.2,27.7l-16.2,27.7l-16.2-27.7
			L-7.4,81z M25.8,81L42,108.7l-16.2,27.7L9.7,108.7L25.8,81z M42.4-5.8L26.3-33.4l16.2-27.7l16.2,27.7L42.4-5.8z M-189.9-4.2
			l16.2,27.8l-16.2,27.8l-16.2-27.8L-189.9-4.2z M-189.6,51.9l8.1-13.9l8.1-13.9l8.1,13.9l8.1,13.9l-8.1,13.9l-8.1,13.8l0-0.1l0,0.1
			l-8.1-13.8L-189.6,51.9z M-190.4,108.7l-16.2,27.7l-16.2-27.7l16.2-27.7L-190.4,108.7z M42.4,51.3L26.2,23.5L42.4-4.2l16.2,27.8
			l-5.8,9.8L42.4,51.3z M42.4-62.4L26.3-90.1l16.2-27.7l16.2,27.7L42.4-62.4z M9.2-62.4L-6.9-90.1l16.2-27.7l16.2,27.7L9.2-62.4z
			 M-24-62.4l-16.2-27.7l16.2-27.7l16.2,27.7L-24-62.4z M-57.2-62.4l-16.2-27.7l16.2-27.7L-41-90.1L-57.2-62.4z M-90.4-62.4
			l-16.2-27.7l16.2-27.7l16.2,27.7L-90.4-62.4z M-107.4-90.1l-16.2,27.7l-16.2-27.7l16.2-27.7L-107.4-90.1z M-140.6-90.1l-16.2,27.7
			l-16.2-27.7l16.2-27.7L-140.6-90.1z M-173.8-90.1l-16.2,27.7l-16.2-27.7l16.2-27.7L-173.8-90.1z M-207-90.1l-16.2,27.7l-16.2-27.7
			l16.2-27.7L-207-90.1z M-189.9,52.6l8.1,13.9l8.1,13.8l-16.2,27.7l-16.2-27.7l8.1-13.8L-189.9,52.6z M-206.9,137.2l-16.2,27.8
			l-16.2-27.8l16.2-27.8L-206.9,137.2z M-206.2,137.2l16.2-27.8l16.2,27.8l-16.2,27.8L-206.2,137.2z M-173,137.2l16.2-27.8
			l16.2,27.8l-16.2,27.8L-173,137.2z M-139.8,137.2l16.2-27.8l16.2,27.8l-16.2,27.8L-139.8,137.2z M-106.6,137.2l16.2-27.8
			l16.2,27.8l-16.2,27.8L-106.6,137.2z M-73.4,137.2l16.2-27.8l16.2,27.8l-16.2,27.8L-73.4,137.2z M-40.2,137.2l16.2-27.8l16.2,27.8
			L-24,164.9L-40.2,137.2z M-7,137.2l16.2-27.8l16.2,27.8L9.2,164.9L-7,137.2z M26.2,137.2l16.2-27.8l16.2,27.8l-16.2,27.8
			L26.2,137.2z M59,136.4l-16.2-27.7L59,81l16.2,27.7L59,136.4z M58.6,80.3L42.4,108L26.3,80.3l16.2-27.7l8.1,13.9L58.6,80.3z
			 M59,22.7L42.9-5L59-32.7L75.2-5L59,22.7z M59.4-90.1l16.2-27.7l16.2,27.7L75.6-62.4L59.4-90.1z M-239.7-89.4L-239.7-89.4
			l16.2,27.6l-16.2,27.7l0-0.1l0,0.1l-16.2-27.7L-239.7-89.4L-239.7-89.4z M-223.6-5l-16.2,27.7L-255.9-5l16.2-27.7L-223.6-5z
			 M-223.1-4.2l16.2,27.8l-16.2,27.8l-16.2-27.8L-223.1-4.2z M-222.8,51.9l8.1-13.9l8.1-13.9l8.1,13.9l8.1,13.9l-8.1,13.9l-8.1,13.8
			l0-0.1l0,0.1l-8.1-13.8L-222.8,51.9z M-240.2-90.1l-16.2,27.7l-16.2-27.7l16.2-27.7L-240.2-90.1z M-240.2-33.4l-16.2,27.7
			l-16.2-27.7l16.2-27.7L-240.2-33.4z M-223.1,52.6l8.1,13.9l8.1,13.8l-16.2,27.7l-16.2-27.7l8.1-13.8L-223.1,52.6z M-239.7,81
			l16.2,27.7l-16.2,27.7l-16.2-27.7L-239.7,81z M59.4,137.2l16.2-27.8l16.2,27.8l-16.2,27.8L59.4,137.2z M75.6,51.3L59.4,23.5
			L75.6-4.2l16.2,27.8l-5.8,9.8L75.6,51.3z M75.6-5.8L59.5-33.4l16.2-27.7l16.2,27.7L75.6-5.8z M92.2-90.9L92.2-90.9L76-118.5
			l16.1-27.6l0,0.1l0-0.1l16.1,27.6L92.2-90.9L92.2-90.9z M75.6-119.2l-16.1-27.6l16.1-27.6l16.1,27.6L75.6-119.2z M42.4-119.2
			l-16.1-27.6l16.1-27.6l16.1,27.6L42.4-119.2z M9.2-119.2l-16.1-27.6l16.1-27.6l16.1,27.6L9.2-119.2z M-24-119.2l-16.1-27.6
			l16.1-27.6l16.1,27.6L-24-119.2z M-57.2-119.2l-16.1-27.6l16.1-27.6l16.1,27.6L-57.2-119.2z M-90.4-119.2l-16.1-27.6l16.1-27.6
			l16.1,27.6L-90.4-119.2z M-123.6-119.2l-16.1-27.6l16.1-27.6l16.1,27.6L-123.6-119.2z M-156.7-119.2l-16.1-27.6l16.1-27.6
			l16.1,27.6L-156.7-119.2z M-189.9-119.2l-16.1-27.6l16.1-27.6l16.1,27.6L-189.9-119.2z M-223.1-119.2l-16.1-27.6l16.1-27.6
			l16.1,27.6L-223.1-119.2z M-256.3-119.2l-16.1-27.6l16.1-27.6l16.1,27.6L-256.3-119.2z M-256.3-4.2l16.2,27.8l-16.2,27.8
			l-16.2-27.8L-256.3-4.2z M-255.9,51.9l8.1-13.9l8.1-13.9l8.1,13.9l8.1,13.9l-8.1,13.9l-8.1,13.8l0-0.1l0,0.1l-8.1-13.8
			L-255.9,51.9z M-240.1,137.2l-16.2,27.8l-16.2-27.8l16.2-27.8L-240.1,137.2z M-240.2,194l-16.2,27.7l-16.2-27.7l16.2-27.7
			L-240.2,194z M-223.1,166.3L-207,194l-16.2,27.7l-16.2-27.7L-223.1,166.3z M-189.9,166.3l16.2,27.7l-16.2,27.7l-16.2-27.7
			L-189.9,166.3z M-156.7,166.3l16.2,27.7l-16.2,27.7l-16.2-27.7L-156.7,166.3z M-123.6,166.3l16.2,27.7l-16.2,27.7l-16.2-27.7
			L-123.6,166.3z M-90.4,166.3l16.2,27.7l-16.2,27.7l-16.2-27.7L-90.4,166.3z M-57.2,166.3L-41,194l-16.2,27.7L-73.3,194
			L-57.2,166.3z M-24,166.3L-7.8,194L-24,221.7L-40.1,194L-24,166.3z M9.2,166.3L25.4,194L9.2,221.7L-6.9,194L9.2,166.3z
			 M42.4,166.3L58.6,194l-16.2,27.7L26.3,194L42.4,166.3z M75.6,166.3L91.8,194l-16.2,27.7L59.4,194L75.6,166.3z M92.2,193.2
			L92.2,193.2L76,165.6l16.2-27.7l16.2,27.7L92.2,193.2L92.2,193.2z M92.2,81l16.2,27.7l-16.2,27.7L76,108.7L92.2,81z M91.8,80.3
			L75.6,108L59.4,80.3l16.2-27.7l8.1,13.9L91.8,80.3z M92.2-32.7L108.4-5L92.2,22.7L76.1-5L92.2-32.7z M-256.3,52.6l8.1,13.9
			l8.1,13.8l-16.2,27.7l-16.2-27.7l8.1-13.8L-256.3,52.6z M108.4,51.9L92.3,79.6l0-0.1l0,0.1l-8.1-13.8L76,51.9l16.2-27.8l3.9,6.7
			L108.4,51.9z M-289.1-118.5l16.2-27.7l0,0.1l0-0.1l16.1,27.6l-16.2,27.7l0,0l0,0.1L-289.1-118.5z M-289.1-61.8l16.2-27.7l0,0.1
			l0,0l16.2,27.7l-16.2,27.7l0-0.1l0,0.1L-289.1-61.8z M-273-32.8L-256.8-5l-16.2,27.7l-16.2-27.8L-273-32.8z M-289.1,51.9
			l16.2-27.8l8.1,13.9l8.1,13.9l-8.1,13.9l-8.1,13.8l0-0.1l0,0.1L-289.1,51.9z M-273,80.9l16.2,27.8l-16.2,27.7l-16.2-27.8
			L-273,80.9z M-289.1,165.6l16.2-27.8l16.2,27.7l-16.2,27.7l0,0l0,0.1L-289.1,165.6z"/>
	</g>
</g>
<rect x="0" y="0" class="st27" width="100" height="100"/>
<g>
	<defs>
		<rect id="SVGID_17_" x="140" y="140" width="100" height="100"/>
	</defs>
	<clipPath id="SVGID_16_">
		<use xlink:href="#SVGID_17_"  style="overflow:visible;"/>
	</clipPath>
	<g class="st21">
		<g>
			<defs>
				<rect id="SVGID_19_" x="108.1" y="-63.9" width="172.2" height="516.6"/>
			</defs>
			<clipPath id="SVGID_18_">
				<use xlink:href="#SVGID_19_"  style="overflow:visible;"/>
			</clipPath>
			<g class="st35">
				<rect x="51.8" y="-6.4" class="st5" width="57.5" height="57.5"/>
				<polygon class="st37" points="55.2,-6.4 51.8,-3 51.8,0.3 58.5,-6.4 				"/>
				<polygon class="st37" points="85.6,-6.4 51.8,27.4 51.8,30.8 89,-6.4 				"/>
				<polygon class="st37" points="92.4,-6.4 51.8,34.2 51.8,51.1 51.8,51.1 109.3,-6.4 				"/>
				<polygon class="st38" points="58.5,-6.4 51.8,0.3 51.8,27.4 85.6,-6.4 				"/>
				<polygon class="st13" points="89,-6.4 51.8,30.8 51.8,34.2 92.4,-6.4 				"/>
				<polygon class="st37" points="109.3,-3 55.2,51.1 58.5,51.1 109.3,0.3 				"/>
				<polygon class="st37" points="109.3,27.4 85.6,51.1 89,51.1 109.3,30.8 				"/>
				<polygon class="st37" points="92.4,51.1 109.3,51.1 109.3,34.2 				"/>
				<polygon class="st38" points="109.3,0.3 58.5,51.1 85.6,51.1 109.3,27.4 				"/>
				<polygon class="st13" points="109.3,-6.4 51.8,51.1 55.2,51.1 109.3,-3 				"/>
				<polygon class="st13" points="109.3,30.8 89,51.1 92.4,51.1 109.3,34.2 				"/>
			</g>
			<g class="st35">
				<rect x="51.8" y="51.1" class="st5" width="57.5" height="57.5"/>
				<polygon class="st37" points="55.2,51.1 51.8,54.5 51.8,57.8 58.5,51.1 				"/>
				<polygon class="st37" points="85.6,51.1 51.8,84.9 51.8,88.3 89,51.1 				"/>
				<polygon class="st37" points="92.4,51.1 51.8,91.7 51.8,108.6 51.8,108.6 109.3,51.1 				"/>
				<polygon class="st38" points="58.5,51.1 51.8,57.8 51.8,84.9 85.6,51.1 				"/>
				<polygon class="st13" points="55.2,51.1 51.8,51.1 51.8,51.1 51.8,54.5 				"/>
				<polygon class="st13" points="89,51.1 51.8,88.3 51.8,91.7 92.4,51.1 				"/>
				<polygon class="st37" points="109.3,54.5 55.2,108.6 58.5,108.6 109.3,57.8 				"/>
				<polygon class="st37" points="109.3,84.9 85.6,108.6 89,108.6 109.3,88.3 				"/>
				<polygon class="st37" points="92.4,108.6 109.3,108.6 109.3,91.7 				"/>
				<polygon class="st38" points="109.3,57.8 58.5,108.6 85.6,108.6 109.3,84.9 				"/>
				<polygon class="st13" points="109.3,51.1 51.8,108.6 55.2,108.6 109.3,54.5 				"/>
				<polygon class="st13" points="109.3,88.3 89,108.6 92.4,108.6 109.3,91.7 				"/>
			</g>
		</g>
	</g>
</g>
<g>
	<path class="st13" d="M60.2,49.3c1.8-2,2.9-4.7,2.9-7.6c0-6.4-5.2-11.6-11.6-11.6S40,35.2,40,41.6c0,2.9,1.1,5.6,2.9,7.6
		c-5.2,3-8.7,8.6-8.7,15.1c0,9.6,5.8,15.8,17.4,15.8c12.3,0,17.4-6.2,17.4-15.8C68.9,57.9,65.4,52.3,60.2,49.3z"/>
	<g>
		<path class="st52" d="M45,31.1l14.9,1.7c0,0-3-5.4-2.4-7c0.6-1.6,2.9-1.4,2.9-1.4s-1.6-2.1-6.2-1.3C51.2,23.5,47.7,25,45,31.1z"/>
		<path class="st13" d="M62.1,24.8c-0.1,0.7-0.7,1.2-1.4,1.1c-0.7-0.1-1.2-0.7-1.1-1.4c0.1-0.7,0.7-1.2,1.4-1.1
			C61.7,23.5,62.2,24.1,62.1,24.8z"/>
		<g>
			<path class="st13" d="M59.7,35l-15.4-1.7c-0.9-0.1-1.5-0.9-1.4-1.7l0,0c0.1-0.9,0.9-1.5,1.7-1.4L60,31.9c0.9,0.1,1.5,0.9,1.4,1.7
				l0,0C61.3,34.5,60.5,35.1,59.7,35z"/>
		</g>
	</g>
	<g>
		<path class="st53" d="M58.7,40.8c-0.3-0.1-0.6,0-0.8,0.3c-1,2-3.5,3.3-6.4,3.3c-2.8,0-5.4-1.3-6.4-3.3c-0.1-0.3-0.5-0.4-0.8-0.3
			c-0.3,0.1-0.4,0.5-0.3,0.8c1.2,2.4,4.1,3.9,7.4,3.9c3.3,0,6.2-1.5,7.4-3.9C59.1,41.3,59,40.9,58.7,40.8z"/>
		<path class="st53" d="M46.3,38.1c0.7,0,1.3-0.6,1.3-1.3c0-0.7-0.6-1.3-1.3-1.3c-0.7,0-1.3,0.6-1.3,1.3
			C45,37.5,45.6,38.1,46.3,38.1z"/>
		<path class="st53" d="M57.1,38.1c0.7,0,1.3-0.6,1.3-1.3c0-0.7-0.6-1.3-1.3-1.3c-0.7,0-1.3,0.6-1.3,1.3
			C55.9,37.5,56.4,38.1,57.1,38.1z"/>
		<path class="st53" d="M51.5,55.6c-1,0-1.8,0.8-1.8,1.8s0.8,1.8,1.8,1.8c1,0,1.8-0.8,1.8-1.8S52.5,55.6,51.5,55.6z"/>
		<path class="st53" d="M51.5,62c-1,0-1.8,0.8-1.8,1.8s0.8,1.8,1.8,1.8c1,0,1.8-0.8,1.8-1.8S52.5,62,51.5,62z"/>
		<path class="st53" d="M74,49.8c0-0.2-0.2-0.4-0.5-0.4l-2.7,0.3l2.5-3.3c0.1-0.2,0.1-0.5-0.1-0.6c-0.2-0.1-0.5-0.1-0.6,0.1
			l-3.3,4.2l-0.1-1.1c0-0.2-0.2-0.4-0.5-0.4c-0.2,0-0.4,0.2-0.4,0.5l0.2,2l-4.5,5.8c-0.1,0.2-0.1,0.5,0.1,0.6
			c0.1,0.1,0.2,0.1,0.3,0.1c0.1,0,0.3-0.1,0.3-0.2l5.2-6.7l3.6-0.5C73.9,50.3,74,50,74,49.8z"/>
		<path class="st53" d="M34.5,51.1l0.2-2c0-0.2-0.1-0.5-0.4-0.5c-0.2,0-0.5,0.1-0.5,0.4l-0.1,1.1L30.5,46c-0.1-0.2-0.4-0.2-0.6-0.1
			c-0.2,0.1-0.2,0.4-0.1,0.6l2.5,3.3l-2.7-0.3c-0.2,0-0.5,0.1-0.5,0.4c0,0.2,0.1,0.5,0.4,0.5l3.6,0.5l5.2,6.7
			c0.1,0.1,0.2,0.2,0.3,0.2c0.1,0,0.2,0,0.3-0.1c0.2-0.1,0.2-0.4,0.1-0.6L34.5,51.1z"/>
	</g>
	<path class="st54" d="M49.8,39.9C49.8,39.9,49.8,39.9,49.8,39.9C49.8,39.9,49.8,39.9,49.8,39.9c0,0.5,0.8,0.9,1.7,0.9
		c1,0,1.7-0.4,1.7-0.9c0,0,0,0,0,0c0,0,0,0,0,0c0,0,0,0,0,0c0,0,0-0.1,0-0.1c-0.2-0.6-0.9-2.3-1.7-2.3c-0.8,0-1.5,1.6-1.7,2.2
		C49.9,39.8,49.8,39.8,49.8,39.9C49.8,39.9,49.8,39.9,49.8,39.9z"/>
	<path class="st52" d="M62,49.5c-0.1-0.4-0.1-0.8-0.4-1.5c-0.3-0.6-3,1.4-10.1,1.6c-1.9,0-3.4,0-4.7-0.1c-0.1-0.3-0.1-0.6-0.3-0.7
		c-0.3-0.3-0.8-0.4-1.8-0.3c-0.5,0.1-0.8-0.5-1.5-0.3c-0.2,0.1-0.4,0.3-0.5,0.6c-0.5-0.2-0.8-0.3-0.8-0.3c-0.5-0.1-1,0.3-1.1,1.1
		c-0.1,0.6-0.8,0.5-0.6,1.4c0,0.1,0.4,0.4,1.1,0.7c-0.6,2.8-1,6.3-1.2,9.2c-0.2,3.3,0.3,6.7,0.2,7.7c-0.1,0.9,0.1,0.9,1.4,0.9
		c0.8,0,2.3,0.6,2.6,0c0.3-0.6-0.5-3.7-0.5-6.9c0-2.8,0.2-5.8,0.5-8.1c0.1,0.7,0.2,1.3,0.3,1.6c0.2,1,0.7,0.6,1.6,0.3
		c1-0.3,2.3,0.2,2.1-0.9c-0.1-0.5-0.3-1.4-0.5-2.3c0.8,0.1,1.6,0.1,2.5,0.2c6.3,0.2,11.3-1.4,12-2.1C63,50.5,62.1,50,62,49.5z"/>
</g>
</svg>
