<?xml version="1.0" encoding="utf-8"?>
<!-- Generator: Adobe Illustrator 22.1.0, SVG Export Plug-In . SVG Version: 6.00 Build 0)  -->
<svg version="1.1" id="Layer_1" xmlns="http://www.w3.org/2000/svg" xmlns:xlink="http://www.w3.org/1999/xlink" x="0px" y="0px"
	 viewBox="0 0 100 100" style="enable-background:new 0 0 100 100;" xml:space="preserve">
<style type="text/css">
	.st0{fill:#BE1E2D;}
	.st1{fill:#00B0BB;}
	.st2{fill:#63C4AF;}
	.st3{fill:#EAEAEA;}
	.st4{fill:#413E34;}
	.st5{fill:none;}
	.st6{clip-path:url(#SVGID_2_);}
	.st7{clip-path:url(#SVGID_4_);}
	.st8{fill:#1E0D12;}
	.st9{fill:#E62F34;}
	.st10{fill:#25793D;}
	.st11{clip-path:url(#SVGID_6_);}
	.st12{clip-path:url(#SVGID_8_);}
	.st13{fill:#FFFFFF;}
	.st14{clip-path:url(#SVGID_10_);}
	.st15{clip-path:url(#SVGID_12_);}
	.st16{fill:#96BF4D;}
	.st17{clip-path:url(#SVGID_14_);}
	.st18{fill-rule:evenodd;clip-rule:evenodd;fill:#FFFFFF;}
	.st19{fill:#C92927;}
	.st20{fill:#253748;}
	.st21{clip-path:url(#SVGID_16_);}
	.st22{fill:#97CB59;}
	.st23{fill:#DA2128;}
	.st24{fill:#00A14B;}
	.st25{fill:#96171A;}
	.st26{fill:#D1E39B;}
	.st27{fill:#4FBBBB;}
	.st28{fill:#37343F;}
	.st29{fill:#077A64;}
	.st30{fill:#F4EED4;}
	.st31{fill:#012E47;}
	.st32{fill:#BE1C42;}
	.st33{fill:#008E9F;}
	.st34{fill:#CD4134;}
	.st35{clip-path:url(#SVGID_18_);}
	.st36{clip-path:url(#SVGID_20_);}
	.st37{fill:#EE2424;}
	.st38{fill:#67BC45;}
	.st39{clip-path:url(#SVGID_22_);}
	.st40{clip-path:url(#SVGID_24_);}
	.st41{fill:#004A54;}
	.st42{fill:#D93128;}
	.st43{fill:#401B23;}
	.st44{fill:#EE2D40;}
	.st45{fill:#F1EBC9;}
	.st46{fill-rule:evenodd;clip-rule:evenodd;fill:#C92927;}
	.st47{fill-rule:evenodd;clip-rule:evenodd;fill:#96BF4D;}
	.st48{fill:#BD3026;}
	.st49{opacity:0.4;fill:#CD4134;}
	.st50{fill:#E6B448;}
	.st51{fill:#E21F26;}
	.st52{fill:#A82123;}
	.st53{fill:#383A3A;}
	.st54{fill:#F17B22;}
	.st55{fill:#F1F0DC;}
	.st56{fill:#56AE78;}
	.st57{fill:#EE262E;}
	.st58{fill:#C47229;}
	.st59{fill:#FEC010;}
	.st60{fill:#C0343E;}
	.st61{fill:url(#SVGID_25_);}
	.st62{fill:#659DAA;}
	.st63{fill:#C9A784;}
	.st64{fill:#DDCFB5;}
	.st65{fill:#D2A886;}
	.st66{fill:#9B3227;}
	.st67{opacity:0.39;fill:#FFFFFF;}
	.st68{fill:#E5E5E5;}
	.st69{fill:#202945;}
	.st70{fill:none;stroke:#ACA300;stroke-miterlimit:10;}
	.st71{fill:none;stroke:#ACA300;stroke-miterlimit:10;stroke-dasharray:2.0083,2.0083;}
	.st72{fill:#ACA300;}
</style>
<g>
	<defs>
		<rect id="SVGID_1_" x="560" y="-280" width="100" height="100"/>
	</defs>
	<clipPath id="SVGID_2_">
		<use xlink:href="#SVGID_1_"  style="overflow:visible;"/>
	</clipPath>
	<g class="st6">
		<g>
			<defs>
				
					<rect id="SVGID_3_" x="92.5" y="-286.7" transform="matrix(0.6711 -0.7413 0.7413 0.6711 248.2174 387.9598)" width="937.7" height="401.9"/>
			</defs>
			<clipPath id="SVGID_4_">
				<use xlink:href="#SVGID_3_"  style="overflow:visible;"/>
			</clipPath>
			<g class="st7">
				
					<rect x="-188.6" y="-239.5" transform="matrix(0.6711 -0.7413 0.7413 0.6711 -13.3865 115.9055)" class="st5" width="625.1" height="625.1"/>
				
					<rect x="-188.6" y="-239.5" transform="matrix(0.6711 -0.7413 0.7413 0.6711 -13.3865 115.9055)" class="st8" width="625.1" height="625.1"/>
				<polygon class="st9" points="113.7,184.2 121.5,183.8 14,86.4 14.4,94.3 				"/>
				<polygon class="st9" points="100.3,74.2 92.4,74.6 92.4,74.6 100.3,74.2 				"/>
				<polygon class="st9" points="125.1,96.7 100.3,74.2 92.4,74.6 125.5,104.6 				"/>
				<polygon class="st9" points="76.6,75.4 76.6,75.4 84.5,75 				"/>
				<polygon class="st9" points="125.9,112.5 84.5,75 76.6,75.4 126.3,120.3 				"/>
				<polygon class="st9" points="68.8,75.8 60.9,76.2 60.9,76.2 68.8,75.8 				"/>
				<polygon class="st9" points="126.7,128.2 68.8,75.8 60.9,76.2 127.1,136.1 				"/>
				<polygon class="st9" points="53,76.6 45.1,77 53,76.6 				"/>
				<polygon class="st9" points="127.5,144 53,76.6 45.1,77 127.9,151.9 				"/>
				<polygon class="st9" points="37.2,77.3 29.3,77.7 37.2,77.3 				"/>
				<polygon class="st9" points="128.3,159.8 37.2,77.3 29.3,77.7 128.7,167.6 				"/>
				<polygon class="st9" points="21.5,78.1 21.5,78.1 13.6,78.5 13.6,78.5 				"/>
				<polygon class="st9" points="129.4,183.4 129,175.5 21.5,78.1 13.6,78.5 				"/>
				<polygon class="st9" points="-96,99.8 3.3,189.7 11.2,189.3 -96.4,91.9 				"/>
				<polygon class="st9" points="14,86.4 5.7,78.9 -2.2,79.3 14.4,94.3 				"/>
				<polygon class="st9" points="14.7,102.2 -10.1,79.7 -18,80.1 15.1,110.1 				"/>
				<polygon class="st9" points="15.5,117.9 -25.9,80.5 -33.7,80.9 15.9,125.8 				"/>
				<polygon class="st9" points="16.3,133.7 -41.6,81.3 -49.5,81.7 16.7,141.6 				"/>
				<polygon class="st9" points="-65.3,82.4 17.5,157.4 17.1,149.5 -57.4,82.1 				"/>
				<polygon class="st9" points="-81,83.2 18.3,173.1 17.9,165.2 -73.2,82.8 				"/>
				<polygon class="st9" points="-96.8,84 19.1,188.9 18.7,181 -88.9,83.6 -96.8,84 -96.8,84 -96.8,84 				"/>
				<polygon class="st10" points="9.7,-0.3 -23.5,-30.3 -28.7,-30 -31.3,-29.9 10,7.6 				"/>
				<polygon class="st10" points="10.4,15.5 -39.2,-29.5 -43.4,-29.3 -47.1,-29.1 10.8,23.3 				"/>
				<polygon class="st10" points="11.2,31.2 -55,-28.7 -58.1,-28.6 -62.9,-28.3 11.6,39.1 				"/>
				<polygon class="st10" points="12.4,54.9 12,47 -70.8,-27.9 -76.8,-27.6 -78.6,-27.5 				"/>
				<polygon class="st10" points="13.2,70.6 12.8,62.8 -86.5,-27.1 -93.8,-26.8 -94.4,-26.8 				"/>
				<polygon class="st10" points="13.6,78.5 -102.3,-26.4 -101.9,-18.5 5.7,78.9 				"/>
				<polygon class="st10" points="13.6,78.5 5.7,78.9 13.6,78.5 				"/>
				<polygon class="st10" points="13.6,78.5 5.7,78.9 14,86.4 				"/>
				<polygon class="st10" points="14.7,102.2 14.4,94.3 -2.2,79.3 -10.1,79.7 				"/>
				<polygon class="st10" points="15.5,117.9 15.1,110.1 -18,80.1 -25.9,80.5 				"/>
				<polygon class="st10" points="16.3,133.7 15.9,125.8 -33.7,80.9 -41.6,81.3 				"/>
				<polygon class="st10" points="17.1,149.5 16.7,141.6 -49.5,81.7 -57.4,82.1 				"/>
				<polygon class="st10" points="-73.2,82.8 17.9,165.2 17.5,157.4 -65.3,82.4 				"/>
				<polygon class="st10" points="-81,83.2 -88.9,83.6 18.7,181 18.3,173.1 				"/>
				<polygon class="st10" points="-95.6,107.7 -4.6,190.1 3.3,189.7 -96,99.8 				"/>
				<polygon class="st10" points="11.2,189.3 19.1,188.9 -96.8,84 -96.4,91.9 				"/>
			</g>
		</g>
	</g>
</g>
<g>
	<defs>
		<rect id="SVGID_5_" x="-280" y="-140" width="100" height="100"/>
	</defs>
	<clipPath id="SVGID_6_">
		<use xlink:href="#SVGID_5_"  style="overflow:visible;"/>
	</clipPath>
	<g class="st11">
		<g>
			<defs>
				<rect id="SVGID_7_" x="-351.3" y="-838.9" width="595" height="1388.2"/>
			</defs>
			<clipPath id="SVGID_8_">
				<use xlink:href="#SVGID_7_"  style="overflow:visible;"/>
			</clipPath>
			<g class="st12">
				<rect x="-175.1" y="-141.6" class="st5" width="466" height="466"/>
				<rect x="-175.1" y="-141.6" class="st13" width="466" height="466"/>
				<g>
					<g>
						<polygon class="st9" points="178.4,19.1 98,99.4 90,99.4 178.4,11.1 						"/>
						<polygon class="st9" points="178.4,3 82,99.4 73.9,99.4 178.4,-5 						"/>
						<polygon class="st9" points="82,-13 73.9,-13 65.9,-5 65.9,3 						"/>
						<polygon class="st9" points="98,-13 90,-13 65.9,11.1 65.9,19.1 						"/>
						<polygon class="st9" points="114.1,-13 106.1,-13 65.9,27.1 65.9,35.2 						"/>
						<polygon class="st9" points="130.2,-13 122.1,-13 65.9,43.2 65.9,51.2 						"/>
						<polygon class="st9" points="146.2,-13 138.2,-13 65.9,59.3 65.9,67.3 						"/>
						<polygon class="st9" points="162.3,-13 154.3,-13 65.9,75.3 65.9,83.4 						"/>
						<polygon class="st9" points="178.4,-13 170.3,-13 65.9,91.4 65.9,99.4 						"/>
					</g>
				</g>
				<g>
					<polygon class="st10" points="-46.6,147.6 1.6,99.4 9.7,99.4 -46.6,155.7 					"/>
					<polygon class="st10" points="-46.6,163.7 17.7,99.4 25.7,99.4 -46.6,171.7 					"/>
					<polygon class="st10" points="-46.6,179.8 33.8,99.4 41.8,99.4 -46.6,187.8 					"/>
					<polygon class="st10" points="-46.6,195.8 49.8,99.4 57.9,99.4 -46.6,203.9 					"/>
					<polygon class="st10" points="-46.6,211.9 -38.5,211.9 65.9,107.5 65.9,99.4 					"/>
				</g>
				<g>
					<polygon class="st10" points="-46.6,35.2 1.6,-13 9.7,-13 -46.6,43.2 					"/>
					<polygon class="st10" points="-46.6,51.2 17.7,-13 25.7,-13 -46.6,59.3 					"/>
					<polygon class="st10" points="-46.6,67.3 33.8,-13 41.8,-13 -46.6,75.3 					"/>
					<polygon class="st10" points="-46.6,83.4 49.8,-13 57.9,-13 -46.6,91.4 					"/>
					<polygon class="st10" points="49.8,99.4 57.9,99.4 65.9,91.4 65.9,83.4 					"/>
					<polygon class="st10" points="33.8,99.4 41.8,99.4 65.9,75.3 65.9,67.3 					"/>
					<polygon class="st10" points="17.7,99.4 25.7,99.4 65.9,59.3 65.9,51.2 					"/>
					<polygon class="st10" points="1.6,99.4 9.7,99.4 65.9,43.2 65.9,35.2 					"/>
					<polygon class="st10" points="-14.4,99.4 -6.4,99.4 65.9,27.1 65.9,19.1 					"/>
					<polygon class="st10" points="-30.5,99.4 -22.5,99.4 65.9,11.1 65.9,3 					"/>
					<polygon class="st10" points="-46.6,99.4 -38.5,99.4 65.9,-5 65.9,-13 					"/>
				</g>
				<g>
					<polygon class="st9" points="65.9,91.4 65.9,99.4 57.9,99.4 					"/>
					<polygon class="st9" points="65.9,83.4 49.8,99.4 41.8,99.4 65.9,75.3 					"/>
					<polygon class="st9" points="65.9,67.3 33.8,99.4 25.7,99.4 65.9,59.3 					"/>
					<polygon class="st9" points="65.9,51.2 17.7,99.4 9.7,99.4 65.9,43.2 					"/>
					<polygon class="st9" points="65.9,35.2 1.6,99.4 -6.4,99.4 65.9,27.1 					"/>
					<polygon class="st9" points="65.9,19.1 -14.4,99.4 -22.5,99.4 65.9,11.1 					"/>
					<polygon class="st9" points="65.9,3 -30.5,99.4 -38.5,99.4 65.9,-5 					"/>
					<polygon class="st9" points="1.6,-13 -6.4,-13 -46.6,27.1 -46.6,35.2 					"/>
					<polygon class="st9" points="17.7,-13 9.7,-13 -46.6,43.2 -46.6,51.2 					"/>
					<polygon class="st9" points="33.8,-13 25.7,-13 -46.6,59.3 -46.6,67.3 					"/>
					<polygon class="st9" points="49.8,-13 41.8,-13 -46.6,75.3 -46.6,83.4 					"/>
					<polygon class="st9" points="65.9,-13 57.9,-13 -46.6,91.4 -46.6,99.4 					"/>
				</g>
			</g>
		</g>
	</g>
</g>
<g>
	<defs>
		<rect id="SVGID_9_" x="-140" y="-140" width="100" height="100"/>
	</defs>
	<clipPath id="SVGID_10_">
		<use xlink:href="#SVGID_9_"  style="overflow:visible;"/>
	</clipPath>
	<g class="st14">
		<g>
			<defs>
				
					<rect id="SVGID_11_" x="-466" y="-237.1" transform="matrix(0.6991 -0.715 0.715 0.6991 27.4239 -118.0859)" width="678.8" height="290.9"/>
			</defs>
			<clipPath id="SVGID_12_">
				<use xlink:href="#SVGID_11_"  style="overflow:visible;"/>
			</clipPath>
			<g class="st15">
				
					<rect x="-177.4" y="-179.1" transform="matrix(0.6991 -0.715 0.715 0.6991 26.503 -62.6265)" class="st5" width="232.6" height="232.6"/>
				
					<rect x="-177.4" y="-179.1" transform="matrix(0.6991 -0.715 0.715 0.6991 26.503 -62.6265)" class="st10" width="232.6" height="232.6"/>
				<polygon class="st8" points="21.8,4.9 21.8,4.8 21.8,-1.1 21.7,-5 21.7,-8.9 21.7,-9.6 				"/>
				<polygon class="st8" points="21.9,10.7 21.8,6.7 21.8,6.7 22,18.5 21.9,14.6 				"/>
				<polygon class="st8" points="21.8,6.7 21.8,4.9 21.7,-9.6 21.6,-12.8 21.6,-12.8 21.4,-32.4 21.4,-32.4 21.4,-33.7 21.4,-36.3 
					13.5,-36.2 13.5,-36.2 9.6,-36.2 9.6,-36.2 5.7,-36.1 5.7,-36.1 3.1,-36.1 -3.9,-36 -6,-36 -6,-36 -10,-36 -10,-36 -13.9,-35.9 
					-13.9,-35.9 -25.6,-35.8 -25.6,-35.8 -29.5,-35.8 -29.5,-35.8 -33.5,-35.7 -33.4,-31.8 -33.4,-31.8 -33.4,-27.9 -33.4,-27.9 
					-33.3,-25.6 -33.2,-17.4 -33.2,-16.1 -33.2,-16.1 -33.2,-12.2 -33.2,-12.2 -33.1,-8.3 -33.1,-8.3 -33,3.4 -33,3.4 -33,7.4 
					-33,7.4 -32.9,11.3 -32.9,11.3 -32.9,15.2 -32.9,15.2 -32.8,19.1 -28.9,19.1 -28.9,19.1 -25,19 -25,19 -21.1,19 -21.1,19 
					-18.1,18.9 -5.4,18.8 -5.4,18.8 -1.5,18.8 -1.5,18.8 10.5,18.6 14.1,18.6 14.1,18.6 18.1,18.5 18.1,18.5 22,18.5 21.8,6.7 				
					"/>
				<polygon class="st8" points="21.8,6.7 21.8,6.7 21.8,4.8 21.8,4.9 				"/>
				<polygon class="st8" points="21.8,6.7 21.8,6.7 21.8,4.9 				"/>
				<polygon class="st8" points="64.4,-36.8 60.5,-36.8 21.8,2.8 21.8,4.8 21.8,6.7 				"/>
				<polygon class="st8" points="72.3,-36.9 68.3,-36.8 21.9,10.7 21.9,14.6 				"/>
				<polygon class="st8" points="-32.4,54.3 -32.4,58.3 6.3,18.7 2.4,18.7 				"/>
				<polygon class="st8" points="14.1,18.6 10.5,18.6 14.1,18.6 				"/>
				<polygon class="st8" points="-32.4,62.2 -32.3,66.1 14.1,18.6 10.2,18.6 				"/>
				<polygon class="st8" points="14.1,18.6 14.1,18.6 10.5,18.6 10.2,18.6 				"/>
				<polygon class="st8" points="18.1,18.5 22,18.5 18.1,18.5 				"/>
				<polygon class="st8" points="-32.3,70 -32.2,73.9 -28.4,70 22,18.5 18.1,18.5 				"/>
				<polygon class="st8" points="18.1,18.5 22,18.5 18.1,18.5 				"/>
			</g>
		</g>
	</g>
</g>
<g>
	<defs>
		<rect id="SVGID_13_" x="140" y="-140" width="100" height="100"/>
	</defs>
	<clipPath id="SVGID_14_">
		<use xlink:href="#SVGID_13_"  style="overflow:visible;"/>
	</clipPath>
	<g class="st17">
		<rect x="55.4" y="-230.3" class="st18" width="268.4" height="268.4"/>
		<g>
			<polygon class="st19" points="77.8,4.5 94.6,21.3 100.1,26.9 105.7,21.3 122.5,4.5 139.3,21.3 144.9,26.9 150.5,21.3 167.3,4.5 
				189.6,26.9 195.2,21.3 212,4.5 228.8,21.3 234.4,26.9 239.9,21.3 239.9,21.3 256.7,4.5 273.5,21.3 273.5,21.3 279.1,26.9 
				279.1,26.9 279.1,26.9 284.7,21.3 284.7,21.3 301.5,4.5 323.8,26.9 323.8,15.7 307,-1.1 301.5,-6.6 295.9,-1.1 279.1,15.7 
				256.7,-6.6 251.1,-1.1 234.4,15.7 217.6,-1.1 212,-6.6 206.4,-1.1 189.6,15.7 167.3,-6.6 161.7,-1.1 144.9,15.7 128.1,-1.1 
				122.5,-6.6 116.9,-1.1 100.1,15.7 83.4,-1.1 77.8,-6.6 72.2,-1.1 55.4,15.7 55.4,26.9 55.4,26.9 			"/>
		</g>
		<g>
			<polygon class="st16" points="77.8,-17.9 94.6,-1.1 100.1,4.5 105.7,-1.1 122.5,-17.9 139.3,-1.1 144.9,4.5 150.5,-1.1 
				167.3,-17.9 189.6,4.5 195.2,-1.1 212,-17.9 228.8,-1.1 234.4,4.5 239.9,-1.1 239.9,-1.1 256.7,-17.9 273.5,-1.1 273.5,-1.1 
				279.1,4.5 279.1,4.5 279.1,4.5 284.7,-1.1 284.7,-1.1 301.5,-17.9 323.8,4.5 323.8,-6.6 307,-23.4 301.5,-29 295.9,-23.4 
				279.1,-6.6 256.7,-29 251.1,-23.4 234.4,-6.6 217.6,-23.4 212,-29 206.4,-23.4 189.6,-6.6 167.3,-29 161.7,-23.4 144.9,-6.6 
				128.1,-23.4 122.5,-29 116.9,-23.4 100.1,-6.6 83.4,-23.4 77.8,-29 72.2,-23.4 55.4,-6.6 55.4,4.5 55.4,4.5 			"/>
			<polygon class="st16" points="301.5,15.7 295.9,21.3 279.1,38.1 256.7,15.7 251.1,21.3 234.4,38.1 217.6,21.3 212,15.7 
				206.4,21.3 189.6,38.1 167.3,15.7 161.7,21.3 144.9,38.1 128.1,21.3 122.5,15.7 116.9,21.3 100.1,38.1 83.4,21.3 77.8,15.7 
				72.2,21.3 55.4,38.1 55.4,38.1 66.6,38.1 77.8,26.9 89,38.1 111.3,38.1 122.5,26.9 133.7,38.1 156,38.1 167.3,26.9 178.5,38.1 
				200.8,38.1 212,26.9 223.2,38.1 245.5,38.1 256.7,26.9 267.9,38.1 290.3,38.1 301.5,26.9 312.7,38.1 323.8,38.1 323.8,38.1 
				307,21.3 			"/>
		</g>
	</g>
</g>
<rect x="0" y="0" class="st28" width="100" height="100"/>
<g>
	<defs>
		<rect id="SVGID_17_" x="0" y="140" width="100" height="100"/>
	</defs>
	<clipPath id="SVGID_16_">
		<use xlink:href="#SVGID_17_"  style="overflow:visible;"/>
	</clipPath>
	<g class="st21">
		<g>
			<defs>
				<rect id="SVGID_19_" x="-31.9" y="-63.9" width="172.2" height="516.6"/>
			</defs>
			<clipPath id="SVGID_18_">
				<use xlink:href="#SVGID_19_"  style="overflow:visible;"/>
			</clipPath>
			<g class="st35">
				<rect x="84.3" y="-6.4" class="st5" width="57.5" height="57.5"/>
				<polygon class="st37" points="87.7,-6.4 84.3,-3 84.3,0.3 91,-6.4 				"/>
				<polygon class="st37" points="118.1,-6.4 84.3,27.4 84.3,30.8 121.5,-6.4 				"/>
				<polygon class="st37" points="124.9,-6.4 84.3,34.2 84.3,51.1 84.3,51.1 141.8,-6.4 				"/>
				<polygon class="st38" points="91,-6.4 84.3,0.3 84.3,27.4 118.1,-6.4 				"/>
				<polygon class="st13" points="121.5,-6.4 84.3,30.8 84.3,34.2 124.9,-6.4 				"/>
				<polygon class="st37" points="141.8,-3 87.7,51.1 91,51.1 141.8,0.3 				"/>
				<polygon class="st38" points="141.8,0.3 91,51.1 118.1,51.1 141.8,27.4 				"/>
				<polygon class="st13" points="141.8,-6.4 84.3,51.1 87.7,51.1 141.8,-3 				"/>
			</g>
			<g class="st35">
				<rect x="84.3" y="51.1" class="st5" width="57.5" height="57.5"/>
				<polygon class="st37" points="87.7,51.1 84.3,54.5 84.3,57.8 91,51.1 				"/>
				<polygon class="st37" points="118.1,51.1 84.3,84.9 84.3,88.3 121.5,51.1 				"/>
				<polygon class="st37" points="124.9,51.1 84.3,91.7 84.3,108.6 84.3,108.6 141.8,51.1 				"/>
				<polygon class="st38" points="91,51.1 84.3,57.8 84.3,84.9 118.1,51.1 				"/>
				<polygon class="st13" points="87.7,51.1 84.3,51.1 84.3,51.1 84.3,54.5 				"/>
				<polygon class="st13" points="121.5,51.1 84.3,88.3 84.3,91.7 124.9,51.1 				"/>
				<polygon class="st37" points="141.8,54.5 87.7,108.6 91,108.6 141.8,57.8 				"/>
				<polygon class="st38" points="141.8,57.8 91,108.6 118.1,108.6 141.8,84.9 				"/>
				<polygon class="st13" points="141.8,51.1 84.3,108.6 87.7,108.6 141.8,54.5 				"/>
			</g>
			<g class="st35">
				<rect x="26.8" y="-6.4" class="st5" width="57.5" height="57.5"/>
				<polygon class="st37" points="30.2,-6.4 26.8,-3 26.8,0.3 33.5,-6.4 				"/>
				<polygon class="st37" points="60.6,-6.4 26.8,27.4 26.8,30.8 64,-6.4 				"/>
				<polygon class="st37" points="67.4,-6.4 26.8,34.2 26.8,51.1 26.8,51.1 84.3,-6.4 				"/>
				<polygon class="st38" points="33.5,-6.4 26.8,0.3 26.8,27.4 60.6,-6.4 				"/>
				<polygon class="st13" points="64,-6.4 26.8,30.8 26.8,34.2 67.4,-6.4 				"/>
				<polygon class="st37" points="84.3,-3 30.2,51.1 33.5,51.1 84.3,0.3 				"/>
				<polygon class="st37" points="84.3,27.4 60.6,51.1 64,51.1 84.3,30.8 				"/>
				<polygon class="st37" points="67.4,51.1 84.3,51.1 84.3,34.2 				"/>
				<polygon class="st38" points="84.3,0.3 33.5,51.1 60.6,51.1 84.3,27.4 				"/>
				<polygon class="st13" points="84.3,-6.4 26.8,51.1 30.2,51.1 84.3,-3 				"/>
				<polygon class="st13" points="84.3,30.8 64,51.1 67.4,51.1 84.3,34.2 				"/>
			</g>
			<g class="st35">
				<rect x="26.8" y="51.1" class="st5" width="57.5" height="57.5"/>
				<polygon class="st37" points="30.2,51.1 26.8,54.5 26.8,57.8 33.5,51.1 				"/>
				<polygon class="st37" points="60.6,51.1 26.8,84.9 26.8,88.3 64,51.1 				"/>
				<polygon class="st37" points="67.4,51.1 26.8,91.7 26.8,108.6 26.8,108.6 84.3,51.1 				"/>
				<polygon class="st38" points="33.5,51.1 26.8,57.8 26.8,84.9 60.6,51.1 				"/>
				<polygon class="st13" points="30.2,51.1 26.8,51.1 26.8,51.1 26.8,54.5 				"/>
				<polygon class="st13" points="64,51.1 26.8,88.3 26.8,91.7 67.4,51.1 				"/>
				<polygon class="st37" points="84.3,54.5 30.2,108.6 33.5,108.6 84.3,57.8 				"/>
				<polygon class="st37" points="84.3,84.9 60.6,108.6 64,108.6 84.3,88.3 				"/>
				<polygon class="st37" points="67.4,108.6 84.3,108.6 84.3,91.7 				"/>
				<polygon class="st38" points="84.3,57.8 33.5,108.6 60.6,108.6 84.3,84.9 				"/>
				<polygon class="st13" points="84.3,51.1 26.8,108.6 30.2,108.6 84.3,54.5 				"/>
				<polygon class="st13" points="84.3,88.3 64,108.6 67.4,108.6 84.3,91.7 				"/>
			</g>
			<g class="st35">
				<rect x="-30.7" y="-6.4" class="st5" width="57.5" height="57.5"/>
				<polygon class="st37" points="3.1,-6.4 -30.7,27.4 -30.7,30.8 6.5,-6.4 				"/>
				<polygon class="st37" points="9.9,-6.4 -30.7,34.2 -30.7,51.1 -30.7,51.1 26.8,-6.4 				"/>
				<polygon class="st38" points="-24,-6.4 -30.7,0.3 -30.7,27.4 3.1,-6.4 				"/>
				<polygon class="st13" points="6.5,-6.4 -30.7,30.8 -30.7,34.2 9.9,-6.4 				"/>
				<polygon class="st37" points="26.8,-3 -27.3,51.1 -24,51.1 26.8,0.3 				"/>
				<polygon class="st37" points="26.8,27.4 3.1,51.1 6.5,51.1 26.8,30.8 				"/>
				<polygon class="st37" points="9.9,51.1 26.8,51.1 26.8,34.2 				"/>
				<polygon class="st38" points="26.8,0.3 -24,51.1 3.1,51.1 26.8,27.4 				"/>
				<polygon class="st13" points="26.8,-6.4 -30.7,51.1 -27.3,51.1 26.8,-3 				"/>
				<polygon class="st13" points="26.8,30.8 6.5,51.1 9.9,51.1 26.8,34.2 				"/>
			</g>
			<g class="st35">
				<rect x="-30.7" y="51.1" class="st5" width="57.5" height="57.5"/>
				<polygon class="st37" points="3.1,51.1 -30.7,84.9 -30.7,88.3 6.5,51.1 				"/>
				<polygon class="st37" points="9.9,51.1 -30.7,91.7 -30.7,108.6 -30.7,108.6 26.8,51.1 				"/>
				<polygon class="st38" points="-24,51.1 -30.7,57.8 -30.7,84.9 3.1,51.1 				"/>
				<polygon class="st13" points="6.5,51.1 -30.7,88.3 -30.7,91.7 9.9,51.1 				"/>
				<polygon class="st37" points="26.8,54.5 -27.3,108.6 -24,108.6 26.8,57.8 				"/>
				<polygon class="st37" points="26.8,84.9 3.1,108.6 6.5,108.6 26.8,88.3 				"/>
				<polygon class="st37" points="9.9,108.6 26.8,108.6 26.8,91.7 				"/>
				<polygon class="st38" points="26.8,57.8 -24,108.6 3.1,108.6 26.8,84.9 				"/>
				<polygon class="st13" points="26.8,51.1 -30.7,108.6 -27.3,108.6 26.8,54.5 				"/>
				<polygon class="st13" points="26.8,88.3 6.5,108.6 9.9,108.6 26.8,91.7 				"/>
			</g>
		</g>
	</g>
</g>
<g>
	<defs>
		<rect id="SVGID_21_" x="140" y="140" width="100" height="100"/>
	</defs>
	<clipPath id="SVGID_20_">
		<use xlink:href="#SVGID_21_"  style="overflow:visible;"/>
	</clipPath>
	<g class="st36">
		<g>
			<defs>
				<rect id="SVGID_23_" x="100.8" y="-61.7" width="154.9" height="464.7"/>
			</defs>
			<clipPath id="SVGID_22_">
				<use xlink:href="#SVGID_23_"  style="overflow:visible;"/>
			</clipPath>
			<g class="st39">
				<rect x="80" y="-3.9" class="st5" width="57.8" height="57.8"/>
				<polygon class="st13" points="104.4,-3.9 80,20.4 80,23.5 107.4,-3.9 				"/>
				<polygon class="st13" points="110.4,-3.9 80,26.5 80,53.9 137.8,-3.9 				"/>
				<polygon class="st37" points="80,-3.9 80,20.4 104.4,-3.9 				"/>
				<polygon class="st38" points="107.4,-3.9 80,23.5 80,26.5 110.4,-3.9 				"/>
				<polygon class="st37" points="137.8,-3.9 137.8,-3.9 80,53.9 80,53.9 104.4,53.9 137.8,20.4 				"/>
			</g>
			<g class="st39">
				<rect x="80" y="53.9" class="st5" width="57.8" height="57.8"/>
				<polygon class="st13" points="104.4,53.9 80,78.2 80,81.3 107.4,53.9 				"/>
				<polygon class="st13" points="110.4,53.9 80,84.3 80,111.7 137.8,53.9 				"/>
				<polygon class="st37" points="80,53.9 80,78.2 104.4,53.9 				"/>
				<polygon class="st38" points="107.4,53.9 80,81.3 80,84.3 110.4,53.9 				"/>
				<polygon class="st37" points="137.8,53.9 137.8,53.9 80,111.7 80,111.7 104.4,111.7 137.8,78.2 				"/>
			</g>
		</g>
	</g>
</g>
<g>
	<g>
		<path class="st55" d="M61.6,41.5c0.1-0.6,0.1-1.3-0.3-1.9c-0.3-0.5-0.9-0.8-1.4-0.8c-0.4,0-0.7,0-1.1,0.1c-0.1,0-0.1,0-0.2,0.1
			c-0.1,0-0.2,0.1-0.2,0.1c0.1-0.1,0.1-0.1,0,0c-0.3,0.2-0.5,0.4-0.7,0.7c-0.3,0.7,0.3,1.4,1,1.4c0.3,0,0.7-0.2,0.9-0.4
			c0,0,0,0,0.1,0c0,0.1,0,0.1,0,0.2c0,0.3,0,0.3-0.2,0.7c-0.1,0.1-0.2,0.3-0.3,0.4c-0.1,0.1-0.2,0.1-0.3,0.2c0.1,0-0.1,0.1-0.2,0.1
			c-0.9,0.3-2.1-0.2-3.3,0c0.5-1,0.9-2.1,1.5-3.6c0.1,0,0.1-0.1,0.2-0.1c1.2-0.7,3.6-0.3,5.4-0.6c0.8-0.1,1.8-0.3,2-1.2
			c0.1-0.5-0.2-0.9-0.7-1c-0.1,0-0.3,0-0.4,0c0.1,0-0.2,0-0.3,0.1C62.5,36,62.5,36,62,36.1c0.2-0.3,0.4-0.7,0.3-1.1
			c0-0.6-0.7-1-1.2-0.7c-0.5,0.2-0.7,0.6-0.8,1.1c-0.1,0.3-0.1,0.7-0.3,1c-0.8,0.1-1.6,0.2-2.4,0.4c0.6-1.4,1.2-2.8,1.8-4.2
			c0.1,0,0.1-0.1,0.5-0.2c0.3-0.1,0.3-0.1,0.6-0.1c0.4-0.1,0.8-0.1,1.2-0.1c1.1,0.4,2.3,2.4,3.5,2.5c-0.2-0.1-0.2-0.1,0.1,0
			c0.4,0.1,0.9-0.1,1.1-0.4c0.6-0.8-0.3-1.9-1.2-1.3c-0.1,0-0.1,0-0.2-0.1c0.1,0-0.2-0.1-0.2-0.1c-0.2-0.2-0.4-0.3-0.7-0.5
			c0.6,0,1.1,0,1.7,0c-0.2,0,0,0,0.1,0c0.3,0,0.8,0,1.1,0c1.3-0.1,3-1,2.7-2.6c-0.1-0.6-0.9-0.8-1.4-0.6c-0.4,0.1-0.6,0.4-0.8,0.7
			c-0.1,0.1-0.2,0.3-0.3,0.3c-0.1,0.1-0.2,0.2-0.3,0.2c-0.4,0.2-0.9,0.4-1.3,0.4c0.2-0.3,0.5-0.6,0.5-1.1c0.1-0.5-0.3-1-0.8-1.1
			c-0.5,0-0.9,0.1-1.2,0.5c-0.4,0.6-0.6,1.1-0.6,1.7c-1.1,0-2.2-0.1-3.3,0.2c0.4-0.8,0.7-1.5,1.1-2.3c0.8-0.4,1.6-0.7,2.4-1
			c0.4-0.2,0.9-0.3,1.3-0.5c0.4-0.2,0.9-0.3,1.2-0.7c0.1-0.2,0.1-0.4-0.1-0.6c-0.4-0.3-0.9-0.3-1.4-0.3c-0.6,0.1-1.1,0.3-1.6,0.5
			c-0.3,0.1-0.5,0.3-0.8,0.5c0.4-0.8,0.8-1.6,1.1-2.4c0.3-0.8,0.6-1.8,0-2.5c0,0-0.1-0.1-0.1-0.1c-0.1,0-0.1,0-0.2,0
			c-1,0.1-1.5,0.9-1.9,1.7c-0.4,0.8-0.8,1.6-1.1,2.4c0-0.3-0.1-0.6-0.2-0.9c-0.2-0.5-0.3-1.1-0.7-1.5c-0.3-0.4-0.7-0.8-1.1-0.9
			c-0.2,0-0.4,0.1-0.5,0.3c-0.1,0.5,0.1,0.9,0.3,1.4c0.1,0.4,0.4,0.8,0.5,1.3c0.3,0.8,0.7,1.6,0.9,2.5c-0.3,0.8-0.6,1.6-0.9,2.4
			c-0.5-1-1.3-1.8-2.1-2.6c0.5-0.4,0.7-0.8,0.9-1.5c0.1-0.5-0.2-0.9-0.5-1.2c-0.4-0.4-1-0.2-1.3,0.1c-0.3,0.4-0.4,0.8-0.5,1.1
			c-0.2-0.3-0.5-0.9-0.6-1.3c0-0.1,0-0.2,0-0.4c0-0.1,0-0.3,0-0.4c0.1-0.4,0.1-0.7,0-1c-0.2-0.5-0.8-0.9-1.4-0.6
			c-1.4,0.8-0.9,2.6-0.1,3.7c0.2,0.3,0.5,0.6,0.7,0.8c0,0,0.2,0.2,0,0c0.3,0.4,0.7,0.8,1.1,1.2c-0.3,0-0.5-0.1-0.8-0.2
			c0,0-0.3-0.1-0.2-0.1c-0.1,0-0.1,0-0.2-0.1c-0.2-1.1-1.6-1-1.8,0c-0.1,0.4,0.1,0.9,0.4,1.1c0.2,0.1,0.3,0.2,0.1,0.1
			c0.9,0.9,3.1,0.4,4.2,1c0.3,0.3,0.5,0.6,0.7,1c0.2,0.3,0.2,0.2,0.3,0.6c0.2,0.4,0.2,0.4,0.2,0.5c-0.6,1.4-1.3,2.8-2,4.1
			c-0.3-0.7-0.8-1.4-1.3-2c0.1-0.3,0.4-0.6,0.5-0.8c0.3-0.5,0.4-0.8,0.2-1.3c-0.2-0.5-0.9-0.8-1.4-0.4c-0.3,0.3-0.5,0.6-0.6,1
			c-0.3-0.4-0.2-0.5-0.4-1.1c0-0.1-0.2-0.3-0.1-0.2c-0.1-0.1-0.1-0.3-0.3-0.3c-0.4-0.3-0.9-0.3-1.2,0.1c-0.5,0.8,0,1.6,0.5,2.3
			c1,1.5,2.8,3,3.1,4.4c0,0.1,0,0.1,0,0.2c-0.7,1.5-1.2,2.5-1.7,3.6c-0.7-1-1.8-1.6-2.2-2.5c0,0-0.1-0.2-0.1-0.2c0-0.2,0-0.3,0-0.4
			c0-0.1,0-0.3,0.1-0.4c0.1-0.3,0.2-0.4,0.4-0.6c0,0,0.1-0.1,0.1-0.1c0,0,0,0,0,0.1c0,0.3,0.1,0.7,0.3,1c0.5,0.6,1.4,0.6,1.7-0.2
			c0.2-0.3,0.1-0.6,0.1-1c0-0.1,0-0.1,0,0c0-0.1,0-0.2-0.1-0.3c0-0.1-0.1-0.1-0.1-0.2c-0.2-0.3-0.4-0.6-0.6-0.9
			c-0.4-0.4-1-0.6-1.5-0.5c-0.7,0.1-1.2,0.5-1.6,1.1c-0.5-0.4-1.1-0.7-1.8-0.7c-0.6,0-1.1,0.4-1.4,0.8c-0.2,0.3-0.4,0.6-0.5,1
			c0,0.1,0,0.1-0.1,0.2c0,0.1,0,0.2,0,0.3c0-0.1,0-0.2,0,0c0,0.4,0,0.7,0.3,1c0.5,0.7,1.4,0.5,1.7-0.2c0.2-0.3,0.2-0.7,0.1-1
			c0,0,0,0,0-0.1c0,0,0.1,0,0.1,0.1c0.2,0.2,0.3,0.2,0.5,0.5c0.1,0.1,0.1,0.3,0.2,0.4c0,0.1,0,0.2,0,0.4c0-0.1,0,0.2,0,0.2
			c-0.2,0.9-1.2,1.7-1.7,2.9c-0.7-0.9-1.4-1.8-2.4-3.1c0-0.1,0-0.1,0-0.2c0-1.4,1.5-3.3,2.2-4.9c0.3-0.8,0.6-1.7,0-2.4
			c-0.4-0.4-0.9-0.2-1.2,0.1c-0.1,0.1-0.1,0.3-0.2,0.4c0-0.1-0.1,0.2-0.1,0.3c-0.1,0.6-0.1,0.7-0.2,1.1c-0.2-0.3-0.4-0.6-0.8-0.8
			c-0.5-0.3-1.2,0.1-1.3,0.7c-0.1,0.5,0.2,0.9,0.5,1.3c0.2,0.2,0.5,0.4,0.7,0.7c-0.3,0.7-0.7,1.5-0.8,2.3c-0.9-1.2-1.9-2.4-2.8-3.6
			c0-0.1,0-0.2,0.1-0.6c0.1-0.3,0.1-0.3,0.2-0.6c0.2-0.4,0.3-0.8,0.5-1.1c0.9-0.8,3.2-0.8,3.9-1.8c-0.2,0.1-0.1,0.1,0.1-0.1
			c0.2-0.3,0.3-0.8,0.2-1.2c-0.4-0.9-1.8-0.7-1.7,0.4c0,0-0.1,0.1-0.1,0.1c0.1-0.1-0.2,0.1-0.2,0.1c-0.3,0.1-0.5,0.2-0.8,0.3
			c0.3-0.5,0.6-1,0.8-1.4c-0.1,0.2,0,0,0,0c0.2-0.3,0.4-0.6,0.5-1c0.6-1.2,0.7-3.1-0.9-3.6c-0.6-0.2-1.1,0.4-1.2,0.9
			c-0.1,0.4,0,0.7,0.2,1c0.1,0.2,0.1,0.3,0.1,0.4c0,0.1,0,0.3,0,0.4c0,0.4-0.1,1-0.3,1.4c-0.2-0.3-0.3-0.7-0.7-1
			c-0.4-0.3-1-0.3-1.3,0.1c-0.2,0.4-0.4,0.8-0.2,1.3c0.3,0.7,0.6,1,1.2,1.3c-0.6,1-1.2,1.9-1.5,3c-0.5-0.7-0.9-1.4-1.4-2.1
			c0-0.9,0.2-1.7,0.4-2.6c0.1-0.5,0.2-0.9,0.2-1.3c0.1-0.5,0.2-1,0-1.4c-0.1-0.2-0.3-0.3-0.5-0.2c-0.5,0.2-0.7,0.6-0.9,1.1
			c-0.2,0.5-0.3,1.1-0.4,1.6c0,0.3,0,0.6,0,0.9c-0.5-0.8-1-1.5-1.5-2.2c-0.6-0.7-1.3-1.4-2.2-1.3c-0.1,0-0.1,0-0.2,0
			c0,0-0.1,0.1-0.1,0.1c-0.4,0.9,0.1,1.8,0.5,2.5c0.5,0.8,1,1.5,1.6,2.1c-0.3-0.1-0.6-0.2-0.9-0.3c-0.5-0.1-1.1-0.2-1.7-0.2
			c-0.5,0.1-1,0.2-1.3,0.6c-0.1,0.2-0.1,0.4,0.1,0.6c0.4,0.3,0.9,0.3,1.3,0.4c0.4,0.1,0.9,0.1,1.4,0.2c0.8,0.2,1.7,0.2,2.6,0.5
			c0.5,0.7,1.1,1.3,1.6,2c-1.1,0-2.2,0.2-3.3,0.5c-0.1-0.6-0.4-1-0.9-1.5c-0.4-0.3-0.9-0.3-1.3-0.2c-0.5,0.1-0.7,0.8-0.5,1.2
			c0.2,0.5,0.5,0.7,0.7,1c-0.4,0.1-1,0-1.4-0.1c-0.1,0-0.2-0.1-0.4-0.2c-0.1,0-0.2-0.1-0.4-0.2c-0.3-0.2-0.5-0.4-0.9-0.5
			c-0.5-0.1-1.2,0.3-1.2,0.9c-0.1,1.6,1.8,2.1,3.1,2c0.3,0,0.8-0.1,1.1-0.2c0,0,0.2-0.1,0.1,0c0.5-0.1,1.1-0.2,1.6-0.3
			c-0.2,0.2-0.4,0.4-0.5,0.6c0,0-0.3,0.2-0.2,0.2c0,0-0.1,0.1-0.1,0.1c-1-0.4-1.6,0.9-0.9,1.5c0.3,0.3,0.8,0.3,1.1,0.2
			c0.2-0.1,0.3-0.1,0.1,0c1.2-0.3,1.9-2.5,2.9-3.2c0.4-0.1,0.8-0.1,1.2-0.1c0.3,0,0.3,0,0.6,0c0.4,0,0.4,0.1,0.6,0.1
			c0.9,1.3,1.7,2.5,2.6,3.8c-0.8-0.1-1.6,0-2.4,0.1c-0.2-0.2-0.3-0.6-0.5-0.9c-0.3-0.4-0.5-0.8-1-0.9c-0.5-0.1-1.1,0.4-1,1
			c0.1,0.4,0.3,0.7,0.6,1c-0.5,0-0.5,0-1.1-0.1c-0.1,0-0.4,0-0.3,0c-0.1,0-0.3,0-0.4,0.1c-0.4,0.2-0.8,0.6-0.5,1.1
			c0.4,0.8,1.4,0.8,2.2,0.8c1.8-0.1,4-1,5.4-0.5c0.1,0,0.1,0,0.2,0.1c0.9,1.4,1.6,2.3,2.2,3.3C44,43.3,43,44,42,43.9
			c0,0-0.2-0.1-0.2,0c-0.2-0.1-0.3-0.1-0.4-0.2c-0.1-0.1-0.3-0.2-0.3-0.3c-0.2-0.3-0.2-0.3-0.3-0.6c0,0,0-0.1,0-0.2c0,0,0,0,0.1,0
			c0.3,0.2,0.6,0.3,1,0.2c0.7-0.1,1.2-0.9,0.7-1.6c-0.2-0.3-0.5-0.4-0.8-0.5c-0.1,0-0.1,0,0,0c-0.1,0-0.2-0.1-0.3-0.1
			c-0.1,0-0.1,0-0.2,0c-0.4,0-0.7,0-1.1,0.1c-0.5,0.2-1,0.5-1.2,1.1c-0.2,0.7-0.1,1.3,0.1,1.9c-0.6,0.2-1.2,0.6-1.5,1.2
			c-0.3,0.5-0.2,1.1,0,1.6c0.1,0.3,0.4,0.6,0.6,0.9c0,0.1,0.1,0.1,0.1,0.1c0.1,0,0.2,0.1,0.2,0.1c-0.1-0.1-0.1-0.1,0,0
			c0.3,0.2,0.6,0.3,1,0.3c0.8-0.1,1.1-1,0.7-1.6c-0.2-0.3-0.5-0.5-0.8-0.6c0,0,0,0,0,0c0,0,0.1-0.1,0.1-0.1c0.2-0.1,0.3-0.1,0.7-0.2
			c0.1,0,0.3,0,0.4,0.1c0.1,0,0.2,0.1,0.4,0.2c-0.1,0,0.1,0.1,0.1,0.1c0.7,0.7,0.9,1.9,1.6,2.9c-1.1,0.1-2.3,0.3-3.9,0.5
			c-0.1,0-0.1-0.1-0.2-0.1c-1.2-0.7-2.1-3-3.2-4.3c-0.5-0.6-1.2-1.4-2.1-1.2c-0.5,0.1-0.6,0.7-0.5,1.1c0,0.1,0.1,0.2,0.2,0.4
			c-0.1-0.1,0.1,0.1,0.2,0.2c0.5,0.4,0.6,0.4,0.9,0.8c-0.4,0-0.8,0-1.1,0.2c-0.5,0.3-0.5,1.1,0,1.4c0.4,0.3,0.8,0.3,1.3,0.2
			c0.3-0.1,0.7-0.3,1-0.2c0.5,0.7,1,1.3,1.6,1.8c-1.5,0.2-3,0.4-4.5,0.6C32.3,50,32.3,50,32,49.8c-0.2-0.2-0.2-0.2-0.4-0.5
			c-0.3-0.3-0.5-0.7-0.7-1c-0.2-1.2,0.9-3.2,0.4-4.3c0,0.2,0,0.2,0-0.1c-0.1-0.4-0.5-0.7-0.9-0.7c-1-0.1-1.5,1.2-0.5,1.7
			c0,0.1,0,0.1,0,0.2c0-0.1,0,0.2,0,0.2c0,0.3-0.1,0.6-0.1,0.8c-0.3-0.5-0.5-1-0.8-1.5c0.1,0.2,0,0,0-0.1c-0.1-0.3-0.4-0.7-0.6-0.9
			c-0.8-1.1-2.4-2.2-3.5-1c-0.4,0.4-0.2,1.1,0.2,1.5c0.3,0.2,0.6,0.3,1,0.4c0.2,0,0.3,0.1,0.4,0.1c0.1,0,0.2,0.1,0.4,0.2
			c0.3,0.2,0.8,0.6,1,1c-0.4,0-0.7-0.1-1.2,0.1C26,46,25.7,46.6,25.9,47c0.2,0.4,0.5,0.8,1,0.8c0.7,0.1,1.2,0,1.7-0.3
			c0.5,1,1.1,2,1.8,2.8c-0.8,0.1-1.7,0.1-2.5,0.2c-0.7-0.5-1.4-1.1-2.1-1.6c-0.4-0.3-0.7-0.6-1-0.9c-0.4-0.3-0.7-0.6-1.2-0.7
			c-0.2,0-0.4,0.1-0.5,0.3c-0.1,0.5,0.2,1,0.5,1.4c0.3,0.5,0.8,0.8,1.3,1.1c0.3,0.2,0.5,0.3,0.8,0.5c-0.9,0-1.8,0.1-2.6,0.3
			c-0.9,0.2-1.8,0.4-2.2,1.3c0,0.1,0,0.1,0,0.2c0,0.1,0,0.1,0.1,0.1c0.5,0.8,1.5,0.8,2.4,0.8c0.9,0,1.8-0.1,2.6-0.3
			c-0.2,0.2-0.5,0.4-0.7,0.6c-0.4,0.4-0.8,0.8-1,1.4c-0.2,0.4-0.3,1-0.2,1.4c0.1,0.2,0.3,0.3,0.5,0.2c0.4-0.2,0.7-0.6,1-0.9
			c0.3-0.3,0.5-0.7,0.8-1.1c0.6-0.7,1.1-1.4,1.7-2c0.8-0.1,1.7-0.3,2.5-0.4c-0.6,1-0.9,2-1.2,3.1c-0.6-0.2-1.1-0.2-1.8,0
			c-0.5,0.1-0.7,0.6-0.8,1c-0.2,0.5,0.3,1,0.8,1.1c0.5,0.1,0.8-0.1,1.2-0.1c-0.2,0.4-0.5,0.9-0.8,1.1c-0.1,0.1-0.2,0.2-0.3,0.2
			c-0.1,0-0.2,0.1-0.4,0.2c-0.3,0.1-0.6,0.2-0.9,0.6c-0.3,0.4-0.3,1.2,0.2,1.5c1.4,0.9,2.7-0.5,3.3-1.7c0.1-0.3,0.3-0.7,0.3-1
			c0,0,0.1-0.2,0-0.1c0.2-0.5,0.4-1.1,0.5-1.6c0.1,0.3,0.2,0.5,0.3,0.8c0,0,0.1,0.3,0.1,0.2c0,0.1,0,0.1,0,0.2
			c-0.9,0.7-0.1,1.8,0.8,1.5c0.4-0.1,0.7-0.5,0.7-0.9c0-0.3,0-0.3,0-0.1c0.3-1.2-1.2-2.9-1.3-4.1c0.1-0.4,0.3-0.8,0.5-1.1
			c0.1-0.3,0.1-0.3,0.3-0.5c0.2-0.3,0.3-0.3,0.4-0.4c1.5-0.1,3-0.2,4.6-0.3c-0.5,0.6-0.8,1.4-1.1,2.1c-0.3,0.1-0.7,0-1,0
			c-0.5,0-0.9,0.1-1.3,0.5c-0.4,0.4-0.2,1.2,0.3,1.4c0.4,0.1,0.8,0.1,1.1,0C35,56,34.9,56,34.5,56.5c-0.1,0.1-0.2,0.3-0.2,0.2
			c-0.1,0.1-0.2,0.2-0.2,0.4c-0.1,0.5,0.2,1,0.7,1c0.9,0,1.4-0.8,1.8-1.6c0.8-1.6,1.2-4,2.2-4.9c0.1,0,0.1-0.1,0.2-0.1
			c1.7-0.1,2.8-0.2,3.9-0.3c-0.5,1.1-0.5,2.4-1,3.2c0,0-0.2,0.2-0.1,0.1c-0.1,0.1-0.2,0.2-0.3,0.2c-0.1,0.1-0.3,0.1-0.4,0.2
			c-0.4,0.1-0.4,0-0.7,0c0,0-0.1,0-0.1-0.1c0,0,0,0,0-0.1c0.3-0.2,0.6-0.4,0.7-0.8c0.2-0.7-0.2-1.5-1-1.4c-0.4,0-0.6,0.2-0.9,0.4
			c-0.1,0.1-0.1,0.1,0,0c-0.1,0.1-0.1,0.1-0.2,0.2c0,0.1-0.1,0.1-0.1,0.2c-0.2,0.3-0.4,0.6-0.4,1c-0.1,0.5,0,1.2,0.3,1.6
			c0.5,0.5,1.1,0.8,1.7,0.8c-0.1,0.6-0.1,1.3,0.3,1.9c0.3,0.5,0.9,0.8,1.4,0.8c0.4,0,0.7,0,1.1-0.1c0.1,0,0.1,0,0.2-0.1
			c0.1,0,0.2-0.1,0.2-0.1c-0.1,0.1-0.1,0,0,0c0.3-0.2,0.5-0.4,0.7-0.7c0.3-0.7-0.3-1.4-1-1.4c-0.3,0-0.7,0.2-0.9,0.4c0,0,0,0-0.1,0
			c0-0.1,0-0.1,0-0.2c0-0.3,0-0.3,0.2-0.7c0.1-0.1,0.2-0.3,0.3-0.4c0.1-0.1,0.2-0.1,0.3-0.2c-0.1,0,0.1-0.1,0.2-0.1
			c0.9-0.3,2.1,0.2,3.3,0c-0.5,1-0.9,2.1-1.5,3.6c-0.1,0-0.1,0.1-0.2,0.1c-1.2,0.7-3.6,0.3-5.4,0.6c-0.8,0.1-1.8,0.3-2,1.2
			c-0.1,0.5,0.2,0.9,0.7,1c0.1,0,0.3,0,0.4,0c-0.1,0,0.2,0,0.3-0.1c0.6-0.2,0.6-0.3,1.1-0.4c-0.2,0.3-0.4,0.7-0.3,1.1
			c0,0.6,0.7,1,1.2,0.7c0.5-0.2,0.7-0.6,0.8-1.1c0.1-0.3,0.1-0.7,0.3-1c0.8-0.1,1.6-0.2,2.4-0.4c-0.6,1.4-1.2,2.8-1.8,4.2
			c-0.1,0-0.1,0.1-0.5,0.2c-0.3,0.1-0.3,0.1-0.6,0.1c-0.4,0.1-0.8,0.1-1.2,0.1c-1.1-0.4-2.3-2.4-3.5-2.5c0.2,0.1,0.2,0.1-0.1,0
			c-0.4-0.1-0.9,0.1-1.1,0.4c-0.6,0.8,0.3,1.9,1.2,1.3c0.1,0,0.1,0,0.2,0.1c-0.1,0,0.2,0.1,0.2,0.1c0.2,0.2,0.4,0.3,0.7,0.5
			c-0.6,0-1.1,0-1.7,0c0.2,0,0,0-0.1,0c-0.3,0-0.8,0-1.1,0c-1.3,0.1-3,1-2.7,2.6c0.1,0.6,0.9,0.8,1.4,0.6c0.4-0.1,0.6-0.4,0.8-0.7
			c0.1-0.1,0.2-0.3,0.3-0.3c0.1-0.1,0.2-0.2,0.3-0.2c0.4-0.2,0.9-0.4,1.3-0.4c-0.2,0.3-0.5,0.6-0.5,1.1c-0.1,0.5,0.3,1,0.8,1.1
			c0.5,0,0.9-0.1,1.2-0.5c0.4-0.6,0.6-1.1,0.6-1.7c1.1,0,2.2,0.1,3.3-0.2c-0.4,0.8-0.7,1.5-1.1,2.3c-0.8,0.4-1.6,0.7-2.4,1
			c-0.4,0.2-0.9,0.3-1.3,0.5c-0.4,0.2-0.9,0.3-1.2,0.7c-0.1,0.2-0.1,0.4,0.1,0.6c0.4,0.3,0.9,0.3,1.4,0.3c0.6-0.1,1.1-0.3,1.6-0.5
			c0.3-0.1,0.5-0.3,0.8-0.5c-0.4,0.8-0.8,1.6-1.1,2.4c-0.3,0.8-0.6,1.8,0,2.5c0,0,0.1,0.1,0.1,0.1c0.1,0,0.1,0,0.2,0
			c1-0.1,1.5-0.9,1.9-1.7c0.4-0.8,0.8-1.6,1.1-2.4c0,0.3,0.1,0.6,0.2,0.9c0.2,0.5,0.3,1.1,0.7,1.5c0.3,0.4,0.7,0.8,1.1,0.9
			c0.2,0,0.4-0.1,0.5-0.3c0.1-0.5-0.1-0.9-0.3-1.4c-0.1-0.4-0.4-0.8-0.5-1.3c-0.3-0.8-0.7-1.6-0.9-2.5c0.3-0.8,0.6-1.6,0.9-2.4
			c0.5,1,1.3,1.8,2.1,2.6c-0.5,0.4-0.7,0.8-0.9,1.5c-0.1,0.5,0.2,0.9,0.5,1.2c0.4,0.4,1,0.2,1.3-0.1c0.3-0.4,0.4-0.8,0.5-1.1
			c0.2,0.3,0.5,0.9,0.6,1.3c0,0.1,0,0.2,0,0.4c0,0.1,0,0.3,0,0.4c-0.1,0.4-0.1,0.7,0,1c0.2,0.5,0.8,0.9,1.4,0.6
			c1.4-0.8,0.9-2.6,0.1-3.7c-0.2-0.3-0.5-0.6-0.7-0.8c0,0-0.2-0.2,0,0c-0.3-0.4-0.7-0.8-1.1-1.2c0.3,0,0.5,0.1,0.8,0.2
			c0,0,0.3,0.1,0.2,0.1c0.1,0,0.1,0,0.2,0.1c0.2,1.1,1.6,1,1.8,0c0.1-0.4-0.1-0.9-0.4-1.1c-0.2-0.1-0.3-0.2-0.1-0.1
			c-0.9-0.9-3.1-0.4-4.2-1c-0.3-0.3-0.5-0.6-0.7-1c-0.2-0.3-0.2-0.2-0.3-0.5c-0.2-0.4-0.2-0.4-0.2-0.5c0.7-1.4,1.3-2.8,2-4.1
			c0.3,0.7,0.8,1.4,1.3,2c-0.1,0.3-0.4,0.6-0.5,0.8c-0.3,0.5-0.4,0.8-0.2,1.3c0.2,0.5,0.9,0.8,1.4,0.4c0.3-0.3,0.5-0.6,0.6-1
			c0.3,0.4,0.2,0.5,0.4,1.1c0,0.1,0.2,0.3,0.1,0.2c0.1,0.1,0.1,0.3,0.3,0.3c0.4,0.3,0.9,0.3,1.2-0.1c0.5-0.8,0-1.6-0.5-2.3
			c-1-1.5-2.8-3-3.1-4.4c0-0.1,0-0.1,0-0.2c0.7-1.5,1.2-2.5,1.7-3.6c0.7,1,1.8,1.6,2.2,2.5c0,0,0.1,0.2,0.1,0.2c0,0.2,0,0.3,0,0.4
			c0,0.1,0,0.3-0.1,0.4c-0.1,0.3-0.2,0.4-0.4,0.6c0,0-0.1,0.1-0.1,0.1c0,0,0,0,0-0.1c0-0.3-0.1-0.7-0.3-1c-0.5-0.6-1.4-0.6-1.7,0.2
			c-0.2,0.3-0.1,0.6-0.1,1c0,0.1,0,0.1,0,0c0,0.1,0,0.2,0.1,0.3c0,0.1,0.1,0.1,0.1,0.2c0.2,0.3,0.4,0.6,0.6,0.9
			c0.4,0.4,1,0.6,1.5,0.5c0.7-0.1,1.2-0.5,1.6-1.1c0.5,0.4,1.1,0.7,1.8,0.7c0.6,0,1.1-0.4,1.4-0.8c0.2-0.3,0.4-0.6,0.5-1
			c0-0.1,0-0.1,0.1-0.2c0-0.1,0-0.2,0-0.3c0,0.1,0,0.2,0,0c0-0.4,0-0.7-0.3-1c-0.5-0.7-1.4-0.5-1.7,0.2c-0.2,0.3-0.2,0.7-0.1,1
			c0,0,0,0,0,0.1c0,0-0.1,0-0.1-0.1c-0.2-0.2-0.3-0.2-0.5-0.5c-0.1-0.1-0.1-0.3-0.2-0.4c0-0.1,0-0.2,0-0.4c0,0.1,0-0.2,0-0.2
			c0.2-0.9,1.2-1.7,1.7-2.9c0.7,0.9,1.4,1.8,2.4,3.1c0,0.1,0,0.1,0,0.2c0,1.4-1.5,3.3-2.2,4.9c-0.3,0.8-0.6,1.7,0,2.4
			c0.4,0.4,0.9,0.2,1.2-0.1c0.1-0.1,0.1-0.2,0.2-0.4c0,0.1,0.1-0.2,0.1-0.3c0.1-0.6,0.1-0.7,0.2-1.1c0.2,0.3,0.4,0.6,0.8,0.8
			c0.5,0.3,1.2-0.1,1.3-0.7c0.1-0.5-0.2-0.9-0.5-1.3c-0.2-0.2-0.5-0.4-0.7-0.7c0.3-0.7,0.7-1.5,0.8-2.3c0.9,1.2,1.9,2.4,2.8,3.6
			c0,0.1,0,0.2-0.1,0.6c-0.1,0.3-0.1,0.3-0.2,0.6c-0.2,0.4-0.3,0.8-0.5,1.1c-0.9,0.8-3.2,0.8-3.9,1.8c0.2-0.1,0.1-0.1-0.1,0.1
			c-0.2,0.3-0.3,0.8-0.2,1.2c0.4,0.9,1.8,0.7,1.7-0.4c0,0,0.1-0.1,0.1-0.1c-0.1,0.1,0.2-0.1,0.2-0.1c0.3-0.1,0.5-0.2,0.8-0.3
			c-0.3,0.5-0.6,1-0.8,1.4c0.1-0.2,0,0,0,0c-0.2,0.3-0.4,0.6-0.5,1c-0.6,1.2-0.7,3.1,0.9,3.6c0.6,0.2,1.1-0.4,1.2-0.9
			c0.1-0.4,0-0.7-0.2-1c-0.1-0.2-0.1-0.3-0.1-0.4c0-0.1,0-0.3,0-0.4c0-0.4,0.1-1,0.3-1.3c0.2,0.3,0.3,0.7,0.7,1
			c0.4,0.3,1,0.3,1.3-0.1c0.2-0.4,0.4-0.8,0.2-1.3c-0.3-0.7-0.6-1-1.2-1.3c0.6-1,1.2-1.9,1.5-3c0.5,0.7,0.9,1.4,1.4,2.1
			c0,0.9-0.2,1.7-0.3,2.6c-0.1,0.5-0.2,0.9-0.2,1.3c0,0.5-0.2,1,0,1.4c0.1,0.2,0.3,0.3,0.5,0.2c0.5-0.2,0.7-0.6,0.9-1.1
			c0.2-0.5,0.3-1.1,0.4-1.6c0-0.3,0-0.6,0-0.9c0.5,0.8,1,1.5,1.5,2.2c0.6,0.7,1.3,1.4,2.2,1.3c0.1,0,0.1,0,0.2,0
			c0,0,0.1-0.1,0.1-0.1c0.4-0.9-0.1-1.8-0.5-2.5c-0.5-0.8-1-1.5-1.6-2.1c0.3,0.1,0.6,0.2,0.9,0.3c0.5,0.1,1.1,0.2,1.7,0.2
			c0.5-0.1,1-0.2,1.3-0.6c0.1-0.2,0.1-0.4-0.1-0.6c-0.4-0.3-0.9-0.3-1.3-0.4c-0.4-0.1-0.9-0.1-1.4-0.2c-0.8-0.2-1.7-0.2-2.6-0.5
			c-0.5-0.7-1.1-1.3-1.6-2c1.1,0,2.2-0.2,3.3-0.5c0.1,0.6,0.4,1,0.9,1.5c0.4,0.3,0.9,0.3,1.3,0.2c0.5-0.1,0.7-0.8,0.5-1.2
			c-0.2-0.5-0.5-0.7-0.7-1c0.4-0.1,1,0,1.4,0.1c0.1,0,0.2,0.1,0.4,0.2c0.1,0,0.2,0.1,0.4,0.2c0.3,0.2,0.5,0.4,0.9,0.5
			c0.5,0.1,1.2-0.3,1.2-0.9c0.1-1.6-1.8-2.1-3.1-2c-0.3,0-0.8,0.1-1.1,0.2c0,0-0.2,0-0.1,0c-0.5,0.1-1.1,0.2-1.6,0.3
			c0.2-0.2,0.4-0.4,0.5-0.6c0,0,0.3-0.2,0.2-0.2c0,0,0.1-0.1,0.1-0.1c1,0.4,1.6-0.9,0.9-1.5c-0.3-0.3-0.8-0.3-1.1-0.2
			c-0.2,0.1-0.3,0.1-0.1,0c-1.2,0.3-1.9,2.5-2.9,3.2c-0.4,0.1-0.8,0.1-1.2,0.1c-0.3,0-0.3,0-0.6,0c-0.4,0-0.4-0.1-0.6-0.1
			c-0.9-1.3-1.7-2.5-2.6-3.8c0.8,0.1,1.6,0,2.4-0.1c0.2,0.2,0.3,0.6,0.5,0.9c0.3,0.4,0.5,0.8,1,0.9c0.5,0.1,1.1-0.4,1-1
			c-0.1-0.4-0.3-0.7-0.6-1c0.5,0,0.5,0,1.1,0.1c0.1,0,0.4,0,0.3,0c0.1,0,0.3,0,0.4-0.1c0.4-0.2,0.8-0.6,0.5-1.1
			c-0.4-0.8-1.4-0.8-2.2-0.8c-1.8,0.1-4,1-5.4,0.5c-0.1,0-0.1,0-0.2-0.1c-0.9-1.4-1.6-2.3-2.2-3.3c1.2-0.1,2.3-0.8,3.2-0.7
			c0,0,0.2,0.1,0.2,0c0.2,0.1,0.3,0.1,0.4,0.2c0.1,0.1,0.3,0.2,0.3,0.3c0.2,0.3,0.2,0.3,0.3,0.6c0,0,0,0.1,0,0.2c0,0,0,0-0.1,0
			c-0.3-0.2-0.6-0.3-1-0.2c-0.7,0.1-1.2,0.9-0.7,1.6c0.2,0.3,0.5,0.4,0.8,0.5c0.1,0,0.1,0,0,0c0.1,0,0.2,0.1,0.3,0.1
			c0.1,0,0.1,0,0.2,0c0.4,0,0.7,0,1.1-0.1c0.5-0.2,1-0.5,1.2-1.1c0.2-0.7,0.1-1.3-0.1-1.9c0.6-0.2,1.2-0.6,1.5-1.2
			c0.3-0.5,0.2-1.1,0-1.6c-0.1-0.3-0.4-0.6-0.6-0.9c0,0-0.1-0.1-0.1-0.1c-0.1,0-0.2-0.1-0.2-0.1c0.1,0.1,0.1,0.1,0,0
			c-0.3-0.2-0.6-0.3-1-0.3c-0.8,0.1-1.1,1-0.7,1.6c0.2,0.3,0.5,0.5,0.8,0.6c0,0,0,0,0,0c0,0-0.1,0.1-0.1,0.1
			c-0.2,0.1-0.3,0.1-0.7,0.2c-0.1,0-0.3,0-0.4-0.1c-0.1,0-0.2-0.1-0.4-0.2c0.1,0-0.1-0.1-0.1-0.1c-0.7-0.7-0.9-1.9-1.6-2.9
			c1.1-0.1,2.3-0.3,3.9-0.5c0.1,0,0.1,0.1,0.2,0.1c1.2,0.7,2.1,3,3.2,4.3c0.5,0.6,1.2,1.4,2.1,1.2c0.5-0.1,0.6-0.7,0.5-1.1
			c0-0.1-0.1-0.2-0.2-0.4c0.1,0.1-0.1-0.1-0.2-0.2c-0.5-0.4-0.6-0.4-0.9-0.8c0.4,0,0.8,0,1.1-0.2c0.5-0.3,0.5-1.1,0-1.4
			c-0.4-0.3-0.8-0.3-1.3-0.2c-0.3,0.1-0.7,0.3-1,0.2c-0.5-0.6-1-1.3-1.6-1.8c1.5-0.2,3-0.4,4.5-0.6c0.1,0.1,0.1,0.1,0.4,0.4
			c0.2,0.2,0.2,0.2,0.4,0.5c0.3,0.3,0.5,0.7,0.7,1c0.2,1.2-0.9,3.2-0.4,4.3c0-0.2,0-0.2,0,0.1c0.1,0.4,0.5,0.7,0.9,0.7
			c1,0.1,1.5-1.2,0.5-1.7c0-0.1,0-0.1,0-0.2c0,0.1,0-0.2,0-0.2c0-0.3,0.1-0.5,0.1-0.8c0.3,0.5,0.5,1,0.8,1.5c-0.1-0.2,0,0,0,0.1
			c0.1,0.3,0.4,0.7,0.6,0.9c0.8,1.1,2.4,2.2,3.5,1c0.4-0.4,0.2-1.1-0.2-1.5c-0.3-0.2-0.6-0.3-1-0.4c-0.2,0-0.3-0.1-0.4-0.1
			c-0.1,0-0.2-0.1-0.4-0.2c-0.3-0.2-0.8-0.6-1-1c0.4,0,0.7,0.1,1.2-0.1c0.4-0.2,0.8-0.7,0.5-1.2c-0.2-0.4-0.5-0.8-1-0.8
			c-0.7-0.1-1.2,0-1.7,0.3c-0.5-1-1.1-2-1.8-2.8c0.8-0.1,1.7-0.1,2.5-0.2c0.7,0.5,1.4,1.1,2.1,1.6c0.4,0.3,0.7,0.6,1,0.9
			c0.4,0.3,0.7,0.6,1.2,0.7c0.2,0,0.4-0.1,0.5-0.3c0.1-0.5-0.2-1-0.5-1.4c-0.3-0.5-0.8-0.8-1.3-1.1c-0.3-0.2-0.5-0.3-0.8-0.5
			c0.9,0,1.8-0.1,2.6-0.2c0.9-0.2,1.8-0.4,2.2-1.3c0-0.1,0-0.1,0-0.2c0-0.1,0-0.1-0.1-0.1c-0.5-0.8-1.5-0.8-2.4-0.8
			c-0.9,0-1.8,0.1-2.6,0.3c0.2-0.2,0.5-0.4,0.7-0.6c0.4-0.4,0.8-0.8,1-1.4c0.2-0.4,0.3-1,0.2-1.4c-0.1-0.2-0.3-0.3-0.5-0.2
			c-0.4,0.2-0.7,0.6-1,0.9c-0.3,0.3-0.5,0.7-0.8,1.1c-0.6,0.7-1.1,1.4-1.7,2c-0.8,0.1-1.7,0.3-2.5,0.4c0.6-1,0.9-2,1.2-3.1
			c0.6,0.2,1.1,0.2,1.8,0c0.5-0.1,0.7-0.6,0.8-1c0.2-0.5-0.3-1-0.8-1.1c-0.5-0.1-0.8,0.1-1.2,0.1c0.2-0.4,0.5-0.9,0.8-1.1
			c0.1-0.1,0.2-0.2,0.3-0.2c0.1,0,0.2-0.1,0.4-0.2c0.3-0.1,0.6-0.2,0.9-0.6c0.3-0.4,0.3-1.2-0.2-1.5c-1.4-0.9-2.7,0.5-3.3,1.7
			c-0.1,0.3-0.3,0.7-0.3,1c0,0-0.1,0.2,0,0.1c-0.2,0.5-0.4,1.1-0.5,1.6c-0.1-0.3-0.2-0.5-0.3-0.8c0,0-0.1-0.3-0.1-0.2
			c0-0.1,0-0.1,0-0.2c0.9-0.7,0.1-1.8-0.8-1.6c-0.4,0.1-0.7,0.5-0.7,0.9c0,0.3,0,0.3,0,0.1c-0.3,1.2,1.2,2.9,1.3,4.1
			c-0.1,0.4-0.3,0.8-0.5,1.1c-0.1,0.3-0.1,0.3-0.3,0.5c-0.2,0.3-0.3,0.3-0.4,0.4c-1.5,0.1-3,0.2-4.6,0.3c0.5-0.6,0.8-1.4,1.1-2.1
			c0.3-0.1,0.7,0,1,0c0.5,0,0.9-0.1,1.3-0.5c0.4-0.4,0.2-1.2-0.3-1.4c-0.4-0.1-0.8-0.1-1.1,0c0.2-0.4,0.3-0.4,0.7-0.9
			c0.1-0.1,0.2-0.3,0.2-0.2c0.1-0.1,0.2-0.2,0.2-0.4c0.1-0.5-0.2-1-0.7-1c-0.9,0-1.4,0.8-1.8,1.6c-0.8,1.6-1.2,4-2.2,4.9
			c-0.1,0-0.1,0.1-0.2,0.1c-1.7,0.1-2.8,0.2-3.9,0.3c0.5-1.1,0.5-2.4,1-3.2c0,0,0.2-0.2,0.1-0.1c0.1-0.1,0.2-0.2,0.3-0.2
			c0.1-0.1,0.3-0.1,0.4-0.2c0.4-0.1,0.4,0,0.7,0c0,0,0.1,0,0.1,0.1c0,0,0,0,0,0.1c-0.3,0.2-0.6,0.4-0.7,0.8c-0.2,0.7,0.2,1.5,1,1.4
			c0.4,0,0.6-0.2,0.9-0.4c0.1-0.1,0.1-0.1,0,0c0.1-0.1,0.1-0.1,0.2-0.2c0-0.1,0.1-0.1,0.1-0.2c0.2-0.3,0.4-0.6,0.4-1
			c0.1-0.5,0-1.2-0.3-1.6C62.8,41.8,62.2,41.5,61.6,41.5z M52.6,48c0.7-0.9,1.2-2,1.7-3c0.2-0.5,0.4-0.9,0.6-1.4
			c0.3,0,0.6,0,0.9,0.1c0.8,0.1,1.5,0.4,2.3,0.4c-0.2,0.8-0.2,1.5-0.4,2.3c-0.1,0.3-0.1,0.6-0.2,0.9c-0.5,0-1,0.1-1.5,0.1
			C54.9,47.4,53.7,47.5,52.6,48z M52.8,49.9c1.1,0.2,2.4,0,3.5-0.1c0.5,0,1-0.1,1.5-0.2c0.1,0.3,0.3,0.5,0.4,0.8
			c0.3,0.7,0.4,1.5,0.8,2.2c-0.8,0.2-1.4,0.6-2.2,0.9c-0.3,0.1-0.6,0.2-0.9,0.3c-0.3-0.4-0.6-0.9-0.9-1.3
			C54.4,51.7,53.7,50.6,52.8,49.9z M51.2,51.1c0.4,1.1,1.1,2.1,1.8,3c0.3,0.4,0.6,0.8,0.9,1.2c-0.1,0.3-0.3,0.5-0.5,0.7
			c-0.5,0.6-1.1,1.1-1.5,1.8c-0.6-0.6-1.2-1-1.8-1.5c-0.2-0.2-0.5-0.4-0.7-0.6c0.2-0.5,0.5-0.9,0.7-1.4
			C50.5,53.3,51.1,52.2,51.2,51.1z M49.4,50.3c-0.7,0.9-1.2,2-1.7,3c-0.2,0.5-0.4,0.9-0.6,1.4c-0.3,0-0.6,0-0.9-0.1
			c-0.8-0.1-1.5-0.4-2.3-0.4c0.2-0.8,0.2-1.5,0.4-2.3c0.1-0.3,0.1-0.6,0.2-0.9c0.5,0,1,0,1.5-0.1C47.1,50.8,48.3,50.7,49.4,50.3z
			 M49.2,48.3c-1.1-0.2-2.4,0-3.5,0.1c-0.5,0-1,0.1-1.5,0.2c-0.1-0.3-0.3-0.5-0.4-0.8c-0.3-0.7-0.4-1.5-0.8-2.2
			c0.8-0.2,1.4-0.6,2.2-0.9c0.3-0.1,0.6-0.2,0.9-0.3c0.3,0.4,0.6,0.9,0.9,1.3C47.6,46.6,48.3,47.6,49.2,48.3z M50.8,47.2
			c-0.4-1.1-1.2-2.1-1.8-3c-0.3-0.4-0.6-0.8-0.9-1.2c0.1-0.3,0.3-0.5,0.5-0.7c0.5-0.6,1.1-1.1,1.5-1.8c0.6,0.6,1.2,1,1.8,1.5
			c0.2,0.2,0.5,0.4,0.7,0.6c-0.2,0.5-0.5,0.9-0.7,1.4C51.5,44.9,50.9,46,50.8,47.2z"/>
	</g>
</g>
</svg>
