<?xml version="1.0" encoding="utf-8"?>
<!-- Generator: Adobe Illustrator 22.1.0, SVG Export Plug-In . SVG Version: 6.00 Build 0)  -->
<svg version="1.1" id="Layer_1" xmlns="http://www.w3.org/2000/svg" xmlns:xlink="http://www.w3.org/1999/xlink" x="0px" y="0px"
	 viewBox="0 0 100 100" style="enable-background:new 0 0 100 100;" xml:space="preserve">
<style type="text/css">
	.st0{fill:#BE1E2D;}
	.st1{fill:#00B0BB;}
	.st2{fill:#63C4AF;}
	.st3{fill:#EAEAEA;}
	.st4{fill:#413E34;}
	.st5{fill:none;}
	.st6{clip-path:url(#SVGID_2_);}
	.st7{clip-path:url(#SVGID_4_);}
	.st8{fill:#1E0D12;}
	.st9{fill:#E62F34;}
	.st10{fill:#25793D;}
	.st11{clip-path:url(#SVGID_6_);}
	.st12{clip-path:url(#SVGID_8_);}
	.st13{fill:#FFFFFF;}
	.st14{clip-path:url(#SVGID_10_);}
	.st15{clip-path:url(#SVGID_12_);}
	.st16{fill:#96BF4D;}
	.st17{clip-path:url(#SVGID_14_);}
	.st18{fill-rule:evenodd;clip-rule:evenodd;fill:#FFFFFF;}
	.st19{fill:#C92927;}
	.st20{fill:#253748;}
	.st21{clip-path:url(#SVGID_16_);}
	.st22{fill:#97CB59;}
	.st23{fill:#DA2128;}
	.st24{fill:#00A14B;}
	.st25{fill:#96171A;}
	.st26{fill:#D1E39B;}
	.st27{fill:#4FBBBB;}
	.st28{fill:#37343F;}
	.st29{fill:#077A64;}
	.st30{fill:#F4EED4;}
	.st31{fill:#012E47;}
	.st32{fill:#BE1C42;}
	.st33{fill:#008E9F;}
	.st34{fill:#CD4134;}
	.st35{clip-path:url(#SVGID_18_);}
	.st36{clip-path:url(#SVGID_20_);}
	.st37{fill:#EE2424;}
	.st38{fill:#67BC45;}
	.st39{clip-path:url(#SVGID_22_);}
	.st40{clip-path:url(#SVGID_24_);}
	.st41{fill:#004A54;}
	.st42{fill:#D93128;}
	.st43{fill:#401B23;}
	.st44{fill:#EE2D40;}
	.st45{fill:#F1EBC9;}
	.st46{fill-rule:evenodd;clip-rule:evenodd;fill:#C92927;}
	.st47{fill-rule:evenodd;clip-rule:evenodd;fill:#96BF4D;}
	.st48{fill:#BD3026;}
	.st49{opacity:0.4;fill:#CD4134;}
	.st50{fill:#E6B448;}
	.st51{fill:#E21F26;}
	.st52{fill:#A82123;}
	.st53{fill:#383A3A;}
	.st54{fill:#F17B22;}
	.st55{fill:#F1F0DC;}
	.st56{fill:#56AE78;}
	.st57{fill:#EE262E;}
	.st58{fill:#C47229;}
	.st59{fill:#FEC010;}
	.st60{fill:#C0343E;}
	.st61{fill:url(#SVGID_25_);}
	.st62{fill:#659DAA;}
	.st63{fill:#C9A784;}
	.st64{fill:#DDCFB5;}
	.st65{fill:#D2A886;}
	.st66{fill:#9B3227;}
	.st67{opacity:0.39;fill:#FFFFFF;}
	.st68{fill:#E5E5E5;}
	.st69{fill:#202945;}
	.st70{fill:none;stroke:#ACA300;stroke-miterlimit:10;}
	.st71{fill:none;stroke:#ACA300;stroke-miterlimit:10;stroke-dasharray:2.0083,2.0083;}
	.st72{fill:#ACA300;}
</style>
<g>
	<defs>
		<rect id="SVGID_1_" x="420" y="-280" width="100" height="100"/>
	</defs>
	<clipPath id="SVGID_2_">
		<use xlink:href="#SVGID_1_"  style="overflow:visible;"/>
	</clipPath>
	<g class="st6">
		<g>
			<defs>
				
					<rect id="SVGID_3_" x="-47.5" y="-286.7" transform="matrix(0.6711 -0.7413 0.7413 0.6711 202.1776 284.174)" width="937.7" height="401.9"/>
			</defs>
			<clipPath id="SVGID_4_">
				<use xlink:href="#SVGID_3_"  style="overflow:visible;"/>
			</clipPath>
			<g class="st7">
				
					<rect x="134.8" y="180" transform="matrix(0.6711 -0.7413 0.7413 0.6711 -218.0552 493.652)" class="st5" width="625.1" height="625.1"/>
				
					<rect x="134.8" y="180" transform="matrix(0.6711 -0.7413 0.7413 0.6711 -218.0552 493.652)" class="st8" width="625.1" height="625.1"/>
			</g>
			<g class="st7">
				
					<rect x="90.9" y="-703" transform="matrix(0.6711 -0.7413 0.7413 0.6711 422.1059 170.7486)" class="st5" width="625.1" height="625.1"/>
				
					<rect x="90.9" y="-703" transform="matrix(0.6711 -0.7413 0.7413 0.6711 422.1059 170.7486)" class="st8" width="625.1" height="625.1"/>
			</g>
			<g class="st7">
				
					<rect x="-328.6" y="-239.5" transform="matrix(0.6711 -0.7413 0.7413 0.6711 -59.4263 12.1198)" class="st5" width="625.1" height="625.1"/>
				
					<rect x="-328.6" y="-239.5" transform="matrix(0.6711 -0.7413 0.7413 0.6711 -59.4263 12.1198)" class="st8" width="625.1" height="625.1"/>
				<polygon class="st9" points="47,69.9 42.8,70.1 31.3,70.7 31.3,70.7 				"/>
				<polygon class="st9" points="7.6,71.9 -16,73 7.6,71.9 				"/>
				<polygon class="st9" points="23.4,71.1 23.4,71.1 8.5,71.8 7.6,71.9 				"/>
				<polygon class="st9" points="94.3,67.6 94.3,67.6 86.4,67.9 				"/>
				<polygon class="st9" points="86.4,67.9 86.4,67.9 78.6,68.3 78.6,68.3 				"/>
				<polygon class="st9" points="78.6,68.3 72.2,68.7 47,69.9 47,69.9 				"/>
				<polygon class="st9" points="-13.3,128.2 -12.1,151.9 -10.6,183.4 -2.7,183 -2.7,183 5.2,182.6 5.2,182.6 13.1,182.2 
					13.1,182.2 21,181.8 21,181.9 44.6,180.7 44.6,180.7 52.5,180.3 52.5,180.3 60.4,179.9 60.4,179.9 68.3,179.5 68.3,179.5 
					76.2,179.1 76.2,179.1 77.7,179 99.8,177.9 99.4,170 99.4,170 99,162.2 99,162.2 98.6,154.3 98.6,154.3 98.2,146.4 98.2,146.4 
					97.8,138.5 97.8,138.5 97.5,130.6 97.5,130.6 97.1,122.7 96.7,114.9 96.7,114.9 96.3,107 96.3,107 95.9,99.1 95.9,99.1 
					95.5,91.2 95.5,91.2 95.1,83.3 95.1,83.3 94.7,75.4 94.7,75.4 94.3,67.6 86.4,67.9 78.6,68.3 47,69.9 31.3,70.7 23.4,71.1 
					7.6,71.9 -16,73 -14.9,96.7 				"/>
				<polygon class="st9" points="178.6,174 186.5,173.6 95.5,91.2 95.9,99.1 				"/>
				<polygon class="st9" points="95.9,99.1 95.9,99.1 95.5,91.2 95.5,91.2 				"/>
				<polygon class="st9" points="194.4,173.2 202.3,172.8 94.7,75.4 95.1,83.3 				"/>
				<polygon class="st9" points="95.1,83.3 95.1,83.3 94.7,75.4 94.7,75.4 				"/>
				<polygon class="st9" points="102.2,67.2 102.2,67.2 94.3,67.6 94.3,67.6 				"/>
				<polygon class="st9" points="210.2,172.4 209.8,164.6 209.8,164.6 102.2,67.2 94.3,67.6 				"/>
				<polygon class="st9" points="91.6,12.4 91.2,4.5 41.5,-40.5 33.7,-40.1 				"/>
				<polygon class="st9" points="92.4,28.1 92,20.2 25.8,-39.7 17.9,-39.3 				"/>
				<polygon class="st9" points="93.1,43.9 92.8,36 10,-38.9 2.1,-38.5 				"/>
				<polygon class="st9" points="93.9,59.7 93.5,51.8 -5.8,-38.1 -13.7,-37.7 				"/>
				<polygon class="st9" points="15.5,71.5 -17.6,41.5 -17.2,49.4 7.6,71.9 8.5,71.8 				"/>
				<polygon class="st9" points="8.5,71.8 7.6,71.9 7.6,71.9 				"/>
				<polygon class="st9" points="-18.4,25.7 -18,33.6 23.4,71.1 31.3,70.7 				"/>
				<polygon class="st9" points="31.3,70.7 31.3,70.7 23.4,71.1 23.4,71.1 				"/>
				<polygon class="st9" points="-19.2,10 -18.8,17.9 39.1,70.3 42.8,70.1 47,69.9 				"/>
				<polygon class="st9" points="47,69.9 42.8,70.1 47,69.9 				"/>
				<polygon class="st9" points="54.9,69.5 62.8,69.1 -20,-5.8 -19.6,2.1 				"/>
				<polygon class="st9" points="-20.8,-21.6 -20.4,-13.7 70.7,68.7 72.2,68.7 78.6,68.3 				"/>
				<polygon class="st9" points="78.6,68.3 72.2,68.7 78.6,68.3 				"/>
				<polygon class="st9" points="-21.5,-37.3 -21.1,-29.5 86.4,67.9 94.3,67.6 				"/>
				<polygon class="st9" points="94.3,67.6 86.4,67.9 86.4,67.9 				"/>
			</g>
		</g>
	</g>
</g>
<g>
	<defs>
		<rect id="SVGID_5_" x="-420" y="-140" width="100" height="100"/>
	</defs>
	<clipPath id="SVGID_6_">
		<use xlink:href="#SVGID_5_"  style="overflow:visible;"/>
	</clipPath>
	<g class="st11">
		<g>
			<defs>
				<rect id="SVGID_7_" x="-491.3" y="-838.9" width="595" height="1388.2"/>
			</defs>
			<clipPath id="SVGID_8_">
				<use xlink:href="#SVGID_7_"  style="overflow:visible;"/>
			</clipPath>
			<g class="st12">
				<rect x="-315.1" y="-141.6" class="st5" width="466" height="466"/>
				<rect x="-315.1" y="-141.6" class="st13" width="466" height="466"/>
				<g>
					<g>
						<polygon class="st9" points="150.9,51.2 102.6,99.4 94.6,99.4 150.9,43.2 						"/>
						<polygon class="st9" points="150.9,35.2 86.6,99.4 78.5,99.4 150.9,27.1 						"/>
						<polygon class="st9" points="150.9,19.1 70.5,99.4 62.5,99.4 150.9,11.1 						"/>
						<polygon class="st9" points="150.9,3 54.4,99.4 46.4,99.4 150.9,-5 						"/>
						<polygon class="st9" points="54.4,-13 46.4,-13 38.4,-5 38.4,3 						"/>
						<polygon class="st9" points="70.5,-13 62.5,-13 38.4,11.1 38.4,19.1 						"/>
						<polygon class="st9" points="86.6,-13 78.5,-13 38.4,27.1 38.4,35.2 						"/>
						<polygon class="st9" points="102.6,-13 94.6,-13 38.4,43.2 38.4,51.2 						"/>
						<polygon class="st9" points="118.7,-13 110.7,-13 38.4,59.3 38.4,67.3 						"/>
						<polygon class="st9" points="134.8,-13 126.7,-13 38.4,75.3 38.4,83.4 						"/>
						<polygon class="st9" points="150.9,-13 142.8,-13 38.4,91.4 38.4,99.4 						"/>
					</g>
					<g>
						<polygon class="st9" points="38.4,91.4 38.4,99.4 30.3,99.4 						"/>
						<polygon class="st9" points="38.4,83.4 22.3,99.4 14.3,99.4 38.4,75.3 						"/>
						<polygon class="st9" points="38.4,67.3 6.2,99.4 -1.8,99.4 38.4,59.3 						"/>
						<polygon class="st9" points="38.4,51.2 -9.8,99.4 -17.9,99.4 38.4,43.2 						"/>
						<polygon class="st9" points="38.4,35.2 -25.9,99.4 -33.9,99.4 38.4,27.1 						"/>
						<polygon class="st9" points="38.4,19.1 -42,99.4 -50,99.4 38.4,11.1 						"/>
						<polygon class="st9" points="38.4,3 -58,99.4 -66.1,99.4 38.4,-5 						"/>
						<polygon class="st9" points="6.2,-13 -1.8,-13 -74.1,59.3 -74.1,67.3 						"/>
						<polygon class="st9" points="22.3,-13 14.3,-13 -74.1,75.3 -74.1,83.4 						"/>
						<polygon class="st9" points="38.4,-13 30.3,-13 -74.1,91.4 -74.1,99.4 						"/>
					</g>
				</g>
				<g>
					<polygon class="st8" points="46.4,19.1 46.4,11.1 38.4,19.1 30.3,27.1 30.3,35.2 38.4,27.1 					"/>
					<polygon class="st8" points="46.4,51.2 46.4,43.2 38.4,51.2 30.3,59.3 30.3,67.3 38.4,59.3 					"/>
					<polygon class="st8" points="46.4,3 46.4,-5 38.4,3 30.3,11.1 30.3,19.1 38.4,11.1 					"/>
					<polygon class="st8" points="46.4,35.2 46.4,27.1 38.4,35.2 30.3,43.2 30.3,51.2 38.4,43.2 					"/>
					<polygon class="st8" points="46.4,67.3 46.4,59.3 38.4,67.3 30.3,75.3 30.3,83.4 38.4,75.3 					"/>
					<polygon class="st8" points="46.4,99.4 46.4,91.4 38.4,99.4 30.3,107.5 30.3,115.5 38.4,107.5 					"/>
					<polygon class="st8" points="46.4,83.4 46.4,75.3 38.4,83.4 30.3,91.4 30.3,99.4 38.4,91.4 					"/>
					<polygon class="st8" points="46.4,-13 46.4,-21.1 38.4,-13 30.3,-5 30.3,3 38.4,-5 					"/>
				</g>
			</g>
		</g>
	</g>
</g>
<g>
	<defs>
		<rect id="SVGID_9_" x="-280" y="-140" width="100" height="100"/>
	</defs>
	<clipPath id="SVGID_10_">
		<use xlink:href="#SVGID_9_"  style="overflow:visible;"/>
	</clipPath>
	<g class="st14">
		<g>
			<defs>
				
					<rect id="SVGID_11_" x="-606" y="-237.1" transform="matrix(0.6991 -0.715 0.715 0.6991 -14.6969 -218.1841)" width="678.8" height="290.9"/>
			</defs>
			<clipPath id="SVGID_12_">
				<use xlink:href="#SVGID_11_"  style="overflow:visible;"/>
			</clipPath>
		</g>
	</g>
</g>
<g>
	<defs>
		<rect id="SVGID_13_" x="0" y="-140" width="100" height="100"/>
	</defs>
	<clipPath id="SVGID_14_">
		<use xlink:href="#SVGID_13_"  style="overflow:visible;"/>
	</clipPath>
	<g class="st17">
		<rect x="-84.6" y="-230.3" class="st18" width="268.4" height="268.4"/>
		<g>
			<polygon class="st19" points="-62.2,4.5 -45.4,21.3 -39.9,26.9 -34.3,21.3 -17.5,4.5 -0.7,21.3 4.9,26.9 10.5,21.3 27.3,4.5 
				49.6,26.9 55.2,21.3 72,4.5 88.8,21.3 94.4,26.9 99.9,21.3 99.9,21.3 116.7,4.5 133.5,21.3 133.5,21.3 139.1,26.9 139.1,26.9 
				139.1,26.9 144.7,21.3 144.7,21.3 161.5,4.5 183.8,26.9 183.8,15.7 167,-1.1 161.5,-6.6 155.9,-1.1 139.1,15.7 116.7,-6.6 
				111.1,-1.1 94.4,15.7 77.6,-1.1 72,-6.6 66.4,-1.1 49.6,15.7 27.3,-6.6 21.7,-1.1 4.9,15.7 -11.9,-1.1 -17.5,-6.6 -23.1,-1.1 
				-39.9,15.7 -56.6,-1.1 -62.2,-6.6 -67.8,-1.1 -84.6,15.7 -84.6,26.9 -84.6,26.9 			"/>
		</g>
		<g>
			<polygon class="st16" points="-62.2,-17.9 -45.4,-1.1 -39.9,4.5 -34.3,-1.1 -17.5,-17.9 -0.7,-1.1 4.9,4.5 10.5,-1.1 27.3,-17.9 
				49.6,4.5 55.2,-1.1 72,-17.9 88.8,-1.1 94.4,4.5 99.9,-1.1 99.9,-1.1 116.7,-17.9 133.5,-1.1 133.5,-1.1 139.1,4.5 139.1,4.5 
				139.1,4.5 144.7,-1.1 144.7,-1.1 161.5,-17.9 183.8,4.5 183.8,-6.6 167,-23.4 161.5,-29 155.9,-23.4 139.1,-6.6 116.7,-29 
				111.1,-23.4 94.4,-6.6 77.6,-23.4 72,-29 66.4,-23.4 49.6,-6.6 27.3,-29 21.7,-23.4 4.9,-6.6 -11.9,-23.4 -17.5,-29 -23.1,-23.4 
				-39.9,-6.6 -56.6,-23.4 -62.2,-29 -67.8,-23.4 -84.6,-6.6 -84.6,4.5 -84.6,4.5 			"/>
			<polygon class="st16" points="161.5,15.7 155.9,21.3 139.1,38.1 116.7,15.7 111.1,21.3 94.4,38.1 77.6,21.3 72,15.7 66.4,21.3 
				49.6,38.1 27.3,15.7 21.7,21.3 4.9,38.1 -11.9,21.3 -17.5,15.7 -23.1,21.3 -39.9,38.1 -56.6,21.3 -62.2,15.7 -67.8,21.3 
				-84.6,38.1 -84.6,38.1 -73.4,38.1 -62.2,26.9 -51,38.1 -28.7,38.1 -17.5,26.9 -6.3,38.1 16,38.1 27.3,26.9 38.5,38.1 60.8,38.1 
				72,26.9 83.2,38.1 105.5,38.1 116.7,26.9 127.9,38.1 150.3,38.1 161.5,26.9 172.7,38.1 183.8,38.1 183.8,38.1 167,21.3 			"/>
		</g>
	</g>
</g>
<rect x="0" y="0" class="st29" width="100" height="100"/>
<g>
	<defs>
		<rect id="SVGID_17_" x="-140" y="140" width="100" height="100"/>
	</defs>
	<clipPath id="SVGID_16_">
		<use xlink:href="#SVGID_17_"  style="overflow:visible;"/>
	</clipPath>
	<g class="st21">
		<g>
			<defs>
				<rect id="SVGID_19_" x="-171.9" y="-63.9" width="172.2" height="516.6"/>
			</defs>
			<clipPath id="SVGID_18_">
				<use xlink:href="#SVGID_19_"  style="overflow:visible;"/>
			</clipPath>
			<g class="st35">
				<rect x="-55.7" y="-6.4" class="st5" width="57.5" height="57.5"/>
				<polygon class="st37" points="-15.1,-6.4 -55.7,34.2 -55.7,51.1 -55.7,51.1 1.8,-6.4 				"/>
				<polygon class="st37" points="1.8,-3 -52.3,51.1 -49,51.1 1.8,0.3 				"/>
				<polygon class="st37" points="1.8,27.4 -21.9,51.1 -18.5,51.1 1.8,30.8 				"/>
				<polygon class="st37" points="-15.1,51.1 1.8,51.1 1.8,34.2 				"/>
				<polygon class="st38" points="1.8,0.3 -49,51.1 -21.9,51.1 1.8,27.4 				"/>
				<polygon class="st13" points="1.8,-6.4 -55.7,51.1 -52.3,51.1 1.8,-3 				"/>
				<polygon class="st13" points="1.8,30.8 -18.5,51.1 -15.1,51.1 1.8,34.2 				"/>
			</g>
			<g class="st35">
				<rect x="-55.7" y="51.1" class="st5" width="57.5" height="57.5"/>
				<polygon class="st37" points="-15.1,51.1 -55.7,91.7 -55.7,108.6 -55.7,108.6 1.8,51.1 				"/>
				<polygon class="st37" points="1.8,54.5 -52.3,108.6 -49,108.6 1.8,57.8 				"/>
				<polygon class="st37" points="1.8,84.9 -21.9,108.6 -18.5,108.6 1.8,88.3 				"/>
				<polygon class="st37" points="-15.1,108.6 1.8,108.6 1.8,91.7 				"/>
				<polygon class="st38" points="1.8,57.8 -49,108.6 -21.9,108.6 1.8,84.9 				"/>
				<polygon class="st13" points="1.8,51.1 -55.7,108.6 -52.3,108.6 1.8,54.5 				"/>
				<polygon class="st13" points="1.8,88.3 -18.5,108.6 -15.1,108.6 1.8,91.7 				"/>
			</g>
		</g>
	</g>
</g>
<g>
	<defs>
		<rect id="SVGID_21_" x="0" y="140" width="100" height="100"/>
	</defs>
	<clipPath id="SVGID_20_">
		<use xlink:href="#SVGID_21_"  style="overflow:visible;"/>
	</clipPath>
	<g class="st36">
		<g>
			<defs>
				<rect id="SVGID_23_" x="-39.2" y="-61.7" width="154.9" height="464.7"/>
			</defs>
			<clipPath id="SVGID_22_">
				<use xlink:href="#SVGID_23_"  style="overflow:visible;"/>
			</clipPath>
			<g class="st39">
				<rect x="55.6" y="-3.9" class="st5" width="57.8" height="57.8"/>
				<polygon class="st13" points="80,-3.9 55.6,20.4 55.6,23.5 83,-3.9 				"/>
				<polygon class="st13" points="86.1,-3.9 55.6,26.5 55.6,53.9 113.5,-3.9 				"/>
				<polygon class="st37" points="55.6,-3.9 55.6,20.4 80,-3.9 				"/>
				<polygon class="st38" points="83,-3.9 55.6,23.5 55.6,26.5 86.1,-3.9 				"/>
				<polygon class="st13" points="113.5,20.4 80,53.9 83,53.9 113.5,23.5 				"/>
				<polygon class="st13" points="86.1,53.9 113.5,53.9 113.5,53.9 113.5,26.5 				"/>
				<polygon class="st37" points="113.5,-3.9 113.5,-3.9 55.6,53.9 55.6,53.9 80,53.9 113.5,20.4 				"/>
				<polygon class="st38" points="113.5,23.5 83,53.9 86.1,53.9 113.5,26.5 				"/>
			</g>
			<g class="st39">
				<rect x="55.6" y="53.9" class="st5" width="57.8" height="57.8"/>
				<polygon class="st13" points="80,53.9 55.6,78.2 55.6,81.3 83,53.9 				"/>
				<polygon class="st13" points="86.1,53.9 55.6,84.3 55.6,111.7 113.5,53.9 				"/>
				<polygon class="st37" points="55.6,53.9 55.6,78.2 80,53.9 				"/>
				<polygon class="st38" points="83,53.9 55.6,81.3 55.6,84.3 86.1,53.9 				"/>
				<polygon class="st13" points="113.5,78.2 80,111.7 83,111.7 113.5,81.3 				"/>
				<polygon class="st13" points="86.1,111.7 113.5,111.7 113.5,111.7 113.5,84.3 				"/>
				<polygon class="st37" points="113.5,53.9 113.5,53.9 55.6,111.7 55.6,111.7 80,111.7 113.5,78.2 				"/>
				<polygon class="st38" points="113.5,81.3 83,111.7 86.1,111.7 113.5,84.3 				"/>
			</g>
			<g class="st39">
				<rect x="-2.2" y="-3.9" class="st5" width="57.8" height="57.8"/>
				<polygon class="st13" points="22.2,-3.9 -2.2,20.4 -2.2,23.5 25.2,-3.9 				"/>
				<polygon class="st13" points="28.3,-3.9 -2.2,26.5 -2.2,53.9 55.6,-3.9 				"/>
				<polygon class="st37" points="-2.2,-3.9 -2.2,20.4 22.2,-3.9 				"/>
				<polygon class="st38" points="25.2,-3.9 -2.2,23.5 -2.2,26.5 28.3,-3.9 				"/>
				<polygon class="st13" points="55.6,20.4 22.2,53.9 25.2,53.9 55.6,23.5 				"/>
				<polygon class="st13" points="28.3,53.9 55.6,53.9 55.6,53.9 55.6,26.5 				"/>
				<polygon class="st37" points="55.6,-3.9 55.6,-3.9 -2.2,53.9 -2.2,53.9 22.2,53.9 55.6,20.4 				"/>
				<polygon class="st38" points="55.6,23.5 25.2,53.9 28.3,53.9 55.6,26.5 				"/>
			</g>
			<g class="st39">
				<rect x="-2.2" y="53.9" class="st5" width="57.8" height="57.8"/>
				<polygon class="st13" points="22.2,53.9 -2.2,78.2 -2.2,81.3 25.2,53.9 				"/>
				<polygon class="st13" points="28.3,53.9 -2.2,84.3 -2.2,111.7 55.6,53.9 				"/>
				<polygon class="st37" points="-2.2,53.9 -2.2,78.2 22.2,53.9 				"/>
				<polygon class="st38" points="25.2,53.9 -2.2,81.3 -2.2,84.3 28.3,53.9 				"/>
				<polygon class="st13" points="55.6,78.2 22.2,111.7 25.2,111.7 55.6,81.3 				"/>
				<polygon class="st13" points="28.3,111.7 55.6,111.7 55.6,111.7 55.6,84.3 				"/>
				<polygon class="st37" points="55.6,53.9 55.6,53.9 -2.2,111.7 -2.2,111.7 22.2,111.7 55.6,78.2 				"/>
				<polygon class="st38" points="55.6,81.3 25.2,111.7 28.3,111.7 55.6,84.3 				"/>
			</g>
		</g>
	</g>
</g>
<g>
	<path class="st56" d="M49.9,31.2c-0.2-0.2-0.2-0.4-0.1-0.6c0.1-0.3,0.5-0.4,0.7-0.2c0.2,0.1,0.3,0.4,0.2,0.7c0,0.1-0.1,0.1-0.1,0.1
		h0.6V18.1l-4.3,13.1H49.9z M48.7,29.3c0.2,0.1,0.3,0.4,0.2,0.7c-0.1,0.3-0.5,0.4-0.7,0.2c-0.2-0.1-0.3-0.4-0.2-0.7
		C48.1,29.3,48.4,29.2,48.7,29.3z"/>
	<path class="st13" d="M48.2,30.3c0.2,0.1,0.6,0,0.7-0.2c0.1-0.3,0-0.6-0.2-0.7c-0.2-0.1-0.6,0-0.7,0.2
		C47.8,29.8,47.9,30.1,48.2,30.3z"/>
	<path class="st13" d="M50.5,30.3c-0.2-0.1-0.6,0-0.7,0.2c-0.1,0.2-0.1,0.5,0.1,0.6h0.7c0,0,0.1-0.1,0.1-0.1
		C50.8,30.8,50.7,30.4,50.5,30.3z"/>
	<path class="st56" d="M54.5,26.5c-1.6,0-2.9-1.3-2.9-2.9c0-1.3,0.8-2.3,1.9-2.7l-1.7-5.2l-0.7,2.3v13.1h5.7l-1.5-4.8
		C55.1,26.5,54.8,26.5,54.5,26.5z"/>
	<path class="st57" d="M51.6,23.7c0,1.6,1.3,2.9,2.9,2.9c0.3,0,0.6-0.1,0.8-0.1c1.2-0.4,2-1.4,2-2.7c0-1.6-1.3-2.9-2.9-2.9
		c-0.3,0-0.6,0.1-0.9,0.2C52.4,21.4,51.6,22.4,51.6,23.7z"/>
	<path class="st56" d="M46.1,41.6c0,1.6-1.3,2.9-2.9,2.9c-0.2,0-0.5,0-0.7-0.1l-3.2,9.9c0,0,0.1,0.1,0.1,0.1c0.1,0.3,0,0.6-0.2,0.7
		c-0.1,0-0.1,0-0.2,0l-3.6,11.2c0,0,0.1,0,0.1,0c1.6,0,2.9,1.3,2.9,2.9c0,1.6-1.3,2.9-2.9,2.9c-0.7,0-1.3-0.2-1.8-0.6l-0.5,1.7H49
		h2.1v-4.6C51,68.4,51,68.2,51.1,68c0-0.1,0-0.1,0.1-0.2v-6.3c-0.5,0.6-1.3,1-2.1,1c-1.6,0-2.9-1.3-2.9-2.9c0-1.6,1.3-2.9,2.9-2.9
		c0.8,0,1.6,0.4,2.1,1v-9.4c-0.1-0.1,0-0.3,0-0.4V31.2h-0.6c-0.2,0.1-0.4,0.2-0.6,0.1c0,0-0.1,0-0.1-0.1h-3l-2.5,7.8
		C45.4,39.4,46.1,40.4,46.1,41.6z M38,63.9c-0.1,0.3-0.4,0.4-0.7,0.3c-0.3-0.1-0.4-0.4-0.3-0.7c0.1-0.3,0.4-0.4,0.7-0.3
		C38,63.3,38.1,63.6,38,63.9z M49.1,67.4c0.1-0.3,0.4-0.4,0.7-0.3c0.3,0.1,0.4,0.4,0.3,0.7c-0.1,0.3-0.4,0.4-0.7,0.3
		C49.1,68,49,67.7,49.1,67.4z M47.1,66.8c0.1-0.3,0.4-0.4,0.7-0.3c0.3,0.1,0.4,0.4,0.3,0.7c-0.1,0.3-0.4,0.4-0.7,0.3
		C47.1,67.3,47,67,47.1,66.8z M49.6,48.6c0.2-0.1,0.6,0,0.7,0.2c0.1,0.3,0,0.6-0.2,0.7c-0.2,0.1-0.6,0-0.7-0.2
		C49.2,49.1,49.3,48.8,49.6,48.6z M47.8,49.6c0.2-0.1,0.6,0,0.7,0.2c0.1,0.3,0,0.6-0.2,0.7c-0.2,0.1-0.6,0-0.7-0.2
		C47.4,50,47.5,49.7,47.8,49.6z M40,64.6c-0.1,0.3-0.4,0.4-0.7,0.3c-0.3-0.1-0.4-0.4-0.3-0.7c0.1-0.3,0.4-0.4,0.7-0.3
		C40,64,40.1,64.3,40,64.6z M40.4,54c-0.1-0.3,0-0.6,0.2-0.7c0.2-0.1,0.6,0,0.7,0.2c0.1,0.3,0,0.6-0.2,0.7
		C40.8,54.3,40.5,54.2,40.4,54z M42,65.2c-0.1,0.3-0.4,0.4-0.7,0.3c-0.3-0.1-0.4-0.4-0.3-0.7c0.1-0.3,0.4-0.4,0.7-0.3
		C42,64.6,42.1,64.9,42,65.2z M42.8,53.3c-0.2,0.1-0.6,0-0.7-0.2c-0.1-0.3,0-0.6,0.2-0.7c0.2-0.1,0.6,0,0.7,0.2
		C43.2,52.8,43.1,53.1,42.8,53.3z M44.1,65.8c-0.1,0.3-0.4,0.4-0.7,0.3c-0.3-0.1-0.4-0.4-0.3-0.7c0.1-0.3,0.4-0.4,0.7-0.3
		C44,65.2,44.1,65.5,44.1,65.8z M44.6,52.3c-0.2,0.1-0.6,0-0.7-0.2c-0.1-0.3,0-0.6,0.2-0.7c0.2-0.1,0.6,0,0.7,0.2
		C45,51.9,44.9,52.2,44.6,52.3z M46.1,66.5c-0.1,0.3-0.4,0.4-0.7,0.3c-0.3-0.1-0.4-0.4-0.3-0.7c0.1-0.3,0.4-0.4,0.7-0.3
		C46,65.9,46.1,66.2,46.1,66.5z M46.7,50.7c0.1,0.3,0,0.6-0.2,0.7c-0.2,0.1-0.6,0-0.7-0.2c-0.1-0.3,0-0.6,0.2-0.7
		C46.2,50.4,46.5,50.5,46.7,50.7z"/>
	<rect x="49" y="73.1" class="st58" width="2.1" height="5.7"/>
	<path class="st13" d="M50.6,31.2h-0.7c0,0,0.1,0.1,0.1,0.1C50.2,31.3,50.4,31.3,50.6,31.2z"/>
	<path class="st13" d="M51.1,48.4V48C51.1,48.1,51.1,48.2,51.1,48.4z"/>
	<path class="st13" d="M50,49.6c0.2-0.1,0.3-0.4,0.2-0.7c-0.1-0.3-0.4-0.4-0.7-0.2c-0.2,0.1-0.3,0.4-0.2,0.7
		C49.5,49.6,49.8,49.7,50,49.6z"/>
	<path class="st13" d="M48.2,50.5c0.2-0.1,0.3-0.4,0.2-0.7c-0.1-0.3-0.4-0.4-0.7-0.2c-0.2,0.1-0.3,0.4-0.2,0.7
		C47.7,50.5,48,50.6,48.2,50.5z"/>
	<path class="st13" d="M45.8,51.2c0.1,0.3,0.4,0.4,0.7,0.2c0.2-0.1,0.3-0.4,0.2-0.7c-0.1-0.3-0.4-0.4-0.7-0.2
		C45.7,50.6,45.6,50.9,45.8,51.2z"/>
	<path class="st13" d="M44.2,51.4c-0.2,0.1-0.3,0.4-0.2,0.7c0.1,0.3,0.4,0.4,0.7,0.2c0.2-0.1,0.3-0.4,0.2-0.7
		C44.7,51.4,44.4,51.3,44.2,51.4z"/>
	<path class="st13" d="M43.1,52.6c-0.1-0.3-0.4-0.4-0.7-0.2c-0.2,0.1-0.3,0.4-0.2,0.7c0.1,0.3,0.4,0.4,0.7,0.2
		C43.1,53.1,43.2,52.8,43.1,52.6z"/>
	<path class="st13" d="M41.3,53.5c-0.1-0.3-0.4-0.4-0.7-0.2c-0.2,0.1-0.3,0.4-0.2,0.7c0.1,0.3,0.4,0.4,0.7,0.2
		C41.3,54.1,41.4,53.8,41.3,53.5z"/>
	<path class="st13" d="M39.5,54.4c0,0-0.1-0.1-0.1-0.1c-0.2-0.2-0.4-0.2-0.6-0.1c-0.2,0.1-0.3,0.4-0.2,0.7c0.1,0.2,0.3,0.3,0.5,0.3
		c0.1,0,0.1,0,0.2,0C39.5,55,39.6,54.7,39.5,54.4z"/>
	<path class="st13" d="M37.7,63.3c-0.3-0.1-0.6,0.1-0.7,0.3c-0.1,0.3,0.1,0.6,0.3,0.7c0.3,0.1,0.6-0.1,0.7-0.3
		C38.1,63.6,38,63.3,37.7,63.3z"/>
	<path class="st13" d="M39.7,63.9c-0.3-0.1-0.6,0.1-0.7,0.3c-0.1,0.3,0.1,0.6,0.3,0.7c0.3,0.1,0.6-0.1,0.7-0.3
		C40.1,64.3,40,64,39.7,63.9z"/>
	<path class="st13" d="M41.7,64.5c-0.3-0.1-0.6,0.1-0.7,0.3c-0.1,0.3,0.1,0.6,0.3,0.7c0.3,0.1,0.6-0.1,0.7-0.3
		C42.1,64.9,42,64.6,41.7,64.5z"/>
	<path class="st13" d="M43.7,65.2c-0.3-0.1-0.6,0.1-0.7,0.3c-0.1,0.3,0.1,0.6,0.3,0.7c0.3,0.1,0.6-0.1,0.7-0.3
		C44.1,65.5,44,65.2,43.7,65.2z"/>
	<path class="st13" d="M45.7,65.8c-0.3-0.1-0.6,0.1-0.7,0.3c-0.1,0.3,0.1,0.6,0.3,0.7c0.3,0.1,0.6-0.1,0.7-0.3
		C46.1,66.2,46,65.9,45.7,65.8z"/>
	<path class="st13" d="M47.4,67.4c0.3,0.1,0.6-0.1,0.7-0.3c0.1-0.3-0.1-0.6-0.3-0.7c-0.3-0.1-0.6,0.1-0.7,0.3
		C47,67,47.1,67.3,47.4,67.4z"/>
	<path class="st13" d="M49.4,68.1c0.3,0.1,0.6-0.1,0.7-0.3c0.1-0.3-0.1-0.6-0.3-0.7c-0.3-0.1-0.6,0.1-0.7,0.3
		C49,67.7,49.1,68,49.4,68.1z"/>
	<path class="st13" d="M51.1,68.5v-0.6c0,0-0.1,0.1-0.1,0.2C51,68.2,51,68.4,51.1,68.5z"/>
	<path class="st59" d="M46.1,41.6c0-1.2-0.7-2.2-1.8-2.6c-0.3-0.1-0.7-0.2-1.1-0.2c-1.6,0-2.9,1.3-2.9,2.9c0,1.3,0.9,2.5,2.2,2.8
		c0.2,0.1,0.4,0.1,0.7,0.1C44.8,44.4,46.1,43.2,46.1,41.6z"/>
	<path class="st57" d="M49,56.8c-1.6,0-2.9,1.3-2.9,2.9c0,1.6,1.3,2.9,2.9,2.9c0.8,0,1.6-0.4,2.1-1v-3.8
		C50.6,57.2,49.9,56.8,49,56.8z"/>
	<path class="st59" d="M38.4,69.2c0-1.6-1.3-2.9-2.9-2.9c0,0-0.1,0-0.1,0c-1.5,0.1-2.8,1.3-2.8,2.9c0,0.9,0.4,1.7,1.1,2.2
		c0.5,0.4,1.1,0.6,1.8,0.6C37.1,72.1,38.4,70.8,38.4,69.2z"/>
	<path class="st56" d="M65.4,73.1c-0.2-0.1-0.4-0.4-0.3-0.6c0.1-0.3,0.4-0.4,0.7-0.3c0.3,0.1,0.4,0.4,0.3,0.7c0,0.2-0.2,0.3-0.3,0.3
		h4.7l-1.6-5c-0.2,0.1-0.5,0.1-0.8,0.1c-1.6,0-2.9-1.3-2.9-2.9c0-1.2,0.8-2.3,1.9-2.7L61,43.9c0,0.1-0.1,0.1-0.2,0.2
		c-0.2,0.1-0.6,0-0.7-0.2s0-0.6,0.2-0.7c0.1-0.1,0.3-0.1,0.4,0l-3.9-11.9h-5.7V48c0-0.1,0.1-0.2,0.2-0.3c0.2-0.1,0.6,0,0.7,0.2
		c0.1,0.3,0,0.6-0.2,0.7c-0.2,0.1-0.6,0-0.7-0.2c0,0,0,0,0-0.1v9.4c0.5,0.5,0.7,1.2,0.7,1.9c0,0.7-0.3,1.4-0.7,1.9v6.3
		c0.1-0.2,0.4-0.3,0.6-0.2c0.3,0.1,0.4,0.4,0.3,0.7c-0.1,0.3-0.4,0.4-0.7,0.3c-0.1,0-0.2-0.1-0.3-0.2v4.6h3.6H65.4z M56.1,69.6
		C56,69.9,55.7,70,55.4,70c-0.3-0.1-0.4-0.4-0.3-0.7c0.1-0.3,0.4-0.4,0.7-0.3C56,69,56.1,69.3,56.1,69.6z M58.1,70.3
		c-0.1,0.3-0.4,0.4-0.7,0.3c-0.3-0.1-0.4-0.4-0.3-0.7c0.1-0.3,0.4-0.4,0.7-0.3C58,69.7,58.1,70,58.1,70.3z M60.1,70.9
		c-0.1,0.3-0.4,0.4-0.7,0.3c-0.3-0.1-0.4-0.4-0.3-0.7c0.1-0.3,0.4-0.4,0.7-0.3C60,70.3,60.1,70.6,60.1,70.9z M62.1,71.5
		c-0.1,0.3-0.4,0.4-0.7,0.3c-0.3-0.1-0.4-0.4-0.3-0.7c0.1-0.3,0.4-0.4,0.7-0.3C62,70.9,62.1,71.2,62.1,71.5z M63.7,71.5
		c0.3,0.1,0.4,0.4,0.3,0.7c-0.1,0.3-0.4,0.4-0.7,0.3c-0.3-0.1-0.4-0.4-0.3-0.7C63.1,71.6,63.4,71.4,63.7,71.5z M58.6,44
		c0.2-0.1,0.6,0,0.7,0.2c0.1,0.3,0,0.6-0.2,0.7c-0.2,0.1-0.6,0-0.7-0.2C58.2,44.5,58.3,44.2,58.6,44z M60.2,48.2
		c1.6,0,2.9,1.3,2.9,2.9c0,1.6-1.3,2.9-2.9,2.9c-1.6,0-2.9-1.3-2.9-2.9C57.4,49.4,58.7,48.2,60.2,48.2z M57,34.4
		c0.1-0.3,0.5-0.4,0.7-0.2s0.3,0.4,0.2,0.7c-0.1,0.3-0.5,0.4-0.7,0.2C56.9,35,56.9,34.7,57,34.4z M56.8,45c0.2-0.1,0.6,0,0.7,0.2
		c0.1,0.3,0,0.6-0.2,0.7c-0.2,0.1-0.6,0-0.7-0.2C56.4,45.4,56.5,45.1,56.8,45z M55.2,33.4c0.1-0.3,0.5-0.4,0.7-0.2
		c0.2,0.1,0.3,0.4,0.2,0.7c-0.1,0.3-0.5,0.4-0.7,0.2C55.1,34,55.1,33.7,55.2,33.4z M52.5,32c-0.1,0.3-0.5,0.4-0.7,0.2
		c-0.2-0.1-0.3-0.4-0.2-0.7c0.1-0.3,0.5-0.4,0.7-0.2C52.5,31.4,52.6,31.7,52.5,32z M53.2,46.8c0.2-0.1,0.6,0,0.7,0.2
		c0.1,0.3,0,0.6-0.2,0.7c-0.2,0.1-0.6,0-0.7-0.2C52.8,47.2,52.9,46.9,53.2,46.8z M54.1,69c-0.1,0.3-0.4,0.4-0.7,0.3
		c-0.3-0.1-0.4-0.4-0.3-0.7c0.1-0.3,0.4-0.4,0.7-0.3C54,68.4,54.1,68.7,54.1,69z M54.3,33c-0.1,0.3-0.5,0.4-0.7,0.2
		c-0.2-0.1-0.3-0.4-0.2-0.7c0.1-0.3,0.5-0.4,0.7-0.2C54.3,32.4,54.4,32.7,54.3,33z M55,45.9c0.2-0.1,0.6,0,0.7,0.2
		c0.1,0.3,0,0.6-0.2,0.7c-0.2,0.1-0.6,0-0.7-0.2C54.6,46.3,54.7,46,55,45.9z"/>
	<rect x="51.1" y="73.1" class="st58" width="3.6" height="5.7"/>
	<path class="st13" d="M52.3,31.3c-0.2-0.1-0.6,0-0.7,0.2c-0.1,0.3,0,0.6,0.2,0.7c0.2,0.1,0.6,0,0.7-0.2
		C52.6,31.7,52.5,31.4,52.3,31.3z"/>
	<path class="st13" d="M54.1,32.3c-0.2-0.1-0.6,0-0.7,0.2c-0.1,0.3,0,0.6,0.2,0.7c0.2,0.1,0.6,0,0.7-0.2
		C54.4,32.7,54.3,32.4,54.1,32.3z"/>
	<path class="st13" d="M55.4,34.2c0.2,0.1,0.6,0,0.7-0.2c0.1-0.3,0-0.6-0.2-0.7c-0.2-0.1-0.6,0-0.7,0.2C55.1,33.7,55.1,34,55.4,34.2
		z"/>
	<path class="st13" d="M57.2,35.1c0.2,0.1,0.6,0,0.7-0.2c0.1-0.3,0-0.6-0.2-0.7s-0.6,0-0.7,0.2C56.9,34.7,56.9,35,57.2,35.1z"/>
	<path class="st13" d="M60.4,43.1c-0.2,0.1-0.3,0.4-0.2,0.7s0.4,0.4,0.7,0.2c0.1,0,0.1-0.1,0.2-0.2c0.1-0.2,0.1-0.4,0-0.5
		c-0.1-0.1-0.2-0.2-0.3-0.3C60.6,43,60.5,43,60.4,43.1z"/>
	<path class="st13" d="M59,45c0.2-0.1,0.3-0.4,0.2-0.7c-0.1-0.3-0.4-0.4-0.7-0.2c-0.2,0.1-0.3,0.4-0.2,0.7C58.5,45,58.8,45.1,59,45z
		"/>
	<path class="st13" d="M57.2,45.9c0.2-0.1,0.3-0.4,0.2-0.7c-0.1-0.3-0.4-0.4-0.7-0.2c-0.2,0.1-0.3,0.4-0.2,0.7
		C56.7,45.9,57,46,57.2,45.9z"/>
	<path class="st13" d="M55.4,46.8c0.2-0.1,0.3-0.4,0.2-0.7c-0.1-0.3-0.4-0.4-0.7-0.2c-0.2,0.1-0.3,0.4-0.2,0.7
		C54.9,46.8,55.2,46.9,55.4,46.8z"/>
	<path class="st13" d="M53.6,47.7c0.2-0.1,0.3-0.4,0.2-0.7c-0.1-0.3-0.4-0.4-0.7-0.2c-0.2,0.1-0.3,0.4-0.2,0.7
		C53.1,47.8,53.4,47.9,53.6,47.7z"/>
	<path class="st13" d="M51.8,48.7c0.2-0.1,0.3-0.4,0.2-0.7c-0.1-0.3-0.4-0.4-0.7-0.2c-0.1,0.1-0.2,0.2-0.2,0.3v0.4c0,0,0,0,0,0.1
		C51.3,48.7,51.6,48.8,51.8,48.7z"/>
	<path class="st13" d="M51.4,68.7c0.3,0.1,0.6-0.1,0.7-0.3c0.1-0.3-0.1-0.6-0.3-0.7c-0.2-0.1-0.4,0-0.6,0.2v0.6
		C51.2,68.6,51.3,68.7,51.4,68.7z"/>
	<path class="st13" d="M53.7,68.3c-0.3-0.1-0.6,0.1-0.7,0.3c-0.1,0.3,0.1,0.6,0.3,0.7c0.3,0.1,0.6-0.1,0.7-0.3
		C54.1,68.7,54,68.4,53.7,68.3z"/>
	<path class="st13" d="M55.7,69c-0.3-0.1-0.6,0.1-0.7,0.3c-0.1,0.3,0.1,0.6,0.3,0.7c0.3,0.1,0.6-0.1,0.7-0.3
		C56.1,69.3,56,69,55.7,69z"/>
	<path class="st13" d="M57.7,69.6c-0.3-0.1-0.6,0.1-0.7,0.3c-0.1,0.3,0.1,0.6,0.3,0.7c0.3,0.1,0.6-0.1,0.7-0.3
		C58.1,70,58,69.7,57.7,69.6z"/>
	<path class="st13" d="M59.7,70.2c-0.3-0.1-0.6,0.1-0.7,0.3c-0.1,0.3,0.1,0.6,0.3,0.7c0.3,0.1,0.6-0.1,0.7-0.3
		C60.1,70.6,60,70.3,59.7,70.2z"/>
	<path class="st13" d="M61.7,70.9c-0.3-0.1-0.6,0.1-0.7,0.3c-0.1,0.3,0.1,0.6,0.3,0.7c0.3,0.1,0.6-0.1,0.7-0.3
		C62.1,71.2,62,70.9,61.7,70.9z"/>
	<path class="st13" d="M63.4,72.5c0.3,0.1,0.6-0.1,0.7-0.3c0.1-0.3-0.1-0.6-0.3-0.7c-0.3-0.1-0.6,0.1-0.7,0.3
		C63,72.1,63.1,72.4,63.4,72.5z"/>
	<path class="st13" d="M66.1,72.8c0.1-0.3-0.1-0.6-0.3-0.7c-0.3-0.1-0.6,0.1-0.7,0.3c-0.1,0.3,0.1,0.5,0.3,0.6c0,0,0,0,0,0
		c0.1,0,0.3,0,0.4,0C65.9,73,66,72.9,66.1,72.8z"/>
	<path class="st57" d="M60.2,53.9c1.6,0,2.9-1.3,2.9-2.9c0-1.6-1.3-2.9-2.9-2.9c-1.6,0-2.9,1.3-2.9,2.9
		C57.4,52.6,58.7,53.9,60.2,53.9z"/>
	<path class="st57" d="M51.1,57.7v3.8c0.5-0.5,0.7-1.2,0.7-1.9C51.9,58.9,51.6,58.2,51.1,57.7z"/>
	<path class="st59" d="M65.2,65.4c0,1.6,1.3,2.9,2.9,2.9c0.3,0,0.5,0,0.8-0.1c1.2-0.3,2.1-1.4,2.1-2.7c0-1.6-1.3-2.9-2.9-2.9
		c-0.4,0-0.7,0.1-1,0.2C66,63.1,65.2,64.1,65.2,65.4z"/>
</g>
</svg>
