<?xml version="1.0" encoding="utf-8"?>
<!-- Generator: Adobe Illustrator 22.1.0, SVG Export Plug-In . SVG Version: 6.00 Build 0)  -->
<svg version="1.1" id="Layer_1" xmlns="http://www.w3.org/2000/svg" xmlns:xlink="http://www.w3.org/1999/xlink" x="0px" y="0px"
	 viewBox="0 0 100 100" style="enable-background:new 0 0 100 100;" xml:space="preserve">
<style type="text/css">
	.st0{fill:#BE1E2D;}
	.st1{fill:#00B0BB;}
	.st2{fill:#63C4AF;}
	.st3{fill:#EAEAEA;}
	.st4{fill:#413E34;}
	.st5{fill:none;}
	.st6{clip-path:url(#SVGID_2_);}
	.st7{clip-path:url(#SVGID_4_);}
	.st8{fill:#1E0D12;}
	.st9{fill:#E62F34;}
	.st10{fill:#25793D;}
	.st11{clip-path:url(#SVGID_6_);}
	.st12{clip-path:url(#SVGID_8_);}
	.st13{fill:#FFFFFF;}
	.st14{clip-path:url(#SVGID_10_);}
	.st15{clip-path:url(#SVGID_12_);}
	.st16{fill:#96BF4D;}
	.st17{clip-path:url(#SVGID_14_);}
	.st18{fill-rule:evenodd;clip-rule:evenodd;fill:#FFFFFF;}
	.st19{fill:#C92927;}
	.st20{fill:#253748;}
	.st21{clip-path:url(#SVGID_16_);}
	.st22{fill:#97CB59;}
	.st23{fill:#DA2128;}
	.st24{fill:#00A14B;}
	.st25{fill:#96171A;}
	.st26{fill:#D1E39B;}
	.st27{fill:#4FBBBB;}
	.st28{fill:#37343F;}
	.st29{fill:#077A64;}
	.st30{fill:#F4EED4;}
	.st31{fill:#012E47;}
	.st32{fill:#BE1C42;}
	.st33{fill:#008E9F;}
	.st34{fill:#CD4134;}
	.st35{clip-path:url(#SVGID_18_);}
	.st36{clip-path:url(#SVGID_20_);}
	.st37{fill:#EE2424;}
	.st38{fill:#67BC45;}
	.st39{clip-path:url(#SVGID_22_);}
	.st40{clip-path:url(#SVGID_24_);}
	.st41{fill:#004A54;}
	.st42{fill:#D93128;}
	.st43{fill:#401B23;}
	.st44{fill:#EE2D40;}
	.st45{fill:#F1EBC9;}
	.st46{fill-rule:evenodd;clip-rule:evenodd;fill:#C92927;}
	.st47{fill-rule:evenodd;clip-rule:evenodd;fill:#96BF4D;}
	.st48{fill:#BD3026;}
	.st49{opacity:0.4;fill:#CD4134;}
	.st50{fill:#E6B448;}
	.st51{fill:#E21F26;}
	.st52{fill:#A82123;}
	.st53{fill:#383A3A;}
	.st54{fill:#F17B22;}
	.st55{fill:#F1F0DC;}
	.st56{fill:#56AE78;}
	.st57{fill:#EE262E;}
	.st58{fill:#C47229;}
	.st59{fill:#FEC010;}
	.st60{fill:#C0343E;}
	.st61{fill:url(#SVGID_25_);}
	.st62{fill:#659DAA;}
	.st63{fill:#C9A784;}
	.st64{fill:#DDCFB5;}
	.st65{fill:#D2A886;}
	.st66{fill:#9B3227;}
	.st67{opacity:0.39;fill:#FFFFFF;}
	.st68{fill:#E5E5E5;}
	.st69{fill:#202945;}
	.st70{fill:none;stroke:#ACA300;stroke-miterlimit:10;}
	.st71{fill:none;stroke:#ACA300;stroke-miterlimit:10;stroke-dasharray:2.0083,2.0083;}
	.st72{fill:#ACA300;}
</style>
<g>
	<defs>
		<rect id="SVGID_1_" x="280" y="-280" width="100" height="100"/>
	</defs>
	<clipPath id="SVGID_2_">
		<use xlink:href="#SVGID_1_"  style="overflow:visible;"/>
	</clipPath>
	<g class="st6">
		<g>
			<defs>
				
					<rect id="SVGID_3_" x="-187.5" y="-286.7" transform="matrix(0.6711 -0.7413 0.7413 0.6711 156.1378 180.3883)" width="937.7" height="401.9"/>
			</defs>
			<clipPath id="SVGID_4_">
				<use xlink:href="#SVGID_3_"  style="overflow:visible;"/>
			</clipPath>
			<g class="st7">
				
					<rect x="-5.2" y="180" transform="matrix(0.6711 -0.7413 0.7413 0.6711 -264.0949 389.8663)" class="st5" width="625.1" height="625.1"/>
				
					<rect x="-5.2" y="180" transform="matrix(0.6711 -0.7413 0.7413 0.6711 -264.0949 389.8663)" class="st8" width="625.1" height="625.1"/>
			</g>
			<g class="st7">
				
					<rect x="-49.1" y="-703" transform="matrix(0.6711 -0.7413 0.7413 0.6711 376.0661 66.9629)" class="st5" width="625.1" height="625.1"/>
				
					<rect x="-49.1" y="-703" transform="matrix(0.6711 -0.7413 0.7413 0.6711 376.0661 66.9629)" class="st8" width="625.1" height="625.1"/>
			</g>
			<g class="st7">
				
					<rect x="-468.6" y="-239.5" transform="matrix(0.6711 -0.7413 0.7413 0.6711 -105.4661 -91.666)" class="st5" width="625.1" height="625.1"/>
				
					<rect x="-468.6" y="-239.5" transform="matrix(0.6711 -0.7413 0.7413 0.6711 -105.4661 -91.666)" class="st8" width="625.1" height="625.1"/>
				<polygon class="st9" points="38.6,174 46.5,173.6 -44.5,91.2 -44.1,99.1 				"/>
				<polygon class="st9" points="54.4,173.2 62.3,172.8 -45.3,75.4 -44.9,83.3 				"/>
				<polygon class="st9" points="56.8,62.5 48.9,62.9 48.9,62.9 56.8,62.5 				"/>
				<polygon class="st9" points="65.1,70 65.1,70 56.8,62.5 48.9,62.9 65.5,77.8 				"/>
				<polygon class="st9" points="41,63.3 33.2,63.6 41,63.3 				"/>
				<polygon class="st9" points="65.9,85.7 65.9,85.7 41,63.3 33.2,63.6 66.3,93.6 				"/>
				<polygon class="st9" points="25.3,64 17.4,64.4 17.4,64.4 25.3,64 				"/>
				<polygon class="st9" points="66.6,101.5 66.6,101.5 25.3,64 17.4,64.4 67,109.4 				"/>
				<polygon class="st9" points="9.5,64.8 1.6,65.2 1.6,65.2 9.5,64.8 				"/>
				<polygon class="st9" points="67.4,117.3 67.4,117.3 9.5,64.8 1.6,65.2 67.8,125.1 				"/>
				<polygon class="st9" points="68.2,133 68.2,133 -6.3,65.6 -14.1,66 68.6,140.9 				"/>
				<polygon class="st9" points="69,148.8 69,148.8 -22,66.4 -29.9,66.8 69.4,156.7 				"/>
				<polygon class="st9" points="70.2,172.4 69.8,164.6 69.8,164.6 -37.8,67.2 -45.7,67.6 				"/>
				<polygon class="st9" points="66.3,93.6 66.3,93.6 66.3,93.6 66.3,93.6 				"/>
				<polygon class="st9" points="65.9,85.7 66.3,93.6 66.3,93.6 				"/>
				<polygon class="st9" points="66.3,93.6 149,168.5 156.9,168.1 65.9,85.7 				"/>
				<polygon class="st9" points="66.3,93.6 66.3,93.6 66.3,93.6 66.3,93.6 65.9,85.7 65.9,85.7 				"/>
				<polygon class="st9" points="66.3,93.6 66.3,93.6 66.3,93.6 66.3,93.6 				"/>
				<polygon class="st9" points="66.3,93.6 66.3,93.6 65.9,85.7 65.9,85.7 				"/>
				<polygon class="st9" points="66.3,93.6 65.9,85.7 65.9,85.7 66.3,93.6 				"/>
				<polygon class="st9" points="65.5,77.8 65.5,77.8 65.5,77.8 65.5,77.8 				"/>
				<polygon class="st9" points="65.1,70 65.1,70 65.5,77.8 65.5,77.8 				"/>
				<polygon class="st9" points="65.5,77.8 164.8,167.7 172.7,167.4 65.1,70 				"/>
				<polygon class="st9" points="65.5,77.8 65.5,77.8 65.5,77.8 65.5,77.8 65.1,70 65.1,70 				"/>
				<polygon class="st9" points="65.5,77.8 65.5,77.8 65.5,77.8 65.5,77.8 				"/>
				<polygon class="st9" points="65.5,77.8 65.5,77.8 65.1,70 65.1,70 				"/>
				<polygon class="st9" points="65.1,70 65.5,77.8 65.5,77.8 65.1,70 				"/>
				<polygon class="st9" points="96.2,60.5 96.2,60.5 104.1,60.1 104.1,60.1 				"/>
				<polygon class="st9" points="96.2,60.5 179,135.4 178.6,127.5 104.1,60.1 				"/>
				<polygon class="st9" points="80.5,61.3 80.5,61.3 88.3,60.9 88.3,60.9 				"/>
				<polygon class="st9" points="80.5,61.3 179.8,151.2 179.4,143.3 88.3,60.9 				"/>
				<polygon class="st9" points="64.7,62.1 64.7,62.1 72.6,61.7 72.6,61.7 				"/>
				<polygon class="st9" points="64.7,62.1 64.7,62.1 64.7,62.1 				"/>
				<polygon class="st9" points="64.7,62.1 64.7,62.1 180.5,167 180.2,159.1 72.6,61.7 				"/>
				<polygon class="st9" points="64.7,62.1 64.7,62.1 64.7,62.1 64.7,62.1 				"/>
				<polygon class="st9" points="64.7,62.1 64.7,62.1 64.7,62.1 				"/>
				<polygon class="st10" points="172.7,9.3 106.5,-50.7 103.4,-50.5 98.6,-50.3 173.1,17.2 				"/>
				<polygon class="st10" points="173.9,32.9 173.5,25.1 90.7,-49.9 84.7,-49.6 82.9,-49.5 				"/>
				<polygon class="st10" points="174.7,48.7 174.3,40.8 75,-49.1 67.7,-48.7 67.1,-48.7 				"/>
				<polygon class="st10" points="63.9,46.3 64.3,54.2 64.3,54.2 63.9,46.3 				"/>
				<polygon class="st10" points="80.5,61.3 63.9,46.3 64.3,54.2 72.6,61.7 				"/>
				<polygon class="st10" points="63.9,46.3 63.9,46.3 64.3,54.2 64.3,54.2 				"/>
				<polygon class="st10" points="63.5,38.4 63.5,38.4 63.1,30.5 				"/>
				<polygon class="st10" points="96.2,60.5 63.1,30.5 63.5,38.4 88.3,60.9 				"/>
				<polygon class="st10" points="63.1,30.5 63.1,30.5 63.5,38.4 63.5,38.4 				"/>
				<polygon class="st10" points="62.3,14.8 62.7,22.7 62.7,22.7 62.3,14.8 				"/>
				<polygon class="st10" points="62.7,22.7 104.1,60.1 112,59.7 62.3,14.8 				"/>
				<polygon class="st10" points="62.3,14.8 62.3,14.8 62.7,22.7 62.7,22.7 				"/>
				<polygon class="st10" points="61.6,-1 62,6.9 61.6,-1 				"/>
				<polygon class="st10" points="62,6.9 119.9,59.3 127.8,58.9 61.6,-1 				"/>
				<polygon class="st10" points="61.6,-1 61.6,-1 62,6.9 62,6.9 				"/>
				<polygon class="st10" points="61.2,-8.9 135.6,58.5 143.5,58.2 60.8,-16.8 				"/>
				<polygon class="st10" points="60.4,-24.6 151.4,57.8 159.3,57.4 60,-32.5 				"/>
				<polygon class="st10" points="167.2,57 175.1,56.6 59.2,-48.3 59.6,-40.4 				"/>
				<polygon class="st10" points="88.3,60.9 88.3,60.9 96.2,60.5 96.2,60.5 				"/>
				<polygon class="st10" points="88.3,60.9 179.4,143.3 179,135.4 96.2,60.5 				"/>
				<polygon class="st10" points="72.6,61.7 72.6,61.7 80.5,61.3 80.5,61.3 				"/>
				<polygon class="st10" points="72.6,61.7 180.2,159.1 179.8,151.2 80.5,61.3 				"/>
				<polygon class="st10" points="66.3,93.6 66.3,93.6 66.6,101.5 66.7,101.5 				"/>
				<polygon class="st10" points="66.7,101.5 141.1,168.9 149,168.5 66.3,93.6 				"/>
				<polygon class="st10" points="66.7,101.5 66.7,101.5 66.7,101.5 66.7,101.5 66.3,93.6 66.3,93.6 				"/>
				<polygon class="st10" points="66.7,101.5 66.7,101.5 66.3,93.6 66.3,93.6 				"/>
				<polygon class="st10" points="65.5,77.8 65.5,77.8 65.9,85.7 65.9,85.7 				"/>
				<polygon class="st10" points="65.9,85.7 65.9,85.7 65.9,85.7 				"/>
				<polygon class="st10" points="65.9,85.7 156.9,168.1 164.8,167.7 65.5,77.8 				"/>
				<polygon class="st10" points="65.9,85.7 65.9,85.7 65.9,85.7 65.9,85.7 65.5,77.8 65.5,77.8 				"/>
				<polygon class="st10" points="65.9,85.7 65.9,85.7 65.5,77.8 65.5,77.8 				"/>
				<polygon class="st10" points="65.9,85.7 65.9,85.7 65.9,85.7 65.9,85.7 				"/>
				<polygon class="st10" points="65.9,85.7 65.9,85.7 65.9,85.7 65.9,85.7 				"/>
				<polygon class="st10" points="64.7,62.1 65.1,70 65.1,70 				"/>
				<polygon class="st10" points="65.1,70 65.1,70 65.1,70 65.1,70 				"/>
				<polygon class="st10" points="65.1,70 172.7,167.4 180.5,167 64.7,62.1 				"/>
				<polygon class="st10" points="65.1,70 65.1,70 65.1,70 65.1,70 64.7,62.1 64.7,62.1 				"/>
				<polygon class="st10" points="65.1,70 64.7,62.1 64.7,62.1 65.1,70 				"/>
				<polygon class="st10" points="65.1,70 65.1,70 65.1,70 65.1,70 				"/>
				<polygon class="st10" points="65.1,70 65.1,70 65.1,70 65.1,70 				"/>
			</g>
		</g>
	</g>
</g>
<g>
	<defs>
		<rect id="SVGID_5_" x="-560" y="-140" width="100" height="100"/>
	</defs>
	<clipPath id="SVGID_6_">
		<use xlink:href="#SVGID_5_"  style="overflow:visible;"/>
	</clipPath>
	<g class="st11">
		<g>
			<defs>
				<rect id="SVGID_7_" x="-631.3" y="-838.9" width="595" height="1388.2"/>
			</defs>
			<clipPath id="SVGID_8_">
				<use xlink:href="#SVGID_7_"  style="overflow:visible;"/>
			</clipPath>
			<g class="st12">
				<rect x="-455.1" y="-141.6" class="st5" width="466" height="466"/>
				<rect x="-455.1" y="-141.6" class="st13" width="466" height="466"/>
				<g>
					<g>
						<polygon class="st9" points="10.9,91.4 10.9,99.4 2.8,99.4 						"/>
						<polygon class="st9" points="10.9,83.4 -5.2,99.4 -13.3,99.4 10.9,75.3 						"/>
						<polygon class="st9" points="10.9,67.3 -21.3,99.4 -29.3,99.4 10.9,59.3 						"/>
						<polygon class="st9" points="10.9,51.2 -37.4,99.4 -45.4,99.4 10.9,43.2 						"/>
						<polygon class="st9" points="10.9,35.2 -53.4,99.4 -61.5,99.4 10.9,27.1 						"/>
						<polygon class="st9" points="10.9,19.1 -69.5,99.4 -77.5,99.4 10.9,11.1 						"/>
						<polygon class="st9" points="10.9,3 -85.6,99.4 -93.6,99.4 10.9,-5 						"/>
						<polygon class="st9" points="10.9,-13 2.8,-13 -101.6,91.4 -101.6,99.4 						"/>
					</g>
				</g>
			</g>
		</g>
	</g>
</g>
<g>
	<defs>
		<rect id="SVGID_13_" x="-140" y="-140" width="100" height="100"/>
	</defs>
	<clipPath id="SVGID_10_">
		<use xlink:href="#SVGID_13_"  style="overflow:visible;"/>
	</clipPath>
	<g class="st14">
		<rect x="-224.6" y="-230.3" class="st18" width="268.4" height="268.4"/>
		<g>
			<polygon class="st19" points="-202.2,4.5 -185.4,21.3 -179.9,26.9 -174.3,21.3 -157.5,4.5 -140.7,21.3 -135.1,26.9 -129.5,21.3 
				-112.7,4.5 -90.4,26.9 -84.8,21.3 -68,4.5 -51.2,21.3 -45.6,26.9 -40.1,21.3 -40.1,21.3 -23.3,4.5 -6.5,21.3 -6.5,21.3 
				-0.9,26.9 -0.9,26.9 -0.9,26.9 4.7,21.3 4.7,21.3 21.5,4.5 43.8,26.9 43.8,15.7 27,-1.1 21.5,-6.6 15.9,-1.1 -0.9,15.7 
				-23.3,-6.6 -28.9,-1.1 -45.6,15.7 -62.4,-1.1 -68,-6.6 -73.6,-1.1 -90.4,15.7 -112.7,-6.6 -118.3,-1.1 -135.1,15.7 -151.9,-1.1 
				-157.5,-6.6 -163.1,-1.1 -179.9,15.7 -196.6,-1.1 -202.2,-6.6 -207.8,-1.1 -224.6,15.7 -224.6,26.9 -224.6,26.9 			"/>
		</g>
		<g>
			<polygon class="st16" points="-202.2,-17.9 -185.4,-1.1 -179.9,4.5 -174.3,-1.1 -157.5,-17.9 -140.7,-1.1 -135.1,4.5 
				-129.5,-1.1 -112.7,-17.9 -90.4,4.5 -84.8,-1.1 -68,-17.9 -51.2,-1.1 -45.6,4.5 -40.1,-1.1 -40.1,-1.1 -23.3,-17.9 -6.5,-1.1 
				-6.5,-1.1 -0.9,4.5 -0.9,4.5 -0.9,4.5 4.7,-1.1 4.7,-1.1 21.5,-17.9 43.8,4.5 43.8,-6.6 27,-23.4 21.5,-29 15.9,-23.4 -0.9,-6.6 
				-23.3,-29 -28.9,-23.4 -45.6,-6.6 -62.4,-23.4 -68,-29 -73.6,-23.4 -90.4,-6.6 -112.7,-29 -118.3,-23.4 -135.1,-6.6 
				-151.9,-23.4 -157.5,-29 -163.1,-23.4 -179.9,-6.6 -196.6,-23.4 -202.2,-29 -207.8,-23.4 -224.6,-6.6 -224.6,4.5 -224.6,4.5 			
				"/>
			<polygon class="st16" points="21.5,15.7 15.9,21.3 -0.9,38.1 -23.3,15.7 -28.9,21.3 -45.6,38.1 -62.4,21.3 -68,15.7 -73.6,21.3 
				-90.4,38.1 -112.7,15.7 -118.3,21.3 -135.1,38.1 -151.9,21.3 -157.5,15.7 -163.1,21.3 -179.9,38.1 -196.6,21.3 -202.2,15.7 
				-207.8,21.3 -224.6,38.1 -224.6,38.1 -213.4,38.1 -202.2,26.9 -191,38.1 -168.7,38.1 -157.5,26.9 -146.3,38.1 -124,38.1 
				-112.7,26.9 -101.5,38.1 -79.2,38.1 -68,26.9 -56.8,38.1 -34.5,38.1 -23.3,26.9 -12.1,38.1 10.3,38.1 21.5,26.9 32.7,38.1 
				43.8,38.1 43.8,38.1 27,21.3 			"/>
		</g>
	</g>
</g>
<rect x="0" y="0" class="st30" width="100" height="100"/>
<g>
	<defs>
		<rect id="SVGID_21_" x="-140" y="140" width="100" height="100"/>
	</defs>
	<clipPath id="SVGID_12_">
		<use xlink:href="#SVGID_21_"  style="overflow:visible;"/>
	</clipPath>
	<g class="st15">
		<g>
			<defs>
				<rect id="SVGID_23_" x="-179.2" y="-61.7" width="154.9" height="464.7"/>
			</defs>
			<clipPath id="SVGID_14_">
				<use xlink:href="#SVGID_23_"  style="overflow:visible;"/>
			</clipPath>
			<g class="st17">
				<rect x="-26.5" y="-3.9" class="st5" width="57.8" height="57.8"/>
				<polygon class="st13" points="-2.2,-3.9 -26.5,20.4 -26.5,23.5 0.8,-3.9 				"/>
				<polygon class="st13" points="3.9,-3.9 -26.5,26.5 -26.5,53.9 31.3,-3.9 				"/>
				<polygon class="st38" points="0.8,-3.9 -26.5,23.5 -26.5,26.5 3.9,-3.9 				"/>
				<polygon class="st13" points="31.3,20.4 -2.2,53.9 0.8,53.9 31.3,23.5 				"/>
				<polygon class="st13" points="3.9,53.9 31.3,53.9 31.3,53.9 31.3,26.5 				"/>
				<polygon class="st37" points="31.3,-3.9 31.3,-3.9 -26.5,53.9 -26.5,53.9 -2.2,53.9 31.3,20.4 				"/>
				<polygon class="st38" points="31.3,23.5 0.8,53.9 3.9,53.9 31.3,26.5 				"/>
			</g>
			<g class="st17">
				<rect x="-26.5" y="53.9" class="st5" width="57.8" height="57.8"/>
				<polygon class="st13" points="-2.2,53.9 -26.5,78.2 -26.5,81.3 0.8,53.9 				"/>
				<polygon class="st13" points="3.9,53.9 -26.5,84.3 -26.5,111.7 31.3,53.9 				"/>
				<polygon class="st38" points="0.8,53.9 -26.5,81.3 -26.5,84.3 3.9,53.9 				"/>
				<polygon class="st13" points="31.3,78.2 -2.2,111.7 0.8,111.7 31.3,81.3 				"/>
				<polygon class="st13" points="3.9,111.7 31.3,111.7 31.3,111.7 31.3,84.3 				"/>
				<polygon class="st37" points="31.3,53.9 31.3,53.9 -26.5,111.7 -26.5,111.7 -2.2,111.7 31.3,78.2 				"/>
				<polygon class="st38" points="31.3,81.3 0.8,111.7 3.9,111.7 31.3,84.3 				"/>
			</g>
		</g>
	</g>
</g>
<path class="st60" d="M80.9,45.4c0-0.4-0.2-0.7-0.5-0.9c-0.2-0.1-0.5-0.3-1-0.2c-1.4,0.2-2.8,0.5-4.1,0.7c0.9-1,1.7-2,2.5-2.9
	l0.4-0.4c0.2-0.3,0.3-0.6,0.3-1c0-0.5-0.5-1-1-1.2c-0.5-0.2-1,0-1.4,0.4l-0.4,0.5c-1.5,1.8-3.1,3.7-4.8,5.3c0,0-0.1,0.1-0.1,0.1
	c-2.1,0.3-4.2,0.7-6.3,1c0.6-1.9,1.5-3.7,2.6-5.2c0.2-0.3,0.3-0.6,0.3-1c0-0.4-0.3-0.8-0.6-1c-0.3-0.2-0.8-0.3-1.2-0.1
	c-2,0.7-3.7,1-5.2,1c1.4-1.9,2.7-3.8,4.1-5.7c0.4-0.1,0.8-0.2,1.2-0.3c2.2-0.5,4.5-1.1,6.8-1.8c0.6-0.2,0.9-0.7,0.9-1.3
	c0-0.4-0.3-0.9-0.6-1.1c-0.3-0.2-0.8-0.3-1.2-0.1c-1.6,0.5-3.2,0.9-4.6,1.3c0.8-1.1,1.6-2.3,2.4-3.4c0.2-0.3,0.3-0.6,0.3-0.9
	c0-0.6-0.5-1.1-1.1-1.3c-0.5-0.1-1,0.1-1.3,0.5c-0.8,1.1-1.6,2.3-2.4,3.4c-0.1-1-0.1-2-0.2-2.9l-0.1-1.5c-0.1-0.9-0.8-1.3-1.5-1.2
	c-0.7,0.1-1.3,0.6-1.2,1.4l0.1,1.5c0.2,1.9,0.3,4,0.3,6.2c0,0.1,0,0.1,0,0.2c-1.3,1.8-2.6,3.6-3.9,5.4c-1-1.9-1.7-3.9-2-5.9
	c-0.1-0.6-0.6-1.1-1.2-1.2c-0.6-0.1-1.1,0.2-1.4,0.7c-0.9,1.7-1.8,3.1-2.8,4.1c-0.3-2.2-0.7-4.3-1.1-6.5c0.2-0.3,0.4-0.7,0.6-1
	c1.2-1.9,2.5-4,3.5-6.1c0.1-0.2,0.2-0.5,0.1-0.7c0-0.6-0.5-1.1-1.1-1.2c-0.6-0.1-1.2,0.2-1.4,0.7c-0.7,1.5-1.6,2.9-2.4,4.2
	c-0.2-1.4-0.5-2.7-0.7-4.1c-0.1-0.9-0.9-1.2-1.6-1.2c-0.8,0.1-1.2,0.7-1.1,1.5c0.2,1.4,0.5,2.8,0.7,4.1c-1-0.9-2-1.7-2.9-2.5
	l-0.5-0.4c-0.4-0.4-1-0.4-1.4-0.2c-0.5,0.3-0.8,0.8-0.8,1.4c0,0.3,0.2,0.6,0.5,0.9l0.5,0.4c1.8,1.5,3.7,3.1,5.3,4.8
	c0,0,0.1,0.1,0.1,0.1c0.4,2.2,0.7,4.4,1.1,6.5c-2.1-0.6-4.2-1.6-5.9-2.8c-0.5-0.3-1.1-0.4-1.5-0.1c-0.6,0.3-0.8,1-0.6,1.6
	c0.6,1.8,0.9,3.3,0.9,4.8c-1.7-1.2-3.3-2.4-5-3.6c-0.1-0.4-0.2-0.8-0.3-1.2c-0.5-2.2-1.1-4.5-1.8-6.8c-0.2-0.7-0.8-1-1.5-0.9
	c-0.6,0.1-1.2,0.7-1.1,1.4c0,0.1,0,0.2,0.1,0.3c0.5,1.6,0.9,3.2,1.3,4.6c-1.1-0.8-2.3-1.6-3.4-2.4c-0.5-0.3-1-0.3-1.5-0.1
	c-0.5,0.3-0.8,0.8-0.7,1.3c0,0.4,0.2,0.7,0.5,0.9c1.1,0.8,2.3,1.9,3.5,2.7c-1.3,0.1-2.6,0.5-3.9,0.6l-0.5,0
	c-0.9,0.1-1.3,0.5-1.2,1.2c0,0.4,0.2,0.6,0.5,0.8c0.3,0.2,0.6,0.2,1,0.2l0.5-0.1c2.4-0.2,4.8-0.4,7.2-0.4c0.1,0,0.1,0,0.2,0
	c1.7,1.2,3.4,2.5,5.1,3.7c-2,1.1-4.1,1.9-6.3,2.2c-0.7,0.1-1.3,0.8-1.2,1.5c0,0.5,0.3,0.8,0.8,1.1c1.8,0.9,3.1,1.8,4.2,2.8
	c-2,0.3-4,0.6-6,1c-0.3-0.2-0.7-0.4-1-0.6c-1.9-1.2-4-2.5-6.1-3.5c-0.4-0.2-0.9-0.2-1.3,0.1c-0.4,0.3-0.7,0.8-0.6,1.3
	c0,0.5,0.3,0.8,0.7,1.1c1.5,0.7,2.9,1.6,4.2,2.4c-1.4,0.2-2.7,0.5-4.1,0.7c-0.8,0.1-1.2,0.9-1.2,1.5c0,0.4,0.2,0.7,0.5,0.9
	c0.2,0.1,0.5,0.3,1,0.2c1.4-0.2,2.8-0.5,4.1-0.7c-0.9,1-1.7,2-2.5,2.9l-0.4,0.4c-0.2,0.3-0.3,0.6-0.3,1c0,0.5,0.5,1,1,1.2
	c0.5,0.2,1,0,1.4-0.4l0.4-0.5c1.5-1.8,3.1-3.7,4.8-5.3c0,0,0.1-0.1,0.1-0.1c2-0.3,3.9-0.6,5.9-1c-0.6,2.1-1.6,4.1-2.8,5.8
	c-0.2,0.3-0.3,0.6-0.3,1c0,0.4,0.3,0.8,0.6,1c0.3,0.2,0.8,0.3,1.2,0.1c2-0.7,3.8-1,5.4-1c-1.2,1.7-2.4,3.3-3.6,5
	c-0.4,0.1-0.8,0.2-1.2,0.3c-2.2,0.5-4.6,1.1-6.8,1.8c-0.6,0.2-0.9,0.7-0.9,1.3c0,0.4,0.3,0.9,0.6,1.1c0.3,0.2,0.8,0.3,1.2,0.1
	c1.6-0.5,3.2-0.9,4.6-1.3c-0.8,1.1-1.6,2.3-2.4,3.4c-0.2,0.3-0.3,0.6-0.3,0.9c0,0.6,0.5,1.1,1.1,1.3c0.5,0.1,1,0,1.3-0.5
	c0.8-1.1,1.6-2.3,2.4-3.4c0.1,1,0.1,2,0.2,2.9l0.1,1.5c0.1,0.9,0.8,1.3,1.5,1.2c0.7-0.1,1.3-0.6,1.2-1.4l-0.1-1.5
	c-0.2-1.9-0.3-4-0.3-6.2c0-0.1,0-0.1,0-0.2c1.1-1.5,2.2-3.1,3.3-4.6c1,1.8,1.6,3.8,2,5.8c0.1,0.6,0.6,1.1,1.2,1.2
	c0.6,0.1,1.1-0.2,1.4-0.7c1-2.1,2.1-3.6,3.4-4.7c0.3,2.2,0.7,4.3,1.1,6.5c-0.2,0.3-0.4,0.7-0.6,1c-1.2,1.9-2.5,4-3.5,6.1
	C49,77.5,49,77.7,49,78c0,0.6,0.5,1.1,1.1,1.2c0.6,0.1,1.2-0.2,1.4-0.7c0.7-1.5,1.6-2.9,2.4-4.2c0.2,1.4,0.5,2.7,0.7,4.1
	c0.1,0.9,0.9,1.2,1.6,1.2c0.8-0.1,1.2-0.7,1.1-1.5c-0.2-1.4-0.5-2.8-0.7-4.1c1,0.9,2,1.7,2.9,2.5l0.4,0.4c0.4,0.4,1,0.4,1.4,0.2
	c0.5-0.3,0.8-0.8,0.8-1.4c0-0.3-0.2-0.6-0.5-0.9l-0.5-0.4c-1.8-1.5-3.7-3.1-5.3-4.8c0,0-0.1-0.1-0.1-0.1c-0.3-1.9-0.6-3.8-0.9-5.7
	c1.9,0.6,3.6,1.5,5.1,2.6c0.5,0.3,1.1,0.4,1.5,0.1c0.6-0.3,0.8-1,0.6-1.6c-0.5-1.6-0.8-2.9-0.9-4.1c0-0.6-0.1-1.2,0-1.7
	c1.9,1.4,3.8,2.7,5.6,4.1c0.1,0.4,0.2,0.8,0.3,1.2c0.5,2.2,1.1,4.5,1.8,6.8c0.2,0.7,0.8,1,1.5,0.9c0.6-0.1,1.2-0.7,1.1-1.4
	c0-0.1,0-0.2-0.1-0.3c-0.5-1.6-0.9-3.2-1.3-4.6c1.1,0.8,2.3,1.6,3.4,2.4c0.5,0.3,1,0.3,1.5,0.1c0.5-0.3,0.8-0.8,0.7-1.3
	c0-0.4-0.2-0.7-0.5-0.9c-1.1-0.8-2.3-2.1-3.5-2.9c1.3-0.1,2.6-0.7,3.9-0.8l0.5,0c0.9-0.1,1.3-0.3,1.2-1c0-0.4-0.2-0.7-0.5-0.9
	c-0.3-0.2-0.6-0.3-1-0.2l-0.5,0c-2.4,0.2-4.8,0.6-7.2,0.6c-0.1,0-0.1,0.1-0.2,0.1c-1.6-1.2-3.3-2.3-4.9-3.5c1.7-0.9,3.6-1.4,5.4-1.7
	c0.7-0.1,1.3-0.8,1.2-1.5c0-0.5-0.3-0.8-0.8-1.1c-2-1-3.5-2.1-4.7-3.3c2.3-0.4,4.7-0.8,7-1.1c0.3,0.2,0.7,0.4,1,0.6
	c1.9,1.2,4,2.5,6.1,3.5c0.4,0.2,0.9,0.2,1.3-0.1c0.4-0.3,0.7-0.8,0.6-1.3c0-0.5-0.3-0.8-0.7-1.1c-1.5-0.7-2.9-1.6-4.2-2.4
	c1.4-0.2,2.7-0.5,4.1-0.7C80.6,46.8,80.9,46,80.9,45.4z M58.5,42.9c1.5,0.2,3,0.2,4.7-0.1c-0.7,1.4-1.3,2.9-1.7,4.4
	c-2.3,0.4-4.6,0.7-7,1.1C55.8,46.5,57.1,44.7,58.5,42.9z M48.3,40.2c0.1,0.1,0.2,0.2,0.3,0.3c0.3,2.2,0.7,4.4,1,6.6
	c-2-1.5-4-2.9-6-4.4c0.1-0.9,0.1-1.8,0-2.7c0-0.5-0.1-1-0.2-1.5C45,39.2,46.7,39.8,48.3,40.2z M37.3,47.4c1.6-0.5,3.2-1.3,4.6-2.1
	c0.2,0,0.4,0,0.5,0c1.9,1.4,3.7,2.7,5.6,4.1c-2.5,0.4-5,0.8-7.5,1.2C39.7,49.3,38.6,48.3,37.3,47.4z M44,58
	c-1.5-0.2-3.1-0.2-4.9,0.1c0.8-1.5,1.4-3.2,1.8-4.8c0.1-0.1,0.1-0.1,0.2-0.2c2.4-0.4,4.9-0.8,7.3-1.1C47,54,45.5,56,44,58z
	 M48.1,64.3c-0.5-1.6-1.2-3.1-2-4.5c1.5-2.1,3-4.2,4.6-6.3c0.4,2.4,0.7,4.7,1.1,7.1C50.4,61.6,49.2,62.8,48.1,64.3z M52.3,46.7
	c-0.4-2.3-0.7-4.6-1.1-6.9c1.1-0.9,2.1-1.9,3-3.2c0.5,1.6,1.3,3.2,2.1,4.6C55,43,53.7,44.8,52.3,46.7z M54.5,60.7
	c-0.4-2.5-0.8-5.1-1.2-7.6c1.8,1.3,3.7,2.7,5.5,4c-0.2,1.2-0.3,2.4-0.2,3.7c0,0.5,0.1,1,0.2,1.5C57.4,61.7,56,61.1,54.5,60.7z
	 M65.1,53.5c-1.4,0.5-2.8,1.1-4.2,1.8c-2-1.5-4-2.9-6-4.4c2.2-0.3,4.3-0.7,6.5-1C62.4,51.3,63.6,52.4,65.1,53.5z"/>
</svg>
