<?xml version="1.0" encoding="utf-8"?>
<!-- Generator: Adobe Illustrator 22.1.0, SVG Export Plug-In . SVG Version: 6.00 Build 0)  -->
<svg version="1.1" id="Layer_1" xmlns="http://www.w3.org/2000/svg" xmlns:xlink="http://www.w3.org/1999/xlink" x="0px" y="0px"
	 viewBox="0 0 100 100" style="enable-background:new 0 0 100 100;" xml:space="preserve">
<style type="text/css">
	.st0{fill:#BE1E2D;}
	.st1{fill:#00B0BB;}
	.st2{fill:#63C4AF;}
	.st3{fill:#EAEAEA;}
	.st4{fill:#413E34;}
	.st5{fill:none;}
	.st6{clip-path:url(#SVGID_2_);}
	.st7{clip-path:url(#SVGID_4_);}
	.st8{fill:#1E0D12;}
	.st9{fill:#E62F34;}
	.st10{fill:#25793D;}
	.st11{clip-path:url(#SVGID_6_);}
	.st12{clip-path:url(#SVGID_8_);}
	.st13{fill:#FFFFFF;}
	.st14{clip-path:url(#SVGID_10_);}
	.st15{clip-path:url(#SVGID_12_);}
	.st16{fill:#96BF4D;}
	.st17{clip-path:url(#SVGID_14_);}
	.st18{fill-rule:evenodd;clip-rule:evenodd;fill:#FFFFFF;}
	.st19{fill:#C92927;}
	.st20{fill:#253748;}
	.st21{clip-path:url(#SVGID_16_);}
	.st22{fill:#97CB59;}
	.st23{fill:#DA2128;}
	.st24{fill:#00A14B;}
	.st25{fill:#96171A;}
	.st26{fill:#D1E39B;}
	.st27{fill:#4FBBBB;}
	.st28{fill:#37343F;}
	.st29{fill:#077A64;}
	.st30{fill:#F4EED4;}
	.st31{fill:#012E47;}
	.st32{fill:#BE1C42;}
	.st33{fill:#008E9F;}
	.st34{fill:#CD4134;}
	.st35{clip-path:url(#SVGID_18_);}
	.st36{clip-path:url(#SVGID_20_);}
	.st37{fill:#EE2424;}
	.st38{fill:#67BC45;}
	.st39{clip-path:url(#SVGID_22_);}
	.st40{clip-path:url(#SVGID_24_);}
	.st41{fill:#004A54;}
	.st42{fill:#D93128;}
	.st43{fill:#401B23;}
	.st44{fill:#EE2D40;}
	.st45{fill:#F1EBC9;}
	.st46{fill-rule:evenodd;clip-rule:evenodd;fill:#C92927;}
	.st47{fill-rule:evenodd;clip-rule:evenodd;fill:#96BF4D;}
	.st48{fill:#BD3026;}
	.st49{opacity:0.4;fill:#CD4134;}
	.st50{fill:#E6B448;}
	.st51{fill:#E21F26;}
	.st52{fill:#A82123;}
	.st53{fill:#383A3A;}
	.st54{fill:#F17B22;}
	.st55{fill:#F1F0DC;}
	.st56{fill:#56AE78;}
	.st57{fill:#EE262E;}
	.st58{fill:#C47229;}
	.st59{fill:#FEC010;}
	.st60{fill:#C0343E;}
	.st61{fill:url(#SVGID_25_);}
	.st62{fill:#659DAA;}
	.st63{fill:#C9A784;}
	.st64{fill:#DDCFB5;}
	.st65{fill:#D2A886;}
	.st66{fill:#9B3227;}
	.st67{opacity:0.39;fill:#FFFFFF;}
	.st68{fill:#E5E5E5;}
	.st69{fill:#202945;}
	.st70{fill:none;stroke:#ACA300;stroke-miterlimit:10;}
	.st71{fill:none;stroke:#ACA300;stroke-miterlimit:10;stroke-dasharray:2.0083,2.0083;}
	.st72{fill:#ACA300;}
</style>
<g>
	<defs>
		<rect id="SVGID_1_" x="140" y="-280" width="100" height="100"/>
	</defs>
	<clipPath id="SVGID_2_">
		<use xlink:href="#SVGID_1_"  style="overflow:visible;"/>
	</clipPath>
	<g class="st6">
		<g>
			<defs>
				
					<rect id="SVGID_3_" x="-327.5" y="-286.7" transform="matrix(0.6711 -0.7413 0.7413 0.6711 110.0981 76.6026)" width="937.7" height="401.9"/>
			</defs>
			<clipPath id="SVGID_4_">
				<use xlink:href="#SVGID_3_"  style="overflow:visible;"/>
			</clipPath>
			<g class="st7">
				
					<rect x="-145.2" y="180" transform="matrix(0.6711 -0.7413 0.7413 0.6711 -310.1347 286.0805)" class="st5" width="625.1" height="625.1"/>
				
					<rect x="-145.2" y="180" transform="matrix(0.6711 -0.7413 0.7413 0.6711 -310.1347 286.0805)" class="st8" width="625.1" height="625.1"/>
			</g>
			<g class="st7">
				
					<rect x="-189.1" y="-703" transform="matrix(0.6711 -0.7413 0.7413 0.6711 330.0264 -36.8228)" class="st5" width="625.1" height="625.1"/>
				
					<rect x="-189.1" y="-703" transform="matrix(0.6711 -0.7413 0.7413 0.6711 330.0264 -36.8228)" class="st8" width="625.1" height="625.1"/>
			</g>
			<g class="st7">
				
					<rect x="-608.6" y="-239.5" transform="matrix(0.6711 -0.7413 0.7413 0.6711 -151.5059 -195.4517)" class="st5" width="625.1" height="625.1"/>
				
					<rect x="-608.6" y="-239.5" transform="matrix(0.6711 -0.7413 0.7413 0.6711 -151.5059 -195.4517)" class="st8" width="625.1" height="625.1"/>
				<polygon class="st9" points="37.4,103.9 70.5,133.9 74.3,129.7 37,96 				"/>
				<polygon class="st9" points="36.6,88.1 78,125.6 81.8,121.5 36.2,80.2 				"/>
				<polygon class="st9" points="35.9,72.4 85.5,117.3 89.3,113.2 35.5,64.5 				"/>
				<polygon class="st9" points="98.1,53.5 98.1,53.5 106,53.1 				"/>
				<polygon class="st9" points="126.7,71.8 106,53.1 98.1,53.5 123,75.9 				"/>
				<polygon class="st9" points="90.3,53.8 82.4,54.2 82.4,54.2 90.3,53.8 				"/>
				<polygon class="st9" points="119.2,80.1 90.3,53.8 82.4,54.2 115.5,84.2 				"/>
				<polygon class="st9" points="74.5,54.6 66.6,55 74.5,54.6 				"/>
				<polygon class="st9" points="74.5,54.6 66.6,55 108,92.5 111.7,88.3 				"/>
				<polygon class="st9" points="58.7,55.4 50.8,55.8 58.7,55.4 				"/>
				<polygon class="st9" points="50.8,55.8 100.5,100.8 104.2,96.6 58.7,55.4 				"/>
				<polygon class="st9" points="42.9,56.2 42.9,56.2 35.1,56.6 35.1,56.6 				"/>
				<polygon class="st9" points="35.1,56.6 93,109 96.7,104.9 42.9,56.2 				"/>
				<polygon class="st9" points="-73.7,93.6 9,168.5 16.9,168.1 -74.1,85.7 				"/>
				<polygon class="st9" points="-74.5,77.8 24.8,167.7 32.7,167.4 -74.9,70 				"/>
				<polygon class="st9" points="19.3,57.4 35.9,72.4 35.5,64.5 27.2,57 				"/>
				<polygon class="st9" points="3.5,58.2 11.4,57.8 11.4,57.8 				"/>
				<polygon class="st9" points="3.5,58.2 36.6,88.1 36.2,80.2 11.4,57.8 				"/>
				<polygon class="st9" points="-12.2,58.9 37.4,103.9 37,96 -4.4,58.6 				"/>
				<polygon class="st9" points="-28,59.7 38.2,119.7 37.8,111.8 -20.1,59.3 				"/>
				<polygon class="st9" points="-43.8,60.5 39,135.4 38.6,127.5 -35.9,60.1 				"/>
				<polygon class="st9" points="-59.5,61.3 39.8,151.2 39.4,143.3 -51.7,60.9 				"/>
				<polygon class="st9" points="-75.3,62.1 -75.3,62.1 40.5,167 40.2,159.1 -67.4,61.7 				"/>
				<polygon class="st10" points="31.9,-6.5 -17.7,-51.4 -21.9,-51.2 -25.6,-51 32.3,1.4 				"/>
				<polygon class="st10" points="32.7,9.3 -33.5,-50.7 -36.6,-50.5 -41.4,-50.3 33.1,17.2 				"/>
				<polygon class="st10" points="33.9,32.9 33.5,25.1 -49.3,-49.9 -55.3,-49.6 -57.1,-49.5 				"/>
				<polygon class="st10" points="34.7,48.7 34.3,40.8 -65,-49.1 -72.3,-48.7 -72.9,-48.7 				"/>
				<polygon class="st10" points="-78.8,-8.9 -4.4,58.5 3.5,58.2 -79.2,-16.8 				"/>
				<polygon class="st10" points="-79.6,-24.6 11.4,57.8 19.3,57.4 -80,-32.5 				"/>
				<polygon class="st10" points="27.2,57 35.1,56.6 -80.8,-48.3 -80.4,-40.4 				"/>
				<polygon class="st10" points="35.1,56.6 35.1,56.6 27.2,57 				"/>
				<polygon class="st10" points="35.5,64.5 35.1,56.6 27.2,57 				"/>
				<polygon class="st10" points="11.4,57.8 19.3,57.4 11.4,57.8 				"/>
				<polygon class="st10" points="11.4,57.8 36.2,80.2 35.9,72.4 19.3,57.4 				"/>
				<polygon class="st10" points="-4.4,58.6 3.5,58.2 -4.4,58.5 				"/>
				<polygon class="st10" points="-4.4,58.6 37,96 36.6,88.1 3.5,58.2 				"/>
				<polygon class="st10" points="-20.1,59.3 37.8,111.8 37.4,103.9 -12.2,58.9 				"/>
				<polygon class="st10" points="-35.9,60.1 38.6,127.5 38.2,119.7 -28,59.7 				"/>
				<polygon class="st10" points="-51.7,60.9 39.4,143.3 39,135.4 -43.8,60.5 				"/>
				<polygon class="st10" points="-67.4,61.7 40.2,159.1 39.8,151.2 -59.5,61.3 				"/>
				<polygon class="st10" points="-73.3,101.5 1.1,168.9 9,168.5 -73.7,93.6 				"/>
				<polygon class="st10" points="-74.1,85.7 16.9,168.1 24.8,167.7 -74.5,77.8 				"/>
				<polygon class="st10" points="-74.9,70 32.7,167.4 40.5,167 -75.3,62.1 				"/>
			</g>
		</g>
	</g>
</g>
<rect x="0" y="0" class="st31" width="100" height="100"/>
<linearGradient id="SVGID_6_" gradientUnits="userSpaceOnUse" x1="31.4194" y1="48.1935" x2="72.6987" y2="48.1935">
	<stop  offset="0" style="stop-color:#FFFFFF"/>
	<stop  offset="0.2528" style="stop-color:#DDDBDA"/>
	<stop  offset="0.5337" style="stop-color:#FFFFFF"/>
	<stop  offset="1" style="stop-color:#DDDBDA"/>
</linearGradient>
<path style="fill:url(#SVGID_6_);" d="M53.9,19.4c0,0-5.4,16-17.5,19.9c0,0-1.7,2.7,5.5,2.7c0,0-1.2,2.4-6.1,1.6
	c0,0-0.4,3.9,6.3,5.2c0,0-5.5,2.3-9,0.8c0,0-0.3,9.2,10.3,7.1c0,0-4.7,3.7-11.7,0.3c0,0-3.7,9,16.7,13v7h8.4v-7
	c0,0,12.1-2.1,13.2-4.5c0,0,2.7-4.3,2.7-7.5c0,0-4.8,2.5-9.8-0.9c0,0,8.7,0.3,8.7-8.1c0,0-7.8,1.8-8.5-0.1c0,0,7.3-0.2,7.3-4.4
	c0,0-4,0.9-7.4-1.5c0,0,4.6-0.2,4.6-1.9c0,0-10.9-10-11.5-11.9C56.1,29.1,54.4,24.9,53.9,19.4z"/>
</svg>
