<svg enable-background="new 0 0 100 100" viewBox="0 0 100 100" xmlns="http://www.w3.org/2000/svg" xmlns:xlink="http://www.w3.org/1999/xlink"><clipPath id="a"><path d="m140-280h100v100h-100z"/></clipPath><clipPath id="b"><path d="m-327.5-286.7h937.7v401.9h-937.7z" transform="matrix(.6711 -.7413 .7413 .6711 110.0981 76.6026)"/></clipPath><linearGradient id="c" gradientUnits="userSpaceOnUse" x1="31.4194" x2="72.6987" y1="48.1935" y2="48.1935"><stop offset="0" stop-color="#fff"/><stop offset=".2528" stop-color="#dddbda"/><stop offset=".5337" stop-color="#fff"/><stop offset="1" stop-color="#dddbda"/></linearGradient><g clip-path="url(#a)"><g clip-path="url(#b)"><path d="m-145.2 180h625.1v625.1h-625.1z" fill="none" transform="matrix(.6711 -.7413 .7413 .6711 -310.1347 286.0805)"/><path d="m-145.2 180h625.1v625.1h-625.1z" fill="#1e0d12" transform="matrix(.6711 -.7413 .7413 .6711 -310.1347 286.0805)"/></g><g clip-path="url(#b)"><path d="m-189.1-703h625.1v625.1h-625.1z" fill="none" transform="matrix(.6711 -.7413 .7413 .6711 330.0264 -36.8228)"/><path d="m-189.1-703h625.1v625.1h-625.1z" fill="#1e0d12" transform="matrix(.6711 -.7413 .7413 .6711 330.0264 -36.8228)"/></g><g clip-path="url(#b)"><path d="m-608.6-239.5h625.1v625.1h-625.1z" fill="none" transform="matrix(.6711 -.7413 .7413 .6711 -151.5059 -195.4517)"/><path d="m-608.6-239.5h625.1v625.1h-625.1z" fill="#1e0d12" transform="matrix(.6711 -.7413 .7413 .6711 -151.5059 -195.4517)"/><g fill="#e62f34"><path d="m37.4 103.9 33.1 30 3.8-4.2-37.3-33.7z"/><path d="m36.6 88.1 41.4 37.5 3.8-4.1-45.6-41.3z"/><path d="m35.9 72.4 49.6 44.9 3.8-4.1-53.8-48.7z"/><path d="m98.1 53.5 7.9-.4z"/><path d="m126.7 71.8-20.7-18.7-7.9.4 24.9 22.4z"/><path d="m90.3 53.8-7.9.4z"/><path d="m119.2 80.1-28.9-26.3-7.9.4 33.1 30z"/><path d="m74.5 54.6-7.9.4z"/><path d="m74.5 54.6-7.9.4 41.4 37.5 3.7-4.2z"/><path d="m58.7 55.4-7.9.4z"/><path d="m50.8 55.8 49.7 45 3.7-4.2-45.5-41.2z"/><path d="m42.9 56.2-7.8.4z"/><path d="m35.1 56.6 57.9 52.4 3.7-4.1-53.8-48.7z"/><path d="m-73.7 93.6 82.7 74.9 7.9-.4-91-82.4z"/><path d="m-74.5 77.8 99.3 89.9 7.9-.3-107.6-97.4z"/><path d="m19.3 57.4 16.6 15-.4-7.9-8.3-7.5z"/><path d="m3.5 58.2 7.9-.4z"/><path d="m3.5 58.2 33.1 29.9-.4-7.9-24.8-22.4z"/><path d="m-12.2 58.9 49.6 45-.4-7.9-41.4-37.4z"/><path d="m-28 59.7 66.2 60-.4-7.9-57.9-52.5z"/><path d="m-43.8 60.5 82.8 74.9-.4-7.9-74.5-67.4z"/><path d="m-59.5 61.3 99.3 89.9-.4-7.9-91.1-82.4z"/><path d="m-75.3 62.1 115.8 104.9-.3-7.9-107.6-97.4z"/></g><g fill="#25793d"><path d="m31.9-6.5-49.6-44.9-4.2.2-3.7.2 57.9 52.4z"/><path d="m32.7 9.3-66.2-60-3.1.2-4.8.2 74.5 67.5z"/><path d="m33.9 32.9-.4-7.8-82.8-75-6 .3-1.8.1z"/><path d="m34.7 48.7-.4-7.9-99.3-89.9-7.3.4h-.6z"/><path d="m-78.8-8.9 74.4 67.4 7.9-.3-82.7-75z"/><path d="m-79.6-24.6 91 82.4 7.9-.4-99.3-89.9z"/><path d="m27.2 57 7.9-.4-115.9-104.9.4 7.9z"/><path d="m35.1 56.6-7.9.4z"/><path d="m35.5 64.5-.4-7.9-7.9.4z"/><path d="m11.4 57.8 7.9-.4z"/><path d="m11.4 57.8 24.8 22.4-.3-7.8-16.6-15z"/><path d="m-4.4 58.6 7.9-.4-7.9.3z"/><path d="m-4.4 58.6 41.4 37.4-.4-7.9-33.1-29.9z"/><path d="m-20.1 59.3 57.9 52.5-.4-7.9-49.6-45z"/><path d="m-35.9 60.1 74.5 67.4-.4-7.8-66.2-60z"/><path d="m-51.7 60.9 91.1 82.4-.4-7.9-82.8-74.9z"/><path d="m-67.4 61.7 107.6 97.4-.4-7.9-99.3-89.9z"/><path d="m-73.3 101.5 74.4 67.4 7.9-.4-82.7-74.9z"/><path d="m-74.1 85.7 91 82.4 7.9-.4-99.3-89.9z"/><path d="m-74.9 70 107.6 97.4 7.8-.4-115.8-104.9z"/></g></g></g><path d="m0 0h100v100h-100z" fill="#012e47"/><path d="m53.9 19.4s-5.4 16-17.5 19.9c0 0-1.7 2.7 5.5 2.7 0 0-1.2 2.4-6.1 1.6 0 0-.4 3.9 6.3 5.2 0 0-5.5 2.3-9 .8 0 0-.3 9.2 10.3 7.1 0 0-4.7 3.7-11.7.3 0 0-3.7 9 16.7 13v7h8.4v-7s12.1-2.1 13.2-4.5c0 0 2.7-4.3 2.7-7.5 0 0-4.8 2.5-9.8-.9 0 0 8.7.3 8.7-8.1 0 0-7.8 1.8-8.5-.1 0 0 7.3-.2 7.3-4.4 0 0-4 .9-7.4-1.5 0 0 4.6-.2 4.6-1.9 0 0-10.9-10-11.5-11.9 0-.1-1.7-4.3-2.2-9.8z" fill="url(#c)"/></svg>