<?xml version="1.0" encoding="utf-8"?>
<!-- Generator: Adobe Illustrator 22.1.0, SVG Export Plug-In . SVG Version: 6.00 Build 0)  -->
<svg version="1.1" id="Layer_1" xmlns="http://www.w3.org/2000/svg" xmlns:xlink="http://www.w3.org/1999/xlink" x="0px" y="0px"
	 viewBox="0 0 100 100" style="enable-background:new 0 0 100 100;" xml:space="preserve">
<style type="text/css">
	.st0{fill:#BE1E2D;}
	.st1{fill:#00B0BB;}
	.st2{fill:#63C4AF;}
	.st3{fill:#EAEAEA;}
	.st4{fill:#413E34;}
	.st5{fill:none;}
	.st6{clip-path:url(#SVGID_2_);}
	.st7{clip-path:url(#SVGID_4_);}
	.st8{fill:#1E0D12;}
	.st9{fill:#E62F34;}
	.st10{fill:#25793D;}
	.st11{clip-path:url(#SVGID_6_);}
	.st12{clip-path:url(#SVGID_8_);}
	.st13{fill:#FFFFFF;}
	.st14{clip-path:url(#SVGID_10_);}
	.st15{clip-path:url(#SVGID_12_);}
	.st16{fill:#96BF4D;}
	.st17{clip-path:url(#SVGID_14_);}
	.st18{fill-rule:evenodd;clip-rule:evenodd;fill:#FFFFFF;}
	.st19{fill:#C92927;}
	.st20{fill:#253748;}
	.st21{clip-path:url(#SVGID_16_);}
	.st22{fill:#97CB59;}
	.st23{fill:#DA2128;}
	.st24{fill:#00A14B;}
	.st25{fill:#96171A;}
	.st26{fill:#D1E39B;}
	.st27{fill:#4FBBBB;}
	.st28{fill:#37343F;}
	.st29{fill:#077A64;}
	.st30{fill:#F4EED4;}
	.st31{fill:#012E47;}
	.st32{fill:#BE1C42;}
	.st33{fill:#008E9F;}
	.st34{fill:#CD4134;}
	.st35{clip-path:url(#SVGID_18_);}
	.st36{clip-path:url(#SVGID_20_);}
	.st37{fill:#EE2424;}
	.st38{fill:#67BC45;}
	.st39{clip-path:url(#SVGID_22_);}
	.st40{clip-path:url(#SVGID_24_);}
	.st41{fill:#004A54;}
	.st42{fill:#D93128;}
	.st43{fill:#401B23;}
	.st44{fill:#EE2D40;}
	.st45{fill:#F1EBC9;}
	.st46{fill-rule:evenodd;clip-rule:evenodd;fill:#C92927;}
	.st47{fill-rule:evenodd;clip-rule:evenodd;fill:#96BF4D;}
	.st48{fill:#BD3026;}
	.st49{opacity:0.4;fill:#CD4134;}
	.st50{fill:#E6B448;}
	.st51{fill:#E21F26;}
	.st52{fill:#A82123;}
	.st53{fill:#383A3A;}
	.st54{fill:#F17B22;}
	.st55{fill:#F1F0DC;}
	.st56{fill:#56AE78;}
	.st57{fill:#EE262E;}
	.st58{fill:#C47229;}
	.st59{fill:#FEC010;}
	.st60{fill:#C0343E;}
	.st61{fill:url(#SVGID_25_);}
	.st62{fill:#659DAA;}
	.st63{fill:#C9A784;}
	.st64{fill:#DDCFB5;}
	.st65{fill:#D2A886;}
	.st66{fill:#9B3227;}
	.st67{opacity:0.39;fill:#FFFFFF;}
	.st68{fill:#E5E5E5;}
	.st69{fill:#202945;}
	.st70{fill:none;stroke:#ACA300;stroke-miterlimit:10;}
	.st71{fill:none;stroke:#ACA300;stroke-miterlimit:10;stroke-dasharray:2.0083,2.0083;}
	.st72{fill:#ACA300;}
</style>
<g>
	<defs>
		<rect id="SVGID_1_" x="0" y="-280" width="100" height="100"/>
	</defs>
	<clipPath id="SVGID_2_">
		<use xlink:href="#SVGID_1_"  style="overflow:visible;"/>
	</clipPath>
	<g class="st6">
		<g>
			<defs>
				
					<rect id="SVGID_3_" x="-467.5" y="-286.7" transform="matrix(0.6711 -0.7413 0.7413 0.6711 64.0583 -27.1831)" width="937.7" height="401.9"/>
			</defs>
			<clipPath id="SVGID_4_">
				<use xlink:href="#SVGID_3_"  style="overflow:visible;"/>
			</clipPath>
			<g class="st7">
				
					<rect x="134.4" y="-283.4" transform="matrix(0.6711 -0.7413 0.7413 0.6711 125.3577 340.9237)" class="st5" width="625.1" height="625.1"/>
				
					<rect x="134.4" y="-283.4" transform="matrix(0.6711 -0.7413 0.7413 0.6711 125.3577 340.9237)" class="st8" width="625.1" height="625.1"/>
				<polygon class="st9" points="68.5,48 64.3,48.2 52.8,48.8 52.8,48.8 				"/>
				<polygon class="st9" points="100.1,46.4 93.8,46.7 68.5,48 68.5,48 				"/>
				<polygon class="st9" points="44.9,49.1 44.9,49.1 30,49.9 29.1,49.9 				"/>
				<polygon class="st9" points="29.1,49.9 5.5,51.1 29.1,49.9 				"/>
				<polygon class="st9" points="100.1,46.4 68.5,48 52.8,48.8 44.9,49.1 29.1,49.9 5.5,51.1 5.5,51.1 121.3,156 121.3,156 
					120.9,148.1 120.9,148.1 120.5,140.2 120.5,140.2 120.1,132.3 120.1,132.3 119.7,124.5 119.7,124.5 119.4,116.6 119.4,116.6 
					119,108.7 119,108.7 118.6,100.8 118.2,92.9 118.2,92.9 117.8,85 117.8,85 117.4,77.2 117.4,77.2 117,69.3 117,69.3 116.6,61.4 
					116.6,61.4 116.2,53.5 116.2,53.5 115.8,45.6 107.9,46 				"/>
				<polygon class="st9" points="113.9,6.2 113.5,-1.7 80.4,-31.7 76.6,-27.5 				"/>
				<polygon class="st9" points="114.7,22 114.3,14.1 72.9,-23.4 69.1,-19.2 				"/>
				<polygon class="st9" points="115,29.8 65.4,-15.1 61.6,-11 115.4,37.7 				"/>
				<polygon class="st9" points="21.2,50.3 12.9,42.8 9.2,47 13.3,50.7 				"/>
				<polygon class="st9" points="30,49.9 37,49.5 20.4,34.5 16.7,38.7 29.1,49.9 				"/>
				<polygon class="st9" points="30,49.9 29.1,49.9 29.1,49.9 				"/>
				<polygon class="st9" points="52.8,48.8 27.9,26.3 24.2,30.4 44.9,49.1 				"/>
				<polygon class="st9" points="52.8,48.8 52.8,48.8 44.9,49.1 44.9,49.1 				"/>
				<polygon class="st9" points="64.3,48.2 68.5,48 35.4,18 31.7,22.1 60.6,48.4 				"/>
				<polygon class="st9" points="68.5,48 64.3,48.2 68.5,48 				"/>
				<polygon class="st9" points="84.3,47.2 42.9,9.7 39.2,13.9 76.4,47.6 				"/>
				<polygon class="st9" points="93.8,46.7 100.1,46.4 50.4,1.4 46.7,5.6 92.2,46.8 				"/>
				<polygon class="st9" points="100.1,46.4 93.8,46.7 100.1,46.4 				"/>
				<polygon class="st9" points="115.8,45.6 57.9,-6.8 54.2,-2.7 107.9,46 				"/>
			</g>
			<g class="st7">
				
					<rect x="-285.2" y="180" transform="matrix(0.6711 -0.7413 0.7413 0.6711 -356.1745 182.2948)" class="st5" width="625.1" height="625.1"/>
				
					<rect x="-285.2" y="180" transform="matrix(0.6711 -0.7413 0.7413 0.6711 -356.1745 182.2948)" class="st8" width="625.1" height="625.1"/>
				<polygon class="st9" points="5.8,59 1.7,55.2 -2,59.4 6.2,66.9 				"/>
				<polygon class="st9" points="6.6,74.8 -5.8,63.5 -9.5,67.7 7,82.6 				"/>
				<polygon class="st9" points="7.4,90.5 -13.3,71.8 -17,75.9 7.8,98.4 				"/>
				<polygon class="st9" points="8.2,106.3 -20.8,80.1 -24.5,84.2 8.6,114.2 				"/>
				<polygon class="st9" points="9,122.1 -28.3,88.3 -32,92.5 9.4,129.9 				"/>
				<polygon class="st9" points="9.8,137.8 -35.8,96.6 -39.5,100.8 10.1,145.7 				"/>
				<polygon class="st9" points="6.6,74.8 8.2,106.3 9.4,129.9 10.9,161.5 18.8,161.1 18.8,161.1 26.7,160.7 26.7,160.7 34.6,160.3 
					34.6,160.3 42.5,159.9 42.5,159.9 66.1,158.7 66.1,158.7 74,158.3 74,158.3 81.9,158 81.9,158 89.8,157.6 89.8,157.6 
					97.7,157.2 97.7,157.2 99.2,157.1 121.3,156 5.5,51.1 				"/>
			</g>
			<g class="st7">
				
					<rect x="-329.1" y="-703" transform="matrix(0.6711 -0.7413 0.7413 0.6711 283.9866 -140.6086)" class="st5" width="625.1" height="625.1"/>
				
					<rect x="-329.1" y="-703" transform="matrix(0.6711 -0.7413 0.7413 0.6711 283.9866 -140.6086)" class="st8" width="625.1" height="625.1"/>
				<polygon class="st9" points="5.5,51.1 5.5,51.1 5.5,51.1 				"/>
				<polygon class="st9" points="5.4,51.1 5.5,51.1 5.5,51.1 				"/>
				<polygon class="st9" points="4.7,35.3 5.1,43.2 9.2,47 12.9,42.8 				"/>
				<polygon class="st9" points="3.9,19.6 4.3,27.4 16.7,38.7 20.4,34.5 				"/>
				<polygon class="st9" points="3.1,3.8 3.5,11.7 24.2,30.4 27.9,26.3 				"/>
				<polygon class="st9" points="2.3,-12 2.7,-4.1 31.7,22.1 35.4,18 				"/>
				<polygon class="st9" points="1.5,-27.7 1.9,-19.9 39.2,13.9 42.9,9.7 				"/>
				<polygon class="st9" points="0.7,-43.5 1.1,-35.6 46.7,5.6 50.4,1.4 				"/>
			</g>
			<g class="st7">
				
					<rect x="-748.6" y="-239.5" transform="matrix(0.6711 -0.7413 0.7413 0.6711 -197.5456 -299.2374)" class="st5" width="625.1" height="625.1"/>
				
					<rect x="-748.6" y="-239.5" transform="matrix(0.6711 -0.7413 0.7413 0.6711 -197.5456 -299.2374)" class="st8" width="625.1" height="625.1"/>
				<polygon class="st9" points="1.7,55.2 -2.4,51.5 -10.3,51.9 -2.1,59.4 				"/>
			</g>
		</g>
	</g>
</g>
<rect x="0" y="0" class="st32" width="100" height="100"/>
<g>
	<path class="st13" d="M32.4,55.3v3.6h3.3v3v0.3v3v0.3v3v0.3v3v0.3v3.3h3.5v-3.3v-0.3v-3v-0.3v-3h3v3v0.3v3v0.3v3.3h3.6v-3.3v-0.3
		v-3v-0.3v-3h3v3v0.3v3v0.3v3.3h3.5v-3.3v-0.3v-3v-0.3v-3h3v3v0.3v3v0.3v3.3h3.5v-3.3v-0.3v-3v-0.3v-3v-0.3v-3v-0.3v-3v-0.3v-3v-0.3
		v-3V52v-3h3h0.3h3h0.3h3.3v-3.6h-3.3v-3.3h-3.3v-3h3.3V36h3.3v-3.5h-3.5v3.3h-3v-3v-0.3v-3v-0.3v-3h3.3v-3.6h-3.5v3.3h-3.3v3.3
		h-3.3v3.6h3.3v3V36v3h-3v-3.3h-3.3v-3v-0.3v-3v-0.3v-3.3H49v-3.3h-3.6v3.6h3.3v3v0.3v3h-3v-3.3h-3.6v3.6h3.3V36h3.3v3.3H52v3v0.3v3
		v0.3v3v0.3v3h-3h-0.3h-3h-0.3h-3h-0.3H39v3.3h-3h-0.3H32.4z M55.7,43.2h2.8V46h-2.8V43.2z"/>
</g>
</svg>
