<svg enable-background="new 0 0 100 100" viewBox="0 0 100 100" xmlns="http://www.w3.org/2000/svg" xmlns:xlink="http://www.w3.org/1999/xlink"><clipPath id="a"><path d="m840-420h100v100h-100z"/></clipPath><clipPath id="b"><path d="m372.5-426.7h937.7v401.9h-937.7z" transform="matrix(.6711 -.7413 .7413 .6711 444.0827 549.4915)"/></clipPath><clipPath id="c"><path d="m0-280h100v100h-100z"/></clipPath><clipPath id="d"><path d="m-71.3-978.9h595v1388.2h-595z"/></clipPath><clipPath id="e"><path d="m140-280h100v100h-100z"/></clipPath><clipPath id="f"><path d="m-186-377.1h678.8v290.9h-678.8z" transform="matrix(.6991 -.715 .715 .6991 211.7637 39.9898)"/></clipPath><clipPath id="g"><path d="m0-140h100v100h-100z"/></clipPath><g clip-path="url(#a)"><g clip-path="url(#b)"><path d="m91.4-379.5h625.1v625.1h-625.1z" fill="none" transform="matrix(.6711 -.7413 .7413 .6711 182.4787 277.4372)"/><path d="m91.4-379.5h625.1v625.1h-625.1z" fill="#1e0d12" transform="matrix(.6711 -.7413 .7413 .6711 182.4787 277.4372)"/><g fill="#e62f34"><path d="m57.1-49.7-31.6 1.5-15.7.8-7.9.4-15.8.8-23.6 1.2 115.8 104.9-.4-7.9-.4-7.9-.4-7.9-.4-7.9-.3-7.8-.4-7.9-.4-7.9-.4-7.9-.4-7.9-.4-7.9-.4-7.9-.4-7.8-.4-7.9-.4-7.9-7.9.4z"/><path d="m86.2 59.5-8.3-7.5.4 7.9z"/><path d="m78.3 59.9-.4-7.9z"/><path d="m94.1 59.1 7.9-.4-24.9-22.5.4 7.9z"/><path d="m77.5 44.1-.4-7.9z"/><path d="m109.8 58.3 7.9-.4-41.3-37.4.3 7.8z"/><path d="m76.7 28.3-.3-7.8z"/><path d="m125.6 57.5 7.9-.4-57.9-52.4.4 7.9z"/><path d="m76 12.6-.4-7.9z"/><path d="m141.4 56.7 7.9-.4-74.5-67.4.4 7.9z"/><path d="m157.1 56 7.9-.4-91-82.5.4 7.9z"/><path d="m172.9 55.2 7.9-.4-107.6-97.4.4 7.9z"/><path d="m187.5 30.7-91-82.4-7.9.4 99.3 89.9z"/><path d="m188.3 46.5-107.6-97.4-7.9.4 115.9 104.9z"/></g></g></g><g clip-path="url(#c)"><g clip-path="url(#d)"><path d="m-361.1-281.6h466v466h-466z" fill="none"/><path d="m-361.1-281.6h466v466h-466z" fill="#fff"/><g fill="#1e0d12"><path d="m.4 7.6v-8l-8 8-8 8.1v8l8-8z"/><path d="m.4-8.4v-8.1l-8 8.1-8 8v8l8-8z"/><path d="m.4 23.7v-8l-8 8-8 8v8.1l8-8.1z"/><path d="m.4 71.9v-8l-8 8-8 8v8.1l8-8.1z"/><path d="m.4 104v-8l-8 8-8 8.1v8l8-8z"/><path d="m.4 55.8v-8l-8 8-8 8.1v8l8-8z"/><path d="m.4 39.8v-8.1l-8 8.1-8 8v8l8-8z"/><path d="m.4 88v-8.1l-8 8.1-8 8v8l8-8z"/><path d="m96.9 79.9h-8.1l16.1-16v8z"/><path d="m-15.6 79.9h-8.1l8.1-8 8-8h8l-8 8z"/><path d="m16.5 79.9h-8l8-8 8.1-8h8l-8 8z"/><path d="m.4 79.9h-8l8-8 8.1-8h8l-8 8z"/><path d="m32.6 79.9h-8l8-8 8-8h8.1l-8.1 8z"/><path d="m64.7 79.9h-8l8-8 8.1-8h8l-8 8z"/><path d="m48.7 79.9h-8.1l8.1-8 8-8h8l-8 8z"/><path d="m80.8 79.9h-8l8-8 8-8h8.1l-8.1 8z"/></g></g></g><g clip-path="url(#e)"><g clip-path="url(#f)"><path d="m-60-152.8h232.6v232.6h-232.6z" fill="none" transform="matrix(.6991 -.715 .715 .6991 43.0401 29.2255)"/><path d="m-60-152.8h232.6v232.6h-232.6z" fill="#25793d" transform="matrix(.6991 -.715 .715 .6991 43.0401 29.2255)"/><g fill="#1e0d12"><path d="m139.3 33-.1-1.8-.1-14.5-.1-3.3-.2-19.5v-1.4-2.5h-7.9l-3.9.1h-3.9l-2.6.1h-7l-2.1.1h-4l-3.9.1-11.7.1h-3.9l-3.9.1v3.9 3.9l.1 2.3.1 8.1v1.3 4l.1 3.9.1 11.7v3.9l.1 4v3.9l.1 3.9 3.9-.1h3.9l3.9-.1h3l12.7-.1 3.9-.1 12-.1h3.7l3.9-.1h3.9z"/><path d="m1.7-8.5h-3.9l-23.2 23.8v3.9z"/><path d="m9.6-8.6h-3.9l-31 31.7v3.9z"/><path d="m17.4-8.7-3.9.1-38.7 39.5v1.5 2.5z"/><path d="m25.2-8.8-3.9.1-46.4 47.5v3.9z"/><path d="m29.7 42.1v-3.9l-3.9 3.9-3.9 4 3.9-.1z"/><path d="m29.6 34.3v-4l-3.9 4-11.6 11.9h1l2.9-.1 7.8-7.9z"/><path d="m25.7 30.4 3.8-4v-3.9l-3.9 4-19.3 19.8 3.1-.1h.8z"/><path d="m29.5 18.6-.1-3.9-3.9 3.9-27.1 27.7h4l23.2-23.8z"/><path d="m-5.5 46.4 31-31.7 3.9-3.9-.1-4-3.8 4-34.9 35.6z"/><path d="m29.3 2.9-.1-3.9-3.8 4-42.6 43.5h3.9l38.7-39.6z"/><path d="m25.3-.9 3.9-4-.1-3.9-3.8 3.9-50.3 51.5h3.9z"/><path d="m29.3 2.9 3.9-3.9 7.7-7.9h-3.9l-3.9 4-3.9 3.9z"/><path d="m29.4 10.8 3.8-4 15.5-15.8h-3.9l-11.6 11.9-3.9 3.9z"/><path d="m29.5 18.6 3.8-4 23.3-23.7h-4l-19.3 19.8-3.9 4z"/><path d="m29.5 26.4 3.9-3.9 31-31.7h-3.9l-27.1 27.7-3.9 4z"/><path d="m29.6 34.3 3.9-4 38.7-39.6h-3.9l-34.8 35.7-3.9 3.9z"/><path d="m29.7 42.1 3.9-4 46.4-47.5-3.9.1-42.6 43.5-3.8 4z"/><path d="m79.2 45.4h1.5l3.8-3.9v-3.9l-7.8 7.9z"/><path d="m84.5 41.5v-3.9z"/><path d="m72.8 45.5 11.6-11.9v-3.9l-15.5 15.9z"/><path d="m84.4 33.6v-3.9z"/><path d="m84.3 21.9-23.2 23.7h3.9l19.4-19.8z"/><path d="m57.2 45.7 27.1-27.7-.1-3.9-30.9 31.6z"/><path d="m84.3 18-.1-3.9z"/><path d="m45.4 45.8h2.2 1.7l34.9-35.7v-1.3l-.1-2.6z"/><path d="m84.2 10.1v-1.3z"/><path d="m41.5 45.9 42.6-43.6v-1.6l-.1-2.3-46.4 47.5z"/><path d="m84-1.6.1 2.3z"/><path d="m33.7 46 50.3-51.5v-3.9l-50.4 51.4-3.8 4z"/></g><g fill="#e62f34"><path d="m25.7 30.4v3.9l3.9-4 3.9-3.9-.1-3.9-3.9 3.9z"/><path d="m25.5 14.7v3.9l3.9-3.9 3.9-4-.1-3.9-3.8 4z"/><path d="m25.8 38.2v3.9l3.9-3.9 3.8-4v-3.9l-3.9 4z"/><path d="m25.8 46h2.7 1.3l3.8-4v-3.9l-3.9 4z"/><path d="m25.6 22.5v4l3.9-4 3.9-4-.1-3.9-3.8 4z"/><path d="m25.4 6.9.1 3.9 3.8-4 3.9-3.9v-3.9l-3.9 3.9z"/><path d="m25.3-.9.1 3.9 3.8-4 3.9-3.9v-4l-3.9 4z"/><path d="m30.4 100.8 3.8-4v-3.9l-3.9 4-1.9 2z"/><path d="m34.1 81.2-.1-3.9-3.8 3.9-3.9 4v3.9l3.9-4z"/><path d="m34.2 89-.1-3.9-3.9 4-3.8 3.9v3.9l3.9-3.9z"/><path d="m34 73.4-.1-4-3.8 4-3.9 4v3.9l3.9-4z"/><path d="m33.8 57.7v-3.9l-3.9 3.9-3.9 4 .1 3.9 3.8-3.9z"/><path d="m33.9 65.5v-3.9l-3.9 4-3.9 3.9.1 3.9 3.8-3.9z"/><path d="m28.5 46h1.3z"/><path d="m25.8 46 .1 4 3.9-4h-1.3z"/><path d="m29.8 49.9-3.9 4 .1 3.9 3.9-4 3.8-3.9v-3.9z"/><path d="m69.5 100.4-3.8 3.9h3.9l3.8-4 3.9-3.9h-3.9z"/><path d="m61.7 96.5-4 .1-3.8 3.9-3.9 4h3.9l3.9-4z"/><path d="m77.4 100.3-3.9 3.9h3.9l3.9-4 3.8-3.9h-3.9z"/><path d="m69.5 96.5h-3.9l-3.9 4-3.9 3.9h3.9l3.9-4z"/><path d="m53.8 96.6-3.9.1-3.9 3.9-3.8 4 3.9-.1 3.9-3.9z"/><path d="m30.3 96.9h-3.9l2 2z"/><path d="m32.4 102.7 1.9-1.9 3.9-4h-4l-3.8 4z"/><path d="m42.1 100.7 3.9-4-3.9.1-3.9 3.9-3.9 4 4-.1z"/></g><path d="m92.4 45.3h-3.9z" fill="#1e0d12"/><path d="m84.6 49.3.1 3.9 7.7-7.9h-3.9z" fill="#1e0d12"/><path d="m92.4 45.3h-3.9z" fill="#1e0d12"/><path d="m96.3 45.2h3z" fill="#1e0d12"/><path d="m84.7 57.1v3.9l15.5-15.8-3.9.1z" fill="#1e0d12"/><path d="m100.2 45.2h-.9-3v.1z" fill="#1e0d12"/><path d="m84.8 65v3.9l23.3-23.8-4 .1z" fill="#1e0d12"/><path d="m84.9 72.8v3.9l31-31.7-3.9.1z" fill="#1e0d12"/><path d="m85 80.6v3.9l38.7-39.6-3.9.1z" fill="#1e0d12"/><path d="m85.1 88.4v4l46.5-47.5h-4z" fill="#1e0d12"/><path d="m85.1 96.3.1 3.9 3.9-4 50.3-51.4h-3.9z" fill="#1e0d12"/></g><g clip-path="url(#f)"><path d="m-222.6 13.5h232.6v232.6h-232.6z" fill="none" transform="matrix(.6991 -.715 .715 .6991 -124.7627 -36.9981)"/><path d="m-222.6 13.5h232.6v232.6h-232.6z" fill="#25793d" transform="matrix(.6991 -.715 .715 .6991 -124.7627 -36.9981)"/><g fill="#e62f34"><path d="m28.4 98.9-1.9 1.9v4l3.9-4z"/><path d="m26.4 96.9-3.9 4-3.8 4 3.9-.1 3.9-4 1.9-1.9z"/><path d="m3 105h3.9l3.9-4 3.9-3.9h-3.9l-3.9 4z"/><path d="m14.7 101-3.9 3.9h4l3.8-4 3.9-3.9h-3.9z"/><path d="m-4.8 105.1h3.9l3.9-4 3.8-3.9h-3.9l-3.8 4z"/></g></g></g><g clip-path="url(#g)"><path d="m33 26.1-16.6 28.5-16.6-28.5 16.6-28.5z" fill="#00a14b"/><path d="m66.3 26.1-16.7 28.5-16.6-28.5 16.6-28.5z" fill="#96171a"/><path d="m99.5 26.1-16.6 28.5-16.6-28.5 16.6-28.5z" fill="#00a14b"/><path d="m132.8 26.1-16.6 28.5-16.7-28.5 16.7-28.5z" fill="#da2128"/><path d="m33 83h-33.2l16.6-28.5z" fill="#da2128"/><path d="m66.3 83h-33.3l16.6-28.5z" fill="#00a14b"/><path d="m99.5 83h-33.2l16.6-28.5z" fill="#da2128"/><path d="m132.8 83h-33.3l16.7-28.5z" fill="#00a14b"/><g fill="#97cb59"><path d="m16.4-2.5-16.6 28.5-16.7-28.5 16.7-28.5z"/><path d="m49.6-2.5-16.6 28.5-16.6-28.5 16.6-28.5z"/><path d="m82.9-2.5-16.6 28.5-16.7-28.5 16.7-28.5z"/><path d="m116.2-2.5-16.7 28.5-16.6-28.5 16.6-28.5z"/><path d="m16.4 54.6-16.6 28.5-16.7-28.5 16.7-28.6z"/><path d="m49.6 54.6-16.6 28.5-16.6-28.5 16.6-28.6z"/><path d="m82.9 54.6-16.6 28.5-16.7-28.5 16.7-28.6z"/><path d="m116.2 54.6-16.7 28.5-16.6-28.5 16.6-28.6z"/></g><path d="m249.2-201.8-16.6-28.3 16.5-28.2.1-.2-.1-.2-16.4-28.1 16.4-28.1-.1-.1.1-.2-.6-.3-16.3 27.9-16.6-28.4-16.6 28.4-16.6-28.4-16.6 28.4-16.6-28.4-16.6 28.4-16.6-28.4-16.6 28.4-16.6-28.4-16.6 28.4-16.6-28.4-16.6 28.4-16.6-28.4-16.6 28.4-16.5-28.4-16.6 28.4-16.6-28.4-16.6 28.4-16.6-28.4-16.6 28.4-16.6-28.4-16.7 28.5-16.2-27.8-.6.3 16.5 28.2-16.6 28.3 16.6 28.3-16.6 28.3 16.6 28.3-16.6 28.3 16.7 28.5-16.7 28.5 16.6 28.3-16.6 28.3 16.6 28.5v.1l-16.6 28.4 16.6 28.3-16.5 28.2.6.3 16.3-27.9v.1l16.6 28.4 16.6-28.4 16.6 28.4 16.6-28.4 16.6 28.4 16.6-28.4 16.6 28.4 16.6-28.4 16.6 28.4 16.5-28 16.6 28.4 16.6-28.4 16.6 28.4 16.6-28.4 16.6 28.4 16.6-28.4 16.6 28.4 16.6-28.4 16.6 28.4 16.6-28.4 16.6 28.4 16.6-28.4 16.3 27.9.6-.3v-.1l-16.5-28.2 16.5-28.2.1-.2-.1-.2-16.5-28.2 16.5-28.2h-.1l.1-.1.1-.2-16.6-28.3 16.5-28.2.1-.2-.1-.2-16.5-28.2 16.5-28.2h-.1l.1-.1.1-.2-16.5-28.3 16.4-28.2zm-17 27.6-16.2-27.6 16.2-27.7 16.2 27.7zm-33.2 227.4-16.2-27.6 16.2-27.7 16.2 27.7zm-33.2 0-16.2-27.6 16.2-27.7 16.2 27.7zm-33.2 0-16.2-27.6 16.2-27.7 16.2 27.7zm-33.2 0-16.2-27.6 16.2-27.7 16.2 27.7zm-33.2 0-16.2-27.6 16.2-27.7 16.2 27.7zm-33.2 0-16.2-27.6 16.2-27.7 16.2 27.7zm-33.1 0-16.2-27.6 16.2-27.7 16.2 27.7zm-33.2 0-16.2-27.6 16.2-27.7 16.2 27.7zm-33.2 0-16.2-27.6 16.2-27.7 16.2 27.7zm-33.2 0-16.2-27.6 16.2-27.7 16.2 27.7zm0-339.3 16.2 27.6-16.2 27.7-16.2-27.7zm33.2 0 16.2 27.6-16.2 27.7-16.2-27.7zm33.2 0 16.2 27.6-16.2 27.7-16.2-27.7zm33.2 0 16.1 27.6-16.2 27.7-16.2-27.7zm33.1 0 16.2 27.6-16.2 27.7-16.2-27.7zm33.2 0 16.2 27.6-16.2 27.7-16.2-27.7zm33.2 0 16.2 27.6-16.2 27.7-16.2-27.7zm33.2 0 16.2 27.6-16.2 27.7-16.2-27.7zm33.2 0 16.2 27.6-16.2 27.7-16.2-27.7zm33.2 0 16.2 27.6-16.2 27.7-16.2-27.7zm16.2 198-16.2 27.7v-.1.1l-8.1-13.8-8.1-13.9 16.2-27.8 8.1 13.9zm-16.2-86.1-16.2-27.6 16.2-27.7 16.2 27.7zm-265.5-55.2 16.2 27.6-16.2 27.7v-.1.1l-16.2-27.7zm33.2 0 16.2 27.6-16.2 27.7v-.1.1l-16.2-27.7zm33.2 0 16.2 27.6-16.2 27.7v-.1.1l-16.2-27.7zm33.1 0 16.2 27.6-16.2 27.7v-.1.1l-16.2-27.7zm33.2 0 16.2 27.6-16.2 27.7v-.1.1l-16.2-27.7zm33.2 0 16.2 27.6-16.2 27.7v-.1.1l-16.2-27.7zm33.2 0 16.2 27.6-16.2 27.7v-.1.1l-16.2-27.7zm33.2 0 16.2 27.6-16.2 27.7v-.1.1l-16.2-27.7zm16.2 141.3-16.2 27.7v-.1.1l-8.1-13.8-8.1-13.9 16.2-27.8 8.1 13.9zm-16.6 28.4-16.2 27.7-16.2-27.7 16.2-27.7 8.1 13.9zm-132.3-.7-8.1-13.8-8.1-13.9 8.1-13.9 8.1-13.9 8.1 13.9 8.1 13.9-8.1 13.9zm25-13.8-8.1-13.9 16.2-27.8 8.1 13.9 8.1 13.9-16.1 27.7v-.1.1zm57.9-14.5-16.2-27.8 16.2-27.8 16.2 27.8-5.8 9.8zm-33.2 0-16.2-27.8 16.2-27.8 16.2 27.8-5.8 9.8zm-66.4-55.5 16.2 27.8-16.2 27.7-16.2-27.8zm17 27.7 16.2-27.8 16.2 27.8-11.2 19.3-5 8.5-11.9-20.4zm115.4-28.5-16.2 27.7-16.1-27.7 16.2-27.7zm-33.2 0-16.2 27.7-16.1-27.7 16.2-27.7zm-33.2 0-16.2 27.7-16.1-27.7 16.2-27.7zm-33.2 0-16.2 27.7-16.1-27.7 16.1-27.7zm-33.2 0-16.2 27.7-16.1-27.7 16.2-27.7zm-49.3-27.7 16.2 27.7-16.2 27.7-16.2-27.7zm116.5 84.6 16.2-27.8 8.1 13.9 8.1 13.9-16.1 27.7v-.1.1l-8.1-13.8zm33.2 0 16.2-27.8 8.1 13.9 8.1 13.9-16.2 27.7v-.1.1l-8.1-13.8zm32.8-.6-16.2-27.8 16.2-27.8 16.2 27.8-5.8 9.8zm16.6-84 16.2 27.7-16.2 27.7-16.1-27.7zm-.4-.7-16.2 27.7-16.2-27.7 16.2-27.7zm-33.2 0-16.2 27.6-16.2-27.7 16.2-27.7zm-33.2 0-16.2 27.7-16.2-27.7 16.2-27.7zm-33.2 0-16.2 27.7-16.2-27.7 16.2-27.7zm-33.2 0-16.2 27.7-16.1-27.7 16.2-27.7zm-33.2 0-16.2 27.7-16.2-27.7 16.2-27.7zm-33.2 0-16.2 27.7-16.2-27.7 16.2-27.7zm17.1 29.2 16.2 27.8-16.2 27.8-16.3-27.9zm.3 56.1 8.1-13.9 8.1-13.9 8.2 13.9 8.1 13.9-8.1 13.9-8.1 13.8v-.1.1l-8.1-13.8zm16.7 28.4 8.1-13.8 8.1-13.9 8.1 13.9 8.1 13.8-16.3 27.7zm33.2 0 8.1-13.8 8.1-13.8 16.2 27.7-16.3 27.6zm33.2 0 16.2-27.7 8.1 13.9 8 13.8-16.2 27.7zm33.2 0 16.1-27.7 8.1 13.9 8.1 13.8-16.2 27.7zm-166.9-113.7-16.2 27.7-16.2-27.7 16.2-27.7zm.5.7 16.2 27.7-16.2 27.7-16.2-27.7zm49.8 85.3 8.1 13.9 8.1 13.8-16.2 27.7-16.2-27.7 8.1-13.8zm-16.6 28.4 16.2 27.7-16.2 27.7-16.2-27.7zm33.2 0 16.1 27.7-16.1 27.7-16.2-27.7zm33.1 0 16.2 27.7-16.2 27.7-16.1-27.7zm33.2 0 16.2 27.7-16.2 27.7-16.1-27.7zm33.2 0 16.2 27.7-16.2 27.7-16.1-27.7zm33.2 0 16.2 27.7-16.2 27.7-16.2-27.7zm33.2 0 16.2 27.7-16.2 27.7-16.2-27.7zm16.6-86.8-16.2-27.7 16.2-27.7 16.2 27.7zm-232.3 1.6 16.2 27.8-16.2 27.8-16.2-27.8zm.3 56.1 8.1-13.9 8.1-13.9 8.1 13.9 8.1 13.9-8.1 13.9-8.1 13.8v-.1.1l-8.1-13.8zm-.8 56.8-16.1 27.7-16.2-27.7 16.2-27.7zm232.8-57.4-16.2-27.8 16.2-27.8 16.2 27.8-5.8 9.8zm0-113.7-16.2-27.7 16.2-27.7 16.2 27.7zm-33.2 0-16.2-27.7 16.2-27.7 16.2 27.7zm-33.2 0-16.2-27.7 16.2-27.7 16.2 27.7zm-33.2 0-16.2-27.7 16.2-27.7 16.2 27.7zm-33.2 0-16.2-27.7 16.2-27.7 16.2 27.7zm-17-27.7-16.2 27.7-16.1-27.7 16.2-27.7zm-33.2 0-16.2 27.7-16.2-27.7 16.2-27.7zm-33.2 0-16.2 27.7-16.2-27.7 16.2-27.7zm-33.2 0-16.2 27.7-16.2-27.7 16.2-27.7zm17.1 142.7 8.1 13.9 8.1 13.8-16.2 27.7-16.2-27.7 8.1-13.8zm-17 84.6-16.2 27.8-16.2-27.8 16.2-27.8zm.7 0 16.2-27.8 16.2 27.8-16.2 27.8zm33.2 0 16.2-27.8 16.3 27.8-16.2 27.8zm33.2 0 16.2-27.8 16.3 27.8-16.3 27.7zm33.2 0 16.2-27.8 16.3 27.8-16.3 27.7zm33.2 0 16.2-27.8 16.3 27.8-16.3 27.7zm33.2 0 16.2-27.8 16.2 27.8-16.2 27.7zm33.2 0 16.2-27.8 16.2 27.8-16.2 27.8zm33.2 0 16.2-27.8 16.2 27.8-16.2 27.8zm32.8-.8-16.2-27.7 16.2-27.7 16.2 27.7zm-.4-56.1-16.2 27.7-16.2-27.7 16.2-27.7 8.1 13.9zm.4-57.6-16.1-27.7 16.2-27.7 16.2 27.7zm.4-112.8 16.2-27.7 16.2 27.7-16.2 27.7zm-299.1.7 16.2 27.6-16.2 27.7v-.1.1l-16.2-27.7zm16.1 84.4-16.2 27.7-16.2-27.7 16.2-27.7zm.5.8 16.2 27.8-16.2 27.8-16.2-27.8zm.3 56.1 8.1-13.9 8.1-13.9 8.1 13.9 8.1 13.9-8.1 13.9-8.1 13.8v-.1.1l-8.1-13.8zm-17.4-142-16.2 27.7-16.2-27.7 16.2-27.7zm0 56.7-16.2 27.7-16.2-27.7 16.2-27.7zm17.1 86 8.1 13.9 8.1 13.8-16.2 27.7-16.2-27.7 8.1-13.8zm-16.6 28.4 16.2 27.7-16.2 27.7-16.2-27.7zm299.1 56.2 16.2-27.8 16.2 27.8-16.2 27.8zm16.2-85.9-16.2-27.8 16.2-27.8 16.2 27.8-5.8 9.8zm0-57.1-16.2-27.7 16.2-27.7 16.2 27.7zm16.6-85.1-16.2-27.6 16.1-27.6v.1-.1l16.1 27.6zm-16.6-28.3-16.1-27.6 16.1-27.6 16.1 27.6zm-33.2 0-16.1-27.6 16.1-27.6 16.1 27.6zm-33.2 0-16.1-27.6 16.1-27.6 16.1 27.6zm-33.2 0-16.1-27.6 16.1-27.6 16.1 27.6zm-33.2 0-16.1-27.6 16.1-27.6 16.2 27.5zm-33.2 0-16.1-27.6 16.1-27.6 16.1 27.6zm-33.2 0-16.1-27.7 16.1-27.6 16.1 27.6zm-33.1 0-16.1-27.6 16.1-27.6 16.1 27.6zm-33.2 0-16.1-27.6 16.1-27.6 16.1 27.6zm-33.2 0-16.1-27.6 16.1-27.6 16.1 27.6zm-33.2 0-16.1-27.6 16.1-27.6 16.1 27.6zm0 115 16.2 27.8-16.2 27.8-16.2-27.8zm.4 56.1 8.1-13.9 8.1-13.9 8.1 13.9 8.1 13.9-8.1 13.9-8.1 13.8v-.1.1l-8.1-13.8zm15.8 85.3-16.2 27.8-16.2-27.8 16.2-27.8zm-.1 56.8-16.2 27.7-16.1-27.7 16.2-27.7zm17.1-27.7 16.1 27.7-16.2 27.7-16.1-27.7zm33.2 0 16.1 27.7-16.2 27.7-16.1-27.7zm33.2 0 16.1 27.7-16.2 27.7-16.1-27.7zm33.1 0 16.2 27.7-16.2 27.7-16.1-27.7zm33.2 0 16.2 27.7-16.2 27.7-16.1-27.7zm33.2 0 16.2 27.7-16.2 27.7-16.1-27.7zm33.2 0 16.2 27.7-16.2 27.7-16.1-27.7zm33.2 0 16.2 27.7-16.2 27.7-16.1-27.7zm33.2 0 16.2 27.7-16.2 27.7-16.1-27.7zm33.2 0 16.2 27.7-16.2 27.7-16.2-27.7zm16.6 26.9-16.2-27.6 16.2-27.7 16.2 27.7zm0-112.2 16.2 27.7-16.2 27.7-16.2-27.7zm-.4-.7-16.2 27.7-16.2-27.7 16.2-27.7 8.1 13.9zm.4-113 16.2 27.7-16.2 27.7-16.1-27.7zm-348.5 85.3 8.1 13.9 8.1 13.8-16.2 27.7-16.2-27.7 8.1-13.8zm364.7-.7-16.2 27.7v-.1.1l-8.1-13.8-8.1-13.9 16.2-27.8 3.9 6.7zm-397.5-170.4 16.2-27.7v.1-.1l16.1 27.6-16.2 27.7v.1zm0 56.7 16.2-27.7v.1l16.2 27.7-16.2 27.7v-.1.1zm16.1 29 16.2 27.8-16.2 27.7-16.2-27.8zm-16.1 84.7 16.2-27.8 8.1 13.9 8.1 13.9-8.1 13.9-8.1 13.8v-.1.1zm16.1 29 16.2 27.8-16.2 27.7-16.2-27.8zm-16.1 84.7 16.2-27.8 16.2 27.7-16.2 27.7v.1z" fill="#d1e39b"/></g><g fill="#cd4134"><path d="m0 0h100v100h-100z"/><ellipse cx="51.1" cy="50.8" rx="5.5" ry="5.5"/><path d="m53.6 49.9c.5 1.4-.2 3-1.6 3.5s-2.9-.2-3.4-1.6.2-3 1.6-3.5 2.9.2 3.4 1.6z"/></g><path d="m59.7 32.1c-2.3-6.4-3.4-9.2-3.9-10.5 0-.1-.1-.1-.2 0-.6.7-3.2 3.8-7 8.7-5.6 7.2-.4 14.7 2.6 17.9h.5c3.7-2.1 11-7.5 8-16.1z" fill="#e5e5e5"/><path d="m39.5 33.9c-6.6-1.2-9.6-1.6-10.8-1.8-.1 0-.2.1-.1.2.3.9 1.6 4.7 3.9 10.5 3.3 8.5 12.3 7.6 16.5 6.7l.3-.4c-.1-4.5-1-13.6-9.8-15.2z" fill="#fff"/><path d="m30.8 52.6c-4.3 5.2-6.2 7.6-7 8.6-.1.1 0 .2.1.2.9.2 4.8.9 10.9 1.8 8.9 1.3 12.7-7 14-11.2l-.2-.5c-3.7-2.1-11.9-5.9-17.8 1.1z" fill="#e5e5e5"/><path d="m42.5 69.5c2.3 6.4 3.4 9.2 3.9 10.5 0 .1.1.1.2 0 .6-.7 3.2-3.8 7-8.7 5.6-7.2.4-14.6-2.5-17.9h-.5c-3.8 2.1-11.2 7.5-8.1 16.1z" fill="#fff"/><path d="m62.8 67.7c6.6 1.2 9.6 1.6 10.9 1.8.1 0 .2-.1.1-.2-.3-.9-1.7-4.7-3.9-10.5-3.3-8.5-12.3-7.6-16.5-6.6l-.4.4c-.1 4.4.9 13.5 9.8 15.1z" fill="#e5e5e5"/><path d="m71.4 49c4.3-5.2 6.2-7.6 7-8.6.1-.1 0-.2-.1-.2-.9-.2-4.8-.9-10.9-1.8-8.9-1.3-12.7 7-14 11.2l.2.5c3.7 2.2 11.9 5.9 17.8-1.1z" fill="#fff"/></svg>