<?xml version="1.0" encoding="utf-8"?>
<!-- Generator: Adobe Illustrator 22.1.0, SVG Export Plug-In . SVG Version: 6.00 Build 0)  -->
<svg version="1.1" id="Layer_1" xmlns="http://www.w3.org/2000/svg" xmlns:xlink="http://www.w3.org/1999/xlink" x="0px" y="0px"
	 viewBox="0 0 100 100" style="enable-background:new 0 0 100 100;" xml:space="preserve">
<style type="text/css">
	.st0{fill:#BE1E2D;}
	.st1{fill:#00B0BB;}
	.st2{fill:#63C4AF;}
	.st3{fill:#EAEAEA;}
	.st4{fill:#413E34;}
	.st5{fill:none;}
	.st6{clip-path:url(#SVGID_2_);}
	.st7{clip-path:url(#SVGID_4_);}
	.st8{fill:#1E0D12;}
	.st9{fill:#E62F34;}
	.st10{fill:#25793D;}
	.st11{clip-path:url(#SVGID_6_);}
	.st12{clip-path:url(#SVGID_8_);}
	.st13{fill:#FFFFFF;}
	.st14{clip-path:url(#SVGID_10_);}
	.st15{clip-path:url(#SVGID_12_);}
	.st16{fill:#96BF4D;}
	.st17{clip-path:url(#SVGID_14_);}
	.st18{fill-rule:evenodd;clip-rule:evenodd;fill:#FFFFFF;}
	.st19{fill:#C92927;}
	.st20{fill:#253748;}
	.st21{clip-path:url(#SVGID_16_);}
	.st22{fill:#97CB59;}
	.st23{fill:#DA2128;}
	.st24{fill:#00A14B;}
	.st25{fill:#96171A;}
	.st26{fill:#D1E39B;}
	.st27{fill:#4FBBBB;}
	.st28{fill:#37343F;}
	.st29{fill:#077A64;}
	.st30{fill:#F4EED4;}
	.st31{fill:#012E47;}
	.st32{fill:#BE1C42;}
	.st33{fill:#008E9F;}
	.st34{fill:#CD4134;}
	.st35{clip-path:url(#SVGID_18_);}
	.st36{clip-path:url(#SVGID_20_);}
	.st37{fill:#EE2424;}
	.st38{fill:#67BC45;}
	.st39{clip-path:url(#SVGID_22_);}
	.st40{clip-path:url(#SVGID_24_);}
	.st41{fill:#004A54;}
	.st42{fill:#D93128;}
	.st43{fill:#401B23;}
	.st44{fill:#EE2D40;}
	.st45{fill:#F1EBC9;}
	.st46{fill-rule:evenodd;clip-rule:evenodd;fill:#C92927;}
	.st47{fill-rule:evenodd;clip-rule:evenodd;fill:#96BF4D;}
	.st48{fill:#BD3026;}
	.st49{opacity:0.4;fill:#CD4134;}
	.st50{fill:#E6B448;}
	.st51{fill:#E21F26;}
	.st52{fill:#A82123;}
	.st53{fill:#383A3A;}
	.st54{fill:#F17B22;}
	.st55{fill:#F1F0DC;}
	.st56{fill:#56AE78;}
	.st57{fill:#EE262E;}
	.st58{fill:#C47229;}
	.st59{fill:#FEC010;}
	.st60{fill:#C0343E;}
	.st61{fill:url(#SVGID_25_);}
	.st62{fill:#659DAA;}
	.st63{fill:#C9A784;}
	.st64{fill:#DDCFB5;}
	.st65{fill:#D2A886;}
	.st66{fill:#9B3227;}
	.st67{opacity:0.39;fill:#FFFFFF;}
	.st68{fill:#E5E5E5;}
	.st69{fill:#202945;}
	.st70{fill:none;stroke:#ACA300;stroke-miterlimit:10;}
	.st71{fill:none;stroke:#ACA300;stroke-miterlimit:10;stroke-dasharray:2.0083,2.0083;}
	.st72{fill:#ACA300;}
</style>
<g>
	<defs>
		<rect id="SVGID_1_" x="840" y="-420" width="100" height="100"/>
	</defs>
	<clipPath id="SVGID_2_">
		<use xlink:href="#SVGID_1_"  style="overflow:visible;"/>
	</clipPath>
	<g class="st6">
		<g>
			<defs>
				
					<rect id="SVGID_3_" x="372.5" y="-426.7" transform="matrix(0.6711 -0.7413 0.7413 0.6711 444.0827 549.4915)" width="937.7" height="401.9"/>
			</defs>
			<clipPath id="SVGID_4_">
				<use xlink:href="#SVGID_3_"  style="overflow:visible;"/>
			</clipPath>
			<g class="st7">
				
					<rect x="91.4" y="-379.5" transform="matrix(0.6711 -0.7413 0.7413 0.6711 182.4787 277.4372)" class="st5" width="625.1" height="625.1"/>
				
					<rect x="91.4" y="-379.5" transform="matrix(0.6711 -0.7413 0.7413 0.6711 182.4787 277.4372)" class="st8" width="625.1" height="625.1"/>
				<polygon class="st9" points="57.1,-49.7 25.5,-48.2 9.8,-47.4 1.9,-47 -13.9,-46.2 -37.5,-45 -37.5,-45 78.3,59.9 78.3,59.9 
					77.9,52 77.9,52 77.5,44.1 77.5,44.1 77.1,36.2 77.1,36.2 76.7,28.3 76.7,28.3 76.4,20.5 76.4,20.5 76,12.6 76,12.6 75.6,4.7 
					75.2,-3.2 75.2,-3.2 74.8,-11.1 74.8,-11.1 74.4,-19 74.4,-19 74,-26.9 74,-26.9 73.6,-34.7 73.6,-34.7 73.2,-42.6 73.2,-42.6 
					72.8,-50.5 64.9,-50.1 				"/>
				<polygon class="st9" points="78.3,59.9 78.3,59.9 78.3,59.9 				"/>
				<polygon class="st9" points="86.2,59.5 77.9,52 78.3,59.9 				"/>
				<polygon class="st9" points="78.3,59.9 77.9,52 77.9,52 				"/>
				<polygon class="st9" points="94.1,59.1 102,58.7 77.1,36.2 77.5,44.1 				"/>
				<polygon class="st9" points="77.5,44.1 77.5,44.1 77.1,36.2 77.1,36.2 				"/>
				<polygon class="st9" points="109.8,58.3 117.7,57.9 76.4,20.5 76.7,28.3 				"/>
				<polygon class="st9" points="76.7,28.3 76.7,28.3 76.4,20.5 76.4,20.5 				"/>
				<polygon class="st9" points="125.6,57.5 133.5,57.1 75.6,4.7 76,12.6 				"/>
				<polygon class="st9" points="76,12.6 75.6,4.7 76,12.6 				"/>
				<polygon class="st9" points="141.4,56.7 149.3,56.3 74.8,-11.1 75.2,-3.2 				"/>
				<polygon class="st9" points="157.1,56 165,55.6 74,-26.9 74.4,-19 				"/>
				<polygon class="st9" points="172.9,55.2 180.8,54.8 73.2,-42.6 73.6,-34.7 				"/>
				<polygon class="st9" points="187.5,30.7 187.5,30.7 96.5,-51.7 88.6,-51.3 187.9,38.6 				"/>
				<polygon class="st9" points="188.3,46.5 80.7,-50.9 72.8,-50.5 188.7,54.4 188.3,46.5 				"/>
			</g>
		</g>
	</g>
</g>
<g>
	<defs>
		<rect id="SVGID_5_" x="0" y="-280" width="100" height="100"/>
	</defs>
	<clipPath id="SVGID_6_">
		<use xlink:href="#SVGID_5_"  style="overflow:visible;"/>
	</clipPath>
	<g class="st11">
		<g>
			<defs>
				<rect id="SVGID_7_" x="-71.3" y="-978.9" width="595" height="1388.2"/>
			</defs>
			<clipPath id="SVGID_8_">
				<use xlink:href="#SVGID_7_"  style="overflow:visible;"/>
			</clipPath>
			<g class="st12">
				<rect x="-361.1" y="-281.6" class="st5" width="466" height="466"/>
				<rect x="-361.1" y="-281.6" class="st13" width="466" height="466"/>
				<g>
					<polygon class="st8" points="0.4,7.6 0.4,-0.4 -7.6,7.6 -15.6,15.7 -15.6,23.7 -7.6,15.7 					"/>
					<polygon class="st8" points="0.4,-8.4 0.4,-16.5 -7.6,-8.4 -15.6,-0.4 -15.6,7.6 -7.6,-0.4 					"/>
					<polygon class="st8" points="0.4,23.7 0.4,15.7 -7.6,23.7 -15.6,31.7 -15.6,39.8 -7.6,31.7 					"/>
					<polygon class="st8" points="0.4,71.9 0.4,63.9 -7.6,71.9 -15.6,79.9 -15.6,88 -7.6,79.9 					"/>
					<polygon class="st8" points="0.4,104 0.4,96 -7.6,104 -15.6,112.1 -15.6,120.1 -7.6,112.1 					"/>
					<polygon class="st8" points="0.4,55.8 0.4,47.8 -7.6,55.8 -15.6,63.9 -15.6,71.9 -7.6,63.9 					"/>
					<polygon class="st8" points="0.4,39.8 0.4,31.7 -7.6,39.8 -15.6,47.8 -15.6,55.8 -7.6,47.8 					"/>
					<polygon class="st8" points="0.4,88 0.4,79.9 -7.6,88 -15.6,96 -15.6,104 -7.6,96 					"/>
				</g>
				<g>
					<polygon class="st8" points="96.9,79.9 88.8,79.9 104.9,63.9 104.9,71.9 					"/>
					<polygon class="st8" points="-15.6,79.9 -23.7,79.9 -15.6,71.9 -7.6,63.9 0.4,63.9 -7.6,71.9 					"/>
					<polygon class="st8" points="16.5,79.9 8.5,79.9 16.5,71.9 24.6,63.9 32.6,63.9 24.6,71.9 					"/>
					<polygon class="st8" points="0.4,79.9 -7.6,79.9 0.4,71.9 8.5,63.9 16.5,63.9 8.5,71.9 					"/>
					<polygon class="st8" points="32.6,79.9 24.6,79.9 32.6,71.9 40.6,63.9 48.7,63.9 40.6,71.9 					"/>
					<polygon class="st8" points="64.7,79.9 56.7,79.9 64.7,71.9 72.8,63.9 80.8,63.9 72.8,71.9 					"/>
					<polygon class="st8" points="48.7,79.9 40.6,79.9 48.7,71.9 56.7,63.9 64.7,63.9 56.7,71.9 					"/>
					<polygon class="st8" points="80.8,79.9 72.8,79.9 80.8,71.9 88.8,63.9 96.9,63.9 88.8,71.9 					"/>
				</g>
			</g>
		</g>
	</g>
</g>
<g>
	<defs>
		<rect id="SVGID_9_" x="140" y="-280" width="100" height="100"/>
	</defs>
	<clipPath id="SVGID_10_">
		<use xlink:href="#SVGID_9_"  style="overflow:visible;"/>
	</clipPath>
	<g class="st14">
		<g>
			<defs>
				
					<rect id="SVGID_11_" x="-186" y="-377.1" transform="matrix(0.6991 -0.715 0.715 0.6991 211.7637 39.9898)" width="678.8" height="290.9"/>
			</defs>
			<clipPath id="SVGID_12_">
				<use xlink:href="#SVGID_11_"  style="overflow:visible;"/>
			</clipPath>
			<g class="st15">
				
					<rect x="-60" y="-152.8" transform="matrix(0.6991 -0.715 0.715 0.6991 43.0401 29.2255)" class="st5" width="232.6" height="232.6"/>
				
					<rect x="-60" y="-152.8" transform="matrix(0.6991 -0.715 0.715 0.6991 43.0401 29.2255)" class="st10" width="232.6" height="232.6"/>
				<polygon class="st8" points="139.3,33 139.2,31.2 139.1,16.7 139,13.4 139,13.4 138.8,-6.1 138.8,-6.1 138.8,-7.5 138.8,-10 
					130.9,-10 130.9,-10 127,-9.9 127,-9.9 123.1,-9.9 123.1,-9.9 120.5,-9.8 113.5,-9.8 111.4,-9.7 111.4,-9.7 107.4,-9.7 
					107.4,-9.7 103.5,-9.6 103.5,-9.6 91.8,-9.5 91.8,-9.5 87.9,-9.5 87.9,-9.5 84,-9.4 84,-5.5 84,-5.5 84,-1.6 84,-1.6 84.1,0.7 
					84.2,8.8 84.2,10.1 84.2,10.1 84.2,14.1 84.2,14.1 84.3,18 84.3,18 84.4,29.7 84.4,29.7 84.4,33.6 84.4,33.6 84.5,37.6 
					84.5,37.6 84.5,41.5 84.5,41.5 84.6,45.4 88.5,45.3 88.5,45.3 92.4,45.3 92.4,45.3 96.3,45.2 96.3,45.2 99.3,45.2 112,45.1 
					112,45.1 115.9,45 115.9,45 127.9,44.9 131.6,44.9 131.6,44.9 135.5,44.8 135.5,44.8 139.4,44.8 139.3,33 				"/>
				<polygon class="st8" points="1.7,-8.5 -2.2,-8.5 -25.4,15.3 -25.4,19.2 				"/>
				<polygon class="st8" points="9.6,-8.6 5.7,-8.6 -25.3,23.1 -25.3,27 				"/>
				<polygon class="st8" points="17.4,-8.7 13.5,-8.6 -25.2,30.9 -25.2,32.4 -25.2,34.9 				"/>
				<polygon class="st8" points="25.2,-8.8 21.3,-8.7 -25.1,38.8 -25.1,42.7 				"/>
				<polygon class="st8" points="29.7,42.1 29.7,38.2 25.8,42.1 21.9,46.1 25.8,46 				"/>
				<polygon class="st8" points="29.6,34.3 29.6,30.3 25.7,34.3 14.1,46.2 15.1,46.2 18,46.1 25.8,38.2 				"/>
				<polygon class="st8" points="25.7,30.4 29.5,26.4 29.5,22.5 25.6,26.5 6.3,46.3 9.4,46.2 10.2,46.2 				"/>
				<polygon class="st8" points="29.5,18.6 29.4,14.7 25.5,18.6 -1.6,46.3 2.4,46.3 25.6,22.5 				"/>
				<polygon class="st8" points="-5.5,46.4 25.5,14.7 29.4,10.8 29.3,6.8 25.5,10.8 -9.4,46.4 				"/>
				<polygon class="st8" points="29.3,2.9 29.2,-1 25.4,3 -17.2,46.5 -13.3,46.5 25.4,6.9 				"/>
				<polygon class="st8" points="25.3,-0.9 29.2,-4.9 29.1,-8.8 25.3,-4.9 -25,46.6 -21.1,46.6 				"/>
				<polygon class="st8" points="29.3,2.9 33.2,-1 40.9,-8.9 37,-8.9 33.1,-4.9 29.2,-1 				"/>
				<polygon class="st8" points="29.4,10.8 33.2,6.8 48.7,-9 44.8,-9 33.2,2.9 29.3,6.8 				"/>
				<polygon class="st8" points="29.5,18.6 33.3,14.6 56.6,-9.1 52.6,-9.1 33.3,10.7 29.4,14.7 				"/>
				<polygon class="st8" points="29.5,26.4 33.4,22.5 64.4,-9.2 60.5,-9.2 33.4,18.5 29.5,22.5 				"/>
				<polygon class="st8" points="29.6,34.3 33.5,30.3 72.2,-9.3 68.3,-9.3 33.5,26.4 29.6,30.3 				"/>
				<polygon class="st8" points="29.7,42.1 33.6,38.1 80,-9.4 76.1,-9.3 33.5,34.2 29.7,38.2 				"/>
				<polygon class="st8" points="79.2,45.4 80.7,45.4 84.5,41.5 84.5,37.6 76.7,45.5 				"/>
				<polygon class="st8" points="84.5,41.5 84.5,37.6 84.5,37.6 84.5,41.5 				"/>
				<polygon class="st8" points="72.8,45.5 84.4,33.6 84.4,29.7 68.9,45.6 				"/>
				<polygon class="st8" points="84.4,33.6 84.4,29.7 84.4,29.7 84.4,33.6 				"/>
				<polygon class="st8" points="84.3,21.9 61.1,45.6 65,45.6 84.4,25.8 				"/>
				<polygon class="st8" points="57.2,45.7 84.3,18 84.2,14.1 53.3,45.7 				"/>
				<polygon class="st8" points="84.3,18 84.2,14.1 84.2,14.1 84.3,18 				"/>
				<polygon class="st8" points="45.4,45.8 47.6,45.8 49.3,45.8 84.2,10.1 84.2,8.8 84.1,6.2 				"/>
				<polygon class="st8" points="84.2,10.1 84.2,8.8 84.2,10.1 				"/>
				<polygon class="st8" points="41.5,45.9 84.1,2.3 84.1,0.7 84,-1.6 37.6,45.9 				"/>
				<polygon class="st8" points="84,-1.6 84,-1.6 84.1,0.7 				"/>
				<polygon class="st8" points="33.7,46 84,-5.5 84,-9.4 33.6,42 29.8,46 				"/>
				<polygon class="st9" points="25.7,30.4 25.7,34.3 29.6,30.3 33.5,26.4 33.4,22.5 29.5,26.4 				"/>
				<polygon class="st9" points="25.5,14.7 25.5,18.6 29.4,14.7 33.3,10.7 33.2,6.8 29.4,10.8 				"/>
				<polygon class="st9" points="25.8,38.2 25.8,42.1 29.7,38.2 33.5,34.2 33.5,30.3 29.6,34.3 				"/>
				<polygon class="st9" points="25.8,46 28.5,46 29.8,46 33.6,42 33.6,38.1 29.7,42.1 				"/>
				<polygon class="st9" points="25.6,22.5 25.6,26.5 29.5,22.5 33.4,18.5 33.3,14.6 29.5,18.6 				"/>
				<polygon class="st9" points="25.4,6.9 25.5,10.8 29.3,6.8 33.2,2.9 33.2,-1 29.3,2.9 				"/>
				<polygon class="st9" points="25.3,-0.9 25.4,3 29.2,-1 33.1,-4.9 33.1,-8.9 29.2,-4.9 				"/>
				<polygon class="st9" points="30.4,100.8 34.2,96.8 34.2,92.9 30.3,96.9 28.4,98.9 				"/>
				<polygon class="st9" points="34.1,81.2 34,77.3 30.2,81.2 26.3,85.2 26.3,89.1 30.2,85.1 				"/>
				<polygon class="st9" points="34.2,89 34.1,85.1 30.2,89.1 26.4,93 26.4,96.9 30.3,93 				"/>
				<polygon class="st9" points="34,73.4 33.9,69.4 30.1,73.4 26.2,77.4 26.2,81.3 30.1,77.3 				"/>
				<polygon class="st9" points="33.8,57.7 33.8,53.8 29.9,57.7 26,61.7 26.1,65.6 29.9,61.7 				"/>
				<polygon class="st9" points="33.9,65.5 33.9,61.6 30,65.6 26.1,69.5 26.2,73.4 30,69.5 				"/>
				<polygon class="st9" points="28.5,46 29.8,46 29.8,46 				"/>
				<polygon class="st9" points="25.8,46 25.9,50 29.8,46 28.5,46 				"/>
				<polygon class="st9" points="29.8,49.9 25.9,53.9 26,57.8 29.9,53.8 33.7,49.9 33.7,46 33.7,46 				"/>
				<polygon class="st9" points="69.5,100.4 65.7,104.3 69.6,104.3 73.4,100.3 77.3,96.4 73.4,96.4 				"/>
				<polygon class="st9" points="61.7,96.5 57.7,96.6 53.9,100.5 50,104.5 53.9,104.5 57.8,100.5 				"/>
				<polygon class="st9" points="77.4,100.3 73.5,104.2 77.4,104.2 81.3,100.2 85.1,96.3 81.2,96.3 				"/>
				<polygon class="st9" points="69.5,96.5 65.6,96.5 61.7,100.5 57.8,104.4 61.7,104.4 65.6,100.4 				"/>
				<polygon class="st9" points="53.8,96.6 49.9,96.7 46,100.6 42.2,104.6 46.1,104.5 50,100.6 				"/>
				<polygon class="st9" points="30.3,96.9 26.4,96.9 28.4,98.9 				"/>
				<polygon class="st9" points="32.4,102.7 34.3,100.8 38.2,96.8 34.2,96.8 30.4,100.8 				"/>
				<polygon class="st9" points="42.1,100.7 46,96.7 42.1,96.8 38.2,100.7 34.3,104.7 38.3,104.6 				"/>
				<polygon class="st8" points="92.4,45.3 88.5,45.3 88.5,45.3 92.4,45.3 				"/>
				<polygon class="st8" points="84.6,49.3 84.7,53.2 92.4,45.3 88.5,45.3 				"/>
				<polygon class="st8" points="92.4,45.3 92.4,45.3 88.5,45.3 88.5,45.3 				"/>
				<polygon class="st8" points="96.3,45.2 96.3,45.2 99.3,45.2 				"/>
				<polygon class="st8" points="84.7,57.1 84.7,61 100.2,45.2 96.3,45.3 				"/>
				<polygon class="st8" points="100.2,45.2 99.3,45.2 96.3,45.2 96.3,45.3 				"/>
				<polygon class="st8" points="84.8,65 84.8,68.9 108.1,45.1 104.1,45.2 				"/>
				<polygon class="st8" points="84.9,72.8 84.9,76.7 115.9,45 112,45.1 				"/>
				<polygon class="st8" points="85,80.6 85,84.5 123.7,44.9 119.8,45 				"/>
				<polygon class="st8" points="85.1,88.4 85.1,92.4 131.6,44.9 127.6,44.9 				"/>
				<polygon class="st8" points="85.1,96.3 85.2,100.2 89.1,96.2 139.4,44.8 135.5,44.8 				"/>
			</g>
			<g class="st15">
				
					<rect x="-222.6" y="13.5" transform="matrix(0.6991 -0.715 0.715 0.6991 -124.7627 -36.9981)" class="st5" width="232.6" height="232.6"/>
				
					<rect x="-222.6" y="13.5" transform="matrix(0.6991 -0.715 0.715 0.6991 -124.7627 -36.9981)" class="st10" width="232.6" height="232.6"/>
				<polygon class="st9" points="28.4,98.9 26.5,100.8 26.5,104.8 30.4,100.8 				"/>
				<polygon class="st9" points="26.4,96.9 22.5,100.9 18.7,104.9 22.6,104.8 26.5,100.8 28.4,98.9 				"/>
				<polygon class="st9" points="3,105 6.9,105 10.8,101 14.7,97.1 10.8,97.1 6.9,101.1 				"/>
				<polygon class="st9" points="14.7,101 10.8,104.9 14.8,104.9 18.6,100.9 22.5,97 18.6,97 				"/>
				<polygon class="st9" points="-4.8,105.1 -0.9,105.1 3,101.1 6.8,97.2 2.9,97.2 -0.9,101.2 				"/>
			</g>
		</g>
	</g>
</g>
<g>
	<defs>
		<rect id="SVGID_15_" x="0" y="-140" width="100" height="100"/>
	</defs>
	<clipPath id="SVGID_14_">
		<use xlink:href="#SVGID_15_"  style="overflow:visible;"/>
	</clipPath>
	<g class="st17">
		<polygon class="st24" points="33,26.1 16.4,54.6 -0.2,26.1 16.4,-2.4 		"/>
		<polygon class="st25" points="66.3,26.1 49.6,54.6 33,26.1 49.6,-2.4 		"/>
		<polygon class="st24" points="99.5,26.1 82.9,54.6 66.3,26.1 82.9,-2.4 		"/>
		<polygon class="st23" points="132.8,26.1 116.2,54.6 99.5,26.1 116.2,-2.4 		"/>
		<polygon class="st23" points="33,83 -0.2,83 16.4,54.5 		"/>
		<polygon class="st24" points="66.3,83 33,83 49.6,54.5 		"/>
		<polygon class="st23" points="99.5,83 66.3,83 82.9,54.5 		"/>
		<polygon class="st24" points="132.8,83 99.5,83 116.2,54.5 		"/>
		<polygon class="st22" points="16.4,-2.5 -0.2,26 -16.9,-2.5 -0.2,-31 		"/>
		<polygon class="st22" points="49.6,-2.5 33,26 16.4,-2.5 33,-31 		"/>
		<polygon class="st22" points="82.9,-2.5 66.3,26 49.6,-2.5 66.3,-31 		"/>
		<polygon class="st22" points="116.2,-2.5 99.5,26 82.9,-2.5 99.5,-31 		"/>
		<polygon class="st22" points="16.4,54.6 -0.2,83.1 -16.9,54.6 -0.2,26 		"/>
		<polygon class="st22" points="49.6,54.6 33,83.1 16.4,54.6 33,26 		"/>
		<polygon class="st22" points="82.9,54.6 66.3,83.1 49.6,54.6 66.3,26 		"/>
		<polygon class="st22" points="116.2,54.6 99.5,83.1 82.9,54.6 99.5,26 		"/>
		<path class="st26" d="M249.2-201.8l-16.6-28.3l16.5-28.2l0.1-0.2l-0.1-0.2l0,0l-16.4-28.1l16.4-28.1L249-315l0.1-0.2l-0.6-0.3
			l-16.3,27.9L215.6-316L199-287.6L182.4-316l-16.6,28.4L149.2-316l-16.6,28.4L116-316l-16.6,28.4L82.8-316l-16.6,28.4L49.6-316
			L33-287.6L16.4-316l-16.6,28.4L-16.7-316l-16.6,28.4L-49.9-316l-16.6,28.4L-83.1-316l-16.6,28.4l-16.6-28.4l-16.7,28.5l-16.2-27.8
			l-0.6,0.3l16.5,28.2l-16.6,28.3l16.6,28.3l-16.6,28.3l16.6,28.3l-16.6,28.3l16.7,28.5l-16.7,28.5l16.6,28.3l-16.6,28.3l16.6,28.5
			l0,0.1l0,0l-16.6,28.4l16.6,28.3l-16.5,28.2l0.6,0.3l16.3-27.9l0,0.1l0,0l16.6,28.4l16.6-28.4l0,0l0,0l16.6,28.4l16.6-28.4l0,0
			l0,0l16.6,28.4l16.6-28.4l0,0l0,0l16.6,28.4l16.6-28.4l0,0l0,0l16.6,28.4L33,54.7l0,0l0,0l16.6,28.4l16.6-28.4l0,0l0,0l16.6,28.4
			l16.6-28.4l0,0l0,0L116,83.1l16.6-28.4l0,0l0,0l16.6,28.4l16.6-28.4l0,0l0,0l16.6,28.4L199,54.7l0,0l0,0l16.6,28.4l16.6-28.4l0,0
			l0,0l16.3,27.9l0.6-0.3l0-0.1l0,0L232.6,54l16.5-28.2l0.1-0.2l-0.1-0.2l0,0L232.6-2.8l16.5-28.2l-0.1,0l0.1-0.1l0.1-0.2
			l-16.6-28.3l16.5-28.2l0.1-0.2l-0.1-0.2l0,0l-16.5-28.2l16.5-28.2l-0.1,0l0.1-0.1l0.1-0.2l-16.5-28.3l16.4-28.2l0,0l0,0
			L249.2-201.8z M232.2-174.2L232.2-174.2L216-201.8l16.2-27.7l0,0l0,0l16.2,27.7L232.2-174.2L232.2-174.2z M199,53.2L199,53.2
			l-16.2-27.6L199-2.1l16.2,27.7L199,53.2L199,53.2z M165.8,53.2L165.8,53.2l-16.2-27.6l16.2-27.7L182,25.6L165.8,53.2L165.8,53.2z
			 M132.6,53.2L132.6,53.2l-16.2-27.6l16.2-27.7l16.2,27.7L132.6,53.2L132.6,53.2z M99.4,53.2L99.4,53.2L83.2,25.6L99.4-2.1
			l16.2,27.7L99.4,53.2L99.4,53.2z M66.2,53.2L66.2,53.2L50,25.6L66.2-2.1l16.2,27.7L66.2,53.2L66.2,53.2z M33,53.2L33,53.2
			L16.8,25.6L33-2.1l16.2,27.7L33,53.2L33,53.2z M-0.1,53.2L-0.1,53.2l-16.2-27.6L-0.1-2.1l16.2,27.7L-0.1,53.2L-0.1,53.2z
			 M-33.3,53.2L-33.3,53.2l-16.2-27.6l16.2-27.7l16.2,27.7L-33.3,53.2L-33.3,53.2z M-66.5,53.2L-66.5,53.2l-16.2-27.6l16.2-27.7
			l16.2,27.7L-66.5,53.2L-66.5,53.2z M-99.7,53.2L-99.7,53.2l-16.2-27.6l16.2-27.7l16.2,27.7L-99.7,53.2L-99.7,53.2z M-99.7-286.1
			L-99.7-286.1l16.2,27.6l-16.2,27.7l0,0l0,0l-16.2-27.7L-99.7-286.1L-99.7-286.1z M-66.5-286.1L-66.5-286.1l16.2,27.6l-16.2,27.7
			l0,0l0,0l-16.2-27.7L-66.5-286.1L-66.5-286.1z M-33.3-286.1L-33.3-286.1l16.2,27.6l-16.2,27.7l0,0l0,0l-16.2-27.7L-33.3-286.1
			L-33.3-286.1z M-0.1-286.1L-0.1-286.1L16-258.5l-16.2,27.7l0,0l0,0l-16.2-27.7L-0.1-286.1L-0.1-286.1z M33-286.1L33-286.1
			l16.2,27.6l-16.2,27.7l0,0l0,0l-16.2-27.7L33-286.1L33-286.1z M66.2-286.1L66.2-286.1l16.2,27.6l-16.2,27.7l0,0l0,0l-16.2-27.7
			L66.2-286.1L66.2-286.1z M99.4-286.1L99.4-286.1l16.2,27.6l-16.2,27.7l0,0l0,0l-16.2-27.7L99.4-286.1L99.4-286.1z M132.6-286.1
			L132.6-286.1l16.2,27.6l-16.2,27.7l0,0l0,0l-16.2-27.7L132.6-286.1L132.6-286.1z M165.8-286.1L165.8-286.1l16.2,27.6l-16.2,27.7
			l0,0l0,0l-16.2-27.7L165.8-286.1L165.8-286.1z M199-286.1L199-286.1l16.2,27.6L199-230.8l0,0l0,0l-16.2-27.7L199-286.1L199-286.1z
			 M215.2-88.1l-16.2,27.7l0-0.1l0,0.1l-8.1-13.8l-8.1-13.9l16.2-27.8l8.1,13.9L215.2-88.1z M199-174.2L199-174.2l-16.2-27.6
			l16.2-27.7l0,0l0,0l16.2,27.7L199-174.2L199-174.2z M-66.5-229.4L-66.5-229.4l16.2,27.6l-16.2,27.7l0-0.1l0,0.1l-16.2-27.7
			L-66.5-229.4L-66.5-229.4z M-33.3-229.4L-33.3-229.4l16.2,27.6l-16.2,27.7l0-0.1l0,0.1l-16.2-27.7L-33.3-229.4L-33.3-229.4z
			 M-0.1-229.4L-0.1-229.4l16.2,27.6l-16.2,27.7l0-0.1l0,0.1l-16.2-27.7L-0.1-229.4L-0.1-229.4z M33-229.4L33-229.4l16.2,27.6
			l-16.2,27.7l0-0.1l0,0.1l-16.2-27.7L33-229.4L33-229.4z M66.2-229.4L66.2-229.4l16.2,27.6l-16.2,27.7l0-0.1l0,0.1L50-201.8
			L66.2-229.4L66.2-229.4z M99.4-229.4L99.4-229.4l16.2,27.6l-16.2,27.7l0-0.1l0,0.1l-16.2-27.7L99.4-229.4L99.4-229.4z
			 M132.6-229.4L132.6-229.4l16.2,27.6l-16.2,27.7l0-0.1l0,0.1l-16.2-27.7L132.6-229.4L132.6-229.4z M165.8-229.4L165.8-229.4
			l16.2,27.6l-16.2,27.7l0-0.1l0,0.1l-16.2-27.7L165.8-229.4L165.8-229.4z M182-88.1l-16.2,27.7l0-0.1l0,0.1l-8.1-13.8l-8.1-13.9
			l16.2-27.8l8.1,13.9L182-88.1z M165.4-59.7L149.2-32l-16.2-27.7l16.2-27.7l8.1,13.9L165.4-59.7z M33.1-60.4L33.1-60.4L33.1-60.4
			l-8.1-13.8l-8.1-13.9l8.1-13.9l8.1-13.9l8.1,13.9l8.1,13.9l-8.1,13.9L33.1-60.4z M58.1-74.2L50-88.1l16.2-27.8l8.1,13.9l8.1,13.9
			L66.3-60.4l0-0.1l0,0.1L58.1-74.2z M116-88.7l-16.2-27.8l16.2-27.8l16.2,27.8l-5.8,9.8L116-88.7z M82.8-88.7l-16.2-27.8l16.2-27.8
			l16.2,27.8l-5.8,9.8L82.8-88.7z M16.4-144.2l16.2,27.8L16.4-88.7L0.2-116.5L16.4-144.2z M33.4-116.5l16.2-27.8l16.2,27.8
			L54.6-97.2l-5,8.5l-11.9-20.4L33.4-116.5z M148.8-145l-16.2,27.7L116.5-145l16.2-27.7L148.8-145z M115.6-145l-16.2,27.7L83.3-145
			l16.2-27.7L115.6-145z M82.4-145l-16.2,27.7L50.1-145l16.2-27.7L82.4-145z M49.2-145L33-117.3L16.9-145L33-172.7L49.2-145z
			 M16-145l-16.2,27.7L-16.3-145l16.2-27.7L16-145z M-33.3-172.7l16.2,27.7l-16.2,27.7L-49.5-145L-33.3-172.7z M83.2-88.1l16.2-27.8
			l8.1,13.9l8.1,13.9L99.5-60.4l0-0.1l0,0.1l-8.1-13.8L83.2-88.1z M116.4-88.1l16.2-27.8l8.1,13.9l8.1,13.9l-16.2,27.7l0-0.1l0,0.1
			l-8.1-13.8L116.4-88.1z M149.2-88.7L133-116.5l16.2-27.8l16.2,27.8l-5.8,9.8L149.2-88.7z M165.8-172.7L182-145l-16.2,27.7
			L149.7-145L165.8-172.7z M165.4-173.4l-16.2,27.7l-16.2-27.7l16.2-27.7L165.4-173.4z M132.2-173.4L116-145.8l-16.2-27.7l16.2-27.7
			L132.2-173.4z M99-173.4l-16.2,27.7l-16.2-27.7l16.2-27.7L99-173.4z M65.8-173.4l-16.2,27.7l-16.2-27.7l16.2-27.7L65.8-173.4z
			 M32.6-173.4l-16.2,27.7L0.3-173.4l16.2-27.7L32.6-173.4z M-0.6-173.4l-16.2,27.7l-16.2-27.7l16.2-27.7L-0.6-173.4z M-33.8-173.4
			l-16.2,27.7l-16.2-27.7l16.2-27.7L-33.8-173.4z M-16.7-144.2l16.2,27.8l-16.2,27.8L-33-116.5L-16.7-144.2z M-16.4-88.1l8.1-13.9
			l8.1-13.9L8-102l8.1,13.9L8-74.2l-8.1,13.8l0-0.1l0,0.1l-8.1-13.8L-16.4-88.1z M0.3-59.7l8.1-13.8l8.1-13.9l8.1,13.9l8.1,13.8
			L16.4-32L0.3-59.7z M33.5-59.7l8.1-13.8l8.1-13.8l16.2,27.7L49.6-32L33.5-59.7z M66.7-59.7l16.2-27.7l8.1,13.9L99-59.7L82.8-32
			L66.7-59.7z M99.9-59.7L116-87.4l8.1,13.9l8.1,13.8L116-32L99.9-59.7z M-67-173.4l-16.2,27.7l-16.2-27.7l16.2-27.7L-67-173.4z
			 M-66.5-172.7l16.2,27.7l-16.2,27.7L-82.7-145L-66.5-172.7z M-16.7-87.4l8.1,13.9l8.1,13.8L-16.7-32l-16.2-27.7l8.1-13.8
			L-16.7-87.4z M-33.3-59l16.2,27.7L-33.3-3.6l-16.2-27.7L-33.3-59z M-0.1-59L16-31.3L-0.1-3.6l-16.2-27.7L-0.1-59z M33-59
			l16.2,27.7L33-3.6L16.9-31.3L33-59z M66.2-59l16.2,27.7L66.2-3.6L50.1-31.3L66.2-59z M99.4-59l16.2,27.7L99.4-3.6L83.3-31.3
			L99.4-59z M132.6-59l16.2,27.7L132.6-3.6l-16.2-27.7L132.6-59z M165.8-59L182-31.3L165.8-3.6l-16.2-27.7L165.8-59z M182.4-145.8
			l-16.2-27.7l16.2-27.7l16.2,27.7L182.4-145.8z M-49.9-144.2l16.2,27.8l-16.2,27.8l-16.2-27.8L-49.9-144.2z M-49.6-88.1l8.1-13.9
			l8.1-13.9l8.1,13.9l8.1,13.9l-8.1,13.9l-8.1,13.8l0-0.1l0,0.1l-8.1-13.8L-49.6-88.1z M-50.4-31.3L-66.5-3.6l-16.2-27.7L-66.5-59
			L-50.4-31.3z M182.4-88.7l-16.2-27.8l16.2-27.8l16.2,27.8l-5.8,9.8L182.4-88.7z M182.4-202.4l-16.2-27.7l16.2-27.7l16.2,27.7
			L182.4-202.4z M149.2-202.4l-16.2-27.7l16.2-27.7l16.2,27.7L149.2-202.4z M116-202.4l-16.2-27.7l16.2-27.7l16.2,27.7L116-202.4z
			 M82.8-202.4l-16.2-27.7l16.2-27.7L99-230.1L82.8-202.4z M49.6-202.4l-16.2-27.7l16.2-27.7l16.2,27.7L49.6-202.4z M32.6-230.1
			l-16.2,27.7L0.3-230.1l16.2-27.7L32.6-230.1z M-0.6-230.1l-16.2,27.7l-16.2-27.7l16.2-27.7L-0.6-230.1z M-33.8-230.1l-16.2,27.7
			l-16.2-27.7l16.2-27.7L-33.8-230.1z M-67-230.1l-16.2,27.7l-16.2-27.7l16.2-27.7L-67-230.1z M-49.9-87.4l8.1,13.9l8.1,13.8
			L-49.9-32l-16.2-27.7l8.1-13.8L-49.9-87.4z M-66.9-2.8l-16.2,27.8L-99.3-2.8l16.2-27.8L-66.9-2.8z M-66.2-2.8l16.2-27.8l16.2,27.8
			l-16.2,27.8L-66.2-2.8z M-33-2.8l16.2-27.8L-0.5-2.8l-16.2,27.8L-33-2.8z M0.2-2.8l16.2-27.8L32.7-2.8L16.4,24.9L0.2-2.8z
			 M33.4-2.8l16.2-27.8L65.9-2.8L49.6,24.9L33.4-2.8z M66.6-2.8l16.2-27.8L99.1-2.8L82.8,24.9L66.6-2.8z M99.8-2.8L116-30.6
			l16.2,27.8L116,24.9L99.8-2.8z M133-2.8l16.2-27.8l16.2,27.8l-16.2,27.8L133-2.8z M166.2-2.8l16.2-27.8l16.2,27.8l-16.2,27.8
			L166.2-2.8z M199-3.6l-16.2-27.7L199-59l16.2,27.7L199-3.6z M198.6-59.7L182.4-32l-16.2-27.7l16.2-27.7l8.1,13.9L198.6-59.7z
			 M199-117.3L182.9-145l16.2-27.7l16.2,27.7L199-117.3z M199.4-230.1l16.2-27.7l16.2,27.7l-16.2,27.7L199.4-230.1z M-99.7-229.4
			L-99.7-229.4l16.2,27.6l-16.2,27.7l0-0.1l0,0.1l-16.2-27.7L-99.7-229.4L-99.7-229.4z M-83.6-145l-16.2,27.7l-16.2-27.7l16.2-27.7
			L-83.6-145z M-83.1-144.2l16.2,27.8l-16.2,27.8l-16.2-27.8L-83.1-144.2z M-82.8-88.1l8.1-13.9l8.1-13.9l8.1,13.9l8.1,13.9
			l-8.1,13.9l-8.1,13.8l0-0.1l0,0.1l-8.1-13.8L-82.8-88.1z M-100.2-230.1l-16.2,27.7l-16.2-27.7l16.2-27.7L-100.2-230.1z
			 M-100.2-173.4l-16.2,27.7l-16.2-27.7l16.2-27.7L-100.2-173.4z M-83.1-87.4l8.1,13.9l8.1,13.8L-83.1-32l-16.2-27.7l8.1-13.8
			L-83.1-87.4z M-99.7-59l16.2,27.7L-99.7-3.6l-16.2-27.7L-99.7-59z M199.4-2.8l16.2-27.8l16.2,27.8l-16.2,27.8L199.4-2.8z
			 M215.6-88.7l-16.2-27.8l16.2-27.8l16.2,27.8l-5.8,9.8L215.6-88.7z M215.6-145.8l-16.2-27.7l16.2-27.7l16.2,27.7L215.6-145.8z
			 M232.2-230.9L232.2-230.9L216-258.5l16.1-27.6l0,0.1l0-0.1l16.1,27.6L232.2-230.9L232.2-230.9z M215.6-259.2l-16.1-27.6
			l16.1-27.6l16.1,27.6L215.6-259.2z M182.4-259.2l-16.1-27.6l16.1-27.6l16.1,27.6L182.4-259.2z M149.2-259.2l-16.1-27.6l16.1-27.6
			l16.1,27.6L149.2-259.2z M116-259.2l-16.1-27.6l16.1-27.6l16.1,27.6L116-259.2z M82.8-259.2l-16.1-27.6l16.1-27.6L99-286.9
			L82.8-259.2z M49.6-259.2l-16.1-27.6l16.1-27.6l16.1,27.6L49.6-259.2z M16.4-259.2L0.3-286.9l16.1-27.6l16.1,27.6L16.4-259.2z
			 M-16.7-259.2l-16.1-27.6l16.1-27.6l16.1,27.6L-16.7-259.2z M-49.9-259.2l-16.1-27.6l16.1-27.6l16.1,27.6L-49.9-259.2z
			 M-83.1-259.2l-16.1-27.6l16.1-27.6l16.1,27.6L-83.1-259.2z M-116.3-259.2l-16.1-27.6l16.1-27.6l16.1,27.6L-116.3-259.2z
			 M-116.3-144.2l16.2,27.8l-16.2,27.8l-16.2-27.8L-116.3-144.2z M-115.9-88.1l8.1-13.9l8.1-13.9l8.1,13.9l8.1,13.9l-8.1,13.9
			l-8.1,13.8l0-0.1l0,0.1l-8.1-13.8L-115.9-88.1z M-100.1-2.8l-16.2,27.8l-16.2-27.8l16.2-27.8L-100.1-2.8z M-100.2,54l-16.2,27.7
			L-132.5,54l16.2-27.7L-100.2,54z M-83.1,26.3L-67,54l-16.2,27.7L-99.3,54L-83.1,26.3z M-49.9,26.3L-33.8,54l-16.2,27.7L-66.1,54
			L-49.9,26.3z M-16.7,26.3L-0.6,54l-16.2,27.7L-32.9,54L-16.7,26.3z M16.4,26.3L32.6,54L16.4,81.7L0.3,54L16.4,26.3z M49.6,26.3
			L65.8,54L49.6,81.7L33.5,54L49.6,26.3z M82.8,26.3L99,54L82.8,81.7L66.7,54L82.8,26.3z M116,26.3L132.2,54L116,81.7L99.9,54
			L116,26.3z M149.2,26.3L165.4,54l-16.2,27.7L133.1,54L149.2,26.3z M182.4,26.3L198.6,54l-16.2,27.7L166.3,54L182.4,26.3z
			 M215.6,26.3L231.8,54l-16.2,27.7L199.4,54L215.6,26.3z M232.2,53.2L232.2,53.2L216,25.6l16.2-27.7l16.2,27.7L232.2,53.2
			L232.2,53.2z M232.2-59l16.2,27.7L232.2-3.6L216-31.3L232.2-59z M231.8-59.7L215.6-32l-16.2-27.7l16.2-27.7l8.1,13.9L231.8-59.7z
			 M232.2-172.7l16.2,27.7l-16.2,27.7L216.1-145L232.2-172.7z M-116.3-87.4l8.1,13.9l8.1,13.8L-116.3-32l-16.2-27.7l8.1-13.8
			L-116.3-87.4z M248.4-88.1l-16.2,27.7l0-0.1l0,0.1l-8.1-13.8L216-88.1l16.2-27.8l3.9,6.7L248.4-88.1z M-149.1-258.5l16.2-27.7
			l0,0.1l0-0.1l16.1,27.6l-16.2,27.7l0,0l0,0.1L-149.1-258.5z M-149.1-201.8l16.2-27.7l0,0.1l0,0l16.2,27.7l-16.2,27.7l0-0.1l0,0.1
			L-149.1-201.8z M-133-172.8l16.2,27.8l-16.2,27.7l-16.2-27.8L-133-172.8z M-149.1-88.1l16.2-27.8l8.1,13.9l8.1,13.9l-8.1,13.9
			l-8.1,13.8l0-0.1l0,0.1L-149.1-88.1z M-133-59.1l16.2,27.8l-16.2,27.7l-16.2-27.8L-133-59.1z M-149.1,25.6l16.2-27.8l16.2,27.7
			l-16.2,27.7l0,0l0,0.1L-149.1,25.6z"/>
	</g>
</g>
<rect x="0" y="0" class="st34" width="100" height="100"/>
<g>
	<g>
		<ellipse class="st34" cx="51.1" cy="50.8" rx="5.5" ry="5.5"/>
		<path class="st34" d="M53.6,49.9c0.5,1.4-0.2,3-1.6,3.5c-1.4,0.5-2.9-0.2-3.4-1.6s0.2-3,1.6-3.5C51.6,47.8,53.1,48.5,53.6,49.9z"
			/>
	</g>
	<path class="st68" d="M59.7,32.1c-2.3-6.4-3.4-9.2-3.9-10.5c0-0.1-0.1-0.1-0.2,0c-0.6,0.7-3.2,3.8-7,8.7C43,37.5,48.2,45,51.2,48.2
		l0.5,0C55.4,46.1,62.7,40.7,59.7,32.1z"/>
	<path class="st13" d="M39.5,33.9c-6.6-1.2-9.6-1.6-10.8-1.8c-0.1,0-0.2,0.1-0.1,0.2c0.3,0.9,1.6,4.7,3.9,10.5
		c3.3,8.5,12.3,7.6,16.5,6.7l0.3-0.4C49.2,44.6,48.3,35.5,39.5,33.9z"/>
	<path class="st68" d="M30.8,52.6c-4.3,5.2-6.2,7.6-7,8.6c-0.1,0.1,0,0.2,0.1,0.2c0.9,0.2,4.8,0.9,10.9,1.8c8.9,1.3,12.7-7,14-11.2
		l-0.2-0.5C44.9,49.4,36.7,45.6,30.8,52.6z"/>
	<path class="st13" d="M42.5,69.5c2.3,6.4,3.4,9.2,3.9,10.5c0,0.1,0.1,0.1,0.2,0c0.6-0.7,3.2-3.8,7-8.7c5.6-7.2,0.4-14.6-2.5-17.9
		l-0.5,0C46.8,55.5,39.4,60.9,42.5,69.5z"/>
	<path class="st68" d="M62.8,67.7c6.6,1.2,9.6,1.6,10.9,1.8c0.1,0,0.2-0.1,0.1-0.2c-0.3-0.9-1.7-4.7-3.9-10.5
		c-3.3-8.5-12.3-7.6-16.5-6.6L53,52.6C52.9,57,53.9,66.1,62.8,67.7z"/>
	<path class="st13" d="M71.4,49c4.3-5.2,6.2-7.6,7-8.6c0.1-0.1,0-0.2-0.1-0.2c-0.9-0.2-4.8-0.9-10.9-1.8c-8.9-1.3-12.7,7-14,11.2
		l0.2,0.5C57.3,52.3,65.5,56,71.4,49z"/>
</g>
</svg>
