<?xml version="1.0" encoding="utf-8"?>
<!-- Generator: Adobe Illustrator 22.1.0, SVG Export Plug-In . SVG Version: 6.00 Build 0)  -->
<svg version="1.1" id="Layer_1" xmlns="http://www.w3.org/2000/svg" xmlns:xlink="http://www.w3.org/1999/xlink" x="0px" y="0px"
	 viewBox="0 0 100 100" style="enable-background:new 0 0 100 100;" xml:space="preserve">
<style type="text/css">
	.st0{fill:#BE1E2D;}
	.st1{fill:#00B0BB;}
	.st2{fill:#63C4AF;}
	.st3{fill:#EAEAEA;}
	.st4{fill:#413E34;}
	.st5{fill:none;}
	.st6{clip-path:url(#SVGID_2_);}
	.st7{clip-path:url(#SVGID_4_);}
	.st8{fill:#1E0D12;}
	.st9{fill:#E62F34;}
	.st10{fill:#25793D;}
	.st11{clip-path:url(#SVGID_6_);}
	.st12{clip-path:url(#SVGID_8_);}
	.st13{fill:#FFFFFF;}
	.st14{clip-path:url(#SVGID_10_);}
	.st15{clip-path:url(#SVGID_12_);}
	.st16{fill:#96BF4D;}
	.st17{clip-path:url(#SVGID_14_);}
	.st18{fill-rule:evenodd;clip-rule:evenodd;fill:#FFFFFF;}
	.st19{fill:#C92927;}
	.st20{fill:#253748;}
	.st21{clip-path:url(#SVGID_16_);}
	.st22{fill:#97CB59;}
	.st23{fill:#DA2128;}
	.st24{fill:#00A14B;}
	.st25{fill:#96171A;}
	.st26{fill:#D1E39B;}
	.st27{fill:#4FBBBB;}
	.st28{fill:#37343F;}
	.st29{fill:#077A64;}
	.st30{fill:#F4EED4;}
	.st31{fill:#012E47;}
	.st32{fill:#BE1C42;}
	.st33{fill:#008E9F;}
	.st34{fill:#CD4134;}
	.st35{clip-path:url(#SVGID_18_);}
	.st36{clip-path:url(#SVGID_20_);}
	.st37{fill:#EE2424;}
	.st38{fill:#67BC45;}
	.st39{clip-path:url(#SVGID_22_);}
	.st40{clip-path:url(#SVGID_24_);}
	.st41{fill:#004A54;}
	.st42{fill:#D93128;}
	.st43{fill:#401B23;}
	.st44{fill:#EE2D40;}
	.st45{fill:#F1EBC9;}
	.st46{fill-rule:evenodd;clip-rule:evenodd;fill:#C92927;}
	.st47{fill-rule:evenodd;clip-rule:evenodd;fill:#96BF4D;}
	.st48{fill:#BD3026;}
	.st49{opacity:0.4;fill:#CD4134;}
	.st50{fill:#E6B448;}
	.st51{fill:#E21F26;}
	.st52{fill:#A82123;}
	.st53{fill:#383A3A;}
	.st54{fill:#F17B22;}
	.st55{fill:#F1F0DC;}
	.st56{fill:#56AE78;}
	.st57{fill:#EE262E;}
	.st58{fill:#C47229;}
	.st59{fill:#FEC010;}
	.st60{fill:#C0343E;}
	.st61{fill:url(#SVGID_25_);}
	.st62{fill:#659DAA;}
	.st63{fill:#C9A784;}
	.st64{fill:#DDCFB5;}
	.st65{fill:#D2A886;}
	.st66{fill:#9B3227;}
	.st67{opacity:0.39;fill:#FFFFFF;}
	.st68{fill:#E5E5E5;}
	.st69{fill:#202945;}
	.st70{fill:none;stroke:#ACA300;stroke-miterlimit:10;}
	.st71{fill:none;stroke:#ACA300;stroke-miterlimit:10;stroke-dasharray:2.0083,2.0083;}
	.st72{fill:#ACA300;}
</style>
<g>
	<defs>
		<rect id="SVGID_1_" x="700" y="-420" width="100" height="100"/>
	</defs>
	<clipPath id="SVGID_2_">
		<use xlink:href="#SVGID_1_"  style="overflow:visible;"/>
	</clipPath>
	<g class="st6">
		<g>
			<defs>
				
					<rect id="SVGID_3_" x="232.5" y="-426.7" transform="matrix(0.6711 -0.7413 0.7413 0.6711 398.0429 445.7057)" width="937.7" height="401.9"/>
			</defs>
			<clipPath id="SVGID_4_">
				<use xlink:href="#SVGID_3_"  style="overflow:visible;"/>
			</clipPath>
			<g class="st7">
				
					<rect x="-48.6" y="-379.5" transform="matrix(0.6711 -0.7413 0.7413 0.6711 136.439 173.6514)" class="st5" width="625.1" height="625.1"/>
				
					<rect x="-48.6" y="-379.5" transform="matrix(0.6711 -0.7413 0.7413 0.6711 136.439 173.6514)" class="st8" width="625.1" height="625.1"/>
				<polygon class="st9" points="48.3,46.5 48.7,54.4 56.6,54 				"/>
				<polygon class="st9" points="47.9,38.6 64.4,53.6 72.3,53.2 47.5,30.7 				"/>
				<polygon class="st9" points="47.1,22.9 80.2,52.8 88.1,52.4 46.7,15 				"/>
				<polygon class="st9" points="46.3,7.1 96,52 103.9,51.6 45.9,-0.8 				"/>
				<polygon class="st9" points="45.6,-8.7 111.8,51.2 119.6,50.9 45.2,-16.6 				"/>
				<polygon class="st9" points="44.8,-24.4 127.5,50.5 135.4,50.1 44.4,-32.3 				"/>
				<polygon class="st9" points="44,-40.2 143.3,49.7 151.2,49.3 43.6,-48.1 				"/>
				<polygon class="st9" points="156.3,-6.3 98.4,-58.7 90.5,-58.3 156.7,1.6 				"/>
				<polygon class="st9" points="74.7,-57.6 157.5,17.4 157.1,9.5 82.6,-57.9 				"/>
				<polygon class="st9" points="59,-56.8 158.3,33.1 157.9,25.2 66.8,-57.2 				"/>
				<polygon class="st9" points="43.2,-56 159.1,48.9 158.7,41 51.1,-56.4 43.2,-56 43.2,-56 43.2,-56 				"/>
				<polygon class="st10" points="157.1,9.5 156.7,1.6 90.5,-58.3 82.6,-57.9 				"/>
				<polygon class="st10" points="66.8,-57.2 157.9,25.2 157.5,17.4 74.7,-57.6 				"/>
				<polygon class="st10" points="59,-56.8 51.1,-56.4 158.7,41 158.3,33.1 				"/>
				<polygon class="st10" points="64.4,53.6 47.9,38.6 48.3,46.5 56.6,54 				"/>
				<polygon class="st10" points="47.5,30.7 72.3,53.2 80.2,52.8 47.1,22.9 				"/>
				<polygon class="st10" points="46.7,15 88.1,52.4 96,52 46.3,7.1 				"/>
				<polygon class="st10" points="45.9,-0.8 103.9,51.6 111.8,51.2 45.6,-8.7 				"/>
				<polygon class="st10" points="45.2,-16.6 119.6,50.9 127.5,50.5 44.8,-24.4 				"/>
				<polygon class="st10" points="44.4,-32.3 135.4,50.1 143.3,49.7 44,-40.2 				"/>
				<polygon class="st10" points="151.2,49.3 159.1,48.9 43.2,-56 43.6,-48.1 				"/>
				<polygon class="st10" points="162.6,119.9 162.2,112 96,52 88.1,52.4 				"/>
				<polygon class="st10" points="163.4,135.6 163,127.7 80.2,52.8 72.3,53.2 				"/>
				<polygon class="st10" points="164.2,151.4 163.8,143.5 64.4,53.6 56.6,54 				"/>
				<polygon class="st10" points="133,160.8 50.3,85.9 50.6,93.8 125.1,161.2 				"/>
				<polygon class="st10" points="148.8,160 49.5,70.2 49.9,78 140.9,160.4 				"/>
				<polygon class="st10" points="164.5,159.3 48.7,54.4 49.1,62.3 156.6,159.7 				"/>
				<polygon class="st9" points="48.3,46.5 48.3,46.5 48.5,50.3 48.7,54.4 48.7,54.4 				"/>
				<polygon class="st9" points="47.5,30.7 47.9,38.6 47.9,38.6 47.9,38.6 47.9,38.6 47.5,30.7 				"/>
				<polygon class="st9" points="46.7,15 46.7,15 47.1,22.9 47.1,22.9 47.1,22.9 47.1,22.9 				"/>
				<polygon class="st9" points="46.3,7.1 45.9,-0.8 45.9,-0.8 46.2,4.9 46.3,7.1 46.3,7.1 46.3,7.1 				"/>
				<polygon class="st10" points="47.9,38.6 48.3,46.5 48.3,46.5 48.3,46.5 48.3,46.5 47.9,38.6 				"/>
				<polygon class="st10" points="47.5,30.7 47.5,30.7 47.1,22.9 47.1,22.9 47.5,30.7 47.5,30.7 				"/>
				<polygon class="st10" points="46.3,7.1 46.7,15 46.7,15 46.7,15 46.7,15 46.3,7.1 				"/>
				<polygon class="st10" points="50.3,85.9 50.3,85.9 50.6,93.8 50.6,93.8 				"/>
				<polygon class="st10" points="49.5,70.2 49.5,70.2 49.9,78 49.9,78 				"/>
				<polygon class="st10" points="48.7,54.4 48.7,54.4 49.1,62.3 49.1,62.3 				"/>
				<polygon class="st9" points="1.4,56.7 9.3,56.3 -65.2,-11.1 -64.8,-3.2 				"/>
				<polygon class="st9" points="17.1,56 25,55.6 -66,-26.9 -65.6,-19 				"/>
				<polygon class="st9" points="32.9,55.2 40.8,54.8 -66.8,-42.6 -66.4,-34.7 				"/>
				<polygon class="st9" points="46.2,4.9 46.3,7.1 46.3,7.1 				"/>
				<polygon class="st9" points="45.9,-0.8 45.9,-0.8 -12,-53.2 -19.9,-52.9 46.3,7.1 				"/>
				<polygon class="st9" points="45.9,-0.8 46.3,7.1 46.3,7.1 				"/>
				<polygon class="st9" points="46.3,7.1 46.2,4.9 45.9,-0.8 45.9,-0.8 46.3,7.1 				"/>
				<polygon class="st9" points="46.7,15 46.7,15 47.1,22.9 47.1,22.9 				"/>
				<polygon class="st9" points="46.7,15 46.7,15 46.7,15 46.7,15 				"/>
				<polygon class="st9" points="46.7,15 46.7,15 -27.8,-52.5 -35.6,-52.1 47.1,22.8 				"/>
				<polygon class="st9" points="46.7,15 46.7,15 47.1,22.8 47.1,22.8 				"/>
				<polygon class="st9" points="46.7,15 47.1,22.8 47.1,22.9 46.7,15 				"/>
				<polygon class="st9" points="46.7,15 46.7,15 46.7,15 46.7,15 				"/>
				<polygon class="st9" points="46.7,15 46.7,15 46.7,15 46.7,15 				"/>
				<polygon class="st9" points="47.5,30.7 47.5,30.7 47.9,38.6 47.9,38.6 				"/>
				<polygon class="st9" points="47.5,30.7 47.5,30.7 47.5,30.7 47.5,30.7 				"/>
				<polygon class="st9" points="47.5,30.7 47.5,30.7 -43.5,-51.7 -51.4,-51.3 47.9,38.6 				"/>
				<polygon class="st9" points="47.5,30.7 47.5,30.7 47.9,38.6 47.9,38.6 				"/>
				<polygon class="st9" points="47.5,30.7 47.5,30.7 47.9,38.6 47.9,38.6 				"/>
				<polygon class="st9" points="47.5,30.7 47.5,30.7 47.5,30.7 47.5,30.7 				"/>
				<polygon class="st9" points="47.5,30.7 47.5,30.7 47.5,30.7 47.5,30.7 				"/>
				<polygon class="st9" points="48.3,46.5 48.5,50.3 48.3,46.5 				"/>
				<rect x="48.3" y="46.5" transform="matrix(0.6711 -0.7413 0.7413 0.6711 -18.5905 51.0961)" class="st9" width="0" height="0"/>
				<polygon class="st9" points="48.3,46.5 -59.3,-50.9 -67.2,-50.5 48.7,54.4 48.3,46.5 				"/>
				<polygon class="st9" points="48.3,46.5 48.3,46.5 48.7,54.4 48.7,54.4 				"/>
				<polygon class="st9" points="48.3,46.5 48.7,54.4 48.7,54.4 48.5,50.3 48.3,46.5 				"/>
				<polygon class="st9" points="48.3,46.5 48.3,46.5 48.3,46.5 48.3,46.5 				"/>
				<rect x="48.3" y="46.5" transform="matrix(0.6711 -0.7413 0.7413 0.6711 -18.5894 51.0928)" class="st9" width="0" height="0"/>
			</g>
		</g>
	</g>
</g>
<g>
	<defs>
		<rect id="SVGID_5_" x="-140" y="-280" width="100" height="100"/>
	</defs>
	<clipPath id="SVGID_6_">
		<use xlink:href="#SVGID_5_"  style="overflow:visible;"/>
	</clipPath>
	<g class="st11">
		<g>
			<defs>
				<rect id="SVGID_7_" x="-211.3" y="-978.9" width="595" height="1388.2"/>
			</defs>
			<clipPath id="SVGID_8_">
				<use xlink:href="#SVGID_7_"  style="overflow:visible;"/>
			</clipPath>
			<g class="st12">
				<rect x="-35.1" y="-281.6" class="st5" width="466" height="466"/>
				<rect x="-35.1" y="-281.6" class="st13" width="466" height="466"/>
				<g>
					<polygon class="st8" points="5.1,79.9 -3,79.9 5.1,71.9 13.1,63.9 21.1,63.9 13.1,71.9 					"/>
					<polygon class="st8" points="37.2,79.9 29.2,79.9 37.2,71.9 45.2,63.9 53.3,63.9 45.2,71.9 					"/>
					<polygon class="st8" points="-11,79.9 -19,79.9 -11,71.9 -3,63.9 5.1,63.9 -3,71.9 					"/>
					<polygon class="st8" points="21.1,79.9 13.1,79.9 21.1,71.9 29.2,63.9 37.2,63.9 29.2,71.9 					"/>
					<polygon class="st8" points="53.3,79.9 45.2,79.9 53.3,71.9 61.3,63.9 69.3,63.9 61.3,71.9 					"/>
					<polygon class="st8" points="101.5,79.9 93.4,79.9 101.5,71.9 109.5,63.9 117.5,63.9 109.5,71.9 					"/>
					<polygon class="st8" points="85.4,79.9 77.4,79.9 85.4,71.9 93.4,63.9 101.5,63.9 93.4,71.9 					"/>
					<polygon class="st8" points="69.3,79.9 61.3,79.9 69.3,71.9 77.4,63.9 85.4,63.9 77.4,71.9 					"/>
				</g>
				<g>
					<polygon class="st10" points="93.4,7.6 141.6,-40.6 149.7,-40.6 93.4,15.7 					"/>
					<polygon class="st10" points="93.4,23.7 157.7,-40.6 165.7,-40.6 93.4,31.7 					"/>
					<polygon class="st10" points="93.4,39.8 173.8,-40.6 181.8,-40.6 93.4,47.8 					"/>
					<polygon class="st10" points="93.4,55.8 189.8,-40.6 197.9,-40.6 93.4,63.9 					"/>
					<polygon class="st10" points="93.4,71.9 101.5,71.9 205.9,-32.5 205.9,-40.6 					"/>
				</g>
				<g>
					<polygon class="st10" points="93.4,79.9 93.4,71.9 101.5,71.9 					"/>
					<polygon class="st10" points="93.4,88 109.5,71.9 117.5,71.9 93.4,96 					"/>
					<polygon class="st10" points="93.4,104 125.6,71.9 133.6,71.9 93.4,112.1 					"/>
					<polygon class="st10" points="93.4,120.1 141.6,71.9 149.7,71.9 93.4,128.1 					"/>
					<polygon class="st10" points="93.4,136.2 157.7,71.9 165.7,71.9 93.4,144.2 					"/>
					<polygon class="st10" points="93.4,152.2 173.8,71.9 181.8,71.9 93.4,160.3 					"/>
					<polygon class="st10" points="93.4,168.3 189.8,71.9 197.9,71.9 93.4,176.3 					"/>
					<polygon class="st10" points="93.4,184.4 101.5,184.4 205.9,79.9 205.9,71.9 					"/>
				</g>
				<g>
					<polygon class="st9" points="-35.1,7.6 13.1,-40.6 21.1,-40.6 -35.1,15.7 					"/>
					<polygon class="st9" points="-35.1,23.7 29.2,-40.6 37.2,-40.6 -35.1,31.7 					"/>
					<polygon class="st9" points="-35.1,39.8 45.2,-40.6 53.3,-40.6 -35.1,47.8 					"/>
					<polygon class="st9" points="-35.1,55.8 61.3,-40.6 69.3,-40.6 -35.1,63.9 					"/>
					<polygon class="st9" points="61.3,71.9 69.3,71.9 77.4,63.9 77.4,55.8 					"/>
					<polygon class="st9" points="45.2,71.9 53.3,71.9 77.4,47.8 77.4,39.8 					"/>
					<polygon class="st9" points="29.2,71.9 37.2,71.9 77.4,31.7 77.4,23.7 					"/>
					<polygon class="st9" points="13.1,71.9 21.1,71.9 77.4,15.7 77.4,7.6 					"/>
					<polygon class="st9" points="-3,71.9 5.1,71.9 77.4,-0.4 77.4,-8.4 					"/>
					<polygon class="st9" points="-19,71.9 -11,71.9 77.4,-16.5 77.4,-24.5 					"/>
					<polygon class="st9" points="-35.1,71.9 -27.1,71.9 77.4,-32.5 77.4,-40.6 					"/>
				</g>
				<g>
					<polygon class="st9" points="-35.1,104 -3,71.9 5.1,71.9 -35.1,112.1 					"/>
					<polygon class="st9" points="-35.1,120.1 13.1,71.9 21.1,71.9 -35.1,128.1 					"/>
					<polygon class="st9" points="-35.1,136.2 29.2,71.9 37.2,71.9 -35.1,144.2 					"/>
					<polygon class="st9" points="-35.1,152.2 45.2,71.9 53.3,71.9 -35.1,160.3 					"/>
					<polygon class="st9" points="-35.1,168.3 61.3,71.9 69.3,71.9 -35.1,176.3 					"/>
					<polygon class="st9" points="-19,184.4 -11,184.4 77.4,96 77.4,88 					"/>
					<polygon class="st9" points="-35.1,184.4 -27.1,184.4 77.4,79.9 77.4,71.9 					"/>
				</g>
			</g>
		</g>
	</g>
</g>
<g>
	<defs>
		<rect id="SVGID_9_" x="0" y="-280" width="100" height="100"/>
	</defs>
	<clipPath id="SVGID_10_">
		<use xlink:href="#SVGID_9_"  style="overflow:visible;"/>
	</clipPath>
	<g class="st14">
		<g>
			<defs>
				
					<rect id="SVGID_11_" x="-326" y="-377.1" transform="matrix(0.6991 -0.715 0.715 0.6991 169.6429 -60.1084)" width="678.8" height="290.9"/>
			</defs>
			<clipPath id="SVGID_12_">
				<use xlink:href="#SVGID_11_"  style="overflow:visible;"/>
			</clipPath>
			<g class="st15">
				
					<rect x="-200" y="-152.8" transform="matrix(0.6991 -0.715 0.715 0.6991 0.9193 -70.8727)" class="st5" width="232.6" height="232.6"/>
				
					<rect x="-200" y="-152.8" transform="matrix(0.6991 -0.715 0.715 0.6991 0.9193 -70.8727)" class="st10" width="232.6" height="232.6"/>
				<polygon class="st8" points="10.5,-10.2 6.6,-10.1 -1.1,-2.2 -1.1,1.7 				"/>
				<polygon class="st8" points="18.3,-10.3 14.4,-10.2 -1.1,5.6 -1,9.5 				"/>
				<polygon class="st8" points="26.2,-10.4 22.3,-10.3 -1,13.4 -0.9,17.4 				"/>
				<polygon class="st8" points="34,-10.4 30.1,-10.4 -0.9,21.3 -0.8,25.2 				"/>
				<polygon class="st8" points="41.8,-10.5 37.9,-10.5 -0.8,29.1 -0.8,31.1 -0.7,33 				"/>
				<polygon class="st8" points="49.7,-10.6 45.8,-10.6 -0.7,36.9 -0.7,40.9 				"/>
			</g>
		</g>
	</g>
</g>
<g>
	<defs>
		<rect id="SVGID_15_" x="-140" y="-140" width="100" height="100"/>
	</defs>
	<clipPath id="SVGID_14_">
		<use xlink:href="#SVGID_15_"  style="overflow:visible;"/>
	</clipPath>
	<g class="st17">
		<polygon class="st24" points="26.1,26.1 9.4,54.6 -7.2,26.1 9.4,-2.4 		"/>
		<polygon class="st25" points="59.3,26.1 42.7,54.6 26.1,26.1 42.7,-2.4 		"/>
		<polygon class="st24" points="92.6,26.1 75.9,54.6 59.3,26.1 75.9,-2.4 		"/>
		<polygon class="st23" points="109.2,54.6 92.6,26.1 109.2,-2.4 		"/>
		<polygon class="st23" points="26.1,83 -7.2,83 9.4,54.5 		"/>
		<polygon class="st24" points="59.3,83 26.1,83 42.7,54.5 		"/>
		<polygon class="st23" points="92.6,83 59.3,83 75.9,54.5 		"/>
		<polygon class="st24" points="109.2,83 92.6,83 109.2,54.5 		"/>
		<polygon class="st22" points="9.4,-2.5 -7.2,26 -23.8,-2.5 -7.2,-31 		"/>
		<polygon class="st22" points="42.7,-2.5 26.1,26 9.4,-2.5 26.1,-31 		"/>
		<polygon class="st22" points="75.9,-2.5 59.3,26 42.7,-2.5 59.3,-31 		"/>
		<polygon class="st22" points="109.2,-2.5 92.6,26 75.9,-2.5 92.6,-31 		"/>
		<polygon class="st22" points="9.4,54.6 -7.2,83.1 -23.8,54.6 -7.2,26 		"/>
		<polygon class="st22" points="42.7,54.6 26.1,83.1 9.4,54.6 26.1,26 		"/>
		<polygon class="st22" points="75.9,54.6 59.3,83.1 42.7,54.6 59.3,26 		"/>
		<polygon class="st22" points="109.2,54.6 92.6,83.1 75.9,54.6 92.6,26 		"/>
		<path class="st26" d="M109.2-201.8l-16.6-28.3l16.5-28.2l0.1-0.2l-0.1-0.2l0,0l-16.4-28.1l16.4-28.1L109-315l0.1-0.2l-0.6-0.3
			l-16.3,27.9L75.6-316L59-287.6L42.4-316l-16.6,28.4L9.2-316l-16.6,28.4L-24-316l-16.6,28.4L-57.2-316l-16.6,28.4L-90.4-316
			l-16.6,28.4l-16.6-28.4l-16.6,28.4l-16.6-28.4l-16.6,28.4l-16.6-28.4l-16.6,28.4l-16.6-28.4l-16.6,28.4l-16.6-28.4l-16.7,28.5
			l-16.2-27.8l-0.6,0.3l16.5,28.2l-16.6,28.3l16.6,28.3l-16.6,28.3l16.6,28.3l-16.6,28.3l16.7,28.5l-16.7,28.5l16.6,28.3l-16.6,28.3
			l16.6,28.5l0,0.1l0,0l-16.6,28.4l16.6,28.3l-16.5,28.2l0.6,0.3l16.3-27.9l0,0.1l0,0l16.6,28.4l16.6-28.4l0,0l0,0l16.6,28.4
			l16.6-28.4l0,0l0,0l16.6,28.4l16.6-28.4l0,0l0,0l16.6,28.4l16.6-28.4l0,0l0,0l16.6,28.4l16.6-28.4l0,0l0,0l16.6,28.4l16.6-28.4
			l0,0l0,0l16.6,28.4l16.6-28.4l0,0l0,0L-24,83.1l16.6-28.4l0,0l0,0L9.2,83.1l16.6-28.4l0,0l0,0l16.6,28.4L59,54.7l0,0l0,0
			l16.6,28.4l16.6-28.4l0,0l0,0l16.3,27.9l0.6-0.3l0-0.1l0,0L92.6,54l16.5-28.2l0.1-0.2l-0.1-0.2l0,0L92.6-2.8l16.5-28.2l-0.1,0
			l0.1-0.1l0.1-0.2L92.6-59.7l16.5-28.2l0.1-0.2l-0.1-0.2l0,0l-16.5-28.2l16.5-28.2l-0.1,0l0.1-0.1l0.1-0.2l-16.5-28.3l16.4-28.2
			l0,0l0,0L109.2-201.8z M92.2-174.2L92.2-174.2L76-201.8l16.2-27.7l0,0l0,0l16.2,27.7L92.2-174.2L92.2-174.2z M59,53.2L59,53.2
			L42.8,25.6L59-2.1l16.2,27.7L59,53.2L59,53.2z M25.8,53.2L25.8,53.2L9.6,25.6L25.8-2.1L42,25.6L25.8,53.2L25.8,53.2z M-7.4,53.2
			L-7.4,53.2l-16.2-27.6L-7.4-2.1L8.8,25.6L-7.4,53.2L-7.4,53.2z M-40.6,53.2L-40.6,53.2l-16.2-27.6l16.2-27.7l16.2,27.7L-40.6,53.2
			L-40.6,53.2z M-73.8,53.2L-73.8,53.2L-90,25.6l16.2-27.7l16.2,27.7L-73.8,53.2L-73.8,53.2z M-107,53.2L-107,53.2l-16.2-27.6
			L-107-2.1l16.2,27.7L-107,53.2L-107,53.2z M-140.1,53.2L-140.1,53.2l-16.2-27.6l16.2-27.7l16.2,27.7L-140.1,53.2L-140.1,53.2z
			 M-173.3,53.2L-173.3,53.2l-16.2-27.6l16.2-27.7l16.2,27.7L-173.3,53.2L-173.3,53.2z M-206.5,53.2L-206.5,53.2l-16.2-27.6
			l16.2-27.7l16.2,27.7L-206.5,53.2L-206.5,53.2z M-239.7,53.2L-239.7,53.2l-16.2-27.6l16.2-27.7l16.2,27.7L-239.7,53.2L-239.7,53.2
			z M-239.7-286.1L-239.7-286.1l16.2,27.6l-16.2,27.7l0,0l0,0l-16.2-27.7L-239.7-286.1L-239.7-286.1z M-206.5-286.1L-206.5-286.1
			l16.2,27.6l-16.2,27.7l0,0l0,0l-16.2-27.7L-206.5-286.1L-206.5-286.1z M-173.3-286.1L-173.3-286.1l16.2,27.6l-16.2,27.7l0,0l0,0
			l-16.2-27.7L-173.3-286.1L-173.3-286.1z M-140.1-286.1L-140.1-286.1l16.2,27.6l-16.2,27.7l0,0l0,0l-16.2-27.7L-140.1-286.1
			L-140.1-286.1z M-107-286.1L-107-286.1l16.2,27.6l-16.2,27.7l0,0l0,0l-16.2-27.7L-107-286.1L-107-286.1z M-73.8-286.1L-73.8-286.1
			l16.2,27.6l-16.2,27.7l0,0l0,0l-16.2-27.7L-73.8-286.1L-73.8-286.1z M-40.6-286.1L-40.6-286.1l16.2,27.6l-16.2,27.7l0,0l0,0
			l-16.2-27.7L-40.6-286.1L-40.6-286.1z M-7.4-286.1L-7.4-286.1l16.2,27.6l-16.2,27.7l0,0l0,0l-16.2-27.7L-7.4-286.1L-7.4-286.1z
			 M25.8-286.1L25.8-286.1L42-258.5l-16.2,27.7l0,0l0,0L9.6-258.5L25.8-286.1L25.8-286.1z M59-286.1L59-286.1l16.2,27.6L59-230.8
			l0,0l0,0l-16.2-27.7L59-286.1L59-286.1z M75.2-88.1L59.1-60.4l0-0.1l0,0.1l-8.1-13.8l-8.1-13.9L59-115.8l8.1,13.9L75.2-88.1z
			 M59-174.2L59-174.2l-16.2-27.6L59-229.4l0,0l0,0l16.2,27.7L59-174.2L59-174.2z M-206.5-229.4L-206.5-229.4l16.2,27.6l-16.2,27.7
			l0-0.1l0,0.1l-16.2-27.7L-206.5-229.4L-206.5-229.4z M-173.3-229.4L-173.3-229.4l16.2,27.6l-16.2,27.7l0-0.1l0,0.1l-16.2-27.7
			L-173.3-229.4L-173.3-229.4z M-140.1-229.4L-140.1-229.4l16.2,27.6l-16.2,27.7l0-0.1l0,0.1l-16.2-27.7L-140.1-229.4L-140.1-229.4z
			 M-107-229.4L-107-229.4l16.2,27.6l-16.2,27.7l0-0.1l0,0.1l-16.2-27.7L-107-229.4L-107-229.4z M-73.8-229.4L-73.8-229.4l16.2,27.6
			l-16.2,27.7l0-0.1l0,0.1L-90-201.8L-73.8-229.4L-73.8-229.4z M-40.6-229.4L-40.6-229.4l16.2,27.6l-16.2,27.7l0-0.1l0,0.1
			l-16.2-27.7L-40.6-229.4L-40.6-229.4z M-7.4-229.4L-7.4-229.4l16.2,27.6l-16.2,27.7l0-0.1l0,0.1l-16.2-27.7L-7.4-229.4L-7.4-229.4
			z M25.8-229.4L25.8-229.4L42-201.8l-16.2,27.7l0-0.1l0,0.1L9.6-201.8L25.8-229.4L25.8-229.4z M42-88.1L25.9-60.4l0-0.1l0,0.1
			l-8.1-13.8L9.6-88.1l16.2-27.8l8.1,13.9L42-88.1z M25.4-59.7L9.2-32L-6.9-59.7L9.2-87.4l8.1,13.9L25.4-59.7z M-106.9-60.4
			L-106.9-60.4L-106.9-60.4l-8.1-13.8l-8.1-13.9l8.1-13.9l8.1-13.9l8.1,13.9l8.1,13.9l-8.1,13.9L-106.9-60.4z M-81.9-74.2L-90-88.1
			l16.2-27.8l8.1,13.9l8.1,13.9l-16.2,27.7l0-0.1l0,0.1L-81.9-74.2z M-24-88.7l-16.2-27.8l16.2-27.8l16.2,27.8l-5.8,9.8L-24-88.7z
			 M-57.2-88.7l-16.2-27.8l16.2-27.8l16.2,27.8l-5.8,9.8L-57.2-88.7z M-123.6-144.2l16.2,27.8l-16.2,27.8l-16.2-27.8L-123.6-144.2z
			 M-106.6-116.5l16.2-27.8l16.2,27.8l-11.3,19.3l-5,8.5l-11.9-20.4L-106.6-116.5z M8.8-145l-16.2,27.7L-23.5-145l16.2-27.7L8.8-145
			z M-24.4-145l-16.2,27.7L-56.7-145l16.2-27.7L-24.4-145z M-57.6-145l-16.2,27.7L-89.9-145l16.2-27.7L-57.6-145z M-90.8-145
			l-16.2,27.7l-16.2-27.7l16.2-27.7L-90.8-145z M-124-145l-16.2,27.7l-16.2-27.7l16.2-27.7L-124-145z M-173.3-172.7l16.2,27.7
			l-16.2,27.7l-16.2-27.7L-173.3-172.7z M-56.8-88.1l16.2-27.8l8.1,13.9l8.1,13.9l-16.2,27.7l0-0.1l0,0.1l-8.1-13.8L-56.8-88.1z
			 M-23.6-88.1l16.2-27.8L0.7-102l8.1,13.9L-7.3-60.4l0-0.1l0,0.1l-8.1-13.8L-23.6-88.1z M9.2-88.7L-7-116.5l16.2-27.8l16.2,27.8
			l-5.8,9.8L9.2-88.7z M25.8-172.7L42-145l-16.2,27.7L9.7-145L25.8-172.7z M25.4-173.4L9.2-145.8l-16.2-27.7l16.2-27.7L25.4-173.4z
			 M-7.8-173.4L-24-145.8l-16.2-27.7l16.2-27.7L-7.8-173.4z M-41-173.4l-16.2,27.7l-16.2-27.7l16.2-27.7L-41-173.4z M-74.2-173.4
			l-16.2,27.7l-16.2-27.7l16.2-27.7L-74.2-173.4z M-107.4-173.4l-16.2,27.7l-16.2-27.7l16.2-27.7L-107.4-173.4z M-140.6-173.4
			l-16.2,27.7l-16.2-27.7l16.2-27.7L-140.6-173.4z M-173.8-173.4l-16.2,27.7l-16.2-27.7l16.2-27.7L-173.8-173.4z M-156.7-144.2
			l16.2,27.8l-16.2,27.8l-16.2-27.8L-156.7-144.2z M-156.4-88.1l8.1-13.9l8.1-13.9l8.1,13.9l8.1,13.9l-8.1,13.9l-8.1,13.8l0-0.1
			l0,0.1l-8.1-13.8L-156.4-88.1z M-139.7-59.7l8.1-13.8l8.1-13.9l8.1,13.9l8.1,13.8L-123.6-32L-139.7-59.7z M-106.5-59.7l8.1-13.8
			l8.1-13.8l16.2,27.7L-90.4-32L-106.5-59.7z M-73.3-59.7l16.2-27.7l8.1,13.9l8.1,13.8L-57.2-32L-73.3-59.7z M-40.1-59.7L-24-87.4
			l8.1,13.9l8.1,13.8L-24-32L-40.1-59.7z M-207-173.4l-16.2,27.7l-16.2-27.7l16.2-27.7L-207-173.4z M-206.5-172.7l16.2,27.7
			l-16.2,27.7l-16.2-27.7L-206.5-172.7z M-156.7-87.4l8.1,13.9l8.1,13.8L-156.7-32l-16.2-27.7l8.1-13.8L-156.7-87.4z M-173.3-59
			l16.2,27.7l-16.2,27.7l-16.2-27.7L-173.3-59z M-140.1-59l16.2,27.7l-16.2,27.7l-16.2-27.7L-140.1-59z M-107-59l16.2,27.7L-107-3.6
			l-16.2-27.7L-107-59z M-73.8-59l16.2,27.7L-73.8-3.6l-16.2-27.7L-73.8-59z M-40.6-59l16.2,27.7L-40.6-3.6l-16.2-27.7L-40.6-59z
			 M-7.4-59L8.8-31.3L-7.4-3.6l-16.2-27.7L-7.4-59z M25.8-59L42-31.3L25.8-3.6L9.7-31.3L25.8-59z M42.4-145.8l-16.2-27.7l16.2-27.7
			l16.2,27.7L42.4-145.8z M-189.9-144.2l16.2,27.8l-16.2,27.8l-16.2-27.8L-189.9-144.2z M-189.6-88.1l8.1-13.9l8.1-13.9l8.1,13.9
			l8.1,13.9l-8.1,13.9l-8.1,13.8l0-0.1l0,0.1l-8.1-13.8L-189.6-88.1z M-190.4-31.3l-16.2,27.7l-16.2-27.7l16.2-27.7L-190.4-31.3z
			 M42.4-88.7l-16.2-27.8l16.2-27.8l16.2,27.8l-5.8,9.8L42.4-88.7z M42.4-202.4l-16.2-27.7l16.2-27.7l16.2,27.7L42.4-202.4z
			 M9.2-202.4l-16.2-27.7l16.2-27.7l16.2,27.7L9.2-202.4z M-24-202.4l-16.2-27.7l16.2-27.7l16.2,27.7L-24-202.4z M-57.2-202.4
			l-16.2-27.7l16.2-27.7l16.2,27.7L-57.2-202.4z M-90.4-202.4l-16.2-27.7l16.2-27.7l16.2,27.7L-90.4-202.4z M-107.4-230.1
			l-16.2,27.7l-16.2-27.7l16.2-27.7L-107.4-230.1z M-140.6-230.1l-16.2,27.7l-16.2-27.7l16.2-27.7L-140.6-230.1z M-173.8-230.1
			l-16.2,27.7l-16.2-27.7l16.2-27.7L-173.8-230.1z M-207-230.1l-16.2,27.7l-16.2-27.7l16.2-27.7L-207-230.1z M-189.9-87.4l8.1,13.9
			l8.1,13.8L-189.9-32l-16.2-27.7l8.1-13.8L-189.9-87.4z M-206.9-2.8l-16.2,27.8l-16.2-27.8l16.2-27.8L-206.9-2.8z M-206.2-2.8
			l16.2-27.8l16.2,27.8l-16.2,27.8L-206.2-2.8z M-173-2.8l16.2-27.8l16.2,27.8l-16.2,27.8L-173-2.8z M-139.8-2.8l16.2-27.8
			l16.2,27.8l-16.2,27.8L-139.8-2.8z M-106.6-2.8l16.2-27.8l16.2,27.8l-16.2,27.8L-106.6-2.8z M-73.4-2.8l16.2-27.8l16.2,27.8
			l-16.2,27.8L-73.4-2.8z M-40.2-2.8L-24-30.6L-7.8-2.8L-24,24.9L-40.2-2.8z M-7-2.8L9.2-30.6L25.4-2.8L9.2,24.9L-7-2.8z M26.2-2.8
			l16.2-27.8L58.6-2.8L42.4,24.9L26.2-2.8z M59-3.6L42.9-31.3L59-59l16.2,27.7L59-3.6z M58.6-59.7L42.4-32L26.3-59.7l16.2-27.7
			l8.1,13.9L58.6-59.7z M59-117.3L42.9-145L59-172.7L75.2-145L59-117.3z M59.4-230.1l16.2-27.7l16.2,27.7l-16.2,27.7L59.4-230.1z
			 M-239.7-229.4L-239.7-229.4l16.2,27.6l-16.2,27.7l0-0.1l0,0.1l-16.2-27.7L-239.7-229.4L-239.7-229.4z M-223.6-145l-16.2,27.7
			l-16.2-27.7l16.2-27.7L-223.6-145z M-223.1-144.2l16.2,27.8l-16.2,27.8l-16.2-27.8L-223.1-144.2z M-222.8-88.1l8.1-13.9l8.1-13.9
			l8.1,13.9l8.1,13.9l-8.1,13.9l-8.1,13.8l0-0.1l0,0.1l-8.1-13.8L-222.8-88.1z M-240.2-230.1l-16.2,27.7l-16.2-27.7l16.2-27.7
			L-240.2-230.1z M-240.2-173.4l-16.2,27.7l-16.2-27.7l16.2-27.7L-240.2-173.4z M-223.1-87.4l8.1,13.9l8.1,13.8L-223.1-32
			l-16.2-27.7l8.1-13.8L-223.1-87.4z M-239.7-59l16.2,27.7l-16.2,27.7l-16.2-27.7L-239.7-59z M59.4-2.8l16.2-27.8L91.8-2.8
			L75.6,24.9L59.4-2.8z M75.6-88.7l-16.2-27.8l16.2-27.8l16.2,27.8l-5.8,9.8L75.6-88.7z M75.6-145.8l-16.2-27.7l16.2-27.7l16.2,27.7
			L75.6-145.8z M92.2-230.9L92.2-230.9L76-258.5l16.1-27.6l0,0.1l0-0.1l16.1,27.6L92.2-230.9L92.2-230.9z M75.6-259.2l-16.1-27.6
			l16.1-27.6l16.1,27.6L75.6-259.2z M42.4-259.2l-16.1-27.6l16.1-27.6l16.1,27.6L42.4-259.2z M9.2-259.2l-16.1-27.6l16.1-27.6
			l16.1,27.6L9.2-259.2z M-24-259.2l-16.1-27.6l16.1-27.6l16.1,27.6L-24-259.2z M-57.2-259.2l-16.1-27.6l16.1-27.6l16.1,27.6
			L-57.2-259.2z M-90.4-259.2l-16.1-27.6l16.1-27.6l16.1,27.6L-90.4-259.2z M-123.6-259.2l-16.1-27.6l16.1-27.6l16.1,27.6
			L-123.6-259.2z M-156.7-259.2l-16.1-27.6l16.1-27.6l16.1,27.6L-156.7-259.2z M-189.9-259.2l-16.1-27.6l16.1-27.6l16.1,27.6
			L-189.9-259.2z M-223.1-259.2l-16.1-27.6l16.1-27.6l16.1,27.6L-223.1-259.2z M-256.3-259.2l-16.1-27.6l16.1-27.6l16.1,27.6
			L-256.3-259.2z M-256.3-144.2l16.2,27.8l-16.2,27.8l-16.2-27.8L-256.3-144.2z M-255.9-88.1l8.1-13.9l8.1-13.9l8.1,13.9l8.1,13.9
			l-8.1,13.9l-8.1,13.8l0-0.1l0,0.1l-8.1-13.8L-255.9-88.1z M-240.1-2.8l-16.2,27.8l-16.2-27.8l16.2-27.8L-240.1-2.8z M-240.2,54
			l-16.2,27.7L-272.5,54l16.2-27.7L-240.2,54z M-223.1,26.3L-207,54l-16.2,27.7L-239.3,54L-223.1,26.3z M-189.9,26.3l16.2,27.7
			l-16.2,27.7L-206.1,54L-189.9,26.3z M-156.7,26.3l16.2,27.7l-16.2,27.7L-172.9,54L-156.7,26.3z M-123.6,26.3l16.2,27.7l-16.2,27.7
			L-139.7,54L-123.6,26.3z M-90.4,26.3L-74.2,54l-16.2,27.7L-106.5,54L-90.4,26.3z M-57.2,26.3L-41,54l-16.2,27.7L-73.3,54
			L-57.2,26.3z M-24,26.3L-7.8,54L-24,81.7L-40.1,54L-24,26.3z M9.2,26.3L25.4,54L9.2,81.7L-6.9,54L9.2,26.3z M42.4,26.3L58.6,54
			L42.4,81.7L26.3,54L42.4,26.3z M75.6,26.3L91.8,54L75.6,81.7L59.4,54L75.6,26.3z M92.2,53.2L92.2,53.2L76,25.6L92.2-2.1l16.2,27.7
			L92.2,53.2L92.2,53.2z M92.2-59l16.2,27.7L92.2-3.6L76-31.3L92.2-59z M91.8-59.7L75.6-32L59.4-59.7l16.2-27.7l8.1,13.9L91.8-59.7z
			 M92.2-172.7l16.2,27.7l-16.2,27.7L76.1-145L92.2-172.7z M-256.3-87.4l8.1,13.9l8.1,13.8L-256.3-32l-16.2-27.7l8.1-13.8
			L-256.3-87.4z M108.4-88.1L92.3-60.4l0-0.1l0,0.1l-8.1-13.8L76-88.1l16.2-27.8l3.9,6.7L108.4-88.1z M-289.1-258.5l16.2-27.7l0,0.1
			l0-0.1l16.1,27.6l-16.2,27.7l0,0l0,0.1L-289.1-258.5z M-289.1-201.8l16.2-27.7l0,0.1l0,0l16.2,27.7l-16.2,27.7l0-0.1l0,0.1
			L-289.1-201.8z M-273-172.8l16.2,27.8l-16.2,27.7l-16.2-27.8L-273-172.8z M-289.1-88.1l16.2-27.8l8.1,13.9l8.1,13.9l-8.1,13.9
			l-8.1,13.8l0-0.1l0,0.1L-289.1-88.1z M-273-59.1l16.2,27.8l-16.2,27.7l-16.2-27.8L-273-59.1z M-289.1,25.6l16.2-27.8l16.2,27.7
			l-16.2,27.7l0,0l0,0.1L-289.1,25.6z"/>
	</g>
</g>
<rect x="0" y="0" class="st33" width="100" height="100"/>
<g>
	<defs>
		<rect id="SVGID_17_" x="140" y="0" width="100" height="100"/>
	</defs>
	<clipPath id="SVGID_16_">
		<use xlink:href="#SVGID_17_"  style="overflow:visible;"/>
	</clipPath>
	<g class="st21">
		<g>
			<defs>
				<rect id="SVGID_19_" x="108.1" y="-203.9" width="172.2" height="516.6"/>
			</defs>
			<clipPath id="SVGID_18_">
				<use xlink:href="#SVGID_19_"  style="overflow:visible;"/>
			</clipPath>
			<g class="st35">
				<rect x="51.8" y="-31.4" class="st5" width="57.5" height="57.5"/>
				<polygon class="st37" points="85.6,-31.4 51.8,2.4 51.8,5.8 89,-31.4 				"/>
				<polygon class="st37" points="92.4,-31.4 51.8,9.2 51.8,26.1 51.8,26.1 109.3,-31.4 				"/>
				<polygon class="st38" points="58.5,-31.4 51.8,-24.7 51.8,2.4 85.6,-31.4 				"/>
				<polygon class="st13" points="89,-31.4 51.8,5.8 51.8,9.2 92.4,-31.4 				"/>
				<polygon class="st37" points="109.3,-28 55.2,26.1 58.5,26.1 109.3,-24.7 				"/>
				<polygon class="st37" points="109.3,2.4 85.6,26.1 89,26.1 109.3,5.8 				"/>
				<polygon class="st37" points="92.4,26.1 109.3,26.1 109.3,9.2 				"/>
				<polygon class="st38" points="109.3,-24.7 58.5,26.1 85.6,26.1 109.3,2.4 				"/>
				<polygon class="st13" points="109.3,-31.4 51.8,26.1 55.2,26.1 109.3,-28 				"/>
				<polygon class="st13" points="109.3,5.8 89,26.1 92.4,26.1 109.3,9.2 				"/>
			</g>
			<g class="st35">
				<rect x="51.8" y="26.1" class="st5" width="57.5" height="57.5"/>
				<polygon class="st37" points="55.2,26.1 51.8,29.5 51.8,32.9 58.5,26.1 				"/>
				<polygon class="st37" points="85.6,26.1 51.8,59.9 51.8,63.3 89,26.1 				"/>
				<polygon class="st37" points="92.4,26.1 51.8,66.7 51.8,83.6 51.8,83.6 109.3,26.1 				"/>
				<polygon class="st38" points="58.5,26.1 51.8,32.9 51.8,59.9 85.6,26.1 				"/>
				<polygon class="st13" points="55.2,26.1 51.8,26.1 51.8,26.1 51.8,29.5 				"/>
				<polygon class="st13" points="89,26.1 51.8,63.3 51.8,66.7 92.4,26.1 				"/>
				<polygon class="st37" points="109.3,29.5 55.2,83.6 58.5,83.6 109.3,32.9 				"/>
				<polygon class="st37" points="109.3,59.9 85.6,83.6 89,83.6 109.3,63.3 				"/>
				<polygon class="st37" points="92.4,83.6 109.3,83.6 109.3,66.7 				"/>
				<polygon class="st38" points="109.3,32.9 58.5,83.6 85.6,83.6 109.3,59.9 				"/>
				<polygon class="st13" points="109.3,26.1 51.8,83.6 55.2,83.6 109.3,29.5 				"/>
				<polygon class="st13" points="109.3,63.3 89,83.6 92.4,83.6 109.3,66.7 				"/>
			</g>
			<g class="st35">
				<rect x="51.8" y="83.6" class="st5" width="57.5" height="57.5"/>
				<polygon class="st37" points="55.2,83.6 51.8,87 51.8,90.4 58.5,83.6 				"/>
				<polygon class="st37" points="85.6,83.6 51.8,117.4 51.8,120.8 89,83.6 				"/>
				<polygon class="st37" points="92.4,83.6 51.8,124.2 51.8,141.1 51.8,141.1 109.3,83.6 				"/>
				<polygon class="st38" points="58.5,83.6 51.8,90.4 51.8,117.4 85.6,83.6 				"/>
				<polygon class="st13" points="55.2,83.6 51.8,83.6 51.8,83.6 51.8,87 				"/>
				<polygon class="st13" points="89,83.6 51.8,120.8 51.8,124.2 92.4,83.6 				"/>
				<polygon class="st37" points="109.3,87 55.2,141.1 58.5,141.1 109.3,90.4 				"/>
				<polygon class="st38" points="109.3,90.4 58.5,141.1 85.6,141.1 109.3,117.4 				"/>
				<polygon class="st13" points="109.3,83.6 51.8,141.1 55.2,141.1 109.3,87 				"/>
			</g>
		</g>
	</g>
</g>
<g>
	<g>
		<g>
			<g>
				<path class="st62" d="M63.8,72l1.9,0c1.5-6,3-11.9,4.5-17.9l-2.6,0C66.3,60,65.1,66,63.8,72z"/>
				<path class="st34" d="M69.4,54.1c-1.4,6-2.9,11.9-4.3,17.9l1.8,0c1.7-6,3.4-11.9,5.1-17.9L69.4,54.1z"/>
				<path class="st34" d="M64.9,72.5L64.9,72.5c0,0,0.1,0,0.1,0C65,72.5,65,72.5,64.9,72.5z"/>
			</g>
			<g>
				<path class="st62" d="M60.6,72l1.9,0c1.1-6,2.2-11.9,3.3-17.9l-2.6,0C62.4,60,61.5,66,60.6,72z"/>
				<path class="st34" d="M61.9,72l1.9,0c1.3-6,2.5-11.9,3.8-17.9l-2.6,0C64,60,62.9,66,61.9,72z"/>
			</g>
			<g>
				<path class="st62" d="M59.1,73.2c0,0-0.1,0-0.1,0C59,73.2,59,73.2,59.1,73.2L59.1,73.2z"/>
				<path class="st62" d="M57.3,71.9l2,0C60,66,60.8,60,61.5,54L59,54C58.4,60,57.8,66,57.3,71.9z"/>
				<path class="st34" d="M58.6,71.9l2,0c0.9-6,1.8-11.9,2.7-17.9l-2.6,0C60,60,59.3,66,58.6,71.9z"/>
			</g>
			<g>
				<path class="st62" d="M53.9,71.9l2,0c0.4-6,0.9-11.9,1.3-17.9l-2.6,0C54.4,60,54.2,65.9,53.9,71.9z"/>
				<path class="st34" d="M55.3,71.9l2,0C57.8,66,58.4,60,59,54l-2.6,0C56,60,55.7,66,55.3,71.9z"/>
			</g>
			<g>
				<path class="st62" d="M50.4,54l0.1,17.9l2,0c0.1-6,0.3-11.9,0.4-17.9L50.4,54z"/>
				<path class="st34" d="M51.9,71.9l2,0c0.3-6,0.5-11.9,0.8-17.9l-2.5,0C52.1,60,52,65.9,51.9,71.9z"/>
			</g>
			<g>
				<path class="st62" d="M46.2,54c0.3,6,0.7,12,1,17.9l2,0c-0.2-6-0.3-11.9-0.5-17.9L46.2,54z"/>
				<path class="st34" d="M47.9,54c0.2,6,0.4,12,0.6,17.9l2,0L50.4,54L47.9,54z"/>
			</g>
			<g>
				<path class="st62" d="M41.9,53.9c0.6,6,1.3,12,1.9,17.9l2,0c-0.5-6-0.9-12-1.4-17.9L41.9,53.9z"/>
				<path class="st34" d="M43.6,53.9c0.5,6,1,12,1.5,17.9l2,0c-0.3-6-0.7-12-1-17.9L43.6,53.9z"/>
			</g>
			<g>
				<path class="st62" d="M37.6,53.9c1,6,1.9,12,2.9,17.9l2,0c-0.8-6-1.5-12-2.3-17.9L37.6,53.9z"/>
				<path class="st34" d="M39.3,53.9c0.8,6,1.7,12,2.5,17.9l2,0c-0.6-6-1.3-12-1.9-17.9L39.3,53.9z"/>
			</g>
			<g>
				<path class="st62" d="M33.3,53.9c1.3,6,2.7,12,4,17.9l1.9,0c-1.1-6-2.2-12-3.3-17.9L33.3,53.9z"/>
				<path class="st34" d="M35,53.9c1.2,6,2.4,12,3.6,17.9l1.9,0c-1-6-1.9-12-2.9-17.9L35,53.9z"/>
			</g>
			<g>
				<path class="st62" d="M28.9,53.8c1.8,6,3.5,12,5.3,18l1.8,0c-1.5-6-3-12-4.5-17.9L28.9,53.8z"/>
				<path class="st34" d="M30.6,53.9c1.6,6,3.2,12,4.8,17.9l1.9,0c-1.3-6-2.7-12-4-17.9L30.6,53.9z"/>
			</g>
		</g>
		<g>
			<path class="st63" d="M39.2,31.3c3.4-1.1,7.4-1.5,11.1-1.5c3.7,0,7.7,0.4,11.1,1.6c3.6,1.2,9,2.6,8,8.7c-0.2,0.9-1,2.4-1.6,2.9
				c-0.1,0.1-0.2,0.2-0.3,0.2l-17.1-0.1L33.3,43c-0.1-0.1-0.2-0.1-0.3-0.2c-0.6-0.5-1.4-2-1.6-2.9C30.2,33.8,35.6,32.5,39.2,31.3z"
				/>
			<path class="st64" d="M50.1,29.6c0,0,14.2-0.4,18.4,5.3c4.2,5.7-1.9,4.8-3,3.5c-1.1-1.3-4.6-3.1-7.4-2c-2.8,1-5.5,3.7-8.1,2.3
				c-2.7-1.5-5.5-5.5-9.2-3.5c-1.6,0.9-3,2.1-4.7,2.8c-1.3,0.6-4.5,1.2-5.2-0.4c-0.2-0.6,0.1-1.4,0.4-2c1-2,3.2-3.2,5.4-4
				C41,30.1,45.7,29.7,50.1,29.6z"/>
		</g>
		<path class="st65" d="M36.4,42.6c4.6,0,9.3,0,13.9,0.1c4.6,0,9.3,0,13.9,0.1c4.9,0,11.5,0.7,10.1,7.8c-0.2,1-1.2,2.8-2,3.4
			c-0.1,0.1-0.3,0.2-0.4,0.3l-21.5-0.1l-0.1,0L28.8,54c-0.1-0.1-0.3-0.1-0.4-0.3c-0.8-0.6-1.8-2.4-2-3.4
			C25,43.2,31.5,42.6,36.4,42.6z"/>
		<path class="st64" d="M73,50.6c0.8,0.1,1.6-0.5,1.8-1.3c0.5-2.2,0.7-6.5-10.6-6.8c0,0-28.7-2.5-35.8,1.4c-0.1,0.1-0.2,0.1-0.3,0.2
			c-0.7,0.6-3.4,3.3-1.6,6.3c2,3.4,4.4-1.8,5.9-2.7c1.9-1.1,4.5-1.9,7.5,0.7c3,2.7,6.2-3.7,11.7-0.6c3.5,1.9,4.2,4.3,9.7,1.4
			C68,45.7,66.4,50.1,73,50.6z"/>
	</g>
	<g>
		<g>
			<path class="st66" d="M51.3,29c-0.6,1.4-2.2,2-3.5,1.4c-1.4-0.6-2-2.2-1.4-3.6c0.6-1.4,2.2-2,3.5-1.4
				C51.3,26.1,51.9,27.7,51.3,29z"/>
			<path class="st67" d="M48.5,27.8c-0.2,0.4-0.6,0.6-1,0.4c-0.4-0.2-0.6-0.6-0.4-1c0.2-0.4,0.6-0.6,1-0.4
				C48.5,27,48.7,27.4,48.5,27.8z"/>
		</g>
		<g>
			<path class="st34" d="M51.3,34.3c1.2-0.3,2-1.5,1.7-2.8c-0.3-1.3-1.5-2.1-2.8-1.8s-2,1.5-1.7,2.8C48.8,33.8,50.1,34.6,51.3,34.3z
				"/>
			<path class="st67" d="M50.3,32.3c0.4-0.1,0.6-0.4,0.5-0.8c-0.1-0.4-0.4-0.6-0.8-0.5c-0.4,0.1-0.6,0.4-0.5,0.8
				C49.6,32.2,50,32.4,50.3,32.3z"/>
		</g>
		<g>
			<path class="st34" d="M55.6,29.4c-0.6,1.4-2.2,1.9-3.6,1.3c-1.3-0.6-1.9-2.3-1.3-3.6c0.6-1.4,2.2-1.9,3.6-1.3
				C55.6,26.4,56.2,28.1,55.6,29.4z"/>
			<path class="st67" d="M52.9,27.6c-0.2,0.4-0.6,0.6-1,0.4s-0.6-0.7-0.4-1c0.2-0.4,0.6-0.6,1-0.4C53,26.7,53.1,27.2,52.9,27.6z"/>
		</g>
	</g>
</g>
</svg>
