<?xml version="1.0" encoding="utf-8"?>
<!-- Generator: Adobe Illustrator 22.1.0, SVG Export Plug-In . SVG Version: 6.00 Build 0)  -->
<svg version="1.1" id="Layer_1" xmlns="http://www.w3.org/2000/svg" xmlns:xlink="http://www.w3.org/1999/xlink" x="0px" y="0px"
	 viewBox="0 0 100 100" style="enable-background:new 0 0 100 100;" xml:space="preserve">
<style type="text/css">
	.st0{fill:#BE1E2D;}
	.st1{fill:#00B0BB;}
	.st2{fill:#63C4AF;}
	.st3{fill:#EAEAEA;}
	.st4{fill:#413E34;}
	.st5{fill:none;}
	.st6{clip-path:url(#SVGID_2_);}
	.st7{clip-path:url(#SVGID_4_);}
	.st8{fill:#1E0D12;}
	.st9{fill:#E62F34;}
	.st10{fill:#25793D;}
	.st11{clip-path:url(#SVGID_6_);}
	.st12{clip-path:url(#SVGID_8_);}
	.st13{fill:#FFFFFF;}
	.st14{clip-path:url(#SVGID_10_);}
	.st15{clip-path:url(#SVGID_12_);}
	.st16{fill:#96BF4D;}
	.st17{clip-path:url(#SVGID_14_);}
	.st18{fill-rule:evenodd;clip-rule:evenodd;fill:#FFFFFF;}
	.st19{fill:#C92927;}
	.st20{fill:#253748;}
	.st21{clip-path:url(#SVGID_16_);}
	.st22{fill:#97CB59;}
	.st23{fill:#DA2128;}
	.st24{fill:#00A14B;}
	.st25{fill:#96171A;}
	.st26{fill:#D1E39B;}
	.st27{fill:#4FBBBB;}
	.st28{fill:#37343F;}
	.st29{fill:#077A64;}
	.st30{fill:#F4EED4;}
	.st31{fill:#012E47;}
	.st32{fill:#BE1C42;}
	.st33{fill:#008E9F;}
	.st34{fill:#CD4134;}
	.st35{clip-path:url(#SVGID_18_);}
	.st36{clip-path:url(#SVGID_20_);}
	.st37{fill:#EE2424;}
	.st38{fill:#67BC45;}
	.st39{clip-path:url(#SVGID_22_);}
	.st40{clip-path:url(#SVGID_24_);}
	.st41{fill:#004A54;}
	.st42{fill:#D93128;}
	.st43{fill:#401B23;}
	.st44{fill:#EE2D40;}
	.st45{fill:#F1EBC9;}
	.st46{fill-rule:evenodd;clip-rule:evenodd;fill:#C92927;}
	.st47{fill-rule:evenodd;clip-rule:evenodd;fill:#96BF4D;}
	.st48{fill:#BD3026;}
	.st49{opacity:0.4;fill:#CD4134;}
	.st50{fill:#E6B448;}
	.st51{fill:#E21F26;}
	.st52{fill:#A82123;}
	.st53{fill:#383A3A;}
	.st54{fill:#F17B22;}
	.st55{fill:#F1F0DC;}
	.st56{fill:#56AE78;}
	.st57{fill:#EE262E;}
	.st58{fill:#C47229;}
	.st59{fill:#FEC010;}
	.st60{fill:#C0343E;}
	.st61{fill:url(#SVGID_25_);}
	.st62{fill:#659DAA;}
	.st63{fill:#C9A784;}
	.st64{fill:#DDCFB5;}
	.st65{fill:#D2A886;}
	.st66{fill:#9B3227;}
	.st67{opacity:0.39;fill:#FFFFFF;}
	.st68{fill:#E5E5E5;}
	.st69{fill:#202945;}
	.st70{fill:none;stroke:#ACA300;stroke-miterlimit:10;}
	.st71{fill:none;stroke:#ACA300;stroke-miterlimit:10;stroke-dasharray:2.0083,2.0083;}
	.st72{fill:#ACA300;}
</style>
<g>
	<defs>
		<rect id="SVGID_1_" x="560" y="-420" width="100" height="100"/>
	</defs>
	<clipPath id="SVGID_2_">
		<use xlink:href="#SVGID_1_"  style="overflow:visible;"/>
	</clipPath>
	<g class="st6">
		<g>
			<defs>
				
					<rect id="SVGID_3_" x="92.5" y="-426.7" transform="matrix(0.6711 -0.7413 0.7413 0.6711 352.0031 341.92)" width="937.7" height="401.9"/>
			</defs>
			<clipPath id="SVGID_4_">
				<use xlink:href="#SVGID_3_"  style="overflow:visible;"/>
			</clipPath>
			<g class="st7">
				
					<rect x="-188.6" y="-379.5" transform="matrix(0.6711 -0.7413 0.7413 0.6711 90.3992 69.8657)" class="st5" width="625.1" height="625.1"/>
				
					<rect x="-188.6" y="-379.5" transform="matrix(0.6711 -0.7413 0.7413 0.6711 90.3992 69.8657)" class="st8" width="625.1" height="625.1"/>
				<polygon class="st9" points="18.7,41 19.1,48.9 26.9,48.5 				"/>
				<polygon class="st9" points="34.8,48.1 42.7,47.7 17.9,25.2 18.3,33.1 				"/>
				<polygon class="st9" points="50.6,47.3 58.5,46.9 17.1,9.5 17.5,17.4 				"/>
				<polygon class="st9" points="66.4,46.5 74.2,46.2 16.3,-6.3 16.7,1.6 				"/>
				<polygon class="st9" points="82.1,45.8 90,45.4 15.5,-22.1 15.9,-14.2 				"/>
				<polygon class="st9" points="97.9,45 105.8,44.6 14.7,-37.8 15.1,-29.9 				"/>
				<polygon class="st9" points="113.7,44.2 121.5,43.8 14,-53.6 14.4,-45.7 				"/>
				<polygon class="st9" points="127.5,4 53,-63.4 45.1,-63 127.9,11.9 				"/>
				<polygon class="st9" points="128.3,19.8 37.2,-62.7 29.3,-62.3 128.7,27.6 				"/>
				<polygon class="st9" points="129.4,43.4 129,35.5 21.5,-61.9 13.6,-61.5 				"/>
				<polygon class="st9" points="-96,-40.2 3.3,49.7 11.2,49.3 -96.4,-48.1 				"/>
				<polygon class="st9" points="16.3,-6.3 -41.6,-58.7 -49.5,-58.3 16.7,1.6 				"/>
				<polygon class="st9" points="-65.3,-57.6 17.5,17.4 17.1,9.5 -57.4,-57.9 				"/>
				<polygon class="st9" points="-81,-56.8 18.3,33.1 17.9,25.2 -73.2,-57.2 				"/>
				<polygon class="st9" points="-96.8,-56 19.1,48.9 18.7,41 -88.9,-56.4 -96.8,-56 -96.8,-56 -96.8,-56 				"/>
				<polygon class="st10" points="17.1,9.5 16.7,1.6 -49.5,-58.3 -57.4,-57.9 				"/>
				<polygon class="st10" points="-73.2,-57.2 17.9,25.2 17.5,17.4 -65.3,-57.6 				"/>
				<polygon class="st10" points="-81,-56.8 -88.9,-56.4 18.7,41 18.3,33.1 				"/>
				<polygon class="st10" points="-95.6,-32.3 -4.6,50.1 3.3,49.7 -96,-40.2 				"/>
				<polygon class="st10" points="11.2,49.3 19.1,48.9 -96.8,-56 -96.4,-48.1 				"/>
				<polygon class="st10" points="19.4,56.8 19.1,48.9 11.2,49.3 				"/>
				<polygon class="st10" points="20.2,72.6 19.8,64.7 3.3,49.7 -4.6,50.1 				"/>
				<polygon class="st10" points="21,88.3 20.6,80.4 -12.5,50.5 -20.4,50.9 				"/>
				<polygon class="st10" points="21.8,104.1 21.4,96.2 -28.2,51.2 -36.1,51.6 				"/>
				<polygon class="st10" points="22.6,119.9 22.2,112 -44,52 -51.9,52.4 				"/>
				<polygon class="st10" points="23.4,135.6 23,127.7 -59.8,52.8 -67.7,53.2 				"/>
				<polygon class="st10" points="24.2,151.4 23.8,143.5 -75.6,53.6 -83.4,54 				"/>
				<polygon class="st10" points="8.8,160 -90.5,70.2 -90.1,78 0.9,160.4 				"/>
				<polygon class="st10" points="24.5,159.3 -91.3,54.4 -90.9,62.3 16.6,159.7 				"/>
			</g>
		</g>
	</g>
</g>
<g>
	<defs>
		<rect id="SVGID_5_" x="-280" y="-280" width="100" height="100"/>
	</defs>
	<clipPath id="SVGID_6_">
		<use xlink:href="#SVGID_5_"  style="overflow:visible;"/>
	</clipPath>
	<g class="st11">
		<g>
			<defs>
				<rect id="SVGID_7_" x="-351.3" y="-978.9" width="595" height="1388.2"/>
			</defs>
			<clipPath id="SVGID_8_">
				<use xlink:href="#SVGID_7_"  style="overflow:visible;"/>
			</clipPath>
			<g class="st12">
				<rect x="-175.1" y="-281.6" class="st5" width="466" height="466"/>
				<rect x="-175.1" y="-281.6" class="st13" width="466" height="466"/>
				<g>
					<polygon class="st8" points="-6.4,79.9 -14.4,79.9 -6.4,71.9 1.6,63.9 9.7,63.9 1.6,71.9 					"/>
					<polygon class="st8" points="9.7,79.9 1.6,79.9 9.7,71.9 17.7,63.9 25.7,63.9 17.7,71.9 					"/>
					<polygon class="st8" points="57.9,79.9 49.8,79.9 57.9,71.9 65.9,63.9 73.9,63.9 65.9,71.9 					"/>
					<polygon class="st8" points="90,79.9 82,79.9 90,71.9 98,63.9 106.1,63.9 98,71.9 					"/>
					<polygon class="st8" points="41.8,79.9 33.8,79.9 41.8,71.9 49.8,63.9 57.9,63.9 49.8,71.9 					"/>
					<polygon class="st8" points="25.7,79.9 17.7,79.9 25.7,71.9 33.8,63.9 41.8,63.9 33.8,71.9 					"/>
					<polygon class="st8" points="73.9,79.9 65.9,79.9 73.9,71.9 82,63.9 90,63.9 82,71.9 					"/>
					<polygon class="st8" points="106.1,79.9 98,79.9 106.1,71.9 114.1,63.9 122.1,63.9 114.1,71.9 					"/>
				</g>
				<g>
					<polygon class="st10" points="-46.6,7.6 1.6,-40.6 9.7,-40.6 -46.6,15.7 					"/>
					<polygon class="st10" points="-46.6,23.7 17.7,-40.6 25.7,-40.6 -46.6,31.7 					"/>
					<polygon class="st10" points="-46.6,39.8 33.8,-40.6 41.8,-40.6 -46.6,47.8 					"/>
					<polygon class="st10" points="-46.6,55.8 49.8,-40.6 57.9,-40.6 -46.6,63.9 					"/>
					<polygon class="st10" points="49.8,71.9 57.9,71.9 65.9,63.9 65.9,55.8 					"/>
					<polygon class="st10" points="33.8,71.9 41.8,71.9 65.9,47.8 65.9,39.8 					"/>
					<polygon class="st10" points="17.7,71.9 25.7,71.9 65.9,31.7 65.9,23.7 					"/>
					<polygon class="st10" points="1.6,71.9 9.7,71.9 65.9,15.7 65.9,7.6 					"/>
					<polygon class="st10" points="-14.4,71.9 -6.4,71.9 65.9,-0.4 65.9,-8.4 					"/>
					<polygon class="st10" points="-30.5,71.9 -22.5,71.9 65.9,-16.5 65.9,-24.5 					"/>
					<polygon class="st10" points="-46.6,71.9 -38.5,71.9 65.9,-32.5 65.9,-40.6 					"/>
				</g>
				<g>
					<polygon class="st10" points="-46.6,120.1 1.6,71.9 9.7,71.9 -46.6,128.1 					"/>
					<polygon class="st10" points="-46.6,136.2 17.7,71.9 25.7,71.9 -46.6,144.2 					"/>
					<polygon class="st10" points="-46.6,152.2 33.8,71.9 41.8,71.9 -46.6,160.3 					"/>
					<polygon class="st10" points="-46.6,168.3 49.8,71.9 57.9,71.9 -46.6,176.3 					"/>
					<polygon class="st10" points="-30.5,184.4 -22.5,184.4 65.9,96 65.9,88 					"/>
					<polygon class="st10" points="-46.6,184.4 -38.5,184.4 65.9,79.9 65.9,71.9 					"/>
				</g>
			</g>
		</g>
	</g>
</g>
<g>
	<defs>
		<rect id="SVGID_9_" x="-140" y="-280" width="100" height="100"/>
	</defs>
	<clipPath id="SVGID_10_">
		<use xlink:href="#SVGID_9_"  style="overflow:visible;"/>
	</clipPath>
	<g class="st14">
		<g>
			<defs>
				
					<rect id="SVGID_11_" x="-466" y="-377.1" transform="matrix(0.6991 -0.715 0.715 0.6991 127.5221 -160.2066)" width="678.8" height="290.9"/>
			</defs>
			<clipPath id="SVGID_12_">
				<use xlink:href="#SVGID_11_"  style="overflow:visible;"/>
			</clipPath>
		</g>
	</g>
</g>
<g>
	<defs>
		<rect id="SVGID_17_" x="0" y="0" width="100" height="100"/>
	</defs>
	<clipPath id="SVGID_14_">
		<use xlink:href="#SVGID_17_"  style="overflow:visible;"/>
	</clipPath>
	<g class="st17">
		<g>
			<defs>
				<rect id="SVGID_19_" x="-31.9" y="-203.9" width="172.2" height="516.6"/>
			</defs>
			<clipPath id="SVGID_16_">
				<use xlink:href="#SVGID_19_"  style="overflow:visible;"/>
			</clipPath>
			<g class="st21">
				<rect x="84.3" y="-31.4" class="st5" width="57.5" height="57.5"/>
				<polygon class="st37" points="118.1,-31.4 84.3,2.4 84.3,5.8 121.5,-31.4 				"/>
				<polygon class="st37" points="124.9,-31.4 84.3,9.2 84.3,26.1 84.3,26.1 141.8,-31.4 				"/>
				<polygon class="st38" points="91,-31.4 84.3,-24.7 84.3,2.4 118.1,-31.4 				"/>
				<polygon class="st13" points="121.5,-31.4 84.3,5.8 84.3,9.2 124.9,-31.4 				"/>
				<polygon class="st37" points="141.8,-28 87.7,26.1 91,26.1 141.8,-24.7 				"/>
				<polygon class="st38" points="141.8,-24.7 91,26.1 118.1,26.1 141.8,2.4 				"/>
				<polygon class="st13" points="141.8,-31.4 84.3,26.1 87.7,26.1 141.8,-28 				"/>
			</g>
			<g class="st21">
				<rect x="84.3" y="26.1" class="st5" width="57.5" height="57.5"/>
				<polygon class="st37" points="87.7,26.1 84.3,29.5 84.3,32.9 91,26.1 				"/>
				<polygon class="st37" points="118.1,26.1 84.3,59.9 84.3,63.3 121.5,26.1 				"/>
				<polygon class="st37" points="124.9,26.1 84.3,66.7 84.3,83.6 84.3,83.6 141.8,26.1 				"/>
				<polygon class="st38" points="91,26.1 84.3,32.9 84.3,59.9 118.1,26.1 				"/>
				<polygon class="st13" points="87.7,26.1 84.3,26.1 84.3,26.1 84.3,29.5 				"/>
				<polygon class="st13" points="121.5,26.1 84.3,63.3 84.3,66.7 124.9,26.1 				"/>
				<polygon class="st37" points="141.8,29.5 87.7,83.6 91,83.6 141.8,32.9 				"/>
				<polygon class="st38" points="141.8,32.9 91,83.6 118.1,83.6 141.8,59.9 				"/>
				<polygon class="st13" points="141.8,26.1 84.3,83.6 87.7,83.6 141.8,29.5 				"/>
			</g>
			<g class="st21">
				<rect x="84.3" y="83.6" class="st5" width="57.5" height="57.5"/>
				<polygon class="st37" points="87.7,83.6 84.3,87 84.3,90.4 91,83.6 				"/>
				<polygon class="st37" points="118.1,83.6 84.3,117.4 84.3,120.8 121.5,83.6 				"/>
				<polygon class="st37" points="124.9,83.6 84.3,124.2 84.3,141.1 84.3,141.1 141.8,83.6 				"/>
				<polygon class="st38" points="91,83.6 84.3,90.4 84.3,117.4 118.1,83.6 				"/>
				<polygon class="st13" points="87.7,83.6 84.3,83.6 84.3,83.6 84.3,87 				"/>
				<polygon class="st13" points="121.5,83.6 84.3,120.8 84.3,124.2 124.9,83.6 				"/>
				<polygon class="st37" points="141.8,87 87.7,141.1 91,141.1 141.8,90.4 				"/>
				<polygon class="st38" points="141.8,90.4 91,141.1 118.1,141.1 141.8,117.4 				"/>
				<polygon class="st13" points="141.8,83.6 84.3,141.1 87.7,141.1 141.8,87 				"/>
			</g>
			<g class="st21">
				<rect x="26.8" y="-31.4" class="st5" width="57.5" height="57.5"/>
				<polygon class="st37" points="60.6,-31.4 26.8,2.4 26.8,5.8 64,-31.4 				"/>
				<polygon class="st37" points="67.4,-31.4 26.8,9.2 26.8,26.1 26.8,26.1 84.3,-31.4 				"/>
				<polygon class="st38" points="33.5,-31.4 26.8,-24.7 26.8,2.4 60.6,-31.4 				"/>
				<polygon class="st13" points="64,-31.4 26.8,5.8 26.8,9.2 67.4,-31.4 				"/>
				<polygon class="st37" points="84.3,-28 30.2,26.1 33.5,26.1 84.3,-24.7 				"/>
				<polygon class="st37" points="84.3,2.4 60.6,26.1 64,26.1 84.3,5.8 				"/>
				<polygon class="st37" points="67.4,26.1 84.3,26.1 84.3,9.2 				"/>
				<polygon class="st38" points="84.3,-24.7 33.5,26.1 60.6,26.1 84.3,2.4 				"/>
				<polygon class="st13" points="84.3,-31.4 26.8,26.1 30.2,26.1 84.3,-28 				"/>
				<polygon class="st13" points="84.3,5.8 64,26.1 67.4,26.1 84.3,9.2 				"/>
			</g>
			<g class="st21">
				<rect x="26.8" y="26.1" class="st5" width="57.5" height="57.5"/>
				<polygon class="st37" points="30.2,26.1 26.8,29.5 26.8,32.9 33.5,26.1 				"/>
				<polygon class="st37" points="60.6,26.1 26.8,59.9 26.8,63.3 64,26.1 				"/>
				<polygon class="st37" points="67.4,26.1 26.8,66.7 26.8,83.6 26.8,83.6 84.3,26.1 				"/>
				<polygon class="st38" points="33.5,26.1 26.8,32.9 26.8,59.9 60.6,26.1 				"/>
				<polygon class="st13" points="30.2,26.1 26.8,26.1 26.8,26.1 26.8,29.5 				"/>
				<polygon class="st13" points="64,26.1 26.8,63.3 26.8,66.7 67.4,26.1 				"/>
				<polygon class="st37" points="84.3,29.5 30.2,83.6 33.5,83.6 84.3,32.9 				"/>
				<polygon class="st37" points="84.3,59.9 60.6,83.6 64,83.6 84.3,63.3 				"/>
				<polygon class="st37" points="67.4,83.6 84.3,83.6 84.3,66.7 				"/>
				<polygon class="st38" points="84.3,32.9 33.5,83.6 60.6,83.6 84.3,59.9 				"/>
				<polygon class="st13" points="84.3,26.1 26.8,83.6 30.2,83.6 84.3,29.5 				"/>
				<polygon class="st13" points="84.3,63.3 64,83.6 67.4,83.6 84.3,66.7 				"/>
			</g>
			<g class="st21">
				<rect x="26.8" y="83.6" class="st5" width="57.5" height="57.5"/>
				<polygon class="st37" points="30.2,83.6 26.8,87 26.8,90.4 33.5,83.6 				"/>
				<polygon class="st37" points="60.6,83.6 26.8,117.4 26.8,120.8 64,83.6 				"/>
				<polygon class="st37" points="67.4,83.6 26.8,124.2 26.8,141.1 26.8,141.1 84.3,83.6 				"/>
				<polygon class="st38" points="33.5,83.6 26.8,90.4 26.8,117.4 60.6,83.6 				"/>
				<polygon class="st13" points="30.2,83.6 26.8,83.6 26.8,83.6 26.8,87 				"/>
				<polygon class="st13" points="64,83.6 26.8,120.8 26.8,124.2 67.4,83.6 				"/>
				<polygon class="st37" points="84.3,87 30.2,141.1 33.5,141.1 84.3,90.4 				"/>
				<polygon class="st38" points="84.3,90.4 33.5,141.1 60.6,141.1 84.3,117.4 				"/>
				<polygon class="st13" points="84.3,83.6 26.8,141.1 30.2,141.1 84.3,87 				"/>
			</g>
			<g class="st21">
				<rect x="-30.7" y="-31.4" class="st5" width="57.5" height="57.5"/>
				<polygon class="st37" points="3.1,-31.4 -30.7,2.4 -30.7,5.8 6.5,-31.4 				"/>
				<polygon class="st37" points="9.9,-31.4 -30.7,9.2 -30.7,26.1 -30.7,26.1 26.8,-31.4 				"/>
				<polygon class="st38" points="-24,-31.4 -30.7,-24.7 -30.7,2.4 3.1,-31.4 				"/>
				<polygon class="st13" points="6.5,-31.4 -30.7,5.8 -30.7,9.2 9.9,-31.4 				"/>
				<polygon class="st37" points="26.8,-28 -27.3,26.1 -24,26.1 26.8,-24.7 				"/>
				<polygon class="st37" points="26.8,2.4 3.1,26.1 6.5,26.1 26.8,5.8 				"/>
				<polygon class="st37" points="9.9,26.1 26.8,26.1 26.8,9.2 				"/>
				<polygon class="st38" points="26.8,-24.7 -24,26.1 3.1,26.1 26.8,2.4 				"/>
				<polygon class="st13" points="26.8,-31.4 -30.7,26.1 -27.3,26.1 26.8,-28 				"/>
				<polygon class="st13" points="26.8,5.8 6.5,26.1 9.9,26.1 26.8,9.2 				"/>
			</g>
			<g class="st21">
				<rect x="-30.7" y="26.1" class="st5" width="57.5" height="57.5"/>
				<polygon class="st37" points="3.1,26.1 -30.7,59.9 -30.7,63.3 6.5,26.1 				"/>
				<polygon class="st37" points="9.9,26.1 -30.7,66.7 -30.7,83.6 -30.7,83.6 26.8,26.1 				"/>
				<polygon class="st38" points="-24,26.1 -30.7,32.9 -30.7,59.9 3.1,26.1 				"/>
				<polygon class="st13" points="6.5,26.1 -30.7,63.3 -30.7,66.7 9.9,26.1 				"/>
				<polygon class="st37" points="26.8,29.5 -27.3,83.6 -24,83.6 26.8,32.9 				"/>
				<polygon class="st37" points="26.8,59.9 3.1,83.6 6.5,83.6 26.8,63.3 				"/>
				<polygon class="st37" points="9.9,83.6 26.8,83.6 26.8,66.7 				"/>
				<polygon class="st38" points="26.8,32.9 -24,83.6 3.1,83.6 26.8,59.9 				"/>
				<polygon class="st13" points="26.8,26.1 -30.7,83.6 -27.3,83.6 26.8,29.5 				"/>
				<polygon class="st13" points="26.8,63.3 6.5,83.6 9.9,83.6 26.8,66.7 				"/>
			</g>
			<g class="st21">
				<rect x="-30.7" y="83.6" class="st5" width="57.5" height="57.5"/>
				<polygon class="st37" points="3.1,83.6 -30.7,117.4 -30.7,120.8 6.5,83.6 				"/>
				<polygon class="st37" points="9.9,83.6 -30.7,124.2 -30.7,141.1 -30.7,141.1 26.8,83.6 				"/>
				<polygon class="st38" points="-24,83.6 -30.7,90.4 -30.7,117.4 3.1,83.6 				"/>
				<polygon class="st13" points="6.5,83.6 -30.7,120.8 -30.7,124.2 9.9,83.6 				"/>
				<polygon class="st37" points="26.8,87 -27.3,141.1 -24,141.1 26.8,90.4 				"/>
				<polygon class="st38" points="26.8,90.4 -24,141.1 3.1,141.1 26.8,117.4 				"/>
				<polygon class="st13" points="26.8,83.6 -30.7,141.1 -27.3,141.1 26.8,87 				"/>
			</g>
		</g>
	</g>
</g>
<g>
	<defs>
		<rect id="SVGID_21_" x="140" y="0" width="100" height="100"/>
	</defs>
	<clipPath id="SVGID_18_">
		<use xlink:href="#SVGID_21_"  style="overflow:visible;"/>
	</clipPath>
	<g class="st35">
		<g>
			<defs>
				<rect id="SVGID_23_" x="100.8" y="-201.7" width="154.9" height="464.7"/>
			</defs>
			<clipPath id="SVGID_20_">
				<use xlink:href="#SVGID_23_"  style="overflow:visible;"/>
			</clipPath>
			<g class="st36">
				<rect x="80" y="-28.3" class="st5" width="57.8" height="57.8"/>
				<polygon class="st13" points="110.4,-28.3 80,2.1 80,29.5 137.8,-28.3 				"/>
				<polygon class="st38" points="107.4,-28.3 80,-0.9 80,2.1 110.4,-28.3 				"/>
				<polygon class="st37" points="137.8,-28.3 137.8,-28.3 80,29.5 80,29.5 104.4,29.5 137.8,-3.9 				"/>
			</g>
			<g class="st36">
				<rect x="80" y="29.5" class="st5" width="57.8" height="57.8"/>
				<polygon class="st13" points="104.4,29.5 80,53.9 80,56.9 107.4,29.5 				"/>
				<polygon class="st13" points="110.4,29.5 80,59.9 80,87.3 137.8,29.5 				"/>
				<polygon class="st37" points="80,29.5 80,53.9 104.4,29.5 				"/>
				<polygon class="st38" points="107.4,29.5 80,56.9 80,59.9 110.4,29.5 				"/>
				<polygon class="st37" points="137.8,29.5 137.8,29.5 80,87.3 80,87.3 104.4,87.3 137.8,53.9 				"/>
			</g>
			<g class="st36">
				<rect x="80" y="87.3" class="st5" width="57.8" height="57.8"/>
				<polygon class="st13" points="104.4,87.3 80,111.7 80,114.7 107.4,87.3 				"/>
				<polygon class="st13" points="110.4,87.3 80,117.8 80,145.1 137.8,87.3 				"/>
				<polygon class="st37" points="80,87.3 80,111.7 104.4,87.3 				"/>
				<polygon class="st38" points="107.4,87.3 80,114.7 80,117.8 110.4,87.3 				"/>
				<polygon class="st37" points="137.8,87.3 137.8,87.3 80,145.1 80,145.1 104.4,145.1 137.8,111.7 				"/>
			</g>
		</g>
	</g>
</g>
</svg>
