<?xml version="1.0" encoding="utf-8"?>
<!-- Generator: Adobe Illustrator 22.1.0, SVG Export Plug-In . SVG Version: 6.00 Build 0)  -->
<svg version="1.1" id="Layer_1" xmlns="http://www.w3.org/2000/svg" xmlns:xlink="http://www.w3.org/1999/xlink" x="0px" y="0px"
	 viewBox="0 0 100 100" style="enable-background:new 0 0 100 100;" xml:space="preserve">
<style type="text/css">
	.st0{fill:#BE1E2D;}
	.st1{fill:#00B0BB;}
	.st2{fill:#63C4AF;}
	.st3{fill:#EAEAEA;}
	.st4{fill:#413E34;}
	.st5{fill:none;}
	.st6{clip-path:url(#SVGID_2_);}
	.st7{clip-path:url(#SVGID_4_);}
	.st8{fill:#1E0D12;}
	.st9{fill:#E62F34;}
	.st10{fill:#25793D;}
	.st11{clip-path:url(#SVGID_6_);}
	.st12{clip-path:url(#SVGID_8_);}
	.st13{fill:#FFFFFF;}
	.st14{clip-path:url(#SVGID_10_);}
	.st15{clip-path:url(#SVGID_12_);}
	.st16{fill:#96BF4D;}
	.st17{clip-path:url(#SVGID_14_);}
	.st18{fill-rule:evenodd;clip-rule:evenodd;fill:#FFFFFF;}
	.st19{fill:#C92927;}
	.st20{fill:#253748;}
	.st21{clip-path:url(#SVGID_16_);}
	.st22{fill:#97CB59;}
	.st23{fill:#DA2128;}
	.st24{fill:#00A14B;}
	.st25{fill:#96171A;}
	.st26{fill:#D1E39B;}
	.st27{fill:#4FBBBB;}
	.st28{fill:#37343F;}
	.st29{fill:#077A64;}
	.st30{fill:#F4EED4;}
	.st31{fill:#012E47;}
	.st32{fill:#BE1C42;}
	.st33{fill:#008E9F;}
	.st34{fill:#CD4134;}
	.st35{clip-path:url(#SVGID_18_);}
	.st36{clip-path:url(#SVGID_20_);}
	.st37{fill:#EE2424;}
	.st38{fill:#67BC45;}
	.st39{clip-path:url(#SVGID_22_);}
	.st40{clip-path:url(#SVGID_24_);}
	.st41{fill:#004A54;}
	.st42{fill:#D93128;}
	.st43{fill:#401B23;}
	.st44{fill:#EE2D40;}
	.st45{fill:#F1EBC9;}
	.st46{fill-rule:evenodd;clip-rule:evenodd;fill:#C92927;}
	.st47{fill-rule:evenodd;clip-rule:evenodd;fill:#96BF4D;}
	.st48{fill:#BD3026;}
	.st49{opacity:0.4;fill:#CD4134;}
	.st50{fill:#E6B448;}
	.st51{fill:#E21F26;}
	.st52{fill:#A82123;}
	.st53{fill:#383A3A;}
	.st54{fill:#F17B22;}
	.st55{fill:#F1F0DC;}
	.st56{fill:#56AE78;}
	.st57{fill:#EE262E;}
	.st58{fill:#C47229;}
	.st59{fill:#FEC010;}
	.st60{fill:#C0343E;}
	.st61{fill:url(#SVGID_25_);}
	.st62{fill:#659DAA;}
	.st63{fill:#C9A784;}
	.st64{fill:#DDCFB5;}
	.st65{fill:#D2A886;}
	.st66{fill:#9B3227;}
	.st67{opacity:0.39;fill:#FFFFFF;}
	.st68{fill:#E5E5E5;}
	.st69{fill:#202945;}
	.st70{fill:none;stroke:#ACA300;stroke-miterlimit:10;}
	.st71{fill:none;stroke:#ACA300;stroke-miterlimit:10;stroke-dasharray:2.0083,2.0083;}
	.st72{fill:#ACA300;}
</style>
<g>
	<defs>
		<rect id="SVGID_1_" x="420" y="-420" width="100" height="100"/>
	</defs>
	<clipPath id="SVGID_2_">
		<use xlink:href="#SVGID_1_"  style="overflow:visible;"/>
	</clipPath>
	<g class="st6">
		<g>
			<defs>
				
					<rect id="SVGID_3_" x="-47.5" y="-426.7" transform="matrix(0.6711 -0.7413 0.7413 0.6711 305.9633 238.1343)" width="937.7" height="401.9"/>
			</defs>
			<clipPath id="SVGID_4_">
				<use xlink:href="#SVGID_3_"  style="overflow:visible;"/>
			</clipPath>
			<g class="st7">
				
					<rect x="134.8" y="40" transform="matrix(0.6711 -0.7413 0.7413 0.6711 -114.2694 447.6122)" class="st5" width="625.1" height="625.1"/>
				
					<rect x="134.8" y="40" transform="matrix(0.6711 -0.7413 0.7413 0.6711 -114.2694 447.6122)" class="st8" width="625.1" height="625.1"/>
			</g>
			<g class="st7">
				
					<rect x="-328.6" y="-379.5" transform="matrix(0.6711 -0.7413 0.7413 0.6711 44.3594 -33.92)" class="st5" width="625.1" height="625.1"/>
				
					<rect x="-328.6" y="-379.5" transform="matrix(0.6711 -0.7413 0.7413 0.6711 44.3594 -33.92)" class="st8" width="625.1" height="625.1"/>
				<polygon class="st9" points="-13.3,-11.8 -12.1,11.9 -10.6,43.4 -2.7,43 -2.7,43 5.2,42.6 5.2,42.6 13.1,42.2 13.1,42.2 
					21,41.8 21,41.9 44.6,40.7 44.6,40.7 52.5,40.3 52.5,40.3 60.4,39.9 60.4,39.9 68.3,39.5 68.3,39.5 76.2,39.1 76.2,39.1 
					77.7,39 99.8,37.9 99.4,30 99.4,30 99,22.2 99,22.2 98.6,14.3 98.6,14.3 98.2,6.4 98.2,6.4 97.8,-1.5 97.8,-1.5 97.5,-9.4 
					97.5,-9.4 97.1,-17.3 96.7,-25.1 96.7,-25.1 96.3,-33 96.3,-33 95.9,-40.9 95.9,-40.9 95.5,-48.8 95.5,-48.8 95.1,-56.7 
					95.1,-56.7 94.7,-64.6 94.7,-64.6 94.3,-72.4 86.4,-72.1 78.6,-71.7 47,-70.1 31.3,-69.3 23.4,-68.9 7.6,-68.1 -16,-67 
					-14.9,-43.3 				"/>
				<polygon class="st9" points="100.2,45.8 99.8,37.9 91.9,38.3 				"/>
				<polygon class="st9" points="101,61.6 100.6,53.7 84,38.7 77.7,39 76.2,39.1 				"/>
				<polygon class="st9" points="76.2,39.1 77.7,39 76.2,39.1 				"/>
				<polygon class="st9" points="101.8,77.3 101.4,69.5 68.3,39.5 60.4,39.9 				"/>
				<polygon class="st9" points="60.4,39.9 60.4,39.9 68.3,39.5 68.3,39.5 				"/>
				<polygon class="st9" points="102.5,93.1 102.2,85.2 52.5,40.3 44.6,40.7 				"/>
				<polygon class="st9" points="44.6,40.7 44.6,40.7 52.5,40.3 52.5,40.3 				"/>
				<polygon class="st9" points="36.7,41.1 28.9,41.5 103.3,108.9 102.9,101 				"/>
				<polygon class="st9" points="104.1,124.7 103.7,116.8 21,41.9 13.1,42.2 				"/>
				<polygon class="st9" points="13.1,42.2 13.1,42.2 21,41.9 21,41.8 				"/>
				<polygon class="st9" points="104.9,140.4 104.5,132.5 5.2,42.6 -2.7,43 				"/>
				<polygon class="st9" points="-2.7,43 -2.7,43 5.2,42.6 5.2,42.6 				"/>
				<polygon class="st9" points="50.1,151 58,150.6 -8.2,90.7 -7.8,98.6 50.1,151 				"/>
				<polygon class="st9" points="65.9,150.3 73.7,149.9 -9,75 -8.6,82.8 65.9,150.3 				"/>
				<polygon class="st9" points="81.6,149.5 89.5,149.1 -9.8,59.2 -9.4,67.1 81.6,149.5 				"/>
				<polygon class="st9" points="97.4,148.7 97.4,148.7 105.3,148.3 -10.6,43.4 -10.2,51.3 				"/>
				<polygon class="st9" points="107.7,37.5 99.4,30 99.8,37.9 				"/>
				<polygon class="st9" points="99.8,37.9 99.4,30 99.4,30 				"/>
				<polygon class="st9" points="115.6,37.1 123.5,36.8 98.6,14.3 99,22.2 				"/>
				<polygon class="st9" points="99,22.2 99,22.2 98.6,14.3 98.6,14.3 				"/>
				<polygon class="st9" points="131.3,36.4 139.2,36 97.8,-1.5 98.2,6.4 				"/>
				<polygon class="st9" points="98.2,6.4 98.2,6.4 97.8,-1.5 97.8,-1.5 				"/>
				<polygon class="st9" points="147.1,35.6 155,35.2 97.1,-17.3 97.5,-9.4 				"/>
				<polygon class="st9" points="162.9,34.8 170.8,34.4 96.3,-33 96.7,-25.1 				"/>
				<polygon class="st9" points="178.6,34 186.5,33.6 95.5,-48.8 95.9,-40.9 				"/>
				<polygon class="st9" points="194.4,33.2 202.3,32.8 94.7,-64.6 95.1,-56.7 				"/>
				<polygon class="st9" points="210.2,32.4 209.8,24.6 209.8,24.6 102.2,-72.8 94.3,-72.4 				"/>
			</g>
		</g>
	</g>
</g>
<g>
	<defs>
		<rect id="SVGID_5_" x="-420" y="-280" width="100" height="100"/>
	</defs>
	<clipPath id="SVGID_6_">
		<use xlink:href="#SVGID_5_"  style="overflow:visible;"/>
	</clipPath>
	<g class="st11">
		<g>
			<defs>
				<rect id="SVGID_7_" x="-491.3" y="-978.9" width="595" height="1388.2"/>
			</defs>
			<clipPath id="SVGID_8_">
				<use xlink:href="#SVGID_7_"  style="overflow:visible;"/>
			</clipPath>
			<g class="st12">
				<rect x="-315.1" y="-281.6" class="st5" width="466" height="466"/>
				<rect x="-315.1" y="-281.6" class="st13" width="466" height="466"/>
				<g>
					<polygon class="st8" points="46.4,7.6 46.4,-0.4 38.4,7.6 30.3,15.7 30.3,23.7 38.4,15.7 					"/>
					<polygon class="st8" points="46.4,-8.4 46.4,-16.5 38.4,-8.4 30.3,-0.4 30.3,7.6 38.4,-0.4 					"/>
					<polygon class="st8" points="46.4,23.7 46.4,15.7 38.4,23.7 30.3,31.7 30.3,39.8 38.4,31.7 					"/>
					<polygon class="st8" points="46.4,71.9 46.4,63.9 38.4,71.9 30.3,79.9 30.3,88 38.4,79.9 					"/>
					<polygon class="st8" points="46.4,104 46.4,96 38.4,104 30.3,112.1 30.3,120.1 38.4,112.1 					"/>
					<polygon class="st8" points="46.4,55.8 46.4,47.8 38.4,55.8 30.3,63.9 30.3,71.9 38.4,63.9 					"/>
					<polygon class="st8" points="46.4,39.8 46.4,31.7 38.4,39.8 30.3,47.8 30.3,55.8 38.4,47.8 					"/>
					<polygon class="st8" points="46.4,88 46.4,79.9 38.4,88 30.3,96 30.3,104 38.4,96 					"/>
				</g>
				<g>
					<polygon class="st8" points="-1.8,79.9 -9.8,79.9 -1.8,71.9 6.2,63.9 14.3,63.9 6.2,71.9 					"/>
					<polygon class="st8" points="30.3,79.9 22.3,79.9 30.3,71.9 38.4,63.9 46.4,63.9 38.4,71.9 					"/>
					<polygon class="st8" points="62.5,79.9 54.4,79.9 62.5,71.9 70.5,63.9 78.5,63.9 70.5,71.9 					"/>
					<polygon class="st8" points="14.3,79.9 6.2,79.9 14.3,71.9 22.3,63.9 30.3,63.9 22.3,71.9 					"/>
					<polygon class="st8" points="46.4,79.9 38.4,79.9 46.4,71.9 54.4,63.9 62.5,63.9 54.4,71.9 					"/>
					<polygon class="st8" points="78.5,79.9 70.5,79.9 78.5,71.9 86.6,63.9 94.6,63.9 86.6,71.9 					"/>
					<polygon class="st8" points="94.6,79.9 86.6,79.9 94.6,71.9 102.6,63.9 110.7,63.9 102.6,71.9 					"/>
				</g>
			</g>
		</g>
	</g>
</g>
<g>
	<defs>
		<rect id="SVGID_9_" x="-280" y="-280" width="100" height="100"/>
	</defs>
	<clipPath id="SVGID_10_">
		<use xlink:href="#SVGID_9_"  style="overflow:visible;"/>
	</clipPath>
	<g class="st14">
		<g>
			<defs>
				
					<rect id="SVGID_11_" x="-606" y="-377.1" transform="matrix(0.6991 -0.715 0.715 0.6991 85.4014 -260.3049)" width="678.8" height="290.9"/>
			</defs>
			<clipPath id="SVGID_12_">
				<use xlink:href="#SVGID_11_"  style="overflow:visible;"/>
			</clipPath>
		</g>
	</g>
</g>
<g>
	<defs>
		<rect id="SVGID_17_" x="-140" y="0" width="100" height="100"/>
	</defs>
	<clipPath id="SVGID_14_">
		<use xlink:href="#SVGID_17_"  style="overflow:visible;"/>
	</clipPath>
	<g class="st17">
		<g>
			<defs>
				<rect id="SVGID_19_" x="-171.9" y="-203.9" width="172.2" height="516.6"/>
			</defs>
			<clipPath id="SVGID_16_">
				<use xlink:href="#SVGID_19_"  style="overflow:visible;"/>
			</clipPath>
			<g class="st21">
				<rect x="-55.7" y="-31.4" class="st5" width="57.5" height="57.5"/>
				<polygon class="st37" points="-15.1,-31.4 -55.7,9.2 -55.7,26.1 -55.7,26.1 1.8,-31.4 				"/>
				<polygon class="st37" points="1.8,-28 -52.3,26.1 -49,26.1 1.8,-24.7 				"/>
				<polygon class="st37" points="1.8,2.4 -21.9,26.1 -18.5,26.1 1.8,5.8 				"/>
				<polygon class="st37" points="-15.1,26.1 1.8,26.1 1.8,9.2 				"/>
				<polygon class="st38" points="1.8,-24.7 -49,26.1 -21.9,26.1 1.8,2.4 				"/>
				<polygon class="st13" points="1.8,-31.4 -55.7,26.1 -52.3,26.1 1.8,-28 				"/>
				<polygon class="st13" points="1.8,5.8 -18.5,26.1 -15.1,26.1 1.8,9.2 				"/>
			</g>
			<g class="st21">
				<rect x="-55.7" y="26.1" class="st5" width="57.5" height="57.5"/>
				<polygon class="st37" points="-15.1,26.1 -55.7,66.7 -55.7,83.6 -55.7,83.6 1.8,26.1 				"/>
				<polygon class="st37" points="1.8,29.5 -52.3,83.6 -49,83.6 1.8,32.9 				"/>
				<polygon class="st37" points="1.8,59.9 -21.9,83.6 -18.5,83.6 1.8,63.3 				"/>
				<polygon class="st37" points="-15.1,83.6 1.8,83.6 1.8,66.7 				"/>
				<polygon class="st38" points="1.8,32.9 -49,83.6 -21.9,83.6 1.8,59.9 				"/>
				<polygon class="st13" points="1.8,26.1 -55.7,83.6 -52.3,83.6 1.8,29.5 				"/>
				<polygon class="st13" points="1.8,63.3 -18.5,83.6 -15.1,83.6 1.8,66.7 				"/>
			</g>
			<g class="st21">
				<rect x="-55.7" y="83.6" class="st5" width="57.5" height="57.5"/>
				<polygon class="st37" points="-15.1,83.6 -55.7,124.2 -55.7,141.1 -55.7,141.1 1.8,83.6 				"/>
				<polygon class="st37" points="1.8,87 -52.3,141.1 -49,141.1 1.8,90.4 				"/>
				<polygon class="st38" points="1.8,90.4 -49,141.1 -21.9,141.1 1.8,117.4 				"/>
				<polygon class="st13" points="1.8,83.6 -55.7,141.1 -52.3,141.1 1.8,87 				"/>
			</g>
		</g>
	</g>
</g>
<g>
	<defs>
		<rect id="SVGID_21_" x="0" y="0" width="100" height="100"/>
	</defs>
	<clipPath id="SVGID_18_">
		<use xlink:href="#SVGID_21_"  style="overflow:visible;"/>
	</clipPath>
	<g class="st35">
		<g>
			<defs>
				<rect id="SVGID_23_" x="-39.2" y="-201.7" width="154.9" height="464.7"/>
			</defs>
			<clipPath id="SVGID_20_">
				<use xlink:href="#SVGID_23_"  style="overflow:visible;"/>
			</clipPath>
			<g class="st36">
				<rect x="55.6" y="-28.3" class="st5" width="57.8" height="57.8"/>
				<polygon class="st13" points="86.1,-28.3 55.6,2.1 55.6,29.5 113.5,-28.3 				"/>
				<polygon class="st38" points="83,-28.3 55.6,-0.9 55.6,2.1 86.1,-28.3 				"/>
				<polygon class="st13" points="113.5,-3.9 80,29.5 83,29.5 113.5,-0.9 				"/>
				<polygon class="st13" points="86.1,29.5 113.5,29.5 113.5,29.5 113.5,2.1 				"/>
				<polygon class="st37" points="113.5,-28.3 113.5,-28.3 55.6,29.5 55.6,29.5 80,29.5 113.5,-3.9 				"/>
				<polygon class="st38" points="113.5,-0.9 83,29.5 86.1,29.5 113.5,2.1 				"/>
			</g>
			<g class="st36">
				<rect x="55.6" y="29.5" class="st5" width="57.8" height="57.8"/>
				<polygon class="st13" points="80,29.5 55.6,53.9 55.6,56.9 83,29.5 				"/>
				<polygon class="st13" points="86.1,29.5 55.6,59.9 55.6,87.3 113.5,29.5 				"/>
				<polygon class="st37" points="55.6,29.5 55.6,53.9 80,29.5 				"/>
				<polygon class="st38" points="83,29.5 55.6,56.9 55.6,59.9 86.1,29.5 				"/>
				<polygon class="st13" points="113.5,53.9 80,87.3 83,87.3 113.5,56.9 				"/>
				<polygon class="st13" points="86.1,87.3 113.5,87.3 113.5,87.3 113.5,59.9 				"/>
				<polygon class="st37" points="113.5,29.5 113.5,29.5 55.6,87.3 55.6,87.3 80,87.3 113.5,53.9 				"/>
				<polygon class="st38" points="113.5,56.9 83,87.3 86.1,87.3 113.5,59.9 				"/>
			</g>
			<g class="st36">
				<rect x="55.6" y="87.3" class="st5" width="57.8" height="57.8"/>
				<polygon class="st13" points="80,87.3 55.6,111.7 55.6,114.7 83,87.3 				"/>
				<polygon class="st13" points="86.1,87.3 55.6,117.8 55.6,145.1 113.5,87.3 				"/>
				<polygon class="st37" points="55.6,87.3 55.6,111.7 80,87.3 				"/>
				<polygon class="st38" points="83,87.3 55.6,114.7 55.6,117.8 86.1,87.3 				"/>
				<polygon class="st37" points="113.5,87.3 113.5,87.3 55.6,145.1 55.6,145.1 80,145.1 113.5,111.7 				"/>
			</g>
			<g class="st36">
				<rect x="-2.2" y="-28.3" class="st5" width="57.8" height="57.8"/>
				<polygon class="st13" points="28.3,-28.3 -2.2,2.1 -2.2,29.5 55.6,-28.3 				"/>
				<polygon class="st38" points="25.2,-28.3 -2.2,-0.9 -2.2,2.1 28.3,-28.3 				"/>
				<polygon class="st13" points="55.6,-3.9 22.2,29.5 25.2,29.5 55.6,-0.9 				"/>
				<polygon class="st13" points="28.3,29.5 55.6,29.5 55.6,29.5 55.6,2.1 				"/>
				<polygon class="st37" points="55.6,-28.3 55.6,-28.3 -2.2,29.5 -2.2,29.5 22.2,29.5 55.6,-3.9 				"/>
				<polygon class="st38" points="55.6,-0.9 25.2,29.5 28.3,29.5 55.6,2.1 				"/>
			</g>
			<g class="st36">
				<rect x="-2.2" y="29.5" class="st5" width="57.8" height="57.8"/>
				<polygon class="st13" points="22.2,29.5 -2.2,53.9 -2.2,56.9 25.2,29.5 				"/>
				<polygon class="st13" points="28.3,29.5 -2.2,59.9 -2.2,87.3 55.6,29.5 				"/>
				<polygon class="st37" points="-2.2,29.5 -2.2,53.9 22.2,29.5 				"/>
				<polygon class="st38" points="25.2,29.5 -2.2,56.9 -2.2,59.9 28.3,29.5 				"/>
				<polygon class="st13" points="55.6,53.9 22.2,87.3 25.2,87.3 55.6,56.9 				"/>
				<polygon class="st13" points="28.3,87.3 55.6,87.3 55.6,87.3 55.6,59.9 				"/>
				<polygon class="st37" points="55.6,29.5 55.6,29.5 -2.2,87.3 -2.2,87.3 22.2,87.3 55.6,53.9 				"/>
				<polygon class="st38" points="55.6,56.9 25.2,87.3 28.3,87.3 55.6,59.9 				"/>
			</g>
			<g class="st36">
				<rect x="-2.2" y="87.3" class="st5" width="57.8" height="57.8"/>
				<polygon class="st13" points="22.2,87.3 -2.2,111.7 -2.2,114.7 25.2,87.3 				"/>
				<polygon class="st13" points="28.3,87.3 -2.2,117.8 -2.2,145.1 55.6,87.3 				"/>
				<polygon class="st37" points="-2.2,87.3 -2.2,111.7 22.2,87.3 				"/>
				<polygon class="st38" points="25.2,87.3 -2.2,114.7 -2.2,117.8 28.3,87.3 				"/>
				<polygon class="st37" points="55.6,87.3 55.6,87.3 -2.2,145.1 -2.2,145.1 22.2,145.1 55.6,111.7 				"/>
			</g>
		</g>
	</g>
</g>
</svg>
