<?xml version="1.0" encoding="utf-8"?>
<!-- Generator: Adobe Illustrator 22.1.0, SVG Export Plug-In . SVG Version: 6.00 Build 0)  -->
<svg version="1.1" id="Layer_1" xmlns="http://www.w3.org/2000/svg" xmlns:xlink="http://www.w3.org/1999/xlink" x="0px" y="0px"
	 viewBox="0 0 100 100" style="enable-background:new 0 0 100 100;" xml:space="preserve">
<style type="text/css">
	.st0{fill:#BE1E2D;}
	.st1{fill:#00B0BB;}
	.st2{fill:#63C4AF;}
	.st3{fill:#EAEAEA;}
	.st4{fill:#413E34;}
	.st5{fill:none;}
	.st6{clip-path:url(#SVGID_2_);}
	.st7{clip-path:url(#SVGID_4_);}
	.st8{fill:#1E0D12;}
	.st9{fill:#E62F34;}
	.st10{fill:#25793D;}
	.st11{clip-path:url(#SVGID_6_);}
	.st12{clip-path:url(#SVGID_8_);}
	.st13{fill:#FFFFFF;}
	.st14{clip-path:url(#SVGID_10_);}
	.st15{clip-path:url(#SVGID_12_);}
	.st16{fill:#96BF4D;}
	.st17{clip-path:url(#SVGID_14_);}
	.st18{fill-rule:evenodd;clip-rule:evenodd;fill:#FFFFFF;}
	.st19{fill:#C92927;}
	.st20{fill:#253748;}
	.st21{clip-path:url(#SVGID_16_);}
	.st22{fill:#97CB59;}
	.st23{fill:#DA2128;}
	.st24{fill:#00A14B;}
	.st25{fill:#96171A;}
	.st26{fill:#D1E39B;}
	.st27{fill:#4FBBBB;}
	.st28{fill:#37343F;}
	.st29{fill:#077A64;}
	.st30{fill:#F4EED4;}
	.st31{fill:#012E47;}
	.st32{fill:#BE1C42;}
	.st33{fill:#008E9F;}
	.st34{fill:#CD4134;}
	.st35{clip-path:url(#SVGID_18_);}
	.st36{clip-path:url(#SVGID_20_);}
	.st37{fill:#EE2424;}
	.st38{fill:#67BC45;}
	.st39{clip-path:url(#SVGID_22_);}
	.st40{clip-path:url(#SVGID_24_);}
	.st41{fill:#004A54;}
	.st42{fill:#D93128;}
	.st43{fill:#401B23;}
	.st44{fill:#EE2D40;}
	.st45{fill:#F1EBC9;}
	.st46{fill-rule:evenodd;clip-rule:evenodd;fill:#C92927;}
	.st47{fill-rule:evenodd;clip-rule:evenodd;fill:#96BF4D;}
	.st48{fill:#BD3026;}
	.st49{opacity:0.4;fill:#CD4134;}
	.st50{fill:#E6B448;}
	.st51{fill:#E21F26;}
	.st52{fill:#A82123;}
	.st53{fill:#383A3A;}
	.st54{fill:#F17B22;}
	.st55{fill:#F1F0DC;}
	.st56{fill:#56AE78;}
	.st57{fill:#EE262E;}
	.st58{fill:#C47229;}
	.st59{fill:#FEC010;}
	.st60{fill:#C0343E;}
	.st61{fill:url(#SVGID_25_);}
	.st62{fill:#659DAA;}
	.st63{fill:#C9A784;}
	.st64{fill:#DDCFB5;}
	.st65{fill:#D2A886;}
	.st66{fill:#9B3227;}
	.st67{opacity:0.39;fill:#FFFFFF;}
	.st68{fill:#E5E5E5;}
	.st69{fill:#202945;}
	.st70{fill:none;stroke:#ACA300;stroke-miterlimit:10;}
	.st71{fill:none;stroke:#ACA300;stroke-miterlimit:10;stroke-dasharray:2.0083,2.0083;}
	.st72{fill:#ACA300;}
</style>
<g>
	<defs>
		<rect id="SVGID_1_" x="300" y="-420" width="100" height="100"/>
	</defs>
	<clipPath id="SVGID_2_">
		<use xlink:href="#SVGID_1_"  style="overflow:visible;"/>
	</clipPath>
	<g class="st6">
		<g>
			<defs>
				
					<rect id="SVGID_3_" x="-167.5" y="-426.7" transform="matrix(0.6711 -0.7413 0.7413 0.6711 266.5007 149.1751)" width="937.7" height="401.9"/>
			</defs>
			<clipPath id="SVGID_4_">
				<use xlink:href="#SVGID_3_"  style="overflow:visible;"/>
			</clipPath>
			<g class="st7">
				
					<rect x="14.8" y="40" transform="matrix(0.6711 -0.7413 0.7413 0.6711 -153.7321 358.653)" class="st5" width="625.1" height="625.1"/>
				
					<rect x="14.8" y="40" transform="matrix(0.6711 -0.7413 0.7413 0.6711 -153.7321 358.653)" class="st8" width="625.1" height="625.1"/>
			</g>
			<g class="st7">
				
					<rect x="-448.6" y="-379.5" transform="matrix(0.6711 -0.7413 0.7413 0.6711 4.8968 -122.8792)" class="st5" width="625.1" height="625.1"/>
				
					<rect x="-448.6" y="-379.5" transform="matrix(0.6711 -0.7413 0.7413 0.6711 4.8968 -122.8792)" class="st8" width="625.1" height="625.1"/>
				<polygon class="st9" points="-4.4,37.1 3.5,36.8 -21.4,14.3 -21,22.2 				"/>
				<polygon class="st9" points="11.3,36.4 19.2,36 -22.2,-1.5 -21.8,6.4 				"/>
				<polygon class="st9" points="27.1,35.6 35,35.2 -22.9,-17.3 -22.5,-9.4 				"/>
				<polygon class="st9" points="42.9,34.8 50.8,34.4 -23.7,-33 -23.3,-25.1 				"/>
				<polygon class="st9" points="58.6,34 66.5,33.6 -24.5,-48.8 -24.1,-40.9 				"/>
				<polygon class="st9" points="74.4,33.2 82.3,32.8 -25.3,-64.6 -24.9,-56.7 				"/>
				<polygon class="st9" points="88.2,-7 88.2,-7 13.7,-74.4 5.9,-74 88.6,0.9 				"/>
				<polygon class="st9" points="89,8.8 89,8.8 -2,-73.6 -9.9,-73.2 89.4,16.7 				"/>
				<polygon class="st9" points="90.2,32.4 89.8,24.6 89.8,24.6 -17.8,-72.8 -25.7,-72.4 				"/>
				<polygon class="st9" points="90.2,32.4 90.2,32.4 90.2,32.4 				"/>
				<polygon class="st9" points="89.8,24.6 89.8,24.6 90.2,32.4 90.2,32.4 				"/>
				<polygon class="st9" points="90.2,32.4 98.1,32.1 89.8,24.6 				"/>
				<polygon class="st9" points="89.8,24.6 90,28.4 90.2,32.4 90.2,32.4 89.8,24.6 				"/>
				<polygon class="st9" points="90.2,32.4 90.2,32.4 90.2,32.4 90,28.4 90.2,32.4 				"/>
				<polygon class="st9" points="90,28.4 89.8,24.6 89.8,24.6 				"/>
				<polygon class="st9" points="89.8,24.6 90.2,32.4 90.2,32.4 90,28.4 89.8,24.6 				"/>
				<polygon class="st9" points="89.4,16.7 89.4,16.7 89.4,16.7 89.4,16.7 				"/>
				<polygon class="st9" points="89,8.8 89,8.8 89.4,16.7 89.4,16.7 				"/>
				<polygon class="st9" points="89.4,16.7 105.9,31.7 113.8,31.3 89,8.8 				"/>
				<polygon class="st9" points="89.4,16.7 89.4,16.7 89.4,16.7 89.4,16.7 89,8.8 89,8.8 				"/>
				<polygon class="st9" points="89.4,16.7 89.4,16.7 89.4,16.7 89.4,16.7 				"/>
				<polygon class="st9" points="89.4,16.7 89.4,16.7 89,8.8 89,8.8 				"/>
				<polygon class="st9" points="89,8.8 89.4,16.7 89.4,16.7 89,8.8 				"/>
				<polygon class="st9" points="88.6,0.9 88.6,0.9 88.6,0.9 				"/>
				<polygon class="st9" points="88.2,-7 88.2,-7 88.6,0.9 88.6,0.9 				"/>
				<polygon class="st9" points="88.6,0.9 121.7,30.9 129.6,30.5 88.2,-7 				"/>
				<polygon class="st9" points="88.6,0.9 88.6,0.9 88.6,0.9 88.6,0.9 88.2,-7 88.2,-7 				"/>
				<polygon class="st9" points="88.6,0.9 88.6,0.9 88.6,0.9 88.6,0.9 				"/>
				<polygon class="st9" points="88.6,0.9 88.6,0.9 88.2,-7 88.2,-7 				"/>
				<polygon class="st9" points="88.2,-7 88.6,0.9 88.6,0.9 88.2,-7 				"/>
				<polygon class="st9" points="87.8,-14.9 137.5,30.1 145.4,29.7 87.4,-22.7 				"/>
				<polygon class="st9" points="87,-30.6 153.2,29.3 161.1,28.9 86.7,-38.5 				"/>
				<polygon class="st9" points="86.3,-46.4 169,28.5 176.9,28.1 85.9,-54.3 				"/>
				<polygon class="st9" points="85.5,-62.2 184.8,27.7 192.7,27.4 85.1,-70 				"/>
				<polygon class="st9" points="84.7,-77.9 84.7,-77.9 200.5,27 200.2,19.1 92.6,-78.3 				"/>
				<polygon class="st10" points="92.6,-78.3 200.2,19.1 199.8,11.2 100.5,-78.7 				"/>
				<polygon class="st10" points="89.4,16.7 89.4,16.7 89.8,24.6 89.8,24.6 				"/>
				<rect x="89.8" y="24.6" class="st10" width="0" height="0"/>
				<polygon class="st10" points="89.8,24.6 98.1,32.1 105.9,31.7 89.4,16.7 				"/>
				<polygon class="st10" points="89.8,24.6 89.8,24.6 89.8,24.6 89.8,24.6 89.4,16.7 89.4,16.7 				"/>
				<polygon class="st10" points="89.8,24.6 89.8,24.6 89.4,16.7 89.4,16.7 				"/>
				<rect x="89.8" y="24.6" transform="matrix(0.6711 -0.7413 0.7413 0.6711 11.3168 74.6416)" class="st10" width="0" height="0"/>
				<rect x="89.8" y="24.6" class="st10" width="0" height="0"/>
				<polygon class="st10" points="88.6,0.9 89,8.8 89,8.8 				"/>
				<polygon class="st10" points="89,8.8 89,8.8 89,8.8 89,8.8 				"/>
				<polygon class="st10" points="89,8.8 113.8,31.3 121.7,30.9 88.6,0.9 				"/>
				<polygon class="st10" points="89,8.8 89,8.8 89,8.8 89,8.8 88.6,0.9 88.6,0.9 				"/>
				<polygon class="st10" points="89,8.8 88.6,0.9 88.6,0.9 89,8.8 				"/>
				<polygon class="st10" points="89,8.8 89,8.8 89,8.8 89,8.8 				"/>
				<polygon class="st10" points="89,8.8 89,8.8 89,8.8 89,8.8 				"/>
				<polygon class="st10" points="88.2,-7 129.6,30.5 137.5,30.1 87.8,-14.9 				"/>
				<polygon class="st10" points="87.4,-22.7 145.4,29.7 153.2,29.3 87,-30.6 				"/>
				<polygon class="st10" points="86.7,-38.5 161.1,28.9 169,28.5 86.3,-46.4 				"/>
				<polygon class="st10" points="85.9,-54.3 176.9,28.1 184.8,27.7 85.5,-62.2 				"/>
				<polygon class="st10" points="85.1,-70 192.7,27.4 200.5,27 84.7,-77.9 				"/>
				<polygon class="st10" points="98.1,32.1 151.9,80.8 155.6,76.6 105.9,31.7 				"/>
				<polygon class="st10" points="93.7,103.4 114.4,122.1 118.1,118 93.3,95.5 				"/>
				<polygon class="st10" points="93.7,103.4 93.7,103.4 93.3,95.5 93.3,95.5 				"/>
				<polygon class="st10" points="93.7,103.4 93.7,103.4 93.3,95.5 93.3,95.5 				"/>
				<polygon class="st10" points="92.5,79.8 92.9,87.6 92.5,79.8 				"/>
				<polygon class="st10" points="92.9,87.6 121.9,113.9 125.6,109.7 92.5,79.8 				"/>
				<polygon class="st10" points="92.9,87.6 92.9,87.6 92.5,79.8 92.5,79.8 				"/>
				<polygon class="st10" points="92.9,87.6 92.9,87.6 92.5,79.8 92.5,79.8 				"/>
				<polygon class="st10" points="91.7,64 92.1,71.9 92.1,71.9 91.7,64 				"/>
				<polygon class="st10" points="92.1,71.9 129.4,105.6 133.1,101.4 91.7,64 				"/>
				<polygon class="st10" points="92.1,71.9 92.1,71.9 91.7,64 91.7,64 				"/>
				<polygon class="st10" points="92.1,71.9 92.1,71.9 91.7,64 91.7,64 				"/>
				<polygon class="st10" points="91.4,56.1 136.9,97.3 140.6,93.2 91,48.2 				"/>
				<polygon class="st10" points="91.4,56.1 91.4,56.1 91,48.2 91,48.2 				"/>
				<polygon class="st10" points="91.4,56.1 91.4,56.1 91,48.2 91,48.2 				"/>
				<polygon class="st10" points="90.6,40.3 90.6,40.3 90.2,32.4 				"/>
				<polygon class="st10" points="90.6,40.3 144.4,89 148.1,84.9 90.2,32.5 				"/>
				<polygon class="st10" points="90.6,40.3 90.6,40.3 90.2,32.5 90.2,32.5 				"/>
				<polygon class="st10" points="90.6,40.3 90.6,40.3 90.2,32.5 90.2,32.4 				"/>
			</g>
		</g>
	</g>
</g>
<g>
	<defs>
		<rect id="SVGID_5_" x="-540" y="-280" width="100" height="100"/>
	</defs>
	<clipPath id="SVGID_6_">
		<use xlink:href="#SVGID_5_"  style="overflow:visible;"/>
	</clipPath>
	<g class="st11">
		<g>
			<defs>
				<rect id="SVGID_7_" x="-611.3" y="-978.9" width="595" height="1388.2"/>
			</defs>
			<clipPath id="SVGID_8_">
				<use xlink:href="#SVGID_7_"  style="overflow:visible;"/>
			</clipPath>
			<g class="st12">
				<rect x="-435.1" y="-281.6" class="st5" width="466" height="466"/>
				<rect x="-435.1" y="-281.6" class="st13" width="466" height="466"/>
				<g>
					<polygon class="st8" points="22.8,79.9 14.8,79.9 30.9,63.9 30.9,71.9 					"/>
					<polygon class="st8" points="-9.3,79.9 -17.4,79.9 -9.3,71.9 -1.3,63.9 6.7,63.9 -1.3,71.9 					"/>
					<polygon class="st8" points="6.7,79.9 -1.3,79.9 6.7,71.9 14.8,63.9 22.8,63.9 14.8,71.9 					"/>
				</g>
			</g>
		</g>
	</g>
</g>
<g>
	<defs>
		<rect id="SVGID_9_" x="-400" y="-280" width="100" height="100"/>
	</defs>
	<clipPath id="SVGID_10_">
		<use xlink:href="#SVGID_9_"  style="overflow:visible;"/>
	</clipPath>
	<g class="st14">
		<g>
			<defs>
				
					<rect id="SVGID_11_" x="-726" y="-377.1" transform="matrix(0.6991 -0.715 0.715 0.6991 49.2979 -346.1034)" width="678.8" height="290.9"/>
			</defs>
			<clipPath id="SVGID_12_">
				<use xlink:href="#SVGID_11_"  style="overflow:visible;"/>
			</clipPath>
		</g>
	</g>
</g>
<g>
	<defs>
		<rect id="SVGID_21_" x="-120" y="0" width="100" height="100"/>
	</defs>
	<clipPath id="SVGID_14_">
		<use xlink:href="#SVGID_21_"  style="overflow:visible;"/>
	</clipPath>
	<g class="st17">
		<g>
			<defs>
				<rect id="SVGID_23_" x="-159.2" y="-201.7" width="154.9" height="464.7"/>
			</defs>
			<clipPath id="SVGID_16_">
				<use xlink:href="#SVGID_23_"  style="overflow:visible;"/>
			</clipPath>
			<g class="st21">
				<rect x="-6.5" y="-28.3" class="st5" width="57.8" height="57.8"/>
				<polygon class="st13" points="23.9,-28.3 -6.5,2.1 -6.5,29.5 51.3,-28.3 				"/>
				<polygon class="st38" points="20.8,-28.3 -6.5,-0.9 -6.5,2.1 23.9,-28.3 				"/>
				<polygon class="st13" points="51.3,-3.9 17.8,29.5 20.8,29.5 51.3,-0.9 				"/>
				<polygon class="st13" points="23.9,29.5 51.3,29.5 51.3,29.5 51.3,2.1 				"/>
				<polygon class="st37" points="51.3,-28.3 51.3,-28.3 -6.5,29.5 -6.5,29.5 17.8,29.5 51.3,-3.9 				"/>
				<polygon class="st38" points="51.3,-0.9 20.8,29.5 23.9,29.5 51.3,2.1 				"/>
			</g>
			<g class="st21">
				<rect x="-6.5" y="29.5" class="st5" width="57.8" height="57.8"/>
				<polygon class="st13" points="17.8,29.5 -6.5,53.9 -6.5,56.9 20.8,29.5 				"/>
				<polygon class="st13" points="23.9,29.5 -6.5,59.9 -6.5,87.3 51.3,29.5 				"/>
				<polygon class="st37" points="-6.5,29.5 -6.5,53.9 17.8,29.5 				"/>
				<polygon class="st38" points="20.8,29.5 -6.5,56.9 -6.5,59.9 23.9,29.5 				"/>
				<polygon class="st13" points="51.3,53.9 17.8,87.3 20.8,87.3 51.3,56.9 				"/>
				<polygon class="st13" points="23.9,87.3 51.3,87.3 51.3,87.3 51.3,59.9 				"/>
				<polygon class="st37" points="51.3,29.5 51.3,29.5 -6.5,87.3 -6.5,87.3 17.8,87.3 51.3,53.9 				"/>
				<polygon class="st38" points="51.3,56.9 20.8,87.3 23.9,87.3 51.3,59.9 				"/>
			</g>
			<g class="st21">
				<rect x="-6.5" y="87.3" class="st5" width="57.8" height="57.8"/>
				<polygon class="st13" points="17.8,87.3 -6.5,111.7 -6.5,114.7 20.8,87.3 				"/>
				<polygon class="st13" points="23.9,87.3 -6.5,117.8 -6.5,145.1 51.3,87.3 				"/>
				<polygon class="st37" points="-6.5,87.3 -6.5,111.7 17.8,87.3 				"/>
				<polygon class="st38" points="20.8,87.3 -6.5,114.7 -6.5,117.8 23.9,87.3 				"/>
				<polygon class="st37" points="51.3,87.3 51.3,87.3 -6.5,145.1 -6.5,145.1 17.8,145.1 51.3,111.7 				"/>
			</g>
		</g>
	</g>
</g>
<rect x="0" y="0" class="st69" width="100" height="100"/>
<g>
	<g>
		<polyline class="st70" points="96.2,95.2 96.2,96.2 95.2,96.2 		"/>
		<line class="st71" x1="93.2" y1="96.2" x2="5.8" y2="96.2"/>
		<polyline class="st70" points="4.8,96.2 3.8,96.2 3.8,95.2 		"/>
		<line class="st71" x1="3.8" y1="93.2" x2="3.8" y2="5.8"/>
		<polyline class="st70" points="3.8,4.8 3.8,3.8 4.8,3.8 		"/>
		<line class="st71" x1="6.8" y1="3.8" x2="94.2" y2="3.8"/>
		<polyline class="st70" points="95.2,3.8 96.2,3.8 96.2,4.8 		"/>
		<line class="st71" x1="96.2" y1="6.8" x2="96.2" y2="94.2"/>
	</g>
</g>
<path class="st72" d="M55.2,51.7v-2.2c-1.3,0.8-3.2,1.2-5.7,1.5c-2.9,0.3-4.8,1-4.8,2.7c0,1.3,1.5,2.2,3.9,2.2
	C52.3,55.9,55.2,54.7,55.2,51.7 M61.4,60.8H56c-0.3-0.6-0.5-1.3-0.6-2.2c-1.5,1.6-3.9,2.6-7.2,2.6c-4.9,0-9.5-2.5-9.5-7.6
	c0-5.3,4.4-6.6,9.6-7.1c3.9-0.4,6.7-0.8,6.7-2.7c0-1.2-1.6-2.2-4.3-2.2c-2.1,0-4.6,1-5.1,2.9h-6c0.6-4.4,4.8-7.7,11-7.7
	c9.5,0,10.2,6.1,10.2,8V57C60.8,58.1,61.1,59.9,61.4,60.8 M78.3,49.6c0-10-12.5-18.2-27.9-18.2c-15.4,0-27.9,8.1-27.9,18.2
	c0,10,12.5,18.2,27.9,18.2c5.8,0,11.1-1.1,15.6-3.1l5,3.5l5.7,4l-4-5.7L70,62.6C75.1,59.3,78.3,54.7,78.3,49.6"/>
</svg>
