<svg enable-background="new 0 0 100 100" viewBox="0 0 100 100" xmlns="http://www.w3.org/2000/svg" xmlns:xlink="http://www.w3.org/1999/xlink"><clipPath id="a"><path d="m300-420h100v100h-100z"/></clipPath><clipPath id="b"><path d="m-167.5-426.7h937.7v401.9h-937.7z" transform="matrix(.6711 -.7413 .7413 .6711 266.5007 149.1751)"/></clipPath><clipPath id="c"><path d="m-540-280h100v100h-100z"/></clipPath><clipPath id="d"><path d="m-611.3-978.9h595v1388.2h-595z"/></clipPath><clipPath id="e"><path d="m-120 0h100v100h-100z"/></clipPath><clipPath id="f"><path d="m-159.2-201.7h154.9v464.7h-154.9z"/></clipPath><g clip-path="url(#a)"><g clip-path="url(#b)"><path d="m14.8 40h625.1v625.1h-625.1z" fill="none" transform="matrix(.6711 -.7413 .7413 .6711 -153.7321 358.653)"/><path d="m14.8 40h625.1v625.1h-625.1z" fill="#1e0d12" transform="matrix(.6711 -.7413 .7413 .6711 -153.7321 358.653)"/></g><g clip-path="url(#b)"><path d="m-448.6-379.5h625.1v625.1h-625.1z" fill="none" transform="matrix(.6711 -.7413 .7413 .6711 4.8968 -122.8792)"/><path d="m-448.6-379.5h625.1v625.1h-625.1z" fill="#1e0d12" transform="matrix(.6711 -.7413 .7413 .6711 4.8968 -122.8792)"/><g fill="#e62f34"><path d="m-4.4 37.1 7.9-.3-24.9-22.5.4 7.9z"/><path d="m11.3 36.4 7.9-.4-41.4-37.5.4 7.9z"/><path d="m27.1 35.6 7.9-.4-57.9-52.5.4 7.9z"/><path d="m42.9 34.8 7.9-.4-74.5-67.4.4 7.9z"/><path d="m58.6 34 7.9-.4-91-82.4.4 7.9z"/><path d="m74.4 33.2 7.9-.4-107.6-97.4.4 7.9z"/><path d="m88.2-7-74.5-67.4-7.8.4 82.7 74.9z"/><path d="m89 8.8-91-82.4-7.9.4 99.3 89.9z"/><path d="m90.2 32.4-.4-7.8-107.6-97.4-7.9.4z"/><path d="m89.8 24.6.4 7.8z"/><path d="m90.2 32.4 7.9-.3-8.3-7.5z"/><path d="m89.8 24.6.2 3.8.2 4z"/><path d="m90.2 32.4-.2-4z"/><path d="m90 28.4-.2-3.8z"/><path d="m89.8 24.6.4 7.8-.2-4z"/><path d="m89 8.8.4 7.9z"/><path d="m89.4 16.7 16.5 15 7.9-.4-24.8-22.5z"/><path d="m89.4 16.7-.4-7.9z"/><path d="m89.4 16.7-.4-7.9z"/><path d="m89 8.8.4 7.9z"/><path d="m88.2-7 .4 7.9z"/><path d="m88.6.9 33.1 30 7.9-.4-41.4-37.5z"/><path d="m88.6.9-.4-7.9z"/><path d="m88.6.9-.4-7.9z"/><path d="m88.2-7 .4 7.9z"/><path d="m87.8-14.9 49.7 45 7.9-.4-58-52.4z"/><path d="m87-30.6 66.2 59.9 7.9-.4-74.4-67.4z"/><path d="m86.3-46.4 82.7 74.9 7.9-.4-91-82.4z"/><path d="m85.5-62.2 99.3 89.9 7.9-.3-107.6-97.4z"/><path d="m84.7-77.9 115.8 104.9-.3-7.9-107.6-97.4z"/></g><g fill="#25793d"><path d="m92.6-78.3 107.6 97.4-.4-7.9-99.3-89.9z"/><path d="m89.4 16.7.4 7.9z"/><path d="m89.8 24.6 8.3 7.5 7.8-.4-16.5-15z"/><path d="m89.8 24.6-.4-7.9z"/><path d="m89.8 24.6-.4-7.9z"/><path d="m88.6.9.4 7.9z"/><path d="m89 8.8 24.8 22.5 7.9-.4-33.1-30z"/><path d="m89 8.8-.4-7.9z"/><path d="m89 8.8-.4-7.9z"/><path d="m88.2-7 41.4 37.5 7.9-.4-49.7-45z"/><path d="m87.4-22.7 58 52.4 7.8-.4-66.2-59.9z"/><path d="m86.7-38.5 74.4 67.4 7.9-.4-82.7-74.9z"/><path d="m85.9-54.3 91 82.4 7.9-.4-99.3-89.9z"/><path d="m85.1-70 107.6 97.4 7.8-.4-115.8-104.9z"/><path d="m98.1 32.1 53.8 48.7 3.7-4.2-49.7-44.9z"/><path d="m93.7 103.4 20.7 18.7 3.7-4.1-24.8-22.5z"/><path d="m93.7 103.4-.4-7.9z"/><path d="m93.7 103.4-.4-7.9z"/><path d="m92.5 79.8.4 7.8z"/><path d="m92.9 87.6 29 26.3 3.7-4.2-33.1-29.9z"/><path d="m92.9 87.6-.4-7.8z"/><path d="m92.9 87.6-.4-7.8z"/><path d="m91.7 64 .4 7.9z"/><path d="m92.1 71.9 37.3 33.7 3.7-4.2-41.4-37.4z"/><path d="m92.1 71.9-.4-7.9z"/><path d="m92.1 71.9-.4-7.9z"/><path d="m91.4 56.1 45.5 41.2 3.7-4.1-49.6-45z"/><path d="m91.4 56.1-.4-7.9z"/><path d="m91.4 56.1-.4-7.9z"/><path d="m90.6 40.3-.4-7.9z"/><path d="m90.6 40.3 53.8 48.7 3.7-4.1-57.9-52.4z"/><path d="m90.6 40.3-.4-7.8z"/><path d="m90.6 40.3-.4-7.8v-.1z"/></g></g></g><g clip-path="url(#c)"><g clip-path="url(#d)"><path d="m-435.1-281.6h466v466h-466z" fill="none"/><path d="m-435.1-281.6h466v466h-466z" fill="#fff"/><g fill="#1e0d12"><path d="m22.8 79.9h-8l16.1-16v8z"/><path d="m-9.3 79.9h-8.1l8.1-8 8-8h8l-8 8z"/><path d="m6.7 79.9h-8l8-8 8.1-8h8l-8 8z"/></g></g></g><g clip-path="url(#e)"><g clip-path="url(#f)"><path d="m-6.5-28.3h57.8v57.8h-57.8z" fill="none"/><path d="m23.9-28.3-30.4 30.4v27.4l57.8-57.8z" fill="#fff"/><path d="m20.8-28.3-27.3 27.4v3l30.4-30.4z" fill="#67bc45"/><path d="m51.3-3.9-33.5 33.4h3l30.5-30.4z" fill="#fff"/><path d="m23.9 29.5h27.4v-27.4z" fill="#fff"/><path d="m51.3-28.3-57.8 57.8h24.3l33.5-33.4z" fill="#ee2424"/><path d="m51.3-.9-30.5 30.4h3.1l27.4-27.4z" fill="#67bc45"/></g><g clip-path="url(#f)"><path d="m-6.5 29.5h57.8v57.8h-57.8z" fill="none"/><path d="m17.8 29.5-24.3 24.4v3l27.3-27.4z" fill="#fff"/><path d="m23.9 29.5-30.4 30.4v27.4l57.8-57.8z" fill="#fff"/><path d="m-6.5 29.5v24.4l24.3-24.4z" fill="#ee2424"/><path d="m20.8 29.5-27.3 27.4v3l30.4-30.4z" fill="#67bc45"/><path d="m51.3 53.9-33.5 33.4h3l30.5-30.4z" fill="#fff"/><path d="m23.9 87.3h27.4v-27.4z" fill="#fff"/><path d="m51.3 29.5-57.8 57.8h24.3l33.5-33.4z" fill="#ee2424"/><path d="m51.3 56.9-30.5 30.4h3.1l27.4-27.4z" fill="#67bc45"/></g><g clip-path="url(#f)"><path d="m-6.5 87.3h57.8v57.8h-57.8z" fill="none"/><path d="m17.8 87.3-24.3 24.4v3l27.3-27.4z" fill="#fff"/><path d="m23.9 87.3-30.4 30.5v27.3l57.8-57.8z" fill="#fff"/><path d="m-6.5 87.3v24.4l24.3-24.4z" fill="#ee2424"/><path d="m20.8 87.3-27.3 27.4v3.1l30.4-30.5z" fill="#67bc45"/><path d="m51.3 87.3-57.8 57.8h24.3l33.5-33.4z" fill="#ee2424"/></g></g><path d="m0 0h100v100h-100z" fill="#202945"/><g fill="none" stroke="#aca300" stroke-miterlimit="10"><path d="m96.2 95.2v1h-1"/><path d="m93.2 96.2h-87.4" stroke-dasharray="2.0083 2.0083"/><path d="m4.8 96.2h-1v-1"/><path d="m3.8 93.2v-87.4" stroke-dasharray="2.0083 2.0083"/><path d="m3.8 4.8v-1h1"/><path d="m6.8 3.8h87.4" stroke-dasharray="2.0083 2.0083"/><path d="m95.2 3.8h1v1"/><path d="m96.2 6.8v87.4" stroke-dasharray="2.0083 2.0083"/></g><path d="m55.2 51.7v-2.2c-1.3.8-3.2 1.2-5.7 1.5-2.9.3-4.8 1-4.8 2.7 0 1.3 1.5 2.2 3.9 2.2 3.7 0 6.6-1.2 6.6-4.2m6.2 9.1h-5.4c-.3-.6-.5-1.3-.6-2.2-1.5 1.6-3.9 2.6-7.2 2.6-4.9 0-9.5-2.5-9.5-7.6 0-5.3 4.4-6.6 9.6-7.1 3.9-.4 6.7-.8 6.7-2.7 0-1.2-1.6-2.2-4.3-2.2-2.1 0-4.6 1-5.1 2.9h-6c.6-4.4 4.8-7.7 11-7.7 9.5 0 10.2 6.1 10.2 8v12.2c0 1.1.3 2.9.6 3.8m16.9-11.2c0-10-12.5-18.2-27.9-18.2s-27.9 8.1-27.9 18.2c0 10 12.5 18.2 27.9 18.2 5.8 0 11.1-1.1 15.6-3.1l5 3.5 5.7 4-4-5.7-2.7-3.9c5.1-3.3 8.3-7.9 8.3-13" fill="#aca300"/></svg>