<svg enable-background="new 0 0 100 100" viewBox="0 0 100 100" xmlns="http://www.w3.org/2000/svg" xmlns:xlink="http://www.w3.org/1999/xlink"><clipPath id="a"><path d="m700 0h100v100h-100z"/></clipPath><clipPath id="b"><path d="m232.5-6.7h937.7v401.9h-937.7z" transform="matrix(.6711 -.7413 .7413 .6711 86.6857 583.825)"/></clipPath><clipPath id="c"><path d="m-140 140h100v100h-100z"/></clipPath><clipPath id="d"><path d="m-211.3-558.9h595v1388.2h-595z"/></clipPath><clipPath id="e"><path d="m0 140h100v100h-100z"/></clipPath><clipPath id="f"><path d="m-326 42.9h678.8v290.9h-678.8z" transform="matrix(.6991 -.715 .715 .6991 -130.6518 66.2539)"/></clipPath><path d="m0 0h100v100h-100z" fill="#63c4af"/><g clip-path="url(#a)"><g clip-path="url(#b)"><path d="m-48.6 40.5h625.1v625.1h-625.1z" fill="none" transform="matrix(.6711 -.7413 .7413 .6711 -174.9182 311.7708)"/><path d="m-48.6 40.5h625.1v625.1h-625.1z" fill="#1e0d12" transform="matrix(.6711 -.7413 .7413 .6711 -174.9182 311.7708)"/><g fill="#25793d"><path d="m141.4 114.1-.4-7.9-41.3-37.4-3.8 4.1z"/><path d="m141.8 122-49.6-44.9-3.8 4.1 53.8 48.7z"/><path d="m126.8 138.6-49.6-45-3.8 4.1 45.5 41.3z"/><path d="m142.6 137.8-57.9-52.5-3.8 4.2 53.8 48.7z"/></g></g></g><g clip-path="url(#c)"><g clip-path="url(#d)"><path d="m-35.1-327.6h466v466h-466z" fill="none"/><path d="m-35.1-327.6h466v466h-466z" fill="#fff"/><path d="m5.1 34h-8.1l8.1-8.1 8-8h8l-8 8z" fill="#1e0d12"/><path d="m37.2 34h-8l8-8.1 8-8h8.1l-8.1 8z" fill="#1e0d12"/><path d="m-11 34h-8l8-8.1 8-8h8.1l-8.1 8z" fill="#1e0d12"/><path d="m21.1 34h-8l8-8.1 8.1-8h8l-8 8z" fill="#1e0d12"/><path d="m53.3 34h-8.1l8.1-8.1 8-8h8l-8 8z" fill="#1e0d12"/><path d="m101.5 34h-8.1l8.1-8.1 8-8h8l-8 8z" fill="#1e0d12"/><path d="m85.4 34h-8l8-8.1 8-8h8.1l-8.1 8z" fill="#1e0d12"/><path d="m69.3 34h-8l8-8.1 8.1-8h8l-8 8z" fill="#1e0d12"/><g fill="#25793d"><path d="m93.4-6.2 80.4-80.3h8l-88.4 88.3z"/><path d="m93.4 9.9 96.4-96.4h8.1l-104.5 104.4z"/><path d="m93.4 25.9h8.1l104.4-104.4v-8z"/><path d="m93.4 34v-8.1h8.1z"/><path d="m93.4 42 16.1-16.1h8l-24.1 24.1z"/><path d="m93.4 58.1 32.2-32.2h8l-40.2 40.2z"/><path d="m93.4 74.1 48.2-48.2h8.1l-56.3 56.3z"/><path d="m93.4 90.2 64.3-64.3h8l-72.3 72.3z"/><path d="m93.4 106.3 80.4-80.4h8l-88.4 88.4z"/><path d="m93.4 122.3 96.4-96.4h8.1l-104.5 104.5z"/><path d="m93.4 138.4h8.1l104.4-104.4v-8.1z"/></g><g fill="#e62f34"><path d="m-35.1-6.2 80.3-80.3h8.1l-88.4 88.3z"/><path d="m-35.1 9.9 96.4-96.4h8l-104.4 104.4z"/><path d="m61.3 25.9h8l8.1-8v-8z"/><path d="m45.2 25.9h8.1l24.1-24.1v-8z"/><path d="m29.2 25.9h8l40.2-40.1v-8.1z"/><path d="m13.1 25.9h8l56.3-56.2v-8z"/><path d="m-3 25.9h8.1l72.3-72.3v-8z"/><path d="m-19 25.9h8l88.4-88.3v-8.1z"/><path d="m-35.1 25.9h8l104.5-104.4v-8z"/><path d="m-35.1 58.1 32.1-32.2h8.1l-40.2 40.2z"/><path d="m-35.1 74.1 48.2-48.2h8l-56.2 56.3z"/><path d="m-35.1 90.2 64.3-64.3h8l-72.3 72.3z"/><path d="m-35.1 106.3 80.3-80.4h8.1l-88.4 88.4z"/><path d="m-35.1 122.3 96.4-96.4h8l-104.4 104.5z"/><path d="m29.2 138.4h8l40.2-40.2v-8z"/><path d="m13.1 138.4h8l56.3-56.2v-8.1z"/><path d="m-3 138.4h8.1l72.3-72.3v-8z"/><path d="m-19 138.4h8l88.4-88.4v-8z"/><path d="m-35.1 138.4h8l104.5-104.4v-8.1z"/></g></g></g><g clip-path="url(#e)"><g clip-path="url(#f)"><path d="m125.1-65.4h232.6v232.6h-232.6z" fill="none" transform="matrix(.6991 -.715 .715 .6991 36.2301 187.9369)"/><path d="m125.1-65.4h232.6v232.6h-232.6z" fill="#25793d" transform="matrix(.6991 -.715 .715 .6991 36.2301 187.9369)"/></g><g clip-path="url(#f)"><path d="m-37.4 100.9h232.6v232.6h-232.6z" fill="none" transform="matrix(.6991 -.715 .715 .6991 -131.5726 121.7132)"/><path d="m-37.4 100.9h232.6v232.6h-232.6z" fill="#25793d" transform="matrix(.6991 -.715 .715 .6991 -131.5726 121.7132)"/><g fill="#1e0d12"><path d="m50.1 100.1v-4l-3.9 4-34.8 35.6h3.9l30.9-31.7z"/><path d="m46.2 96.2 3.8-4v-3.9l-3.9 4-42.6 43.5h2 1.9z"/><path d="m46.1 88.3 3.8-3.9v-3.9l-3.9 3.9-50.3 51.5h3.9z"/><path d="m49.9 80.5v3.9l3.9-4z"/><path d="m61.6 80.3-3.9.1-3.8 3.9-3.9 4v3.9l3.9-3.9z"/><path d="m69.5 80.3h-3.9l-11.7 11.9-3.8 3.9v4l3.9-4z"/><path d="m77.3 80.2h-3.9l-19.4 19.8-3.8 4v3.9l3.9-4z"/><path d="m85.1 80.1h-3.9l-27.1 27.7-3.9 4 .1 3.9 3.9-3.9z"/><path d="m93 80h-4l-34.8 35.7-3.9 3.9.1 3.9 3.8-3.9z"/><path d="m100.8 79.9h-3.9l-42.6 43.6-3.9 4 .1 3.9 3.8-4z"/><path d="m70.1 135.1 34.8-35.7v-3.9l-38.7 39.6z"/><path d="m104.8 87.7-46.5 47.5h4l42.5-43.6z"/><path d="m104.7 79.9-50.3 51.4-3.9 4 3.9-.1 50.3-51.4z"/></g><g fill="#e62f34"><path d="m54 96.1-3.9 4-3.9 3.9.1 3.9 3.9-3.9 3.8-4z"/><path d="m53.9 88.3-3.9 3.9-3.8 4v3.9l3.9-4 3.8-3.9z"/><path d="m50 88.3 3.9-4-.1-3.9-3.9 4-3.8 3.9v4z"/></g></g><g clip-path="url(#f)"><path d="m-41.1-228h232.6v232.6h-232.6z" fill="none" transform="matrix(.6991 -.715 .715 .6991 102.4537 20.1341)"/><path d="m-41.1-228h232.6v232.6h-232.6z" fill="#25793d" transform="matrix(.6991 -.715 .715 .6991 102.4537 20.1341)"/><g fill="#e62f34"><path d="m49.3 25.7 3.9-4-.1-3.9-3.9 3.9-1.9 2z"/><path d="m53 6-.1-3.9-3.8 4-3.9 3.9v4l3.9-4z"/><path d="m51.3 27.6 1.9 1.9v-3.9z"/><path d="m53.1 13.9-.1-3.9-3.9 3.9-3.8 4v3.9l3.9-4z"/><path d="m52.9-1.8-.1-3.9-3.8 4-3.9 3.9v3.9l3.9-3.9z"/><path d="m88.4 25.2-3.8 4 3.9-.1 3.8-3.9 3.9-4-3.9.1z"/><path d="m80.6 21.4h-4l-3.8 4-3.9 4 3.9-.1 3.9-3.9z"/><path d="m96.3 25.1-3.9 4h3.9l3.9-4 3.8-4-3.9.1z"/><path d="m88.4 21.3-3.9.1-3.9 3.9-3.9 4 3.9-.1 3.9-3.9z"/><path d="m72.7 21.5h-3.9l-3.9 4-3.8 3.9h3.9l3.9-4z"/><path d="m49.2 21.7-3.9.1 2 1.9z"/><path d="m51.3 27.6 1.9-2 3.9-3.9h-3.9l-3.9 4z"/><path d="m61 25.5 3.9-3.9h-3.9l-3.9 4-3.9 3.9h4z"/></g></g><g clip-path="url(#f)"><path d="m-203.7-61.7h232.6v232.6h-232.6z" fill="none" transform="matrix(.6991 -.715 .715 .6991 -65.349 -46.0895)"/><path d="m-203.7-61.7h232.6v232.6h-232.6z" fill="#25793d" transform="matrix(.6991 -.715 .715 .6991 -65.349 -46.0895)"/><g fill="#1e0d12"><path d="m6.8 81h-3.9l-7.7 7.9v3.9z"/><path d="m14.7 80.9h-4l-15.4 15.8v4z"/><path d="m22.5 80.8h-3.9l-23.3 23.8.1 3.9z"/><path d="m30.3 80.7h-3.9l-31 31.7.1 3.9z"/><path d="m38.2 80.6h-4l-38.7 39.6v2l.1 2z"/><path d="m46 80.5-3.9.1-46.5 47.5.1 3.9z"/></g><g fill="#e62f34"><path d="m45.9 72.7v3.9l3.9-4 3.9-3.9-.1-3.9-3.8 3.9z"/><path d="m45.7 57 .1 3.9 3.8-3.9 3.9-4v-3.9l-3.9 4z"/><path d="m49.9 80.5 3.9-4-.1-3.9-3.8 4-3.9 3.9v3.9z"/><path d="m45.8 64.9v3.9l3.9-4 3.9-3.9-.1-4-3.8 4z"/><path d="m45.6 49.2.1 3.9 3.8-3.9 3.9-4v-3.9l-3.9 3.9z"/><path d="m47.3 23.7-1.9 2v3.9l3.9-3.9z"/><path d="m49.3 29.6-3.8 3.9v4l3.9-4 3.8-4-1.9-1.9z"/><path d="m45.6 45.3 3.9-4 3.8-3.9v-4l-3.9 4-3.9 4z"/><path d="m45.3 21.8-3.8 4-3.9 3.9h3.9l3.9-4 1.9-2z"/><path d="m21.9 29.9 3.9-.1 3.9-3.9 3.9-4-3.9.1-3.9 3.9z"/><path d="m49.3 25.7-3.9 3.9h3.9l2-2z"/><path d="m33.6 25.8-3.9 4h4l3.8-4 3.9-4-3.9.1z"/><path d="m14.1 30 3.9-.1 3.9-3.9 3.8-4-3.9.1-3.8 3.9z"/><path d="m2.3 22.3h-4l-3.8 4v3.9z"/><path d="m6.2 26.1 3.9-3.9h-3.9l-3.9 4-3.9 3.9h3.9z"/><path d="m6.3 30.1 3.9-.1 3.8-3.9 3.9-4h-3.9l-3.9 4z"/></g></g></g><path d="m80.1 72.7-18-17.1h11.9l-15.4-14.7 10.6-.1-17.9-16.9-17.7 17.2 10.7-.1-15.3 14.9 12-.1-17.8 17.2z" fill="#004a54"/></svg>