<svg enable-background="new 0 0 100 100" viewBox="0 0 100 100" xmlns="http://www.w3.org/2000/svg" xmlns:xlink="http://www.w3.org/1999/xlink"><clipPath id="a"><path d="m420 0h100v100h-100z"/></clipPath><clipPath id="b"><path d="m-47.5-6.7h937.7v401.9h-937.7z" transform="matrix(.6711 -.7413 .7413 .6711 -5.3938 376.2536)"/></clipPath><clipPath id="c"><path d="m-420 140h100v100h-100z"/></clipPath><clipPath id="d"><path d="m-491.3-558.9h595v1388.2h-595z"/></clipPath><clipPath id="e"><path d="m-280 140h100v100h-100z"/></clipPath><clipPath id="f"><path d="m-606 42.9h678.8v290.9h-678.8z" transform="matrix(.6991 -.715 .715 .6991 -214.8933 -133.9426)"/></clipPath><clipPath id="g"><path d="m0 140h100v100h-100z"/></clipPath><path d="m0 0h100v100h-100z" fill="#413e34"/><g clip-path="url(#a)"><g clip-path="url(#b)"><path d="m90.9-423h625.1v625.1h-625.1z" fill="none" transform="matrix(.6711 -.7413 .7413 .6711 214.5345 262.8282)"/><path d="m90.9-423h625.1v625.1h-625.1z" fill="#1e0d12" transform="matrix(.6711 -.7413 .7413 .6711 214.5345 262.8282)"/><g fill="#e62f34"><path d="m56.6-93.2-31.5 1.6-15.8.8-7.9.4-15.7.8-23.7 1.1v.1l115.9 104.8-.4-7.9-.4-7.8-.4-7.9-.4-7.9-.4-7.9-.4-7.9-.4-7.9-.4-7.8-.4-7.9-.3-7.9-.4-7.9-.4-7.9-.4-7.9-.4-7.8-7.9.3z"/><path d="m85.8 16-8.3-7.5.4 7.9z"/><path d="m77.9 16.4-.4-7.9z"/><path d="m93.6 15.7 7.9-.4-24.8-22.5.4 7.9z"/><path d="m77.1.7-.4-7.9z"/><path d="m109.4 14.9 7.9-.4-41.4-37.5.4 7.9z"/><path d="m125.2 14.1 7.9-.4-58-52.5.4 7.9z"/><path d="m140.9 13.3 7.9-.4-74.5-67.4.4 7.9z"/><path d="m156.7 12.5 7.9-.4-91-82.4.4 7.9z"/><path d="m172.5 11.7 7.9-.4-107.6-97.4.4 7.9z"/><path d="m187.9 3.1-107.6-97.4-7.9.4 115.8 104.8z"/></g></g><g clip-path="url(#b)"><path d="m-328.6 40.5h625.1v625.1h-625.1z" fill="none" transform="matrix(.6711 -.7413 .7413 .6711 -266.9977 104.1993)"/><path d="m-328.6 40.5h625.1v625.1h-625.1z" fill="#1e0d12" transform="matrix(.6711 -.7413 .7413 .6711 -266.9977 104.1993)"/><g fill="#e62f34"><path d="m-36.8-64.8 1.6 31.5 1.1 23.7 1.6 31.5 7.9-.4 7.9-.4 7.8-.4 7.9-.3 23.7-1.2 7.9-.4 7.8-.4 7.9-.4 7.9-.4 1.6-.1 22.1-1.1-115.9-104.9z"/><path d="m70 16.8 8.3 7.5-.4-7.9z"/><path d="m79 40.1-.3-7.9-16.6-15-6.3.3-1.6.1z"/><path d="m54.2 17.6 1.6-.1z"/><path d="m79.8 55.9-.4-7.9-33.1-30-7.9.4z"/><path d="m38.4 18.4 7.9-.4z"/><path d="m80.6 71.6-.4-7.9-49.6-44.9-7.9.4z"/><path d="m22.7 19.2 7.9-.4z"/><path d="m6.9 20 74.5 67.4-.4-7.9-66.2-59.9z"/><path d="m82.2 103.2-.4-7.9-82.8-74.9-7.9.3z"/><path d="m83 118.9-.4-7.9-99.3-89.9-7.9.4z"/><path d="m12.4 130.3 7.9-.4-49.7-44.9.4 7.9z"/><path d="m36.1 129.2-66.3-60 .4 7.9 58 52.4z"/><path d="m51.8 128.4-82.7-74.9.4 7.8 74.4 67.5z"/><path d="m67.6 127.6-99.3-89.9.4 7.9 91 82.4z"/><path d="m75.5 127.2 7.9-.4-115.9-104.9.4 7.9z"/></g></g></g><g clip-path="url(#c)"><g clip-path="url(#d)"><path d="m-315.1-327.6h466v466h-466z" fill="none"/><path d="m-315.1-327.6h466v466h-466z" fill="#fff"/><g fill="#1e0d12"><path d="m46.4 25.9v-8l-8 8-8.1 8.1v8l8.1-8z"/><path d="m46.4 58.1v-8.1l-8 8.1-8.1 8v8l8.1-8z"/><path d="m46.4 9.9v-8.1l-8 8.1-8.1 8v8l8.1-8z"/><path d="m46.4-6.2v-8l-8 8-8.1 8v8.1l8.1-8.1z"/><path d="m46.4 42v-8l-8 8-8.1 8v8.1l8.1-8.1z"/><path d="m46.4 74.1v-8l-8 8-8.1 8.1v8l8.1-8z"/><path d="m46.4 106.3v-8.1l-8 8.1-8.1 8v8l8.1-8z"/><path d="m46.4 90.2v-8l-8 8-8.1 8v8.1l8.1-8.1z"/><path d="m-1.8 34h-8l8-8.1 8-8h8.1l-8.1 8z"/><path d="m30.3 34h-8l8-8.1 8.1-8h8l-8 8z"/><path d="m62.5 34h-8.1l8.1-8.1 8-8h8l-8 8z"/><path d="m14.3 34h-8.1l8.1-8.1 8-8h8l-8 8z"/><path d="m46.4 34h-8l8-8.1 8-8h8.1l-8.1 8z"/><path d="m78.5 34h-8l8-8.1 8.1-8h8l-8 8z"/><path d="m94.6 34h-8l8-8.1 8-8h8.1l-8.1 8z"/></g></g></g><g clip-path="url(#e)"><g clip-path="url(#f)"><path d="m-154.9-65.4h232.6v232.6h-232.6z" fill="none" transform="matrix(.6991 -.715 .715 .6991 -48.0114 -12.2596)"/><path d="m-154.9-65.4h232.6v232.6h-232.6z" fill="#25793d" transform="matrix(.6991 -.715 .715 .6991 -48.0114 -12.2596)"/><path d="m43.7 57.8v-3.9z" fill="none"/><path d="m43.5 34.3-.1-3.9z" fill="none"/><path d="m43.7 52v1.9l-.2-15.6z" fill="none"/><path d="m43.3 22.6v-3.9 2.6z" fill="none"/><path d="m43.4 27.9v2.5-3.9-2.6z" fill="none"/><path d="m43.3 18.7-.1-3.9z" fill="none"/><path d="m43.2 10.8-.1-11.7z" fill="none"/><path d="m43.9 73.5-.1-11.8z" fill="none"/><path d="m44 80v-.6-2z" fill="#1e0d12"/><path d="m44.2 100.9-.1-7.8v-4l-.1-3.9v-3.9z" fill="#1e0d12"/><path d="m44.4 120.5v-1.8l-.1-14.6-.1-3.2-.2-19.6v-1.3-2.6l-7.9.1h-3.9l-3.9.1h-2.6l-7 .1h-2.2l-3.9.1h-3.9l-11.7.1-3.9.1h-4l.1 3.9v3.9l.1 2.4v8.1l.1 1.3v3.9 3.9l.2 11.8v3.9l.1 3.9v3.9l.1 3.9h3.9l3.9-.1h3.9 3l12.7-.2h3.9l12-.2h3.6 3.9.1l3.9-.1z" fill="#1e0d12"/><path d="m27.6 18.9h-3.9l-3.9 4-3.8 3.9h3.9l3.9-4z" fill="#e62f34"/><path d="m12 19-3.9.1-3.9 3.9-3.9 4 3.9-.1 3.9-3.9z" fill="#e62f34"/><path d="m39.5 26.5h3.9l-.1-3.9z" fill="#e62f34"/><path d="m35.5 18.8h-4l-3.8 4-3.9 3.9h3.9l3.9-4z" fill="#e62f34"/><path d="m43.3 18.7h-3.9l-3.9 4-3.9 3.9h4l3.8-4z" fill="#e62f34"/><path d="m19.8 18.9-3.9.1-3.9 3.9-3.9 4h4l3.8-4z" fill="#e62f34"/><path d="m4.1 19.1-3.9.1-3.8 3.9-3.9 4 3.9-.1 3.9-3.9z" fill="#e62f34"/><g fill="#1e0d12"><path d="m44 77.4-.1-3.9z"/><path d="m44 77.4-.1-3.9-3.9 3.9z"/><path d="m43.8 65.7-11.6 11.8h3.9l7.8-7.9z"/><path d="m32.2 77.5h3.9z"/><path d="m43.8 61.7-.1-3.9z"/><path d="m43.7 57.8-19.3 19.8h1.3 2.6l15.5-15.9z"/><path d="m28.3 77.6h-2.6z"/><path d="m43.7 53.9v-1.9z"/><path d="m43.7 53.9v-1.9l-.1-2-27.1 27.7h2.2 1.8z"/><path d="m16.5 77.7h2.2z"/><path d="m43.6 42.2-34.9 35.6h3.9l31-31.7z"/><path d="m8.7 77.8h3.9z"/><path d="m43.5 38.3v-4z"/><path d="m4.8 77.8 38.7-39.5v-4l-42.6 43.6z"/><path d="m43.4 30.4v-2.5z"/><path d="m43.4 27.9v-1.4l-50.3 51.5 3.9-.1 46.4-47.5z"/><path d="m.3 23.1-3.9 3.9-7.7 8v3.9l11.6-11.9 3.9-4z"/><path d="m8.1 23-3.9 3.9-15.5 15.9.1 3.9 19.3-19.8 3.9-4z"/><path d="m15.9 22.9-3.8 4-23.3 23.7.1 3.9 27.1-27.7 3.8-3.9z"/><path d="m23.8 22.8-3.9 4-31 31.6.1 4 34.8-35.7 3.9-3.9z"/><path d="m31.6 22.7-3.9 4-38.7 39.6.1 3.9 42.5-43.6 3.9-3.9z"/><path d="m43.3 22.6h-3.9l-3.8 4-46.5 47.5v3.9l50.4-51.5z"/><path d="m43.3 21.3v-2.6z"/><path d="m43.3 18.7-3.9 3.9h3.9v-1.3z"/><path d="m43.2 14.8v-4z"/><path d="m43.2 10.8-7.7 8-3.9 3.9h3.9l3.9-4 3.8-3.9z"/><path d="m43.1 3-15.5 15.9-3.8 3.9h3.9l3.8-4 11.7-11.9z"/><path d="m43-4.8-23.2 23.7-3.9 4h3.9l3.9-4 19.4-19.8z"/><path d="m42.9-12.2v-.4l-30.9 31.6-3.9 4 3.9-.1 3.9-3.9 27.1-27.7z"/><path d="m42.9-16.9v-3.6l-38.8 39.6-3.8 4 3.9-.1 3.9-3.9 34.8-35.7z"/><path d="m-3.6 23.1 3.8-3.9 42.6-43.6v-3.9l-46.5 47.5-3.9 4z"/><path d="m-11.7 3.6.1 3.9 38.7-39.5h-2.6-1.4z"/><path d="m-11.6 11.5v3.9l46.5-47.5h-3.9z"/><path d="m-11.5 19.3v3.9l3.9-4 50.3-51.4h-3.9z"/><path d="m44 81.3v-1.9.6z"/><path d="m44 81.3v-1.3z"/><path d="m47.9 77.4h-3.9v2 1.9z"/><path d="m55.7 77.3h-3.9l-7.8 7.9.1 3.9z"/><path d="m63.5 77.2h-3.9l-15.5 15.9.1 3.9z"/><path d="m71.4 77.1h-4l-23.2 23.8.1 3.9z"/><path d="m79.2 77-3.9.1-31 31.6v3.9z"/><path d="m87 76.9-3.9.1-38.7 39.6v1.9 2z"/><path d="m94.8 76.8-3.9.1-46.4 47.5v3.9z"/></g><g fill="#e62f34"><path d="m94.8 69v3.9l3.9-3.9 3.8-4v-3.9l-3.9 3.9z"/><path d="m94.6 53.3v4l3.9-4 3.9-4-.1-3.9-3.8 4z"/><path d="m98.8 76.8 3.8-4v-3.9l-3.9 4-3.9 3.9.1 3.9z"/><path d="m94.7 61.2v3.9l3.9-4 3.9-3.9-.1-3.9-3.9 3.9z"/><path d="m94.5 45.5v3.9l3.9-3.9 3.9-4-.1-3.9-3.8 4z"/><path d="m96.2 20-2 2 .1 3.9 3.8-3.9z"/><path d="m98.2 25.9-3.9 4 .1 3.9 3.8-4 3.9-4-2-1.9z"/><path d="m94.5 41.6 3.8-4 3.9-3.9v-3.9l-3.9 3.9-3.9 4z"/><path d="m94.2 18.1-3.9 4-3.9 3.9h4l3.8-4 2-2z"/><path d="m70.8 26.2h3.9l3.9-4 3.8-4-3.9.1-3.8 3.9z"/><path d="m98.1 22-3.8 3.9h3.9l1.9-2z"/><path d="m82.5 22.2-3.9 3.9h3.9l3.9-4 3.9-3.9h-3.9z"/><path d="m63 26.3 3.9-.1 3.8-3.9 3.9-4-3.9.1-3.9 3.9z"/><path d="m43.4 23.9v2.6l-.1-3.9z"/><path d="m43.3 22.6.1 1.3z"/><path d="m51.1 18.6h-3.9l-3.9 4 .1 3.9z"/><path d="m55.1 22.5 3.9-4h-4l-3.8 4-3.9 4 3.9-.1z"/><path d="m55.1 26.4 3.9-.1 3.9-3.9 3.9-4-3.9.1-3.9 3.9z"/></g></g></g><g clip-path="url(#g)"><path clip-rule="evenodd" d="m-84.6 49.7h268.4v268.4h-268.4z" fill="#fff" fill-rule="evenodd"/><path d="m-62.2 60.8 16.8 16.8 5.5 5.6 5.6-5.6 16.8-16.8 16.8 16.8 5.6 5.6 5.6-5.6 16.8-16.8 22.3 22.4 5.6-5.6 16.8-16.8 16.8 16.8 5.6 5.6 5.5-5.6 16.8-16.8 16.8 16.8 5.6 5.6 5.6-5.6 16.8-16.8 22.3 22.4v-11.2l-16.8-16.8-5.5-5.5-5.6 5.5-16.8 16.8-22.4-22.3-5.6 5.5-16.7 16.8-16.8-16.8-5.6-5.5-5.6 5.5-16.8 16.8-22.3-22.3-5.6 5.5-16.8 16.8-16.8-16.8-5.6-5.5-5.6 5.5-16.8 16.8-16.7-16.8-5.6-5.5-5.6 5.5-16.8 16.8v11.2z" fill="#c92927"/><path d="m-62.2 105.6 16.8 16.8 5.5 5.5 5.6-5.5 16.8-16.8 16.8 16.8 5.6 5.5 5.6-5.5 16.8-16.8 22.3 22.3 5.6-5.5 16.8-16.8 16.8 16.8 5.6 5.5 5.5-5.5 16.8-16.8 16.8 16.8 5.6 5.5 5.6-5.5 16.8-16.8 22.3 22.3v-11.1l-16.8-16.8-5.5-5.6-5.6 5.6-16.8 16.8-22.4-22.4-5.6 5.6-16.7 16.8-16.8-16.8-5.6-5.6-5.6 5.6-16.8 16.8-22.3-22.4-5.6 5.6-16.8 16.8-16.8-16.8-5.6-5.6-5.6 5.6-16.8 16.8-16.7-16.8-5.6-5.6-5.6 5.6-16.8 16.8v11.1z" fill="#c92927"/><g fill="#96bf4d"><path d="m-62.2 83.2 16.8 16.8 5.5 5.6 5.6-5.6 16.8-16.8 16.8 16.8 5.6 5.6 5.6-5.6 16.8-16.8 22.3 22.4 5.6-5.6 16.8-16.8 16.8 16.8 5.6 5.6 5.5-5.6 16.8-16.8 16.8 16.8 5.6 5.6 5.6-5.6 16.8-16.8 22.3 22.4v-11.2l-16.8-16.8-5.5-5.6-5.6 5.6-16.8 16.8-22.4-22.4-5.6 5.6-16.7 16.8-16.8-16.8-5.6-5.6-5.6 5.6-16.8 16.8-22.3-22.4-5.6 5.6-16.8 16.8-16.8-16.8-5.6-5.6-5.6 5.6-16.8 16.8-16.7-16.8-5.6-5.6-5.6 5.6-16.8 16.8v11.2z"/><path d="m94.4 60.8 5.5-5.6 5.6-5.5h-11.1-11.2l5.6 5.5z"/><path d="m4.9 60.8 5.6-5.6 5.5-5.5h-11.1-11.2l5.6 5.5z"/><path d="m55.2 55.2 5.6-5.5h-11.2-11.1l11.1 11.1z"/></g></g><g fill="#fff"><path d="m43 37.7c1 1.1 2.2 2.2 3.6 3.3 3 2.3 6.9 4.3 11.1 4.9.3 0 .6.1.9.1 1.4-.5 3.9-2.1 3.6-5-3.2-2.9-10.6-9.7-12-10.9-2-.4-4 .4-5.1 1.5-2.9-2.5-5.2-5.1-6.3-4.1-1.1 1.1 3.8 5.6 4.6 6.3-.8 1.2-.8 2.9-.4 3.9zm4.4-5c.2-.6.9-1 1.6-.8.6.2 1 .9.7 1.6-.2.6-.9 1-1.6.7-.6-.1-.9-.9-.7-1.5z"/><path d="m65.5 36c-.7-1.3-2.3-2.9-5.7-2.5 1.3-1.3.6-3.3.1-3.9s-2.8-2-5-1c.5-1.6-.4-3.4-2.4-4.4-2.1-1-3.6 1.5-2.4 3.5 1.8 1.6 10.4 9.5 14.6 13.3 1.8-2 1.5-3.7.8-5z"/><path d="m72.8 38c1.1-.6 2.4-.2 3.2.5-.4-7.6-6.2-20.3-20.7-14.9 1.2.8 1.7 2 1.8 2.7 2.7-.6 6.6 3.3 5.4 5.8 1.9-.6 3.8 1.2 3.8 2.2 3-1.5 6.4 1.6 6.5 3.7z"/><path d="m73.6 43.7c1.3.5 2.6-.2 3.1-1.5s-.2-2.6-1.5-3.1-2.6.2-3.1 1.5c-.4 1.3.2 2.7 1.5 3.1z"/><path d="m60.3 49c-5.1-.2-10-2-14-4.3-4.5 1.9-8 8.9-8.8 10.8-1.9 0-3.3-1.6-3.6-2.2 1.1-2.8 7.1-9.8 9.3-10.5-.6-.4-1.1-.8-1.6-1.3-5.8 1-10.8 4.7-12.8 10.3-3.1 8.6 2 18.3 11.3 21.6 9.3 3.4 19.4-.9 22.5-9.5 1.8-5.1.8-10.6-2.3-14.9z"/></g></svg>