<svg enable-background="new 0 0 100 100" viewBox="0 0 100 100" xmlns="http://www.w3.org/2000/svg" xmlns:xlink="http://www.w3.org/1999/xlink"><clipPath id="a"><path d="m140 0h100v100h-100z"/></clipPath><clipPath id="b"><path d="m-327.5-6.7h937.7v401.9h-937.7z" transform="matrix(.6711 -.7413 .7413 .6711 -97.4734 168.6821)"/></clipPath><path d="m0 0h100v100h-100z" fill="#be1e2d"/><g clip-path="url(#a)"><g clip-path="url(#b)"><path d="m-189.1-423h625.1v625.1h-625.1z" fill="none" transform="matrix(.6711 -.7413 .7413 .6711 122.4549 55.2567)"/><path d="m-189.1-423h625.1v625.1h-625.1z" fill="#1e0d12" transform="matrix(.6711 -.7413 .7413 .6711 122.4549 55.2567)"/><g fill="#e62f34"><path d="m18.2-2.4.4 7.9 7.9-.4z"/><path d="m34.4 4.7 7.9-.4-24.9-22.5.4 7.9z"/><path d="m50.2 3.9 7.8-.4-41.3-37.5.3 7.9z"/><path d="m65.9 3.1 7.9-.4-57.9-52.4.4 7.9z"/><path d="m81.7 2.3 7.9-.4-74.5-67.4.4 7.9z"/><path d="m97.5 1.5 7.8-.3-91-82.5.4 7.9z"/><path d="m113.2.8 7.9-.4-107.6-97.4.4 7.9z"/><path d="m-96.5-83.7 99.4 89.9 7.8-.3-107.5-97.4z"/><path d="m-97.2-99.4 115.8 104.9-.4-7.9-107.6-97.4z"/></g><g fill="#25793d"><path d="m-96.1-75.8 91.1 82.4 7.9-.4-99.4-89.9z"/><path d="m10.7 5.9 7.9-.4-115.8-104.9.4 7.9z"/><path d="m19 13.3-.4-7.8-7.9.4z"/><path d="m19.8 29.1-.4-7.9-16.5-15-7.9.4z"/><path d="m20.6 44.9-.4-7.9-33.1-30-7.9.4z"/><path d="m21.4 60.7-.4-7.9-49.7-45-7.9.4z"/><path d="m22.1 76.4-.3-7.9-66.3-59.9-7.8.4z"/><path d="m22.9 92.2-.4-7.9-82.7-74.9-7.9.4z"/><path d="m23.7 108-.4-7.9-99.3-89.9-7.9.4z"/><path d="m8.3 116.6-99.3-89.9.4 7.9 91 82.4z"/><path d="m24.1 115.8-115.9-104.8.4 7.8 107.6 97.4z"/></g></g><g clip-path="url(#b)"><path d="m-608.6 40.5h625.1v625.1h-625.1z" fill="none" transform="matrix(.6711 -.7413 .7413 .6711 -359.0773 -103.3721)"/><path d="m-608.6 40.5h625.1v625.1h-625.1z" fill="#1e0d12" transform="matrix(.6711 -.7413 .7413 .6711 -359.0773 -103.3721)"/></g></g><g fill="#f1ebc9"><path d="m41.5 32c1.4-.3 2.4-.7 2.3-2.1.4 1.4 1.3 1.8 2.9 1.5s2.2-1 2.1-2.4c.5 1.4 1.5 1.4 2.9 1.1l-.8-4.2s-.5.1-1.1.2c-.2-1.1-.9-4.5-4.8-3.8-4 .8-3.4 4.2-3.1 5.3-.7.1-1.1.2-1.1.2zm3.6-8.9c2.2-.4 3.4.5 3.9 3.1-1.1.2-2.3.4-3.2.6-.8.2-2.1.4-3.2.6-.5-2.6.3-3.9 2.5-4.3z"/><path d="m48.1 38.8c4.9-1 7.8-1.7 10.5-3.3-1.1-.4-2.2-.8-3.4-1-2.7-.8-3.1-1.6-3.4-3-2.4 1-3.9 1.2-4.9 1.4s-2.5.5-5.1.5c.3 1.4.2 2.3-2 4-1 .6-1.9 1.4-2.8 2.2 3.1.5 6.1.1 11.1-.8z"/><path d="m54.9 75.3c7.6-1.4 13.4-6.8 15.8-13.6-4.4 2.4-9.4 4-17.3 5.5-7.9 1.4-13.1 1.8-18.1 1.1 4.7 5.5 12.1 8.4 19.6 7z"/><path d="m33.6 66c5.4 1 10.6.8 19.5-.8 8.8-1.7 13.8-3.4 18.4-6.3.5-2.5.5-5.2 0-7.8-1.2-6.4-5.3-11.6-10.6-14.5-3.3 2.3-6.6 3.2-12.4 4.3s-9.2 1.4-13.1.5c-4 4.6-5.9 10.9-4.7 17.4.5 2.6 1.5 5 2.9 7.2zm13.7-13.7-1.8-3.4 3.5 1.6-.4-8.9 2.8 8.5 2.7-2.8-.4 3.8 8.3-3.1-7.2 5.3 3.5 1.7-3.8.8 5.6 7-7.3-5.2-.5 3.8-1.9-3.4-4.9 7.5 2.7-8.5-3.8.7 2.6-2.8-8.6-2.4z"/></g></svg>