<svg enable-background="new 0 0 100 100" viewBox="0 0 100 100" xmlns="http://www.w3.org/2000/svg" xmlns:xlink="http://www.w3.org/1999/xlink"><clipPath id="a"><path d="m560-140h100v100h-100z"/></clipPath><clipPath id="b"><path d="m92.5-146.7h937.7v401.9h-937.7z" transform="matrix(.6711 -.7413 .7413 .6711 144.4317 433.9995)"/></clipPath><clipPath id="c"><path d="m-280 0h100v100h-100z"/></clipPath><clipPath id="d"><path d="m-351.3-698.9h595v1388.2h-595z"/></clipPath><clipPath id="e"><path d="m-140 0h100v100h-100z"/></clipPath><clipPath id="f"><path d="m-466-97.1h678.8v290.9h-678.8z" transform="matrix(.6991 -.715 .715 .6991 -72.6743 -75.9651)"/></clipPath><clipPath id="g"><path d="m140 0h100v100h-100z"/></clipPath><clipPath id="h"><path d="m0 280h100v100h-100z"/></clipPath><clipPath id="i"><path d="m-31.9 76.1h172.2v516.6h-172.2z"/></clipPath><clipPath id="j"><path d="m140 280h100v100h-100z"/></clipPath><clipPath id="k"><path d="m100.8 78.3h154.9v464.7h-154.9z"/></clipPath><g clip-path="url(#a)"><g clip-path="url(#b)"><path d="m-188.6-99.5h625.1v625.1h-625.1z" fill="none" transform="matrix(.6711 -.7413 .7413 .6711 -117.1723 161.9453)"/><path d="m-188.6-99.5h625.1v625.1h-625.1z" fill="#1e0d12" transform="matrix(.6711 -.7413 .7413 .6711 -117.1723 161.9453)"/><g fill="#25793d"><path d="m-104.9 60.5 2.4 49.3.2 3.8 8.5-.4 7.3-.3 9.7-.5 6-.3 7.9-.4 4.8-.3 11-.5 3.7-.2 12.1-.6 2.6-.1 13.1-.7 1.6-.1 22.1-1.1-2.8-55.1-2.7-55.2-7.9.4-7.9.4-47.3 2.3-47.3 2.4 2.8 55.1z"/><path d="m7.3 92.4 16.6 15 7.8-.4-24.8-22.5z"/><path d="m6.5 76.6 33.1 30 7.9-.4-41.4-37.5z"/><path d="m55.4 105.8 7.9-.4-58-52.4.4 7.8z"/><path d="m5 45.1 66.2 59.9 7.8-.4-74.4-67.4z"/><path d="m4.2 29.3 82.7 74.9 7.9-.4-91-82.4z"/><path d="m3.4 13.5 99.3 90 7.9-.4-107.6-97.4z"/><path d="m113.4.2-8.3-7.5-7.9.4 16.6 15z"/><path d="m114.2 15.9-24.9-22.4-7.9.4 33.1 29.9z"/><path d="m114.9 31.7-41.3-37.4-7.9.3 49.6 45z"/><path d="m115.7 47.5-57.9-52.5-7.9.4 66.2 60z"/><path d="m116.5 63.3-74.5-67.5-7.9.4 82.8 74.9z"/><path d="m117.3 79-91-82.4-7.9.4 99.3 89.9z"/><path d="m10.5-2.6-7.9.4 115.9 104.9-.4-7.9z"/></g></g></g><g clip-path="url(#c)"><g clip-path="url(#d)"><path d="m-175.1-1.6h466v466h-466z" fill="none"/><path d="m-175.1-1.6h466v466h-466z" fill="#fff"/><g fill="#25793d"><path d="m-46.6-1.6h112.5v112.5h-112.5z"/><path d="m178.4 30.5-80.4 80.4h-8l88.4-88.4z"/><path d="m178.4 14.5-96.4 96.4h-8.1l104.5-104.5z"/><path d="m82-1.6h-8.1l-8 8v8.1z"/><path d="m98-1.6h-8l-24.1 24.1v8z"/><path d="m114.1-1.6h-8l-40.2 40.2v8z"/><path d="m130.2-1.6h-8.1l-56.2 56.2v8.1z"/><path d="m146.2-1.6h-8l-72.3 72.3v8z"/><path d="m162.3-1.6h-8l-88.4 88.4v8z"/><path d="m178.4-1.6h-8.1l-104.4 104.5v8z"/></g></g></g><g clip-path="url(#e)"><g clip-path="url(#f)"><path d="m-14.9-205.4h232.6v232.6h-232.6z" fill="none" transform="matrix(.6991 -.715 .715 .6991 94.2076 45.7179)"/><path d="m-14.9-205.4h232.6v232.6h-232.6z" fill="#25793d" transform="matrix(.6991 -.715 .715 .6991 94.2076 45.7179)"/><g fill="#e62f34"><path d="m75.6 48.3 3.8-4v-3.9l-3.9 3.9-1.9 2z"/><path d="m79.3 28.6-.1-3.9-3.9 4-3.8 3.9v4l3.9-4z"/><path d="m77.5 50.2 2 1.9v-3.9z"/><path d="m79.3 36.5v-4l-3.9 4-3.8 4v3.9l3.9-4z"/><path d="m79.2 20.8-.1-3.9-3.9 3.9-3.8 4v3.9l3.9-3.9z"/><path d="m79 5.1-.1-3.9-3.8 4-3.9 3.9v4l3.9-4z"/><path d="m79.1 13-.1-3.9-3.8 3.9-3.9 4v3.9l3.9-4z"/><path d="m75-2.6-3.9 3.9.1 3.9 3.8-3.9 3.9-4v-3.9z"/><path d="m106.8 44h-3.9l-3.9 4-3.8 3.9h3.9l3.9-4z"/><path d="m99 44.1h-3.9l-3.9 4-3.9 3.9h4l3.8-4z"/><path d="m75.5 44.3-3.9.1 2 1.9z"/><path d="m77.5 50.2 2-2 3.8-3.9h-3.9l-3.8 4z"/><path d="m87.3 48.1 3.9-3.9h-3.9l-3.9 4-3.9 3.9h3.9z"/></g></g><g clip-path="url(#f)"><path d="m-177.4-39.1h232.6v232.6h-232.6z" fill="none" transform="matrix(.6991 -.715 .715 .6991 -73.5952 -20.5058)"/><path d="m-177.4-39.1h232.6v232.6h-232.6z" fill="#25793d" transform="matrix(.6991 -.715 .715 .6991 -73.5952 -20.5058)"/><path d="m21.1 84.1v-3.9z" fill="none"/><path d="m20.9 60.6-.1-3.9z" fill="none"/><path d="m21.1 78.3v1.9l-.2-15.7z" fill="none"/><path d="m20.7 48.9v-3.9 2.6z" fill="none"/><path d="m20.8 54.2v2.5-3.9-2.6z" fill="none"/><path d="m20.7 45v-4z" fill="none"/><path d="m20.4 14.1v3.4l-.1-11.7v3.6z" fill="none"/><path d="m20.6 37.1-.1-11.7z" fill="none"/><path d="m21.3 99.8-.1-11.8z" fill="none"/><path d="m20.4 21.5v-4z" fill="none"/><path d="m20.3 5.8-.1-3.9z" fill="none"/><path d="m5 45.1-3.9.1-3.8 3.9-3.9 4 3.9-.1 3.9-3.9z" fill="#e62f34"/><path d="m16.9 52.8h3.9l-.1-3.9z" fill="#e62f34"/><path d="m12.9 45-3.9.1-3.9 3.9-3.9 4h3.9l3.9-4z" fill="#e62f34"/><path d="m20.7 45h-3.9l-3.9 4-3.9 3.9h4l3.8-4z" fill="#e62f34"/><g fill="#1e0d12"><path d="m21.4 103.7-.1-3.9z"/><path d="m21.4 103.7-.1-3.9-3.9 3.9z"/><path d="m21.2 91.9-11.6 11.9h3.9l7.8-8z"/><path d="m21.2 88-.1-3.9z"/><path d="m21.1 84.1-19.3 19.8h1.3 2.6l15.5-15.9z"/><path d="m21.1 80.2v-1.9z"/><path d="m21.1 80.2v-1.9-2l-27.1 27.7h2.1l1.8-.1z"/><path d="m21 68.4-34.9 35.7 3.9-.1 31-31.6z"/><path d="m20.9 64.5v-3.9z"/><path d="m-17.8 104.1 38.7-39.6v-3.9l-42.6 43.6z"/><path d="m20.8 56.7v-2.5z"/><path d="m20.8 54.2v-1.4l-50.3 51.4h3.9l46.4-47.5z"/><path d="m1.2 49.1-3.9 3.9-31 31.7.1 3.9 34.8-35.6 3.9-4z"/><path d="m9 49-3.9 4-38.7 39.5.1 4 42.5-43.6 3.9-3.9z"/><path d="m20.7 48.9h-3.9l-3.8 4-46.5 47.5v3.9l50.4-51.5z"/><path d="m20.7 47.6v-2.6z"/><path d="m20.7 45-3.9 3.9h3.9v-1.3z"/><path d="m20.7 41-.1-3.9z"/><path d="m20.6 37.1-7.7 7.9-3.9 4h3.9l3.9-4 3.9-4z"/><path d="m20.5 29.3-15.5 15.8-3.8 4 3.9-.1 3.9-3.9 11.6-11.9z"/><path d="m20.5 25.4-.1-3.9z"/><path d="m20.4 21.5-23.2 23.7-3.9 4 4-.1 3.8-3.9 19.4-19.8z"/><path d="m20.4 17.5v-3.4z"/><path d="m20.4 14.1v-.5l-31 31.7-3.9 4 3.9-.1 3.9-3.9 27.1-27.8z"/><path d="m20.3 9.4v-3.6z"/><path d="m20.3 9.4v-3.6l-38.7 39.6-3.9 4 3.9-.1 3.9-4 34.8-35.6z"/><path d="m20.2 1.9v-3.9z"/><path d="m-26.2 49.4 3.8-4 42.6-43.5v-3.9l-46.5 47.5-3.8 3.9z"/><path d="m-34.3 29.9.1 3.9 38.7-39.6-2.6.1h-1.3z"/><path d="m-34.2 37.7v4l46.5-47.6-3.9.1z"/><path d="m-34.1 45.6v3.9l3.9-4 50.3-51.4h-3.9z"/></g><g fill="#e62f34"><path d="m72.2 95.3v3.9l3.9-4 3.9-3.9-.1-3.9-3.9 3.9z"/><path d="m72 79.6v3.9l3.9-3.9 3.9-4-.1-3.9-3.8 4z"/><path d="m76.2 103.1 3.8-4v-3.9l-3.9 4-3.8 3.9v3.9z"/><path d="m72.1 87.4v4l3.9-4 3.9-4-.1-3.9-3.8 4z"/><path d="m71.9 71.8v3.9l3.9-4 3.9-3.9-.1-3.9-3.8 3.9z"/><path d="m73.6 46.3-2 2 .1 3.9 3.9-3.9z"/><path d="m75.6 52.2-3.9 3.9.1 3.9 3.8-3.9 3.9-4-2-1.9z"/><path d="m71.9 67.9 3.8-4 3.9-3.9v-4l-3.9 4-3.9 4z"/><path d="m71.6 44.4-3.9 3.9-3.8 4h3.9l3.8-4 2-2z"/><path d="m48.2 52.5 3.9-.1 3.9-3.9 3.9-4-4 .1-3.8 3.9z"/><path d="m75.6 48.3-3.9 3.9h3.9l1.9-2z"/><path d="m59.9 48.4-3.9 4 3.9-.1 3.9-3.9 3.9-4-3.9.1z"/><path d="m40.4 52.6 3.9-.1 3.9-3.9 3.8-4h-3.9l-3.9 4z"/><path d="m20.8 50.2v2.6l-.1-3.9z"/><path d="m20.7 48.9.1 1.3z"/><path d="m28.5 44.9h-3.9l-3.9 4 .1 3.9z"/><path d="m32.5 48.7 3.9-3.9h-4l-3.8 4-3.9 3.9h3.9z"/><path d="m32.5 52.7 4-.1 3.8-4 3.9-3.9h-3.9l-3.9 4z"/></g></g></g><path d="m0 0h100v100h-100z" fill="#96bf4d"/><g clip-path="url(#g)"><path clip-rule="evenodd" d="m55.4-90.3h268.4v268.4h-268.4z" fill="#fff" fill-rule="evenodd"/><g fill="#c92927"><path d="m77.8 10.3 16.8 16.8 5.5 5.6 5.6-5.6 16.8-16.8 16.8 16.8 5.6 5.6 5.6-5.6 16.8-16.8 22.3 22.4 5.6-5.6 16.8-16.8 16.8 16.8 5.6 5.6 5.5-5.6 16.8-16.8 16.8 16.8 5.6 5.6 5.6-5.6 16.8-16.8 22.3 22.4v-11.2l-16.8-16.8-5.5-5.6-5.6 5.6-16.8 16.8-22.4-22.4-5.6 5.6-16.7 16.8-16.8-16.8-5.6-5.6-5.6 5.6-16.8 16.8-22.3-22.4-5.6 5.6-16.8 16.8-16.8-16.8-5.6-5.6-5.6 5.6-16.8 16.8-16.7-16.8-5.6-5.6-5.6 5.6-16.8 16.8v11.2z"/><path d="m77.8 55 16.8 16.8 5.5 5.6 5.6-5.6 16.8-16.8 16.8 16.8 5.6 5.6 5.6-5.6 16.8-16.8 22.3 22.4 5.6-5.6 16.8-16.8 16.8 16.8 5.6 5.6 5.5-5.6 16.8-16.8 16.8 16.8 5.6 5.6 5.6-5.6 16.8-16.8 22.3 22.4v-11.2l-16.8-16.7-5.5-5.6-5.6 5.6-16.8 16.7-22.4-22.3-5.6 5.6-16.7 16.7-16.8-16.7-5.6-5.6-5.6 5.6-16.8 16.7-22.3-22.3-5.6 5.6-16.8 16.7-16.8-16.7-5.6-5.6-5.6 5.6-16.8 16.7-16.7-16.7-5.6-5.6-5.6 5.6-16.8 16.7v11.2z"/><path d="m77.8 99.8 16.8 16.8 5.5 5.5 5.6-5.5 16.8-16.8 16.8 16.8 5.6 5.5 5.6-5.5 16.8-16.8 22.3 22.3 5.6-5.5 16.8-16.8 16.8 16.8 5.6 5.5 5.5-5.5 16.8-16.8 16.8 16.8 5.6 5.5 5.6-5.5 16.8-16.8 22.3 22.3v-11.1l-16.8-16.8-5.5-5.6-5.6 5.6-16.8 16.8-22.4-22.4-5.6 5.6-16.7 16.8-16.8-16.8-5.6-5.6-5.6 5.6-16.8 16.8-22.3-22.4-5.6 5.6-16.8 16.8-16.8-16.8-5.6-5.6-5.6 5.6-16.8 16.8-16.7-16.8-5.6-5.6-5.6 5.6-16.8 16.8v11.1z"/></g><g fill="#96bf4d"><path d="m77.8-12.1 16.8 16.8 5.5 5.6 5.6-5.6 16.8-16.8 16.8 16.8 5.6 5.6 5.6-5.6 16.8-16.8 22.3 22.4 5.6-5.6 16.8-16.8 16.8 16.8 5.6 5.6 5.5-5.6 16.8-16.8 16.8 16.8 5.6 5.6 5.6-5.6 16.8-16.8 22.3 22.4v-11.2l-16.8-16.7-5.5-5.6-5.6 5.6-16.8 16.7-22.4-22.3-5.6 5.6-16.7 16.7-16.8-16.7-5.6-5.6-5.6 5.6-16.8 16.7-22.3-22.3-5.6 5.6-16.8 16.7-16.8-16.7-5.6-5.6-5.6 5.6-16.8 16.7-16.7-16.7-5.6-5.6-5.6 5.6-16.8 16.7v11.2z"/><path d="m77.8 32.7 16.8 16.8 5.5 5.5 5.6-5.5 16.8-16.8 16.8 16.8 5.6 5.5 5.6-5.5 16.8-16.8 22.3 22.3 5.6-5.5 16.8-16.8 16.8 16.8 5.6 5.5 5.5-5.5 16.8-16.8 16.8 16.8 5.6 5.5 5.6-5.5 16.8-16.8 22.3 22.3v-11.1l-16.8-16.8-5.5-5.6-5.6 5.6-16.8 16.8-22.4-22.4-5.6 5.6-16.7 16.8-16.8-16.8-5.6-5.6-5.6 5.6-16.8 16.8-22.3-22.4-5.6 5.6-16.8 16.8-16.8-16.8-5.6-5.6-5.6 5.6-16.8 16.8-16.7-16.8-5.6-5.6-5.6 5.6-16.8 16.8v11.1z"/><path d="m77.8 77.4 16.8 16.8 5.5 5.6 5.6-5.6 16.8-16.8 16.8 16.8 5.6 5.6 5.6-5.6 16.8-16.8 22.3 22.4 5.6-5.6 16.8-16.8 16.8 16.8 5.6 5.6 5.5-5.6 16.8-16.8 16.8 16.8 5.6 5.6 5.6-5.6 16.8-16.8 22.3 22.4v-11.2l-16.8-16.8-5.5-5.6-5.6 5.6-16.8 16.8-22.4-22.4-5.6 5.6-16.7 16.8-16.8-16.8-5.6-5.6-5.6 5.6-16.8 16.8-22.3-22.4-5.6 5.6-16.8 16.8-16.8-16.8-5.6-5.6-5.6 5.6-16.8 16.8-16.7-16.8-5.6-5.6-5.6 5.6-16.8 16.8v11.2z"/></g></g><g clip-path="url(#h)"><g clip-path="url(#i)"><path d="m84.3 76.1h57.5v57.5h-57.5z" fill="none"/><g fill="#ee2424"><path d="m87.7 76.1-3.4 3.4v3.3l6.7-6.7z"/><path d="m118.1 76.1-33.8 33.8v3.4l37.2-37.2z"/><path d="m124.9 76.1-40.6 40.6v16.9l57.5-57.5z"/></g><path d="m91 76.1-6.7 6.7v27.1l33.8-33.8z" fill="#67bc45"/><path d="m87.7 76.1h-3.4v3.4z" fill="#fff"/><path d="m121.5 76.1-37.2 37.2v3.4l40.6-40.6z" fill="#fff"/><path d="m141.8 79.5-54.1 54.1h3.3l50.8-50.8z" fill="#ee2424"/><path d="m141.8 82.8-50.8 50.8h27.1l23.7-23.7z" fill="#67bc45"/><path d="m141.8 76.1-57.5 57.5h3.4l54.1-54.1z" fill="#fff"/></g><g clip-path="url(#i)"><path d="m26.8 76.1h57.5v57.5h-57.5z" fill="none"/><g fill="#ee2424"><path d="m30.2 76.1-3.4 3.4v3.3l6.7-6.7z"/><path d="m60.6 76.1-33.8 33.8v3.4l37.2-37.2z"/><path d="m67.4 76.1-40.6 40.6v16.9l57.5-57.5z"/></g><path d="m33.5 76.1-6.7 6.7v27.1l33.8-33.8z" fill="#67bc45"/><path d="m30.2 76.1h-3.4v3.4z" fill="#fff"/><path d="m64 76.1-37.2 37.2v3.4l40.6-40.6z" fill="#fff"/><path d="m84.3 79.5-54.1 54.1h3.3l50.8-50.8z" fill="#ee2424"/><path d="m84.3 82.8-50.8 50.8h27.1l23.7-23.7z" fill="#67bc45"/><path d="m84.3 76.1-57.5 57.5h3.4l54.1-54.1z" fill="#fff"/></g><g clip-path="url(#i)"><path d="m-30.7 76.1h57.5v57.5h-57.5z" fill="none"/><path d="m3.1 76.1-33.8 33.8v3.4l37.2-37.2z" fill="#ee2424"/><path d="m9.9 76.1-40.6 40.6v16.9l57.5-57.5z" fill="#ee2424"/><path d="m-24 76.1-6.7 6.7v27.1l33.8-33.8z" fill="#67bc45"/><path d="m6.5 76.1-37.2 37.2v3.4l40.6-40.6z" fill="#fff"/><path d="m26.8 79.5-54.1 54.1h3.3l50.8-50.8z" fill="#ee2424"/><path d="m26.8 82.8-50.8 50.8h27.1l23.7-23.7z" fill="#67bc45"/><path d="m26.8 76.1-57.5 57.5h3.4l54.1-54.1z" fill="#fff"/></g></g><g clip-path="url(#j)"><g clip-path="url(#k)"><path d="m80 78.3h57.8v57.8h-57.8z" fill="none"/><path d="m104.4 78.3-24.4 24.3v3.1l27.4-27.4z" fill="#fff"/><path d="m110.4 78.3-30.4 30.4v27.4l57.8-57.8z" fill="#fff"/><path d="m80 78.3v24.3l24.4-24.3z" fill="#ee2424"/><path d="m107.4 78.3-27.4 27.4v3l30.4-30.4z" fill="#67bc45"/><path d="m137.8 78.3-57.8 57.8h24.4l33.4-33.5z" fill="#ee2424"/></g></g><g clip-rule="evenodd" fill-rule="evenodd"><path d="m42 36.2c-1.4-3.3 0-7.1 3.3-8.5s7.1 0 8.5 3.3l1.7 3.8c.7 1.5 2.5 2.2 4 1.6 1.5-.7 2.2-2.5 1.6-4l-1.7-3.8c-2.8-6.4-10.2-9.2-16.6-6.4s-9.2 10.2-6.4 16.6l16.6 37.6c.7 1.5 2.5 2.2 4 1.6 1.5-.7 2.2-2.5 1.6-4z" fill="#fff"/><g fill="#c92927"><path d="m52.5 60.1-8-3.1-2.1-4.7 8 3.1z"/><path d="m47.8 49.4-8.1-3.1-2-4.7 8 3.1z"/><path d="m43.2 38.9-7.6-3c-.2-1.3-.3-2.7-.1-4l6 2.3c.1.6.2 1.3.5 1.9z"/><path d="m59.5 36.3c-1.5.7-3.3 0-4-1.6l-1-2.2 6.8.8c.1 1.4-.6 2.5-1.8 3z"/><path d="m44.3 28.2c-.8.5-1.5 1.3-2 2.2-.1.2-.2.4-.3.6l-4.8-4c.7-1.1 1.4-2 2.3-2.8z"/><path d="m46.3 27.4.2-6.2c1.2-.1 2.4-.1 3.6.1l-.2 6.2c-1.2-.4-2.4-.4-3.6-.1z"/><path d="m51.4 28.2 4.7-4.1c.8.7 1.5 1.5 2.1 2.4l.3.4-4.7 4-.5-.9c-.5-.8-1.2-1.4-1.9-1.8z"/><path d="m52 74 6.6 2.6c-.3.6-.8 1.1-1.5 1.4-1.5.7-3.3 0-4-1.6z"/><path d="m57.3 70.9-8.1-3.2-2.1-4.7 8.1 3.1z"/></g></g></svg>