<svg enable-background="new 0 0 100 100" viewBox="0 0 100 100" xmlns="http://www.w3.org/2000/svg" xmlns:xlink="http://www.w3.org/1999/xlink"><clipPath id="a"><path d="m700-280h100v100h-100z"/></clipPath><clipPath id="b"><path d="m232.5-286.7h937.7v401.9h-937.7z" transform="matrix(.6711 -.7413 .7413 .6711 294.2572 491.7455)"/></clipPath><clipPath id="c"><path d="m-140-140h100v100h-100z"/></clipPath><clipPath id="d"><path d="m-211.3-838.9h595v1388.2h-595z"/></clipPath><clipPath id="e"><path d="m0-140h100v100h-100z"/></clipPath><clipPath id="f"><path d="m-326-237.1h678.8v290.9h-678.8z" transform="matrix(.6991 -.715 .715 .6991 69.5447 -17.9877)"/></clipPath><clipPath id="g"><path d="m-140 0h100v100h-100z"/></clipPath><clipPath id="h"><path d="m140 140h100v100h-100z"/></clipPath><clipPath id="i"><path d="m108.1-63.9h172.2v516.6h-172.2z"/></clipPath><g clip-path="url(#a)"><g clip-path="url(#b)"><path d="m-48.6-239.5h625.1v625.1h-625.1z" fill="none" transform="matrix(.6711 -.7413 .7413 .6711 32.6532 219.6912)"/><path d="m-48.6-239.5h625.1v625.1h-625.1z" fill="#1e0d12" transform="matrix(.6711 -.7413 .7413 .6711 32.6532 219.6912)"/><path d="m44 99.8 99.3 89.9 7.9-.4-107.6-97.4z" fill="#e62f34"/><path d="m98.4 81.3-7.9.4z" fill="#e62f34"/><path d="m156.3 133.7-57.9-52.4-7.9.4 66.2 59.9z" fill="#e62f34"/><path d="m82.6 82.1v-.1l-7.9.4z" fill="#e62f34"/><path d="m74.7 82.4 82.8 75-.4-7.9-74.5-67.4z" fill="#e62f34"/><path d="m66.8 82.8-7.8.4z" fill="#e62f34"/><path d="m59 83.2 99.3 89.9-.4-7.9-91.1-82.4z" fill="#e62f34"/><path d="m51.1 83.6-7.9.4z" fill="#e62f34"/><path d="m43.2 84 115.9 104.9-.4-7.9-107.6-97.4z" fill="#e62f34"/><g fill="#25793d"><path d="m150.4 15.5-49.6-45-4.2.2-3.7.2 57.9 52.4z"/><path d="m151.2 31.2-66.2-59.9-3.1.1-4.8.3 74.5 67.4z"/><path d="m152.4 54.9-.4-7.9-82.8-74.9-6 .3-1.8.1z"/><path d="m153.2 70.6-.4-7.8-99.3-89.9-7.3.3h-.6z"/><path d="m59 83.2-16.6-15 .4 7.9 8.3 7.5z"/><path d="m74.7 82.4-33.1-29.9.4 7.9 24.8 22.4z"/><path d="m90.5 81.7-49.6-45 .3 7.9 41.4 37.4z"/><path d="m106.3 80.9-66.2-60 .4 7.9 57.9 52.5z"/><path d="m122 80.1-82.7-74.9.4 7.9 74.4 67.4z"/><path d="m137.8 79.3-99.3-89.9.4 7.9 91 82.4z"/><path d="m153.6 78.5-115.9-104.9.4 7.9 107.6 97.4z"/><path d="m106.3 80.9-7.9.4z"/><path d="m156.3 133.7-.4-7.9-49.6-44.9-7.9.4z"/><path d="m90.5 81.7-7.9.3v.1z"/><path d="m157.1 149.5-.4-7.9-66.2-59.9-7.9.4z"/><path d="m74.7 82.4-7.9.4z"/><path d="m66.8 82.8 91.1 82.4-.4-7.8-82.8-75z"/><path d="m59 83.2-7.9.4z"/><path d="m59 83.2-7.9.4 107.6 97.4-.4-7.9z"/><path d="m44.4 107.7 91 82.4 7.9-.4-99.3-89.9z"/><path d="m151.2 189.3 7.9-.4-115.9-104.9.4 7.9z"/></g><path d="m43.6 91.9.4 7.9z" fill="#e62f34"/><path d="m44.4 107.7-.4-7.9z" fill="#25793d"/><path d="m43.6 91.9-.4-7.9z" fill="#25793d"/><g fill="#e62f34"><path d="m32.9 195.2 7.9-.4-107.6-97.4.4 7.9z"/><path d="m35.3 84.4-7.9.4z"/><path d="m44 99.8-.4-7.9z"/><path d="m43.6 91.9-8.3-7.5-7.9.4 16.6 15z"/><path d="m43.6 91.9.4 7.9z"/><path d="m43.6 91.9.4 7.9z"/><path d="m19.5 85.2-7.8.4z"/><path d="m44.4 107.7-24.9-22.5-7.8.4 33.1 29.9z"/><path d="m3.8 86-7.9.4z"/><path d="m45.2 123.4-41.4-37.4-7.9.4 49.6 44.9z"/><path d="m45.9 139.2-57.9-52.4-7.9.3 66.2 60z"/><path d="m46.7 155-74.5-67.5-7.8.4 82.7 74.9z"/><path d="m47.5 170.7-91-82.4-7.9.4 99.3 89.9z"/><path d="m48.3 186.5-107.6-97.4-7.9.4 115.9 104.9z"/></g></g></g><g clip-path="url(#c)"><g clip-path="url(#d)"><path d="m-35.1-141.6h466v466h-466z" fill="none"/><path d="m-35.1-141.6h466v466h-466z" fill="#fff"/><path d="m-35.1-13h112.5v112.5h-112.5z" fill="#e62f34"/><path d="m93.4-13h-8l-8 8v8z" fill="#e62f34"/><path d="m93.4 19.1v-8l-8 8-8 8v8.1l8-8.1z" fill="#e62f34"/><path d="m93.4 3v-8l-8 8-8 8.1v8l8-8z" fill="#e62f34"/><path d="m93.4 35.2v-8.1l-8 8.1-8 8v8l8-8z" fill="#e62f34"/><path d="m93.4 83.4v-8.1l-8 8.1-8 8v8l8-8z" fill="#e62f34"/><path d="m93.4 67.3v-8l-8 8-8 8v8.1l8-8.1z" fill="#e62f34"/><path d="m93.4 51.2v-8l-8 8-8 8.1v8l8-8z" fill="#e62f34"/><path d="m93.4 99.4v-8l-8 8z" fill="#e62f34"/><g fill="#25793d"><path d="m93.4 107.5v-8.1h8.1z"/><path d="m93.4 115.5 16.1-16.1h8l-24.1 24.1z"/><path d="m93.4 131.6 32.2-32.2h8l-40.2 40.2z"/><path d="m93.4 147.6 48.2-48.2h8.1l-56.3 56.3z"/><path d="m93.4 163.7 64.3-64.3h8l-72.3 72.3z"/><path d="m93.4 179.8 80.4-80.4h8l-88.4 88.4z"/><path d="m93.4 195.8 96.4-96.4h8.1l-104.5 104.5z"/><path d="m93.4 211.9h8.1l104.4-104.4v-8.1z"/><path d="m93.4 3 16.1-16h8l-24.1 24.1z"/><path d="m93.4 19.1 32.2-32.1h8l-40.2 40.1z"/><path d="m93.4 35.2 48.2-48.2h8.1l-56.3 56.2z"/><path d="m93.4 51.2 64.3-64.2h8l-72.3 72.3z"/><path d="m93.4 67.3 80.4-80.3h8l-88.4 88.3z"/><path d="m93.4 83.4 96.4-96.4h8.1l-104.5 104.4z"/><path d="m93.4 99.4h8.1l104.4-104.4v-8z"/></g><g fill="#e62f34"><path d="m-35.1 131.6 32.1-32.2h8.1l-40.2 40.2z"/><path d="m-35.1 147.6 48.2-48.2h8l-56.2 56.3z"/><path d="m-35.1 163.7 64.3-64.3h8l-72.3 72.3z"/><path d="m-35.1 179.8 80.3-80.4h8.1l-88.4 88.4z"/><path d="m-35.1 195.8 96.4-96.4h8l-104.4 104.5z"/><path d="m-35.1 211.9h8l104.5-104.4v-8.1z"/><path d="m109.5-13h-8l-8.1 8v8z"/><path d="m125.6-13h-8.1l-24.1 24.1v8z"/><path d="m141.6-13h-8l-40.2 40.1v8.1z"/><path d="m157.7-13h-8l-56.3 56.2v8z"/><path d="m173.8-13h-8.1l-72.3 72.3v8z"/><path d="m189.8-13h-8l-88.4 88.3v8.1z"/><path d="m205.9-13h-8l-104.5 104.4v8z"/></g></g></g><g clip-path="url(#e)"><g clip-path="url(#f)"><path d="m-37.4-179.1h232.6v232.6h-232.6z" fill="none" transform="matrix(.6991 -.715 .715 .6991 68.6238 37.4717)"/><path d="m-37.4-179.1h232.6v232.6h-232.6z" fill="#25793d" transform="matrix(.6991 -.715 .715 .6991 68.6238 37.4717)"/><g fill="#1e0d12"><path d="m32.2-34.9-4 .1-30.9 31.6v4z"/><path d="m40-35-3.9.1-38.7 39.6v1.4 2.5z"/><path d="m47.8-35h-3.9l-46.4 47.5v3.9z"/><path d="m52.3 15.8v-3.9l-3.9 3.9-3.9 4h3.9z"/><path d="m52.2 8v-3.9l-3.9 3.9-11.6 11.9h.9 3l7.8-8z"/><path d="m48.3 4.1 3.8-4v-3.9l-3.9 4-19.3 19.8 3.1-.1h.8z"/><path d="m52-7.7v-3.9l-3.9 4-27.1 27.7 3.9-.1 23.3-23.7z"/><path d="m17.1 20.1 31-31.7 3.9-3.9-.1-3.9-3.9 3.9-34.8 35.7z"/><path d="m51.9-23.3-.1-4-3.8 4-42.6 43.5h3.9l38.7-39.6z"/><path d="m47.9-27.2 3.9-4-.1-3.9-3.8 4-50.4 51.4h4z"/><path d="m52.1.1 3.9-3.9 31-31.7-3.9.1-27.1 27.7-3.9 3.9z"/><path d="m52.2 8 3.9-4 38.7-39.6-3.9.1-34.9 35.6-3.8 4z"/><path d="m52.3 15.8 3.9-4 46.4-47.5-3.9.1-42.6 43.5-3.8 4z"/><path d="m101.8 19.2 1.4-.1 3.9-3.9v-3.9l-7.8 7.9z"/><path d="m95.4 19.2 11.6-11.8v-4l-15.5 15.9z"/><path d="m106.9-4.4-23.2 23.8 3.9-.1 19.3-19.8z"/><path d="m79.8 19.4 27.1-27.7-.1-3.9-31 31.7z"/><path d="m68 19.5h2.2 1.7l34.9-35.6v-1.3l-.1-2.6z"/><path d="m64.1 19.6 42.6-43.6v-1.6l-.1-2.3-46.4 47.5z"/><path d="m56.3 19.7 50.3-51.5-.1-3.9-50.3 51.5-3.8 3.9z"/></g><g fill="#e62f34"><path d="m48.3 4.1v3.9l3.9-3.9 3.8-4v-3.9l-3.9 3.9z"/><path d="m48.4 11.9v3.9l3.9-3.9 3.8-4v-3.9l-3.9 4z"/><path d="m48.4 19.8 2.7-.1h1.3l3.8-3.9v-4l-3.9 4z"/><path d="m48.2-3.7v3.9l3.9-4 3.9-3.9-.1-3.9-3.9 3.9z"/><path d="m53 74.5 3.8-3.9v-3.9l-3.9 3.9-1.9 2z"/><path d="m56.7 54.9-.1-3.9-3.9 4-3.8 3.9v3.9l3.9-3.9z"/><path d="m54.9 76.5 2 1.9v-3.9z"/><path d="m56.8 62.7-.1-3.9-3.9 4-3.8 3.9v4l3.9-4z"/><path d="m56.6 47.1-.1-3.9-3.8 3.9-3.9 4v3.9l3.9-4z"/><path d="m56.4 31.4v-3.9l-3.9 4-3.9 3.9.1 3.9 3.8-3.9z"/><path d="m56.5 39.3-.1-4-3.8 4-3.9 4v3.9l3.9-4z"/><path d="m51.1 19.7h1.3z"/><path d="m48.4 19.8.1 3.9 3.9-4h-1.3z"/><path d="m52.4 23.6-3.9 4 .1 3.9 3.8-4 3.9-3.9v-3.9z"/><path d="m92.1 74.1-3.9 4 4-.1 3.8-4 3.9-3.9h-3.9z"/><path d="m84.2 70.3h-3.9l-3.8 4-3.9 3.9h3.9l3.9-4z"/><path d="m99.9 74-3.8 4 3.9-.1 3.9-3.9 3.8-4h-3.9z"/><path d="m92.1 70.2h-3.9l-3.9 4-3.9 3.9h3.9l3.9-4z"/><path d="m76.4 70.4h-3.9l-3.9 4-3.8 3.9h3.9l3.8-4z"/><path d="m52.9 70.6-3.9.1 2 1.9z"/><path d="m54.9 76.5 2-2 3.9-4-4 .1-3.8 3.9z"/><path d="m64.7 74.4 3.9-4-3.9.1-3.9 3.9-3.9 4h3.9z"/></g></g><g clip-path="url(#f)"><path d="m-200-12.8h232.6v232.6h-232.6z" fill="none" transform="matrix(.6991 -.715 .715 .6991 -99.1789 -28.752)"/><path d="m-200-12.8h232.6v232.6h-232.6z" fill="#25793d" transform="matrix(.6991 -.715 .715 .6991 -99.1789 -28.752)"/><g fill="#e62f34"><path d="m49.4 105.9v3.9l3.9-3.9 3.9-4-.1-3.9-3.8 3.9z"/><path d="m49.3 98.1.1 3.9 3.8-4 3.9-3.9v-4l-3.9 4z"/><path d="m51 72.6-1.9 2v3.9l3.9-4z"/><path d="m53 78.4-3.9 4 .1 3.9 3.9-3.9 3.8-4-2-1.9z"/><path d="m49.3 94.1 3.8-3.9 3.9-4v-3.9l-3.9 4-3.9 3.9z"/><path d="m49 70.7-3.9 3.9-3.8 4 3.9-.1 3.9-3.9 1.9-2z"/><path d="m25.6 78.8 3.9-.1 3.9-4 3.9-3.9h-4l-3.8 4z"/><path d="m53 74.5-3.9 4 3.9-.1 1.9-1.9z"/><path d="m37.3 74.7-3.9 4 4-.1 3.8-3.9 3.9-4h-3.9z"/><path d="m17.8 78.8h3.9l3.9-4 3.8-3.9h-3.9l-3.9 4z"/><path d="m5.9 71.1-3.9.1-3.8 3.9v4z"/><path d="m9.9 75 3.9-3.9h-3.9l-3.9 4-3.9 3.9h3.9z"/><path d="m9.9 78.9h4l3.8-4 3.9-3.9h-3.9l-3.9 4z"/></g></g></g><g clip-path="url(#g)"><path d="m26.1-5.2-16.7 28.5-16.6-28.5 16.6-28.5z" fill="#da2128"/><path d="m59.3-5.2-16.6 28.5-16.6-28.5 16.6-28.5z" fill="#00a14b"/><path d="m92.6-5.2-16.7 28.5-16.6-28.5 16.6-28.5z" fill="#da2128"/><path d="m109.2 23.3-16.6-28.5 16.6-28.5z" fill="#00a14b"/><path d="m26.1 52-16.7 28.5-16.6-28.5 16.6-28.5z" fill="#00a14b"/><path d="m59.3 52-16.6 28.5-16.6-28.5 16.6-28.5z" fill="#96171a"/><path d="m92.6 52-16.7 28.5-16.6-28.5 16.6-28.5z" fill="#00a14b"/><path d="m109.2 80.5-16.6-28.5 16.6-28.5z" fill="#da2128"/><path d="m26.1 108.9-16.7 28.5-16.6-28.5 16.6-28.5z" fill="#da2128"/><path d="m59.3 108.9-16.6 28.5-16.6-28.5 16.6-28.5z" fill="#00a14b"/><path d="m92.6 108.9-16.7 28.5-16.6-28.5 16.6-28.5z" fill="#da2128"/><path d="m109.2 137.4-16.6-28.5 16.6-28.5z" fill="#00a14b"/><g fill="#97cb59"><path d="m9.4 23.5-16.6 28.5-16.6-28.5 16.6-28.5z"/><path d="m42.7 23.5-16.6 28.5-16.7-28.5 16.7-28.5z"/><path d="m75.9 23.5-16.6 28.5-16.6-28.5 16.6-28.5z"/><path d="m109.2 23.5-16.6 28.5-16.7-28.5 16.7-28.5z"/><path d="m9.4 80.5-16.6 28.5-16.6-28.5 16.6-28.5z"/><path d="m42.7 80.5-16.6 28.5-16.7-28.5 16.7-28.5z"/><path d="m75.9 80.5-16.6 28.5-16.6-28.5 16.6-28.5z"/><path d="m109.2 80.5-16.6 28.5-16.7-28.5 16.7-28.5z"/></g><path d="m109.2-61.8-16.6-28.3 16.5-28.2.1-.2-.1-.2-16.4-28.1 16.4-28.1-.1-.1.1-.2-.6-.3-16.3 27.9-16.6-28.4-16.6 28.4-16.6-28.4-16.6 28.4-16.6-28.4-16.6 28.4-16.6-28.4-16.6 28.4-16.6-28.4-16.6 28.4-16.6-28.4-16.6 28.4-16.6-28.4-16.6 28.4-16.6-28.4-16.6 28.4-16.6-28.4-16.6 28.4-16.6-28.4-16.6 28.4-16.6-28.4-16.7 28.5-16.2-27.8-.6.3 16.5 28.2-16.6 28.3 16.6 28.3-16.6 28.3 16.6 28.3-16.6 28.3 16.7 28.5-16.7 28.5 16.6 28.3-16.6 28.3 16.6 28.5v.1l-16.6 28.4 16.6 28.3-16.5 28.2.6.3 16.3-27.9v.1l16.6 28.4 16.6-28.4 16.6 28.4 16.6-28.4 16.6 28.4 16.6-28.4 16.6 28.4 16.6-28.4 16.6 28.4 16.6-28.4 16.6 28.4 16.6-28.4 16.6 28.4 16.6-28.4 16.6 28.4 16.6-28.4 16.6 28.4 16.6-28.4 16.6 28.4 16.6-28 16.6 28.4 16.6-28.4 16.3 27.9.6-.3v-.1l-16.5-28.2 16.5-28.2.1-.2-.1-.2-16.5-28.2 16.5-28.2h-.1l.1-.1.1-.2-16.6-28.4 16.5-28.2.1-.2-.1-.2-16.5-28.2 16.5-28.2h-.1l.1-.1.1-.2-16.5-28.4 16.4-28.2zm-17 27.6-16.2-27.6 16.2-27.7 16.2 27.7zm-33.2 227.4-16.2-27.6 16.2-27.7 16.2 27.7zm-33.2 0-16.2-27.6 16.2-27.7 16.2 27.7zm-33.2 0-16.2-27.6 16.2-27.7 16.2 27.7zm-33.2 0-16.2-27.6 16.2-27.7 16.2 27.7zm-33.2 0-16.2-27.6 16.2-27.7 16.2 27.7zm-33.2 0-16.2-27.6 16.2-27.7 16.2 27.7zm-33.1 0-16.2-27.6 16.2-27.7 16.2 27.7zm-33.2 0-16.2-27.6 16.2-27.7 16.2 27.7zm-33.2 0-16.2-27.6 16.2-27.7 16.2 27.7zm-33.2 0-16.2-27.6 16.2-27.7 16.2 27.7zm0-339.3 16.2 27.6-16.2 27.7-16.2-27.7zm33.2 0 16.2 27.6-16.2 27.7-16.2-27.7zm33.2 0 16.2 27.6-16.2 27.7-16.2-27.7zm33.2 0 16.2 27.6-16.2 27.7-16.2-27.7zm33.1 0 16.2 27.6-16.2 27.7-16.2-27.7zm33.2 0 16.2 27.6-16.2 27.7-16.2-27.7zm33.2 0 16.2 27.6-16.2 27.7-16.2-27.7zm33.2 0 16.2 27.6-16.2 27.7-16.2-27.7zm33.2 0 16.2 27.6-16.2 27.7-16.2-27.7zm33.2 0 16.2 27.6-16.2 27.7-16.2-27.7zm16.2 198-16.1 27.7v-.1.1l-8.1-13.8-8.1-13.9 16.1-27.7 8.1 13.8zm-16.2-86.1-16.2-27.6 16.2-27.6 16.2 27.7zm-265.5-55.2 16.2 27.6-16.2 27.7v-.1.1l-16.2-27.7zm33.2 0 16.2 27.6-16.2 27.7v-.1.1l-16.2-27.7zm33.2 0 16.2 27.6-16.2 27.7v-.1.1l-16.2-27.7zm33.1 0 16.2 27.6-16.2 27.7v-.1.1l-16.2-27.7zm33.2 0 16.2 27.6-16.2 27.7v-.1.1l-16.2-27.7zm33.2 0 16.2 27.6-16.2 27.7v-.1.1l-16.2-27.7zm33.2 0 16.2 27.6-16.1 27.7v-.1.1l-16.2-27.7zm33.2 0 16.2 27.6-16.1 27.7v-.1.1l-16.3-27.7zm16.2 141.3-16.1 27.7v-.1.1l-8.1-13.8-8.2-13.9 16.2-27.8 8.1 13.9zm-16.6 28.4-16.2 27.7-16.1-27.7 16.1-27.7 8.1 13.9zm-132.3-.7-8.1-13.8-8.1-13.9 8.1-13.9 8.1-13.9 8.1 13.9 8.1 13.9-8.1 13.9zm25-13.8-8.1-13.9 16.2-27.8 8.1 13.9 8.1 13.9-16.2 27.7v-.1.1zm57.9-14.5-16.2-27.8 16.2-27.7 16.2 27.8-5.8 9.8zm-33.2 0-16.2-27.8 16.2-27.8 16.2 27.8-5.8 9.8zm-66.4-55.5 16.2 27.8-16.2 27.8-16.2-27.8zm17 27.7 16.2-27.8 16.2 27.8-11.3 19.3-5 8.5-11.9-20.4zm115.4-28.5-16.2 27.7-16.1-27.7 16.2-27.7zm-33.2 0-16.2 27.7-16.1-27.7 16.2-27.7zm-33.2 0-16.2 27.7-16.1-27.7 16.2-27.7zm-33.2 0-16.2 27.7-16.1-27.7 16.2-27.7zm-33.2 0-16.2 27.7-16.1-27.7 16.2-27.7zm-49.3-27.7 16.1 27.7-16.2 27.7-16.1-27.7zm116.5 84.6 16.2-27.8 8.1 13.9 8.1 13.9-16.2 27.7v-.1.1l-8.1-13.8zm33.2 0 16.2-27.8 8.1 13.9 8.1 13.9-16.1 27.7v-.1.1l-8.1-13.8zm32.8-.6-16.2-27.8 16.2-27.7 16.2 27.8-5.8 9.8zm16.6-84 16.2 27.7-16.2 27.7-16.1-27.7zm-.4-.7-16.2 27.6-16.1-27.6 16.1-27.7zm-33.2 0-16.2 27.6-16.2-27.7 16.2-27.6zm-33.2 0-16.2 27.6-16.2-27.7 16.2-27.7zm-33.2 0-16.2 27.6-16.2-27.7 16.2-27.7zm-33.2 0-16.2 27.7-16.2-27.7 16.2-27.7zm-33.2 0-16.2 27.7-16.2-27.7 16.2-27.7zm-33.2 0-16.2 27.7-16.2-27.7 16.2-27.7zm17.1 29.2 16.2 27.8-16.2 27.8-16.3-27.9zm.3 56.1 8.1-13.9 8.1-13.9 8.2 13.9 8.1 13.9-8.1 13.9-8.1 13.8v-.1.1l-8.1-13.8zm16.7 28.4 8.1-13.8 8.1-13.9 8.1 13.9 8.1 13.8-16.2 27.7zm33.2 0 8.1-13.8 8.1-13.8 16.2 27.7-16.3 27.6zm33.2 0 16.2-27.7 8.1 13.9 8.1 13.8-16.3 27.7zm33.2 0 16.1-27.7 8.1 13.9 8.1 13.8-16.2 27.7zm-166.9-113.7-16.2 27.7-16.2-27.7 16.2-27.7zm.5.7 16.1 27.7-16.2 27.7-16.1-27.7zm49.8 85.3 8.1 13.9 8.1 13.8-16.2 27.7-16.2-27.7 8.1-13.8zm-16.6 28.4 16.2 27.7-16.2 27.7-16.2-27.7zm33.2 0 16.2 27.7-16.2 27.7-16.2-27.7zm33.1 0 16.2 27.7-16.2 27.7-16.2-27.7zm33.2 0 16.2 27.7-16.2 27.7-16.2-27.7zm33.2 0 16.2 27.7-16.2 27.7-16.2-27.7zm33.2 0 16.2 27.7-16.2 27.7-16.2-27.7zm33.2 0 16.2 27.7-16.2 27.7-16.1-27.7zm16.6-86.8-16.1-27.6 16.2-27.7 16.2 27.7zm-232.3 1.6 16.2 27.8-16.2 27.8-16.2-27.8zm.3 56.1 8.1-13.9 8.1-13.9 8.1 13.9 8.1 13.9-8.1 13.9-8.1 13.8v-.1.1l-8.1-13.8zm-.8 56.8-16.2 27.7-16.2-27.7 16.2-27.7zm232.8-57.4-16.2-27.8 16.2-27.7 16.2 27.8-5.8 9.8zm0-113.7-16.1-27.7 16.2-27.7 16.2 27.7zm-33.2 0-16.1-27.7 16.2-27.7 16.2 27.7zm-33.2 0-16.2-27.7 16.2-27.7 16.2 27.7zm-33.2 0-16.2-27.7 16.2-27.7 16.2 27.7zm-33.2 0-16.2-27.7 16.2-27.7 16.2 27.7zm-17-27.7-16.2 27.7-16.2-27.7 16.2-27.7zm-33.2 0-16.2 27.7-16.2-27.7 16.2-27.7zm-33.2 0-16.2 27.7-16.2-27.7 16.2-27.7zm-33.2 0-16.2 27.7-16.2-27.7 16.2-27.7zm17.1 142.7 8.1 13.9 8.1 13.8-16.2 27.7-16.2-27.7 8.1-13.8zm-17 84.6-16.2 27.8-16.2-27.8 16.2-27.8zm.7 0 16.2-27.8 16.2 27.8-16.2 27.8zm33.2 0 16.2-27.8 16.2 27.8-16.2 27.8zm33.2 0 16.2-27.8 16.2 27.8-16.2 27.8zm33.2 0 16.2-27.8 16.2 27.8-16.2 27.8zm33.2 0 16.2-27.8 16.2 27.8-16.2 27.8zm33.2 0 16.2-27.8 16.2 27.8-16.2 27.7zm33.2 0 16.2-27.8 16.2 27.8-16.2 27.7zm33.2 0 16.2-27.8 16.2 27.8-16.2 27.8zm32.8-.8-16.2-27.7 16.2-27.7 16.2 27.7zm-.4-56.1-16.2 27.7-16.1-27.7 16.2-27.7 8.1 13.9zm.4-57.6-16.1-27.7 16.1-27.7 16.2 27.7zm.4-112.8 16.2-27.7 16.2 27.7-16.2 27.7zm-299.1.7 16.2 27.6-16.2 27.7v-.1.1l-16.2-27.7zm16.1 84.4-16.2 27.7-16.1-27.7 16.2-27.7zm.5.8 16.2 27.8-16.2 27.8-16.2-27.8zm.3 56.1 8.1-13.9 8.1-13.9 8.1 13.9 8.1 13.9-8.1 13.9-8.1 13.8v-.1.1l-8.1-13.8zm-17.4-142-16.2 27.7-16.2-27.7 16.2-27.7zm0 56.7-16.2 27.7-16.2-27.7 16.2-27.7zm17.1 86 8.1 13.9 8.1 13.8-16.2 27.7-16.2-27.7 8.1-13.8zm-16.6 28.4 16.2 27.7-16.2 27.7-16.2-27.7zm299.1 56.2 16.2-27.8 16.2 27.8-16.2 27.8zm16.2-85.9-16.2-27.8 16.2-27.7 16.2 27.8-5.8 9.8zm0-57.1-16.1-27.6 16.2-27.7 16.2 27.7zm16.6-85.1-16.2-27.6 16.1-27.6v.1-.1l16.1 27.6zm-16.6-28.3-16.1-27.6 16.1-27.6 16.1 27.6zm-33.2 0-16.1-27.6 16.1-27.6 16.1 27.6zm-33.2 0-16.1-27.6 16.1-27.6 16.1 27.6zm-33.2 0-16.1-27.6 16.1-27.6 16.1 27.6zm-33.2 0-16.1-27.6 16.1-27.6 16.1 27.6zm-33.2 0-16.1-27.6 16.1-27.6 16.1 27.6zm-33.2 0-16.1-27.6 16.1-27.6 16.1 27.6zm-33.1 0-16.1-27.6 16.1-27.6 16.1 27.6zm-33.2 0-16.1-27.6 16.1-27.6 16.1 27.6zm-33.2 0-16.1-27.6 16.1-27.6 16.1 27.6zm-33.2 0-16.1-27.6 16.1-27.6 16.1 27.6zm0 115 16.2 27.8-16.2 27.8-16.2-27.8zm.4 56.1 8.1-13.9 8.1-13.9 8.1 13.9 8.1 13.9-8.1 13.9-8.1 13.8v-.1.1l-8.1-13.8zm15.8 85.3-16.2 27.8-16.2-27.8 16.2-27.8zm-.1 56.8-16.2 27.7-16.2-27.7 16.2-27.7zm17.1-27.7 16.1 27.7-16.2 27.7-16.2-27.7zm33.2 0 16.2 27.7-16.2 27.7-16.2-27.7zm33.2 0 16.2 27.7-16.2 27.7-16.2-27.7zm33.1 0 16.2 27.7-16.2 27.7-16.2-27.7zm33.2 0 16.2 27.7-16.2 27.7-16.2-27.7zm33.2 0 16.2 27.7-16.2 27.7-16.1-27.7zm33.2 0 16.2 27.7-16.2 27.7-16.1-27.7zm33.2 0 16.2 27.7-16.2 27.7-16.1-27.7zm33.2 0 16.2 27.7-16.2 27.7-16.1-27.7zm33.2 0 16.2 27.7-16.2 27.7-16.2-27.7zm16.6 26.9-16.2-27.6 16.2-27.7 16.2 27.7zm0-112.2 16.2 27.7-16.2 27.7-16.2-27.7zm-.4-.7-16.2 27.7-16.2-27.7 16.2-27.7 8.1 13.9zm.4-113 16.2 27.7-16.2 27.7-16.1-27.7zm-348.5 85.3 8.1 13.9 8.1 13.8-16.2 27.7-16.2-27.7 8.1-13.8zm364.7-.7-16.1 27.7v-.1.1l-8.1-13.8-8.2-13.9 16.2-27.8 3.9 6.7zm-397.5-170.4 16.2-27.7v.1-.1l16.1 27.6-16.2 27.7v.1zm0 56.7 16.2-27.7v.1l16.2 27.7-16.2 27.7v-.1.1zm16.1 29 16.2 27.8-16.2 27.7-16.2-27.8zm-16.1 84.7 16.2-27.8 8.1 13.9 8.1 13.9-8.1 13.9-8.1 13.8v-.1.1zm16.1 29 16.2 27.8-16.2 27.7-16.2-27.8zm-16.1 84.7 16.2-27.8 16.2 27.7-16.2 27.7v.1z" fill="#d1e39b"/></g><path d="m0 0h100v100h-100z" fill="#4fbbbb"/><g clip-path="url(#h)"><g clip-path="url(#i)"><path d="m51.8-6.4h57.5v57.5h-57.5z" fill="none"/><g fill="#ee2424"><path d="m55.2-6.4-3.4 3.4v3.3l6.7-6.7z"/><path d="m85.6-6.4-33.8 33.8v3.4l37.2-37.2z"/><path d="m92.4-6.4-40.6 40.6v16.9l57.5-57.5z"/></g><path d="m58.5-6.4-6.7 6.7v27.1l33.8-33.8z" fill="#67bc45"/><path d="m89-6.4-37.2 37.2v3.4l40.6-40.6z" fill="#fff"/><g fill="#ee2424"><path d="m109.3-3-54.1 54.1h3.3l50.8-50.8z"/><path d="m109.3 27.4-23.7 23.7h3.4l20.3-20.3z"/><path d="m92.4 51.1h16.9v-16.9z"/></g><path d="m109.3.3-50.8 50.8h27.1l23.7-23.7z" fill="#67bc45"/><path d="m109.3-6.4-57.5 57.5h3.4l54.1-54.1z" fill="#fff"/><path d="m109.3 30.8-20.3 20.3h3.4l16.9-16.9z" fill="#fff"/></g><g clip-path="url(#i)"><path d="m51.8 51.1h57.5v57.5h-57.5z" fill="none"/><g fill="#ee2424"><path d="m55.2 51.1-3.4 3.4v3.3l6.7-6.7z"/><path d="m85.6 51.1-33.8 33.8v3.4l37.2-37.2z"/><path d="m92.4 51.1-40.6 40.6v16.9l57.5-57.5z"/></g><path d="m58.5 51.1-6.7 6.7v27.1l33.8-33.8z" fill="#67bc45"/><path d="m55.2 51.1h-3.4v3.4z" fill="#fff"/><path d="m89 51.1-37.2 37.2v3.4l40.6-40.6z" fill="#fff"/><g fill="#ee2424"><path d="m109.3 54.5-54.1 54.1h3.3l50.8-50.8z"/><path d="m109.3 84.9-23.7 23.7h3.4l20.3-20.3z"/><path d="m92.4 108.6h16.9v-16.9z"/></g><path d="m109.3 57.8-50.8 50.8h27.1l23.7-23.7z" fill="#67bc45"/><path d="m109.3 51.1-57.5 57.5h3.4l54.1-54.1z" fill="#fff"/><path d="m109.3 88.3-20.3 20.3h3.4l16.9-16.9z" fill="#fff"/></g></g><path d="m60.2 49.3c1.8-2 2.9-4.7 2.9-7.6 0-6.4-5.2-11.6-11.6-11.6s-11.5 5.1-11.5 11.5c0 2.9 1.1 5.6 2.9 7.6-5.2 3-8.7 8.6-8.7 15.1 0 9.6 5.8 15.8 17.4 15.8 12.3 0 17.4-6.2 17.4-15.8-.1-6.4-3.6-12-8.8-15z" fill="#fff"/><path d="m45 31.1 14.9 1.7s-3-5.4-2.4-7 2.9-1.4 2.9-1.4-1.6-2.1-6.2-1.3c-3 .4-6.5 1.9-9.2 8z" fill="#a82123"/><path d="m62.1 24.8c-.1.7-.7 1.2-1.4 1.1s-1.2-.7-1.1-1.4.7-1.2 1.4-1.1 1.2.7 1.1 1.4z" fill="#fff"/><path d="m59.7 35-15.4-1.7c-.9-.1-1.5-.9-1.4-1.7.1-.9.9-1.5 1.7-1.4l15.4 1.7c.9.1 1.5.9 1.4 1.7-.1.9-.9 1.5-1.7 1.4z" fill="#fff"/><g fill="#383a3a"><path d="m58.7 40.8c-.3-.1-.6 0-.8.3-1 2-3.5 3.3-6.4 3.3-2.8 0-5.4-1.3-6.4-3.3-.1-.3-.5-.4-.8-.3s-.4.5-.3.8c1.2 2.4 4.1 3.9 7.4 3.9s6.2-1.5 7.4-3.9c.3-.3.2-.7-.1-.8z"/><path d="m46.3 38.1c.7 0 1.3-.6 1.3-1.3s-.6-1.3-1.3-1.3-1.3.6-1.3 1.3.6 1.3 1.3 1.3z"/><path d="m57.1 38.1c.7 0 1.3-.6 1.3-1.3s-.6-1.3-1.3-1.3-1.3.6-1.3 1.3c.1.7.6 1.3 1.3 1.3z"/><path d="m51.5 55.6c-1 0-1.8.8-1.8 1.8s.8 1.8 1.8 1.8 1.8-.8 1.8-1.8-.8-1.8-1.8-1.8z"/><path d="m51.5 62c-1 0-1.8.8-1.8 1.8s.8 1.8 1.8 1.8 1.8-.8 1.8-1.8-.8-1.8-1.8-1.8z"/><path d="m74 49.8c0-.2-.2-.4-.5-.4l-2.7.3 2.5-3.3c.1-.2.1-.5-.1-.6s-.5-.1-.6.1l-3.3 4.2-.1-1.1c0-.2-.2-.4-.5-.4-.2 0-.4.2-.4.5l.2 2-4.5 5.8c-.1.2-.1.5.1.6.1.1.2.1.3.1s.3-.1.3-.2l5.2-6.7 3.6-.5c.4.1.5-.2.5-.4z"/><path d="m34.5 51.1.2-2c0-.2-.1-.5-.4-.5-.2 0-.5.1-.5.4l-.1 1.1-3.2-4.1c-.1-.2-.4-.2-.6-.1s-.2.4-.1.6l2.5 3.3-2.7-.3c-.2 0-.5.1-.5.4 0 .2.1.5.4.5l3.6.5 5.2 6.7c.1.1.2.2.3.2s.2 0 .3-.1c.2-.1.2-.4.1-.6z"/></g><path d="m49.8 39.9c0 .5.8.9 1.7.9 1 0 1.7-.4 1.7-.9v-.1c-.2-.6-.9-2.3-1.7-2.3s-1.5 1.6-1.7 2.2c.1.1 0 .1 0 .2z" fill="#f17b22"/><path d="m62 49.5c-.1-.4-.1-.8-.4-1.5-.3-.6-3 1.4-10.1 1.6-1.9 0-3.4 0-4.7-.1-.1-.3-.1-.6-.3-.7-.3-.3-.8-.4-1.8-.3-.5.1-.8-.5-1.5-.3-.2.1-.4.3-.5.6-.5-.2-.8-.3-.8-.3-.5-.1-1 .3-1.1 1.1-.1.6-.8.5-.6 1.4 0 .1.4.4 1.1.7-.6 2.8-1 6.3-1.2 9.2-.2 3.3.3 6.7.2 7.7-.1.9.1.9 1.4.9.8 0 2.3.6 2.6 0s-.5-3.7-.5-6.9c0-2.8.2-5.8.5-8.1.1.7.2 1.3.3 1.6.2 1 .7.6 1.6.3 1-.3 2.3.2 2.1-.9-.1-.5-.3-1.4-.5-2.3.8.1 1.6.1 2.5.2 6.3.2 11.3-1.4 12-2.1.7-.8-.2-1.3-.3-1.8z" fill="#a82123"/></svg>