<svg enable-background="new 0 0 100 100" viewBox="0 0 100 100" xmlns="http://www.w3.org/2000/svg" xmlns:xlink="http://www.w3.org/1999/xlink"><clipPath id="a"><path d="m560-280h100v100h-100z"/></clipPath><clipPath id="b"><path d="m92.5-286.7h937.7v401.9h-937.7z" transform="matrix(.6711 -.7413 .7413 .6711 248.2174 387.9598)"/></clipPath><clipPath id="c"><path d="m-280-140h100v100h-100z"/></clipPath><clipPath id="d"><path d="m-351.3-838.9h595v1388.2h-595z"/></clipPath><clipPath id="e"><path d="m-140-140h100v100h-100z"/></clipPath><clipPath id="f"><path d="m-466-237.1h678.8v290.9h-678.8z" transform="matrix(.6991 -.715 .715 .6991 27.4239 -118.0859)"/></clipPath><clipPath id="g"><path d="m140-140h100v100h-100z"/></clipPath><clipPath id="h"><path d="m0 140h100v100h-100z"/></clipPath><clipPath id="i"><path d="m-31.9-63.9h172.2v516.6h-172.2z"/></clipPath><clipPath id="j"><path d="m140 140h100v100h-100z"/></clipPath><clipPath id="k"><path d="m100.8-61.7h154.9v464.7h-154.9z"/></clipPath><g clip-path="url(#a)"><g clip-path="url(#b)"><path d="m-188.6-239.5h625.1v625.1h-625.1z" fill="none" transform="matrix(.6711 -.7413 .7413 .6711 -13.3865 115.9055)"/><path d="m-188.6-239.5h625.1v625.1h-625.1z" fill="#1e0d12" transform="matrix(.6711 -.7413 .7413 .6711 -13.3865 115.9055)"/><g fill="#e62f34"><path d="m113.7 184.2 7.8-.4-107.5-97.4.4 7.9z"/><path d="m100.3 74.2-7.9.4z"/><path d="m125.1 96.7-24.8-22.5-7.9.4 33.1 30z"/><path d="m76.6 75.4 7.9-.4z"/><path d="m125.9 112.5-41.4-37.5-7.9.4 49.7 44.9z"/><path d="m68.8 75.8-7.9.4z"/><path d="m126.7 128.2-57.9-52.4-7.9.4 66.2 59.9z"/><path d="m53 76.6-7.9.4z"/><path d="m127.5 144-74.5-67.4-7.9.4 82.8 74.9z"/><path d="m37.2 77.3-7.9.4z"/><path d="m128.3 159.8-91.1-82.5-7.9.4 99.4 89.9z"/><path d="m21.5 78.1-7.9.4z"/><path d="m129.4 183.4-.4-7.9-107.5-97.4-7.9.4z"/><path d="m-96 99.8 99.3 89.9 7.9-.4-107.6-97.4z"/><path d="m14 86.4-8.3-7.5-7.9.4 16.6 15z"/><path d="m14.7 102.2-24.8-22.5-7.9.4 33.1 30z"/><path d="m15.5 117.9-41.4-37.4-7.8.4 49.6 44.9z"/><path d="m16.3 133.7-57.9-52.4-7.9.4 66.2 59.9z"/><path d="m-65.3 82.4 82.8 75-.4-7.9-74.5-67.4z"/><path d="m-81 83.2 99.3 89.9-.4-7.9-91.1-82.4z"/><path d="m-96.8 84 115.9 104.9-.4-7.9-107.6-97.4z"/></g><g fill="#25793d"><path d="m9.7-.3-33.2-30-5.2.3-2.6.1 41.3 37.5z"/><path d="m10.4 15.5-49.6-45-4.2.2-3.7.2 57.9 52.4z"/><path d="m11.2 31.2-66.2-59.9-3.1.1-4.8.3 74.5 67.4z"/><path d="m12.4 54.9-.4-7.9-82.8-74.9-6 .3-1.8.1z"/><path d="m13.2 70.6-.4-7.8-99.3-89.9-7.3.3h-.6z"/><path d="m13.6 78.5-115.9-104.9.4 7.9 107.6 97.4z"/><path d="m13.6 78.5-7.9.4z"/><path d="m13.6 78.5-7.9.4 8.3 7.5z"/><path d="m14.7 102.2-.3-7.9-16.6-15-7.9.4z"/><path d="m15.5 117.9-.4-7.8-33.1-30-7.9.4z"/><path d="m16.3 133.7-.4-7.9-49.6-44.9-7.9.4z"/><path d="m17.1 149.5-.4-7.9-66.2-59.9-7.9.4z"/><path d="m-73.2 82.8 91.1 82.4-.4-7.8-82.8-75z"/><path d="m-81 83.2-7.9.4 107.6 97.4-.4-7.9z"/><path d="m-95.6 107.7 91 82.4 7.9-.4-99.3-89.9z"/><path d="m11.2 189.3 7.9-.4-115.9-104.9.4 7.9z"/></g></g></g><g clip-path="url(#c)"><g clip-path="url(#d)"><path d="m-175.1-141.6h466v466h-466z" fill="none"/><path d="m-175.1-141.6h466v466h-466z" fill="#fff"/><path d="m178.4 19.1-80.4 80.3h-8l88.4-88.3z" fill="#e62f34"/><path d="m178.4 3-96.4 96.4h-8.1l104.5-104.4z" fill="#e62f34"/><path d="m82-13h-8.1l-8 8v8z" fill="#e62f34"/><path d="m98-13h-8l-24.1 24.1v8z" fill="#e62f34"/><path d="m114.1-13h-8l-40.2 40.1v8.1z" fill="#e62f34"/><path d="m130.2-13h-8.1l-56.2 56.2v8z" fill="#e62f34"/><path d="m146.2-13h-8l-72.3 72.3v8z" fill="#e62f34"/><path d="m162.3-13h-8l-88.4 88.3v8.1z" fill="#e62f34"/><path d="m178.4-13h-8.1l-104.4 104.4v8z" fill="#e62f34"/><g fill="#25793d"><path d="m-46.6 147.6 48.2-48.2h8.1l-56.3 56.3z"/><path d="m-46.6 163.7 64.3-64.3h8l-72.3 72.3z"/><path d="m-46.6 179.8 80.4-80.4h8l-88.4 88.4z"/><path d="m-46.6 195.8 96.4-96.4h8.1l-104.5 104.5z"/><path d="m-46.6 211.9h8.1l104.4-104.4v-8.1z"/><path d="m-46.6 35.2 48.2-48.2h8.1l-56.3 56.2z"/><path d="m-46.6 51.2 64.3-64.2h8l-72.3 72.3z"/><path d="m-46.6 67.3 80.4-80.3h8l-88.4 88.3z"/><path d="m-46.6 83.4 96.4-96.4h8.1l-104.5 104.4z"/><path d="m49.8 99.4h8.1l8-8v-8z"/><path d="m33.8 99.4h8l24.1-24.1v-8z"/><path d="m17.7 99.4h8l40.2-40.1v-8.1z"/><path d="m1.6 99.4h8.1l56.2-56.2v-8z"/><path d="m-14.4 99.4h8l72.3-72.3v-8z"/><path d="m-30.5 99.4h8l88.4-88.3v-8.1z"/><path d="m-46.6 99.4h8.1l104.4-104.4v-8z"/></g><g fill="#e62f34"><path d="m65.9 91.4v8h-8z"/><path d="m65.9 83.4-16.1 16h-8l24.1-24.1z"/><path d="m65.9 67.3-32.1 32.1h-8.1l40.2-40.1z"/><path d="m65.9 51.2-48.2 48.2h-8l56.2-56.2z"/><path d="m65.9 35.2-64.3 64.2h-8l72.3-72.3z"/><path d="m65.9 19.1-80.3 80.3h-8.1l88.4-88.3z"/><path d="m65.9 3-96.4 96.4h-8l104.4-104.4z"/><path d="m1.6-13h-8l-40.2 40.1v8.1z"/><path d="m17.7-13h-8l-56.3 56.2v8z"/><path d="m33.8-13h-8.1l-72.3 72.3v8z"/><path d="m49.8-13h-8l-88.4 88.3v8.1z"/><path d="m65.9-13h-8l-104.5 104.4v8z"/></g></g></g><g clip-path="url(#e)"><g clip-path="url(#f)"><path d="m-177.4-179.1h232.6v232.6h-232.6z" fill="none" transform="matrix(.6991 -.715 .715 .6991 26.503 -62.6265)"/><path d="m-177.4-179.1h232.6v232.6h-232.6z" fill="#25793d" transform="matrix(.6991 -.715 .715 .6991 26.503 -62.6265)"/><g fill="#1e0d12"><path d="m21.8 4.9v-.1-5.9l-.1-3.9v-3.9-.7z"/><path d="m21.9 10.7-.1-4 .2 11.8-.1-3.9z"/><path d="m21.8 6.7v-1.8l-.1-14.5-.1-3.2-.2-19.6v-1.3-2.6l-7.9.1h-3.9l-3.9.1h-2.6l-7 .1h-2.1-4l-3.9.1-11.7.1h-3.9l-4 .1.1 3.9v3.9l.1 2.3.1 8.2v1.3 3.9l.1 3.9.1 11.7v4l.1 3.9v3.9l.1 3.9h3.9l3.9-.1h3.9l3-.1 12.7-.1h3.9l12-.2h3.6l4-.1h3.9z"/><path d="m21.8 6.7v-1.9.1z"/><path d="m21.8 6.7v-1.8z"/><path d="m64.4-36.8h-3.9l-38.7 39.6v2 1.9z"/><path d="m72.3-36.9-4 .1-46.4 47.5v3.9z"/><path d="m-32.4 54.3v4l38.7-39.6h-3.9z"/><path d="m14.1 18.6h-3.6z"/><path d="m-32.4 62.2.1 3.9 46.4-47.5h-3.9z"/><path d="m14.1 18.6h-3.6-.3z"/><path d="m18.1 18.5h3.9z"/><path d="m-32.3 70 .1 3.9 3.8-3.9 50.4-51.5h-3.9z"/><path d="m18.1 18.5h3.9z"/></g></g></g><g clip-path="url(#g)"><path clip-rule="evenodd" d="m55.4-230.3h268.4v268.4h-268.4z" fill="#fff" fill-rule="evenodd"/><path d="m77.8 4.5 16.8 16.8 5.5 5.6 5.6-5.6 16.8-16.8 16.8 16.8 5.6 5.6 5.6-5.6 16.8-16.8 22.3 22.4 5.6-5.6 16.8-16.8 16.8 16.8 5.6 5.6 5.5-5.6 16.8-16.8 16.8 16.8 5.6 5.6 5.6-5.6 16.8-16.8 22.3 22.4v-11.2l-16.8-16.8-5.5-5.5-5.6 5.5-16.8 16.8-22.4-22.3-5.6 5.5-16.7 16.8-16.8-16.8-5.6-5.5-5.6 5.5-16.8 16.8-22.3-22.3-5.6 5.5-16.8 16.8-16.8-16.8-5.6-5.5-5.6 5.5-16.8 16.8-16.7-16.8-5.6-5.5-5.6 5.5-16.8 16.8v11.2z" fill="#c92927"/><g fill="#96bf4d"><path d="m77.8-17.9 16.8 16.8 5.5 5.6 5.6-5.6 16.8-16.8 16.8 16.8 5.6 5.6 5.6-5.6 16.8-16.8 22.3 22.4 5.6-5.6 16.8-16.8 16.8 16.8 5.6 5.6 5.5-5.6 16.8-16.8 16.8 16.8 5.6 5.6 5.6-5.6 16.8-16.8 22.3 22.4v-11.1l-16.8-16.8-5.5-5.6-5.6 5.6-16.8 16.8-22.4-22.4-5.6 5.6-16.7 16.8-16.8-16.8-5.6-5.6-5.6 5.6-16.8 16.8-22.3-22.4-5.6 5.6-16.8 16.8-16.8-16.8-5.6-5.6-5.6 5.6-16.8 16.8-16.7-16.8-5.6-5.6-5.6 5.6-16.8 16.8v11.1z"/><path d="m301.5 15.7-5.6 5.6-16.8 16.8-22.4-22.4-5.6 5.6-16.7 16.8-16.8-16.8-5.6-5.6-5.6 5.6-16.8 16.8-22.3-22.4-5.6 5.6-16.8 16.8-16.8-16.8-5.6-5.6-5.6 5.6-16.8 16.8-16.7-16.8-5.6-5.6-5.6 5.6-16.8 16.8h11.2l11.2-11.2 11.2 11.2h22.3l11.2-11.2 11.2 11.2h22.3l11.3-11.2 11.2 11.2h22.3l11.2-11.2 11.2 11.2h22.3l11.2-11.2 11.2 11.2h22.4l11.2-11.2 11.2 11.2h11.1l-16.8-16.8z"/></g></g><path d="m0 0h100v100h-100z" fill="#37343f"/><g clip-path="url(#h)"><g clip-path="url(#i)"><path d="m84.3-6.4h57.5v57.5h-57.5z" fill="none"/><g fill="#ee2424"><path d="m87.7-6.4-3.4 3.4v3.3l6.7-6.7z"/><path d="m118.1-6.4-33.8 33.8v3.4l37.2-37.2z"/><path d="m124.9-6.4-40.6 40.6v16.9l57.5-57.5z"/></g><path d="m91-6.4-6.7 6.7v27.1l33.8-33.8z" fill="#67bc45"/><path d="m121.5-6.4-37.2 37.2v3.4l40.6-40.6z" fill="#fff"/><path d="m141.8-3-54.1 54.1h3.3l50.8-50.8z" fill="#ee2424"/><path d="m141.8.3-50.8 50.8h27.1l23.7-23.7z" fill="#67bc45"/><path d="m141.8-6.4-57.5 57.5h3.4l54.1-54.1z" fill="#fff"/></g><g clip-path="url(#i)"><path d="m84.3 51.1h57.5v57.5h-57.5z" fill="none"/><g fill="#ee2424"><path d="m87.7 51.1-3.4 3.4v3.3l6.7-6.7z"/><path d="m118.1 51.1-33.8 33.8v3.4l37.2-37.2z"/><path d="m124.9 51.1-40.6 40.6v16.9l57.5-57.5z"/></g><path d="m91 51.1-6.7 6.7v27.1l33.8-33.8z" fill="#67bc45"/><path d="m87.7 51.1h-3.4v3.4z" fill="#fff"/><path d="m121.5 51.1-37.2 37.2v3.4l40.6-40.6z" fill="#fff"/><path d="m141.8 54.5-54.1 54.1h3.3l50.8-50.8z" fill="#ee2424"/><path d="m141.8 57.8-50.8 50.8h27.1l23.7-23.7z" fill="#67bc45"/><path d="m141.8 51.1-57.5 57.5h3.4l54.1-54.1z" fill="#fff"/></g><g clip-path="url(#i)"><path d="m26.8-6.4h57.5v57.5h-57.5z" fill="none"/><g fill="#ee2424"><path d="m30.2-6.4-3.4 3.4v3.3l6.7-6.7z"/><path d="m60.6-6.4-33.8 33.8v3.4l37.2-37.2z"/><path d="m67.4-6.4-40.6 40.6v16.9l57.5-57.5z"/></g><path d="m33.5-6.4-6.7 6.7v27.1l33.8-33.8z" fill="#67bc45"/><path d="m64-6.4-37.2 37.2v3.4l40.6-40.6z" fill="#fff"/><g fill="#ee2424"><path d="m84.3-3-54.1 54.1h3.3l50.8-50.8z"/><path d="m84.3 27.4-23.7 23.7h3.4l20.3-20.3z"/><path d="m67.4 51.1h16.9v-16.9z"/></g><path d="m84.3.3-50.8 50.8h27.1l23.7-23.7z" fill="#67bc45"/><path d="m84.3-6.4-57.5 57.5h3.4l54.1-54.1z" fill="#fff"/><path d="m84.3 30.8-20.3 20.3h3.4l16.9-16.9z" fill="#fff"/></g><g clip-path="url(#i)"><path d="m26.8 51.1h57.5v57.5h-57.5z" fill="none"/><g fill="#ee2424"><path d="m30.2 51.1-3.4 3.4v3.3l6.7-6.7z"/><path d="m60.6 51.1-33.8 33.8v3.4l37.2-37.2z"/><path d="m67.4 51.1-40.6 40.6v16.9l57.5-57.5z"/></g><path d="m33.5 51.1-6.7 6.7v27.1l33.8-33.8z" fill="#67bc45"/><path d="m30.2 51.1h-3.4v3.4z" fill="#fff"/><path d="m64 51.1-37.2 37.2v3.4l40.6-40.6z" fill="#fff"/><g fill="#ee2424"><path d="m84.3 54.5-54.1 54.1h3.3l50.8-50.8z"/><path d="m84.3 84.9-23.7 23.7h3.4l20.3-20.3z"/><path d="m67.4 108.6h16.9v-16.9z"/></g><path d="m84.3 57.8-50.8 50.8h27.1l23.7-23.7z" fill="#67bc45"/><path d="m84.3 51.1-57.5 57.5h3.4l54.1-54.1z" fill="#fff"/><path d="m84.3 88.3-20.3 20.3h3.4l16.9-16.9z" fill="#fff"/></g><g clip-path="url(#i)"><path d="m-30.7-6.4h57.5v57.5h-57.5z" fill="none"/><path d="m3.1-6.4-33.8 33.8v3.4l37.2-37.2z" fill="#ee2424"/><path d="m9.9-6.4-40.6 40.6v16.9l57.5-57.5z" fill="#ee2424"/><path d="m-24-6.4-6.7 6.7v27.1l33.8-33.8z" fill="#67bc45"/><path d="m6.5-6.4-37.2 37.2v3.4l40.6-40.6z" fill="#fff"/><g fill="#ee2424"><path d="m26.8-3-54.1 54.1h3.3l50.8-50.8z"/><path d="m26.8 27.4-23.7 23.7h3.4l20.3-20.3z"/><path d="m9.9 51.1h16.9v-16.9z"/></g><path d="m26.8.3-50.8 50.8h27.1l23.7-23.7z" fill="#67bc45"/><g fill="#fff"><path d="m26.8-6.4-57.5 57.5h3.4l54.1-54.1z"/><path d="m26.8 30.8-20.3 20.3h3.4l16.9-16.9z"/></g></g><g clip-path="url(#i)"><path d="m-30.7 51.1h57.5v57.5h-57.5z" fill="none"/><path d="m3.1 51.1-33.8 33.8v3.4l37.2-37.2z" fill="#ee2424"/><path d="m9.9 51.1-40.6 40.6v16.9l57.5-57.5z" fill="#ee2424"/><path d="m-24 51.1-6.7 6.7v27.1l33.8-33.8z" fill="#67bc45"/><path d="m6.5 51.1-37.2 37.2v3.4l40.6-40.6z" fill="#fff"/><g fill="#ee2424"><path d="m26.8 54.5-54.1 54.1h3.3l50.8-50.8z"/><path d="m26.8 84.9-23.7 23.7h3.4l20.3-20.3z"/><path d="m9.9 108.6h16.9v-16.9z"/></g><path d="m26.8 57.8-50.8 50.8h27.1l23.7-23.7z" fill="#67bc45"/><g fill="#fff"><path d="m26.8 51.1-57.5 57.5h3.4l54.1-54.1z"/><path d="m26.8 88.3-20.3 20.3h3.4l16.9-16.9z"/></g></g></g><g clip-path="url(#j)"><g clip-path="url(#k)"><path d="m80-3.9h57.8v57.8h-57.8z" fill="none"/><path d="m104.4-3.9-24.4 24.3v3.1l27.4-27.4z" fill="#fff"/><path d="m110.4-3.9-30.4 30.4v27.4l57.8-57.8z" fill="#fff"/><path d="m80-3.9v24.3l24.4-24.3z" fill="#ee2424"/><path d="m107.4-3.9-27.4 27.4v3l30.4-30.4z" fill="#67bc45"/><path d="m137.8-3.9-57.8 57.8h24.4l33.4-33.5z" fill="#ee2424"/></g><g clip-path="url(#k)"><path d="m80 53.9h57.8v57.8h-57.8z" fill="none"/><path d="m104.4 53.9-24.4 24.3v3.1l27.4-27.4z" fill="#fff"/><path d="m110.4 53.9-30.4 30.4v27.4l57.8-57.8z" fill="#fff"/><path d="m80 53.9v24.3l24.4-24.3z" fill="#ee2424"/><path d="m107.4 53.9-27.4 27.4v3l30.4-30.4z" fill="#67bc45"/><path d="m137.8 53.9-57.8 57.8h24.4l33.4-33.5z" fill="#ee2424"/></g></g><path d="m61.6 41.5c.1-.6.1-1.3-.3-1.9-.3-.5-.9-.8-1.4-.8-.4 0-.7 0-1.1.1-.1 0-.1 0-.2.1-.1 0-.2.1-.2.1.1-.1.1-.1 0 0-.3.2-.5.4-.7.7-.3.7.3 1.4 1 1.4.3 0 .7-.2.9-.4h.1v.2c0 .3 0 .3-.2.7-.1.1-.2.3-.3.4s-.2.1-.3.2c.1 0-.1.1-.2.1-.9.3-2.1-.2-3.3 0 .5-1 .9-2.1 1.5-3.6.1 0 .1-.1.2-.1 1.2-.7 3.6-.3 5.4-.6.8-.1 1.8-.3 2-1.2.1-.5-.2-.9-.7-1-.1 0-.3 0-.4 0 .1 0-.2 0-.3.1-.6 0-.6 0-1.1.1.2-.3.4-.7.3-1.1 0-.6-.7-1-1.2-.7-.5.2-.7.6-.8 1.1-.1.3-.1.7-.3 1-.8.1-1.6.2-2.4.4.6-1.4 1.2-2.8 1.8-4.2.1 0 .1-.1.5-.2.3-.1.3-.1.6-.1.4-.1.8-.1 1.2-.1 1.1.4 2.3 2.4 3.5 2.5-.2-.1-.2-.1.1 0 .4.1.9-.1 1.1-.4.6-.8-.3-1.9-1.2-1.3-.1 0-.1 0-.2-.1.1 0-.2-.1-.2-.1-.2-.2-.4-.3-.7-.5h1.7c-.2 0 0 0 .1 0h1.1c1.3-.1 3-1 2.7-2.6-.1-.6-.9-.8-1.4-.6-.4.1-.6.4-.8.7-.1.1-.2.3-.3.3-.1.1-.2.2-.3.2-.4.2-.9.4-1.3.4.2-.3.5-.6.5-1.1.1-.5-.3-1-.8-1.1-.5 0-.9.1-1.2.5-.4.6-.6 1.1-.6 1.7-1.1 0-2.2-.1-3.3.2.4-.8.7-1.5 1.1-2.3.8-.4 1.6-.7 2.4-1 .4-.2.9-.3 1.3-.5s.9-.3 1.2-.7c.1-.2.1-.4-.1-.6-.4-.3-.9-.3-1.4-.3-.6.1-1.1.3-1.6.5-.3.1-.5.3-.8.5.4-.8.8-1.6 1.1-2.4s.6-1.8 0-2.5c0 0-.1-.1-.1-.1-.1 0-.1 0-.2 0-1 .1-1.5.9-1.9 1.7s-.8 1.6-1.1 2.4c0-.3-.1-.6-.2-.9-.2-.5-.3-1.1-.7-1.5-.3-.4-.7-.8-1.1-.9-.2 0-.4.1-.5.3-.1.5.1.9.3 1.4.1.4.4.8.5 1.3.3.8.7 1.6.9 2.5-.3.8-.6 1.6-.9 2.4-.5-1-1.3-1.8-2.1-2.6.5-.4.7-.8.9-1.5.1-.5-.2-.9-.5-1.2-.4-.4-1-.2-1.3.1-.3.4-.4.8-.5 1.1-.2-.3-.5-.9-.6-1.3 0-.1 0-.2 0-.4 0-.1 0-.3 0-.4.1-.4.1-.7 0-1-.2-.5-.8-.9-1.4-.6-1.4.8-.9 2.6-.1 3.7.2.3.5.6.7.8 0 0 .2.2 0 0 .3.4.7.8 1.1 1.2-.3 0-.5-.1-.8-.2 0 0-.3-.1-.2-.1-.1 0-.1 0-.2-.1-.2-1.1-1.6-1-1.8 0-.1.4.1.9.4 1.1.2.1.3.2.1.1.9.9 3.1.4 4.2 1 .3.3.5.6.7 1 .2.3.2.2.3.6.2.4.2.4.2.5-.6 1.4-1.3 2.8-2 4.1-.3-.7-.8-1.4-1.3-2 .1-.3.4-.6.5-.8.3-.5.4-.8.2-1.3s-.9-.8-1.4-.4c-.3.3-.5.6-.6 1-.3-.4-.2-.5-.4-1.1 0-.1-.2-.3-.1-.2-.1-.1-.1-.3-.3-.3-.4-.3-.9-.3-1.2.1-.5.8 0 1.6.5 2.3 1 1.5 2.8 3 3.1 4.4v.2c-.7 1.5-1.2 2.5-1.7 3.6-.7-1-1.8-1.6-2.2-2.5 0 0-.1-.2-.1-.2 0-.2 0-.3 0-.4s0-.3.1-.4c.1-.3.2-.4.4-.6 0 0 .1-.1.1-.1v.1c0 .3.1.7.3 1 .5.6 1.4.6 1.7-.2.2-.3.1-.6.1-1 0-.1 0-.1 0 0 0-.1 0-.2-.1-.3 0-.1-.1-.1-.1-.2-.2-.3-.4-.6-.6-.9-.4-.4-1-.6-1.5-.5-.7.1-1.2.5-1.6 1.1-.5-.4-1.1-.7-1.8-.7-.6 0-1.1.4-1.4.8-.2.3-.4.6-.5 1 0 .1 0 .1-.1.2v.3c0-.1 0-.2 0 0 0 .4 0 .7.3 1 .5.7 1.4.5 1.7-.2.2-.3.2-.7.1-1 0 0 0 0 0-.1 0 0 .1 0 .1.1.2.2.3.2.5.5.1.1.1.3.2.4v.4c0-.1 0 .2 0 .2-.2.9-1.2 1.7-1.7 2.9-.7-.9-1.4-1.8-2.4-3.1 0-.1 0-.1 0-.2 0-1.4 1.5-3.3 2.2-4.9.3-.8.6-1.7 0-2.4-.4-.4-.9-.2-1.2.1-.1.1-.1.3-.2.4 0-.1-.1.2-.1.3-.1.6-.1.7-.2 1.1-.2-.3-.4-.6-.8-.8-.5-.3-1.2.1-1.3.7-.1.5.2.9.5 1.3.2.2.5.4.7.7-.3.7-.7 1.5-.8 2.3-.9-1.2-1.9-2.4-2.8-3.6 0-.1 0-.2.1-.6l.2-.6c.2-.4.3-.8.5-1.1.9-.8 3.2-.8 3.9-1.8-.2.1-.1.1.1-.1.2-.3.3-.8.2-1.2-.4-.9-1.8-.7-1.7.4 0 0-.1.1-.1.1.1-.1-.2.1-.2.1-.3.1-.5.2-.8.3.3-.5.6-1 .8-1.4-.1.2 0 0 0 0 .2-.3.4-.6.5-1 .6-1.2.7-3.1-.9-3.6-.6-.2-1.1.4-1.2.9-.1.4 0 .7.2 1 .1.2.1.3.1.4v.4c0 .4-.1 1-.3 1.4-.2-.3-.3-.7-.7-1s-1-.3-1.3.1c-.2.4-.4.8-.2 1.3.3.7.6 1 1.2 1.3-.6 1-1.2 1.9-1.5 3-.5-.7-.9-1.4-1.4-2.1 0-.9.2-1.7.4-2.6.1-.5.2-.9.2-1.3.1-.5.2-1 0-1.4-.1-.2-.3-.3-.5-.2-.5.2-.7.6-.9 1.1s-.3 1.1-.4 1.6v.9c-.5-.8-1-1.5-1.5-2.2-.6-.7-1.3-1.4-2.2-1.3-.1 0-.1 0-.2 0 0 0-.1.1-.1.1-.4.9.1 1.8.5 2.5.5.8 1 1.5 1.6 2.1-.3-.1-.6-.2-.9-.3-.5-.1-1.1-.2-1.7-.2-.5.1-1 .2-1.3.6-.1.2-.1.4.1.6.4.3.9.3 1.3.4s.9.1 1.4.2c.8.2 1.7.2 2.6.5.5.7 1.1 1.3 1.6 2-1.1 0-2.2.2-3.3.5-.1-.6-.4-1-.9-1.5-.4-.3-.9-.3-1.3-.2-.5.1-.7.8-.5 1.2.2.5.5.7.7 1-.4.1-1 0-1.4-.1-.1 0-.2-.1-.4-.2-.1 0-.2-.1-.4-.2-.3-.2-.5-.4-.9-.5-.5-.1-1.2.3-1.2.9-.1 1.6 1.8 2.1 3.1 2 .3 0 .8-.1 1.1-.2 0 0 .2-.1.1 0 .5-.1 1.1-.2 1.6-.3-.2.2-.4.4-.5.6 0 0-.3.2-.2.2 0 0-.1.1-.1.1-1-.4-1.6.9-.9 1.5.3.3.8.3 1.1.2.2-.1.3-.1.1 0 1.2-.3 1.9-2.5 2.9-3.2.4-.1.8-.1 1.2-.1h.6c.4 0 .4.1.6.1.9 1.3 1.7 2.5 2.6 3.8-.8-.1-1.6 0-2.4.1-.2-.2-.3-.6-.5-.9-.3-.4-.5-.8-1-.9s-1.1.4-1 1c.1.4.3.7.6 1-.5 0-.5 0-1.1-.1-.1 0-.4 0-.3 0-.1 0-.3 0-.4.1-.4.2-.8.6-.5 1.1.4.8 1.4.8 2.2.8 1.8-.1 4-1 5.4-.5.1 0 .1 0 .2.1.9 1.4 1.6 2.3 2.2 3.3-.9-.9-1.9-.2-2.9-.3 0 0-.2-.1-.2 0-.2-.1-.3-.1-.4-.2s-.3-.2-.3-.3c-.2-.3-.2-.3-.3-.6 0 0 0-.1 0-.2h.1c.3.2.6.3 1 .2.7-.1 1.2-.9.7-1.6-.2-.3-.5-.4-.8-.5-.1 0-.1 0 0 0-.1 0-.2-.1-.3-.1s-.1 0-.2 0c-.4 0-.7 0-1.1.1-.5.2-1 .5-1.2 1.1-.2.7-.1 1.3.1 1.9-.6.2-1.2.6-1.5 1.2-.3.5-.2 1.1 0 1.6.1.3.4.6.6.9 0 .1.1.1.1.1.1 0 .2.1.2.1-.1-.1-.1-.1 0 0 .3.2.6.3 1 .3.8-.1 1.1-1 .7-1.6-.2-.3-.5-.5-.8-.6s.1-.1.1-.1c.2-.1.3-.1.7-.2.1 0 .3 0 .4.1.1 0 .2.1.4.2-.1 0 .1.1.1.1.7.7.9 1.9 1.6 2.9-1.1.1-2.3.3-3.9.5-.1 0-.1-.1-.2-.1-1.2-.7-2.1-3-3.2-4.3-.5-.6-1.2-1.4-2.1-1.2-.5.1-.6.7-.5 1.1 0 .1.1.2.2.4l.2.2c.5.4.6.4.9.8-.4 0-.8 0-1.1.2-.5.3-.5 1.1 0 1.4.4.3.8.3 1.3.2.3-.1.7-.3 1-.2.5.7 1 1.3 1.6 1.8-1.5.2-3 .4-4.5.6-.1-.1-.1-.1-.4-.3-.2-.2-.2-.2-.4-.5-.3-.3-.5-.7-.7-1-.2-1.2.9-3.2.4-4.3 0 .2 0 .2 0-.1-.1-.4-.5-.7-.9-.7-1-.1-1.5 1.2-.5 1.7v.2c0-.1 0 .2 0 .2 0 .3-.1.6-.1.8-.3-.5-.5-1-.8-1.5.1.2 0 0 0-.1-.1-.3-.4-.7-.6-.9-.8-1.1-2.4-2.2-3.5-1-.4.4-.2 1.1.2 1.5.3.2.6.3 1 .4.2 0 .3.1.4.1s.2.1.4.2c.3.2.8.6 1 1-.4 0-.7-.1-1.2.1-.7.1-1 .7-.8 1.1s.5.8 1 .8c.7.1 1.2 0 1.7-.3.5 1 1.1 2 1.8 2.8-.8.1-1.7.1-2.5.2-.7-.5-1.4-1.1-2.1-1.6-.4-.3-.7-.6-1-.9-.4-.3-.7-.6-1.2-.7-.2 0-.4.1-.5.3-.1.5.2 1 .5 1.4.3.5.8.8 1.3 1.1.3.2.5.3.8.5-.9 0-1.8.1-2.6.3-.9.2-1.8.4-2.2 1.3v.2c0 .1 0 .1.1.1.5.8 1.5.8 2.4.8s1.8-.1 2.6-.3c-.2.2-.5.4-.7.6-.4.4-.8.8-1 1.4-.2.4-.3 1-.2 1.4.1.2.3.3.5.2.4-.2.7-.6 1-.9s.5-.7.8-1.1c.6-.7 1.1-1.4 1.7-2 .8-.1 1.7-.3 2.5-.4-.6 1-.9 2-1.2 3.1-.6-.2-1.1-.2-1.8 0-.5.1-.7.6-.8 1-.2.5.3 1 .8 1.1s.8-.1 1.2-.1c-.2.4-.5.9-.8 1.1-.1.1-.2.2-.3.2s-.2.1-.4.2c-.3.1-.6.2-.9.6s-.3 1.2.2 1.5c1.4.9 2.7-.5 3.3-1.7.1-.3.3-.7.3-1 0 0 .1-.2 0-.1.2-.5.4-1.1.5-1.6.1.3.2.5.3.8 0 0 .1.3.1.2v.2c-.9.7-.1 1.8.8 1.5.4-.1.7-.5.7-.9 0-.3 0-.3 0-.1.3-1.2-1.2-2.9-1.3-4.1.1-.4.3-.8.5-1.1.1-.3.1-.3.3-.5.2-.3.3-.3.4-.4 1.5-.1 3-.2 4.6-.3-.5.6-.8 1.4-1.1 2.1-.3.1-.7 0-1 0-.5 0-.9.1-1.3.5s-.2 1.2.3 1.4c.4.1.8.1 1.1 0-.1.2-.2.2-.6.7-.1.1-.2.3-.2.2-.1.1-.2.2-.2.4-.1.5.2 1 .7 1 .9 0 1.4-.8 1.8-1.6.8-1.6 1.2-4 2.2-4.9.1 0 .1-.1.2-.1 1.7-.1 2.8-.2 3.9-.3-.5 1.1-.5 2.4-1 3.2 0 0-.2.2-.1.1-.1.1-.2.2-.3.2-.1.1-.3.1-.4.2-.4.1-.4 0-.7 0 0 0-.1 0-.1-.1 0 0 0 0 0-.1.3-.2.6-.4.7-.8.2-.7-.2-1.5-1-1.4-.4 0-.6.2-.9.4-.1.1-.1.1 0 0-.1.1-.1.1-.2.2 0 .1-.1.1-.1.2-.2.3-.4.6-.4 1-.1.5 0 1.2.3 1.6.5.5 1.1.8 1.7.8-.1.6-.1 1.3.3 1.9.3.5.9.8 1.4.8.4 0 .7 0 1.1-.1.1 0 .1 0 .2-.1.1 0 .2-.1.2-.1-.1.1-.1 0 0 0 .3-.2.5-.4.7-.7.3-.7-.3-1.4-1-1.4-.3 0-.7.2-.9.4 0 0 0 0-.1 0 0-.1 0-.1 0-.2 0-.3 0-.3.2-.7.1-.1.2-.3.3-.4s.2-.1.3-.2c-.1 0 .1-.1.2-.1.9-.3 2.1.2 3.3 0-.5 1-.9 2.1-1.5 3.6-.1 0-.1.1-.2.1-1.2.7-3.6.3-5.4.6-.8.1-1.8.3-2 1.2-.1.5.2.9.7 1h.4c-.1 0 .2 0 .3-.1.6-.2.6-.3 1.1-.4-.2.3-.4.7-.3 1.1 0 .6.7 1 1.2.7.5-.2.7-.6.8-1.1.1-.3.1-.7.3-1 .8-.1 1.6-.2 2.4-.4-.6 1.4-1.2 2.8-1.8 4.2-.1 0-.1.1-.5.2-.3.1-.3.1-.6.1-.4.1-.8.1-1.2.1-1.1-.4-2.3-2.4-3.5-2.5.2.1.2.1-.1 0-.4-.1-.9.1-1.1.4-.6.8.3 1.9 1.2 1.3.1 0 .1 0 .2.1-.1 0 .2.1.2.1.2.2.4.3.7.5-.6 0-1.1 0-1.7 0 .2 0 0 0-.1 0-.3 0-.8 0-1.1 0-1.3.1-3 1-2.7 2.6.1.6.9.8 1.4.6.4-.1.6-.4.8-.7.1-.1.2-.3.3-.3.1-.1.2-.2.3-.2.4-.2.9-.4 1.3-.4-.2.3-.5.6-.5 1.1-.1.5.3 1 .8 1.1.5 0 .9-.1 1.2-.5.4-.6.6-1.1.6-1.7 1.1 0 2.2.1 3.3-.2-.4.8-.7 1.5-1.1 2.3-.8.4-1.6.7-2.4 1-.4.2-.9.3-1.3.5s-.9.3-1.2.7c-.1.2-.1.4.1.6.4.3.9.3 1.4.3.6-.1 1.1-.3 1.6-.5.3-.1.5-.3.8-.5-.4.8-.8 1.6-1.1 2.4s-.6 1.8 0 2.5c0 0 .1.1.1.1h.2c1-.1 1.5-.9 1.9-1.7s.8-1.6 1.1-2.4c0 .3.1.6.2.9.2.5.3 1.1.7 1.5.3.4.7.8 1.1.9.2 0 .4-.1.5-.3.1-.5-.1-.9-.3-1.4-.1-.4-.4-.8-.5-1.3-.3-.8-.7-1.6-.9-2.5.3-.8.6-1.6.9-2.4.5 1 1.3 1.8 2.1 2.6-.5.4-.7.8-.9 1.5-.1.5.2.9.5 1.2.4.4 1 .2 1.3-.1.3-.4.4-.8.5-1.1.2.3.5.9.6 1.3v.4.4c-.1.4-.1.7 0 1 .2.5.8.9 1.4.6 1.4-.8.9-2.6.1-3.7-.2-.3-.5-.6-.7-.8 0 0-.2-.2 0 0-.3-.4-.7-.8-1.1-1.2.3 0 .5.1.8.2 0 0 .3.1.2.1.1 0 .1 0 .2.1.2 1.1 1.6 1 1.8 0 .1-.4-.1-.9-.4-1.1-.2-.1-.3-.2-.1-.1-.9-.9-3.1-.4-4.2-1-.3-.3-.5-.6-.7-1-.2-.3-.2-.2-.3-.5-.2-.4-.2-.4-.2-.5.7-1.4 1.3-2.8 2-4.1.3.7.8 1.4 1.3 2-.1.3-.4.6-.5.8-.3.5-.4.8-.2 1.3s.9.8 1.4.4c.3-.3.5-.6.6-1 .3.4.2.5.4 1.1 0 .1.2.3.1.2.1.1.1.3.3.3.4.3.9.3 1.2-.1.5-.8 0-1.6-.5-2.3-1-1.5-2.8-3-3.1-4.4 0-.1 0-.1 0-.2.7-1.5 1.2-2.5 1.7-3.6.7 1 1.8 1.6 2.2 2.5 0 0 .1.2.1.2v.4c0 .1 0 .3-.1.4-.1.3-.2.4-.4.6 0 0-.1.1-.1.1s0 0 0-.1c0-.3-.1-.7-.3-1-.5-.6-1.4-.6-1.7.2-.2.3-.1.6-.1 1 0 .1 0 .1 0 0 0 .1 0 .2.1.3 0 .1.1.1.1.2.2.3.4.6.6.9.4.4 1 .6 1.5.5.7-.1 1.2-.5 1.6-1.1.5.4 1.1.7 1.8.7.6 0 1.1-.4 1.4-.8.2-.3.4-.6.5-1 0-.1 0-.1.1-.2 0-.1 0-.2 0-.3 0 .1 0 .2 0 0 0-.4 0-.7-.3-1-.5-.7-1.4-.5-1.7.2-.2.3-.2.7-.1 1v.1s-.1 0-.1-.1c-.2-.2-.3-.2-.5-.5-.1-.1-.1-.3-.2-.4 0-.1 0-.2 0-.4v-.2c.2-.9 1.2-1.7 1.7-2.9.7.9 1.4 1.8 2.4 3.1v.2c0 1.4-1.5 3.3-2.2 4.9-.3.8-.6 1.7 0 2.4.4.4.9.2 1.2-.1.1-.1.1-.2.2-.4 0 .1.1-.2.1-.3.1-.6.1-.7.2-1.1.2.3.4.6.8.8.5.3 1.2-.1 1.3-.7.1-.5-.2-.9-.5-1.3-.2-.2-.5-.4-.7-.7.3-.7.7-1.5.8-2.3.9 1.2 1.9 2.4 2.8 3.6 0 .1 0 .2-.1.6-.1.3-.1.3-.2.6-.2.4-.3.8-.5 1.1-.9.8-3.2.8-3.9 1.8.2-.1.1-.1-.1.1-.2.3-.3.8-.2 1.2.4.9 1.8.7 1.7-.4 0 0 .1-.1.1-.1-.1.1.2-.1.2-.1.3-.1.5-.2.8-.3-.3.5-.6 1-.8 1.4.1-.2 0 0 0 0-.2.3-.4.6-.5 1-.6 1.2-.7 3.1.9 3.6.6.2 1.1-.4 1.2-.9.1-.4 0-.7-.2-1-.1-.2-.1-.3-.1-.4s0-.3 0-.4c0-.4.1-1 .3-1.3.2.3.3.7.7 1s1 .3 1.3-.1c.2-.4.4-.8.2-1.3-.3-.7-.6-1-1.2-1.3.6-1 1.2-1.9 1.5-3 .5.7.9 1.4 1.4 2.1 0 .9-.2 1.7-.3 2.6-.1.5-.2.9-.2 1.3 0 .5-.2 1 0 1.4.1.2.3.3.5.2.5-.2.7-.6.9-1.1s.3-1.1.4-1.6c0-.3 0-.6 0-.9.5.8 1 1.5 1.5 2.2.6.7 1.3 1.4 2.2 1.3h.2s.1-.1.1-.1c.4-.9-.1-1.8-.5-2.5-.5-.8-1-1.5-1.6-2.1.3.1.6.2.9.3.5.1 1.1.2 1.7.2.5-.1 1-.2 1.3-.6.1-.2.1-.4-.1-.6-.4-.3-.9-.3-1.3-.4s-.9-.1-1.4-.2c-.8-.2-1.7-.2-2.6-.5-.5-.7-1.1-1.3-1.6-2 1.1 0 2.2-.2 3.3-.5.1.6.4 1 .9 1.5.4.3.9.3 1.3.2.5-.1.7-.8.5-1.2-.2-.5-.5-.7-.7-1 .4-.1 1 0 1.4.1.1 0 .2.1.4.2.1 0 .2.1.4.2.3.2.5.4.9.5.5.1 1.2-.3 1.2-.9.1-1.6-1.8-2.1-3.1-2-.3 0-.8.1-1.1.2h-.1c-.5.1-1.1.2-1.6.3.2-.2.4-.4.5-.6 0 0 .3-.2.2-.2 0 0 .1-.1.1-.1 1 .4 1.6-.9.9-1.5-.3-.3-.8-.3-1.1-.2-.2.1-.3.1-.1 0-1.2.3-1.9 2.5-2.9 3.2-.4.1-.8.1-1.2.1-.3 0-.3 0-.6 0-.4 0-.4-.1-.6-.1-.9-1.3-1.7-2.5-2.6-3.8.8.1 1.6 0 2.4-.1.2.2.3.6.5.9.3.4.5.8 1 .9s1.1-.4 1-1c-.1-.4-.3-.7-.6-1 .5 0 .5 0 1.1.1.1 0 .4 0 .3 0 .1 0 .3 0 .4-.1.4-.2.8-.6.5-1.1-.4-.8-1.4-.8-2.2-.8-1.8.1-4 1-5.4.5-.1 0-.1 0-.2-.1-.9-1.4-1.6-2.3-2.2-3.3 1.2-.1 2.3-.8 3.2-.7 0 0 .2.1.2 0 .2.1.3.1.4.2s.3.2.3.3c.2.3.2.3.3.6v.2s0 0-.1 0c-.3-.2-.6-.3-1-.2-.7.1-1.2.9-.7 1.6.2.3.5.4.8.5.1 0 .1 0 0 0 .1 0 .2.1.3.1h.2c.4 0 .7 0 1.1-.1.5-.2 1-.5 1.2-1.1.2-.7.1-1.3-.1-1.9.6-.2 1.2-.6 1.5-1.2.3-.5.2-1.1 0-1.6-.1-.3-.4-.6-.6-.9 0 0-.1-.1-.1-.1-.1 0-.2-.1-.2-.1.1.1.1.1 0 0-.3-.2-.6-.3-1-.3-.8.1-1.1 1-.7 1.6.2.3.5.5.8.6s-.1.1-.1.1c-.2.1-.3.1-.7.2-.1 0-.3 0-.4-.1-.1 0-.2-.1-.4-.2.1 0-.1-.1-.1-.1-.7-.7-.9-1.9-1.6-2.9 1.1-.1 2.3-.3 3.9-.5.1 0 .1.1.2.1 1.2.7 2.1 3 3.2 4.3.5.6 1.2 1.4 2.1 1.2.5-.1.6-.7.5-1.1 0-.1-.1-.2-.2-.4.1.1-.1-.1-.2-.2-.5-.4-.6-.4-.9-.8.4 0 .8 0 1.1-.2.5-.3.5-1.1 0-1.4-.4-.3-.8-.3-1.3-.2-.3.1-.7.3-1 .2-.5-.6-1-1.3-1.6-1.8 1.5-.2 3-.4 4.5-.6.1.1.1.1.4.4.2.2.2.2.4.5.3.3.5.7.7 1 .2 1.2-.9 3.2-.4 4.3 0-.2 0-.2 0 .1.1.4.5.7.9.7 1 .1 1.5-1.2.5-1.7 0-.1 0-.1 0-.2v-.2c0-.3.1-.5.1-.8.3.5.5 1 .8 1.5-.1-.2 0 0 0 .1.1.3.4.7.6.9.8 1.1 2.4 2.2 3.5 1 .4-.4.2-1.1-.2-1.5-.3-.2-.6-.3-1-.4-.2 0-.3-.1-.4-.1s-.2-.1-.4-.2c-.3-.2-.8-.6-1-1 .4 0 .7.1 1.2-.1.4-.2.8-.7.5-1.2-.2-.4-.5-.8-1-.8-.7-.1-1.2 0-1.7.3-.5-1-1.1-2-1.8-2.8.8-.1 1.7-.1 2.5-.2.7.5 1.4 1.1 2.1 1.6.4.3.7.6 1 .9.4.3.7.6 1.2.7.2 0 .4-.1.5-.3.1-.5-.2-1-.5-1.4-.3-.5-.8-.8-1.3-1.1-.3-.2-.5-.3-.8-.5.9 0 1.8-.1 2.6-.2.9-.2 1.8-.4 2.2-1.3 0-.1 0-.1 0-.2s0-.1-.1-.1c-.5-.8-1.5-.8-2.4-.8s-1.8.1-2.6.3c.2-.2.5-.4.7-.6.4-.4.8-.8 1-1.4.2-.4.3-1 .2-1.4-.1-.2-.3-.3-.5-.2-.4.2-.7.6-1 .9s-.5.7-.8 1.1c-.6.7-1.1 1.4-1.7 2-.8.1-1.7.3-2.5.4.6-1 .9-2 1.2-3.1.6.2 1.1.2 1.8 0 .5-.1.7-.6.8-1 .2-.5-.3-1-.8-1.1s-.8.1-1.2.1c.2-.4.5-.9.8-1.1.1-.1.2-.2.3-.2s.2-.1.4-.2c.3-.1.6-.2.9-.6s.3-1.2-.2-1.5c-1.4-.9-2.7.5-3.3 1.7-.1.3-.3.7-.3 1 0 0-.1.2 0 .1-.2.5-.4 1.1-.5 1.6-.1-.3-.2-.5-.3-.8 0 0-.1-.3-.1-.2 0-.1 0-.1 0-.2.9-.7.1-1.8-.8-1.6-.4.1-.7.5-.7.9 0 .3 0 .3 0 .1-.3 1.2 1.2 2.9 1.3 4.1-.1.4-.3.8-.5 1.1-.1.3-.1.3-.3.5-.2.3-.3.3-.4.4-1.5.1-3 .2-4.6.3.5-.6.8-1.4 1.1-2.1.3-.1.7 0 1 0 .5 0 .9-.1 1.3-.5s.2-1.2-.3-1.4c-.4-.1-.8-.1-1.1 0 .2-.4.3-.4.7-.9.1-.1.2-.3.2-.2.1-.1.2-.2.2-.4.1-.5-.2-1-.7-1-.9 0-1.4.8-1.8 1.6-.8 1.6-1.2 4-2.2 4.9-.1 0-.1.1-.2.1-1.7.1-2.8.2-3.9.3.5-1.1.5-2.4 1-3.2 0 0 .2-.2.1-.1.1-.1.2-.2.3-.2.1-.1.3-.1.4-.2.4-.1.4 0 .7 0 0 0 .1 0 .1.1v.1c-.3.2-.6.4-.7.8-.2.7.2 1.5 1 1.4.4 0 .6-.2.9-.4.1-.1.1-.1 0 0 .1-.1.1-.1.2-.2 0-.1.1-.1.1-.2.2-.3.4-.6.4-1 .1-.5 0-1.2-.3-1.6-.7.8-1.3.5-1.9.5zm-9 6.5c.7-.9 1.2-2 1.7-3 .2-.5.4-.9.6-1.4.3 0 .6 0 .9.1.8.1 1.5.4 2.3.4-.2.8-.2 1.5-.4 2.3-.1.3-.1.6-.2.9-.5 0-1 .1-1.5.1-1.1 0-2.3.1-3.4.6zm.2 1.9c1.1.2 2.4 0 3.5-.1.5 0 1-.1 1.5-.2.1.3.3.5.4.8.3.7.4 1.5.8 2.2-.8.2-1.4.6-2.2.9-.3.1-.6.2-.9.3-.3-.4-.6-.9-.9-1.3-.6-.8-1.3-1.9-2.2-2.6zm-1.6 1.2c.4 1.1 1.1 2.1 1.8 3 .3.4.6.8.9 1.2-.1.3-.3.5-.5.7-.5.6-1.1 1.1-1.5 1.8-.6-.6-1.2-1-1.8-1.5-.2-.2-.5-.4-.7-.6.2-.5.5-.9.7-1.4.4-1 1-2.1 1.1-3.2zm-1.8-.8c-.7.9-1.2 2-1.7 3-.2.5-.4.9-.6 1.4-.3 0-.6 0-.9-.1-.8-.1-1.5-.4-2.3-.4.2-.8.2-1.5.4-2.3.1-.3.1-.6.2-.9.5 0 1 0 1.5-.1 1.1-.1 2.3-.2 3.4-.6zm-.2-2c-1.1-.2-2.4 0-3.5.1-.5 0-1 .1-1.5.2-.1-.3-.3-.5-.4-.8-.3-.7-.4-1.5-.8-2.2.8-.2 1.4-.6 2.2-.9l.9-.3c.3.4.6.9.9 1.3.6.9 1.3 1.9 2.2 2.6zm1.6-1.1c-.4-1.1-1.2-2.1-1.8-3-.3-.4-.6-.8-.9-1.2.1-.3.3-.5.5-.7.5-.6 1.1-1.1 1.5-1.8.6.6 1.2 1 1.8 1.5.2.2.5.4.7.6-.2.5-.5.9-.7 1.4-.4.9-1 2-1.1 3.2z" fill="#f1f0dc"/></svg>