<svg enable-background="new 0 0 100 100" viewBox="0 0 100 100" xmlns="http://www.w3.org/2000/svg" xmlns:xlink="http://www.w3.org/1999/xlink"><clipPath id="a"><path d="m420-280h100v100h-100z"/></clipPath><clipPath id="b"><path d="m-47.5-286.7h937.7v401.9h-937.7z" transform="matrix(.6711 -.7413 .7413 .6711 202.1776 284.174)"/></clipPath><clipPath id="c"><path d="m-420-140h100v100h-100z"/></clipPath><clipPath id="d"><path d="m-491.3-838.9h595v1388.2h-595z"/></clipPath><clipPath id="e"><path d="m0-140h100v100h-100z"/></clipPath><clipPath id="f"><path d="m-140 140h100v100h-100z"/></clipPath><clipPath id="g"><path d="m-171.9-63.9h172.2v516.6h-172.2z"/></clipPath><clipPath id="h"><path d="m0 140h100v100h-100z"/></clipPath><clipPath id="i"><path d="m-39.2-61.7h154.9v464.7h-154.9z"/></clipPath><g clip-path="url(#a)"><g clip-path="url(#b)"><path d="m134.8 180h625.1v625.1h-625.1z" fill="none" transform="matrix(.6711 -.7413 .7413 .6711 -218.0552 493.652)"/><path d="m134.8 180h625.1v625.1h-625.1z" fill="#1e0d12" transform="matrix(.6711 -.7413 .7413 .6711 -218.0552 493.652)"/></g><g clip-path="url(#b)"><path d="m90.9-703h625.1v625.1h-625.1z" fill="none" transform="matrix(.6711 -.7413 .7413 .6711 422.1059 170.7486)"/><path d="m90.9-703h625.1v625.1h-625.1z" fill="#1e0d12" transform="matrix(.6711 -.7413 .7413 .6711 422.1059 170.7486)"/></g><g clip-path="url(#b)"><path d="m-328.6-239.5h625.1v625.1h-625.1z" fill="none" transform="matrix(.6711 -.7413 .7413 .6711 -59.4263 12.1198)"/><path d="m-328.6-239.5h625.1v625.1h-625.1z" fill="#1e0d12" transform="matrix(.6711 -.7413 .7413 .6711 -59.4263 12.1198)"/><g fill="#e62f34"><path d="m47 69.9-4.2.2-11.5.6z"/><path d="m7.6 71.9-23.6 1.1z"/><path d="m23.4 71.1-14.9.7-.9.1z"/><path d="m94.3 67.6-7.9.3z"/><path d="m86.4 67.9-7.8.4z"/><path d="m78.6 68.3-6.4.4-25.2 1.2z"/><path d="m-13.3 128.2 1.2 23.7 1.5 31.5 7.9-.4 7.9-.4 7.9-.4 7.9-.4v.1l23.6-1.2 7.9-.4 7.9-.4 7.9-.4 7.9-.4 1.5-.1 22.1-1.1-.4-7.9-.4-7.8-.4-7.9-.4-7.9-.4-7.9-.3-7.9-.4-7.9-.4-7.8-.4-7.9-.4-7.9-.4-7.9-.4-7.9-.4-7.9-.4-7.8-7.9.3-7.8.4-31.6 1.6-15.7.8-7.9.4-15.8.8-23.6 1.1 1.1 23.7z"/><path d="m178.6 174 7.9-.4-91-82.4.4 7.9z"/><path d="m95.9 99.1-.4-7.9z"/><path d="m194.4 173.2 7.9-.4-107.6-97.4.4 7.9z"/><path d="m95.1 83.3-.4-7.9z"/><path d="m102.2 67.2-7.9.4z"/><path d="m210.2 172.4-.4-7.8-107.6-97.4-7.9.4z"/><path d="m91.6 12.4-.4-7.9-49.7-45-7.8.4z"/><path d="m92.4 28.1-.4-7.9-66.2-59.9-7.9.4z"/><path d="m93.1 43.9-.3-7.9-82.8-74.9-7.9.4z"/><path d="m93.9 59.7-.4-7.9-99.3-89.9-7.9.4z"/><path d="m15.5 71.5-33.1-30 .4 7.9 24.8 22.5.9-.1z"/><path d="m8.5 71.8-.9.1z"/><path d="m-18.4 25.7.4 7.9 41.4 37.5 7.9-.4z"/><path d="m31.3 70.7-7.9.4z"/><path d="m-19.2 10 .4 7.9 57.9 52.4 3.7-.2 4.2-.2z"/><path d="m47 69.9-4.2.2z"/><path d="m54.9 69.5 7.9-.4-82.8-74.9.4 7.9z"/><path d="m-20.8-21.6.4 7.9 91.1 82.4h1.5l6.4-.4z"/><path d="m78.6 68.3-6.4.4z"/><path d="m-21.5-37.3.4 7.8 107.5 97.4 7.9-.3z"/><path d="m94.3 67.6-7.9.3z"/></g></g></g><g clip-path="url(#c)"><g clip-path="url(#d)"><path d="m-315.1-141.6h466v466h-466z" fill="none"/><path d="m-315.1-141.6h466v466h-466z" fill="#fff"/><g fill="#e62f34"><path d="m150.9 51.2-48.3 48.2h-8l56.3-56.2z"/><path d="m150.9 35.2-64.3 64.2h-8.1l72.4-72.3z"/><path d="m150.9 19.1-80.4 80.3h-8l88.4-88.3z"/><path d="m150.9 3-96.5 96.4h-8l104.5-104.4z"/><path d="m54.4-13h-8l-8 8v8z"/><path d="m70.5-13h-8l-24.1 24.1v8z"/><path d="m86.6-13h-8.1l-40.1 40.1v8.1z"/><path d="m102.6-13h-8l-56.2 56.2v8z"/><path d="m118.7-13h-8l-72.3 72.3v8z"/><path d="m134.8-13h-8.1l-88.3 88.3v8.1z"/><path d="m150.9-13h-8.1l-104.4 104.4v8z"/><path d="m38.4 91.4v8h-8.1z"/><path d="m38.4 83.4-16.1 16h-8l24.1-24.1z"/><path d="m38.4 67.3-32.2 32.1h-8l40.2-40.1z"/><path d="m38.4 51.2-48.2 48.2h-8.1l56.3-56.2z"/><path d="m38.4 35.2-64.3 64.2h-8l72.3-72.3z"/><path d="m38.4 19.1-80.4 80.3h-8l88.4-88.3z"/><path d="m38.4 3-96.4 96.4h-8.1l104.5-104.4z"/><path d="m6.2-13h-8l-72.3 72.3v8z"/><path d="m22.3-13h-8l-88.4 88.3v8.1z"/><path d="m38.4-13h-8.1l-104.4 104.4v8z"/></g><g fill="#1e0d12"><path d="m46.4 19.1v-8l-8 8-8.1 8v8.1l8.1-8.1z"/><path d="m46.4 51.2v-8l-8 8-8.1 8.1v8l8.1-8z"/><path d="m46.4 3v-8l-8 8-8.1 8.1v8l8.1-8z"/><path d="m46.4 35.2v-8.1l-8 8.1-8.1 8v8l8.1-8z"/><path d="m46.4 67.3v-8l-8 8-8.1 8v8.1l8.1-8.1z"/><path d="m46.4 99.4v-8l-8 8-8.1 8.1v8l8.1-8z"/><path d="m46.4 83.4v-8.1l-8 8.1-8.1 8v8l8.1-8z"/><path d="m46.4-13v-8.1l-8 8.1-8.1 8v8l8.1-8z"/></g></g></g><g clip-path="url(#e)"><path clip-rule="evenodd" d="m-84.6-230.3h268.4v268.4h-268.4z" fill="#fff" fill-rule="evenodd"/><path d="m-62.2 4.5 16.8 16.8 5.5 5.6 5.6-5.6 16.8-16.8 16.8 16.8 5.6 5.6 5.6-5.6 16.8-16.8 22.3 22.4 5.6-5.6 16.8-16.8 16.8 16.8 5.6 5.6 5.5-5.6 16.8-16.8 16.8 16.8 5.6 5.6 5.6-5.6 16.8-16.8 22.3 22.4v-11.2l-16.8-16.8-5.5-5.5-5.6 5.5-16.8 16.8-22.4-22.3-5.6 5.5-16.7 16.8-16.8-16.8-5.6-5.5-5.6 5.5-16.8 16.8-22.3-22.3-5.6 5.5-16.8 16.8-16.8-16.8-5.6-5.5-5.6 5.5-16.8 16.8-16.7-16.8-5.6-5.5-5.6 5.5-16.8 16.8v11.2z" fill="#c92927"/><g fill="#96bf4d"><path d="m-62.2-17.9 16.8 16.8 5.5 5.6 5.6-5.6 16.8-16.8 16.8 16.8 5.6 5.6 5.6-5.6 16.8-16.8 22.3 22.4 5.6-5.6 16.8-16.8 16.8 16.8 5.6 5.6 5.5-5.6 16.8-16.8 16.8 16.8 5.6 5.6 5.6-5.6 16.8-16.8 22.3 22.4v-11.1l-16.8-16.8-5.5-5.6-5.6 5.6-16.8 16.8-22.4-22.4-5.6 5.6-16.7 16.8-16.8-16.8-5.6-5.6-5.6 5.6-16.8 16.8-22.3-22.4-5.6 5.6-16.8 16.8-16.8-16.8-5.6-5.6-5.6 5.6-16.8 16.8-16.7-16.8-5.6-5.6-5.6 5.6-16.8 16.8v11.1z"/><path d="m161.5 15.7-5.6 5.6-16.8 16.8-22.4-22.4-5.6 5.6-16.7 16.8-16.8-16.8-5.6-5.6-5.6 5.6-16.8 16.8-22.3-22.4-5.6 5.6-16.8 16.8-16.8-16.8-5.6-5.6-5.6 5.6-16.8 16.8-16.7-16.8-5.6-5.6-5.6 5.6-16.8 16.8h11.2l11.2-11.2 11.2 11.2h22.3l11.2-11.2 11.2 11.2h22.3l11.3-11.2 11.2 11.2h22.3l11.2-11.2 11.2 11.2h22.3l11.2-11.2 11.2 11.2h22.4l11.2-11.2 11.2 11.2h11.1l-16.8-16.8z"/></g></g><path d="m0 0h100v100h-100z" fill="#077a64"/><g clip-path="url(#f)"><g clip-path="url(#g)"><path d="m-55.7-6.4h57.5v57.5h-57.5z" fill="none"/><g fill="#ee2424"><path d="m-15.1-6.4-40.6 40.6v16.9l57.5-57.5z"/><path d="m1.8-3-54.1 54.1h3.3l50.8-50.8z"/><path d="m1.8 27.4-23.7 23.7h3.4l20.3-20.3z"/><path d="m-15.1 51.1h16.9v-16.9z"/></g><path d="m1.8.3-50.8 50.8h27.1l23.7-23.7z" fill="#67bc45"/><g fill="#fff"><path d="m1.8-6.4-57.5 57.5h3.4l54.1-54.1z"/><path d="m1.8 30.8-20.3 20.3h3.4l16.9-16.9z"/></g></g><g clip-path="url(#g)"><path d="m-55.7 51.1h57.5v57.5h-57.5z" fill="none"/><g fill="#ee2424"><path d="m-15.1 51.1-40.6 40.6v16.9l57.5-57.5z"/><path d="m1.8 54.5-54.1 54.1h3.3l50.8-50.8z"/><path d="m1.8 84.9-23.7 23.7h3.4l20.3-20.3z"/><path d="m-15.1 108.6h16.9v-16.9z"/></g><path d="m1.8 57.8-50.8 50.8h27.1l23.7-23.7z" fill="#67bc45"/><g fill="#fff"><path d="m1.8 51.1-57.5 57.5h3.4l54.1-54.1z"/><path d="m1.8 88.3-20.3 20.3h3.4l16.9-16.9z"/></g></g></g><g clip-path="url(#h)"><g clip-path="url(#i)"><path d="m55.6-3.9h57.8v57.8h-57.8z" fill="none"/><path d="m80-3.9-24.4 24.3v3.1l27.4-27.4z" fill="#fff"/><path d="m86.1-3.9-30.5 30.4v27.4l57.9-57.8z" fill="#fff"/><path d="m55.6-3.9v24.3l24.4-24.3z" fill="#ee2424"/><path d="m83-3.9-27.4 27.4v3l30.5-30.4z" fill="#67bc45"/><path d="m113.5 20.4-33.5 33.5h3l30.5-30.4z" fill="#fff"/><path d="m86.1 53.9h27.4v-27.4z" fill="#fff"/><path d="m113.5-3.9-57.9 57.8h24.4l33.5-33.5z" fill="#ee2424"/><path d="m113.5 23.5-30.5 30.4h3.1l27.4-27.4z" fill="#67bc45"/></g><g clip-path="url(#i)"><path d="m55.6 53.9h57.8v57.8h-57.8z" fill="none"/><path d="m80 53.9-24.4 24.3v3.1l27.4-27.4z" fill="#fff"/><path d="m86.1 53.9-30.5 30.4v27.4l57.9-57.8z" fill="#fff"/><path d="m55.6 53.9v24.3l24.4-24.3z" fill="#ee2424"/><path d="m83 53.9-27.4 27.4v3l30.5-30.4z" fill="#67bc45"/><path d="m113.5 78.2-33.5 33.5h3l30.5-30.4z" fill="#fff"/><path d="m86.1 111.7h27.4v-27.4z" fill="#fff"/><path d="m113.5 53.9-57.9 57.8h24.4l33.5-33.5z" fill="#ee2424"/><path d="m113.5 81.3-30.5 30.4h3.1l27.4-27.4z" fill="#67bc45"/></g><g clip-path="url(#i)"><path d="m-2.2-3.9h57.8v57.8h-57.8z" fill="none"/><path d="m22.2-3.9-24.4 24.3v3.1l27.4-27.4z" fill="#fff"/><path d="m28.3-3.9-30.5 30.4v27.4l57.8-57.8z" fill="#fff"/><path d="m-2.2-3.9v24.3l24.4-24.3z" fill="#ee2424"/><path d="m25.2-3.9-27.4 27.4v3l30.5-30.4z" fill="#67bc45"/><path d="m55.6 20.4-33.4 33.5h3l30.4-30.4z" fill="#fff"/><path d="m28.3 53.9h27.3v-27.4z" fill="#fff"/><path d="m55.6-3.9-57.8 57.8h24.4l33.4-33.5z" fill="#ee2424"/><path d="m55.6 23.5-30.4 30.4h3.1l27.3-27.4z" fill="#67bc45"/></g><g clip-path="url(#i)"><path d="m-2.2 53.9h57.8v57.8h-57.8z" fill="none"/><path d="m22.2 53.9-24.4 24.3v3.1l27.4-27.4z" fill="#fff"/><path d="m28.3 53.9-30.5 30.4v27.4l57.8-57.8z" fill="#fff"/><path d="m-2.2 53.9v24.3l24.4-24.3z" fill="#ee2424"/><path d="m25.2 53.9-27.4 27.4v3l30.5-30.4z" fill="#67bc45"/><path d="m55.6 78.2-33.4 33.5h3l30.4-30.4z" fill="#fff"/><path d="m28.3 111.7h27.3v-27.4z" fill="#fff"/><path d="m55.6 53.9-57.8 57.8h24.4l33.4-33.5z" fill="#ee2424"/><path d="m55.6 81.3-30.4 30.4h3.1l27.3-27.4z" fill="#67bc45"/></g></g><path d="m49.9 31.2c-.2-.2-.2-.4-.1-.6.1-.3.5-.4.7-.2.2.1.3.4.2.7 0 .1-.1.1-.1.1h.6v-13.1l-4.3 13.1zm-1.2-1.9c.2.1.3.4.2.7s-.5.4-.7.2c-.2-.1-.3-.4-.2-.7.1-.2.4-.3.7-.2z" fill="#56ae78"/><path d="m48.2 30.3c.2.1.6 0 .7-.2.1-.3 0-.6-.2-.7s-.6 0-.7.2c-.2.2-.1.5.2.7z" fill="#fff"/><path d="m50.5 30.3c-.2-.1-.6 0-.7.2s-.1.5.1.6h.7s.1-.1.1-.1c.1-.2 0-.6-.2-.7z" fill="#fff"/><path d="m54.5 26.5c-1.6 0-2.9-1.3-2.9-2.9 0-1.3.8-2.3 1.9-2.7l-1.7-5.2-.7 2.3v13.1h5.7l-1.5-4.8c-.2.2-.5.2-.8.2z" fill="#56ae78"/><path d="m51.6 23.7c0 1.6 1.3 2.9 2.9 2.9.3 0 .6-.1.8-.1 1.2-.4 2-1.4 2-2.7 0-1.6-1.3-2.9-2.9-2.9-.3 0-.6.1-.9.2-1.1.3-1.9 1.3-1.9 2.6z" fill="#ee262e"/><path d="m46.1 41.6c0 1.6-1.3 2.9-2.9 2.9-.2 0-.5 0-.7-.1l-3.2 9.9s.1.1.1.1c.1.3 0 .6-.2.7-.1 0-.1 0-.2 0l-3.6 11.2h.1c1.6 0 2.9 1.3 2.9 2.9s-1.3 2.9-2.9 2.9c-.7 0-1.3-.2-1.8-.6l-.5 1.7h15.8 2.1v-4.6c-.1-.2-.1-.4 0-.6 0-.1 0-.1.1-.2v-6.3c-.5.6-1.3 1-2.1 1-1.6 0-2.9-1.3-2.9-2.9s1.3-2.9 2.9-2.9c.8 0 1.6.4 2.1 1v-9.4c-.1-.1 0-.3 0-.4v-16.7h-.6c-.2.1-.4.2-.6.1 0 0-.1 0-.1-.1h-3l-2.5 7.8c1 .4 1.7 1.4 1.7 2.6zm-8.1 22.3c-.1.3-.4.4-.7.3s-.4-.4-.3-.7.4-.4.7-.3.4.4.3.7zm11.1 3.5c.1-.3.4-.4.7-.3s.4.4.3.7-.4.4-.7.3-.4-.4-.3-.7zm-2-.6c.1-.3.4-.4.7-.3s.4.4.3.7-.4.4-.7.3c-.3-.2-.4-.5-.3-.7zm2.5-18.2c.2-.1.6 0 .7.2.1.3 0 .6-.2.7s-.6 0-.7-.2c-.2-.2-.1-.5.2-.7zm-1.8 1c.2-.1.6 0 .7.2.1.3 0 .6-.2.7s-.6 0-.7-.2c-.2-.3-.1-.6.2-.7zm-7.8 15c-.1.3-.4.4-.7.3s-.4-.4-.3-.7.4-.4.7-.3.4.4.3.7zm.4-10.6c-.1-.3 0-.6.2-.7s.6 0 .7.2c.1.3 0 .6-.2.7-.3.1-.6 0-.7-.2zm1.6 11.2c-.1.3-.4.4-.7.3s-.4-.4-.3-.7.4-.4.7-.3.4.4.3.7zm.8-11.9c-.2.1-.6 0-.7-.2-.1-.3 0-.6.2-.7s.6 0 .7.2c.2.2.1.5-.2.7zm1.3 12.5c-.1.3-.4.4-.7.3s-.4-.4-.3-.7.4-.4.7-.3c.2.1.3.4.3.7zm.5-13.5c-.2.1-.6 0-.7-.2-.1-.3 0-.6.2-.7s.6 0 .7.2c.2.3.1.6-.2.7zm1.5 14.2c-.1.3-.4.4-.7.3s-.4-.4-.3-.7.4-.4.7-.3c.2.1.3.4.3.7zm.6-15.8c.1.3 0 .6-.2.7s-.6 0-.7-.2c-.1-.3 0-.6.2-.7s.5 0 .7.2z" fill="#56ae78"/><path d="m49 73.1h2.1v5.7h-2.1z" fill="#c47229"/><g fill="#fff"><path d="m50.6 31.2h-.7s.1.1.1.1c.2 0 .4 0 .6-.1z"/><path d="m51.1 48.4v-.4z"/><path d="m50 49.6c.2-.1.3-.4.2-.7s-.4-.4-.7-.2c-.2.1-.3.4-.2.7.2.2.5.3.7.2z"/><path d="m48.2 50.5c.2-.1.3-.4.2-.7s-.4-.4-.7-.2c-.2.1-.3.4-.2.7.2.2.5.3.7.2z"/><path d="m45.8 51.2c.1.3.4.4.7.2.2-.1.3-.4.2-.7s-.4-.4-.7-.2c-.3.1-.4.4-.2.7z"/><path d="m44.2 51.4c-.2.1-.3.4-.2.7s.4.4.7.2c.2-.1.3-.4.2-.7-.2-.2-.5-.3-.7-.2z"/><path d="m43.1 52.6c-.1-.3-.4-.4-.7-.2-.2.1-.3.4-.2.7s.4.4.7.2c.2-.2.3-.5.2-.7z"/><path d="m41.3 53.5c-.1-.3-.4-.4-.7-.2-.2.1-.3.4-.2.7s.4.4.7.2c.2-.1.3-.4.2-.7z"/><path d="m39.5 54.4s-.1-.1-.1-.1c-.2-.2-.4-.2-.6-.1s-.3.4-.2.7c.1.2.3.3.5.3h.2c.2-.2.3-.5.2-.8z"/><path d="m37.7 63.3c-.3-.1-.6.1-.7.3-.1.3.1.6.3.7.3.1.6-.1.7-.3.1-.4 0-.7-.3-.7z"/><path d="m39.7 63.9c-.3-.1-.6.1-.7.3-.1.3.1.6.3.7.3.1.6-.1.7-.3.1-.3 0-.6-.3-.7z"/><path d="m41.7 64.5c-.3-.1-.6.1-.7.3-.1.3.1.6.3.7.3.1.6-.1.7-.3.1-.3 0-.6-.3-.7z"/><path d="m43.7 65.2c-.3-.1-.6.1-.7.3-.1.3.1.6.3.7.3.1.6-.1.7-.3.1-.4 0-.7-.3-.7z"/><path d="m45.7 65.8c-.3-.1-.6.1-.7.3-.1.3.1.6.3.7.3.1.6-.1.7-.3.1-.3 0-.6-.3-.7z"/><path d="m47.4 67.4c.3.1.6-.1.7-.3.1-.3-.1-.6-.3-.7-.3-.1-.6.1-.7.3-.1.3 0 .6.3.7z"/><path d="m49.4 68.1c.3.1.6-.1.7-.3.1-.3-.1-.6-.3-.7-.3-.1-.6.1-.7.3-.1.3 0 .6.3.7z"/><path d="m51.1 68.5v-.6s-.1.1-.1.2 0 .3.1.4z"/></g><path d="m46.1 41.6c0-1.2-.7-2.2-1.8-2.6-.3-.1-.7-.2-1.1-.2-1.6 0-2.9 1.3-2.9 2.9 0 1.3.9 2.5 2.2 2.8.2.1.4.1.7.1 1.6-.2 2.9-1.4 2.9-3z" fill="#fec010"/><path d="m49 56.8c-1.6 0-2.9 1.3-2.9 2.9s1.3 2.9 2.9 2.9c.8 0 1.6-.4 2.1-1v-3.8c-.5-.6-1.2-1-2.1-1z" fill="#ee262e"/><path d="m38.4 69.2c0-1.6-1.3-2.9-2.9-2.9h-.1c-1.5.1-2.8 1.3-2.8 2.9 0 .9.4 1.7 1.1 2.2.5.4 1.1.6 1.8.6 1.6.1 2.9-1.2 2.9-2.8z" fill="#fec010"/><path d="m65.4 73.1c-.2-.1-.4-.4-.3-.6.1-.3.4-.4.7-.3s.4.4.3.7c0 .2-.2.3-.3.3h4.7l-1.6-5c-.2.1-.5.1-.8.1-1.6 0-2.9-1.3-2.9-2.9 0-1.2.8-2.3 1.9-2.7l-6.1-18.8c0 .1-.1.1-.2.2-.2.1-.6 0-.7-.2s0-.6.2-.7c.1-.1.3-.1.4 0l-3.9-11.9h-5.7v16.7c0-.1.1-.2.2-.3.2-.1.6 0 .7.2.1.3 0 .6-.2.7s-.6 0-.7-.2c0 0 0 0 0-.1v9.4c.5.5.7 1.2.7 1.9s-.3 1.4-.7 1.9v6.3c.1-.2.4-.3.6-.2.3.1.4.4.3.7s-.4.4-.7.3c-.1 0-.2-.1-.3-.2v4.6h3.6 10.8zm-9.3-3.5c-.1.3-.4.4-.7.4-.3-.1-.4-.4-.3-.7s.4-.4.7-.3c.2 0 .3.3.3.6zm2 .7c-.1.3-.4.4-.7.3s-.4-.4-.3-.7.4-.4.7-.3c.2.1.3.4.3.7zm2 .6c-.1.3-.4.4-.7.3s-.4-.4-.3-.7.4-.4.7-.3c.2.1.3.4.3.7zm2 .6c-.1.3-.4.4-.7.3s-.4-.4-.3-.7.4-.4.7-.3c.2.1.3.4.3.7zm1.6 0c.3.1.4.4.3.7s-.4.4-.7.3-.4-.4-.3-.7c.1-.2.4-.4.7-.3zm-5.1-27.5c.2-.1.6 0 .7.2.1.3 0 .6-.2.7s-.6 0-.7-.2c-.2-.2-.1-.5.2-.7zm1.6 4.2c1.6 0 2.9 1.3 2.9 2.9s-1.3 2.9-2.9 2.9-2.9-1.3-2.9-2.9c.1-1.7 1.4-2.9 2.9-2.9zm-3.2-13.8c.1-.3.5-.4.7-.2s.3.4.2.7-.5.4-.7.2c-.3-.1-.3-.4-.2-.7zm-.2 10.6c.2-.1.6 0 .7.2.1.3 0 .6-.2.7s-.6 0-.7-.2c-.2-.3-.1-.6.2-.7zm-1.6-11.6c.1-.3.5-.4.7-.2.2.1.3.4.2.7s-.5.4-.7.2c-.3-.1-.3-.4-.2-.7zm-2.7-1.4c-.1.3-.5.4-.7.2-.2-.1-.3-.4-.2-.7s.5-.4.7-.2c.2.1.3.4.2.7zm.7 14.8c.2-.1.6 0 .7.2.1.3 0 .6-.2.7s-.6 0-.7-.2c-.2-.3-.1-.6.2-.7zm.9 22.2c-.1.3-.4.4-.7.3s-.4-.4-.3-.7.4-.4.7-.3c.2.1.3.4.3.7zm.2-36c-.1.3-.5.4-.7.2-.2-.1-.3-.4-.2-.7s.5-.4.7-.2c.2.1.3.4.2.7zm.7 12.9c.2-.1.6 0 .7.2.1.3 0 .6-.2.7s-.6 0-.7-.2c-.2-.3-.1-.6.2-.7z" fill="#56ae78"/><path d="m51.1 73.1h3.6v5.7h-3.6z" fill="#c47229"/><g fill="#fff"><path d="m52.3 31.3c-.2-.1-.6 0-.7.2-.1.3 0 .6.2.7s.6 0 .7-.2c.1-.3 0-.6-.2-.7z"/><path d="m54.1 32.3c-.2-.1-.6 0-.7.2-.1.3 0 .6.2.7s.6 0 .7-.2c.1-.3 0-.6-.2-.7z"/><path d="m55.4 34.2c.2.1.6 0 .7-.2.1-.3 0-.6-.2-.7s-.6 0-.7.2-.1.5.2.7z"/><path d="m57.2 35.1c.2.1.6 0 .7-.2.1-.3 0-.6-.2-.7s-.6 0-.7.2c-.1.3-.1.6.2.7z"/><path d="m60.4 43.1c-.2.1-.3.4-.2.7s.4.4.7.2c.1 0 .1-.1.2-.2.1-.2.1-.4 0-.5s-.2-.2-.3-.3c-.2 0-.3 0-.4.1z"/><path d="m59 45c.2-.1.3-.4.2-.7s-.4-.4-.7-.2c-.2.1-.3.4-.2.7.2.2.5.3.7.2z"/><path d="m57.2 45.9c.2-.1.3-.4.2-.7s-.4-.4-.7-.2c-.2.1-.3.4-.2.7.2.2.5.3.7.2z"/><path d="m55.4 46.8c.2-.1.3-.4.2-.7s-.4-.4-.7-.2c-.2.1-.3.4-.2.7.2.2.5.3.7.2z"/><path d="m53.6 47.7c.2-.1.3-.4.2-.7s-.4-.4-.7-.2c-.2.1-.3.4-.2.7.2.3.5.4.7.2z"/><path d="m51.8 48.7c.2-.1.3-.4.2-.7s-.4-.4-.7-.2c-.1.1-.2.2-.2.3v.4.1c.2.1.5.2.7.1z"/><path d="m51.4 68.7c.3.1.6-.1.7-.3.1-.3-.1-.6-.3-.7s-.4 0-.6.2v.6c0 .1.1.2.2.2z"/><path d="m53.7 68.3c-.3-.1-.6.1-.7.3-.1.3.1.6.3.7.3.1.6-.1.7-.3.1-.3 0-.6-.3-.7z"/><path d="m55.7 69c-.3-.1-.6.1-.7.3-.1.3.1.6.3.7.3.1.6-.1.7-.3.1-.4 0-.7-.3-.7z"/><path d="m57.7 69.6c-.3-.1-.6.1-.7.3-.1.3.1.6.3.7.3.1.6-.1.7-.3.1-.3 0-.6-.3-.7z"/><path d="m59.7 70.2c-.3-.1-.6.1-.7.3-.1.3.1.6.3.7.3.1.6-.1.7-.3.1-.3 0-.6-.3-.7z"/><path d="m61.7 70.9c-.3-.1-.6.1-.7.3-.1.3.1.6.3.7.3.1.6-.1.7-.3.1-.4 0-.7-.3-.7z"/><path d="m63.4 72.5c.3.1.6-.1.7-.3.1-.3-.1-.6-.3-.7-.3-.1-.6.1-.7.3-.1.3 0 .6.3.7z"/><path d="m66.1 72.8c.1-.3-.1-.6-.3-.7-.3-.1-.6.1-.7.3-.1.3.1.5.3.6h.4c.1 0 .2-.1.3-.2z"/></g><path d="m60.2 53.9c1.6 0 2.9-1.3 2.9-2.9s-1.3-2.9-2.9-2.9-2.9 1.3-2.9 2.9c.1 1.6 1.4 2.9 2.9 2.9z" fill="#ee262e"/><path d="m51.1 57.7v3.8c.5-.5.7-1.2.7-1.9.1-.7-.2-1.4-.7-1.9z" fill="#ee262e"/><path d="m65.2 65.4c0 1.6 1.3 2.9 2.9 2.9.3 0 .5 0 .8-.1 1.2-.3 2.1-1.4 2.1-2.7 0-1.6-1.3-2.9-2.9-2.9-.4 0-.7.1-1 .2-1.1.3-1.9 1.3-1.9 2.6z" fill="#fec010"/></svg>