<svg enable-background="new 0 0 100 100" viewBox="0 0 100 100" xmlns="http://www.w3.org/2000/svg" xmlns:xlink="http://www.w3.org/1999/xlink"><clipPath id="a"><path d="m280-280h100v100h-100z"/></clipPath><clipPath id="b"><path d="m-187.5-286.7h937.7v401.9h-937.7z" transform="matrix(.6711 -.7413 .7413 .6711 156.1378 180.3883)"/></clipPath><clipPath id="c"><path d="m-560-140h100v100h-100z"/></clipPath><clipPath id="d"><path d="m-631.3-838.9h595v1388.2h-595z"/></clipPath><clipPath id="e"><path d="m-140-140h100v100h-100z"/></clipPath><clipPath id="f"><path d="m-140 140h100v100h-100z"/></clipPath><clipPath id="g"><path d="m-179.2-61.7h154.9v464.7h-154.9z"/></clipPath><g clip-path="url(#a)"><g clip-path="url(#b)"><path d="m-5.2 180h625.1v625.1h-625.1z" fill="none" transform="matrix(.6711 -.7413 .7413 .6711 -264.0949 389.8663)"/><path d="m-5.2 180h625.1v625.1h-625.1z" fill="#1e0d12" transform="matrix(.6711 -.7413 .7413 .6711 -264.0949 389.8663)"/></g><g clip-path="url(#b)"><path d="m-49.1-703h625.1v625.1h-625.1z" fill="none" transform="matrix(.6711 -.7413 .7413 .6711 376.0661 66.9629)"/><path d="m-49.1-703h625.1v625.1h-625.1z" fill="#1e0d12" transform="matrix(.6711 -.7413 .7413 .6711 376.0661 66.9629)"/></g><g clip-path="url(#b)"><path d="m-468.6-239.5h625.1v625.1h-625.1z" fill="none" transform="matrix(.6711 -.7413 .7413 .6711 -105.4661 -91.666)"/><path d="m-468.6-239.5h625.1v625.1h-625.1z" fill="#1e0d12" transform="matrix(.6711 -.7413 .7413 .6711 -105.4661 -91.666)"/><g fill="#e62f34"><path d="m38.6 174 7.9-.4-91-82.4.4 7.9z"/><path d="m54.4 173.2 7.9-.4-107.6-97.4.4 7.9z"/><path d="m56.8 62.5-7.9.4z"/><path d="m65.1 70-8.3-7.5-7.9.4 16.6 14.9z"/><path d="m41 63.3-7.8.3z"/><path d="m65.9 85.7-24.9-22.4-7.8.3 33.1 30z"/><path d="m25.3 64-7.9.4z"/><path d="m66.6 101.5-41.3-37.5-7.9.4 49.6 45z"/><path d="m9.5 64.8-7.9.4z"/><path d="m67.4 117.3-57.9-52.5-7.9.4 66.2 59.9z"/><path d="m68.2 133-74.5-67.4-7.8.4 82.7 74.9z"/><path d="m69 148.8-91-82.4-7.9.4 99.3 89.9z"/><path d="m70.2 172.4-.4-7.8-107.6-97.4-7.9.4z"/><path d="m65.9 85.7.4 7.9z"/><path d="m66.3 93.6 82.7 74.9 7.9-.4-91-82.4z"/><path d="m66.3 93.6-.4-7.9z"/><path d="m66.3 93.6-.4-7.9z"/><path d="m66.3 93.6-.4-7.9z"/><path d="m65.1 70 .4 7.8z"/><path d="m65.5 77.8 99.3 89.9 7.9-.3-107.6-97.4z"/><path d="m65.5 77.8-.4-7.8z"/><path d="m65.5 77.8-.4-7.8z"/><path d="m65.1 70 .4 7.8z"/><path d="m96.2 60.5 7.9-.4z"/><path d="m96.2 60.5 82.8 74.9-.4-7.9-74.5-67.4z"/><path d="m80.5 61.3 7.8-.4z"/><path d="m80.5 61.3 99.3 89.9-.4-7.9-91.1-82.4z"/><path d="m64.7 62.1 7.9-.4z"/><path d="m64.7 62.1 115.8 104.9-.3-7.9-107.6-97.4z"/></g><g fill="#25793d"><path d="m172.7 9.3-66.2-60-3.1.2-4.8.2 74.5 67.5z"/><path d="m173.9 32.9-.4-7.8-82.8-75-6 .3-1.8.1z"/><path d="m174.7 48.7-.4-7.9-99.3-89.9-7.3.4h-.6z"/><path d="m63.9 46.3.4 7.9z"/><path d="m80.5 61.3-16.6-15 .4 7.9 8.3 7.5z"/><path d="m63.9 46.3.4 7.9z"/><path d="m63.5 38.4-.4-7.9z"/><path d="m96.2 60.5-33.1-30 .4 7.9 24.8 22.5z"/><path d="m63.1 30.5.4 7.9z"/><path d="m62.3 14.8.4 7.9z"/><path d="m62.7 22.7 41.4 37.4 7.9-.4-49.7-44.9z"/><path d="m62.3 14.8.4 7.9z"/><path d="m61.6-1 .4 7.9z"/><path d="m62 6.9 57.9 52.4 7.9-.4-66.2-59.9z"/><path d="m61.6-1 .4 7.9z"/><path d="m61.2-8.9 74.4 67.4 7.9-.3-82.7-75z"/><path d="m60.4-24.6 91 82.4 7.9-.4-99.3-89.9z"/><path d="m167.2 57 7.9-.4-115.9-104.9.4 7.9z"/><path d="m88.3 60.9 7.9-.4z"/><path d="m88.3 60.9 91.1 82.4-.4-7.9-82.8-74.9z"/><path d="m72.6 61.7 7.9-.4z"/><path d="m72.6 61.7 107.6 97.4-.4-7.9-99.3-89.9z"/><path d="m66.3 93.6.3 7.9h.1z"/><path d="m66.7 101.5 74.4 67.4 7.9-.4-82.7-74.9z"/><path d="m66.7 101.5-.4-7.9z"/><path d="m66.7 101.5-.4-7.9z"/><path d="m65.5 77.8.4 7.9z"/><path d="m65.9 85.7 91 82.4 7.9-.4-99.3-89.9z"/><path d="m65.9 85.7-.4-7.9z"/><path d="m65.9 85.7-.4-7.9z"/><path d="m64.7 62.1.4 7.9z"/><path d="m65.1 70 107.6 97.4 7.8-.4-115.8-104.9z"/><path d="m65.1 70-.4-7.9z"/><path d="m65.1 70-.4-7.9z"/></g></g></g><g clip-path="url(#c)"><g clip-path="url(#d)"><path d="m-455.1-141.6h466v466h-466z" fill="none"/><path d="m-455.1-141.6h466v466h-466z" fill="#fff"/><g fill="#e62f34"><path d="m10.9 91.4v8h-8.1z"/><path d="m10.9 83.4-16.1 16h-8.1l24.2-24.1z"/><path d="m10.9 67.3-32.2 32.1h-8l40.2-40.1z"/><path d="m10.9 51.2-48.3 48.2h-8l56.3-56.2z"/><path d="m10.9 35.2-64.3 64.2h-8.1l72.4-72.3z"/><path d="m10.9 19.1-80.4 80.3h-8l88.4-88.3z"/><path d="m10.9 3-96.5 96.4h-8l104.5-104.4z"/><path d="m10.9-13h-8.1l-104.4 104.4v8z"/></g></g></g><g clip-path="url(#e)"><path clip-rule="evenodd" d="m-224.6-230.3h268.4v268.4h-268.4z" fill="#fff" fill-rule="evenodd"/><path d="m-202.2 4.5 16.8 16.8 5.5 5.6 5.6-5.6 16.8-16.8 16.8 16.8 5.6 5.6 5.6-5.6 16.8-16.8 22.3 22.4 5.6-5.6 16.8-16.8 16.8 16.8 5.6 5.6 5.5-5.6 16.8-16.8 16.8 16.8 5.6 5.6 5.6-5.6 16.8-16.8 22.3 22.4v-11.2l-16.8-16.8-5.5-5.5-5.6 5.5-16.8 16.8-22.4-22.3-5.6 5.5-16.7 16.8-16.8-16.8-5.6-5.5-5.6 5.5-16.8 16.8-22.3-22.3-5.6 5.5-16.8 16.8-16.8-16.8-5.6-5.5-5.6 5.5-16.8 16.8-16.7-16.8-5.6-5.5-5.6 5.5-16.8 16.8v11.2z" fill="#c92927"/><g fill="#96bf4d"><path d="m-202.2-17.9 16.8 16.8 5.5 5.6 5.6-5.6 16.8-16.8 16.8 16.8 5.6 5.6 5.6-5.6 16.8-16.8 22.3 22.4 5.6-5.6 16.8-16.8 16.8 16.8 5.6 5.6 5.5-5.6 16.8-16.8 16.8 16.8 5.6 5.6 5.6-5.6 16.8-16.8 22.3 22.4v-11.1l-16.8-16.8-5.5-5.6-5.6 5.6-16.8 16.8-22.4-22.4-5.6 5.6-16.7 16.8-16.8-16.8-5.6-5.6-5.6 5.6-16.8 16.8-22.3-22.4-5.6 5.6-16.8 16.8-16.8-16.8-5.6-5.6-5.6 5.6-16.8 16.8-16.7-16.8-5.6-5.6-5.6 5.6-16.8 16.8v11.1z"/><path d="m21.5 15.7-5.6 5.6-16.8 16.8-22.4-22.4-5.6 5.6-16.7 16.8-16.8-16.8-5.6-5.6-5.6 5.6-16.8 16.8-22.3-22.4-5.6 5.6-16.8 16.8-16.8-16.8-5.6-5.6-5.6 5.6-16.8 16.8-16.7-16.8-5.6-5.6-5.6 5.6-16.8 16.8h11.2l11.2-11.2 11.2 11.2h22.3l11.2-11.2 11.2 11.2h22.3l11.3-11.2 11.2 11.2h22.3l11.2-11.2 11.2 11.2h22.3l11.2-11.2 11.2 11.2h22.4l11.2-11.2 11.2 11.2h11.1l-16.8-16.8z"/></g></g><path d="m0 0h100v100h-100z" fill="#f4eed4"/><g clip-path="url(#f)"><g clip-path="url(#g)"><path d="m-26.5-3.9h57.8v57.8h-57.8z" fill="none"/><path d="m-2.2-3.9-24.3 24.3v3.1l27.3-27.4z" fill="#fff"/><path d="m3.9-3.9-30.4 30.4v27.4l57.8-57.8z" fill="#fff"/><path d="m.8-3.9-27.3 27.4v3l30.4-30.4z" fill="#67bc45"/><path d="m31.3 20.4-33.5 33.5h3l30.5-30.4z" fill="#fff"/><path d="m3.9 53.9h27.4v-27.4z" fill="#fff"/><path d="m31.3-3.9-57.8 57.8h24.3l33.5-33.5z" fill="#ee2424"/><path d="m31.3 23.5-30.5 30.4h3.1l27.4-27.4z" fill="#67bc45"/></g><g clip-path="url(#g)"><path d="m-26.5 53.9h57.8v57.8h-57.8z" fill="none"/><path d="m-2.2 53.9-24.3 24.3v3.1l27.3-27.4z" fill="#fff"/><path d="m3.9 53.9-30.4 30.4v27.4l57.8-57.8z" fill="#fff"/><path d="m.8 53.9-27.3 27.4v3l30.4-30.4z" fill="#67bc45"/><path d="m31.3 78.2-33.5 33.5h3l30.5-30.4z" fill="#fff"/><path d="m3.9 111.7h27.4v-27.4z" fill="#fff"/><path d="m31.3 53.9-57.8 57.8h24.3l33.5-33.5z" fill="#ee2424"/><path d="m31.3 81.3-30.5 30.4h3.1l27.4-27.4z" fill="#67bc45"/></g></g><path d="m80.9 45.4c0-.4-.2-.7-.5-.9-.2-.1-.5-.3-1-.2-1.4.2-2.8.5-4.1.7.9-1 1.7-2 2.5-2.9l.4-.4c.2-.3.3-.6.3-1 0-.5-.5-1-1-1.2s-1 0-1.4.4l-.4.5c-1.5 1.8-3.1 3.7-4.8 5.3 0 0-.1.1-.1.1-2.1.3-4.2.7-6.3 1 .6-1.9 1.5-3.7 2.6-5.2.2-.3.3-.6.3-1s-.3-.8-.6-1-.8-.3-1.2-.1c-2 .7-3.7 1-5.2 1 1.4-1.9 2.7-3.8 4.1-5.7.4-.1.8-.2 1.2-.3 2.2-.5 4.5-1.1 6.8-1.8.6-.2.9-.7.9-1.3 0-.4-.3-.9-.6-1.1s-.8-.3-1.2-.1c-1.6.5-3.2.9-4.6 1.3.8-1.1 1.6-2.3 2.4-3.4.2-.3.3-.6.3-.9 0-.6-.5-1.1-1.1-1.3-.5-.1-1 .1-1.3.5-.8 1.1-1.6 2.3-2.4 3.4-.1-1-.1-2-.2-2.9l-.1-1.5c-.1-.9-.8-1.3-1.5-1.2s-1.3.6-1.2 1.4l.1 1.5c.2 1.9.3 4 .3 6.2v.2c-1.3 1.8-2.6 3.6-3.9 5.4-1-1.9-1.7-3.9-2-5.9-.1-.6-.6-1.1-1.2-1.2s-1.1.2-1.4.7c-.9 1.7-1.8 3.1-2.8 4.1-.3-2.2-.7-4.3-1.1-6.5.2-.3.4-.7.6-1 1.2-1.9 2.5-4 3.5-6.1.1-.2.2-.5.1-.7 0-.6-.5-1.1-1.1-1.2s-1.2.2-1.4.7c-.7 1.5-1.6 2.9-2.4 4.2-.2-1.4-.5-2.7-.7-4.1-.1-.9-.9-1.2-1.6-1.2-.8.1-1.2.7-1.1 1.5.2 1.4.5 2.8.7 4.1-1-.9-2-1.7-2.9-2.5l-.5-.4c-.4-.4-1-.4-1.4-.2-.5.3-.8.8-.8 1.4 0 .3.2.6.5.9l.5.4c1.8 1.5 3.7 3.1 5.3 4.8 0 0 .1.1.1.1.4 2.2.7 4.4 1.1 6.5-2.1-.6-4.2-1.6-5.9-2.8-.5-.3-1.1-.4-1.5-.1-.6.3-.8 1-.6 1.6.6 1.8.9 3.3.9 4.8-1.7-1.2-3.3-2.4-5-3.6-.1-.4-.2-.8-.3-1.2-.5-2.2-1.1-4.5-1.8-6.8-.2-.7-.8-1-1.5-.9-.6.1-1.2.7-1.1 1.4 0 .1 0 .2.1.3.5 1.6.9 3.2 1.3 4.6-1.1-.8-2.3-1.6-3.4-2.4-.5-.3-1-.3-1.5-.1-.5.3-.8.8-.7 1.3 0 .4.2.7.5.9 1.1.8 2.3 1.9 3.5 2.7-1.3.1-2.6.5-3.9.6h-.5c-.9.1-1.3.5-1.2 1.2 0 .4.2.6.5.8s.6.2 1 .2l.5-.1c2.4-.2 4.8-.4 7.2-.4h.2c1.7 1.2 3.4 2.5 5.1 3.7-2 1.1-4.1 1.9-6.3 2.2-.7.1-1.3.8-1.2 1.5 0 .5.3.8.8 1.1 1.8.9 3.1 1.8 4.2 2.8-2 .3-4 .6-6 1-.3-.2-.7-.4-1-.6-1.9-1.2-4-2.5-6.1-3.5-.4-.2-.9-.2-1.3.1s-.7.8-.6 1.3c0 .5.3.8.7 1.1 1.5.7 2.9 1.6 4.2 2.4-1.4.2-2.7.5-4.1.7-.8.1-1.2.9-1.2 1.5 0 .4.2.7.5.9.2.1.5.3 1 .2 1.4-.2 2.8-.5 4.1-.7-.9 1-1.7 2-2.5 2.9l-.4.4c-.2.3-.3.6-.3 1 0 .5.5 1 1 1.2s1 0 1.4-.4l.4-.5c1.5-1.8 3.1-3.7 4.8-5.3 0 0 .1-.1.1-.1 2-.3 3.9-.6 5.9-1-.6 2.1-1.6 4.1-2.8 5.8-.2.3-.3.6-.3 1s.3.8.6 1 .8.3 1.2.1c2-.7 3.8-1 5.4-1-1.2 1.7-2.4 3.3-3.6 5-.4.1-.8.2-1.2.3-2.2.5-4.6 1.1-6.8 1.8-.6.2-.9.7-.9 1.3 0 .4.3.9.6 1.1s.8.3 1.2.1c1.6-.5 3.2-.9 4.6-1.3-.8 1.1-1.6 2.3-2.4 3.4-.2.3-.3.6-.3.9 0 .6.5 1.1 1.1 1.3.5.1 1 0 1.3-.5.8-1.1 1.6-2.3 2.4-3.4.1 1 .1 2 .2 2.9l.1 1.5c.1.9.8 1.3 1.5 1.2s1.3-.6 1.2-1.4l-.1-1.5c-.2-1.9-.3-4-.3-6.2 0-.1 0-.1 0-.2 1.1-1.5 2.2-3.1 3.3-4.6 1 1.8 1.6 3.8 2 5.8.1.6.6 1.1 1.2 1.2s1.1-.2 1.4-.7c1-2.1 2.1-3.6 3.4-4.7.3 2.2.7 4.3 1.1 6.5-.2.3-.4.7-.6 1-1.2 1.9-2.5 4-3.5 6.1-.4.5-.4.7-.4 1 0 .6.5 1.1 1.1 1.2s1.2-.2 1.4-.7c.7-1.5 1.6-2.9 2.4-4.2.2 1.4.5 2.7.7 4.1.1.9.9 1.2 1.6 1.2.8-.1 1.2-.7 1.1-1.5-.2-1.4-.5-2.8-.7-4.1 1 .9 2 1.7 2.9 2.5l.4.4c.4.4 1 .4 1.4.2.5-.3.8-.8.8-1.4 0-.3-.2-.6-.5-.9l-.5-.4c-1.8-1.5-3.7-3.1-5.3-4.8 0 0-.1-.1-.1-.1-.3-1.9-.6-3.8-.9-5.7 1.9.6 3.6 1.5 5.1 2.6.5.3 1.1.4 1.5.1.6-.3.8-1 .6-1.6-.5-1.6-.8-2.9-.9-4.1 0-.6-.1-1.2 0-1.7 1.9 1.4 3.8 2.7 5.6 4.1.1.4.2.8.3 1.2.5 2.2 1.1 4.5 1.8 6.8.2.7.8 1 1.5.9.6-.1 1.2-.7 1.1-1.4 0-.1 0-.2-.1-.3-.5-1.6-.9-3.2-1.3-4.6 1.1.8 2.3 1.6 3.4 2.4.5.3 1 .3 1.5.1.5-.3.8-.8.7-1.3 0-.4-.2-.7-.5-.9-1.1-.8-2.3-2.1-3.5-2.9 1.3-.1 2.6-.7 3.9-.8h.5c.9-.1 1.3-.3 1.2-1 0-.4-.2-.7-.5-.9s-.6-.3-1-.2h-.5c-2.4.2-4.8.6-7.2.6-.1 0-.1.1-.2.1-1.6-1.2-3.3-2.3-4.9-3.5 1.7-.9 3.6-1.4 5.4-1.7.7-.1 1.3-.8 1.2-1.5 0-.5-.3-.8-.8-1.1-2-1-3.5-2.1-4.7-3.3 2.3-.4 4.7-.8 7-1.1.3.2.7.4 1 .6 1.9 1.2 4 2.5 6.1 3.5.4.2.9.2 1.3-.1s.7-.8.6-1.3c0-.5-.3-.8-.7-1.1-1.5-.7-2.9-1.6-4.2-2.4 1.4-.2 2.7-.5 4.1-.7 1.4-.5 1.7-1.3 1.7-1.9zm-22.4-2.5c1.5.2 3 .2 4.7-.1-.7 1.4-1.3 2.9-1.7 4.4-2.3.4-4.6.7-7 1.1 1.3-1.8 2.6-3.6 4-5.4zm-10.2-2.7.3.3c.3 2.2.7 4.4 1 6.6-2-1.5-4-2.9-6-4.4.1-.9.1-1.8 0-2.7 0-.5-.1-1-.2-1.5 1.6.7 3.3 1.3 4.9 1.7zm-11 7.2c1.6-.5 3.2-1.3 4.6-2.1h.5c1.9 1.4 3.7 2.7 5.6 4.1-2.5.4-5 .8-7.5 1.2-.8-1.3-1.9-2.3-3.2-3.2zm6.7 10.6c-1.5-.2-3.1-.2-4.9.1.8-1.5 1.4-3.2 1.8-4.8l.2-.2c2.4-.4 4.9-.8 7.3-1.1-1.4 2-2.9 4-4.4 6zm4.1 6.3c-.5-1.6-1.2-3.1-2-4.5 1.5-2.1 3-4.2 4.6-6.3.4 2.4.7 4.7 1.1 7.1-1.4 1-2.6 2.2-3.7 3.7zm4.2-17.6c-.4-2.3-.7-4.6-1.1-6.9 1.1-.9 2.1-1.9 3-3.2.5 1.6 1.3 3.2 2.1 4.6-1.3 1.8-2.6 3.6-4 5.5zm2.2 14c-.4-2.5-.8-5.1-1.2-7.6 1.8 1.3 3.7 2.7 5.5 4-.2 1.2-.3 2.4-.2 3.7 0 .5.1 1 .2 1.5-1.4-.6-2.8-1.2-4.3-1.6zm10.6-7.2c-1.4.5-2.8 1.1-4.2 1.8-2-1.5-4-2.9-6-4.4 2.2-.3 4.3-.7 6.5-1 1 1.4 2.2 2.5 3.7 3.6z" fill="#c0343e"/></svg>