<svg xmlns="http://www.w3.org/2000/svg" viewBox="0 0 200 177.84"><defs><style>.cls-1{fill:#202945;}</style></defs><title>volume-on</title><g id="Layer_2" data-name="Layer 2"><g id="Layer_1-2" data-name="Layer 1"><path class="cls-1" d="M107.31,14.56V163.13a3.44,3.44,0,0,1-3.42,3.42A3.47,3.47,0,0,1,102,166L39.87,125.31l-36.51-.52A3.41,3.41,0,0,1,0,121.34V55.5a3.43,3.43,0,0,1,3.41-3.42H39.05l63-40.39a3.42,3.42,0,0,1,5.26,2.87Z"/><path class="cls-1" d="M135.9,129.85a3,3,0,0,1-1.45-5.54s2.61-1.64,5.2-6.7c2.46-4.8,5.39-13.69,5.39-28.77s-2.93-24-5.39-28.8C137,55,134.43,53.3,134.4,53.28a2.92,2.92,0,0,1-1.1-4v0a3,3,0,0,1,4.05-1.11c.55.32,13.59,8.07,13.59,40.68,0,13.46-2.15,24.28-6.4,32.15-3.34,6.18-6.82,8.26-7.2,8.48a3,3,0,0,1-1.45.37Z"/><path class="cls-1" d="M153.61,154.22a3,3,0,0,1-1.45-5.53c.16-.1,18.33-11.38,18.33-59.83,0-25.42-5-40.4-9.26-48.5-4.51-8.64-9.06-11.41-9.11-11.44a3,3,0,0,1,2.94-5.13c.87.49,21.34,12.68,21.34,65.07s-20.48,64.49-21.35,65A3,3,0,0,1,153.61,154.22Z"/><path class="cls-1" d="M169.7,177.84a3,3,0,0,1-1.45-5.54c.05,0,6.47-3.85,12.83-15.91,10.75-20.36,13-47.95,13-67.51s-2.26-47.17-13-67.59c-6.37-12.08-12.79-15.95-12.86-16A3,3,0,0,1,171.15.17C172.33.84,200,17.32,200,88.88s-27.68,87.91-28.86,88.58a2.9,2.9,0,0,1-1.44.38Z"/></g></g></svg>