<svg viewBox="0 0 200 178.05" xmlns="http://www.w3.org/2000/svg"><g fill="#b2b8bc"><path d="m103.89 166.76a3.44 3.44 0 0 1 -1.87-.56l-62.15-40.68-36.51-.52a3.42 3.42 0 0 1 -3.36-3.45v-65.84a3.42 3.42 0 0 1 3.41-3.42h35.64l63-40.39a3.42 3.42 0 0 1 5.26 2.87v148.57a3.43 3.43 0 0 1 -1.79 3 3.49 3.49 0 0 1 -1.63.42zm-97.07-48.57 34.15.52a3.36 3.36 0 0 1 1.81.56l57.7 37.73v-136l-58.58 37.58a3.44 3.44 0 0 1 -1.85.54h-33.23z"/><path d="m135.9 130.06a3 3 0 0 1 -1.45-5.54s2.61-1.64 5.2-6.7c2.46-4.8 5.39-13.69 5.39-28.77s-2.93-24-5.39-28.8c-2.61-5.09-5.22-6.74-5.25-6.76a2.92 2.92 0 0 1 -1.09-4 3 3 0 0 1 4.05-1.11c.55.32 13.59 8.07 13.59 40.68 0 13.46-2.15 24.28-6.4 32.15-3.34 6.18-6.82 8.26-7.2 8.48a2.94 2.94 0 0 1 -1.45.37z"/><path d="m153.61 154.43a3 3 0 0 1 -1.45-5.53c.16-.1 18.33-11.38 18.33-59.83 0-25.42-5-40.4-9.26-48.5-4.51-8.64-9.06-11.41-9.11-11.44a3 3 0 0 1 2.94-5.13c.87.49 21.34 12.68 21.34 65.07s-20.48 64.49-21.35 65a2.9 2.9 0 0 1 -1.44.36z"/><path d="m169.7 178.05a3 3 0 0 1 -1.45-5.54c.05 0 6.47-3.85 12.83-15.91 10.75-20.36 13-47.95 13-67.51s-2.26-47.17-13-67.59c-6.37-12.08-12.79-15.95-12.86-16a3 3 0 0 1 2.93-5.12c1.18.67 28.85 17.15 28.85 88.71s-27.68 87.91-28.86 88.58a2.87 2.87 0 0 1 -1.44.38z"/></g></svg>