<svg viewBox="0 0 199.77 198.62" xmlns="http://www.w3.org/2000/svg"><g fill="#b2b8bc"><path d="m149.12 178.3a3.44 3.44 0 0 1 -1.87-.56l-62.15-40.68-36.51-.56a3.4 3.4 0 0 1 -3.36-3.41v-65.84a3.41 3.41 0 0 1 3.41-3.41h35.64l63-40.4a3.42 3.42 0 0 1 5.26 2.87v148.58a3.42 3.42 0 0 1 -1.79 3 3.49 3.49 0 0 1 -1.63.41zm-97.06-48.57 34.14.52a3.44 3.44 0 0 1 1.81.56l57.7 37.77v-136l-58.58 37.54a3.35 3.35 0 0 1 -1.84.54h-33.23z"/><path d="m3.41 198.62a3.41 3.41 0 0 1 -2.41-5.83l193-191.79a3.41 3.41 0 1 1 4.81 4.84l-192.99 191.79a3.42 3.42 0 0 1 -2.41.99z"/></g></svg>